<svg width="420" height="368" viewBox="0 0 210 184" fill="none" xmlns="http://www.w3.org/2000/svg"><path fill-rule="evenodd" clip-rule="evenodd" d="M162.881 86.29c2.141 6.59-.263 13.276-5.37 14.935-5.107 1.659-10.982-2.337-13.123-8.926-2.141-6.59.263-13.276 5.37-14.936 5.107-1.659 10.982 2.338 13.123 8.927Zm-42.606 37.408c-2.139-6.582-8.012-10.587-13.123-8.927-5.11 1.661-7.489 8.347-5.35 14.929 2.139 6.582 8.013 10.587 13.103 8.933 5.091-1.654 7.476-8.453 5.37-14.935Zm59.078-32.384c-5.111 1.66-7.508 8.353-5.37 14.935 2.139 6.582 8.013 10.587 13.123 8.926 5.11-1.66 7.489-8.347 5.35-14.928-2.138-6.582-8.013-10.587-13.103-8.933Zm-48.487 18.571c5.11-1.66 7.515-8.333 5.37-14.935-2.145-6.602-8.013-10.587-13.123-8.926-5.111 1.66-7.509 8.353-5.37 14.935 2.138 6.582 8.032 10.58 13.123 8.926Zm-4.409 56.652c-4.523-13.919 3.314-47.243 19.043-52.354 15.709-5.104 41.604 17.15 46.237 31.341a13.62 13.62 0 0 1-4.105 14.556 13.602 13.602 0 0 1-4.634 2.595 12.115 12.115 0 0 1-10.097-.698 9.861 9.861 0 0 1-1.62-.924c-.381-.23-.757-.465-1.131-.698-2.976-1.857-5.828-3.637-10.332-2.173-4.548 1.478-5.8 4.608-7.122 7.915-.152.38-.305.762-.464 1.145-.215.59-.479 1.16-.787 1.707a12.07 12.07 0 0 1-7.759 6.5 13.646 13.646 0 0 1-10.476-.856 13.624 13.624 0 0 1-6.753-8.056ZM71.881 19.29c2.141 6.59-.263 13.276-5.37 14.935-5.106 1.66-10.982-2.337-13.123-8.926-2.14-6.59.263-13.276 5.37-14.935 5.107-1.66 10.982 2.337 13.123 8.926ZM29.275 56.698c-2.138-6.582-8.012-10.587-13.123-8.927-5.11 1.66-7.489 8.347-5.35 14.93 2.139 6.581 8.013 10.586 13.103 8.932s7.476-8.453 5.37-14.935Zm59.078-32.384c-5.11 1.66-7.508 8.353-5.37 14.935 2.139 6.582 8.013 10.587 13.123 8.926 5.11-1.66 7.489-8.347 5.35-14.928-2.138-6.582-8.013-10.587-13.103-8.933ZM39.866 42.885c5.11-1.66 7.515-8.333 5.37-14.935-2.145-6.602-8.013-10.587-13.123-8.926-5.11 1.66-7.509 8.353-5.37 14.935 2.138 6.582 8.032 10.58 13.123 8.926Zm-4.41 56.652C30.935 85.618 38.772 52.294 54.5 47.183c15.709-5.104 41.604 17.15 46.237 31.341a13.613 13.613 0 0 1-8.739 17.151 12.127 12.127 0 0 1-10.097-.698 9.828 9.828 0 0 1-1.62-.924c-.382-.23-.757-.465-1.131-.698-2.976-1.857-5.828-3.637-10.332-2.173-4.548 1.478-5.8 4.608-7.122 7.915-.152.38-.305.763-.464 1.145-.215.59-.479 1.16-.787 1.707a12.073 12.073 0 0 1-7.759 6.5 13.645 13.645 0 0 1-10.477-.856 13.631 13.631 0 0 1-6.752-8.056Z" fill="#4700EB"/></svg>