<svg width="284" height="294" viewBox="0 0 192 197" fill="none" xmlns="http://www.w3.org/2000/svg"><path d="m145.54 33.112 18.748-5.376L163.169.09l-42.891 12.298 4.501 25.848c12.702 9.675 21.901 23.335 26.146 38.824 9.839 34.314-4.709 68.582-32.517 76.556-27.807 7.973-58.304-13.378-68.144-47.693-4.608-15.384-4.045-31.843 1.6-46.779L41.969 34.79.887 46.57 14.59 70.61l16.987-4.87a86.507 86.507 0 0 0-10.77 32.78 87.662 87.662 0 0 0 2.841 34.545c6.352 22.137 21.096 40.886 40.99 52.122 19.894 11.237 43.308 14.042 65.095 7.8 21.785-6.251 40.155-21.039 51.071-41.11 10.916-20.071 13.485-43.783 7.141-65.923a87.67 87.67 0 0 0-15.906-30.772 86.492 86.492 0 0 0-26.498-22.07Z" fill="#4700EB"/></svg>