<svg width="114" height="64" viewBox="0 0 114 64" fill="none" xmlns="http://www.w3.org/2000/svg">
<path d="M10.8 44.432C8.784 44.432 7.044 43.892 5.58 42.812C4.14 41.708 3.024 40.184 2.232 38.24C1.464 36.272 1.08 33.992 1.08 31.4C1.08 28.832 1.464 26.576 2.232 24.632C3.024 22.664 4.14 21.128 5.58 20.024C7.044 18.92 8.784 18.368 10.8 18.368C12.84 18.368 14.58 18.92 16.02 20.024C17.46 21.128 18.564 22.664 19.332 24.632C20.124 26.576 20.52 28.832 20.52 31.4C20.52 33.992 20.124 36.272 19.332 38.24C18.564 40.184 17.46 41.708 16.02 42.812C14.58 43.892 12.84 44.432 10.8 44.432ZM10.8 42.056C12.936 42.056 14.652 41.132 15.948 39.284C17.268 37.412 17.928 34.784 17.928 31.4C17.928 28.016 17.268 25.4 15.948 23.552C14.652 21.68 12.936 20.744 10.8 20.744C8.688 20.744 6.972 21.68 5.652 23.552C4.332 25.4 3.672 28.016 3.672 31.4C3.672 34.784 4.332 37.412 5.652 39.284C6.972 41.132 8.688 42.056 10.8 42.056ZM31.8819 44.432C29.6499 44.432 27.8259 43.904 26.4099 42.848C24.9939 41.792 24.2019 40.328 24.0339 38.456H26.6619C26.8059 39.512 27.3339 40.388 28.2459 41.084C29.1819 41.78 30.4179 42.128 31.9539 42.128C33.4419 42.128 34.5339 41.804 35.2299 41.156C35.9259 40.484 36.2739 39.752 36.2739 38.96C36.2739 37.856 35.8539 37.112 35.0139 36.728C34.1979 36.344 32.9379 36.056 31.2339 35.864C29.2899 35.648 27.7059 35.144 26.4819 34.352C25.2579 33.536 24.6459 32.324 24.6459 30.716C24.6459 29.3 25.2459 28.112 26.4459 27.152C27.6699 26.192 29.3139 25.712 31.3779 25.712C33.4419 25.712 35.0619 26.18 36.2379 27.116C37.4379 28.028 38.1099 29.372 38.2539 31.148H35.6979C35.6499 30.212 35.2059 29.456 34.3659 28.88C33.5499 28.304 32.5299 28.016 31.3059 28.016C30.0099 28.016 29.0019 28.256 28.2819 28.736C27.5859 29.192 27.2379 29.84 27.2379 30.68C27.2379 31.424 27.6219 32.06 28.3899 32.588C29.1579 33.092 30.3819 33.428 32.0619 33.596C33.3099 33.716 34.4379 33.944 35.4459 34.28C36.4779 34.592 37.3059 35.108 37.9299 35.828C38.5539 36.548 38.8659 37.556 38.8659 38.852C38.8899 39.908 38.6019 40.868 38.0019 41.732C37.4019 42.572 36.5739 43.232 35.5179 43.712C34.4859 44.192 33.2739 44.432 31.8819 44.432ZM46.0519 44V18.08H48.5719V33.74L56.3839 26.144H59.6239L51.3799 34.1V34.316L60.5959 44H57.4639L48.5719 34.64V44H46.0519ZM73.2538 22.688C72.6538 22.688 72.1258 22.472 71.6698 22.04C71.2378 21.584 71.0218 21.056 71.0218 20.456C71.0218 19.832 71.2378 19.304 71.6698 18.872C72.1258 18.44 72.6538 18.224 73.2538 18.224C73.8778 18.224 74.4058 18.44 74.8378 18.872C75.2698 19.304 75.4858 19.832 75.4858 20.456C75.4858 21.056 75.2698 21.584 74.8378 22.04C74.4058 22.472 73.8778 22.688 73.2538 22.688ZM66.3778 44V41.84H72.1378V29.024C72.1378 28.544 71.8978 28.304 71.4178 28.304H67.0978V26.144H72.1378C73.8178 26.144 74.6578 26.984 74.6578 28.664V41.84H80.4178V44H66.3778Z" fill="white"/>
<path fill-rule="evenodd" clip-rule="evenodd" d="M105.769 19.346C105.769 21.6556 104.318 23.528 102.528 23.528C100.738 23.528 99.2869 21.6556 99.2869 19.346C99.2869 17.0364 100.738 15.1641 102.528 15.1641C104.318 15.1641 105.769 17.0364 105.769 19.346ZM88.4067 26.8187C88.4067 24.5116 86.957 22.6367 85.1658 22.6367C83.3745 22.6367 81.9316 24.5116 81.9316 26.8187C81.9316 29.1257 83.3815 31.0006 85.1658 31.0006C86.9501 31.0006 88.4067 29.0909 88.4067 26.8187ZM110.473 22.6367C108.682 22.6367 107.232 24.5116 107.232 26.8187C107.232 29.1257 108.682 31.0006 110.473 31.0006C112.265 31.0006 113.708 29.1257 113.708 26.8187C113.708 24.5116 112.258 22.6367 110.473 22.6367ZM93.1881 23.5289C94.9794 23.5289 96.4291 21.661 96.4291 19.347C96.4291 17.033 94.9794 15.165 93.1881 15.165C91.3969 15.165 89.947 17.0399 89.947 19.347C89.947 21.654 91.4038 23.5289 93.1881 23.5289ZM85.9535 41.0372C85.9535 36.1583 91.8709 26.4004 97.3841 26.4004C102.89 26.4004 108.808 36.1234 108.815 41.0999C108.815 41.6958 108.697 42.2858 108.469 42.8363C108.241 43.3868 107.907 43.887 107.486 44.3084C107.065 44.7297 106.564 45.0639 106.014 45.292C105.463 45.52 104.873 45.6374 104.277 45.6374C103.696 45.6649 103.115 45.5664 102.575 45.3487C102.035 45.131 101.548 44.7991 101.148 44.3758C100.994 44.2361 100.854 44.0821 100.73 43.9158C100.632 43.8037 100.537 43.6906 100.443 43.5781C99.6908 42.6829 98.9699 41.8248 97.391 41.8248C95.797 41.8248 95.0777 42.6883 94.3177 43.6005C94.2303 43.7054 94.1424 43.8109 94.0526 43.9158C93.9237 44.0805 93.7814 44.2344 93.6274 44.3758C93.2282 44.8002 92.7417 45.1328 92.2014 45.3507C91.661 45.5685 91.0797 45.6663 90.4979 45.6374C89.8964 45.6374 89.3009 45.518 88.7459 45.2862C88.1908 45.0543 87.6873 44.7146 87.2646 44.2867C86.8419 43.8588 86.5083 43.3512 86.2832 42.7934C86.0582 42.2356 85.9461 41.6387 85.9535 41.0372Z" fill="white"/>
</svg>
