<svg width="143" height="64" viewBox="0 0 143 64" fill="none" xmlns="http://www.w3.org/2000/svg">
<g clip-path="url(#clip0_2228_37931)">
<path d="M15.1501 47.665C19.3151 47.665 23.3401 45.495 25.3701 42.66C26.4201 41.155 26.3501 40.245 25.4751 39.405C24.4951 38.46 23.9351 38.53 23.2351 39.02C21.5201 40.175 19.9101 41.05 17.7751 41.05C13.5051 41.05 10.2151 36.15 10.2151 30.445C10.2151 27.575 11.3701 25.335 13.5051 25.335C15.2551 25.335 16.5501 26.56 17.9851 29.675C18.5101 30.83 19.1751 31.285 19.9451 31.285C21.1351 31.285 22.3601 30.34 23.7251 29.185C26.1051 27.19 26.3851 25.615 24.4251 24.005C21.5901 21.765 18.6501 20.89 14.9401 20.89C7.90512 20.89 1.39512 26.07 1.39512 34.295C1.39512 40.875 6.75012 47.665 15.1501 47.665ZM27.1644 47H34.4794C35.9144 47 36.3344 46.02 36.3344 45.215C36.3344 44.655 36.1244 44.165 35.3894 43.64C34.6894 43.045 34.5144 42.485 34.5144 40.91V22.395C34.5144 21.03 33.8494 20.575 32.6944 20.575H27.1644C25.6944 20.54 25.2744 21.52 25.2394 22.325C25.2394 22.885 25.4494 23.375 26.0444 23.9C26.8494 24.495 27.1644 25.09 27.1294 26.665V40.91C27.1294 42.485 26.9544 43.045 26.2544 43.64C25.5194 44.165 25.3094 44.655 25.3094 45.215C25.3094 46.02 25.7294 47 27.1644 47ZM45.3641 47.595C51.5241 47.595 56.2841 43.115 56.2841 37.34C56.2841 31.495 51.8391 26.805 45.8541 26.805C39.6241 26.805 34.8641 31.32 34.8641 37.305C34.8641 43.08 39.4491 47.595 45.3641 47.595ZM42.3891 34.715C42.3891 32.615 43.2641 31.46 44.5591 31.46C46.7641 31.46 48.7591 36.57 48.7591 40.35C48.7591 42.205 47.8491 43.185 46.5891 43.185C44.3141 43.185 42.3891 38.145 42.3891 34.715ZM62.9311 47.56C64.6811 47.595 66.1511 46.825 67.0611 45.46C67.3061 45.04 67.5161 44.76 67.7611 44.725C68.1111 44.725 68.2511 45.145 68.3211 45.46C68.4961 46.51 68.8811 47.035 70.0011 47.035L75.3561 47C76.7911 47 77.2111 46.02 77.2111 45.215C77.2111 44.655 77.0011 44.165 76.2661 43.64C75.5661 43.045 75.3911 42.485 75.3911 40.91L75.4261 29.99C75.4261 27.995 74.8661 27.365 73.1161 27.365H68.0061C66.4661 27.365 66.0111 28.31 66.0111 29.115C66.0111 29.675 66.2561 30.165 66.8511 30.69C67.6911 31.285 68.0061 31.88 68.0061 33.455V39.3C68.0061 40.665 67.3761 41.33 66.0811 41.33C64.7161 41.33 63.9461 40.35 63.9811 38.845L64.1211 29.43C64.1561 28.03 63.4561 27.365 62.1261 27.365H56.6661C55.1961 27.33 54.7761 28.31 54.7411 29.115C54.7411 29.675 54.9511 30.165 55.5461 30.69C56.3511 31.285 56.6661 31.88 56.6311 33.455V41.155C56.6311 45.6 58.6961 47.49 62.9311 47.56ZM84.1061 47.455C86.1361 47.455 87.5011 46.685 88.5511 45.25C88.8311 44.9 89.0061 44.725 89.2511 44.725C89.5661 44.725 89.6011 44.935 89.6711 45.39C89.7761 46.51 90.3011 47 91.5961 47H96.7061C98.1411 47 98.5611 46.02 98.5611 45.215C98.5611 44.655 98.3511 44.165 97.6161 43.64C96.9161 43.045 96.7411 42.485 96.7411 40.91V22.64C96.7411 20.925 96.1461 20.295 94.4661 20.295H89.3911C87.8161 20.295 87.3611 21.24 87.3611 22.045C87.3611 22.605 87.6061 23.06 88.2361 23.585C89.0761 24.18 89.3911 24.775 89.3911 26.315V26.77C89.3911 27.19 89.1461 27.33 88.8311 27.33C88.5511 27.33 88.2711 27.26 87.8861 27.19C87.3961 27.12 86.5911 27.015 86.0311 27.015C79.9761 27.015 76.1261 32.16 76.1261 38.005C76.1261 44.165 79.9761 47.455 84.1061 47.455ZM83.7561 35.24C83.7561 32.825 84.7361 31.075 86.5211 31.075C87.9561 31.075 89.3561 32.545 89.3561 35.415V38.88C89.3561 40.735 88.6561 41.68 87.3961 41.68C85.3311 41.68 83.7561 38.495 83.7561 35.24Z" fill="white"/>
<path fill-rule="evenodd" clip-rule="evenodd" d="M119.026 24.2113C121.115 24.2842 122.882 22.1651 122.976 19.4668C123.07 16.7685 121.456 14.5313 119.367 14.4584C117.278 14.3854 115.511 16.5127 115.417 19.2028C115.323 21.893 116.946 24.1386 119.026 24.2113ZM133.866 19.8486C133.772 22.5418 132.004 24.666 129.917 24.5931C127.83 24.5202 126.214 22.2779 126.308 19.5847C126.402 16.8915 128.17 14.7673 130.257 14.8402C132.345 14.9131 133.96 17.1554 133.866 19.8486ZM113.317 27.8532C113.411 25.1631 111.797 22.9177 109.708 22.8448C107.619 22.7719 105.86 24.8994 105.766 27.5896C105.672 30.2797 107.287 32.5251 109.367 32.5977C111.448 32.6704 113.224 30.5028 113.317 27.8532ZM139.218 23.8754C137.13 23.8024 135.363 25.9297 135.269 28.6198C135.175 31.31 136.789 33.5553 138.878 33.6283C140.966 33.7012 142.725 31.5737 142.819 28.8835C142.913 26.1933 141.299 23.948 139.218 23.8754ZM109.877 44.3335C110.076 38.6443 117.373 27.5068 123.802 27.7313C130.223 27.9555 136.727 39.5342 136.533 45.3375C136.508 46.0323 136.347 46.7156 136.059 47.3482C135.771 47.9808 135.361 48.5505 134.852 49.0247C134.344 49.4988 133.747 49.8682 133.096 50.1117C132.445 50.3551 131.752 50.468 131.057 50.4437C130.377 50.4521 129.704 50.3137 129.083 50.0378C128.462 49.7619 127.908 49.3551 127.459 48.8452C127.286 48.676 127.129 48.4907 126.99 48.2918C126.881 48.1572 126.775 48.0214 126.669 47.8863C125.829 46.8118 125.023 45.7819 123.182 45.7176C121.323 45.6527 120.449 46.6302 119.526 47.663C119.42 47.7817 119.313 47.9012 119.204 48.0199C119.047 48.2067 118.875 48.3803 118.69 48.539C118.207 49.0176 117.626 49.3857 116.987 49.6177C116.348 49.8497 115.666 49.94 114.989 49.8826C114.288 49.8582 113.598 49.6947 112.96 49.4018C112.323 49.1088 111.749 48.6921 111.274 48.1759C110.798 47.6598 110.43 47.0543 110.19 46.3947C109.951 45.7351 109.844 45.0345 109.877 44.3335Z" fill="white"/>
</g>
<defs>
<clipPath id="clip0_2228_37931">
<rect width="143" height="64" fill="white"/>
</clipPath>
</defs>
</svg>
