<svg fill="none" height="64" viewBox="0 0 180 64" width="180" xmlns="http://www.w3.org/2000/svg"><g fill="#3c3e49"><path d="m22.66 27.5611c1.5997.3009 2.7267.9792 3.3858 2.0254.659 1.0509.9885 2.7036.9885 4.9583 0 4.4806-1.3467 8.1444-4.04 11.0009-2.6935 2.8518-6.1367 4.28-10.3296 4.28-1.6523 0-3.2569-.2961-4.81374-.8932-1.55682-.5972-2.89395-1.4283-4.01143-2.4935-1.27985-1.1752-2.23974-2.4123-2.87967-3.7211-.639923-1.3088-.95986-2.6464-.95986-4.0125 0-1.5286.329487-2.7085.988512-3.5444.659018-.8359 1.695328-1.4043 3.118448-1.7054-.26743-.6209-.46322-1.1464-.58738-1.5715-.12417-.4251-.18626-.7548-.18626-.9888 0-.7977.42023-1.6193 1.2655-2.4553.84527-.8359 1.63801-1.2515 2.38778-1.2515.31996 0 .65905.0573 1.01243.172.35339.1147.76406.3057 1.22729.5732-1.37058-3.874-2.36389-6.8642-2.98471-8.9708s-.93121-3.5587-.93121-4.3612c0-1.1034.19102-1.9442.74499-2.6033.67335-.8073 1.69052-.9984 2.66951-.9984 1.9771 0 2.6839 1.6958 6.0984 11.2016.4584 1.2753.7832 2.2642 1.0124 2.9616.1958-.5493.4728-1.3327.8261-2.3454 2.5598-7.3945 3.6534-11.0917 6.6094-11.0917.9074 0 1.6285.3057 2.1728.9219.5397.6114.8119 1.4378.8119 2.4648 0 .7834-.296 2.2117-.893 4.2943-.5922 2.0732-1.4948 4.7912-2.7029 8.154zm-19.0879 10.8768c.24832.3009.59694.7452 1.04107 1.3327 1.17477 1.6193 2.25883 2.4266 3.25213 2.4266.33907 0 .63994-.105.90737-.32s.40114-.4347.40114-.6688c0-.2676-.1767-.7117-.53487-1.3327-.35816-.6211-.84527-1.3232-1.4661-2.1065-.71155-.9076-1.3037-1.5669-1.7717-1.9873-.47278-.4155-.85008-.6257-1.13184-.6257-.62081 0-1.19386.3344-1.71917.9983-.52532.6687-.78799 1.4522-.78799 2.3597 0 .731.18149 1.543.54443 2.441s.89303 1.8009 1.58548 2.7085c1.05062 1.4043 2.34956 2.4839 3.90639 3.2386 1.55682.7547 3.27606 1.1321 5.15756 1.1321 3.467 0 6.3659-1.2944 8.7059-3.8787 2.3352-2.5843 3.5052-5.8277 3.5052-9.7208 0-1.1894-.0907-2.1352-.2674-2.8421-.1768-.7023-.4728-1.2133-.8787-1.5334-.7307-.6019-2.1443-1.1465-4.2503-1.6289-2.106-.4776-4.3075-.7213-6.5997-.7213-.64 0-1.0937.1051-1.3611.32-.2674.215-.4011.578-.4011 1.0939 0 1.2086.6733 2.0827 2.0248 2.6273 1.3515.5445 3.5387.812 6.5569.812h1.0935c.2483 0 .4489.0955.6017.2819.1529.1862.2532.4681.3057.8407-.3009.2866-.9265.6113-1.8673.9744-.9407.3631-1.6618.7261-2.1585 1.0796-1.0649.7833-1.9245 1.7101-2.574 2.7848-.6495 1.0748-.9743 2.0923-.9743 3.0524 0 .5875.1386 1.2945.4155 2.1209.277.8263.4155 1.3375.4155 1.5333v.1864l-.0526.2388c-.7831-.0526-1.3992-.5111-1.8529-1.371-.4536-.8598-.6781-2.011-.6781-3.4535v-.2389c-.1433.1242-.2817.215-.4154.2675-.1338.0525-.2818.0811-.4394.0811-.1624 0-.3104-.0142-.4537-.0381-.1432-.0286-.3008-.0669-.4775-.1195.0525.196.0955.387.1194.5733.0286.1863.0382.3343.0382.4394 0 .6593-.2579 1.2229-.7737 1.691-.51571.4729-1.12701.707-1.83856.707-1.11748 0-2.25881-.5446-3.4145-1.6384-1.15569-1.0939-1.73353-2.1639-1.73353-3.2148 0-.1959.02389-.3678.06687-.5206.04776-.1482.11938-.2771.22922-.3822zm7.9943.6401c.3008 0 .5778-.1386.8261-.4156.2483-.2771.3725-.5733.3725-.8932 0-.3392-.2436-1.1226-.7354-2.3599-.4871-1.2371-1.0984-2.4504-1.8243-3.6399-.53482-.8884-1.05538-1.5619-1.57113-2.011-.51576-.4538-1.00287-.6783-1.4661-.6783-.37249 0-.78796.2341-1.24163.707-.45368.4729-.67812.9124-.67812 1.3184 0 .4252.22444 1.0653.66855 1.9202.44413.8551 1.04107 1.7579 1.78605 2.7181.78319 1.0508 1.51863 1.8677 2.21108 2.4552.6972.5875 1.2464.879 1.6524.879zm2.6169-12.8782-2.8796-8.3212c-.745-2.1161-1.32282-3.4966-1.73352-4.1463-.4107-.6496-.85482-.9744-1.33237-.9744-.3725 0-.67336.1433-.90736.4251-.22923.2866-.3486.6687-.3486 1.1464 0 .8169.31038 2.2403.93119 4.2657.62083 2.0253 1.55686 4.686 2.79846 7.9725.1051-.1959.2579-.3345.4537-.4156.1958-.0813.4632-.1195.7975-.1195.1051 0 .32.0096.6399.0286.3248.024.8501.067 1.5807.1387zm3.0086 8.0775c-.7641-.0335-1.4899-.1147-2.1728-.2389-.683-.1241-1.3372-.3009-1.958-.535.2817.5685.5349 1.1369.7593 1.7053.2244.5685.4059 1.1274.5445 1.6815.425-.5351.8738-1.0174 1.3466-1.4521.4727-.4347.9647-.8217 1.4804-1.1608zm3.5483-7.1699c1.1891-3.234 2.1203-5.9042 2.784-8.0107.6686-2.1066.9983-3.4011.9983-3.8788 0-.5159-.1099-.9171-.3343-1.199-.2246-.2818-.5301-.4251-.9218-.4251-.4967 0-1.0028.4156-1.5186 1.242-.5157.8263-1.084 2.1543-1.7048 3.9886l-2.6649 7.705z"/><path d="m52.3156 17.6543 10.2483 25.1307h-5.3056l-2.5121-6.2241h-10.6875l-2.4308 6.2241h-5.0239l10.172-25.1307zm-6.7431 15.0803h7.6551l-3.7869-9.415h-.1576z"/><path d="m68.7147 42.7844h-4.785v-17.5929h4.785v2.8709c.8788-1.9967 3.1089-3.3534 5.745-3.3534 4.7039 0 6.4231 3.1909 6.4231 7.1031v10.9723h-4.7851v-10.0122c0-2.7132-1.0745-4.2705-3.4289-4.2705-2.4307 0-3.9493 1.9156-3.9493 4.8676v9.4151z"/><path d="m91.3793 36.6798c-1.4375 0-2.7508-.2006-3.8682-.6401-.4394.2771-.7163.7165-.7163 1.2755 0 .7977.5205 1.3183 1.8337 1.3183h7.0201c3.9064 0 5.9024 2.1162 5.9024 4.9488 0 4.3899-5.1049 6.2241-10.5681 6.2241-4.8663 0-9.0115-1.2372-9.0115-4.5093 0-1.7961 1.4375-3.0714 3.51-3.3485-1.5949-.5206-2.4307-1.7961-2.4307-3.2291 0-1.5955 1.1175-2.7944 2.8319-3.4679-1.5138-1.0367-2.4307-2.5938-2.4307-4.5094 0-3.7498 3.3095-6.0235 7.937-6.0235 2.1536 0 4.1451.5589 5.5825 1.5573.9982-1.3949 2.7508-2.5126 4.6656-2.5126v3.831c-.955 0-2.1154.1576-3.0324.4776.4776.7596.7593 1.6767.7593 2.6702-.0095 3.6687-3.3571 5.9376-7.9846 5.9376zm-.3964 10.2128c3.51 0 6.0602-.7978 6.0602-2.5126 0-1.156-.9551-1.5955-2.5502-1.5955h-5.8644c-1.275 0-2.3113.5207-2.3113 1.7961 0 1.5955 1.8337 2.312 4.6657 2.312zm.4394-19.2648c-1.7957 0-3.0326 1.0748-3.0326 3.1096 0 2.035 1.2369 3.1097 3.0326 3.1097 1.8337 0 3.0706-1.0747 3.0706-3.1097 0-2.0348-1.2369-3.1096-3.0706-3.1096z"/><path d="m119.742 37.0429c-.917 3.9075-3.949 6.2242-8.452 6.2242-5.426 0-9.332-3.4727-9.332-9.0138 0-5.5459 3.949-9.5345 9.212-9.5345 5.745 0 8.696 3.9886 8.696 8.775v1.7149h-13.199c.157 2.5937 2.192 4.4281 4.785 4.4281 2.354 0 3.749-.9984 4.427-2.9904zm-4.546-4.8294c-.158-2.0348-1.395-3.9885-4.069-3.9885-2.631 0-3.949 1.796-4.389 3.9885z"/><path d="m126.533 17.6538v25.1307h-4.785v-25.1307z"/><path d="m134.512 17.6538v20.9845h9.46v4.1509h-14.446v-25.1354z"/><path d="m145.094 17.6538h4.905v4.6669h-4.905zm4.867 7.5378v17.5929h-4.785v-17.5929z"/><path d="m155.655 36.804c.277 2.1162 1.876 3.191 4.307 3.191 1.754 0 3.19-.5972 3.19-1.8726 0-1.1989-.797-1.7148-2.549-1.9967l-2.795-.4776c-3.748-.597-5.821-1.9967-5.821-5.264 0-3.3533 2.832-5.6653 7.297-5.6653 4.867 0 7.779 2.1926 8.095 6.1048l-3.95.1576c-.32-1.992-1.676-2.9903-4.188-2.9903-1.715 0-2.832.7595-2.832 1.9537 0 .9553.64 1.5143 1.916 1.7149l3.347.5588c3.711.5972 5.902 2.1543 5.902 5.4647 0 3.5922-3.108 5.5841-7.655 5.5841-4.584 0-8.094-1.9967-8.415-6.3006z"/><path d="m170.147 28.5451h-2.512v-2.8326l1.195-.2006c1.713-.2771 2.191-1.1561 2.592-2.7945l.559-2.3932h2.913v4.8676h4.785v3.3485h-4.785v8.6985c0 1.5143.679 2.1926 2.116 2.1926.955 0 1.953-.3582 2.99-.8359v3.1526c-1.276.9554-2.713 1.5142-4.866 1.5142-2.713 0-4.987-1.1941-4.987-4.9487z"/></g></svg>