<svg fill="none" height="64" viewBox="0 0 93 64" width="93" xmlns="http://www.w3.org/2000/svg"><g clip-rule="evenodd" fill="#fff" fill-rule="evenodd"><path d="m15.6185 25.3908c0 2.4889-1.9258 4.4387-4.3848 4.4387h-5.74737v-8.794h5.74737c2.4178 0 4.3848 1.9538 4.3848 4.3553zm-4.3848-9.3555h-10.7337v31.6301h4.98633v-12.8774h5.74737c5.1674 0 9.3712-4.2154 9.3712-9.3972 0-5.1587-4.2038-9.3555-9.3712-9.3555z"/><path d="m25.8484 34.4113c.6209-2.5835 2.8787-4.3493 5.6429-4.3493 2.6723 0 4.9707 1.8024 5.634 4.3493zm5.6846-8.7808c-6.1333 0-10.9373 4.7843-10.9373 10.892 0 6.4359 4.9688 11.4774 11.3123 11.4774 3.3177 0 6.5384-1.3772 9.0693-3.8775l.2574-.2542-3.0023-3.6658-.3084.3002c-.8173.7963-3.0354 2.6481-5.9744 2.6481-2.8199 0-5.2151-1.8283-6.102-4.6006h16.6643v-.3969c0-7.3733-4.515-12.5227-10.9789-12.5227z"/><path d="m50.9009 19.2001h-5.1197v20.7931c0 4.8638 3.1069 8.0069 7.9149 8.0069h4.1173v-5.0968h-4.0319c-1.6154 0-2.8806-1.2599-2.8806-2.8677v-9.5369h6.9978v-4.5445h-6.9978z"/><path d="m77.1984 36.7735c0 3.4238-2.7571 6.2096-6.1462 6.2096-3.3888 0-6.1463-2.7858-6.1463-6.2096 0-3.4011 2.7575-6.1678 6.1463-6.1678 3.3891 0 6.1462 2.7667 6.1462 6.1678zm.5417-8.6778c-1.8765-1.5758-4.282-2.4651-6.7292-2.4651-6.169 0-11.1877 4.9986-11.1877 11.1429 0 6.1902 5.0187 11.2265 11.1877 11.2265 2.5104 0 4.8821-.8687 6.7709-2.4633v2.1288h4.333v-21.7004h-4.3747z"/><path d="m86.5977 47.3598h5.102v-30.08h-5.102z"/></g></svg>