<svg width="400" height="400" viewBox="0 0 200 200" fill="none" xmlns="http://www.w3.org/2000/svg"><path fill-rule="evenodd" clip-rule="evenodd" d="M137.727 26.082c5.94 17.877-.486 36.104-14.353 40.712-13.868 4.607-29.924-6.15-35.864-24.027-5.94-17.877.486-36.104 14.353-40.712 13.867-4.607 29.924 6.15 35.864 24.027Zm23.544 6.554c-13.877 4.611-20.224 22.805-14.282 40.688 5.943 17.884 21.927 28.459 35.733 23.872 13.806-4.588 20.283-22.626 14.341-40.51-5.942-17.883-21.95-28.649-35.792-24.05ZM52.946 104.77C47.004 86.887 30.96 76.133 17.154 80.72 3.348 85.307-3.07 103.525 2.872 121.408c5.942 17.884 21.927 28.459 35.733 23.871 13.806-4.587 20.283-22.625 14.34-40.509Zm15.358-19.638c13.878-4.611 20.212-22.84 14.27-40.724-5.942-17.883-21.927-28.459-35.733-23.871-13.806 4.587-20.283 22.626-14.34 40.509 5.941 17.884 21.961 28.685 35.803 24.086Zm-4.956 97.202c-8.319-25.036 5.41-85.2 33.7-94.6 28.257-9.389 75.202 30.416 83.58 55.632a24.533 24.533 0 0 1-15.547 31.021 21.874 21.874 0 0 1-9.23 1.422 21.876 21.876 0 0 1-8.981-2.56 20.397 20.397 0 0 1-2.93-1.647c-.691-.41-1.371-.828-2.048-1.244-5.386-3.312-10.548-6.486-18.65-3.794-8.181 2.718-10.401 8.376-12.745 14.354-.27.687-.541 1.378-.823 2.069a20.299 20.299 0 0 1-1.361 3.073 21.866 21.866 0 0 1-13.908 11.81 24.574 24.574 0 0 1-31.057-15.536Z" fill="#4700EB"/></svg>