<svg width="182" height="64" viewBox="0 0 182 64" fill="none" xmlns="http://www.w3.org/2000/svg">
<g clip-path="url(#clip0_7526_10564)">
<path d="M23.4243 37.3609V42.4368H0.0725098V37.3609L14.5527 25.1093H0.437553V20H23.1298V25.1093L8.53494 37.3609H23.4243Z" fill="white"/>
<path fill-rule="evenodd" clip-rule="evenodd" d="M129.1 35.1035L129.072 30.2706H115.934V34.5806H123.332L123.36 35.2376C123.36 36.316 123.077 37.0509 122.51 37.4437C121.944 37.837 121.17 38.0328 120.187 38.0328L114.994 37.9997C114.433 37.9997 113.972 37.9879 113.612 37.9655C113.252 37.943 112.735 37.8791 112.062 37.7719C111.387 37.6659 110.868 37.2277 110.503 36.4585C110.139 35.6893 109.956 34.5144 109.956 32.9311V30.7924C109.956 28.8848 110.138 27.5265 110.503 26.718C110.868 25.9101 111.743 25.5056 113.128 25.5056L119.879 25.5398C120.364 25.5331 120.848 25.5527 121.331 25.5987C121.688 25.6448 122.039 25.7435 122.378 25.8933C122.742 26.0504 122.993 26.3247 123.128 26.7192C123.264 27.1108 123.332 27.5821 123.332 28.133H129.044V27.7117C129.044 24.7257 128.475 22.711 127.338 21.6669C126.202 20.6222 124.366 20.1004 121.83 20.1004L117.928 20L116.314 20.0331L111.949 20.1341C108.534 20.1341 106.368 20.9953 105.45 22.7194C104.533 24.4418 104.075 27.5428 104.075 32.0222L104.131 34.9184C104.131 37.4319 104.508 39.2991 105.261 40.5171C106.014 41.7346 107.039 42.5212 108.334 42.8747C109.63 43.2281 111.379 43.4049 113.577 43.4049L116.595 43.438L120.075 43.4722L123.121 43.438C125.48 43.438 127.065 42.7568 127.879 41.3918C128.693 40.0284 129.1 37.9312 129.1 35.1035ZM51.1623 37.4766V43.2358H32.074V20.2349H37.9127V37.4766H51.1623ZM73.8786 20.2349V25.4717H58.326V29.4109H72.838L71.0976 33.9577H58.327V38.032H73.8777V43.2358H52.4892V20.2349H73.8786ZM74.7542 43.2358H81.2391L83.148 39.0593H95.527L97.3369 43.2358H103.78L93.3236 20.2349H85.4351L74.7542 43.2358ZM85.1839 34.3119H93.4083L89.2954 25.2021L85.1839 34.3119ZM156.363 20.2698V34.7157C156.363 38.3082 155.582 40.6713 154.019 41.8041C152.457 42.9385 150.048 43.5052 146.792 43.5052L142.02 43.4721C139.493 43.4721 137.559 43.3111 136.215 42.9924C134.873 42.672 133.79 41.8579 132.967 40.5501C132.143 39.2434 131.732 37.1855 131.732 34.3797V20.2686H137.57V32.3077C137.57 34.6097 137.799 36.1027 138.257 36.7871C138.716 37.4728 139.876 37.8144 141.738 37.8144L144.349 37.8649L146.763 37.8144C148.354 37.8144 149.374 37.5165 149.823 36.9224C150.272 36.3265 150.497 35.1208 150.497 33.3019V20.2686H156.363V20.2698ZM180.835 25.4717V20.2349H159.445V43.2358H180.835V38.032H165.283V33.9577H178.055L179.795 29.4109H165.283V25.4717H180.835Z" fill="white"/>
</g>
<defs>
<clipPath id="clip0_7526_10564">
<rect width="181" height="24" fill="white" transform="translate(0.0725098 20)"/>
</clipPath>
</defs>
</svg>
