<svg width="169" height="64" viewBox="0 0 169 64" fill="none" xmlns="http://www.w3.org/2000/svg">
<g clip-path="url(#clip0_2228_37930)">
<path d="M16.0335 46.036C22.8015 46.036 26.4015 42.976 26.4015 38.404C26.4015 36.172 25.2855 34.732 23.9895 34.012C22.9095 33.364 22.5855 33.544 22.5855 33.184C22.5855 32.824 23.0535 33.004 24.1335 32.536C26.6535 31.492 28.0575 29.476 28.0575 27.028C28.0575 23.644 25.5015 21.772 20.9295 21.772H9.94948C8.43748 21.772 8.14948 21.988 8.00548 22.888C7.89748 23.824 8.97748 23.752 10.3095 23.896C11.5335 24.112 11.7855 24.004 10.8855 27.064C9.76948 30.7 8.22148 35.632 6.92548 39.664C5.66548 43.516 5.70148 43.696 4.08148 43.804C2.78548 43.948 1.66948 43.948 1.56148 44.812C1.34548 45.784 1.70548 46 3.28948 46C7.35748 45.964 12.5775 46.036 16.0335 46.036ZM18.1575 32.356C16.1415 32.356 14.3775 32.356 13.4775 32.32C12.0015 32.248 12.3615 31.96 13.4055 28.612C15.0975 22.96 13.6575 23.788 19.9215 23.788C23.3055 23.788 24.9255 25.048 24.9255 27.496C24.9255 30.34 22.7655 32.356 18.1575 32.356ZM15.2415 44.02C7.46548 44.02 8.18548 44.956 10.2735 38.548C11.6415 34.408 11.3535 34.264 13.0455 34.264H17.6535C21.4695 34.3 23.2335 35.884 23.1615 38.692C23.0895 42.112 20.6775 44.02 15.2415 44.02ZM36.407 46.468C38.999 46.468 40.907 45.28 42.059 43.804C42.491 43.228 42.671 42.868 42.959 42.868C43.247 42.868 43.283 43.156 43.463 43.768C43.895 45.28 45.191 46.432 46.811 46.432C48.575 46.432 49.943 45.496 50.339 44.524C50.519 44.02 50.267 43.732 49.799 43.732C49.367 43.732 48.971 44.344 47.927 44.308C46.883 44.272 45.947 43.516 45.911 42.148C45.875 41.248 45.983 40.456 46.991 38.116C48.215 35.056 50.231 30.988 50.843 29.296C51.059 28.648 50.879 28.432 50.123 28.432C49.403 28.432 48.971 28.972 48.611 29.584C47.927 30.88 47.639 31.888 47.099 31.888C46.739 31.888 46.595 31.312 46.163 30.664C45.227 29.008 43.607 28.072 41.015 28.072C36.047 28.072 32.159 31.744 30.719 35.776C28.739 41.176 30.575 46.468 36.407 46.468ZM37.487 44.092C33.455 44.092 32.339 40.276 33.455 36.46C34.391 32.932 37.379 30.16 40.943 30.16C44.975 30.16 45.731 33.724 44.219 37.864C42.923 41.644 40.691 44.092 37.487 44.092ZM56.9225 45.964C61.5665 45.964 62.7545 46.108 62.8985 44.956C62.9705 43.912 62.1425 44.164 60.0545 43.948C58.7225 43.732 59.0465 43.156 60.7385 38.188C62.2865 33.724 64.2665 30.448 66.6065 30.448C68.0105 30.484 68.1905 31.168 68.1545 32.356C68.1905 33.364 68.4425 34.012 69.7745 34.012C71.2505 34.012 71.8985 32.824 71.8985 31.564C71.8985 29.368 70.3505 28.108 68.0465 28.108C66.5345 28.108 65.1665 28.756 63.7985 30.268C62.8625 31.276 62.5745 32.032 62.2145 32.032C61.7825 32.032 62.2865 30.988 62.1065 29.836C61.8545 28.72 61.2065 28.252 60.0905 28.216C58.1825 28.18 55.6985 29.44 55.1585 30.808C55.0145 31.348 55.3385 31.636 55.9145 31.636C56.4545 31.636 56.9225 30.772 58.4345 30.772C60.3065 30.772 59.7665 32.572 57.8945 38.044C55.9505 43.588 56.2385 43.588 54.6545 43.84C53.1785 44.092 52.4585 44.02 52.4225 44.956C52.3865 46.072 53.3225 45.964 56.9225 45.964ZM75.2245 46.36C77.1325 46.36 78.9325 45.244 79.2925 44.2C79.4725 43.768 79.1485 43.444 78.8245 43.444C78.3565 43.444 77.9245 44.272 76.6285 44.272C75.4765 44.236 74.5765 43.696 74.5765 42.4C74.5765 41.068 75.3325 39.376 76.5565 37.108C78.4645 33.76 81.9925 27.424 83.3965 24.832C84.8725 22.024 84.8005 19.216 81.5605 19.216C79.8685 19.216 76.9885 20.296 76.6645 21.52C76.5205 22.024 76.7365 22.276 77.2405 22.276C77.7085 22.276 78.2845 21.664 79.5445 21.664C81.2005 21.664 81.2365 22.744 80.1565 24.94C78.3925 28.648 75.5125 33.364 73.8205 36.172C72.3085 38.8 71.5165 40.816 71.5165 42.652C71.5165 44.992 73.1005 46.36 75.2245 46.36ZM91.0029 46.396C94.5309 46.432 96.9069 45.1 97.8789 43.768C98.0949 43.48 98.2389 43.048 97.9869 42.832C97.7349 42.652 97.3749 42.832 96.9429 43.048C95.7549 43.66 94.3869 44.236 92.2629 44.272C88.3389 44.344 85.7829 42.328 85.8549 38.98C85.8549 37.54 86.2149 37.072 86.7189 37.396C87.8709 38.08 90.2469 38.8 93.3789 38.656C97.8789 38.512 100.507 36.676 100.579 33.652C100.651 30.268 97.9869 28.072 93.8829 28.036C87.4749 28 83.0469 33.58 83.0109 39.052C82.9749 43.516 85.9629 46.36 91.0029 46.396ZM91.7949 36.856C89.5989 37 86.2869 36.46 86.8629 34.732C87.4029 32.536 90.4269 30.088 93.5229 30.088C96.1149 30.088 97.7709 31.492 97.6989 33.832C97.6629 35.92 95.4309 36.748 91.7949 36.856ZM103.159 54.208C106.075 54.136 107.695 52.696 110.071 47.836C110.827 46.324 111.871 45.82 115.219 41.932C117.811 39.052 120.115 36.244 120.727 33.328C121.447 30.448 120.295 28.252 117.919 28.252C116.731 28.252 115.867 28.864 115.795 29.98C115.759 30.772 116.191 31.06 117.019 31.492C117.991 32.032 118.531 32.356 118.387 33.724C118.099 35.884 116.407 38.008 114.355 40.348C112.159 42.976 110.971 44.2 110.215 44.2C109.639 44.2 109.423 43.768 109.279 42.256C108.883 39.7 108.703 35.668 108.811 32.536C108.811 30.808 109.027 30.628 110.107 30.52C111.007 30.34 111.979 30.412 112.015 29.548C112.123 28.504 111.187 28.576 107.659 28.576C104.491 28.576 103.843 28.468 103.663 29.62C103.555 30.412 104.059 30.376 105.067 30.556C105.823 30.664 105.859 30.808 105.859 32.5C105.823 35.74 106.039 40.132 106.435 42.76C106.651 44.956 106.831 45.388 107.623 45.964C108.343 46.54 108.343 46.792 108.019 47.584C106.651 50.716 105.751 52.156 103.951 52.192C102.799 52.228 102.295 51.688 101.971 50.716C101.539 49.276 101.071 48.556 100.027 48.556C98.8388 48.556 98.2988 49.564 98.3348 50.572C98.5148 52.948 100.963 54.28 103.159 54.208Z" fill="white"/>
<path fill-rule="evenodd" clip-rule="evenodd" d="M135.435 24.3245C136.388 24.0148 136.837 22.7703 136.437 21.539C136.037 20.3078 134.942 19.5646 133.989 19.8742C133.036 20.1839 132.589 21.4322 132.988 22.6597C133.387 23.8872 134.486 24.6329 135.435 24.3245ZM141.406 19.9248C141.806 21.1537 141.357 22.4008 140.405 22.7102C139.452 23.0197 138.357 22.2743 137.957 21.0454C137.558 19.8165 138.006 18.5694 138.959 18.26C139.911 17.9505 141.007 18.6959 141.406 19.9248ZM133.46 26.9016C133.061 25.6741 131.966 24.9271 131.013 25.2368C130.059 25.5464 129.616 26.7935 130.015 28.021C130.414 29.2485 131.509 29.9955 132.459 29.687C133.408 29.3785 133.853 28.1106 133.46 26.9016ZM144.478 20.8616C143.525 21.1712 143.078 22.4195 143.477 23.647C143.875 24.8745 144.971 25.6215 145.924 25.3118C146.877 25.0021 147.321 23.7551 146.922 22.5276C146.523 21.3 145.427 20.5531 144.478 20.8616ZM134.613 34.8914C133.769 32.2954 135.231 26.0805 138.164 25.1274C141.094 24.1754 145.924 28.3258 146.788 30.9725C146.891 31.2895 146.93 31.6237 146.904 31.9561C146.878 32.2884 146.787 32.6123 146.635 32.9094C146.484 33.2064 146.276 33.4707 146.022 33.6872C145.769 33.9037 145.475 34.0681 145.158 34.1712C144.853 34.2864 144.527 34.3344 144.202 34.3119C143.877 34.2895 143.561 34.197 143.275 34.0409C143.169 33.9932 143.068 33.9354 142.973 33.8685C142.901 33.8257 142.831 33.7819 142.762 33.7384C142.207 33.3921 141.675 33.0602 140.835 33.3331C139.987 33.6087 139.753 34.1925 139.506 34.8092C139.478 34.8801 139.45 34.9515 139.42 35.0228C139.38 35.1328 139.331 35.2392 139.273 35.3411C139.134 35.6359 138.933 35.897 138.683 36.1063C138.433 36.3157 138.141 36.4682 137.826 36.5534C137.506 36.6574 137.169 36.6968 136.833 36.6694C136.498 36.642 136.171 36.5483 135.872 36.3937C135.573 36.2391 135.308 36.0267 135.092 35.7688C134.876 35.5109 134.713 35.2127 134.613 34.8914Z" fill="white"/>
<path fill-rule="evenodd" clip-rule="evenodd" d="M154.435 37.9963C155.388 37.6867 155.837 36.4422 155.437 35.2109C155.037 33.9797 153.942 33.2364 152.989 33.5461C152.036 33.8558 151.589 35.104 151.988 36.3316C152.387 37.5591 153.486 38.3048 154.435 37.9963ZM160.406 33.5967C160.806 34.8256 160.357 36.0726 159.405 36.3821C158.452 36.6915 157.357 35.9462 156.957 34.7173C156.558 33.4884 157.006 32.2413 157.959 31.9319C158.911 31.6224 160.007 32.3678 160.406 33.5967ZM152.46 40.5735C152.061 39.3459 150.966 38.599 150.013 38.9086C149.059 39.2183 148.616 40.4654 149.015 41.6929C149.414 42.9204 150.509 43.6673 151.459 43.3589C152.408 43.0504 152.853 41.7824 152.46 40.5735ZM163.478 34.5334C162.525 34.8431 162.078 36.0913 162.477 37.3189C162.875 38.5464 163.971 39.2933 164.924 38.9837C165.877 38.674 166.321 37.427 165.922 36.1994C165.523 34.9719 164.427 34.225 163.478 34.5334ZM153.613 48.5633C152.769 45.9673 154.231 39.7524 157.164 38.7992C160.094 37.8473 164.924 41.9977 165.788 44.6443C165.891 44.9614 165.93 45.2956 165.904 45.628C165.878 45.9603 165.787 46.2842 165.635 46.5812C165.484 46.8783 165.276 47.1426 165.022 47.3591C164.769 47.5756 164.475 47.74 164.158 47.843C163.853 47.9583 163.527 48.0063 163.202 47.9838C162.877 47.9613 162.561 47.8689 162.275 47.7128C162.169 47.665 162.068 47.6073 161.973 47.5404C161.901 47.4976 161.831 47.4538 161.762 47.4103C161.207 47.064 160.675 46.732 159.835 47.005C158.987 47.2806 158.753 47.8644 158.506 48.4811C158.478 48.552 158.45 48.6234 158.42 48.6947C158.38 48.8046 158.331 48.9111 158.273 49.013C158.134 49.3078 157.933 49.5689 157.683 49.7782C157.433 49.9875 157.141 50.1401 156.826 50.2253C156.506 50.3293 156.169 50.3687 155.833 50.3413C155.498 50.3139 155.171 50.2202 154.872 50.0656C154.573 49.911 154.308 49.6986 154.092 49.4407C153.876 49.1828 153.713 48.8846 153.613 48.5633Z" fill="white"/>
</g>
<defs>
<clipPath id="clip0_2228_37930">
<rect width="169" height="64" fill="white"/>
</clipPath>
</defs>
</svg>
