<svg width="132" height="64" viewBox="0 0 132 64" fill="none" xmlns="http://www.w3.org/2000/svg">
<g clip-path="url(#clip0_2241_44293)">
<path d="M17.748 45H22.284L12.924 20.52H9.252L-0.108 45H4.428L7.056 38.268H15.12L17.748 45ZM8.568 34.308L11.088 27.864L13.608 34.308H8.568ZM23.6236 20.52V45H27.7276V20.52H23.6236ZM31.3411 27V51.48H35.3011V43.704C36.1651 44.28 37.6771 45.36 40.2691 45.36C45.5251 45.36 48.3331 41.04 48.3331 35.856C48.3331 31.248 45.3811 26.64 40.1251 26.64C37.5331 26.64 35.9491 28.008 35.1571 28.584V27H31.3411ZM44.3731 36C44.3731 39.816 42.3211 41.4 39.6931 41.4C37.0651 41.4 35.1571 39.6 35.1571 36C35.1571 32.4 36.9931 30.6 39.6931 30.6C42.3931 30.6 44.3731 32.4 44.3731 36ZM66.0187 45V32.256C66.0187 28.296 63.3547 26.64 60.2227 26.64C57.3427 26.64 55.6867 27.792 55.0387 28.44V20.52H51.2227V45H55.1827V35.28C55.1827 33.12 55.8667 30.024 58.7827 30.024C60.5467 30.024 61.9147 31.104 61.9147 33.12V45H66.0187ZM84.319 39.708V32.364C84.319 28.476 80.863 26.64 76.795 26.64C72.367 26.64 68.911 28.872 68.911 32.76H73.303C73.303 30.636 74.455 29.52 76.687 29.52C78.847 29.52 80.359 30.816 80.359 32.76V33.624H76.903C71.935 33.624 68.479 35.28 68.479 39.384C68.479 42.552 71.503 45.36 75.535 45.36C78.703 45.36 80.503 43.848 81.151 43.344C81.979 44.748 83.023 45.216 85.219 45.216C85.867 45.216 86.515 45.18 87.775 45V41.04C87.091 41.184 86.623 41.256 86.155 41.256C85.039 41.256 84.319 40.788 84.319 39.708ZM72.943 39.816C72.943 37.872 74.095 36.432 80.359 36.72V38.52C80.359 39.96 79.063 42.48 76.111 42.48C74.167 42.48 72.943 41.256 72.943 39.816Z" fill="white"/>
<path fill-rule="evenodd" clip-rule="evenodd" d="M104.178 26.8568C106.024 25.8756 106.494 23.1571 105.226 20.7732C103.959 18.3893 101.442 17.259 99.5966 18.2402C97.7512 19.2214 97.2846 21.9472 98.5484 24.3239C99.8121 26.7006 102.34 27.8342 104.178 26.8568ZM114.849 15.6586C116.114 18.038 115.645 20.7617 113.8 21.7422C111.956 22.7227 109.436 21.5887 108.171 19.2093C106.906 16.8299 107.375 14.1061 109.219 13.1256C111.063 12.1452 113.584 13.2792 114.849 15.6586ZM101.054 32.8656C99.7908 30.4888 97.2703 29.3514 95.4249 30.3326C93.5795 31.3138 93.1201 34.0357 94.3838 36.4124C95.6475 38.7892 98.1682 39.9265 100.006 38.9492C101.845 37.9718 102.299 35.2064 101.054 32.8656ZM121.497 16.4699C119.652 17.4511 119.185 20.1767 120.449 22.5535C121.713 24.9302 124.233 26.0677 126.078 25.0864C127.924 24.1052 128.383 21.3833 127.119 19.0066C125.856 16.6299 123.335 15.4925 121.497 16.4699ZM106.316 48.8577C103.643 43.8313 104.394 30.5373 110.074 27.5173C115.747 24.5012 127.169 31.2764 129.902 36.3995C130.229 37.0133 130.431 37.6855 130.497 38.3775C130.564 39.0696 130.494 39.7679 130.291 40.4328C130.087 41.0977 129.755 41.716 129.313 42.2525C128.87 42.7889 128.327 43.233 127.713 43.5594C127.129 43.9065 126.477 44.1232 125.801 44.1947C125.125 44.2663 124.442 44.191 123.798 43.974C123.563 43.9142 123.335 43.8323 123.115 43.7292C122.954 43.6671 122.794 43.6026 122.635 43.5385C121.37 43.0281 120.157 42.539 118.53 43.4039C116.888 44.2771 116.62 45.5606 116.337 46.9167C116.304 47.0726 116.271 47.2294 116.236 47.3867C116.194 47.627 116.132 47.8635 116.05 48.0936C115.872 48.7494 115.553 49.3586 115.115 49.879C114.678 50.3994 114.133 50.8186 113.517 51.1075C112.898 51.437 112.219 51.6402 111.52 51.7054C110.821 51.7706 110.116 51.6964 109.446 51.4871C108.777 51.2778 108.155 50.9376 107.618 50.4863C107.08 50.0349 106.638 49.4813 106.316 48.8577Z" fill="white"/>
</g>
<defs>
<clipPath id="clip0_2241_44293">
<rect width="132" height="64" fill="white"/>
</clipPath>
</defs>
</svg>
