<svg width="161" height="70" viewBox="0 0 161 70" fill="none" xmlns="http://www.w3.org/2000/svg">
<path d="M57.3219 52.7701C52.7862 52.7701 50.3383 50.4536 50.3383 46.1182V33.4227H48.7609C48.3859 33.4163 48.0158 33.337 47.6718 33.1891C47.3278 33.0413 47.0166 32.8278 46.7561 32.561C46.4957 32.2942 46.2909 31.9792 46.1537 31.634C46.0165 31.2889 45.9494 30.9204 45.9563 30.5497C45.9734 29.8244 46.2759 29.1343 46.7997 28.6261C47.3235 28.118 48.0271 27.8319 48.7609 27.8287H50.3383V24.0498C50.4021 23.2375 50.7735 22.479 51.3783 21.9256C51.9832 21.3723 52.7769 21.0649 53.601 21.0649C54.4251 21.0649 55.2189 21.3723 55.8237 21.9256C56.4286 22.479 56.8 23.2375 56.8638 24.0498V27.8287H59.4131C60.1468 27.8534 60.8421 28.1589 61.3523 28.6807C61.8624 29.2026 62.1476 29.8999 62.1476 30.6257C62.1476 31.3515 61.8624 32.0488 61.3523 32.5707C60.8421 33.0925 60.1468 33.398 59.4131 33.4227H56.8638V44.4229C56.8638 46.3382 58.0877 47.0921 59.1055 47.0921H59.6651C61.501 47.0921 62.522 48.3021 62.522 49.8648C62.522 51.4598 61.5534 52.7701 57.3219 52.7701Z" fill="#FFFFFF"/>
<path d="M77.71 52.7705C69.6071 52.7705 64.7114 46.9274 64.7114 39.9714C64.7114 33.0704 69.6202 27.2241 77.71 27.2241C85.8652 27.2241 90.7577 33.0704 90.7577 39.9714C90.7577 46.9274 85.8652 52.7705 77.71 52.7705ZM77.71 32.9183C73.6848 32.9183 71.4398 36.1957 71.4398 39.9714C71.4398 43.8021 73.6848 47.0892 77.71 47.0892C81.7353 47.0892 84.0293 43.815 84.0293 39.9714C84.0293 36.1957 81.7353 32.9183 77.71 32.9183Z" fill="#FFFFFF"/>
<path d="M113.643 52.4694H113.126C112.615 52.4694 110.324 52.065 110.324 49.6481C108.642 51.612 105.743 52.7703 102.526 52.7703C98.5988 52.7703 93.9616 50.1496 93.9616 44.7077C93.9616 39.0135 98.5988 36.8491 102.526 36.8491C105.798 36.8491 108.691 37.907 110.324 39.8223V36.5449C110.324 34.0763 108.181 32.4651 104.921 32.4651C102.97 32.4281 101.052 32.9726 99.4169 34.0278C99.0631 34.242 98.6599 34.3634 98.2454 34.3805C97.5937 34.3686 96.9728 34.1043 96.5162 33.6445C96.0597 33.1846 95.8039 32.566 95.804 31.9216C95.8132 31.478 95.936 31.0439 96.1607 30.6598C97.689 28.243 103.193 27.2336 106.047 27.2336C111.653 27.2336 116.801 29.4498 116.801 36.4543V49.2955C116.807 50.1301 116.478 50.9331 115.886 51.5281C115.294 52.1232 114.487 52.4617 113.643 52.4694ZM110.331 43.2971C109.258 41.8865 107.222 41.1812 105.131 41.1812C102.582 41.1812 100.494 42.4753 100.494 44.8598C100.494 47.1246 102.582 48.4381 105.131 48.4381C107.222 48.4381 109.258 47.7328 110.331 46.3222V43.2971Z" fill="#FFFFFF"/>
<path d="M132.107 52.7703C128.896 52.7703 123.748 51.7124 122.22 49.535C121.918 49.1456 121.756 48.667 121.762 48.1761C121.775 47.4749 122.062 46.8059 122.563 46.309C123.064 45.8121 123.739 45.5259 124.449 45.5102C124.91 45.5047 125.363 45.6268 125.758 45.8628C127.695 46.9693 130.241 47.8267 132.381 47.8267C135.186 47.8267 136.511 46.717 136.511 45.2061C136.511 41.1748 121.883 44.4522 121.883 34.8788C121.883 30.7957 125.502 27.2174 131.976 27.2174C135.186 27.2174 139.568 28.2269 140.946 30.1907C141.208 30.5592 141.35 30.9986 141.352 31.4493C141.328 32.0971 141.051 32.7105 140.579 33.1606C140.107 33.6107 139.477 33.8625 138.822 33.8629C138.395 33.8647 137.974 33.7613 137.598 33.562C135.903 32.6066 133.986 32.1027 132.035 32.0996C129.691 32.0996 128.163 33.1576 128.163 34.5197C128.163 38.1465 142.739 35.1214 142.739 44.9472C142.746 49.3926 138.923 52.7703 132.107 52.7703Z" fill="#FFFFFF"/>
<path d="M155.793 52.7701C151.258 52.7701 148.81 50.4536 148.81 46.1182V33.4227H147.232C146.857 33.4163 146.487 33.337 146.143 33.1891C145.799 33.0413 145.488 32.8278 145.228 32.561C144.967 32.2942 144.762 31.9792 144.625 31.634C144.488 31.2889 144.421 30.9204 144.428 30.5497C144.446 29.8246 144.748 29.135 145.272 28.627C145.796 28.1191 146.499 27.8327 147.232 27.8287H148.797V24.0498C148.86 23.2375 149.232 22.479 149.837 21.9256C150.442 21.3723 151.235 21.0649 152.059 21.0649C152.883 21.0649 153.677 21.3723 154.282 21.9256C154.887 22.479 155.258 23.2375 155.322 24.0498V27.8287H157.871C158.605 27.8534 159.3 28.1589 159.811 28.6807C160.321 29.2026 160.606 29.8999 160.606 30.6257C160.606 31.3515 160.321 32.0488 159.811 32.5707C159.3 33.0925 158.605 33.398 157.871 33.4227H155.342V44.4229C155.342 46.3382 156.566 47.0921 157.583 47.0921H158.146C159.979 47.0921 161 48.3021 161 49.8648C160.993 51.4598 160.025 52.7701 155.793 52.7701Z" fill="#FFFFFF"/>
<path d="M41.7838 42.7536C41.8239 40.0601 41.7147 37.3664 41.4566 34.6846C41.2602 32.8728 40.645 30.5563 38.6978 30.0839C38.9492 30.1477 39.2139 30.1387 39.4603 30.0581C41.7249 28.8674 41.5515 25.9362 40.7497 23.817C39.6992 21.0379 37.1957 19.0708 34.7216 17.7637C25.817 13.0659 13.918 13.4606 5.29805 18.8119C3.05635 20.2031 0.471023 22.9208 1.6066 25.9297C1.91688 26.6795 2.37398 27.3612 2.95162 27.9357C3.20361 28.2042 3.80576 28.8286 3.80576 28.8319C2.644 30.4075 1.80296 31.8246 1.25644 33.7399C-0.376571 39.4988 -0.104948 43.1969 0.343393 47.817C0.62156 50.677 1.56406 54.9348 4.84317 55.4104H4.85953C7.53321 55.7824 10.4229 54.8959 13.0998 54.5821C16.0451 54.2327 19.0166 53.6891 21.9881 53.7668C26.1835 53.8736 30.3462 54.8765 34.5482 54.9186C36.767 54.938 40.4388 55.1483 41.1162 52.2138C41.7446 49.4217 41.7707 46.5099 41.7707 43.6595C41.7838 43.3586 41.7838 43.0545 41.7838 42.7536ZM36.9863 47.584C35.9423 49.9491 32.9872 49.687 30.9288 49.5252C27.846 49.2632 24.8123 48.5158 21.7132 48.422C18.9708 48.3411 16.2579 48.862 13.5842 49.4508C11.5846 49.8941 8.79642 51.0491 6.98996 49.5058C4.99697 47.7749 4.63699 44.8631 4.61081 42.4107C4.65047 40.1926 4.86934 37.9812 5.26532 35.7976C5.51269 34.4493 5.90659 33.1313 6.44017 31.8666C7.16014 30.0354 8.21718 28.9354 8.27281 28.9936C7.73611 28.4339 7.08814 28.1363 6.72489 27.3759C5.35696 24.4965 8.77678 22.0635 10.652 21.2288C17.1971 18.2878 26.3603 18.579 32.5454 22.3547C34.45 23.5097 38.184 27.5701 34.6955 29.5857C36.8521 30.6081 37.3986 33.6978 37.6408 35.8914C38.0167 39.412 37.9066 42.9668 37.3135 46.4581C37.2531 46.8445 37.1466 47.2224 36.9961 47.584H36.9863Z" fill="#FFFFFF"/>
</svg>
