<svg width="108" height="64" viewBox="0 0 108 64" fill="none" xmlns="http://www.w3.org/2000/svg">
<g clip-path="url(#clip0_2228_37942)">
<path d="M3.42 44C3.156 44 2.94 43.916 2.772 43.748C2.604 43.58 2.52 43.364 2.52 43.1V19.7C2.52 19.436 2.604 19.22 2.772 19.052C2.94 18.884 3.156 18.8 3.42 18.8H8.172C8.412 18.8 8.616 18.884 8.784 19.052C8.976 19.22 9.072 19.436 9.072 19.7V38.564H19.944C20.208 38.564 20.424 38.66 20.592 38.852C20.784 39.02 20.88 39.236 20.88 39.5V43.1C20.88 43.364 20.784 43.58 20.592 43.748C20.424 43.916 20.208 44 19.944 44H3.42ZM31.5647 44.36C29.5487 44.36 27.8447 44.036 26.4527 43.388C25.0847 42.74 24.0287 41.816 23.2847 40.616C22.5647 39.392 22.1567 37.94 22.0607 36.26C22.0367 35.78 22.0247 35.24 22.0247 34.64C22.0247 34.016 22.0367 33.476 22.0607 33.02C22.1567 31.316 22.5887 29.864 23.3567 28.664C24.1247 27.464 25.1927 26.54 26.5607 25.892C27.9527 25.244 29.6207 24.92 31.5647 24.92C33.5327 24.92 35.2007 25.244 36.5687 25.892C37.9607 26.54 39.0407 27.464 39.8087 28.664C40.5767 29.864 41.0087 31.316 41.1047 33.02C41.1287 33.476 41.1407 34.016 41.1407 34.64C41.1407 35.24 41.1287 35.78 41.1047 36.26C41.0087 37.94 40.5887 39.392 39.8447 40.616C39.1247 41.816 38.0687 42.74 36.6767 43.388C35.3087 44.036 33.6047 44.36 31.5647 44.36ZM31.5647 39.968C32.6447 39.968 33.4247 39.644 33.9047 38.996C34.4087 38.348 34.6967 37.376 34.7687 36.08C34.7927 35.72 34.8047 35.24 34.8047 34.64C34.8047 34.04 34.7927 33.56 34.7687 33.2C34.6967 31.928 34.4087 30.968 33.9047 30.32C33.4247 29.648 32.6447 29.312 31.5647 29.312C30.5087 29.312 29.7287 29.648 29.2247 30.32C28.7207 30.968 28.4447 31.928 28.3967 33.2C28.3727 33.56 28.3607 34.04 28.3607 34.64C28.3607 35.24 28.3727 35.72 28.3967 36.08C28.4447 37.376 28.7207 38.348 29.2247 38.996C29.7287 39.644 30.5087 39.968 31.5647 39.968ZM44.8613 44C44.5973 44 44.3813 43.916 44.2133 43.748C44.0453 43.58 43.9613 43.364 43.9613 43.1V19.34C43.9613 19.076 44.0453 18.86 44.2133 18.692C44.3813 18.524 44.5973 18.44 44.8613 18.44H49.0373C49.2773 18.44 49.4813 18.524 49.6493 18.692C49.8413 18.86 49.9373 19.076 49.9373 19.34V31.4L54.9413 25.892C55.0853 25.724 55.2413 25.58 55.4093 25.46C55.5773 25.34 55.8173 25.28 56.1293 25.28H60.9533C61.1693 25.28 61.3493 25.364 61.4933 25.532C61.6613 25.676 61.7453 25.856 61.7453 26.072C61.7453 26.168 61.7213 26.276 61.6733 26.396C61.6253 26.516 61.5533 26.612 61.4573 26.684L54.9773 33.668L62.3573 42.632C62.5493 42.824 62.6453 43.016 62.6453 43.208C62.6453 43.424 62.5613 43.616 62.3933 43.784C62.2493 43.928 62.0573 44 61.8173 44H56.8853C56.5253 44 56.2613 43.94 56.0933 43.82C55.9253 43.676 55.7693 43.532 55.6253 43.388L49.9373 36.548V43.1C49.9373 43.364 49.8413 43.58 49.6493 43.748C49.4813 43.916 49.2773 44 49.0373 44H44.8613ZM65.1648 44C64.9008 44 64.6848 43.916 64.5168 43.748C64.3488 43.58 64.2648 43.364 64.2648 43.1V26.18C64.2648 25.916 64.3488 25.7 64.5168 25.532C64.6848 25.364 64.9008 25.28 65.1648 25.28H69.4128C69.6528 25.28 69.8568 25.364 70.0248 25.532C70.2168 25.7 70.3128 25.916 70.3128 26.18V43.1C70.3128 43.364 70.2168 43.58 70.0248 43.748C69.8568 43.916 69.6528 44 69.4128 44H65.1648ZM65.1288 22.58C64.8648 22.58 64.6488 22.496 64.4808 22.328C64.3128 22.16 64.2288 21.944 64.2288 21.68V18.476C64.2288 18.212 64.3128 17.996 64.4808 17.828C64.6488 17.636 64.8648 17.54 65.1288 17.54H69.4128C69.6768 17.54 69.8928 17.636 70.0608 17.828C70.2528 17.996 70.3488 18.212 70.3488 18.476V21.68C70.3488 21.944 70.2528 22.16 70.0608 22.328C69.8928 22.496 69.6768 22.58 69.4128 22.58H65.1288Z" fill="white"/>
<path fill-rule="evenodd" clip-rule="evenodd" d="M96.9627 17.4295C97.6764 19.6261 96.875 21.8552 95.1726 22.4083C93.4702 22.9614 91.5116 21.6291 90.7979 19.4325C90.0842 17.236 90.8857 15.0069 92.588 14.4538C94.2904 13.9006 96.249 15.2329 96.9627 17.4295ZM82.7593 29.9014C82.0464 27.7072 80.0883 26.3721 78.3847 26.9256C76.6811 27.4791 75.8882 29.7081 76.6011 31.9023C77.3141 34.0964 79.2723 35.4315 80.9693 34.8801C82.6663 34.3288 83.4615 32.0624 82.7593 29.9014ZM102.454 19.1051C100.75 19.6587 99.9507 21.8898 100.664 24.0839C101.377 26.278 103.335 27.6132 105.038 27.0597C106.742 26.5062 107.535 24.2771 106.822 22.083C106.109 19.8889 104.151 18.5538 102.454 19.1051ZM86.2901 25.295C87.9937 24.7414 88.7952 22.517 88.0802 20.3162C87.3651 18.1154 85.4091 16.7869 83.7055 17.3404C82.0019 17.894 81.2024 20.1251 81.9153 22.3193C82.6283 24.5134 84.5932 25.8464 86.2901 25.295ZM84.82 44.1823C83.3123 39.5421 85.9247 28.4332 91.1681 26.7296C96.4049 25.028 105.037 32.4466 106.582 37.1774C106.766 37.7441 106.837 38.3415 106.79 38.9355C106.743 39.5295 106.58 40.1085 106.309 40.6394C106.039 41.1704 105.666 41.6428 105.213 42.0298C104.76 42.4168 104.235 42.7107 103.669 42.8948C103.124 43.1008 102.541 43.1866 101.96 43.1465C101.379 43.1063 100.814 42.9411 100.302 42.6621C100.113 42.5767 99.9323 42.4735 99.7625 42.3539C99.6354 42.2773 99.5101 42.1991 99.3854 42.1213C98.3935 41.5023 97.4428 40.909 95.9412 41.3969C94.4251 41.8895 94.0078 42.933 93.5669 44.0354C93.5163 44.1621 93.4653 44.2896 93.4123 44.4172C93.3406 44.6137 93.2528 44.804 93.15 44.9861C92.9015 45.5131 92.5416 45.9797 92.095 46.3539C91.6484 46.728 91.1258 47.0007 90.5635 47.153C89.9914 47.3389 89.3882 47.4094 88.7887 47.3604C88.1892 47.3114 87.6053 47.1439 87.0711 46.8675C86.5368 46.5912 86.0627 46.2115 85.6763 45.7506C85.2899 45.2896 84.9988 44.7566 84.82 44.1823Z" fill="white"/>
</g>
<defs>
<clipPath id="clip0_2228_37942">
<rect width="108" height="64" fill="white"/>
</clipPath>
</defs>
</svg>
