<svg width="194" height="64" viewBox="0 0 194 64" fill="none" xmlns="http://www.w3.org/2000/svg">
<g clip-path="url(#clip0_2228_37951)">
<path d="M14.4 45.504C19.188 45.504 22.968 42.66 22.968 37.908C22.968 32.976 19.872 30.924 13.428 29.7C9.324 28.944 7.668 28.26 7.668 26.388C7.668 24.732 8.856 23.724 11.088 23.724C13.284 23.688 15.264 24.588 17.892 26.568C19.764 28.08 20.592 28.296 21.852 27.648C22.536 27.252 23.04 26.784 23.04 26.1C23.04 25.38 22.608 24.444 21.6 22.752C20.448 20.772 20.196 20.304 19.08 20.376C17.676 20.484 18.36 22.608 17.64 22.608C17.172 22.608 17.028 22.392 16.308 21.924C15.012 21.096 13.428 20.34 11.16 20.34C6.336 20.34 2.412 23.22 2.412 27.684C2.412 32.544 6.192 34.272 11.844 35.424C16.272 36.324 17.82 37.224 17.82 39.276C17.82 41.22 16.38 42.12 14.364 42.12C11.916 42.12 9.792 40.968 7.38 39.168C5.652 37.8 5.328 37.332 3.996 37.728C2.664 37.944 1.764 38.34 1.764 39.384C1.764 40.032 2.124 40.896 2.952 42.516C3.996 44.892 4.176 45.504 5.508 45.432C7.272 45.36 6.12 42.948 7.02 42.876C7.56 42.84 7.848 43.236 8.532 43.632C10.116 44.64 12.096 45.504 14.4 45.504ZM42.4527 53.388C45.5487 53.388 48.0687 52.128 48.0687 50.436C48.0687 49.5 47.3127 49.428 46.1967 49.356C45.0087 49.284 44.9727 49.212 44.9727 46.908C44.9727 40.464 45.4047 31.5 45.5847 27.612C45.6567 26.424 45.0807 26.1 43.9287 26.1C43.0287 26.1 42.6687 26.46 42.4527 27.288C42.0927 28.476 41.9847 28.764 41.5167 28.8C41.1567 28.8 40.8327 28.368 39.9327 27.684C38.5287 26.64 36.9807 26.064 34.8567 26.064C28.9167 26.064 25.7127 30.492 25.7127 36.072C25.7127 41.688 28.9887 45.396 33.8487 45.396C36.0087 45.396 37.3047 44.712 38.3487 43.92C39.3207 43.128 39.5367 42.624 39.9687 42.624C40.3287 42.624 40.3647 42.948 40.3647 44.64C40.3287 46.908 40.3647 47.736 39.5007 48.528C38.7447 49.428 38.2047 50.004 38.2047 50.976C38.2047 53.1 39.9327 53.388 42.4527 53.388ZM36.0087 41.184C33.0567 41.436 31.3647 39.06 31.0767 35.784C30.7887 32.436 32.1207 30.132 35.0727 29.988C37.8807 29.88 39.6807 31.824 39.9687 35.28C40.2207 38.124 39.1047 40.968 36.0087 41.184ZM56.5737 45.612C58.8777 45.612 60.5337 44.748 61.5057 43.524C62.2617 42.696 62.4417 42.156 62.9097 42.156C63.2337 42.156 63.3417 42.444 63.5577 43.056C64.0617 44.604 65.0697 45.468 67.0137 45.468C69.3537 45.468 70.7937 43.704 70.7937 42.228C70.7937 41.508 70.5057 41.22 69.9297 41.22C69.4977 41.184 69.2817 41.328 68.7777 41.328C68.0937 41.328 67.6617 40.86 67.6617 39.816C67.6617 36.144 68.1297 31.284 68.1297 28.44C68.1297 26.856 67.2297 26.208 65.6817 26.208C64.3497 26.208 63.1257 26.748 62.1177 27.324C60.8577 28.044 59.8137 28.836 59.8137 29.772C59.8137 30.744 60.8937 30.636 61.9737 30.672C62.6937 30.708 62.8377 30.924 62.8377 31.716C62.8377 33.048 62.7297 35.172 62.6577 36.864C62.5497 39.312 61.0737 41.508 58.3017 41.508C56.6457 41.508 55.7457 40.788 55.7457 39.312C55.7457 35.712 56.0697 32.076 56.0697 28.548C56.0697 26.928 55.2057 26.208 53.6577 26.208C52.2897 26.208 50.9937 26.784 49.9497 27.396C48.6537 28.152 47.6817 28.908 47.6817 29.88C47.6817 30.888 48.7617 30.708 49.9137 30.78C50.7417 30.816 50.8137 31.068 50.8137 31.932C50.8497 34.092 50.5257 37.26 50.5257 40.284C50.5257 43.632 52.7577 45.612 56.5737 45.612ZM81.6654 45.648C85.6974 45.648 88.6134 43.992 89.3694 41.796C89.6934 40.968 89.5494 40.176 88.8654 40.176C88.5414 40.176 88.1454 40.392 87.6054 40.608C86.7054 41.004 85.3374 41.544 83.1054 41.544C79.5774 41.544 77.0574 39.816 76.9854 37.512C76.9494 36.936 77.1294 36.828 77.6694 36.828C79.3614 36.828 82.5294 36.864 87.8934 36.864C90.1974 36.864 90.5214 36.648 90.5214 34.704C90.5214 29.7 87.0294 26.1 81.6654 26.1C75.5094 26.1 71.6934 30.708 71.6934 36.252C71.6934 41.724 75.7974 45.648 81.6654 45.648ZM80.0814 33.984C77.5614 33.984 77.0574 34.236 77.0214 33.66C76.9854 31.356 78.6414 29.52 80.9094 29.52C83.3574 29.52 85.1934 31.392 85.1934 33.408C85.1934 34.236 84.8334 33.984 80.0814 33.984ZM98.44 45.504C100.456 45.504 101.788 44.82 102.724 43.704C103.228 43.092 103.336 42.588 103.804 42.588C104.272 42.588 104.236 43.128 104.92 43.992C105.64 44.964 106.756 45.468 108.124 45.468C110.608 45.468 111.832 43.488 111.832 42.3C111.832 41.508 111.616 41.22 110.968 41.22C110.572 41.22 110.392 41.364 109.816 41.328C109.168 41.328 108.7 40.896 108.7 39.924C108.7 38.88 109.096 34.956 109.096 32.364C109.132 28.152 106.576 26.064 101.464 26.064C98.548 26.064 96.316 26.712 94.732 27.792C93.58 28.584 92.716 29.628 92.716 30.96C92.716 32.508 93.832 33.192 95.416 33.192C96.748 33.192 97.36 32.436 97.9 31.356C98.404 30.168 98.98 29.484 100.528 29.484C102.976 29.484 103.876 30.492 103.876 32.976C103.876 34.272 103.768 34.632 103.084 34.632C102.436 34.632 101.536 34.416 99.232 34.416C94.876 34.416 92.464 36.792 92.464 40.14C92.464 43.272 94.48 45.504 98.44 45.504ZM100.312 41.832C98.548 41.832 97.648 40.968 97.648 39.528C97.648 37.836 98.944 36.756 101.572 36.756C103.336 36.756 103.768 36.72 103.768 38.016C103.768 40.176 102.4 41.832 100.312 41.832ZM117.836 45.072C121.472 45.072 122.084 44.964 122.084 43.128C122.084 42.012 121.688 41.832 120.788 41.436C119.996 41.112 119.924 41.004 119.924 39.276C119.924 38.16 119.996 38.196 121.508 37.188C122.984 36.18 122.804 36.216 123.812 37.548C124.496 38.448 125.18 39.492 125.72 40.392C126.152 41.148 126.044 41.4 125.252 41.76C124.46 42.084 124.208 42.228 124.208 43.236C124.208 44.964 125.072 45.036 128.996 45.036C133.244 45.036 133.892 44.964 133.892 43.128C133.892 42.12 133.568 41.724 132.56 41.292C131.66 40.932 131.516 40.536 129.392 37.368C127.664 34.812 127.016 34.272 127.016 33.696C127.016 33.264 127.34 33.12 128.564 32.112C130.22 30.708 130.724 30.42 131.732 30.096C133.064 29.7 133.388 29.448 133.388 28.404C133.388 26.892 133.028 26.712 129.176 26.712C124.46 26.712 123.812 26.82 123.812 28.296C123.812 29.484 124.352 29.664 125.144 29.736C126.44 29.952 126.224 30.276 124.748 31.428C120.968 34.344 120.824 34.668 120.392 34.668C119.924 34.668 120.068 34.2 120.068 31.824C120.068 26.388 120.392 22.752 120.392 20.304C120.392 18.504 119.348 17.604 117.548 17.604C116.216 17.604 114.776 18.108 113.66 18.9C112.4 19.728 111.536 20.376 111.536 21.348C111.536 22.248 112.4 22.212 113.984 22.284C114.956 22.356 115.028 22.464 115.064 23.436C115.136 26.316 115.064 31.572 114.992 38.412C114.992 40.716 114.848 40.968 113.696 41.4C112.544 41.904 112.184 42.084 112.184 43.272C112.184 44.964 112.868 45.072 117.836 45.072ZM138.269 45.54C139.961 45.54 139.205 43.848 140.033 43.848C140.501 43.848 140.753 44.208 141.365 44.532C142.301 45 143.525 45.504 145.217 45.504C148.925 45.504 152.345 43.452 152.345 39.6C152.345 37.836 151.841 36.684 150.869 35.712C149.501 34.344 147.809 33.876 143.561 33.084C141.293 32.652 140.357 32.364 140.357 31.248C140.357 30.204 141.293 29.376 142.877 29.376C144.497 29.376 146.441 30.24 147.953 31.284C149.897 32.58 150.509 32.724 151.661 31.896C152.165 31.536 152.489 31.176 152.489 30.636C152.489 30.096 152.237 29.448 151.481 28.188C150.617 26.784 150.401 26.244 149.465 26.244C147.953 26.244 148.637 27.936 147.845 27.936C147.485 27.936 147.089 27.684 146.693 27.396C145.649 26.712 144.353 26.208 142.625 26.208C139.169 26.208 135.785 28.476 135.785 32.256C135.785 33.732 136.289 34.92 137.153 35.82C138.557 37.296 141.725 37.836 143.669 38.268C146.333 38.844 147.485 39.276 147.485 40.644C147.485 41.724 146.621 42.444 145.037 42.444C143.273 42.444 141.581 41.652 139.961 40.392C138.233 39.168 137.621 38.988 136.469 39.708C135.821 40.104 135.353 40.572 135.353 41.184C135.353 41.76 135.605 42.372 136.325 43.668C137.153 45.072 137.513 45.54 138.269 45.54Z" fill="white"/>
<path fill-rule="evenodd" clip-rule="evenodd" d="M186.034 37.1073C186.525 38.6203 185.973 40.1556 184.801 40.5366C183.628 40.9176 182.279 40 181.787 38.487C181.296 36.974 181.848 35.4386 183.02 35.0576C184.193 34.6767 185.542 35.5943 186.034 37.1073ZM176.25 45.6967C175.759 44.1854 174.411 43.2657 173.237 43.647C172.064 44.0283 171.518 45.5636 172.009 47.0749C172.5 48.5862 173.849 49.5058 175.018 49.126C176.186 48.7462 176.734 47.1851 176.25 45.6967ZM189.816 38.2608C188.642 38.6421 188.092 40.1788 188.583 41.6901C189.074 43.2014 190.423 44.121 191.596 43.7398C192.769 43.3585 193.316 41.8232 192.824 40.3119C192.333 38.8006 190.985 37.881 189.816 38.2608ZM178.683 42.5249C179.856 42.1436 180.408 40.6114 179.915 39.0956C179.423 37.5797 178.076 36.6646 176.902 37.0459C175.729 37.4272 175.178 38.964 175.669 40.4753C176.16 41.9865 177.514 42.9047 178.683 42.5249ZM177.67 55.5329C176.631 52.3368 178.431 44.6852 182.042 43.5117C185.649 42.3397 191.595 47.4495 192.659 50.708C192.786 51.0983 192.834 51.5098 192.802 51.919C192.77 52.3282 192.658 52.727 192.471 53.0926C192.285 53.4583 192.028 53.7838 191.716 54.0503C191.404 54.3168 191.043 54.5193 190.652 54.6461C190.277 54.788 189.876 54.8471 189.475 54.8195C189.075 54.7918 188.686 54.678 188.334 54.4858C188.203 54.427 188.079 54.3559 187.962 54.2735C187.874 54.2208 187.788 54.1669 187.702 54.1134C187.019 53.687 186.364 53.2783 185.33 53.6144C184.286 53.9537 183.998 54.6724 183.694 55.4317C183.66 55.519 183.624 55.6069 183.588 55.6947C183.538 55.83 183.478 55.9611 183.407 56.0865C183.236 56.4495 182.988 56.771 182.681 57.0287C182.373 57.2864 182.013 57.4742 181.626 57.5791C181.232 57.7071 180.816 57.7557 180.403 57.7219C179.99 57.6882 179.588 57.5728 179.22 57.3825C178.852 57.1921 178.526 56.9306 178.259 56.6131C177.993 56.2956 177.793 55.9285 177.67 55.5329Z" fill="white"/>
<path fill-rule="evenodd" clip-rule="evenodd" d="M171.505 8.42957C171.997 9.94254 171.445 11.4779 170.272 11.8589C169.1 12.2399 167.751 11.3222 167.259 9.80924C166.767 8.29626 167.32 6.7609 168.492 6.37991C169.665 5.99893 171.014 6.91659 171.505 8.42957ZM161.722 17.0189C161.231 15.5076 159.882 14.588 158.709 14.9693C157.536 15.3505 156.989 16.8858 157.481 18.3971C157.972 19.9084 159.32 20.828 160.489 20.4482C161.658 20.0685 162.206 18.5074 161.722 17.0189ZM175.287 9.58305C174.114 9.96432 173.563 11.5011 174.054 13.0124C174.546 14.5237 175.894 15.4433 177.068 15.062C178.241 14.6808 178.787 13.1455 178.296 11.6342C177.805 10.1229 176.456 9.20327 175.287 9.58305ZM164.154 13.8472C165.328 13.4659 165.88 11.9337 165.387 10.4178C164.895 8.90199 163.547 7.98691 162.374 8.36817C161.201 8.74944 160.65 10.2862 161.141 11.7975C161.632 13.3088 162.985 14.2269 164.154 13.8472ZM163.141 26.8552C162.103 23.6591 163.902 16.0074 167.514 14.834C171.121 13.662 177.067 18.7718 178.131 22.0303C178.257 22.4206 178.306 22.8321 178.274 23.2413C178.242 23.6504 178.129 24.0492 177.943 24.4149C177.757 24.7806 177.5 25.106 177.188 25.3726C176.876 25.6391 176.514 25.8416 176.124 25.9684C175.749 26.1103 175.347 26.1694 174.947 26.1417C174.547 26.1141 174.158 26.0002 173.805 25.8081C173.675 25.7493 173.55 25.6782 173.434 25.5958C173.346 25.5431 173.26 25.4892 173.174 25.4356C172.491 25.0093 171.836 24.6006 170.801 24.9366C169.757 25.2759 169.47 25.9947 169.166 26.754C169.131 26.8413 169.096 26.9291 169.06 27.017C169.01 27.1523 168.95 27.2834 168.879 27.4088C168.708 27.7718 168.46 28.0932 168.152 28.3509C167.845 28.6086 167.485 28.7964 167.097 28.9013C166.703 29.0294 166.288 29.0779 165.875 29.0442C165.462 29.0104 165.06 28.8951 164.692 28.7047C164.324 28.5144 163.997 28.2529 163.731 27.9354C163.465 27.6179 163.265 27.2507 163.141 26.8552Z" fill="white"/>
</g>
<defs>
<clipPath id="clip0_2228_37951">
<rect width="194" height="64" fill="white"/>
</clipPath>
</defs>
</svg>
