<svg fill="none" height="64" viewBox="0 0 166 64" width="166" xmlns="http://www.w3.org/2000/svg"><g clip-rule="evenodd" fill="#fff" fill-rule="evenodd"><path d="m156.105 22.2224c-2.687 0-4.93.9658-6.584 2.8151v-9.5163c0-.9191-.722-1.6391-1.642-1.6391-.898 0-1.602.72-1.602 1.6391v27.0655c0 .9347.706 1.6392 1.642 1.6392.928 0 1.602-.6895 1.602-1.6392v-10.7792c0-3.7687 2.653-6.504 6.309-6.504 3.581 0 5.719 2.3137 5.719 6.1887v11.0945c0 .9347.705 1.6392 1.641 1.6392.929 0 1.602-.6895 1.602-1.6392v-11.448c0-5.4168-3.409-8.9163-8.687-8.9163z"/><path d="m141.348 38.2331c-.528 0-.879.2893-1.096.5073-1.779 1.7773-3.741 2.6789-5.832 2.6789-4.266 0-7.608-3.5306-7.608-8.0381v-.0785c0-4.4633 3.273-7.9595 7.45-7.9595 2.623 0 4.387 1.3401 5.753 2.6387.269.2692.693.4294 1.136.4294.919 0 1.641-.72 1.641-1.6391 0-.4346-.18-.8835-.484-1.1864-1.675-1.5665-4.1-3.3633-8.006-3.3633-6.005 0-10.892 5.0057-10.892 11.1587v.0785c0 6.1096 4.887 11.0809 10.892 11.0809 3.203 0 5.74-1.1287 8.22-3.6552.268-.2678.427-.6616.427-1.0527 0-.8374-.763-1.5996-1.601-1.5996z"/><path d="m111.477 22.2225c-2.688 0-4.93.9659-6.585 2.8152v-.8621c0-.934-.705-1.6391-1.641-1.6391-.899 0-1.603.72-1.603 1.6391v18.4112c0 .9347.706 1.6392 1.642 1.6392.929 0 1.602-.6895 1.602-1.6392v-10.7792c0-3.7686 2.654-6.504 6.309-6.504 3.581 0 5.719 2.3137 5.719 6.1888v11.0944c0 .9347.706 1.6392 1.642 1.6392.928 0 1.602-.6895 1.602-1.6392v-11.4479c0-5.4169-3.409-8.9164-8.687-8.9164z"/><path d="m87.7042 33.3682c2.5466 0 4.5937.384 6.1516.7609v1.7695c0 3.1472-2.9831 5.5206-6.9387 5.5206-2.5681 0-5.168-1.3557-5.168-3.9464v-.0791c0-2.5206 2.2265-4.0255 5.9551-4.0255zm.2752-10.9894c-2.3619 0-4.4194.4644-6.8568 1.5425-.3876.1543-.964.6752-.964 1.4744 0 1.0572 1.2002 1.9174 2.2787 1.3777 1.8272-.8686 3.5503-1.2733 5.4243-1.2733 2.7164 0 5.9552.9509 5.9552 5.4817v.0221c-1.5618-.373-3.4131-.6779-5.9942-.6779-5.732 0-9.4359 2.8204-9.4359 7.1858v.0784c0 3.4541 2.8901 6.9503 8.412 6.9503 3.3715 0 5.6247-1.3771 7.0181-2.7139v.7602c0 .9496.6732 1.6391 1.6021 1.6391.9282 0 1.6021-.6895 1.6021-1.6391v-11.6841c0-2.581-.7532-4.643-2.2389-6.1278-1.5683-1.5671-3.9205-2.3961-6.8027-2.3961z"/><path d="m76.9212 22.3788c-2.2878 0-5.3125 1.3362-7.4116 4.2214v-2.4247c0-.934-.7058-1.6391-1.6418-1.6391-.8984 0-1.6022.72-1.6022 1.6391v18.4113c0 .9347.7058 1.6391 1.6418 1.6391.8984 0 1.6022-.72 1.6022-1.6391v-7.3959c0-6.4054 3.8599-9.0448 7.4525-9.3775.9497-.0584 1.6392-.7803 1.6392-1.7163 0-.9633-.7383-1.7183-1.6801-1.7183z"/><path d="m59.1434 33.3811v.0785c0 4.7377-2.8992 7.9206-7.2151 7.9206-4.6503 0-7.5287-4.1319-7.5287-7.9595v-.0792c0-4.9161 3.9075-7.9595 7.5287-7.9595 4.113 0 7.2151 3.4391 7.2151 7.9991zm-7.018-11.1587c-2.9636 0-5.5161 1.224-7.6087 3.6454v-10.3466c0-.9347-.7057-1.6391-1.6411-1.6391-.9283 0-1.6022.6895-1.6022 1.6391v27.0655c0 .9192.7214 1.6392 1.6412 1.6392.8983 0 1.6021-.72 1.6021-1.6392v-1.5496c2.0497 2.3261 4.6015 3.5034 7.6087 3.5034 5.1212 0 10.4181-4.1747 10.4181-11.1594v-.0785c0-6.936-5.2969-11.0802-10.4181-11.0802z"/><path d="m16.9819 46.6363v-13.4737l8.1804-6.5105c1.0629 2.3987 1.7264 4.3472 1.7264 5.4545 0 4.8441-1.4486 6.8951-9.9068 14.5297zm-13.19437-14.5297c0-3.1174 5.25392-12.8984 9.90677-20.6698v35.1995c-8.4575-7.6346-9.90677-9.6856-9.90677-14.5297zm13.19437-20.6698c2.3443 3.9158 4.8402 8.3396 6.7409 12.1667l-6.7409 5.3649zm-.2557-6.67658c-.3018-.47352-.8254-.76022-1.3881-.76022s-1.0863.2867-1.3881.76022c-1.3764 2.16324-13.45 21.30678-13.45 27.34638 0 6.8971 2.8491 9.7213 13.7427 19.4283.3122.2783.7038.4171 1.0954.4171s.7832-.1388 1.0954-.4171c10.8936-9.707 13.7434-12.5312 13.7434-19.4283 0-6.0396-12.0743-25.18314-13.4507-27.34638z"/></g></svg>