<svg fill="none" height="64" viewBox="0 0 149 64" width="149" xmlns="http://www.w3.org/2000/svg" xmlns:xlink="http://www.w3.org/1999/xlink"><clipPath id="a"><path d="m.5 0h148v64h-148z"/></clipPath><g clip-path="url(#a)" fill="#fff"><path clip-rule="evenodd" d="m6.68253 13.5h24.63497c1.6399-.0005 3.2131.6507 4.3729 1.8102 1.1597 1.1595 1.8114 2.7323 1.8114 4.3723v24.6331c0 3.4156-2.7689 6.1844-6.1843 6.1844h-24.63497c-3.41481-.001-6.18253-2.7695-6.18253-6.1844v-24.6331c0-3.4145 2.768-6.1825 6.18253-6.1825zm22.14497 30.2736c1.0777 0 1.9514-.8737 1.9514-1.9514l-.0053-19.6426c0-1.0777-.8737-1.9514-1.9514-1.9514h-19.64082c-.51784 0-1.01444.2059-1.38044.5722-.366.3664-.57136.8631-.57089 1.381v19.6408c0 1.0777.87363 1.9514 1.95133 1.9514z" fill-rule="evenodd"/><path d="m15.0761 37.0165c-.6152-.0049-1.1113-.5049-1.1112-1.1201v-7.8413c-.0015-.298.1159-.5843.3261-.7955.2103-.2113.496-.33.794-.33h7.8521c.2979.0004.5833.1193.7935.3305.2101.2111.3276.4972.3266.795v7.8394c.001.2979-.1165.584-.3266.795-.2102.2113-.4956.3302-.7935.3307z"/><path d="m56.3309 30.3511c-1.1454-.3123-2.2296-.6067-3.0715-.9819-1.5583-.6965-2.2835-1.6623-2.2835-3.0374 0-2.5994 2.5132-3.7698 5.0157-3.7698 2.3785 0 4.4555.9837 5.8504 2.7681l.095.1221 2.0106-1.5726-.0968-.1221c-1.8544-2.3588-4.601-3.6513-7.7372-3.6513-2.0877 0-4.0014.5637-5.3854 1.5887-1.5582 1.1399-2.3804 2.7933-2.3804 4.7662 0 4.5867 4.319 5.7049 7.791 6.6043 3.5131.9264 5.6655 1.6301 5.6655 4.3083 0 2.6371-2.1327 4.3408-5.4322 4.3408-1.6317 0-4.653-.4325-6.5522-3.3335l-.088-.1366-2.1147 1.5313.0826.124c1.7951 2.7178 4.8936 4.2778 8.5108 4.2778 4.9133 0 8.2164-2.7736 8.2164-6.8988 0-4.7213-4.4915-5.9439-8.0961-6.9276z"/><path clip-rule="evenodd" d="m80.4545 29.3979v-2.4827h2.3641v23.5812h-2.3641v-9.2128c-1.35 1.8508-3.3749 2.8633-5.7554 2.8633-4.495 0-7.6366-3.5993-7.6366-8.7963s3.1487-8.825 7.6366-8.825c2.3643 0 4.3892 1.0179 5.7554 2.8723zm-10.9002 5.924c0 4.811 2.7555 6.5254 5.335 6.5254l.0054.0017c3.3768 0 5.5598-2.5849 5.5598-6.5271s-2.1866-6.4913-5.5652-6.4913c-3.9331 0-5.335 3.3533-5.335 6.4913z" fill-rule="evenodd"/><path d="m98.4483 26.9153v9.3078c0 3.2584-2.2314 5.6243-5.3048 5.6243-2.5526 0-3.7948-1.5151-3.7948-4.6297v-10.3024h-2.3643v10.7853c0 4.039 2.1954 6.4499 5.8719 6.4499 2.2906 0 4.2582-.9711 5.5937-2.7466v2.3625h2.364v-16.8511z"/><path clip-rule="evenodd" d="m105.268 28.6852c1.744-1.3697 4.11-2.1542 6.488-2.1542 3.757 0 6 1.8688 5.992 5.0031v12.2359h-2.366v-1.8689c-1.193 1.4954-2.92 2.253-5.143 2.253-3.621 0-5.872-1.9802-5.872-5.1647 0-4.1415 3.903-4.7913 5.565-5.0678.271-.0447.551-.0878.831-.131h.001l.01-.0015c2.271-.3497 4.616-.7104 4.616-2.6373 0-2.1812-2.831-2.3499-3.698-2.3499-1.532 0-3.695.4542-5.165 1.7286l-.135.1168-1.235-1.8741zm1.568 10.1714c0 2.6999 2.542 2.9924 3.635 2.9924h.002c2.376 0 4.92-1.2672 4.915-4.8288v-2.438c-1.153.7284-2.795 1.013-4.259 1.2668l-.024.0043-.735.131c-2.344.4345-3.534.9945-3.534 2.8723z" fill-rule="evenodd"/><path d="m131.443 27.2329c-.562-.4003-1.447-.639-2.37-.639-1.896.0249-3.67.9389-4.791 2.4683v-2.1542h-2.364v16.8494h2.364v-9.0117c0-3.996 2.246-5.7858 4.47-5.7858.651-.0087 1.296.1281 1.887.4003l.16.0844.748-2.1434z"/><path clip-rule="evenodd" d="m132.137 35.3865c0-5.2131 3.251-8.8555 7.898-8.8555 4.477 0 7.606 3.2331 7.598 7.8699-.002.4031-.024.8058-.067 1.2064l-.014.1382h-12.926c.06 3.7106 2.293 6.1035 5.72 6.1035 1.964 0 3.666-.7987 4.791-2.2511l.102-.1327 1.713 1.5257-.095.1149c-1.138 1.3877-3.213 3.0429-6.642 3.0429-4.829 0-8.078-3.5204-8.078-8.7622zm7.834-6.5864c-2.889 0-4.937 1.901-5.257 4.8613h10.42c-.205-2.3804-1.659-4.8613-5.163-4.8613z" fill-rule="evenodd"/></g></svg>