<svg fill="none" height="64" viewBox="0 0 133 64" width="133" xmlns="http://www.w3.org/2000/svg" xmlns:xlink="http://www.w3.org/1999/xlink"><clipPath id="a"><path d="m.5 0h132v64h-132z"/></clipPath><g clip-path="url(#a)" fill="#fff"><path d="m20.6927 18.7687-10.1915-5.8844-10.1887 5.8844v-5.8844l10.1901-5.8843 10.1916 5.8843v5.8844z"/><path d="m.3125 23.7106h5.33802v12.9714c0 3.3513 2.5022 4.9849 4.85208 4.9849 2.3702 0 4.8535-1.6771 4.8535-5.0299v-12.9264h5.3381v13.2804c0 3.0873-.9704 5.4694-2.9113 7.103-1.9423 1.6321-4.3676 2.4272-7.3253 2.4272-2.95473 0-5.3815-.7936-7.27736-2.4272-1.89732-1.6321-2.86774-3.9258-2.86774-6.971zm66.5309 16.121c-1.6159 1.4392-3.4567 2.1443-5.5556 2.1443-3.8295 0-6.3969-2.182-6.687-5.5608h17.247s.116-1.091.116-2.1153c0-3.1772-1.0153-5.8248-3.0896-7.9865-2.0279-2.1616-4.6737-3.2207-7.8954-3.2207-3.3957 0-6.1764 1.0591-8.3827 3.2207-2.1613 2.1617-3.2637 4.9849-3.2637 8.5161v.1741c0 3.4862 1.1024 6.2659 3.2637 8.3405 2.1613 2.0731 5.0291 3.1322 8.5147 3.1322 4.0529 0 7.2774-1.5988 9.697-4.3552zm-10.1451-10.8271c1.1894-.927 2.6472-1.4116 4.2791-1.4116 1.5434 0 2.8227.4846 3.9266 1.4566 1.0531.885 1.6217 1.9716 1.6711 3.2207h-11.838c.1712-1.2912.8239-2.3793 1.9626-3.2642zm63.8797 20.469c-2.166 5.114-4.432 6.8534-7.906 6.8534h-2.408v-4.7324h1.947c1.195 0 2.306-.4497 3.365-2.8928l1.059-2.446-9.133-22.5451h5.427l6.485 16.2371 6.663-16.2371h5.425l-10.923 25.7629zm-79.1033-34.2775v10.5283c-1.7493-1.5668-4.4706-2.4997-7.1018-2.4997-3.1332 0-5.779 1.1026-7.9404 3.3513-2.1178 2.2066-3.1767 4.9414-3.1767 8.2506 0 3.3106 1.0589 6.0453 3.1767 8.2955 2.1614 2.2066 4.8086 3.3107 7.9404 3.3107 3.6118 0 5.895-1.4203 7.1018-2.5331v2.047h5.2945v-30.7491h-5.2945zm-1.5883 24.4862c-1.2794 1.2796-2.9113 1.9426-4.8086 1.9426s-3.4407-.663-4.7201-1.9426c-1.2329-1.2796-1.8523-2.9117-1.8523-4.8528 0-1.9426.6179-3.5747 1.8523-4.8543 1.2794-1.2796 2.8228-1.9412 4.7201-1.9412s3.5292.6616 4.8086 1.9412c1.3229 1.2796 1.9872 2.9117 1.9872 4.8543 0 1.9411-.6643 3.5732-1.9872 4.8528zm59.3855-16.4126c-4.0209 0-6.1112 1.6684-7.5429 3.2758-.5729-1.0924-2.186-3.2758-5.9545-3.2758-3.1854 0-5.0624 1.6104-5.9995 2.7565v-2.3126h-5.248v22.2361h5.248v-12.7959c0-3.0002 1.8539-5.1618 4.3227-5.1618 2.5167 0 3.9716 1.8976 3.9716 4.9413v13.0149h5.2495v-12.7958c0-3.0438 1.8074-5.1619 4.4097-5.1619 2.5155 0 3.9705 1.8976 3.9705 4.9399v13.0163h5.294v-13.7649c0-5.7973-3.116-8.9106-7.7211-8.9106z"/></g></svg>