<svg width="123" height="64" viewBox="0 0 123 64" fill="none" xmlns="http://www.w3.org/2000/svg">
<g clip-path="url(#clip0_2228_37943)">
<path d="M3.42 44.4023C3.156 44.4023 2.94 44.3183 2.772 44.1503C2.604 43.9823 2.52 43.7663 2.52 43.5023V20.1023C2.52 19.8383 2.604 19.6223 2.772 19.4543C2.94 19.2863 3.156 19.2023 3.42 19.2023H13.212C16.308 19.2023 18.744 19.9223 20.52 21.3623C22.32 22.7783 23.22 24.7943 23.22 27.4103C23.22 29.1143 22.8 30.5543 21.96 31.7303C21.144 32.9063 20.064 33.7943 18.72 34.3943L23.688 43.2503C23.76 43.3943 23.796 43.5263 23.796 43.6463C23.796 43.8383 23.712 44.0183 23.544 44.1863C23.4 44.3303 23.22 44.4023 23.004 44.4023H18.252C17.796 44.4023 17.46 44.2943 17.244 44.0783C17.028 43.8383 16.872 43.6223 16.776 43.4303L12.672 35.5103H8.964V43.5023C8.964 43.7663 8.88 43.9823 8.712 44.1503C8.544 44.3183 8.328 44.4023 8.064 44.4023H3.42ZM8.964 30.4343H13.14C14.268 30.4343 15.108 30.1583 15.66 29.6063C16.236 29.0543 16.524 28.2983 16.524 27.3383C16.524 26.4023 16.248 25.6463 15.696 25.0703C15.168 24.4943 14.316 24.2063 13.14 24.2063H8.964V30.4343ZM34.9045 44.7623C32.8885 44.7623 31.1845 44.4383 29.7925 43.7903C28.4245 43.1423 27.3685 42.2183 26.6245 41.0183C25.9045 39.7943 25.4965 38.3423 25.4005 36.6623C25.3765 36.1823 25.3645 35.6423 25.3645 35.0423C25.3645 34.4183 25.3765 33.8783 25.4005 33.4223C25.4965 31.7183 25.9285 30.2663 26.6965 29.0663C27.4645 27.8663 28.5325 26.9423 29.9005 26.2943C31.2925 25.6463 32.9605 25.3223 34.9045 25.3223C36.8725 25.3223 38.5405 25.6463 39.9085 26.2943C41.3005 26.9423 42.3805 27.8663 43.1485 29.0663C43.9165 30.2663 44.3485 31.7183 44.4445 33.4223C44.4685 33.8783 44.4805 34.4183 44.4805 35.0423C44.4805 35.6423 44.4685 36.1823 44.4445 36.6623C44.3485 38.3423 43.9285 39.7943 43.1845 41.0183C42.4645 42.2183 41.4085 43.1423 40.0165 43.7903C38.6485 44.4383 36.9445 44.7623 34.9045 44.7623ZM34.9045 40.3703C35.9845 40.3703 36.7645 40.0463 37.2445 39.3983C37.7485 38.7503 38.0365 37.7783 38.1085 36.4823C38.1325 36.1223 38.1445 35.6423 38.1445 35.0423C38.1445 34.4423 38.1325 33.9623 38.1085 33.6023C38.0365 32.3303 37.7485 31.3703 37.2445 30.7223C36.7645 30.0503 35.9845 29.7143 34.9045 29.7143C33.8485 29.7143 33.0685 30.0503 32.5645 30.7223C32.0605 31.3703 31.7845 32.3303 31.7365 33.6023C31.7125 33.9623 31.7005 34.4423 31.7005 35.0423C31.7005 35.6423 31.7125 36.1223 31.7365 36.4823C31.7845 37.7783 32.0605 38.7503 32.5645 39.3983C33.0685 40.0463 33.8485 40.3703 34.9045 40.3703ZM48.2012 44.4023C47.9372 44.4023 47.7212 44.3183 47.5532 44.1503C47.3852 43.9823 47.3012 43.7663 47.3012 43.5023V19.7423C47.3012 19.4783 47.3852 19.2623 47.5532 19.0943C47.7212 18.9263 47.9372 18.8423 48.2012 18.8423H52.4492C52.7132 18.8423 52.9292 18.9263 53.0972 19.0943C53.2652 19.2623 53.3492 19.4783 53.3492 19.7423V43.5023C53.3492 43.7663 53.2652 43.9823 53.0972 44.1503C52.9292 44.3183 52.7132 44.4023 52.4492 44.4023H48.2012ZM57.782 44.4023C57.518 44.4023 57.302 44.3183 57.134 44.1503C56.966 43.9823 56.882 43.7663 56.882 43.5023V19.7423C56.882 19.4783 56.966 19.2623 57.134 19.0943C57.302 18.9263 57.518 18.8423 57.782 18.8423H62.03C62.294 18.8423 62.51 18.9263 62.678 19.0943C62.846 19.2623 62.93 19.4783 62.93 19.7423V43.5023C62.93 43.7663 62.846 43.9823 62.678 44.1503C62.51 44.3183 62.294 44.4023 62.03 44.4023H57.782ZM69.9548 51.2423C69.7388 51.2423 69.5588 51.1703 69.4148 51.0263C69.2708 50.8823 69.1988 50.7023 69.1988 50.4863C69.1988 50.4383 69.1988 50.3663 69.1988 50.2703C69.2228 50.1983 69.2588 50.1143 69.3068 50.0183L72.1148 43.2503L65.2028 26.9063C65.1308 26.7383 65.0948 26.5943 65.0948 26.4743C65.1428 26.2583 65.2388 26.0783 65.3828 25.9343C65.5268 25.7663 65.7068 25.6823 65.9228 25.6823H70.0268C70.3388 25.6823 70.5668 25.7663 70.7108 25.9343C70.8788 26.0783 70.9868 26.2463 71.0348 26.4383L75.1748 36.9143L79.3868 26.4383C79.4828 26.2463 79.6028 26.0783 79.7468 25.9343C79.9148 25.7663 80.1548 25.6823 80.4668 25.6823H84.4988C84.7148 25.6823 84.8948 25.7663 85.0388 25.9343C85.2068 26.0783 85.2908 26.2463 85.2908 26.4383C85.2908 26.5583 85.2548 26.7143 85.1828 26.9063L74.9948 50.4863C74.9228 50.6783 74.8028 50.8463 74.6348 50.9903C74.4668 51.1583 74.2268 51.2423 73.9148 51.2423H69.9548Z" fill="white"/>
<path fill-rule="evenodd" clip-rule="evenodd" d="M101.676 19.4295C100.962 21.6261 101.764 23.8552 103.466 24.4083C105.168 24.9614 107.127 23.6291 107.841 21.4325C108.554 19.236 107.753 17.0069 106.051 16.4538C104.348 15.9006 102.39 17.2329 101.676 19.4295ZM115.879 31.9014C116.592 29.7072 118.55 28.3721 120.254 28.9256C121.958 29.4791 122.75 31.7081 122.038 33.9023C121.325 36.0964 119.366 37.4315 117.669 36.8801C115.972 36.3288 115.177 34.0624 115.879 31.9014ZM96.185 21.1051C97.8886 21.6587 98.6879 23.8898 97.975 26.0839C97.2621 28.278 95.304 29.6132 93.6004 29.0597C91.8968 28.5062 91.1039 26.2771 91.8169 24.083C92.5298 21.8889 94.488 20.5538 96.185 21.1051ZM112.349 27.295C110.645 26.7414 109.843 24.517 110.559 22.3162C111.274 20.1154 113.23 18.7869 114.933 19.3404C116.637 19.894 117.436 22.1251 116.723 24.3193C116.01 26.5134 114.046 27.8464 112.349 27.295ZM113.819 46.1823C115.326 41.5421 112.714 30.4332 107.471 28.7296C102.234 27.028 93.6013 34.4466 92.0568 39.1774C91.8727 39.7441 91.802 40.3415 91.8488 40.9355C91.8955 41.5295 92.0588 42.1085 92.3293 42.6394C92.5998 43.1704 92.9723 43.6428 93.4254 44.0298C93.8785 44.4168 94.4034 44.7107 94.9701 44.8948C95.5148 45.1008 96.0976 45.1866 96.6786 45.1465C97.2596 45.1063 97.825 44.9411 98.3362 44.6621C98.5255 44.5767 98.7064 44.4735 98.8762 44.3539C99.0033 44.2773 99.1286 44.1991 99.2533 44.1213C100.245 43.5023 101.196 42.909 102.698 43.3969C104.214 43.8895 104.631 44.933 105.072 46.0354C105.122 46.1621 105.173 46.2896 105.226 46.4172C105.298 46.6137 105.386 46.804 105.489 46.9861C105.737 47.5131 106.097 47.9797 106.544 48.3539C106.99 48.728 107.513 49.0007 108.075 49.153C108.647 49.3389 109.25 49.4094 109.85 49.3604C110.449 49.3114 111.033 49.1439 111.568 48.8675C112.102 48.5912 112.576 48.2115 112.962 47.7506C113.349 47.2896 113.64 46.7566 113.819 46.1823Z" fill="white"/>
</g>
<defs>
<clipPath id="clip0_2228_37943">
<rect width="123" height="64" fill="white"/>
</clipPath>
</defs>
</svg>
