<svg fill="none" height="64" viewBox="0 0 198 64" width="198" xmlns="http://www.w3.org/2000/svg"><g fill="#fff"><path d="m4.47711 25.7629c0-3.0797-1.5606-5.6249-4.47711-7.7629h6.77962c2.37926 1.8326 3.83748 4.6323 3.83748 7.7629 0 3.1307-1.45822 5.9304-3.83748 7.763 2.20018.9162 3.45378 3.156 3.45378 6.3629v6.1087h-6.14005v-6.1087c0-3.0541-1.45825-5.1921-4.09335-6.3629 2.91651-2.138 4.47711-4.6832 4.47711-7.763zm13.30339 0c0-3.0797-1.5606-5.6249-4.4771-7.7629h6.7796c2.3792 1.8326 3.8376 4.6323 3.8376 7.7629 0 3.1307-1.4584 5.9304-3.8376 7.763 2.2002.9162 3.4538 3.156 3.4538 6.3629v6.1087h-6.1401v-6.1087c0-3.0541-1.4582-5.1921-4.0933-6.3629 2.9165-2.138 4.4771-4.6832 4.4771-7.763zm13.306 0c0-3.0797-1.5607-5.6249-4.4772-7.7629h6.7796c2.3794 1.8326 3.8376 4.6323 3.8376 7.7629 0 3.1307-1.4582 5.9304-3.8376 7.763 2.2002.9162 3.4538 3.156 3.4538 6.3629v6.1087h-6.1399v-6.1087c0-3.0541-1.4584-5.1921-4.0935-6.3629 2.9165-2.138 4.4772-4.6832 4.4772-7.763z"/><path d="m55.9256 40.9096h-4.6561v-17.8191h11.4359c5.5004 0 8.2122 2.0362 8.2122 5.3704 0 2.2653-1.3303 3.9706-3.8119 4.836 2.5583.3817 3.7096 1.7307 3.7096 4.1487v3.4615h-4.7073v-3.2579c0-2.0362-1.0234-2.8507-3.7097-2.8507h-6.4727zm6.5239-15.223h-6.5239v6.5158h6.4727c2.3537 0 3.8119-1.2981 3.8119-3.3342 0-2.0108-1.3558-3.1816-3.7607-3.1816z"/><path d="m79.0019 23.0905h-4.6562v17.8191h4.6562z"/><path d="m93.2771 35.104h-5.6795v5.8031h-4.6562v-17.8166h10.4381c5.5004 0 8.3915 2.2907 8.3915 5.9558 0 3.7924-2.9422 6.0577-8.4939 6.0577zm-.1023-9.4174h-5.5772v6.8212h5.526c2.4049 0 3.8887-1.2217 3.8887-3.436 0-2.1635-1.4838-3.3852-3.8375-3.3852z"/><path d="m114.869 35.104h-5.68v5.8031h-4.656v-17.8166h10.438c5.501 0 8.392 2.2907 8.392 5.9558 0 3.7924-2.942 6.0577-8.494 6.0577zm-.102-9.4174h-5.578v6.8212h5.526c2.405 0 3.889-1.2217 3.889-3.436 0-2.1635-1.484-3.3852-3.837-3.3852z"/><path d="m130.782 23.0905v15.1695h11.615v2.6496h-16.271v-17.8191z"/><path d="m149.967 23.0905h-4.656v17.8191h4.656z"/><path d="m156.977 29.0463v11.8633h-3.07v-17.8191h3.482l12.689 11.8607v-11.8607h3.071v17.8191h-3.48z"/><path d="m188.346 25.1769c-4.427 0-7.317 2.7998-7.317 6.9739 0 4.1234 2.763 6.6686 7.061 6.6686h.306c1.459 0 3.096-.3055 4.606-.7891v-4.8105h-7.521v-2.5452h12.074v8.3738c-2.506 1.2981-6.293 2.3162-9.363 2.3162h-.409c-7.062 0-11.615-3.7161-11.615-9.1119 0-5.345 4.682-9.621 11.87-9.621h.41c2.994 0 6.421.9417 8.955 2.418l-1.332 2.1634c-2.275-1.2471-4.988-2.0362-7.418-2.0362z"/></g></svg>