<svg fill="none" height="64" viewBox="0 0 123 64" width="123" xmlns="http://www.w3.org/2000/svg"><g fill="#fff"><path d="m90.6524 38.3638c-.4151.4069-1.72 1.4534-3.1434 1.279-1.3048-.1744-2.3131-1.2209-2.3131-4.7673v-9.651h7.7696v-5.5232h-7.7696v-7.2091h-6.524v1.2209 5.9301 5.5232 9.6509c0 3.3721.8896 11.1626 8.8371 11.1626 4.0331-.0581 6.5241-2.2092 7.5323-3.0232l.1187-.1163-4.0924-4.9417c-.0593.0581-.3559.4069-.4152.4651z"/><path d="m14.3192 39.6426c-4.0331 0-7.23583-3.1976-7.23583-7.0929s3.26203-7.0929 7.23583-7.0929c3.9737 0 7.2357 3.1976 7.2357 7.0929s-3.262 7.0929-7.2357 7.0929zm13.9377-20.0578h-6.524v1.5116c-2.1352-1.3371-4.6855-2.1511-7.4137-2.1511-7.65099 0-13.8192 6.1045-13.8192 13.5463 0 7.4417 6.16821 13.5462 13.8192 13.5462 2.6689 0 5.2192-.7558 7.3544-2.093v.5233c0 3.9534-3.2621 7.0929-7.2358 7.0929-1.4235 0-2.7283-.407-3.8552-1.1047l-3.3213 5.6395c2.07584 1.2209 4.5075 1.9767 7.1172 1.9767 7.5916 0 13.8784-6.0464 13.8784-13.5463z"/><path d="m48.5421 32.2591c0 2.4418-.1187 4.0115-.4152 4.7673-.3559.9884-.949 1.7442-1.72 2.2674-.771.5233-1.72.7558-2.7876.7558-1.0675 0-2.0165-.2325-2.7875-.7558-.771-.5232-1.3048-1.2209-1.6014-2.2092-.3558-.9303-.5337-2.6163-.5337-4.9999v-12.3835h-6.5834v10.6974c0 4.1279.2372 6.9185.771 8.4882.7117 2.2674 1.9572 4.0116 3.7365 5.2325 1.7793 1.279 4.0924 1.8604 6.9392 1.8604 2.669 0 4.8041-.5232 6.5241-1.6278 1.72-1.1047 3.0248-2.6163 3.9144-4.6511.7118-1.6279 1.0676-4.7092 1.0676-9.1859v-10.8137h-6.524z"/><path d="m69.0611 29.7595-2.4316-1.1628c-1.0676-.5232-1.72-.872-1.9573-1.1627-.2372-.2907-.4151-.5814-.4151-.9302 0-.4651.2372-.814.6524-1.1628.4151-.2907 1.0082-.4651 1.72-.4651 1.3641 0 2.8468.8139 4.5075 2.3837l4.0923-4.0116c-1.0675-1.3953-2.313-2.4418-3.7958-3.1395-1.4827-.7558-3.0841-1.1046-4.804-1.1046-2.4911 0-4.5076.6977-6.1089 2.1511-1.6014 1.4535-2.3724 3.1976-2.3724 5.1743 0 3.1395 2.1351 5.7557 6.3461 7.8487l2.1945 1.1047c1.8979.9302 2.8468 1.9185 2.8468 2.9069 0 .5232-.2372.9883-.771 1.3953s-1.2455.6395-2.0758.6395c-.8304 0-1.72-.2907-2.7283-.8139-1.0082-.5233-1.9572-1.2791-2.7282-2.1511l-4.0331 4.3022c2.2538 2.9069 5.3379 4.3604 9.1337 4.3604 2.8469 0 5.1599-.7558 6.8799-2.2674s2.5503-3.4302 2.5503-5.6976c0-1.686-.4744-3.1976-1.4234-4.4766-1.0083-1.2209-2.7282-2.4418-5.2786-3.7209z"/><path d="m113.84 37.8989c-1.364 1.3953-3.084 2.093-5.16 2.093s-3.736-.6977-5.1-2.093-2.017-3.1976-2.017-5.4069c0-2.1511.653-3.9534 2.017-5.3487s3.084-2.093 5.1-2.093c2.076 0 3.796.6977 5.16 2.0348 1.364 1.3954 2.017 3.1395 2.017 5.3488 0 2.2674-.653 4.0697-2.017 5.465zm6.821-12.1509c-1.246-2.093-2.906-3.7209-5.101-4.9418-2.194-1.2209-4.507-1.8023-6.939-1.8023-3.44 0-6.465 1.1628-9.0744 3.4883-3.0248 2.6744-4.5075 5.9883-4.5075 9.9998 0 3.7209 1.3048 6.9185 3.9737 9.5347 2.6692 2.6163 5.8712 3.9534 9.6082 3.9534 2.55 0 4.863-.5813 6.999-1.8023 2.135-1.1627 3.795-2.8487 5.041-4.9417 1.245-2.093 1.838-4.3604 1.838-6.8022 0-2.3256-.593-4.593-1.838-6.6859z"/></g></svg>