<svg fill="none" height="64" viewBox="0 0 197 64" width="197" xmlns="http://www.w3.org/2000/svg"><path clip-rule="evenodd" d="m128.614 18v20.5489h14.548v4.4701h-19.367v-25.019zm-118.75574.2365h-9.548201v24.7488h9.660801c8.12944 0 12.72344-5.2245 12.72344-12.1942 0-7.4314-4.5264-12.5546-12.83604-12.5546zm-.01126 20.4026h-4.7741v-16.0901h4.70655c5.47215 0 8.12945 3.3666 8.12945 8.2421 0 4.3124-2.5784 7.848-8.0619 7.848zm21.4497-5.8664c-3.7832 0-6.5418 1.6552-6.5418 5.3709 0 3.2878 2.691 5.202 5.5172 5.202s4.4926-1.0697 5.551-2.9388v2.5784h4.1323v-10.3251c0-4.3124-2.5897-6.7896-7.7129-6.7896-4.166 0-6.722 2.1619-7.6002 5.2696l3.9296 1.0584c.349-1.6214 1.5538-2.7924 3.6369-2.7924 2.0154 0 3.4342 1.0584 3.4342 3.0063v1.0584l-1.4863-.349c-.9346-.2365-1.8916-.3491-2.86-.3491zm4.3463 3.8846v.1464c0 1.9817-1.5539 3.0739-3.5694 3.0739-1.8465 0-2.7248-.8445-2.7248-2.0155 0-1.3399 1.0697-2.0155 2.6573-2.0155.7769 0 1.5876.1802 2.6122.4954zm11.4059-10.4265v2.5109c1.2949-1.779 3.3554-2.8374 5.551-2.86 4.5264 0 7.8818 3.5018 7.8818 8.8051s-3.4567 8.67-8.1295 8.67c-2.2969 0-4.2449-.9571-5.1231-2.511v9.1542h-4.5264v-23.7579zm4.4589 13.2639c2.3983 0 4.4588-1.7678 4.4588-4.8079 0-3.1077-2.0493-4.9092-4.4588-4.9092-2.297 0-4.4589 1.734-4.4589 4.9092 0 3.1077 2.1619 4.8079 4.4589 4.8079zm15.4822-10.753v-2.5109l-4.3463.0113v23.7579h4.5264v-9.1542c.8783 1.5539 2.8262 2.511 5.1232 2.511 4.6727 0 8.1295-3.3667 8.1295-8.67s-3.3554-8.8051-7.8818-8.8051c-2.1957.0226-4.2562 1.081-5.551 2.86zm8.9176 5.9451c0 3.0401-2.0605 4.8079-4.4588 4.8079-2.297 0-4.4588-1.7002-4.4588-4.8079 0-3.1752 2.1618-4.9092 4.4588-4.9092 2.4096 0 4.4588 1.8015 4.4588 4.9092zm19.2991 1.9029 3.8508 1.5201c-1.126 3.1864-3.7832 5.2357-7.8142 5.2357-5.1569 0-8.8726-3.468-8.8726-8.8388 0-4.7742 3.3216-8.625 8.3434-8.625 4.6277 0 7.7804 2.905 7.7804 7.5328 0 .6868-.0675 1.3736-.2139 2.0492h-11.3836c.0676 2.6573 2.1619 3.9972 4.4138 3.9972 2.1619-.0112 3.4005-1.1034 3.8959-2.8712zm-8.3097-4.1323h7.1725c.0225-.045.0337-.0901.0337-.1464 0-1.7002-1.3736-2.7924-3.4004-2.7924-1.7903 0-3.3779 1.0584-3.8058 2.9388zm18.973-4.076v-2.1506h-4.516v16.7544h4.527v-10.7867c0-1.7002.912-2.6573 2.331-2.6573 1.272 0 2.116.8782 2.116 2.083 0 .4392-.045.867-.146 1.2836h4.279c.169-.6755.247-1.3849.247-2.083 0-2.7924-1.7-4.9543-4.807-4.9543-2.016 0-3.356 1.0247-4.031 2.5109zm45.41 4.3125c-3.817 0-6.61 1.6777-6.61 5.4271 0 3.3216 2.714 5.2583 5.574 5.2583s4.538-1.0697 5.607-2.9613v2.6122h4.178v-10.4377c0-4.3575-2.613-6.8571-7.792-6.8571-4.211 0-6.79 2.1844-7.679 5.3258l3.963 1.0697c.361-1.6439 1.577-2.8262 3.682-2.8262 2.038 0 3.468 1.0697 3.468 3.0401v1.0697l-1.497-.3603c-.969-.2477-1.926-.3603-2.894-.3603zm4.391 3.9296v.1351c0 2.0042-1.565 3.1189-3.614 3.1189-1.858 0-2.748-.8557-2.748-2.038 0-1.3624 1.07-2.038 2.68-2.038.788 0 1.61.1689 2.646.4955zm11.969-18.6235v10.6179c1.104-1.7115 3.175-2.8938 5.427-2.8938 4.572 0 7.972 3.5356 7.972 8.8952s-3.468 8.76-8.219 8.76c-2.219 0-4.178-.8895-5.36-2.6122v2.2519h-4.391v-25.019zm4.335 21.4835c2.432 0 4.504-1.7903 4.504-4.8642 0-3.1415-2.072-4.9655-4.504-4.9655-2.319 0-4.504 1.7565-4.504 4.9655 0 3.1414 2.173 4.8642 4.504 4.8642zm13.467-2.5334-3.57 1.8916c1.183 2.8149 3.682 4.5376 7.668 4.5376 4.076 0 7.15-2.2519 7.15-5.4722 0-2.9275-1.599-4.6502-6.035-5.3258-2.86-.4279-3.75-.8557-3.75-1.8578 0-.8558 1.036-1.4638 2.399-1.4638 1.328 0 2.432.608 2.86 1.9254l3.468-1.8916c-.924-2.038-2.646-3.5693-6.43-3.5693-3.434 0-6.474 1.9254-6.474 4.9655 0 2.9725 2.286 4.5376 5.787 5.0781 3.176.4617 3.93 1.0697 3.93 2.2182 0 .9345-.923 1.6439-2.747 1.6439-1.937 0-3.434-.822-4.256-2.6798z" fill="#fff" fill-rule="evenodd"/></svg>