<svg width="109" height="64" viewBox="0 0 109 64" fill="none" xmlns="http://www.w3.org/2000/svg">
<g clip-path="url(#clip0_303_3545)">
<path d="M65.8822 40.1086C62.5716 40.1086 59.9364 42.7438 59.9364 46.0542C59.9364 49.2972 62.5716 52 65.8822 52C69.1931 52 71.8284 49.2972 71.8284 46.0542C71.8284 42.7438 69.1931 40.1086 65.8822 40.1086ZM89.8275 47.6759H86.6517V33.2164H89.8275C94.1521 33.2164 97.6653 35.4461 97.6653 40.5806C97.6653 45.9186 94.084 47.6759 89.8275 47.6759ZM86.6517 15.6488H87.8681C92.1925 15.6488 95.7058 17.5408 95.7058 22.6077C95.7058 28.1489 92.1925 29.8378 87.8681 29.8378H86.6517V15.6488ZM97.2598 30.5811C101.516 29.9733 105.773 26.257 105.773 22C105.773 14.9731 99.1519 12 90.7735 12H72.1249V15.6488H75.9759V51.3243H92.8678C101.179 51.3243 108.273 47.6084 108.273 40.5806C108.273 34.7704 102.868 31.5946 97.2598 30.5811ZM65.5199 32.7433L69.9791 25.0407C68.8304 23.2163 66.3303 21.3248 63.8301 21.3248C61.5332 21.3248 58.6952 24.4326 55.7897 28.4868V22H43.0193V25.4461H45.7222V51.3243H55.7897V30.9865C57.4115 29.568 58.6952 28.9594 60.0467 28.9594C62.0057 28.9594 63.6951 30.4459 65.5199 32.7433ZM17.7296 47.6759H15.0268V15.6488H17.7296C24.1484 15.6488 28.9455 20.1761 28.9455 31.4595C28.9455 42.7438 24.1484 47.6759 17.7296 47.6759ZM17.8643 12H0.5V15.6488H4.35108V51.3243H17.8643C29.351 51.3243 40.6348 43.9591 40.6348 31.4595C40.6348 18.9593 29.351 12 17.8643 12Z" fill="white"/>
</g>
<defs>
<clipPath id="clip0_303_3545">
<rect width="108" height="64" fill="white" transform="translate(0.5)"/>
</clipPath>
</defs>
</svg>
