<svg width="143" height="64" viewBox="0 0 143 64" fill="none" xmlns="http://www.w3.org/2000/svg">
<path d="M27.18 23.464C24.228 21.988 20.232 20.764 17.64 20.296C13.896 21.736 12.42 24.04 12.42 28.252C12.42 30.232 12.6 31.636 12.6 33.4C12.6 34.768 12.492 36.28 12.204 37.864C12.888 37.792 13.752 37.72 14.508 37.72C14.616 37.252 14.724 36.748 14.832 36.172C16.416 36.316 18.612 36.424 20.52 36.388C20.556 37.252 20.556 38.116 20.556 39.016C20.556 39.412 20.52 39.808 20.484 40.132C18.792 39.592 16.74 39.196 14.508 39.196C12.06 39.196 9.54 39.952 7.164 41.068C9.792 38.98 10.836 36.748 10.836 33.904C10.836 32.248 10.584 29.908 10.584 28.468C10.584 26.56 10.872 25.192 11.412 23.788C9.648 22.708 6.228 21.268 3.384 20.296C2.196 21.448 0.864 24.472 0.504 26.128C1.872 26.704 3.96 27.352 5.832 27.892C5.256 28.684 4.824 29.584 4.572 30.664C3.456 30.592 2.556 30.52 1.62 30.484C1.404 31.132 1.26 32.14 1.26 32.86H4.32C4.32 33.796 4.392 34.516 4.464 35.236C3.168 35.128 1.98 35.092 1.044 35.056C0.828 35.74 0.684 36.712 0.684 37.432H4.608C4.608 40.024 3.564 41.86 0.288 44.452C0.468 45.028 1.188 46.108 1.656 46.504C4.608 44.704 6.912 43.84 10.08 43.84C13.176 43.84 15.732 44.632 18.54 46.432C23.508 45.316 26.964 42.796 26.964 38.224C26.964 33.832 26.676 30.376 26.676 27.1C26.676 25.516 26.856 24.58 27.18 23.464ZM20.34 26.632C20.376 27.1 20.376 27.568 20.376 28V29.584C18.504 29.512 16.416 29.476 14.904 29.548C14.868 28.972 14.868 28.396 14.868 27.784C14.868 26.884 14.94 26.2 15.048 25.588C16.776 25.984 18.684 26.344 20.34 26.632ZM15.012 34.12C15.048 33.724 15.048 33.328 15.048 32.968C15.048 32.572 15.048 32.14 15.012 31.672C16.74 31.672 18.684 31.672 20.412 31.708C20.448 32.536 20.484 33.4 20.484 34.264C18.504 34.264 16.488 34.228 15.012 34.12ZM46.3978 39.34C46.3618 38.116 46.3618 36.856 46.3618 35.812C46.3618 33.724 46.5058 32.356 47.0098 30.34C45.4618 28.972 42.6898 27.64 40.7458 26.992C39.5938 28.216 38.3698 30.7 38.0458 32.32C38.7658 32.608 39.6658 32.932 40.5658 33.184C40.5298 36.352 39.8818 38.728 38.7298 40.816C37.9378 40.528 37.1818 40.276 36.3898 40.024C36.2818 38.62 36.2818 37.612 36.2818 35.812C36.2818 33.724 36.4258 32.356 36.8218 30.34C35.3818 28.972 33.2218 27.784 31.3138 26.992C30.1618 28.252 28.9018 30.7 28.5778 32.32C29.0458 32.572 29.4778 32.788 29.9098 32.968C30.0898 34.984 30.1618 36.964 30.1618 38.44C30.1618 40.06 29.9818 41.428 29.5498 43.192C31.4938 44.416 35.0578 45.82 37.6498 46.504C38.6578 45.28 39.5578 43.696 40.2778 42.004C41.5378 43.444 43.2658 45.136 44.7778 46.504C46.0738 45.388 47.9098 42.688 48.3418 41.212C47.8738 40.672 47.1898 39.952 46.3978 39.34ZM61.751 39.232C60.851 39.88 59.771 40.708 58.835 41.464C57.755 41.068 56.531 40.708 55.559 40.42C55.451 38.044 55.307 34.444 55.307 33.256C55.307 31.924 55.595 31.168 56.279 30.592C56.783 32.428 57.647 34.516 58.583 35.524C59.771 35.308 62.471 33.832 63.227 33.04C62.291 31.636 61.031 28.936 60.131 26.992C52.643 28.072 49.043 30.808 49.043 35.128C49.043 36.568 49.223 37.972 49.223 39.232C49.223 40.492 49.043 41.644 48.647 43.156C50.879 44.452 53.435 45.532 56.243 46.432C58.151 45.532 61.931 42.94 63.443 41.032C63.227 40.492 62.291 39.556 61.751 39.232ZM77.0681 37.936C78.6881 37.9 80.1641 37.864 81.2081 37.864C81.4601 37.144 81.7841 36.028 81.8201 35.164C80.8841 35.2 79.5521 35.272 78.0761 35.416C79.5521 34.552 80.8121 33.148 80.8121 31.42C80.8121 28.864 78.3641 27.172 73.7561 26.992C72.5321 28.324 71.2721 30.448 70.5161 32.212V31.888C70.5161 27.208 72.6761 24.148 75.9521 22.456C75.8081 21.268 75.0161 19.72 74.0441 19.144C72.2801 19.756 70.4441 21.664 69.6161 23.608C68.2121 22.024 66.7361 20.512 65.3321 19.18C64.2521 20.332 62.6681 23.068 62.1641 24.508C62.8121 25.372 63.7481 26.308 64.7561 27.172V34.624C64.7561 38.08 64.6841 40.384 64.1081 43.156C65.6921 44.56 68.5721 45.892 70.5521 46.504C71.6681 45.28 72.8561 42.724 73.1081 41.176C72.3161 40.816 71.4161 40.528 70.5161 40.24C70.5521 39.484 70.5881 38.764 70.6961 38.08C71.9201 38.08 73.3241 38.044 74.7641 38.008C74.1161 38.836 73.5761 40.024 73.5761 41.392C73.5761 43.444 75.0881 45.172 78.2561 46.288C79.4801 45.1 80.7401 42.94 81.3161 40.996C80.3441 40.456 77.5721 38.98 77.0681 37.936ZM72.5321 32.32C74.2601 32.68 74.9081 33.508 74.9081 34.552C74.9081 34.912 74.8361 35.344 74.7281 35.704C73.3961 35.848 72.1001 35.956 71.0201 36.064C71.3441 34.624 71.8481 33.328 72.5321 32.32ZM90.9706 46.432C97.8106 44.452 100.223 42.256 100.223 38.296C100.223 37.216 100.007 35.488 100.007 34.552C100.007 33.292 100.151 31.816 100.583 30.304C99.1066 29.08 96.2986 27.604 94.4986 26.992C93.3106 28.216 92.0866 30.7 91.8346 32.32C92.4466 32.608 93.0946 32.86 93.7426 33.076C93.8506 35.128 93.9226 37.648 93.9226 38.98C93.9226 40.024 93.7426 40.744 93.3106 41.32C92.1946 40.996 91.0786 40.672 90.0706 40.42C89.9626 38.728 89.8186 36.424 89.8186 35.092C89.8186 33.112 89.9986 31.744 90.3946 30.304C89.3146 29.296 86.3626 27.64 84.4186 26.992C83.4466 27.712 82.0426 30.7 81.7186 32.32C82.3666 32.608 83.0146 32.86 83.6266 33.076C83.6986 34.948 83.6986 36.964 83.6986 38.872C83.6986 40.132 83.4826 41.644 83.1586 43.156C84.1306 43.804 86.1466 44.668 87.8026 45.28C84.7426 46.576 83.4826 48.16 83.4826 50.104C83.4826 51.904 84.8146 53.2 86.8306 53.2C89.4946 53.2 92.1946 51.148 94.3186 51.148C95.0746 51.148 95.4346 51.544 95.4346 51.976C95.4346 52.228 95.3626 52.408 95.2546 52.624C95.5426 53.02 96.2266 53.452 96.7306 53.596C98.9626 52.372 100.043 51.004 100.043 49.348C100.043 47.692 98.8186 46.36 96.8386 46.36C93.4906 46.36 89.8186 50.284 87.6946 50.284C87.1186 50.284 86.7586 49.96 86.7586 49.42C86.7586 48.52 87.5146 47.404 90.9706 46.432Z" fill="white"/>
<path fill-rule="evenodd" clip-rule="evenodd" d="M115.978 28.8148C117.434 28.0404 117.805 25.895 116.805 24.0136C115.805 22.1322 113.819 21.2402 112.362 22.0146C110.906 22.7889 110.537 24.9401 111.535 26.8158C112.532 28.6915 114.527 29.5861 115.978 28.8148ZM124.399 19.9774C125.398 21.8553 125.027 24.0048 123.572 24.7786C122.117 25.5524 120.127 24.6575 119.129 22.7796C118.131 20.9018 118.501 18.7522 119.956 17.9784C121.411 17.2046 123.401 18.0996 124.399 19.9774ZM129.646 20.6174C128.189 21.3917 127.821 23.5428 128.819 25.4185C129.816 27.2942 131.805 28.1919 133.262 27.4175C134.718 26.6432 135.08 24.495 134.083 22.6193C133.086 20.7436 131.096 19.846 129.646 20.6174ZM113.513 33.5572C112.515 31.6814 110.526 30.7838 109.07 31.5581C107.613 32.3325 107.251 34.4806 108.248 36.3563C109.246 38.2321 111.235 39.1297 112.686 38.3583C114.136 37.587 114.495 35.4045 113.513 33.5572ZM117.665 46.1782C115.556 42.2114 116.149 31.7198 120.631 29.3364C125.108 26.956 134.122 32.3031 136.279 36.3462C136.537 36.8306 136.696 37.3611 136.749 37.9073C136.802 38.4534 136.746 39.0046 136.586 39.5293C136.425 40.054 136.163 40.542 135.814 40.9654C135.465 41.3888 135.036 41.7392 134.552 41.9968C134.091 42.2707 133.576 42.4417 133.043 42.4982C132.509 42.5547 131.97 42.4952 131.462 42.324C131.277 42.2768 131.096 42.2122 130.923 42.1308C130.795 42.0818 130.669 42.0309 130.544 41.9803C129.545 41.5775 128.588 41.1915 127.305 41.8741C126.009 42.5632 125.797 43.5762 125.574 44.6464C125.548 44.7694 125.522 44.8932 125.494 45.0173C125.461 45.207 125.412 45.3936 125.347 45.5752C125.206 46.0928 124.955 46.5735 124.609 46.9842C124.264 47.3949 123.834 47.7257 123.348 47.9537C122.859 48.2138 122.324 48.3742 121.772 48.4256C121.221 48.477 120.664 48.4185 120.136 48.2533C119.607 48.0882 119.116 47.8197 118.692 47.4635C118.268 47.1073 117.919 46.6704 117.665 46.1782Z" fill="white"/>
</svg>
