<svg width="70" height="64" viewBox="0 0 70 64" fill="none" xmlns="http://www.w3.org/2000/svg">
<g clip-path="url(#clip0_2228_37941)">
<path d="M10.5395 46.396C15.1475 46.396 18.1355 43.444 18.1355 38.98V18.1H12.8075V39.196C12.8075 40.78 12.0155 41.752 10.5395 41.752C9.2795 41.752 8.2355 40.816 8.0555 38.476L2.5475 38.512C2.7275 43.336 5.8595 46.396 10.5395 46.396ZM26.276 46.396C30.884 46.396 33.872 43.444 33.872 38.98V18.1H28.544V39.196C28.544 40.78 27.752 41.752 26.276 41.752C25.016 41.752 23.972 40.816 23.792 38.476L18.284 38.512C18.464 43.336 21.596 46.396 26.276 46.396Z" fill="white"/>
<path d="M66.1684 24.8204H69.0212L69.9785 21.0071H63.452L63.0428 24.7072C64.4386 26.5229 65.1813 28.7449 65.1536 31.0226C65.1536 36.0858 61.7265 40.1892 57.4952 40.1892C53.2639 40.1892 49.8368 36.0858 49.8368 31.0226C49.8091 28.7449 50.5518 26.5229 51.9477 24.7072L51.5384 21H45.2872L46.2445 24.8133H48.8292C47.6161 25.9602 46.6513 27.3374 45.9932 28.8618C45.3351 30.3862 44.9972 32.0262 45 33.6828C45.0007 36.9493 46.3178 40.0819 48.6619 42.3917C51.006 44.7015 54.185 45.9994 57.5 46C60.815 45.9994 63.9941 44.7015 66.3382 42.3917C68.6822 40.0819 69.9994 36.9493 70 33.6828C70.0015 32.0272 69.6628 30.3884 69.0043 28.8653C68.3458 27.3422 67.3811 25.9662 66.1684 24.8204Z" fill="white"/>
</g>
<defs>
<clipPath id="clip0_2228_37941">
<rect width="70" height="64" fill="white"/>
</clipPath>
</defs>
</svg>
