<svg width="24" height="24" viewBox="0 0 24 24" fill="none" xmlns="http://www.w3.org/2000/svg">
<path d="M10.0725 21C10.575 20.0475 12 16.6725 12 9V8.9025L11.16 9.4575C10.013 10.2179 9.26223 11.4174 9.05697 12.7529C8.99404 13.1623 8.66421 13.5 8.25 13.5C7.83579 13.5 7.49541 13.163 7.54381 12.7516C7.76011 10.9129 8.76684 9.25074 10.3275 8.2125L11.3925 7.5H10.245C9.12 7.5 7.995 7.875 7.095 8.55L6.29237 9.1509C5.96099 9.39899 5.49126 9.33168 5.24289 9.00051C4.99421 8.66894 5.06161 8.19852 5.3934 7.95013L6.195 7.35C7.3575 6.48 8.7975 6 10.245 6H11.16C10.185 5.055 8.8725 4.5 7.5 4.5H6.75C6.33579 4.5 6 4.16421 6 3.75C6 3.33579 6.33579 3 6.75 3H7.5C9.5325 3 11.475 3.945 12.75 5.52C14.025 3.945 15.9675 3 18 3H18.75C19.1642 3 19.5 3.33579 19.5 3.75C19.5 4.16421 19.1642 4.5 18.75 4.5H18C16.6275 4.5 15.3075 5.055 14.34 6H15.255C16.7025 6 18.1425 6.48 19.305 7.35L20.1066 7.95013C20.4384 8.19852 20.5058 8.66894 20.2571 9.00051C20.0087 9.33168 19.539 9.39899 19.2076 9.1509L18.405 8.55C17.505 7.875 16.38 7.5 15.255 7.5H14.1075L15.1725 8.2125C16.7331 9.2573 17.7398 10.9143 17.9562 12.7516C18.0046 13.163 17.6642 13.5 17.25 13.5C16.8358 13.5 16.506 13.1622 16.4425 12.7529C16.2356 11.4191 15.4805 10.2242 14.34 9.4575L13.5 8.9025V9C13.5 15.705 12.4425 19.32 11.73 21H21.75C22.1642 21 22.5 21.3358 22.5 21.75C22.5 22.1642 22.1642 22.5 21.75 22.5H2.25C1.83579 22.5 1.5 22.1642 1.5 21.75C1.5 21.3358 1.83579 21 2.25 21H10.0725Z" fill="#0E0E11"/>
</svg>
