<svg width="560" height="480" viewBox="0 0 560 480" fill="none" xmlns="http://www.w3.org/2000/svg">
<path d="M129 226L433 226C446.255 226 457 236.745 457 250L457 306" stroke="#7379FD" stroke-linecap="round"/>
<path d="M209 226L348 226C361.255 226 372 215.255 372 202L372 141" stroke="#2BBC86" stroke-linecap="round"/>
<g filter="url(#filter0_d_722_45986)">
<rect x="44" y="70" width="170" height="340" rx="24" fill="white" shape-rendering="crispEdges"/>
<rect width="120" height="8" rx="4" transform="matrix(1 0 0 -1 68.875 130)" fill="#E9EAFF"/>
<rect width="80" height="8" rx="4" transform="matrix(1 0 0 -1 88.7598 114)" fill="#E9EAFF"/>
<ellipse cx="128.447" cy="355.112" rx="21.1117" ry="21.1117" fill="#F47466"/>
<g clip-path="url(#clip0_722_45986)">
<path d="M136.766 359.8C136.766 360.178 136.612 360.541 136.339 360.808C136.065 361.076 135.695 361.226 135.308 361.226H122.189C121.803 361.226 121.432 361.076 121.158 360.808C120.885 360.541 120.731 360.178 120.731 359.8V351.962C120.731 351.584 120.885 351.221 121.158 350.954C121.432 350.686 121.803 350.536 122.189 350.536H125.104L126.562 348.398H130.935L132.393 350.536H135.308C135.695 350.536 136.065 350.686 136.339 350.954C136.612 351.221 136.766 351.584 136.766 351.962V359.8Z" stroke="white" stroke-width="2" stroke-linecap="round" stroke-linejoin="round"/>
<path d="M128.747 358.019C130.075 358.019 131.152 356.942 131.152 355.614C131.152 354.286 130.075 353.209 128.747 353.209C127.419 353.209 126.342 354.286 126.342 355.614C126.342 356.942 127.419 358.019 128.747 358.019Z" stroke="white" stroke-width="2" stroke-linecap="round" stroke-linejoin="round"/>
</g>
<rect x="44.5" y="165" width="169" height="130" fill="#FEF3F2"/>
<g filter="url(#filter1_d_722_45986)">
<rect x="81.4004" y="199.312" width="89.0183" height="53.4121" rx="8" fill="white"/>
<rect x="81.4004" y="199.312" width="89.0183" height="53.4121" rx="8" stroke="#FDAB2B"/>
</g>
<path d="M130.084 219.995C129.854 219.995 129.667 220.182 129.667 220.412C129.667 220.642 129.854 220.829 130.084 220.829V219.995ZM159.914 220.829C160.145 220.829 160.331 220.642 160.331 220.412C160.331 220.182 160.145 219.995 159.914 219.995V220.829ZM130.084 220.829H159.914V219.995H130.084V220.829Z" fill="black"/>
<path d="M130.084 227.402C129.854 227.402 129.667 227.588 129.667 227.818C129.667 228.048 129.854 228.235 130.084 228.235V227.402ZM152.457 228.235C152.687 228.235 152.874 228.048 152.874 227.818C152.874 227.588 152.687 227.402 152.457 227.402V228.235ZM130.084 228.235H152.457V227.402H130.084V228.235Z" fill="black"/>
<path d="M130.084 234.808C129.854 234.808 129.667 234.994 129.667 235.225C129.667 235.455 129.854 235.641 130.084 235.641V234.808ZM159.914 235.641C160.145 235.641 160.331 235.455 160.331 235.225C160.331 234.994 160.145 234.808 159.914 234.808V235.641ZM130.084 235.641H159.914V234.808H130.084V235.641Z" fill="black"/>
<g clip-path="url(#clip1_722_45986)">
<path d="M91.8069 238.59C89.9386 240.419 89.938 244.779 92.1295 244.779H117.009C118.473 244.779 118.425 241.472 117.741 240.419C117.057 239.366 111.803 238.484 109.582 238.192C108.253 239.367 106.514 240.033 104.701 240.06C103.122 240.084 99.5795 239.443 99.5795 237.478C96.9782 237.478 94.2223 237.526 91.8069 238.59Z" fill="#F47466"/>
<path d="M108.754 216.265C109.981 216.454 113.112 218.689 113.908 220.269C113.748 216.698 112.985 213.687 109.058 212.544C102.768 204.464 91.6276 213.157 94.7636 226.062C95.6062 217.108 98.7891 217.898 101.972 218.688C105.155 219.479 107.45 217.512 108.754 216.265Z" fill="#F47466"/>
<path d="M90.6895 239.085C93.6174 238.238 96.498 237.479 99.5801 237.479V238.446C102.452 240.835 106.737 240.963 109.582 238.446V237.479C112.664 237.479 115.545 238.238 118.473 239.085M114.48 228.117C115.918 227.771 116.547 225.012 114.704 225.012M114.48 228.117L114.704 225.012M114.48 228.117C114.58 233.255 109.536 237.656 104.36 237.656C99.3206 237.656 94.5861 233.062 94.6825 228.117M114.704 225.012C113.674 221.334 113.139 216.865 108.596 216.181C107.543 217.899 105.951 219.435 103.564 218.69C99.3362 217.369 96.1896 217.928 94.811 225.802C93.8397 220.346 94.2755 216.385 96.3321 213.541C99.4177 209.274 106.647 207.675 108.596 212.368C113.955 214.14 114.704 220.158 114.704 225.012ZM94.6825 228.117C94.6825 228.117 95.2173 223.281 93.6288 225.223C92.7564 226.289 93.4214 227.805 94.6825 228.117ZM102.113 232.057C103.681 232.522 105.361 232.522 106.929 232.057" stroke="black" stroke-width="0.833333" stroke-linecap="round" stroke-linejoin="round"/>
</g>
<rect x="44" y="70" width="170" height="340" rx="24" stroke="#A7ABFE" shape-rendering="crispEdges"/>
</g>
<g filter="url(#filter2_d_722_45986)">
<rect x="342" y="106" width="60" height="60" rx="30" fill="#2BBC86"/>
<path d="M380.438 129.35L367.991 142.174L362.333 136.345" stroke="white" stroke-width="2" stroke-linecap="round" stroke-linejoin="round"/>
<rect x="342" y="106" width="60" height="60" rx="30" stroke="#2BBC86" stroke-width="0.754361"/>
</g>
<path d="M457 340V358C457 371.255 467.745 382 481 382H557" stroke="#A7ABFE" stroke-miterlimit="16" stroke-linecap="round" stroke-linejoin="round" stroke-dasharray="2 4"/>
<rect x="242.151" y="214" width="93.6976" height="23" rx="11.5" fill="#2BBC86"/>
<path d="M255.752 230H261.812V228.668H257.3V220.88H255.752V230ZM266.854 230.144C268.81 230.144 270.022 228.764 270.022 226.76C270.022 224.768 268.81 223.388 266.854 223.388C264.898 223.388 263.674 224.768 263.674 226.76C263.674 228.764 264.898 230.144 266.854 230.144ZM265.21 226.76C265.21 225.356 265.786 224.444 266.854 224.444C267.922 224.444 268.486 225.356 268.486 226.76C268.486 228.176 267.922 229.088 266.854 229.088C265.786 229.088 265.21 228.176 265.21 226.76ZM272.437 230H274.777L275.485 224.9L276.193 230H278.533L279.361 223.532H278.101L277.321 229.82L276.601 224.732H274.369L273.649 229.82L272.869 223.532H271.621L272.437 230ZM291.017 230H292.517V226.904C292.517 225.644 293.225 224.792 295.301 224.792H295.913V223.388H295.553C293.621 223.388 292.769 224.612 292.505 225.548V223.532H291.017V230ZM298.388 230H304.856V228.884H302.372V223.532H298.76V224.636H300.872V228.884H298.388V230ZM300.62 222.464H302.372V220.88H300.62V222.464ZM310.066 230.144C311.674 230.144 312.874 229.4 312.874 228.116C312.874 227.072 312.286 226.484 310.966 226.196L309.958 225.98C309.214 225.812 308.842 225.656 308.842 225.212C308.842 224.72 309.406 224.444 310.018 224.444C310.558 224.444 311.074 224.708 311.242 225.188H312.754C312.478 223.988 311.338 223.388 310.018 223.388C308.578 223.388 307.39 224.144 307.39 225.332C307.39 226.316 308.086 226.856 309.238 227.108L310.246 227.336C311.038 227.504 311.422 227.708 311.422 228.26C311.422 228.764 310.954 229.088 310.102 229.088C309.55 229.088 308.926 228.872 308.77 228.08H307.246C307.45 229.448 308.578 230.144 310.066 230.144ZM320.628 230H322.452L319.392 226.4L322.32 223.532H320.508L317.724 226.256V220.88H316.224V230H317.724V226.568L320.628 230Z" fill="white"/>
<g filter="url(#filter3_d_722_45986)">
<rect x="427" y="280" width="60" height="60" rx="30" fill="white"/>
<path d="M466.457 319.171L465.564 318.909C463.901 318.421 462.173 318.173 460.435 318.172C462.161 318.172 464.74 318.252 466.309 318.955L466.543 319.06L466.457 319.171V319.171ZM465.406 320.349C463.142 322.578 459.99 323.96 456.505 323.96C452.39 323.96 448.74 322.032 446.468 319.06L446.701 318.955C448.27 318.252 450.849 318.172 452.575 318.172V318.742L452.717 318.862C453.792 319.767 455.175 320.255 456.6 320.233C458.025 320.211 459.391 319.68 460.435 318.742C462.181 318.975 463.866 319.52 465.406 320.349V320.349ZM458.814 302.185C458.164 302.879 457.303 303.357 456.355 303.551C455.407 303.744 454.421 303.644 453.536 303.263L453.314 303.167C452.928 303.001 452.508 302.923 452.086 302.938C451.664 302.953 451.251 303.062 450.88 303.255C450.508 303.449 450.187 303.722 449.941 304.054C449.695 304.386 449.531 304.768 449.462 305.17L448.791 309.061C448.028 304.706 448.454 301.394 450.07 299.124C452.495 295.719 458.493 294.527 460.024 298.272C462.41 298.978 463.658 300.523 463.767 302.906C464.586 304.357 464.737 306.409 464.219 309.061L463.598 304.983C463.456 304.049 463.009 303.183 462.324 302.51C461.638 301.838 460.749 301.394 459.784 301.242L459.707 301.231L458.814 302.185V302.185Z" fill="#A7ABFE"/>
<path d="M452.577 317.473V318.743L452.719 318.863C453.793 319.768 455.176 320.257 456.601 320.235C458.026 320.213 459.393 319.681 460.436 318.743V317.32M452.577 318.174C450.84 318.174 449.112 318.422 447.45 318.91L445.591 319.456M460.436 318.174C462.173 318.174 463.901 318.422 465.563 318.91L467.423 319.456M464.285 310.702C464.611 310.622 464.859 310.503 465.066 310.246C465.273 309.989 465.385 309.673 465.385 309.347C465.385 309.022 465.273 308.705 465.066 308.448C464.859 308.191 464.569 308.009 464.243 307.929L464.221 307.923M464.285 310.702C464.31 311.993 463.985 313.267 463.344 314.399C462.703 315.531 461.766 316.481 460.628 317.155L459.587 317.772C458.66 318.321 457.594 318.612 456.507 318.612C455.419 318.612 454.353 318.321 453.426 317.772L452.385 317.155C451.247 316.481 450.311 315.531 449.67 314.399C449.028 313.267 448.704 311.993 448.728 310.702M464.285 310.702L464.221 307.354M448.793 307.353L448.728 310.702M448.728 310.702L448.745 307.867L448.724 307.873C448.397 307.953 448.107 308.135 447.901 308.392C447.694 308.649 447.581 308.965 447.581 309.291C447.581 309.617 447.694 309.933 447.901 310.19C448.116 310.458 448.398 310.619 448.728 310.702ZM459.807 298.186C462.318 299.029 463.628 300.643 463.737 303.026C464.556 304.478 464.702 306.471 464.174 309.006L463.552 304.928C463.41 303.994 462.964 303.128 462.278 302.455C461.592 301.783 460.703 301.339 459.739 301.188L459.661 301.176L458.768 302.13C458.118 302.824 457.257 303.302 456.31 303.496C455.362 303.69 454.375 303.589 453.49 303.208L453.268 303.112C452.882 302.947 452.462 302.868 452.04 302.883C451.618 302.899 451.206 303.007 450.834 303.2C450.462 303.394 450.141 303.667 449.895 303.999C449.649 304.331 449.485 304.713 449.416 305.115L448.745 309.006C447.982 304.652 448.409 301.339 450.025 299.069C452.449 295.664 458.276 294.44 459.807 298.186ZM459.807 298.186C460.001 298.85 460.098 299.42 460.098 299.894L459.807 298.186ZM454.567 313.847C455.8 314.218 457.119 314.218 458.351 313.847" stroke="black" stroke-linecap="round" stroke-linejoin="round"/>
<path d="M442.13 298.913V296.468C442.13 295.731 442.728 295.133 443.466 295.133H445.817" stroke="black" stroke-linecap="round"/>
<path d="M442.13 321.219V323.664C442.13 324.402 442.728 325 443.466 325H445.817" stroke="black" stroke-linecap="round"/>
<path d="M467.365 295.133H469.717C470.455 295.133 471.053 295.731 471.053 296.468V298.913" stroke="black" stroke-linecap="round"/>
<path d="M467.365 325H469.717C470.455 325 471.053 324.402 471.053 323.664V321.219" stroke="black" stroke-linecap="round"/>
<rect x="427" y="280" width="60" height="60" rx="30" stroke="#7379FD"/>
</g>
<defs>
<filter id="filter0_d_722_45986" x="43.5" y="69.5" width="179" height="349" filterUnits="userSpaceOnUse" color-interpolation-filters="sRGB">
<feFlood flood-opacity="0" result="BackgroundImageFix"/>
<feColorMatrix in="SourceAlpha" type="matrix" values="0 0 0 0 0 0 0 0 0 0 0 0 0 0 0 0 0 0 127 0" result="hardAlpha"/>
<feOffset dx="8" dy="8"/>
<feComposite in2="hardAlpha" operator="out"/>
<feColorMatrix type="matrix" values="0 0 0 0 0.654902 0 0 0 0 0.670588 0 0 0 0 0.996078 0 0 0 0.3 0"/>
<feBlend mode="normal" in2="BackgroundImageFix" result="effect1_dropShadow_722_45986"/>
<feBlend mode="normal" in="SourceGraphic" in2="effect1_dropShadow_722_45986" result="shape"/>
</filter>
<filter id="filter1_d_722_45986" x="80.9004" y="198.812" width="98.0186" height="62.4121" filterUnits="userSpaceOnUse" color-interpolation-filters="sRGB">
<feFlood flood-opacity="0" result="BackgroundImageFix"/>
<feColorMatrix in="SourceAlpha" type="matrix" values="0 0 0 0 0 0 0 0 0 0 0 0 0 0 0 0 0 0 127 0" result="hardAlpha"/>
<feOffset dx="8" dy="8"/>
<feComposite in2="hardAlpha" operator="out"/>
<feColorMatrix type="matrix" values="0 0 0 0 0.654902 0 0 0 0 0.670588 0 0 0 0 0.996078 0 0 0 0.3 0"/>
<feBlend mode="normal" in2="BackgroundImageFix" result="effect1_dropShadow_722_45986"/>
<feBlend mode="normal" in="SourceGraphic" in2="effect1_dropShadow_722_45986" result="shape"/>
</filter>
<filter id="filter2_d_722_45986" x="341.623" y="105.623" width="68.7539" height="68.7539" filterUnits="userSpaceOnUse" color-interpolation-filters="sRGB">
<feFlood flood-opacity="0" result="BackgroundImageFix"/>
<feColorMatrix in="SourceAlpha" type="matrix" values="0 0 0 0 0 0 0 0 0 0 0 0 0 0 0 0 0 0 127 0" result="hardAlpha"/>
<feOffset dx="8" dy="8"/>
<feComposite in2="hardAlpha" operator="out"/>
<feColorMatrix type="matrix" values="0 0 0 0 0.654902 0 0 0 0 0.670588 0 0 0 0 0.996078 0 0 0 0.3 0"/>
<feBlend mode="normal" in2="BackgroundImageFix" result="effect1_dropShadow_722_45986"/>
<feBlend mode="normal" in="SourceGraphic" in2="effect1_dropShadow_722_45986" result="shape"/>
</filter>
<filter id="filter3_d_722_45986" x="426.5" y="279.5" width="69" height="69" filterUnits="userSpaceOnUse" color-interpolation-filters="sRGB">
<feFlood flood-opacity="0" result="BackgroundImageFix"/>
<feColorMatrix in="SourceAlpha" type="matrix" values="0 0 0 0 0 0 0 0 0 0 0 0 0 0 0 0 0 0 127 0" result="hardAlpha"/>
<feOffset dx="8" dy="8"/>
<feComposite in2="hardAlpha" operator="out"/>
<feColorMatrix type="matrix" values="0 0 0 0 0.654902 0 0 0 0 0.670588 0 0 0 0 0.996078 0 0 0 0.3 0"/>
<feBlend mode="normal" in2="BackgroundImageFix" result="effect1_dropShadow_722_45986"/>
<feBlend mode="normal" in="SourceGraphic" in2="effect1_dropShadow_722_45986" result="shape"/>
</filter>
<clipPath id="clip0_722_45986">
<rect width="19.241" height="19.241" fill="white" transform="translate(119.127 345.191)"/>
</clipPath>
<clipPath id="clip1_722_45986">
<rect width="29.2699" height="36.3359" fill="white" transform="translate(89.9355 208.443)"/>
</clipPath>
</defs>
</svg>
