<svg width="360" height="240" viewBox="0 0 360 240" fill="none" xmlns="http://www.w3.org/2000/svg">
<g filter="url(#filter0_d_213_9529)">
<rect x="70.5" y="62.25" width="219" height="116.25" rx="6" fill="white" stroke="#A7ABFE"/>
<path d="M83.2995 82.25H88.5353V81.1677H86.5463V75.9222H88.5353V74.84H83.2995V75.9222H85.2885V81.1677H83.2995V82.25ZM90.0777 82.25H92.1544C94.3384 82.25 95.7912 80.9922 95.7912 78.545C95.7912 76.0977 94.3384 74.84 92.1544 74.84H90.0777V82.25ZM91.3354 81.1677V75.9222H92.1837C93.6559 75.9222 94.4944 76.8582 94.4944 78.545C94.4944 80.2317 93.6559 81.1677 92.1837 81.1677H91.3354ZM105.75 82.367C106.5 82.367 107.163 82.0452 107.709 81.4797L108.304 82.25H109.679L108.372 80.573L108.45 80.4267L109.542 78.3305H108.499L107.748 79.7735L106.452 78.0867C107.28 77.648 107.943 77.1215 107.943 76.3317C107.943 75.4835 107.212 74.723 106.071 74.723C104.931 74.723 104.199 75.4737 104.199 76.3317C104.199 76.8875 104.482 77.3263 104.94 77.9112C104.112 78.389 103.351 79.1202 103.351 80.2025C103.351 81.6065 104.433 82.367 105.75 82.367ZM104.55 80.2025C104.55 79.5102 104.862 79.0422 105.486 78.623L107.163 80.7777C106.803 81.236 106.364 81.5382 105.798 81.5382C105.135 81.5382 104.55 81.08 104.55 80.2025ZM105.389 76.3317C105.389 75.8052 105.691 75.5517 106.071 75.5517C106.452 75.5517 106.764 75.8052 106.764 76.3317C106.764 76.7705 106.442 77.0922 105.906 77.3945L105.886 77.3652C105.555 76.946 105.389 76.6827 105.389 76.3317ZM120.057 82.367C121.363 82.367 122.338 81.7625 122.338 80.7192C122.338 79.871 121.861 79.3932 120.788 79.1592L119.969 78.9837C119.365 78.8472 119.062 78.7205 119.062 78.3597C119.062 77.96 119.521 77.7357 120.018 77.7357C120.457 77.7357 120.876 77.9502 121.012 78.3402H122.241C122.017 77.3652 121.09 76.8778 120.018 76.8778C118.848 76.8778 117.883 77.492 117.883 78.4572C117.883 79.2567 118.448 79.6955 119.384 79.9002L120.203 80.0855C120.847 80.222 121.159 80.3877 121.159 80.8362C121.159 81.2457 120.778 81.509 120.086 81.509C119.638 81.509 119.131 81.3335 119.004 80.69H117.766C117.931 81.8015 118.848 82.367 120.057 82.367ZM127.01 82.367C128.2 82.367 129.077 81.8307 129.399 80.6997H128.161C127.995 81.2067 127.654 81.509 127.01 81.509C126.289 81.509 125.811 81.002 125.723 79.9782H129.497C129.506 79.8515 129.516 79.6955 129.516 79.598C129.516 77.8917 128.453 76.8778 127.001 76.8778C125.46 76.8778 124.485 78.0087 124.485 79.6175C124.485 81.2165 125.431 82.367 127.01 82.367ZM125.733 79.13C125.85 78.194 126.308 77.7357 127.001 77.7357C127.732 77.7357 128.21 78.2915 128.268 79.13H125.733ZM131.254 82.25H136.509V81.3432H134.491V74.84H131.546V75.7467H133.272V81.3432H131.254V82.25ZM139.689 76.361V76.9947H137.817V77.8917H139.689V82.25H140.908V77.8917H146.914V81.3432H144.896V82.25H150.151V81.3432H148.133V76.9947H140.908V76.4097C140.908 75.8735 141.161 75.7272 141.62 75.7272H143.131V74.84H141.405C140.43 74.84 139.689 75.3275 139.689 76.361ZM146.709 76.127H148.133V74.84H146.709V76.127ZM154.318 82.367C155.508 82.367 156.385 81.8307 156.707 80.6997H155.469C155.303 81.2067 154.962 81.509 154.318 81.509C153.597 81.509 153.119 81.002 153.031 79.9782H156.804C156.814 79.8515 156.824 79.6955 156.824 79.598C156.824 77.8917 155.761 76.8778 154.308 76.8778C152.768 76.8778 151.793 78.0087 151.793 79.6175C151.793 81.2165 152.739 82.367 154.318 82.367ZM153.041 79.13C153.158 78.194 153.616 77.7357 154.308 77.7357C155.04 77.7357 155.517 78.2915 155.576 79.13H153.041ZM166.695 82.25H168.986L170.517 76.9947H169.298L167.845 82.094L166.383 76.9947H165.164L166.695 82.25ZM174.799 82.367C175.988 82.367 176.866 81.8307 177.188 80.6997H175.949C175.784 81.2067 175.442 81.509 174.799 81.509C174.077 81.509 173.6 81.002 173.512 79.9782H177.285C177.295 79.8515 177.305 79.6955 177.305 79.598C177.305 77.8917 176.242 76.8778 174.789 76.8778C173.249 76.8778 172.274 78.0087 172.274 79.6175C172.274 81.2165 173.219 82.367 174.799 82.367ZM173.522 79.13C173.639 78.194 174.097 77.7357 174.789 77.7357C175.52 77.7357 175.998 78.2915 176.057 79.13H173.522ZM180.066 82.25H181.284V79.7345C181.284 78.7107 181.86 78.0185 183.546 78.0185H184.044V76.8778H183.751C182.181 76.8778 181.489 77.8722 181.275 78.6327V76.9947H180.066V82.25ZM185.859 82.25H191.114V81.3432H189.096V76.9947H186.161V77.8917H187.877V81.3432H185.859V82.25ZM187.673 76.127H189.096V74.84H187.673V76.127ZM194.304 76.361V76.9947H192.432V77.8917H194.304V82.25H195.523V77.8917H201.529V81.3432H199.511V82.25H204.766V81.3432H202.748V76.9947H195.523V76.4097C195.523 75.8735 195.777 75.7272 196.235 75.7272H197.746V74.84H196.02C195.045 74.84 194.304 75.3275 194.304 76.361ZM201.324 76.127H202.748V74.84H201.324V76.127ZM208.992 82.367C210.22 82.367 211.215 81.6845 211.459 80.4365H210.23C210.055 81.119 209.655 81.509 208.992 81.509C208.144 81.509 207.656 80.7777 207.656 79.6175C207.656 78.4767 208.134 77.7357 208.992 77.7357C209.665 77.7357 210.055 78.2232 210.181 78.8277H211.41C211.195 77.6577 210.298 76.8778 208.992 76.8778C207.412 76.8778 206.418 77.999 206.418 79.6175C206.418 81.2457 207.412 82.367 208.992 82.367ZM214.922 82.367C215.897 82.367 216.335 81.9087 216.657 81.2262V82.25H217.866V78.9155V78.896C217.866 77.8722 217.262 76.8778 215.624 76.8778C214.376 76.8778 213.469 77.531 213.352 78.5645H214.59C214.639 78.1257 215 77.7357 215.624 77.7357C216.306 77.7357 216.647 78.2232 216.647 78.8375V78.857V78.9447L215.292 79.0812C214.327 79.1787 213.176 79.442 213.176 80.6607C213.176 81.6552 213.956 82.367 214.922 82.367ZM214.424 80.6607C214.424 79.9685 215.185 79.871 215.741 79.8027L216.647 79.7052V80.0172C216.647 80.885 216.228 81.5967 215.399 81.5967C214.863 81.5967 214.424 81.2555 214.424 80.6607ZM223.182 82.25H224.898V81.3432H223.387C222.899 81.3432 222.675 81.158 222.675 80.69V80.6705V77.8917H224.898V76.9947H222.675V75.7467H221.456V76.9947H219.584V77.8917H221.456V80.729V80.7485C221.456 81.743 222.158 82.25 223.182 82.25ZM226.82 82.25H232.076V81.3432H230.057V76.9947H227.123V77.8917H228.839V81.3432H226.82V82.25ZM228.634 76.127H230.057V74.84H228.634V76.127ZM236.114 82.367C237.703 82.367 238.688 81.2457 238.688 79.6175C238.688 77.999 237.703 76.8778 236.114 76.8778C234.525 76.8778 233.53 77.999 233.53 79.6175C233.53 81.2457 234.525 82.367 236.114 82.367ZM234.778 79.6175C234.778 78.4767 235.246 77.7357 236.114 77.7357C236.982 77.7357 237.44 78.4767 237.44 79.6175C237.44 80.768 236.982 81.509 236.114 81.509C235.246 81.509 234.778 80.768 234.778 79.6175ZM240.708 82.25H241.927V79.1982C241.927 78.194 242.327 77.7455 242.99 77.7455C243.653 77.7455 244.053 78.1842 244.053 79.1787V82.25H245.271V78.9447C245.271 77.7747 244.706 76.8778 243.526 76.8778C242.668 76.8778 242.151 77.414 241.917 78.0575V76.9947H240.708V82.25Z" fill="black"/>
<rect x="184.912" y="103.5" width="98.6616" height="63.1434" rx="3.14197" fill="#E9EAFF"/>
<path d="M246.699 138.572V145.095C245.14 145.625 243.582 145.964 241.944 146.142L241.975 146.103C243.947 143.565 244.979 142.237 245.333 139.056L246.699 138.572Z" fill="#F47466"/>
<path d="M226.919 146.163C224.477 146.163 222.15 145.324 222.15 145.324C222.048 143.913 221.983 141.427 221.987 138.572L223.151 139.056C223.34 141.789 224.988 144.306 226.919 146.163Z" fill="#F47466"/>
<path d="M219.88 151.275C219.88 151.275 225.775 149.55 228.389 149.531C231.161 154.152 238.863 152.304 240.404 150.245C243.017 150.55 247.9 152.725 247.881 152.744C244.505 155.7 239.832 157.207 234.625 157.207C228.502 157.207 222.474 153.793 219.88 151.275Z" fill="#F47466"/>
<path d="M223.151 133.819L222.227 133.511C218.53 122.42 233.318 109.789 239.479 120.263C244.409 120.571 246.565 129.814 246.565 133.098L245.641 133.819C244.866 129.423 244.044 125.179 239.171 123.96C238.555 124.577 235.262 128.298 232.702 127.658C226.54 126.117 224.384 125.809 223.151 133.819Z" fill="#F47466"/>
<path d="M228.774 147.681V150.301C230.47 151.689 232.493 152.497 234.706 152.457C236.804 152.419 238.826 151.656 240.352 150.301V147.383M228.774 149.481C225.245 149.481 221.943 150.363 218.588 151.331M240.371 149.5C243.857 149.5 247.109 150.375 250.423 151.331M239.322 119.802C242.984 121.023 244.892 123.35 245.063 126.802C246.262 127.964 246.818 130.872 246.589 133.459M239.322 119.802C239.608 120.756 239.742 121.595 239.742 122.282M239.322 119.802C232.091 109.788 217.919 123.96 222.54 133.818C220.528 133.56 220.022 135.264 220.82 136.816C221.316 137.789 221.945 138.533 222.937 139.01M246.589 133.459C247.333 133.364 248.058 133.955 248.268 134.661C248.811 136.335 247.264 138.328 245.845 139.01C245.71 133.585 245.954 125.256 239.093 124.113C237.674 125.615 236.336 127.027 234.21 127.47C231.893 127.946 230.17 126.592 227.973 126.592C222.878 126.592 223.156 134.253 223.147 137.903C223.029 143.618 228.597 148.914 234.382 148.914C242.853 148.914 246.069 141.541 245.635 134.489C245.54 133.974 246.17 133.516 246.589 133.459ZM231.673 142.462C233.466 142.996 235.393 142.996 237.205 142.462M234.382 135.099V139.544M222.174 138.571C222.098 140.936 222.174 143.358 222.136 145.457C223.662 146.029 225.016 146.086 226.79 146.162M246.818 138.361C246.761 140.555 246.761 142.901 246.704 145.094C245.178 145.686 243.842 145.895 242.03 146.162" stroke="black" stroke-linecap="round" stroke-linejoin="round"/>
<rect x="78" y="103.5" width="98.6616" height="63.1434" rx="3.14197" fill="#E9EAFF"/>
<rect x="105.336" y="121.364" width="44.779" height="27.4145" rx="2.64197" fill="white" stroke="black"/>
<rect x="128.068" y="129.574" width="17.4201" height="0.789293" rx="0.394646" fill="black"/>
<rect x="128.068" y="134.309" width="13.0651" height="0.789293" rx="0.394646" fill="black"/>
<rect x="128.068" y="139.044" width="15.2426" height="0.789293" rx="0.394646" fill="black"/>
<g clip-path="url(#clip0_213_9529)">
<path d="M110.844 140.274C109.918 141.188 109.918 143.366 111.004 143.366H123.344C124.07 143.366 124.046 141.714 123.707 141.188C123.368 140.662 120.762 140.222 119.66 140.076C119.001 140.663 118.139 140.995 117.239 141.009C116.456 141.021 114.699 140.7 114.699 139.719C113.409 139.719 112.042 139.743 110.844 140.274Z" fill="#F47466"/>
<path d="M119.249 129.126C119.858 129.22 121.411 130.336 121.806 131.125C121.726 129.342 121.348 127.838 119.4 127.267C116.281 123.232 110.756 127.573 112.311 134.018C112.729 129.547 114.307 129.941 115.886 130.336C117.465 130.731 118.603 129.748 119.249 129.126Z" fill="#F47466"/>
<path d="M110.291 140.521C111.743 140.098 113.172 139.719 114.7 139.719V140.202C116.125 141.394 118.25 141.459 119.661 140.202V139.719C121.19 139.719 122.618 140.098 124.07 140.521M122.09 135.043C122.803 134.87 123.116 133.493 122.201 133.493M122.09 135.043L122.201 133.493M122.09 135.043C122.14 137.609 119.638 139.807 117.071 139.807C114.572 139.807 112.224 137.513 112.271 135.043M122.201 133.493C121.69 131.656 121.425 129.424 119.172 129.082C118.65 129.941 117.86 130.708 116.676 130.335C114.579 129.676 113.019 129.955 112.335 133.887C111.853 131.162 112.07 129.185 113.09 127.764C114.62 125.633 118.205 124.834 119.172 127.178C121.83 128.064 122.201 131.068 122.201 133.493ZM112.271 135.043C112.271 135.043 112.537 132.628 111.749 133.598C111.316 134.131 111.646 134.887 112.271 135.043ZM115.957 137.011C116.734 137.243 117.567 137.243 118.345 137.011" stroke="black" stroke-width="0.785492" stroke-linecap="round" stroke-linejoin="round"/>
</g>
</g>
<rect x="249" y="37.5" width="81" height="34.5" rx="17.25" fill="#8DBAFE" stroke="#8DBAFE" stroke-width="0.75"/>
<path d="M266.25 54.75H272.25M276.75 54.75C276.75 58.8921 273.392 62.25 269.25 62.25C265.108 62.25 261.75 58.8921 261.75 54.75C261.75 50.6079 265.108 47.25 269.25 47.25C273.392 47.25 276.75 50.6079 276.75 54.75Z" stroke="black" stroke-width="1.5" stroke-linecap="round" stroke-linejoin="round"/>
<path opacity="0.8" d="M286.044 50.63V59.75H289.284C292.02 59.75 293.856 58.202 293.856 55.19C293.856 52.166 292.02 50.63 289.284 50.63H286.044ZM287.592 58.418V51.962H289.32C291.18 51.962 292.26 53.114 292.26 55.19C292.26 57.278 291.18 58.418 289.32 58.418H287.592ZM301.238 56.474C301.238 54.458 299.99 53.138 298.082 53.138C296.138 53.138 294.902 54.53 294.902 56.51C294.902 58.478 296.102 59.894 298.082 59.894C299.594 59.894 300.686 59.222 301.094 57.842H299.57C299.342 58.466 298.922 58.838 298.094 58.838C297.182 58.838 296.546 58.202 296.426 56.954H301.202C301.226 56.786 301.238 56.618 301.238 56.474ZM298.082 54.194C299.006 54.194 299.63 54.878 299.702 55.91H296.438C296.594 54.746 297.206 54.194 298.082 54.194ZM305.41 58.634C304.858 58.634 304.534 58.454 304.534 57.83V57.806V54.386H306.07V53.282H304.534V51.746H303.034V53.282H301.762V54.386H303.034V57.878V57.902C303.034 59.162 303.958 59.75 305.158 59.75H306.094V58.634H305.41ZM313.144 56.474C313.144 54.458 311.896 53.138 309.988 53.138C308.044 53.138 306.808 54.53 306.808 56.51C306.808 58.478 308.008 59.894 309.988 59.894C311.5 59.894 312.592 59.222 313 57.842H311.476C311.248 58.466 310.828 58.838 310 58.838C309.088 58.838 308.452 58.202 308.332 56.954H313.108C313.132 56.786 313.144 56.618 313.144 56.474ZM309.988 54.194C310.912 54.194 311.536 54.878 311.608 55.91H308.344C308.5 54.746 309.112 54.194 309.988 54.194ZM315.957 53.282H314.469V59.75H315.969V56.126C315.969 54.998 316.533 54.614 317.697 54.614H318.105V53.138C316.857 53.138 316.209 53.882 315.957 54.854V53.282Z" fill="black"/>
<defs>
<filter id="filter0_d_213_9529" x="70" y="61.75" width="224" height="121.25" filterUnits="userSpaceOnUse" color-interpolation-filters="sRGB">
<feFlood flood-opacity="0" result="BackgroundImageFix"/>
<feColorMatrix in="SourceAlpha" type="matrix" values="0 0 0 0 0 0 0 0 0 0 0 0 0 0 0 0 0 0 127 0" result="hardAlpha"/>
<feOffset dx="4" dy="4"/>
<feComposite in2="hardAlpha" operator="out"/>
<feColorMatrix type="matrix" values="0 0 0 0 0.654902 0 0 0 0 0.670588 0 0 0 0 0.996078 0 0 0 0.3 0"/>
<feBlend mode="normal" in2="BackgroundImageFix" result="effect1_dropShadow_213_9529"/>
<feBlend mode="normal" in="SourceGraphic" in2="effect1_dropShadow_213_9529" result="shape"/>
</filter>
<clipPath id="clip0_213_9529">
<rect width="14.5168" height="18.146" fill="white" transform="translate(109.916 125.219)"/>
</clipPath>
</defs>
</svg>
