<svg width="360" height="240" viewBox="0 0 360 240" fill="none" xmlns="http://www.w3.org/2000/svg">
<g filter="url(#filter0_d_213_9531)">
<rect x="96.75" y="54" width="166.5" height="133" rx="6" fill="white" shape-rendering="crispEdges"/>
<path d="M112.358 75.117C113.927 75.117 114.951 74.181 115.302 72.5235H114.044C113.781 73.5375 113.235 74.0932 112.358 74.0932C111.178 74.0932 110.495 73.0695 110.495 71.295C110.495 69.5205 111.178 68.4967 112.358 68.4967C113.235 68.4967 113.771 69.0427 114.025 70.0567H115.283C114.922 68.409 113.927 67.473 112.358 67.473C110.427 67.473 109.208 68.877 109.208 71.295C109.208 73.713 110.427 75.117 112.358 75.117ZM118.482 75.117C119.457 75.117 119.896 74.6587 120.218 73.9762V75H121.427V71.6655V71.646C121.427 70.6222 120.822 69.6278 119.184 69.6278C117.936 69.6278 117.03 70.281 116.913 71.3145H118.151C118.2 70.8757 118.56 70.4857 119.184 70.4857C119.867 70.4857 120.208 70.9732 120.208 71.5875V71.607V71.6947L118.853 71.8312C117.888 71.9287 116.737 72.192 116.737 73.4107C116.737 74.4052 117.517 75.117 118.482 75.117ZM117.985 73.4107C117.985 72.7185 118.746 72.621 119.301 72.5527L120.208 72.4552V72.7672C120.208 73.635 119.789 74.3467 118.96 74.3467C118.424 74.3467 117.985 74.0055 117.985 73.4107ZM126.216 75.117C127.523 75.117 128.498 74.5125 128.498 73.4692C128.498 72.621 128.02 72.1432 126.947 71.9092L126.128 71.7337C125.524 71.5972 125.222 71.4705 125.222 71.1097C125.222 70.71 125.68 70.4857 126.177 70.4857C126.616 70.4857 127.035 70.7002 127.172 71.0902H128.4C128.176 70.1152 127.25 69.6278 126.177 69.6278C125.007 69.6278 124.042 70.242 124.042 71.2072C124.042 72.0067 124.607 72.4455 125.543 72.6502L126.362 72.8355C127.006 72.972 127.318 73.1377 127.318 73.5862C127.318 73.9957 126.938 74.259 126.245 74.259C125.797 74.259 125.29 74.0835 125.163 73.44H123.925C124.091 74.5515 125.007 75.117 126.216 75.117ZM133.365 75.117C134.554 75.117 135.432 74.5807 135.753 73.4497H134.515C134.349 73.9567 134.008 74.259 133.365 74.259C132.643 74.259 132.165 73.752 132.078 72.7282H135.851C135.861 72.6015 135.87 72.4455 135.87 72.348C135.87 70.6417 134.808 69.6278 133.355 69.6278C131.814 69.6278 130.839 70.7587 130.839 72.3675C130.839 73.9665 131.785 75.117 133.365 75.117ZM132.087 71.88C132.204 70.944 132.663 70.4857 133.355 70.4857C134.086 70.4857 134.564 71.0415 134.622 71.88H132.087ZM144.825 75H150.08V74.0932H148.062V67.59H145.117V68.4967H146.843V74.0932H144.825V75ZM151.837 75H157.092V74.0932H155.074V69.7447H152.139V70.6417H153.855V74.0932H151.837V75ZM153.65 68.877H155.074V67.59H153.65V68.877ZM161.326 75.117C162.632 75.117 163.607 74.5125 163.607 73.4692C163.607 72.621 163.129 72.1432 162.057 71.9092L161.238 71.7337C160.633 71.5972 160.331 71.4705 160.331 71.1097C160.331 70.71 160.789 70.4857 161.287 70.4857C161.725 70.4857 162.145 70.7002 162.281 71.0902H163.51C163.285 70.1152 162.359 69.6278 161.287 69.6278C160.117 69.6278 159.151 70.242 159.151 71.2072C159.151 72.0067 159.717 72.4455 160.653 72.6502L161.472 72.8355C162.115 72.972 162.427 73.1377 162.427 73.5862C162.427 73.9957 162.047 74.259 161.355 74.259C160.906 74.259 160.399 74.0835 160.273 73.44H159.034C159.2 74.5515 160.117 75.117 161.326 75.117ZM169.069 75H170.785V74.0932H169.274C168.786 74.0932 168.562 73.908 168.562 73.44V73.4205V70.6417H170.785V69.7447H168.562V68.4967H167.343V69.7447H165.471V70.6417H167.343V73.479V73.4985C167.343 74.493 168.045 75 169.069 75Z" fill="black"/>
<rect x="108.75" y="91" width="15" height="15" fill="#878CFD"/>
<path d="M120 95.6875L114.844 100.844L112.5 98.5" stroke="white" stroke-width="1.40625" stroke-linecap="round" stroke-linejoin="round"/>
<rect x="131.25" y="92.5" width="120" height="12" rx="6" fill="#E9EAFF"/>
<rect x="108.75" y="118" width="15" height="15" fill="#878CFD"/>
<path d="M120 122.688L114.844 127.844L112.5 125.5" stroke="white" stroke-width="1.40625" stroke-linecap="round" stroke-linejoin="round"/>
<rect x="131.25" y="119.5" width="120" height="12" rx="6" fill="#E9EAFF"/>
<rect x="108.75" y="145" width="68.25" height="30" rx="6" fill="#E9EAFF"/>
<rect x="183" y="145" width="68.25" height="30" rx="6" fill="#E9EAFF"/>
<rect x="96.75" y="54" width="166.5" height="133" rx="6" stroke="#A7ABFE" shape-rendering="crispEdges"/>
</g>
<rect x="224.25" y="29.25" width="78" height="34.5" rx="17.25" fill="#F79E94"/>
<path d="M246.75 44.25L244.5 46.5M244.5 46.5L242.25 48.75M244.5 46.5L242.25 44.25M244.5 46.5L246.75 48.75M244.5 54C248.642 54 252 50.6422 252 46.5C252 42.3579 248.642 39 244.5 39C240.358 39 237 42.3579 237 46.5C237 50.6422 240.358 54 244.5 54Z" stroke="black" stroke-width="1.5" stroke-linecap="round" stroke-linejoin="round"/>
<path opacity="0.8" d="M260.544 42.38V51.5H263.784C266.52 51.5 268.356 49.952 268.356 46.94C268.356 43.916 266.52 42.38 263.784 42.38H260.544ZM262.092 50.168V43.712H263.82C265.68 43.712 266.76 44.864 266.76 46.94C266.76 49.028 265.68 50.168 263.82 50.168H262.092ZM275.738 48.224C275.738 46.208 274.49 44.888 272.582 44.888C270.638 44.888 269.402 46.28 269.402 48.26C269.402 50.228 270.602 51.644 272.582 51.644C274.094 51.644 275.186 50.972 275.594 49.592H274.07C273.842 50.216 273.422 50.588 272.594 50.588C271.682 50.588 271.046 49.952 270.926 48.704H275.702C275.726 48.536 275.738 48.368 275.738 48.224ZM272.582 45.944C273.506 45.944 274.13 46.628 274.202 47.66H270.938C271.094 46.496 271.706 45.944 272.582 45.944ZM280.603 44.888C279.487 44.888 278.851 45.56 278.551 46.352V45.032H277.063V51.5H278.563V47.744C278.563 46.508 279.091 45.956 279.931 45.956C280.783 45.956 281.299 46.496 281.299 47.72V47.744V51.5H282.799V47.456V47.432C282.799 45.992 282.091 44.888 280.603 44.888ZM287.04 50.588L285.072 45.032H283.56L285.636 50.804H286.968L286.02 53.852H287.568L290.34 45.032H288.768L287.04 50.588Z" fill="black"/>
<defs>
<filter id="filter0_d_213_9531" x="96.25" y="53.5" width="171.5" height="138" filterUnits="userSpaceOnUse" color-interpolation-filters="sRGB">
<feFlood flood-opacity="0" result="BackgroundImageFix"/>
<feColorMatrix in="SourceAlpha" type="matrix" values="0 0 0 0 0 0 0 0 0 0 0 0 0 0 0 0 0 0 127 0" result="hardAlpha"/>
<feOffset dx="4" dy="4"/>
<feComposite in2="hardAlpha" operator="out"/>
<feColorMatrix type="matrix" values="0 0 0 0 0.654902 0 0 0 0 0.670588 0 0 0 0 0.996078 0 0 0 0.3 0"/>
<feBlend mode="normal" in2="BackgroundImageFix" result="effect1_dropShadow_213_9531"/>
<feBlend mode="normal" in="SourceGraphic" in2="effect1_dropShadow_213_9531" result="shape"/>
</filter>
</defs>
</svg>
