<svg width="360" height="240" viewBox="0 0 360 240" fill="none" xmlns="http://www.w3.org/2000/svg">
<g filter="url(#filter0_d_213_9530)">
<rect x="96.75" y="67.5" width="166.5" height="106" rx="6" fill="white" shape-rendering="crispEdges"/>
<path d="M109.901 88.5H114.834V87.4177H111.149V85.2337H114.668V84.1515H111.149V82.1722H114.737V81.09H109.901V88.5ZM116.279 88.5H117.381V85.4287C117.381 84.5317 117.517 83.9955 118.034 83.9955C118.502 83.9955 118.697 84.5317 118.697 85.4287V88.5H119.799V85.4287C119.799 84.5317 119.935 83.9955 120.452 83.9955C120.92 83.9955 121.115 84.5317 121.115 85.4287V88.5H122.217V85.2337C122.217 84.1027 121.905 83.1278 120.988 83.1278C120.247 83.1278 119.867 83.6835 119.721 84.3075C119.604 83.664 119.214 83.1278 118.56 83.1278C117.936 83.1278 117.527 83.5763 117.371 84.171V83.2447H116.279V88.5ZM125.504 88.617C126.479 88.617 126.918 88.1587 127.24 87.4762V88.5H128.449V85.1655V85.146C128.449 84.1222 127.844 83.1278 126.206 83.1278C124.958 83.1278 124.052 83.781 123.935 84.8145H125.173C125.222 84.3757 125.582 83.9857 126.206 83.9857C126.889 83.9857 127.23 84.4732 127.23 85.0875V85.107V85.1947L125.875 85.3312C124.91 85.4287 123.759 85.692 123.759 86.9107C123.759 87.9052 124.539 88.617 125.504 88.617ZM125.007 86.9107C125.007 86.2185 125.768 86.121 126.323 86.0527L127.23 85.9552V86.2672C127.23 87.135 126.811 87.8467 125.982 87.8467C125.446 87.8467 125.007 87.5055 125.007 86.9107ZM130.771 88.5H136.026V87.5932H134.008V83.2447H131.073V84.1417H132.789V87.5932H130.771V88.5ZM132.585 82.377H134.008V81.09H132.585V82.377ZM137.803 88.5H143.058V87.5932H141.04V81.09H138.095V81.9967H139.821V87.5932H137.803V88.5ZM152.87 88.5H154.089V85.9845C154.089 84.9607 154.664 84.2685 156.351 84.2685H156.848V83.1278H156.556C154.986 83.1278 154.294 84.1222 154.079 84.8827V83.2447H152.87V88.5ZM158.859 88.5H164.114V87.5932H162.096V83.2447H159.161V84.1417H160.877V87.5932H158.859V88.5ZM160.672 82.377H162.096V81.09H160.672V82.377ZM168.347 88.617C169.654 88.617 170.629 88.0125 170.629 86.9692C170.629 86.121 170.151 85.6432 169.079 85.4092L168.26 85.2337C167.655 85.0972 167.353 84.9705 167.353 84.6097C167.353 84.21 167.811 83.9857 168.308 83.9857C168.747 83.9857 169.166 84.2002 169.303 84.5902H170.531C170.307 83.6152 169.381 83.1278 168.308 83.1278C167.138 83.1278 166.173 83.742 166.173 84.7072C166.173 85.5067 166.739 85.9455 167.675 86.1502L168.494 86.3355C169.137 86.472 169.449 86.6377 169.449 87.0862C169.449 87.4957 169.069 87.759 168.377 87.759C167.928 87.759 167.421 87.5835 167.294 86.94H166.056C166.222 88.0515 167.138 88.617 168.347 88.617ZM176.929 88.5H178.411L175.925 85.575L178.304 83.2447H176.832L174.57 85.458V81.09H173.351V88.5H174.57V85.7115L176.929 88.5ZM187.98 88.5H189.199V85.9845C189.199 84.9607 189.774 84.2685 191.461 84.2685H191.958V83.1278H191.665C190.096 83.1278 189.403 84.1222 189.189 84.8827V83.2447H187.98V88.5ZM196.562 88.617C197.751 88.617 198.629 88.0807 198.951 86.9497H197.712C197.547 87.4567 197.205 87.759 196.562 87.759C195.84 87.759 195.363 87.252 195.275 86.2282H199.048C199.058 86.1015 199.068 85.9455 199.068 85.848C199.068 84.1417 198.005 83.1278 196.552 83.1278C195.012 83.1278 194.037 84.2587 194.037 85.8675C194.037 87.4665 194.982 88.617 196.562 88.617ZM195.285 85.38C195.402 84.444 195.86 83.9857 196.552 83.9857C197.283 83.9857 197.761 84.5415 197.82 85.38H195.285ZM201.146 90.411H202.365V87.4177C202.658 88.1197 203.34 88.617 204.091 88.617C205.339 88.617 206.226 87.4665 206.226 85.8675C206.226 84.2685 205.329 83.1278 204.091 83.1278C203.204 83.1278 202.599 83.7517 202.365 84.4537V83.2447H201.146V90.411ZM202.316 85.8675C202.316 84.7267 202.784 83.9857 203.652 83.9857C204.52 83.9857 204.988 84.7267 204.988 85.8675C204.988 87.018 204.52 87.759 203.652 87.759C202.784 87.759 202.316 87.018 202.316 85.8675ZM210.479 88.617C212.068 88.617 213.053 87.4957 213.053 85.8675C213.053 84.249 212.068 83.1278 210.479 83.1278C208.89 83.1278 207.895 84.249 207.895 85.8675C207.895 87.4957 208.89 88.617 210.479 88.617ZM209.143 85.8675C209.143 84.7267 209.611 83.9857 210.479 83.9857C211.347 83.9857 211.805 84.7267 211.805 85.8675C211.805 87.018 211.347 87.759 210.479 87.759C209.611 87.759 209.143 87.018 209.143 85.8675ZM216.068 88.5H217.286V85.9845C217.286 84.9607 217.862 84.2685 219.548 84.2685H220.046V83.1278H219.753C218.183 83.1278 217.491 84.1222 217.277 84.8827V83.2447H216.068V88.5ZM225.244 88.5H226.96V87.5932H225.449C224.961 87.5932 224.737 87.408 224.737 86.94V86.9205V84.1417H226.96V83.2447H224.737V81.9967H223.518V83.2447H221.646V84.1417H223.518V86.979V86.9985C223.518 87.993 224.22 88.5 225.244 88.5Z" fill="black"/>
<rect x="108.75" y="104.5" width="120" height="12" rx="6" fill="#E9EAFF"/>
<rect x="108.75" y="124" width="90" height="12" rx="6" fill="#E9EAFF"/>
<g clip-path="url(#clip0_213_9530)">
<path d="M118.5 150C118.5 149.586 118.164 149.25 117.75 149.25C117.336 149.25 117 149.586 117 150H118.5ZM117 152.5C117 152.914 117.336 153.25 117.75 153.25C118.164 153.25 118.5 152.914 118.5 152.5H117ZM117.75 154.25C117.336 154.25 117 154.586 117 155C117 155.414 117.336 155.75 117.75 155.75V154.25ZM117.756 155.75C118.17 155.75 118.506 155.414 118.506 155C118.506 154.586 118.17 154.25 117.756 154.25V155.75ZM123.25 152.5C123.25 155.538 120.788 158 117.75 158V159.5C121.616 159.5 124.75 156.366 124.75 152.5H123.25ZM117.75 158C114.712 158 112.25 155.538 112.25 152.5H110.75C110.75 156.366 113.884 159.5 117.75 159.5V158ZM112.25 152.5C112.25 149.462 114.712 147 117.75 147V145.5C113.884 145.5 110.75 148.634 110.75 152.5H112.25ZM117.75 147C120.788 147 123.25 149.462 123.25 152.5H124.75C124.75 148.634 121.616 145.5 117.75 145.5V147ZM117 150V152.5H118.5V150H117ZM117.75 155.75H117.756V154.25H117.75V155.75Z" fill="#F47466"/>
</g>
<rect x="132.75" y="146.5" width="90" height="12" rx="6" fill="#E9EAFF"/>
<rect x="96.75" y="67.5" width="166.5" height="106" rx="6" stroke="#A7ABFE" shape-rendering="crispEdges"/>
</g>
<rect x="219.75" y="42.75" width="87" height="34.5" rx="17.25" fill="#FDAB2B"/>
<g clip-path="url(#clip1_213_9530)">
<path d="M240 57V60M240.375 62.625C240.375 62.8321 240.207 63 240 63C239.793 63 239.625 62.8321 239.625 62.625M240.375 62.625C240.375 62.4179 240.207 62.25 240 62.25C239.793 62.25 239.625 62.4179 239.625 62.625M240.375 62.625H239.625M247.5 60C247.5 64.1421 244.142 67.5 240 67.5C235.858 67.5 232.5 64.1421 232.5 60C232.5 55.8579 235.858 52.5 240 52.5C244.142 52.5 247.5 55.8579 247.5 60Z" stroke="black" stroke-width="1.5" stroke-linecap="round" stroke-linejoin="round"/>
</g>
<path opacity="0.8" d="M256.044 55.88V65H259.284C262.02 65 263.856 63.452 263.856 60.44C263.856 57.416 262.02 55.88 259.284 55.88H256.044ZM257.592 63.668V57.212H259.32C261.18 57.212 262.26 58.364 262.26 60.44C262.26 62.528 261.18 63.668 259.32 63.668H257.592ZM271.238 61.724C271.238 59.708 269.99 58.388 268.082 58.388C266.138 58.388 264.902 59.78 264.902 61.76C264.902 63.728 266.102 65.144 268.082 65.144C269.594 65.144 270.686 64.472 271.094 63.092H269.57C269.342 63.716 268.922 64.088 268.094 64.088C267.182 64.088 266.546 63.452 266.426 62.204H271.202C271.226 62.036 271.238 61.868 271.238 61.724ZM268.082 59.444C269.006 59.444 269.63 60.128 269.702 61.16H266.438C266.594 59.996 267.206 59.444 268.082 59.444ZM275.41 63.884C274.858 63.884 274.534 63.704 274.534 63.08V63.056V59.636H276.07V58.532H274.534V56.996H273.034V58.532H271.762V59.636H273.034V63.128V63.152C273.034 64.412 273.958 65 275.158 65H276.094V63.884H275.41ZM283.144 61.724C283.144 59.708 281.896 58.388 279.988 58.388C278.044 58.388 276.808 59.78 276.808 61.76C276.808 63.728 278.008 65.144 279.988 65.144C281.5 65.144 282.592 64.472 283 63.092H281.476C281.248 63.716 280.828 64.088 280 64.088C279.088 64.088 278.452 63.452 278.332 62.204H283.108C283.132 62.036 283.144 61.868 283.144 61.724ZM279.988 59.444C280.912 59.444 281.536 60.128 281.608 61.16H278.344C278.5 59.996 279.112 59.444 279.988 59.444ZM287.337 65.144C288.885 65.144 290.121 64.304 290.445 62.768H288.933C288.693 63.608 288.189 64.088 287.337 64.088C286.257 64.088 285.621 63.2 285.621 61.76C285.621 60.344 286.245 59.444 287.337 59.444C288.201 59.444 288.693 60.044 288.861 60.788H290.385C290.109 59.348 288.993 58.388 287.337 58.388C285.393 58.388 284.097 59.744 284.097 61.76C284.097 63.776 285.381 65.144 287.337 65.144ZM294.511 63.884C293.959 63.884 293.635 63.704 293.635 63.08V63.056V59.636H295.171V58.532H293.635V56.996H292.135V58.532H290.863V59.636H292.135V63.128V63.152C292.135 64.412 293.059 65 294.259 65H295.195V63.884H294.511Z" fill="black"/>
<defs>
<filter id="filter0_d_213_9530" x="96.25" y="67" width="171.5" height="111" filterUnits="userSpaceOnUse" color-interpolation-filters="sRGB">
<feFlood flood-opacity="0" result="BackgroundImageFix"/>
<feColorMatrix in="SourceAlpha" type="matrix" values="0 0 0 0 0 0 0 0 0 0 0 0 0 0 0 0 0 0 127 0" result="hardAlpha"/>
<feOffset dx="4" dy="4"/>
<feComposite in2="hardAlpha" operator="out"/>
<feColorMatrix type="matrix" values="0 0 0 0 0.654902 0 0 0 0 0.670588 0 0 0 0 0.996078 0 0 0 0.3 0"/>
<feBlend mode="normal" in2="BackgroundImageFix" result="effect1_dropShadow_213_9530"/>
<feBlend mode="normal" in="SourceGraphic" in2="effect1_dropShadow_213_9530" result="shape"/>
</filter>
<clipPath id="clip0_213_9530">
<rect width="15" height="15" fill="white" transform="translate(110.25 145)"/>
</clipPath>
<clipPath id="clip1_213_9530">
<rect width="18" height="18" fill="white" transform="translate(231 51)"/>
</clipPath>
</defs>
</svg>
