<svg width="24" height="24" viewBox="0 0 24 24" fill="none" xmlns="http://www.w3.org/2000/svg">
<path d="M13 8.25C12.5858 8.25 12.25 8.58579 12.25 9C12.25 9.41421 12.5858 9.75 13 9.75V8.25ZM18 9.75C18.4142 9.75 18.75 9.41421 18.75 9C18.75 8.58579 18.4142 8.25 18 8.25V9.75ZM13 11.25C12.5858 11.25 12.25 11.5858 12.25 12C12.25 12.4142 12.5858 12.75 13 12.75V11.25ZM18 12.75C18.4142 12.75 18.75 12.4142 18.75 12C18.75 11.5858 18.4142 11.25 18 11.25V12.75ZM13 14.25C12.5858 14.25 12.25 14.5858 12.25 15C12.25 15.4142 12.5858 15.75 13 15.75V14.25ZM15 15.75C15.4142 15.75 15.75 15.4142 15.75 15C15.75 14.5858 15.4142 14.25 15 14.25V15.75ZM3.81818 5.75H20.1818V4.25H3.81818V5.75ZM20.1818 5.75C20.799 5.75 21.25 6.22448 21.25 6.75H22.75C22.75 5.34253 21.5729 4.25 20.1818 4.25V5.75ZM21.25 6.75V17.25H22.75V6.75H21.25ZM21.25 17.25C21.25 17.7755 20.799 18.25 20.1818 18.25V19.75C21.5729 19.75 22.75 18.6575 22.75 17.25H21.25ZM20.1818 18.25H3.81818V19.75H20.1818V18.25ZM3.81818 18.25C3.20096 18.25 2.75 17.7755 2.75 17.25H1.25C1.25 18.6575 2.42709 19.75 3.81818 19.75V18.25ZM2.75 17.25V6.75H1.25V17.25H2.75ZM2.75 6.75C2.75 6.22448 3.20096 5.75 3.81818 5.75V4.25C2.42709 4.25 1.25 5.34253 1.25 6.75H2.75ZM8.75 12C8.75 12.6904 8.19036 13.25 7.5 13.25V14.75C9.01878 14.75 10.25 13.5188 10.25 12H8.75ZM7.5 13.25C6.80964 13.25 6.25 12.6904 6.25 12H4.75C4.75 13.5188 5.98122 14.75 7.5 14.75V13.25ZM6.25 12C6.25 11.3096 6.80964 10.75 7.5 10.75V9.25C5.98122 9.25 4.75 10.4812 4.75 12H6.25ZM7.5 10.75C8.19036 10.75 8.75 11.3096 8.75 12H10.25C10.25 10.4812 9.01878 9.25 7.5 9.25V10.75ZM13 9.75H18V8.25H13V9.75ZM13 12.75H18V11.25H13V12.75ZM13 15.75H15V14.25H13V15.75Z" fill="#0E0E11"/>
</svg>
