<svg width="24" height="24" viewBox="0 0 24 24" fill="none" xmlns="http://www.w3.org/2000/svg">
<path d="M14 2L14.5303 1.46967C14.3897 1.32902 14.1989 1.25 14 1.25V2ZM6 2V1.25V2ZM4 4H3.25H4ZM4 20H3.25H4ZM20 8H20.75C20.75 7.80109 20.671 7.61032 20.5303 7.46967L20 8ZM14 8H13.25C13.25 8.41421 13.5858 8.75 14 8.75V8ZM16 13.75C16.4142 13.75 16.75 13.4142 16.75 13C16.75 12.5858 16.4142 12.25 16 12.25V13.75ZM8 12.25C7.58579 12.25 7.25 12.5858 7.25 13C7.25 13.4142 7.58579 13.75 8 13.75V12.25ZM16 17.75C16.4142 17.75 16.75 17.4142 16.75 17C16.75 16.5858 16.4142 16.25 16 16.25V17.75ZM8 16.25C7.58579 16.25 7.25 16.5858 7.25 17C7.25 17.4142 7.58579 17.75 8 17.75V16.25ZM10 9.75C10.4142 9.75 10.75 9.41421 10.75 9C10.75 8.58579 10.4142 8.25 10 8.25V9.75ZM8 8.25C7.58579 8.25 7.25 8.58579 7.25 9C7.25 9.41421 7.58579 9.75 8 9.75V8.25ZM14 1.25H6V2.75H14V1.25ZM6 1.25C5.27065 1.25 4.57118 1.53973 4.05546 2.05546L5.11612 3.11612C5.35054 2.8817 5.66848 2.75 6 2.75V1.25ZM4.05546 2.05546C3.53973 2.57118 3.25 3.27065 3.25 4H4.75C4.75 3.66848 4.8817 3.35054 5.11612 3.11612L4.05546 2.05546ZM3.25 4V20H4.75V4H3.25ZM3.25 20C3.25 20.7293 3.53973 21.4288 4.05546 21.9445L5.11612 20.8839C4.8817 20.6495 4.75 20.3315 4.75 20H3.25ZM4.05546 21.9445C4.57118 22.4603 5.27065 22.75 6 22.75V21.25C5.66848 21.25 5.35054 21.1183 5.11612 20.8839L4.05546 21.9445ZM6 22.75H18V21.25H6V22.75ZM18 22.75C18.7293 22.75 19.4288 22.4603 19.9445 21.9445L18.8839 20.8839C18.6495 21.1183 18.3315 21.25 18 21.25V22.75ZM19.9445 21.9445C20.4603 21.4288 20.75 20.7293 20.75 20H19.25C19.25 20.3315 19.1183 20.6495 18.8839 20.8839L19.9445 21.9445ZM20.75 20V8H19.25V20H20.75ZM20.5303 7.46967L14.5303 1.46967L13.4697 2.53033L19.4697 8.53033L20.5303 7.46967ZM13.25 2V8H14.75V2H13.25ZM14 8.75H20V7.25H14V8.75ZM16 12.25H8V13.75H16V12.25ZM16 16.25H8V17.75H16V16.25ZM10 8.25H8V9.75H10V8.25Z" fill="#0E0E11"/>
</svg>
