<svg width="25" height="24" viewBox="0 0 25 24" fill="none" xmlns="http://www.w3.org/2000/svg">
<path d="M15.8329 12.75C16.2471 12.75 16.5829 12.4142 16.5829 12C16.5829 11.5858 16.2471 11.25 15.8329 11.25V12.75ZM12.3329 6H13.0829C13.0829 5.58579 12.7471 5.25 12.3329 5.25V6ZM12.3329 18V18.75C12.7471 18.75 13.0829 18.4142 13.0829 18H12.3329ZM8.83293 5.25C8.41871 5.25 8.08293 5.58579 8.08293 6C8.08293 6.41421 8.41871 6.75 8.83293 6.75V5.25ZM8.83293 17.25C8.41871 17.25 8.08293 17.5858 8.08293 18C8.08293 18.4142 8.41871 18.75 8.83293 18.75V17.25ZM16.833 9V8.25C16.4188 8.25 16.083 8.58579 16.083 9H16.833ZM21.833 9H22.583C22.583 8.58579 22.2472 8.25 21.833 8.25V9ZM21.833 15V15.75C22.2472 15.75 22.583 15.4142 22.583 15H21.833ZM16.833 15H16.083C16.083 15.4142 16.4188 15.75 16.833 15.75V15ZM3.33301 15V14.25C2.91879 14.25 2.58301 14.5858 2.58301 15H3.33301ZM8.33301 15H9.08301C9.08301 14.5858 8.74722 14.25 8.33301 14.25V15ZM8.33301 21V21.75C8.74722 21.75 9.08301 21.4142 9.08301 21H8.33301ZM3.33301 21H2.58301C2.58301 21.4142 2.91879 21.75 3.33301 21.75V21ZM3.33301 3V2.25C2.91879 2.25 2.58301 2.58579 2.58301 3H3.33301ZM8.33301 3H9.08301C9.08301 2.58579 8.74722 2.25 8.33301 2.25V3ZM8.33301 9V9.75C8.74722 9.75 9.08301 9.41421 9.08301 9H8.33301ZM3.33301 9H2.58301C2.58301 9.41421 2.91879 9.75 3.33301 9.75V9ZM15.8329 11.25H12.3329V12.75H15.8329V11.25ZM13.0829 12V6H11.5829V12H13.0829ZM11.5829 12V18H13.0829V12H11.5829ZM12.3329 5.25H8.83293V6.75H12.3329V5.25ZM12.3329 17.25H8.83293V18.75H12.3329V17.25ZM16.833 9.75H21.833V8.25H16.833V9.75ZM21.083 9V15H22.583V9H21.083ZM21.833 14.25H16.833V15.75H21.833V14.25ZM17.583 15V9H16.083V15H17.583ZM3.33301 15.75H8.33301V14.25H3.33301V15.75ZM7.58301 15V21H9.08301V15H7.58301ZM8.33301 20.25H3.33301V21.75H8.33301V20.25ZM4.08301 21V15H2.58301V21H4.08301ZM3.33301 3.75H8.33301V2.25H3.33301V3.75ZM8.33301 8.25H3.33301V9.75H8.33301V8.25ZM4.08301 9V3H2.58301V9H4.08301ZM7.58301 3V9H9.08301V3H7.58301Z" fill="black"/>
</svg>
