<svg width="24" height="24" viewBox="0 0 24 24" fill="none" xmlns="http://www.w3.org/2000/svg">
<path d="M21.6667 11.4998C21.6667 11.1316 21.3682 10.8331 21 10.8331C20.6318 10.8331 20.3333 11.1316 20.3333 11.4998H21.6667ZM3.66667 11.4998C3.66667 11.1316 3.36819 10.8331 3 10.8331C2.63181 10.8331 2.33333 11.1316 2.33333 11.4998H3.66667ZM20.3333 4.5C20.3333 4.62239 20.2595 4.84509 19.8801 5.14413C19.5082 5.43724 18.9287 5.73036 18.1531 5.98886C16.6091 6.50355 14.4336 6.83333 12 6.83333V8.16667C14.537 8.16667 16.8615 7.82487 18.5748 7.25378C19.4279 6.96939 20.1665 6.61606 20.7054 6.19134C21.2368 5.77255 21.6667 5.20603 21.6667 4.5H20.3333ZM12 6.83333C9.56643 6.83333 7.39092 6.50355 5.84686 5.98886C5.07134 5.73036 4.49184 5.43724 4.11991 5.14413C3.74047 4.84509 3.66667 4.62239 3.66667 4.5H2.33333C2.33333 5.20603 2.76321 5.77255 3.29462 6.19134C3.83354 6.61606 4.57206 6.96939 5.42522 7.25378C7.13851 7.82487 9.463 8.16667 12 8.16667V6.83333ZM3.66667 4.5C3.66667 4.37761 3.74047 4.15491 4.11991 3.85587C4.49184 3.56276 5.07134 3.26964 5.84686 3.01114C7.39092 2.49645 9.56643 2.16667 12 2.16667V0.833333C9.463 0.833333 7.13851 1.17513 5.42522 1.74622C4.57206 2.03061 3.83354 2.38394 3.29462 2.80866C2.76321 3.22745 2.33333 3.79396 2.33333 4.5H3.66667ZM12 2.16667C14.4336 2.16667 16.6091 2.49645 18.1531 3.01114C18.9287 3.26964 19.5082 3.56276 19.8801 3.85587C20.2595 4.15491 20.3333 4.37761 20.3333 4.5H21.6667C21.6667 3.79396 21.2368 3.22745 20.7054 2.80866C20.1665 2.38394 19.4279 2.03061 18.5748 1.74622C16.8615 1.17513 14.537 0.833333 12 0.833333V2.16667ZM20.3333 11.4998C20.3333 11.6252 20.2588 11.8484 19.8828 12.1463C19.5135 12.439 18.9372 12.7317 18.1639 12.9899C16.6241 13.504 14.4488 13.8331 12 13.8331V15.1664C14.5512 15.1664 16.8759 14.8255 18.5861 14.2546C19.4378 13.9703 20.174 13.6168 20.7109 13.1913C21.2412 12.7711 21.6667 12.2043 21.6667 11.4998H20.3333ZM12 13.8331C9.55118 13.8331 7.37594 13.504 5.83611 12.9899C5.06275 12.7317 4.48648 12.439 4.11717 12.1463C3.7412 11.8484 3.66667 11.6252 3.66667 11.4998H2.33333C2.33333 12.2043 2.7588 12.7711 3.28908 13.1913C3.82602 13.6168 4.56225 13.9703 5.41389 14.2546C7.12406 14.8255 9.44882 15.1664 12 15.1664V13.8331ZM2.33333 4.5V18.5H3.66667V4.5H2.33333ZM2.33333 18.5C2.33333 19.2046 2.7588 19.7714 3.28908 20.1916C3.82602 20.617 4.56225 20.9705 5.41389 21.2549C7.12406 21.8258 9.44882 22.1667 12 22.1667V20.8333C9.55118 20.8333 7.37594 20.5042 5.83611 19.9901C5.06275 19.732 4.48648 19.4392 4.11717 19.1466C3.7412 18.8486 3.66667 18.6254 3.66667 18.5H2.33333ZM12 22.1667C14.5512 22.1667 16.8759 21.8258 18.5861 21.2549C19.4378 20.9705 20.174 20.617 20.7109 20.1916C21.2412 19.7714 21.6667 19.2046 21.6667 18.5H20.3333C20.3333 18.6254 20.2588 18.8486 19.8828 19.1466C19.5135 19.4392 18.9372 19.732 18.1639 19.9901C16.6241 20.5042 14.4488 20.8333 12 20.8333V22.1667ZM21.6667 18.5V4.5H20.3333V18.5H21.6667Z" fill="black"/>
</svg>
