<svg width="25" height="24" viewBox="0 0 25 24" fill="none" xmlns="http://www.w3.org/2000/svg">
<path d="M20.6689 21.5303C20.9618 21.8232 21.4367 21.8232 21.7295 21.5303C22.0224 21.2374 22.0224 20.7626 21.7295 20.4697L20.6689 21.5303ZM17.3795 16.1197C17.0867 15.8268 16.6118 15.8268 16.3189 16.1197C16.026 16.4126 16.026 16.8874 16.3189 17.1803L17.3795 16.1197ZM18.4492 11C18.4492 15.0041 15.2033 18.25 11.1992 18.25V19.75C16.0317 19.75 19.9492 15.8325 19.9492 11H18.4492ZM11.1992 18.25C7.19515 18.25 3.94922 15.0041 3.94922 11H2.44922C2.44922 15.8325 6.36673 19.75 11.1992 19.75V18.25ZM3.94922 11C3.94922 6.99594 7.19515 3.75 11.1992 3.75V2.25C6.36673 2.25 2.44922 6.16751 2.44922 11H3.94922ZM11.1992 3.75C15.2033 3.75 18.4492 6.99594 18.4492 11H19.9492C19.9492 6.16751 16.0317 2.25 11.1992 2.25V3.75ZM21.7295 20.4697L17.3795 16.1197L16.3189 17.1803L20.6689 21.5303L21.7295 20.4697Z" fill="#0E0E11"/>
</svg>
