<svg width="25" height="24" viewBox="0 0 25 24" fill="none" xmlns="http://www.w3.org/2000/svg">
<path d="M12.9987 6C12.9987 5.63181 12.7002 5.33333 12.332 5.33333C11.9638 5.33333 11.6654 5.63181 11.6654 6H12.9987ZM12.332 12H11.6654C11.6654 12.2525 11.808 12.4834 12.0339 12.5963L12.332 12ZM16.0339 14.5963C16.3632 14.7609 16.7637 14.6275 16.9283 14.2981C17.093 13.9688 16.9595 13.5684 16.6302 13.4037L16.0339 14.5963ZM21.6654 12C21.6654 17.1547 17.4867 21.3333 12.332 21.3333V22.6667C18.2231 22.6667 22.9987 17.891 22.9987 12H21.6654ZM12.332 21.3333C7.17737 21.3333 2.9987 17.1547 2.9987 12H1.66536C1.66536 17.891 6.44099 22.6667 12.332 22.6667V21.3333ZM2.9987 12C2.9987 6.84534 7.17737 2.66667 12.332 2.66667V1.33333C6.44099 1.33333 1.66536 6.10896 1.66536 12H2.9987ZM12.332 2.66667C17.4867 2.66667 21.6654 6.84534 21.6654 12H22.9987C22.9987 6.10896 18.2231 1.33333 12.332 1.33333V2.66667ZM11.6654 6V12H12.9987V6H11.6654ZM12.0339 12.5963L16.0339 14.5963L16.6302 13.4037L12.6302 11.4037L12.0339 12.5963Z" fill="black"/>
</svg>
