<svg fill="none" height="65" viewBox="0 0 140 65" width="140" xmlns="http://www.w3.org/2000/svg"><g fill="#fff"><path d="m94.4427 21.7196c-2.4764 0-4.3859.8832-6.1577 2.7264v-2.2969h-4.8633v22.6013h5.2328v-13.1083c0-3.0009 1.7855-4.8992 4.4949-4.8992.4923 0 .9238.0608 1.2313.1217l3.632-4.7775c-1.4161-.2446-2.6474-.3675-3.5712-.3675zm45.1273.4295h-6.034l-5.571 7.3718-5.572-7.3729h-6.033l8.512 11.389-8.512 11.2134h6.156l5.418-7.1502 5.417 7.1502h6.219l-8.57-11.195zm-63.2287 7.1663c2.2791-1.2863 3.8787-3.5533 3.8787-6.5542 0-4.41-3.3852-8.6362-8.3105-8.6362h-14.7757v30.6254h14.7757c5.3556 0 9.0495-3.7979 9.0495-8.5754 0-2.8171-1.2921-5.2679-4.6177-6.8596zm-13.9747-10.4129h9.1115c2.2778 0 3.6319 2.1441 3.6319 4.0425 0 2.3279-2.0311 3.9196-3.9395 3.9196h-8.8039zm8.8039 21.0704h-8.8039v-8.3308h9.1115c2.3398 0 4.2482 2.0213 4.2482 4.1045 0 2.3268-2.4007 4.2263-4.5558 4.2263z"/><path d="m111.127 38.2571c-.862 1.3483-2.525 2.1441-4.372 2.1441-2.892 0-5.294-1.9603-5.294-4.9612h15.637c.247-.9188.308-1.3471.308-2.1441 0-6.8597-4.248-11.5763-10.65-11.5763-6.281 0-10.7126 4.472-10.7126 11.76 0 7.1054 4.2466 11.6991 10.8356 11.6991 4.617 0 8.681-2.2658 9.85-6.9216zm-4.372-11.76c2.894 0 5.111 1.8375 5.049 4.5938h-10.282c0-2.6943 2.341-4.5938 5.233-4.5938z"/><path clip-rule="evenodd" d="m29.2514 17.6353c-1.4434 1.9469-1.9382 2.6143-3.5166 2.6143h-25.7348v30.6254h10.0972c2.2779 0 4.4938-1.1025 5.9099-2.94.2613-.3466.4906-.6588.6968-.9395 1.251-1.7034 1.6489-2.2451 3.1818-2.2451h25.7968v-30.6254h-10.1592c-2.2779 0-4.4938 1.1025-5.849 2.94h.0011c-.1504.2012-.2912.3912-.424.5703zm8.427 19.2136h-10.7743c-2.3398 0-4.4938.9796-5.9098 2.878-.1738.2306-.3346.446-.4846.647-1.4445 1.9356-1.8946 2.5388-3.4561 2.5388h-9.11146v-14.7h10.77426c2.3387 0 4.4938-1.1025 5.9098-2.94.08-.1034.1574-.2036.2324-.3008 1.66-2.1502 2.1794-2.823 3.7691-2.823h9.0507z" fill-rule="evenodd"/></g></svg>