<svg fill="none" height="65" viewBox="0 0 128 65" width="128" xmlns="http://www.w3.org/2000/svg"><path d="m128 33.5967v12.2573h-5.899v-11.236c.032-.8687-.236-1.7219-.757-2.4164-.505-.6423-1.301-.9635-2.388-.9635-.983 0-1.759.3212-2.329.9635s-.854 1.4613-.853 2.4569v11.1955h-5.901v-19.5257h5.707v2.2391c.256-.4665.598-.8798 1.009-1.2179.411-.3364.863-.6199 1.344-.844.485-.2252.993-.3964 1.515-.5106.504-.115 1.019-.1744 1.537-.1773 1.077-.0256 2.147.1821 3.137.6089.847.3829 1.597.9542 2.191 1.6707.592.7271 1.028 1.5696 1.279 2.4742.278.9841.415 2.0026.408 3.0253zm-20.062-1.6899c.543 1.3207.813 2.7378.796 4.166.016 1.4338-.254 2.8563-.796 4.1834-.501 1.2253-1.24 2.3387-2.173 3.2758-.927.9233-2.029 1.6511-3.241 2.1409-2.5936 1.0216-5.4765 1.0216-8.07 0-1.2111-.4904-2.3124-1.2182-3.2395-2.1409-.9342-.9366-1.6735-2.0501-2.175-3.2758-.5413-1.3271-.8118-2.7496-.7955-4.1834-.0174-1.4282.2531-2.8453.7955-4.166.5051-1.2192 1.2441-2.327 2.175-3.2604.9271-.9227 2.0284-1.6505 3.2395-2.1409 2.5935-1.0216 5.4764-1.0216 8.07 0 1.212.4898 2.314 1.2177 3.241 2.1409.93.9341 1.668 2.0417 2.173 3.2604zm-4.941 4.166c.014-.7313-.111-1.4586-.369-2.1427-.212-.5659-.539-1.0812-.961-1.5127-.394-.3863-.863-.6868-1.378-.8825-.5209-.1974-1.0738-.2973-1.631-.2948-.5557-.0009-1.1071.099-1.6274.2948-.5224.1921-.9985.4929-1.3968.8825-.4219.4315-.7492.9468-.9607 1.5127-.2581.6841-.3833 1.4114-.369 2.1427-.0142.7307.111 1.4574.369 2.1409.2147.57.5414 1.0909.9607 1.5319.3937.4005.8707.709 1.3968.9037.5149.1938 1.0602.2937 1.6101.2949.5572.0024 1.1101-.0975 1.6313-.2949.519-.1984.989-.5066 1.378-.9037.416-.4361.742-.9501.96-1.5127.267-.6881.399-1.4217.387-2.1601zm-85.2202-1.1407-10.3237-16.9321h-7.4531v27.854h6.09468v-18.306l11.33622 18.306h6.4828v-27.854h-6.1369zm24.494-6.5613c1.7215 1.7561 2.5817 4.2181 2.5804 7.386 0 .4201-.0115.819-.0384 1.1986-.0036.2185-.0293.4361-.0769.6494h-13.4306c.0206.5285.1598 1.0456.4074 1.5126.2428.4556.5686.8615.9607 1.1966.4074.3444.8743.6109 1.3776.7862.5242.1844 1.0759.2775 1.6313.2756 1.0856 0 1.9348-.2351 2.542-.7072.6138-.4749 1.0803-1.1152 1.345-1.846l4.9284 1.4144c-.2338.8487-.5961 1.6565-1.0741 2.3952-.4981.7678-1.1293 1.44-1.8638 1.9847-.7944.5855-1.679 1.0366-2.6188 1.3354-1.0738.3391-2.1945.505-3.3202.4914-1.3003.0037-2.5899-.2362-3.8024-.7072-1.1983-.4604-2.2935-1.1546-3.2222-2.0426-.9538-.9219-1.7068-2.0321-2.2116-3.2604-.5699-1.3958-.8523-2.8929-.83-4.4011-.0214-1.46.2497-2.9095.7974-4.2624.491-1.2113 1.2165-2.3129 2.1346-3.2412.8828-.8849 1.9315-1.5856 3.0858-2.0618 1.1425-.4812 2.3693-.7288 3.6084-.7284 3.0051 0 5.3684.8774 7.09 2.6322zm-3.449 5.3839c-.0302-.3902-.1149-.7742-.2517-1.1407-.1462-.3987-.3777-.7604-.6782-1.0599-.3442-.3358-.7492-.6027-1.1932-.7861-.5608-.2252-1.1619-.3321-1.7658-.3141-.5592-.0126-1.1146.0945-1.6293.3141-.4374.1905-.838.4566-1.1836.7861-.3149.2996-.5659.6602-.7378 1.0599-.1604.3611-.2592.7467-.2921 1.1407zm45.2048-13.1225h-4.6729c-.1885 1.0169-.4623 2.0161-.8185 2.9868-.3055.7754-.8308 1.4441-1.5109 1.9235-.6802.4795-1.4855.7486-2.3165.7742-.0807 0-.2306 0-.3977 0h-3.862l-3.2184 11.6022-3.7659-11.5906h-6.2484l-3.8005 11.5501-3.2261-11.5501h-6.1311l6.0543 19.5257h5.9775l4.1137-12.6099 4.1925 12.6099h5.8602l4.3789-14.2999h3.5661v8.3688c0 1.9642.5694 3.5057 1.7081 4.6247 1.1388 1.1189 2.7175 1.6758 4.7363 1.6706.7193.0259 1.4384-.054 2.1346-.237.314-.1154.6143-.2654.8954-.4471l.0365-4.8173c-.2233.0616-.4506.108-.6801.1387-.2891.0397-.5806.0591-.8724.0578-.5476.028-1.0904-.1162-1.5525-.4123-.3842-.275-.5764-.8184-.5764-1.6302v-7.3167h3.864l.0365-5.2258h-3.9005z" fill="#fff"/></svg>