<svg fill="none" height="65" viewBox="0 0 148 65" width="148" xmlns="http://www.w3.org/2000/svg"><g fill="#000"><path clip-rule="evenodd" d="m6.18253 14h24.63497c1.6399-.0005 3.2131.6507 4.3729 1.8102 1.1597 1.1595 1.8114 2.7323 1.8114 4.3723v24.6331c0 3.4156-2.7689 6.1844-6.1843 6.1844h-24.63497c-3.41481-.001-6.18253-2.7695-6.18253-6.1844v-24.6331c0-3.4145 2.768-6.1825 6.18253-6.1825zm22.14497 30.2736c1.0777 0 1.9514-.8737 1.9514-1.9514l-.0053-19.6426c0-1.0777-.8737-1.9514-1.9514-1.9514h-19.64082c-.51784 0-1.01444.2059-1.38044.5722-.366.3664-.57136.8631-.57089 1.381v19.6408c0 1.0777.87363 1.9514 1.95133 1.9514z" fill-rule="evenodd"/><path d="m14.5751 37.5166c-.6152-.0049-1.1112-.5049-1.1112-1.1201v-7.8413c-.0014-.298.1159-.5843.3262-.7955.2102-.2113.4959-.33.794-.33h7.852c.2979.0005.5833.1194.7935.3305.2101.2112.3277.4972.3266.795v7.8395c.0011.2978-.1165.5839-.3266.795-.2102.2112-.4956.3301-.7935.3306z"/><path d="m55.8294 30.8504c-1.1453-.3123-2.2296-.6067-3.0715-.9819-1.5582-.6965-2.2834-1.6623-2.2834-3.0374 0-2.5994 2.5131-3.7699 5.0157-3.7699 2.3784 0 4.4554.9838 5.8503 2.7682l.0951.122 2.0106-1.5725-.0969-.1221c-1.8544-2.3588-4.6009-3.6513-7.7372-3.6513-2.0876 0-4.0014.5636-5.3854 1.5887-1.5582 1.1399-2.3804 2.7932-2.3804 4.7661 0 4.5867 4.3191 5.705 7.791 6.6044 3.5132.9263 5.6656 1.63 5.6656 4.3083 0 2.6371-2.1327 4.3408-5.4323 4.3408-1.6317 0-4.6529-.4326-6.5522-3.3335l-.088-.1366-2.1147 1.5313.0826.1239c1.7952 2.7179 4.8936 4.2779 8.5108 4.2779 4.9133 0 8.2164-2.7736 8.2164-6.8988 0-4.7214-4.4915-5.9439-8.0961-6.9276z"/><path clip-rule="evenodd" d="m79.9525 29.8976v-2.4827h2.3642v23.5813h-2.3642v-9.2129c-1.35 1.8509-3.3749 2.8633-5.7553 2.8633-4.495 0-7.6367-3.5992-7.6367-8.7962s3.1487-8.825 7.6367-8.825c2.3643 0 4.3892 1.0178 5.7553 2.8722zm-10.9002 5.924c0 4.811 2.7555 6.5255 5.3351 6.5255l.0054.0017c3.3767 0 5.5597-2.585 5.5597-6.5272 0-3.9421-2.1865-6.4912-5.5651-6.4912-3.9331 0-5.3351 3.3533-5.3351 6.4912z" fill-rule="evenodd"/><path d="m97.9474 27.4141v9.3078c0 3.2583-2.2315 5.6243-5.3048 5.6243-2.5527 0-3.7949-1.5151-3.7949-4.6297v-10.3024h-2.3643v10.7853c0 4.039 2.1954 6.4499 5.8719 6.4499 2.2906 0 4.2582-.9711 5.5937-2.7466v2.3625h2.364v-16.8511z"/><path clip-rule="evenodd" d="m104.766 29.1854c1.743-1.3697 4.109-2.1542 6.487-2.1542 3.758 0 6 1.8688 5.993 5.0031v12.2359h-2.366v-1.8688c-1.194 1.4953-2.921 2.253-5.144 2.253-3.621 0-5.872-1.9802-5.872-5.1647 0-4.1415 3.903-4.7914 5.565-5.0679.271-.0447.551-.0878.831-.131h.001l.01-.0015c2.271-.3496 4.616-.7104 4.616-2.6373 0-2.1811-2.831-2.3499-3.698-2.3499-1.532 0-3.695.4542-5.165 1.7287l-.135.1167-1.235-1.8741zm1.567 10.1714c0 2.7 2.542 2.9925 3.635 2.9925h.002c2.377 0 4.92-1.2673 4.915-4.8289v-2.4379c-1.153.7283-2.795 1.0129-4.259 1.2667l-.024.0044-.735.131c-2.344.4344-3.534.9944-3.534 2.8722z" fill-rule="evenodd"/><path d="m130.942 27.7328c-.562-.4003-1.447-.639-2.37-.639-1.896.0249-3.67.9389-4.791 2.4683v-2.1542h-2.364v16.8494h2.364v-9.0117c0-3.996 2.246-5.7858 4.47-5.7858.651-.0087 1.296.128 1.887.4003l.16.0844.748-2.1434z"/><path clip-rule="evenodd" d="m131.635 35.8867c0-5.2131 3.251-8.8555 7.899-8.8555 4.477 0 7.606 3.2331 7.597 7.87-.001.4031-.024.8057-.066 1.2063l-.015.1383h-12.925c.059 3.7106 2.293 6.1035 5.719 6.1035 1.964 0 3.666-.7987 4.792-2.2512l.102-.1327 1.713 1.5258-.095.1149c-1.139 1.3876-3.214 3.0429-6.643 3.0429-4.829 0-8.078-3.5204-8.078-8.7623zm7.834-6.5864c-2.888 0-4.936 1.901-5.256 4.8614h10.419c-.204-2.3805-1.659-4.8614-5.163-4.8614z" fill-rule="evenodd"/></g></svg>