<svg fill="none" height="65" viewBox="0 0 122 65" width="122" xmlns="http://www.w3.org/2000/svg"><g fill="#000"><path d="m90.1505 39.6099c-.4152.4069-1.72 1.4534-3.1434 1.279-1.3049-.1744-2.3131-1.2209-2.3131-4.7673v-9.651h7.7695v-5.5232h-7.7695v-7.2091h-6.5241v1.2209 5.9301 5.5232 9.6509c0 3.3721.8897 11.1626 8.8372 11.1626 4.033-.0581 6.524-2.2093 7.5323-3.0232l.1186-.1163-4.0924-4.9417c-.0593.0581-.3558.4069-.4151.4651z"/><path d="m13.8192 40.8887c-4.0331 0-7.23583-3.1976-7.23583-7.0929s3.26204-7.0929 7.23583-7.0929c3.9737 0 7.2357 3.1976 7.2357 7.0929s-3.262 7.0929-7.2357 7.0929zm13.9377-20.0578h-6.524v1.5116c-2.1352-1.3372-4.6855-2.1511-7.4137-2.1511-7.65099 0-13.8192 6.1045-13.8192 13.5463 0 7.4417 6.16821 13.5462 13.8192 13.5462 2.6689 0 5.2192-.7558 7.3544-2.093v.5233c0 3.9534-3.2621 7.0929-7.2358 7.0929-1.4235 0-2.7283-.407-3.8552-1.1047l-3.3213 5.6395c2.07584 1.2209 4.5075 1.9767 7.1172 1.9767 7.5916 0 13.8784-6.0464 13.8784-13.5463z"/><path d="m48.0411 33.5052c0 2.4418-.1186 4.0115-.4152 4.7673-.3558.9884-.9489 1.7442-1.72 2.2674-.771.5233-1.72.7558-2.7875.7558-1.0676 0-2.0166-.2325-2.7876-.7558-.771-.5232-1.3048-1.2209-1.6013-2.2093-.3559-.9302-.5338-2.6162-.5338-4.9999v-12.3834h-6.5834v10.6974c0 4.1279.2372 6.9185.771 8.4882.7117 2.2674 1.9572 4.0116 3.7365 5.2325 1.7793 1.279 4.0924 1.8604 6.9393 1.8604 2.6689 0 4.804-.5232 6.524-1.6279 1.72-1.1046 3.0248-2.6162 3.9145-4.651.7117-1.6279 1.0675-4.7092 1.0675-9.1859v-10.8137h-6.524z"/><path d="m68.5621 31.0056-2.4317-1.1628c-1.0675-.5232-1.72-.872-1.9572-1.1627s-.4152-.5814-.4152-.9302c0-.4652.2373-.814.6524-1.1628.4152-.2907 1.0083-.4651 1.72-.4651 1.3641 0 2.8469.8139 4.5076 2.3837l4.0923-4.0116c-1.0675-1.3953-2.3131-2.4418-3.7958-3.1395-1.4827-.7558-3.0841-1.1046-4.8041-1.1046-2.491 0-4.5075.6977-6.1089 2.1511-1.6013 1.4535-2.3724 3.1976-2.3724 5.1743 0 3.1395 2.1352 5.7557 6.3462 7.8487l2.1944 1.1047c1.8979.9302 2.8469 1.9185 2.8469 2.9069 0 .5232-.2372.9883-.771 1.3953s-1.2455.6395-2.0759.6395c-.8303 0-1.7199-.2907-2.7282-.8139-1.0083-.5233-1.9572-1.2791-2.7282-2.1511l-4.0331 4.3022c2.2538 2.9069 5.3379 4.3604 9.1337 4.3604 2.8468 0 5.1599-.7558 6.8799-2.2674s2.5503-3.4302 2.5503-5.6976c0-1.686-.4745-3.1976-1.4234-4.4766-1.0083-1.2209-2.7283-2.4418-5.2786-3.7209z"/><path d="m113.341 39.145c-1.364 1.3953-3.084 2.093-5.16 2.093s-3.737-.6977-5.101-2.093-2.016-3.1976-2.016-5.4069c0-2.1511.652-3.9534 2.016-5.3487s3.084-2.093 5.101-2.093c2.076 0 3.796.6977 5.16 2.0348 1.364 1.3954 2.016 3.1395 2.016 5.3488 0 2.2674-.652 4.0697-2.016 5.465zm6.82-12.1509c-1.245-2.093-2.906-3.7209-5.1-4.9418-2.195-1.2209-4.508-1.8023-6.94-1.8023-3.44 0-6.464 1.1628-9.0739 3.4883-3.0248 2.6744-4.5075 5.9883-4.5075 9.9998 0 3.7209 1.3048 6.9185 3.9737 9.5347 2.6687 2.6162 5.8717 3.9534 9.6077 3.9534 2.551 0 4.864-.5814 6.999-1.8023 2.135-1.1627 3.796-2.8487 5.041-4.9417 1.246-2.093 1.839-4.3604 1.839-6.8022 0-2.3256-.593-4.593-1.839-6.6859z"/></g></svg>