<svg fill="none" height="64" viewBox="0 0 198 64" width="198" xmlns="http://www.w3.org/2000/svg"><g fill="#000"><path d="m4.47711 25.7629c0-3.0797-1.5606-5.6249-4.47711-7.7629h6.77962c2.37926 1.8326 3.83748 4.6323 3.83748 7.7629 0 3.1307-1.45822 5.9304-3.83748 7.763 2.20018.9162 3.45378 3.156 3.45378 6.3629v6.1087h-6.14005v-6.1087c0-3.0541-1.45825-5.1921-4.09335-6.3629 2.91651-2.138 4.47711-4.6832 4.47711-7.763zm13.30339 0c0-3.0797-1.5606-5.6249-4.4771-7.7629h6.7796c2.3792 1.8326 3.8376 4.6323 3.8376 7.7629 0 3.1307-1.4584 5.9304-3.8376 7.763 2.2002.9162 3.4538 3.156 3.4538 6.3629v6.1087h-6.1401v-6.1087c0-3.0541-1.4582-5.1921-4.0933-6.3629 2.9165-2.138 4.4771-4.6832 4.4771-7.763zm13.306 0c0-3.0797-1.5607-5.6249-4.4772-7.7629h6.7796c2.3794 1.8326 3.8376 4.6323 3.8376 7.7629 0 3.1307-1.4582 5.9304-3.8376 7.763 2.2002.9162 3.4538 3.156 3.4538 6.3629v6.1087h-6.1399v-6.1087c0-3.0541-1.4584-5.1921-4.0935-6.3629 2.9165-2.138 4.4772-4.6832 4.4772-7.763z"/><path clip-rule="evenodd" d="m181.029 32.151c0-4.1742 2.891-6.9739 7.318-6.9739h.306c2.43 0 5.143.789 7.419 2.0361l1.331-2.1634c-2.534-1.4762-5.961-2.418-8.955-2.418h-.409c-7.189 0-11.871 4.276-11.871 9.621 0 5.3958 4.553 9.1119 11.616 9.1119h.409c3.069 0 6.857-1.0181 9.363-2.3162v-8.3738h-12.075v2.5453h7.521v4.8104c-1.51.4836-3.146.7891-4.606.7891h-.306c-4.298 0-7.061-2.5452-7.061-6.6685zm-106.6831-9.0607h4.6563v17.8191h-4.6563zm-23.0764 17.8194h4.6561v-6.1112h6.4727c2.6863 0 3.7097.8145 3.7097 2.8507v3.258h4.7073v-3.4616c0-2.4179-1.1513-3.7669-3.7096-4.1487 2.4816-.8654 3.8119-2.5706 3.8119-4.8359 0-3.3342-2.7118-5.3704-8.2122-5.3704h-11.4359zm4.6561-15.223h6.5239c2.4049 0 3.7607 1.1708 3.7607 3.1815 0 2.0362-1.4582 3.3343-3.8119 3.3343h-6.4727zm37.3513 9.4173h-5.6795v5.8032h-4.6562v-17.8166h10.438c5.5005 0 8.3918 2.2907 8.3918 5.9558 0 3.7924-2.9425 6.0576-8.4941 6.0576zm-.1024-9.4173h-5.5771v6.8212h5.526c2.4049 0 3.8887-1.2217 3.8887-3.436 0-2.1635-1.4838-3.3852-3.8376-3.3852zm16.0155 9.4173h5.679c5.552 0 8.494-2.2652 8.494-6.0576 0-3.6651-2.891-5.9558-8.391-5.9558h-10.438v17.8166h4.656zm0-9.4173h5.577c2.354 0 3.838 1.2217 3.838 3.3852 0 2.2143-1.484 3.436-3.889 3.436h-5.526zm21.592-2.5961v15.1695h11.615v2.6496h-16.271v-17.8191zm14.529 0h4.656v17.8191h-4.656zm11.666 5.9558v11.8633h-3.07v-17.8191h3.482l12.689 11.8607v-11.8607h3.071v17.8191h-3.48z" fill-rule="evenodd"/></g></svg>