<svg fill="none" height="65" viewBox="0 0 174 65" width="174" xmlns="http://www.w3.org/2000/svg"><g fill="#fff"><path d="m0 20.4921h8.46007c7.36263 0 11.37323 4.5524 11.37323 11.1558 0 6.1933-4.0704 10.8357-11.27347 10.8357h-8.55983zm4.22006 18.1295h4.23003c4.85851 0 7.14321-3.1417 7.14321-6.9737 0-4.3322-2.3545-7.3238-7.20307-7.3238h-4.17017z"/><path d="m21.659 38.1817c0-3.3017 2.4442-4.7725 5.7963-4.7725.858 0 1.706.1001 2.534.3102l1.3169.3102v-.9405c0-1.7309-1.257-2.6714-3.0428-2.6714-1.8457 0-2.9131 1.0405-3.2224 2.4813l-3.4818-.9405c.7782-2.7615 3.0428-4.6825 6.7341-4.6825 4.5393 0 6.8339 2.2012 6.8339 6.0332v9.1748h-3.6613v-2.2912c-.9378 1.6609-2.4144 2.6113-4.9185 2.6113s-4.8884-1.7008-4.8884-4.6224zm9.6472-1.1906v-.1301l-.9078-.2801c-.9079-.2801-1.6262-.4402-2.3146-.4402-1.4067 0-2.3544.6003-2.3544 1.7909 0 1.0405.7781 1.7909 2.4143 1.7909 1.7858 0 3.1625-.9705 3.1625-2.7314z"/><path d="m41.4124 27.5958v2.2312c1.1473-1.5808 2.973-2.5213 4.9184-2.5413 4.0106 0 6.9836 3.1116 6.9836 7.8241 0 4.7124-3.0628 7.704-7.2031 7.704-2.0352 0-3.7611-.8505-4.5393-2.2312v8.1343h-4.0105v-21.1111zm3.9507 11.7862c2.125 0 3.9507-1.5708 3.9507-4.2722 0-2.7615-1.8157-4.3623-3.9507-4.3623-2.0352 0-3.9507 1.5408-3.9507 4.3623 0 2.7614 1.9155 4.2722 3.9507 4.2722z"/><path d="m59.0808 27.5958v2.2312c1.1473-1.5808 2.973-2.5213 4.9185-2.5413 4.0105 0 6.9835 3.1116 6.9835 7.8241 0 4.7124-3.0628 7.704-7.203 7.704-2.0352 0-3.7612-.8505-4.5393-2.2312v8.1343h-4.0106v-21.1111zm3.9507 11.7862c2.125 0 3.9507-1.5708 3.9507-4.2722 0-2.7615-1.8157-4.3623-3.9507-4.3623-2.0352 0-3.9507 1.5408-3.9507 4.3623 0 2.7614 1.9155 4.2722 3.9507 4.2722z"/><path d="m84.0819 36.8006 3.412 1.3508c-.9977 2.8314-3.3521 4.6524-6.9237 4.6524-4.5693 0-7.8615-3.0816-7.8615-7.8541 0-4.2422 2.9431-7.664 7.3926-7.664 4.1003 0 6.8937 2.5813 6.8937 6.6935 0 .6103-.0598 1.2206-.1895 1.8209h-10.0863c.0599 2.3613 1.9155 3.5519 3.9108 3.5519 1.9155-.01 3.0129-.9805 3.4519-2.5514zm-7.3627-3.6719h6.3551c.0199-.04.0299-.08.0299-.13 0-1.5108-1.2171-2.4813-3.0129-2.4813-1.5863 0-2.993.9405-3.3721 2.6113z"/><path d="m93.5295 27.5962v1.911c.5986-1.3207 1.7858-2.2312 3.5716-2.2312 2.7535 0 4.2599 1.921 4.2599 4.4023 0 .6204-.07 1.2507-.219 1.851h-3.7915c.0898-.3702.1297-.7504.1297-1.1406 0-1.0706-.7483-1.851-1.8756-1.851-1.2571 0-2.0652.8505-2.0652 2.3613v9.585h-4.0105v-14.8878z"/><path d="m113.682 20.2822v18.2596h12.89v3.972h-17.16v-22.2316z"/><path d="m127.909 38.1615c0-3.3317 2.474-4.8225 5.856-4.8225.858 0 1.706.1001 2.564.3202l1.327.3202v-.9505c0-1.7509-1.267-2.7014-3.073-2.7014-1.866 0-2.943 1.0505-3.262 2.5113l-3.512-.9505c.788-2.7915 3.073-4.7325 6.804-4.7325 4.589 0 6.904 2.2212 6.904 6.0932v9.2748h-3.702v-2.3212c-.948 1.6809-2.434 2.6314-4.968 2.6314s-4.938-1.7209-4.938-4.6725zm9.747-1.2106v-.12l-.918-.2902c-.918-.2902-1.646-.4402-2.345-.4402-1.426 0-2.374.6003-2.374 1.8109 0 1.0506.788 1.811 2.434 1.811 1.816 0 3.203-.9906 3.203-2.7715z"/><path d="m148.261 20.2822v9.435c.977-1.5208 2.813-2.5714 4.808-2.5714 4.051 0 7.064 3.1417 7.064 7.9041 0 4.7625-3.073 7.7841-7.283 7.7841-1.966 0-3.701-.7904-4.749-2.3212v2.001h-3.891v-22.2316zm3.841 19.09c2.155 0 3.99-1.5908 3.99-4.3223 0-2.7914-1.835-4.4123-3.99-4.4123-2.056 0-3.991 1.5608-3.991 4.4123 0 2.7915 1.925 4.3223 3.991 4.3223z"/><path d="m160.871 38.8018 3.162-1.6809c.729 1.6509 2.056 2.3812 3.771 2.3812 1.617 0 2.435-.6303 2.435-1.4607 0-1.0205-.669-1.5608-3.482-1.971-3.103-.4803-5.128-1.871-5.128-4.5124 0-2.7014 2.694-4.4123 5.737-4.4123 3.352 0 4.878 1.3607 5.696 3.1717l-3.073 1.6808c-.379-1.1706-1.356-1.7109-2.534-1.7109-1.207 0-2.125.5403-2.125 1.3007 0 .8905.788 1.2707 3.322 1.6509 3.931.6003 5.348 2.1311 5.348 4.7324 0 2.8615-2.724 4.8626-6.335 4.8626-3.532 0-5.747-1.5308-6.794-4.0321z"/></g></svg>