<svg fill="none" height="65" viewBox="0 0 132 65" width="132" xmlns="http://www.w3.org/2000/svg"><path clip-rule="evenodd" d="m10.3776 13.7368 10.1916 6.2367h.0014v-6.2367l-10.1915-6.2368-10.190135 6.2368v6.2367zm-4.85061 11.4747h-5.338025v14.2157c0 3.2276.970415 5.6586 2.867735 7.3885 1.89587 1.7314 4.32264 2.5725 7.2774 2.5725 2.9577 0 5.383-.8426 7.3253-2.5725 1.9408-1.7314 2.9112-4.2563 2.9112-7.5284v-14.0758h-5.338v13.7006c0 3.5535-2.4833 5.3311-4.8535 5.3311-2.34992 0-4.85211-1.7314-4.85211-5.2834zm55.63731 19.3592c2.0989 0 3.9397-.7473 5.5556-2.2727l3.9643 2.4265c-2.4195 2.9215-5.6441 4.616-9.6969 4.616-3.4857 0-6.3534-1.1225-8.5147-3.3198-2.1614-2.1988-3.2638-5.145-3.2638-8.84v-.1845c0-3.7427 1.1024-6.735 3.2638-9.0261 2.2063-2.2912 4.987-3.4137 8.3827-3.4137 3.2217 0 5.8675 1.1225 7.8953 3.4137 2.0743 2.2911 3.0897 5.0973 3.0897 8.4648 0 1.0856-.116 2.2419-.116 2.2419h-17.2471c.2901 3.5812 2.8576 5.8939 6.6871 5.8939zm-.3105-15.2444c-1.6318 0-3.0896.5136-4.2791 1.4961l.0015.0016c-1.1387.9379-1.7915 2.0912-1.9626 3.4597h11.8379c-.0493-1.3239-.6179-2.4756-1.671-3.4136-1.1039-1.0302-2.3833-1.5438-3.9267-1.5438zm51.6952 30.455c3.474 0 5.739-1.8437 7.905-7.264h.001l10.923-27.3058h-5.425l-6.662 17.2095-6.486-17.2095h-5.426l9.132 23.8953-1.058 2.5925c-1.059 2.5894-2.17 3.0661-3.366 3.0661h-1.946v5.0159zm-71.1978-32.4355v-11.1573h5.2945v32.5908h-5.2945v-2.1697c-1.2068 1.1794-3.49 2.6848-7.1019 2.6848-3.1317 0-5.779-1.1702-7.9403-3.5089-2.1178-2.385-3.1767-5.2835-3.1767-8.7924 0-3.5074 1.0589-6.4059 3.1767-8.7447 2.1613-2.3834 4.8071-3.552 7.9403-3.552 2.6313 0 5.3525.9887 7.1019 2.6494zm-6.3969 16.8528c1.8973 0 3.5292-.7027 4.8086-2.059 1.3229-1.3562 1.9872-3.086 1.9872-5.1434 0-2.059-.6643-3.7889-1.9872-5.1451-1.2794-1.3562-2.9113-2.0574-4.8086-2.0574s-3.4407.7012-4.7201 2.0574c-1.2344 1.3562-1.8524 3.0861-1.8524 5.1451 0 2.0574.6194 3.7872 1.8524 5.1434 1.2794 1.3563 2.8228 2.059 4.7201 2.059zm56.6512-15.9825c1.4317-1.7037 3.5219-3.4721 7.5429-3.4721v.0016c4.6056 0 7.7216 3.2998 7.7216 9.4443v14.5894h-5.295v-13.7959c0-3.2245-1.455-5.2358-3.97-5.2358-2.6023 0-4.4097 2.245-4.4097 5.471v13.5622h-5.2495v-13.7944c0-3.226-1.4549-5.2373-3.9716-5.2373-2.4689 0-4.3227 2.2912-4.3227 5.4711v13.5622h-5.2481v-23.5678h5.2481v2.451c.9371-1.2148 2.8141-2.9216 5.9995-2.9216 3.7685 0 5.3815 2.3142 5.9545 3.4721z" fill="#fff" fill-rule="evenodd"/></svg>