<svg fill="none" height="65" viewBox="0 0 134 65" width="134" xmlns="http://www.w3.org/2000/svg"><g clip-rule="evenodd" fill="#fff" fill-rule="evenodd"><path d="m47.96 32.9449v11.6891h1.8027 1.8027v-4.5433-4.543l1.1193.0327c.6155.0184 1.4131.033 1.7728.033h.6534l2.6717 4.6745c1.4693 2.5706 2.701 4.7149 2.7371 4.7644.0608.0838.1729.0277 1.5817-.7939l1.5166-.8844-.0942-.161c-.4806-.822-4.5994-8.0487-4.5994-8.0699 0-.0156.0297-.0281.0661-.0281.3741 0 1.8163-.9515 2.5293-1.6689 3.991-4.0144 1.9611-10.764-3.6227-12.0457-.4729-.1084-.5405-.1103-5.2081-.1271l-4.729-.0174zm64.7.0022v11.6869h1.803 1.803v-11.6869-11.6869h-1.803-1.803zm-10.421-6.9529v1.8944h-1.951-1.9508v1.8191 1.819h1.9508 1.951l.012 6.5412.013 6.5412h1.802 1.803l.013-6.5412.012-6.5412h1.951 1.951v-1.819-1.8191h-1.951-1.95l-.013-1.8814-.013-1.8813-1.815-.0131-1.815-.0131zm-44.9225-1.0064c3.5517 1.0023 3.5884 5.8269.0522 6.8719-.264.0782-.598.0894-3.0499.1037l-2.7534.0159v-3.5531l.0003-3.5528 2.6791.0019c2.6145.0019 2.6889.0047 3.0717.1125zm14.0161 2.4043c-3.1319.3965-5.6752 2.7031-6.3175 5.7294-.1362.6411-.1343 4.5686.0021 5.3077 1.0977 5.9369 7.9382 8.6484 12.6984 5.0333.6436-.4887 1.4588-1.3484 1.3881-1.4637-.0293-.0482-2.9618-1.8003-3.0127-1.8003-.0148 0-.1871.1249-.3828.2775-.8671.6759-1.5666.9706-2.3898 1.0064-2.2698.0987-4.1031-1.1403-4.6828-3.1653l-.075-.2616h5.5539 5.5535l-.0003-2.1306c0-2.3885-.0284-2.7046-.3229-3.5927-1.09-3.288-4.4923-5.3855-8.0122-4.9401zm17.2255-.0206c-.9134.1175-1.8413.3906-2.5806.7598l-.4815.2404v-.2417-.2414h-1.8275-1.8277l.0127 8.3602.0123 8.3603h1.8027 1.8028l.0262-5.3825c.0287-5.8973.0099-5.5279.3189-6.2334 1.1072-2.5258 5.372-2.8043 6.8657-.4482.5884.9282.5674.6737.5677 6.8187l.0003 5.2703h1.7549 1.7548l-.0169-5.5943c-.0189-6.1717.004-5.7141-.3371-6.7532-1.0366-3.1591-4.5235-5.3429-7.8477-4.915zm30.5359 6.0366c.018 6.1568-.003 5.7338.332 6.7405 1.38 4.1555 6.392 6.1565 10.414 4.1583l.515-.2554-.027.827c-.088 2.747-1.738 4.9891-4.185 5.6855-1.791.5103-4.095-.451-5.358-2.2358-.136-.1919-.264-.3504-.285-.352-.02-.0018-.692.4607-1.491 1.0276l-1.454 1.0307.084.1445c.241.4168.902 1.2214 1.4 1.7064 5.23 5.0905 13.751 1.9514 14.831-5.4638.067-.4647.077-1.6315.077-9.5563v-9.0265h-1.801-1.802l-.014 5.3949-.013 5.3949-.139.3987c-.594 1.7047-2.065 2.5903-4.059 2.4439-1.84-.1352-3.047-1.0914-3.431-2.718-.097-.4115-.1-.5747-.1-5.669l-.001-5.2454h-1.754-1.756zm-45.8713-2.3741c1.6166.2669 2.7111 1.4147 2.9303 3.0718l.0414.3115h-3.8935-3.8937v-.143c0-.4887.3334-1.3811.7232-1.9361.7631-1.0862 2.3507-1.592 4.0923-1.3042z"/><path d="m14.4215 11.3352c-1.3881 1.0042-5.09419 3.6758-8.23567 5.9372l-5.712197 4.1113v11.2695c0 9.7644.009878 11.3265.073775 11.6956.400364 2.3175 2.106152 4.3085 4.297192 5.0168.97452.3149.62941.3015 7.8501.3015h6.5797l.1657.2367c2.2867 3.2659 6.3064 5.7136 9.1713 5.5852l.3566-.0158-.4232-.4984c-1.3005-1.5319-2.1664-3.3871-2.2732-4.8716l-.0315-.4361h.7282c2.7556 0 5.1597-1.7562 6.0268-4.4022.3432-1.0469.3225-.2361.3213-12.6634l-.0015-11.2172-2.1466-1.5636-2.1469-1.564-.0127-3.0958-.0126-3.0962-2.802-.0128-2.8019-.013-.0133 1.0434-.0132 1.0435-3.161-2.3118c-1.7385-1.2715-3.1831-2.31032-3.2103-2.30814-.0272.00187-1.185.82514-2.5729 1.82934z"/></g></svg>