<svg width="172" height="65" viewBox="0 0 172 65" fill="none" xmlns="http://www.w3.org/2000/svg">
<path fill-rule="evenodd" clip-rule="evenodd" d="M28.8577 16H32.6902V39.0772H41.8146L44.3771 42.9269H28.8577V16ZM144.232 22.9287C144.742 22.9287 145.22 23.0262 145.662 23.2201C146.105 23.414 146.494 23.6778 146.831 24.0085C147.169 24.3401 147.432 24.7322 147.626 25.1815C147.82 25.6329 147.916 26.115 147.916 26.6279V30.0072H144.232V26.6279H136.638V42.9265H132.972V22.9287H144.232ZM128.568 34.8148H115.382V39.2272H128.568V42.9265H115.382C114.883 42.9265 114.41 42.829 113.961 42.6351C113.512 42.4412 113.122 42.1784 112.791 41.8467C112.461 41.515 112.199 41.124 112.006 40.6737C111.812 40.2222 111.717 39.7412 111.717 39.2272V26.6279C111.717 26.115 111.812 25.6329 112.006 25.1815C112.199 24.7311 112.461 24.3401 112.791 24.0085C113.122 23.6768 113.512 23.414 113.961 23.2201C114.41 23.0262 114.883 22.9287 115.382 22.9287H124.884C125.395 22.9287 125.874 23.0262 126.323 23.2201C126.772 23.414 127.163 23.6768 127.492 24.0085C127.823 24.3401 128.085 24.7311 128.277 25.1815C128.471 25.6329 128.568 26.115 128.568 26.6279V34.8148ZM115.382 31.1156H124.883V26.6279H115.382V31.1156ZM107.312 22.9287V47.3007C107.312 47.8147 107.215 48.2968 107.022 48.7472C106.829 49.1975 106.566 49.5885 106.236 49.9213C105.907 50.2519 105.516 50.5157 105.067 50.7097C104.619 50.9036 104.139 51 103.627 51H91.9935V47.3007H103.627V42.9265H93.3593C92.8604 42.9265 92.386 42.829 91.9371 42.6351C91.4893 42.4412 91.0989 42.1784 90.7692 41.8467C90.4383 41.515 90.1767 41.124 89.9831 40.6737C89.7895 40.2222 89.6938 39.7412 89.6938 39.2272V26.6279C89.6938 26.115 89.7895 25.6329 89.9831 25.1815C90.1767 24.7311 90.4383 24.3401 90.7692 24.0085C91.0989 23.6768 91.4893 23.414 91.9371 23.2201C92.386 23.0262 92.8604 22.9287 93.3593 22.9287H107.312ZM93.3582 39.2262H103.627V26.6269H93.3582V39.2262ZM71.3364 42.9265C70.8376 42.9265 70.3642 42.829 69.9143 42.6351C69.4654 42.4412 69.0761 42.1784 68.7463 41.8467C68.4155 41.515 68.1538 41.124 67.9603 40.6737C67.7667 40.2222 67.6699 39.7412 67.6699 39.2272V26.6279C67.6699 26.115 67.7667 25.6329 67.9603 25.1815C68.1538 24.7311 68.4155 24.3401 68.7463 24.0085C69.0761 23.6768 69.4654 23.414 69.9143 23.2201C70.3642 23.0262 70.8376 22.9287 71.3364 22.9287H81.6043V16.2624H85.289V42.9265H71.3364ZM71.3364 39.2272H81.6043V26.6279H71.3364V39.2272ZM63.1906 34.8148H50.004V39.2272H63.1906V42.9265H50.004C49.5051 42.9265 49.0307 42.829 48.5829 42.6351C48.134 42.4412 47.7436 42.1784 47.4128 41.8467C47.082 41.515 46.8203 41.124 46.6278 40.6737C46.4342 40.2222 46.3384 39.7412 46.3384 39.2272V26.6279C46.3384 26.115 46.4342 25.6329 46.6278 25.1815C46.8203 24.7311 47.082 24.3401 47.4128 24.0085C47.7436 23.6768 48.134 23.414 48.5829 23.2201C49.0307 23.0262 49.5051 22.9287 50.004 22.9287H59.5049C60.0165 22.9287 60.4963 23.0262 60.9452 23.2201C61.394 23.414 61.7834 23.6768 62.1142 24.0085C62.4439 24.3401 62.7056 24.7311 62.9002 25.1815C63.0928 25.6329 63.1906 26.115 63.1906 26.6279V34.8148ZM50.004 31.1156H59.5049V26.6279H50.004V31.1156ZM152.792 16L159.955 26.0837L167.156 16H171.794L162.293 29.3506L172 42.9269H167.361L159.955 32.5794L152.603 42.9269H147.966L157.673 29.3506L148.171 16H152.792ZM3.7889 39.1842H16.2055V27.0353H3.7889V39.1842ZM0 42.9873V23.2311H19.9933V42.9873H0ZM26.2022 36.2256H22.4133V20.2736H6.83969V16.4705H26.2022V36.2256Z" fill="white"/>
</svg>
