<svg width="36" height="36" viewBox="0 0 36 36" fill="none" xmlns="http://www.w3.org/2000/svg">
<path d="M22 27V25C22 23.9391 21.5786 22.9217 20.8284 22.1716C20.0783 21.4214 19.0609 21 18 21H11C9.93913 21 8.92172 21.4214 8.17157 22.1716C7.42143 22.9217 7 23.9391 7 25V27M26 14V20M29 17H23M18.5 13C18.5 15.2091 16.7091 17 14.5 17C12.2909 17 10.5 15.2091 10.5 13C10.5 10.7909 12.2909 9 14.5 9C16.7091 9 18.5 10.7909 18.5 13Z" stroke="black" stroke-width="2" stroke-linecap="round" stroke-linejoin="round"/>
</svg>
