<svg width="842" height="390" viewBox="0 0 842 390" fill="none" xmlns="http://www.w3.org/2000/svg">
<g clip-path="url(#clip0_2691_130291)">
<rect width="841" height="390" transform="translate(0.5)" fill="#E2F9F0"/>
<g filter="url(#filter0_d_2691_130291)">
<rect x="177.18" y="44.3125" width="135.292" height="270.583" rx="19.1" fill="white"/>
<rect width="95.5" height="6.36667" rx="3.18333" transform="matrix(1 0 0 -1 196.973 92.0625)" fill="#E9EAFF"/>
<rect width="63.6667" height="6.36667" rx="3.18333" transform="matrix(1 0 0 -1 212.797 79.3301)" fill="#E9EAFF"/>
<ellipse cx="244.383" cy="271.214" rx="16.8014" ry="16.8014" fill="#878CFD"/>
<path d="M251.007 274.945C251.007 275.246 250.884 275.535 250.667 275.747C250.449 275.96 250.154 276.079 249.847 276.079H239.406C239.098 276.079 238.803 275.96 238.586 275.747C238.368 275.535 238.246 275.246 238.246 274.945V268.707C238.246 268.406 238.368 268.117 238.586 267.905C238.803 267.692 239.098 267.572 239.406 267.572H241.726L242.886 265.871H246.366L247.526 267.572H249.847C250.154 267.572 250.449 267.692 250.667 267.905C250.884 268.117 251.007 268.406 251.007 268.707V274.945Z" stroke="white" stroke-width="1.59167" stroke-linecap="round" stroke-linejoin="round"/>
<path d="M244.625 273.527C245.682 273.527 246.539 272.67 246.539 271.613C246.539 270.556 245.682 269.699 244.625 269.699C243.568 269.699 242.711 270.556 242.711 271.613C242.711 272.67 243.568 273.527 244.625 273.527Z" stroke="white" stroke-width="1.59167" stroke-linecap="round" stroke-linejoin="round"/>
<rect x="177.18" y="119.918" width="135.292" height="103.458" fill="#E9EAFF"/>
<g filter="url(#filter1_d_2691_130291)">
<rect x="206.945" y="147.223" width="70.8437" height="42.5071" rx="6.36667" fill="white"/>
</g>
<path d="M245.688 164.014H269.428" stroke="black" stroke-width="0.663194" stroke-linecap="round"/>
<path d="M245.688 169.908H263.493" stroke="black" stroke-width="0.663194" stroke-linecap="round"/>
<path d="M245.688 175.803H269.428" stroke="black" stroke-width="0.663194" stroke-linecap="round"/>
<g clip-path="url(#clip1_2691_130291)">
<path d="M215.23 178.482C213.743 179.938 213.742 183.408 215.486 183.408H235.287C236.451 183.408 236.413 180.776 235.869 179.938C235.325 179.1 231.143 178.397 229.375 178.165C228.318 179.1 226.934 179.63 225.491 179.652C224.235 179.671 221.415 179.161 221.415 177.597C219.345 177.597 217.152 177.635 215.23 178.482Z" fill="#A7ABFE"/>
<path d="M228.716 160.715C229.693 160.866 232.185 162.644 232.818 163.902C232.691 161.06 232.084 158.664 228.959 157.754C223.953 151.323 215.087 158.242 217.583 168.512C218.253 161.386 220.786 162.015 223.319 162.644C225.852 163.273 227.679 161.707 228.716 160.715Z" fill="#A7ABFE"/>
<path d="M214.34 178.876C216.67 178.202 218.963 177.598 221.415 177.598V178.368C223.701 180.268 227.111 180.371 229.375 178.368V177.598C231.828 177.598 234.121 178.202 236.451 178.876M233.273 170.147C234.417 169.872 234.919 167.676 233.451 167.676M233.273 170.147L233.451 167.676M233.273 170.147C233.353 174.236 229.339 177.739 225.219 177.739C221.209 177.739 217.441 174.083 217.518 170.147M233.451 167.676C232.631 164.749 232.206 161.192 228.59 160.648C227.752 162.016 226.486 163.238 224.586 162.645C221.221 161.594 218.717 162.039 217.62 168.305C216.847 163.963 217.194 160.811 218.83 158.547C221.286 155.152 227.039 153.879 228.59 157.614C232.855 159.024 233.451 163.813 233.451 167.676ZM217.518 170.147C217.518 170.147 217.943 166.298 216.679 167.844C215.985 168.693 216.514 169.899 217.518 170.147ZM223.431 173.283C224.679 173.653 226.016 173.653 227.264 173.283" stroke="black" stroke-width="0.663194" stroke-linecap="round" stroke-linejoin="round"/>
</g>
<rect x="177.18" y="44.3125" width="135.292" height="270.583" rx="19.1" stroke="#A7ABFE" stroke-width="0.795833"/>
</g>
<path d="M478.006 291.02V274.179C478.006 263.631 469.455 255.079 458.906 255.079H450.948C440.399 255.079 431.848 246.528 431.848 235.979V227.354" stroke="#7379FD" stroke-width="0.795833" stroke-miterlimit="16" stroke-linecap="round" stroke-linejoin="round" stroke-dasharray="1.59 2.39"/>
<path d="M385.689 291.02V274.179C385.689 263.631 394.241 255.079 404.789 255.079H412.748C423.296 255.079 431.848 246.528 431.848 235.979V227.354" stroke="#7379FD" stroke-width="0.795833" stroke-miterlimit="16" stroke-linecap="round" stroke-linejoin="round" stroke-dasharray="1.59 2.39"/>
<path d="M540.078 203.479H508.245" stroke="#7379FD" stroke-width="0.795833" stroke-miterlimit="16" stroke-linecap="round"/>
<g filter="url(#filter2_d_2691_130291)">
<g clip-path="url(#clip2_2691_130291)">
<rect x="540.082" y="179.605" width="127.333" height="175.083" rx="6.36667" fill="white"/>
<rect x="540.082" y="211.439" width="127.333" height="0.795833" fill="#E9EAFF"/>
<path d="M548.211 200.34H549.491L550.006 198.401H552.766L553.282 200.34H554.562L552.537 193.082H550.236L548.211 200.34ZM550.293 197.341L551.391 193.244L552.48 197.341H550.293ZM557.457 200.454C558.193 200.454 558.861 199.967 559.148 199.28V200.34H560.341V193.082H559.148V196.377C558.918 195.689 558.326 195.078 557.457 195.078C556.244 195.078 555.366 196.195 555.366 197.761C555.366 199.328 556.235 200.454 557.457 200.454ZM556.579 197.761C556.579 196.644 557.037 195.918 557.887 195.918C558.737 195.918 559.195 196.644 559.195 197.761C559.195 198.888 558.737 199.614 557.887 199.614C557.037 199.614 556.579 198.888 556.579 197.761ZM564.144 200.454C564.879 200.454 565.548 199.967 565.834 199.28V200.34H567.028V193.082H565.834V196.377C565.605 195.689 565.013 195.078 564.144 195.078C562.931 195.078 562.053 196.195 562.053 197.761C562.053 199.328 562.922 200.454 564.144 200.454ZM563.265 197.761C563.265 196.644 563.724 195.918 564.574 195.918C565.424 195.918 565.882 196.644 565.882 197.761C565.882 198.888 565.424 199.614 564.574 199.614C563.724 199.614 563.265 198.888 563.265 197.761ZM570.048 200.34H571.242V197.876C571.242 196.873 571.805 196.195 573.457 196.195H573.944V195.078H573.658C572.12 195.078 571.442 196.052 571.232 196.797V195.192H570.048V200.34ZM578.263 200.454C579.428 200.454 580.287 199.929 580.602 198.821H579.39C579.227 199.318 578.893 199.614 578.263 199.614C577.556 199.614 577.088 199.117 577.002 198.115H580.698C580.708 197.991 580.717 197.838 580.717 197.742C580.717 196.071 579.676 195.078 578.253 195.078C576.744 195.078 575.789 196.186 575.789 197.761C575.789 199.328 576.716 200.454 578.263 200.454ZM577.012 197.284C577.126 196.367 577.575 195.918 578.253 195.918C578.969 195.918 579.437 196.463 579.495 197.284H577.012ZM584.825 200.454C586.105 200.454 587.06 199.862 587.06 198.84C587.06 198.01 586.592 197.542 585.542 197.312L584.739 197.141C584.147 197.007 583.851 196.883 583.851 196.529C583.851 196.138 584.3 195.918 584.787 195.918C585.217 195.918 585.628 196.128 585.761 196.51H586.965C586.745 195.555 585.838 195.078 584.787 195.078C583.641 195.078 582.696 195.679 582.696 196.625C582.696 197.408 583.25 197.838 584.166 198.038L584.969 198.22C585.599 198.353 585.905 198.516 585.905 198.955C585.905 199.356 585.532 199.614 584.854 199.614C584.415 199.614 583.918 199.442 583.794 198.812H582.581C582.744 199.901 583.641 200.454 584.825 200.454ZM591.512 200.454C592.792 200.454 593.747 199.862 593.747 198.84C593.747 198.01 593.279 197.542 592.229 197.312L591.426 197.141C590.834 197.007 590.538 196.883 590.538 196.529C590.538 196.138 590.987 195.918 591.474 195.918C591.904 195.918 592.315 196.128 592.448 196.51H593.652C593.432 195.555 592.525 195.078 591.474 195.078C590.328 195.078 589.383 195.679 589.383 196.625C589.383 197.408 589.937 197.838 590.853 198.038L591.656 198.22C592.286 198.353 592.591 198.516 592.591 198.955C592.591 199.356 592.219 199.614 591.541 199.614C591.102 199.614 590.605 199.442 590.481 198.812H589.268C589.43 199.901 590.328 200.454 591.512 200.454ZM602.479 200.34H607.627V199.452H605.65V193.082H602.766V193.97H604.456V199.452H602.479V200.34ZM611.573 200.454C613.13 200.454 614.094 199.356 614.094 197.761C614.094 196.176 613.13 195.078 611.573 195.078C610.016 195.078 609.042 196.176 609.042 197.761C609.042 199.356 610.016 200.454 611.573 200.454ZM610.265 197.761C610.265 196.644 610.723 195.918 611.573 195.918C612.423 195.918 612.872 196.644 612.872 197.761C612.872 198.888 612.423 199.614 611.573 199.614C610.723 199.614 610.265 198.888 610.265 197.761ZM618.26 200.454C619.816 200.454 620.781 199.356 620.781 197.761C620.781 196.176 619.816 195.078 618.26 195.078C616.703 195.078 615.729 196.176 615.729 197.761C615.729 199.356 616.703 200.454 618.26 200.454ZM616.951 197.761C616.951 196.644 617.41 195.918 618.26 195.918C619.11 195.918 619.559 196.644 619.559 197.761C619.559 198.888 619.11 199.614 618.26 199.614C617.41 199.614 616.951 198.888 616.951 197.761ZM626.475 200.34H627.926L625.491 197.475L627.821 195.192H626.379L624.164 197.36V193.082H622.97V200.34H624.164V197.609L626.475 200.34ZM631.07 200.454C631.92 200.454 632.397 199.929 632.617 199.328V200.34H633.801V195.192H632.608V198.182C632.608 199.146 632.245 199.595 631.595 199.595C630.946 199.595 630.573 199.156 630.573 198.201V195.192H629.38V198.42C629.38 199.566 629.914 200.454 631.07 200.454ZM636.057 202.212H637.251V199.28C637.537 199.967 638.206 200.454 638.941 200.454C640.164 200.454 641.033 199.328 641.033 197.761C641.033 196.195 640.154 195.078 638.941 195.078C638.072 195.078 637.48 195.689 637.251 196.377V195.192H636.057V202.212ZM637.203 197.761C637.203 196.644 637.661 195.918 638.511 195.918C639.361 195.918 639.82 196.644 639.82 197.761C639.82 198.888 639.361 199.614 638.511 199.614C637.661 199.614 637.203 198.888 637.203 197.761Z" fill="black"/>
<rect x="571.914" y="284.656" width="63.6667" height="6.36667" rx="3.18333" fill="#E9EAFF"/>
<g clip-path="url(#clip3_2691_130291)">
<path d="M564.482 287.844C564.482 288.988 564.111 290.101 563.426 291.017C562.741 291.934 561.778 292.604 560.681 292.929C559.584 293.253 558.411 293.214 557.338 292.817C556.265 292.421 555.349 291.688 554.726 290.728C554.103 289.769 553.807 288.633 553.883 287.492C553.958 286.35 554.4 285.263 555.144 284.394C555.887 283.524 556.891 282.918 558.007 282.666C559.123 282.413 560.291 282.529 561.336 282.994M563.952 284.657L559.177 288.902L557.585 287.31" stroke="#41D49D" stroke-width="1.19375" stroke-linecap="round" stroke-linejoin="round"/>
</g>
<g clip-path="url(#clip4_2691_130291)">
<path d="M559.177 331.347C562.107 331.347 564.482 328.972 564.482 326.042C564.482 323.112 562.107 320.736 559.177 320.736C556.246 320.736 553.871 323.112 553.871 326.042C553.871 328.972 556.246 331.347 559.177 331.347Z" stroke="#F04B38" stroke-width="1.19375" stroke-linecap="round" stroke-linejoin="round"/>
<path d="M557.633 324.45C557.758 324.096 558.004 323.797 558.328 323.606C558.652 323.416 559.033 323.346 559.403 323.41C559.774 323.473 560.11 323.666 560.352 323.953C560.594 324.241 560.727 324.605 560.726 324.981C560.726 326.042 559.134 326.572 559.134 326.572" stroke="#F04B38" stroke-width="1.19375" stroke-linecap="round" stroke-linejoin="round"/>
<path d="M559.18 328.695H559.185" stroke="#F04B38" stroke-width="1.19375" stroke-linecap="round" stroke-linejoin="round"/>
</g>
<rect x="571.914" y="322.857" width="50.9333" height="6.36667" rx="3.18333" fill="#E9EAFF"/>
<rect x="571.914" y="303.758" width="77.9917" height="6.36667" rx="3.18333" fill="#E9EAFF"/>
<g clip-path="url(#clip5_2691_130291)">
<path d="M559.177 312.248C562.107 312.248 564.482 309.872 564.482 306.942C564.482 304.012 562.107 301.637 559.177 301.637C556.246 301.637 553.871 304.012 553.871 306.942C553.871 309.872 556.246 312.248 559.177 312.248Z" stroke="#FDAB2B" stroke-width="1.19375" stroke-linecap="round" stroke-linejoin="round"/>
<path d="M559.18 303.758V306.941L561.302 308.002" stroke="#FDAB2B" stroke-width="1.19375" stroke-linecap="round" stroke-linejoin="round"/>
</g>
<g clip-path="url(#clip6_2691_130291)">
<rect x="550.426" y="221.785" width="106.642" height="47.75" rx="2.31048" fill="#E9EAFF"/>
<path d="M585.477 238.484L554.729 207.736C553.827 206.834 553.827 205.371 554.729 204.468L557.88 201.318C558.782 200.415 560.245 200.415 561.147 201.318L611.15 251.32C612.052 252.223 613.515 252.223 614.417 251.32L684.316 181.422C685.218 180.519 686.681 180.519 687.584 181.422L690.734 184.572C691.637 185.474 691.637 186.937 690.734 187.84L620.835 257.739C619.933 258.641 619.933 260.104 620.835 261.006L645.808 285.978C646.71 286.88 646.71 288.343 645.808 289.246L642.657 292.396C641.755 293.299 640.292 293.299 639.389 292.396L595.163 248.17C594.261 247.268 592.798 247.268 591.895 248.17L539.967 300.098C539.065 301 537.602 301 536.7 300.098L533.549 296.947C532.647 296.045 532.647 294.582 533.549 293.68L585.477 241.752C586.38 240.849 586.38 239.387 585.477 238.484Z" fill="white"/>
<path d="M619.663 233.072C619.663 238.136 613.296 242.477 613.296 242.477C613.296 242.477 606.93 238.136 606.93 233.072C606.93 231.345 607.6 229.689 608.794 228.468C609.988 227.247 611.608 226.561 613.296 226.561C614.985 226.561 616.604 227.247 617.798 228.468C618.992 229.689 619.663 231.345 619.663 233.072Z" fill="#A7ABFE"/>
<path d="M613.298 235.314C614.616 235.314 615.685 234.245 615.685 232.927C615.685 231.608 614.616 230.539 613.298 230.539C611.979 230.539 610.91 231.608 610.91 232.927C610.91 234.245 611.979 235.314 613.298 235.314Z" fill="white"/>
</g>
</g>
<rect x="540.082" y="179.605" width="127.333" height="175.083" rx="6.36667" stroke="#A7ABFE" stroke-width="0.795833"/>
</g>
<g filter="url(#filter3_d_2691_130291)">
<rect x="348.285" y="179.604" width="159.167" height="47.75" rx="23.875" fill="white"/>
<g clip-path="url(#clip7_2691_130291)">
<path d="M367.388 211.438C371.783 211.438 375.346 207.875 375.346 203.48C375.346 199.085 371.783 195.521 367.388 195.521C362.993 195.521 359.43 199.085 359.43 203.48C359.43 207.875 362.993 211.438 367.388 211.438Z" stroke="#FDAB2B" stroke-width="1.59167" stroke-linecap="round" stroke-linejoin="round"/>
<path d="M367.387 198.705V203.48L370.57 205.072" stroke="#FDAB2B" stroke-width="1.59167" stroke-linecap="round" stroke-linejoin="round"/>
</g>
<path d="M386.759 201.871H387.991V199.025H389.27L390.741 201.871H392.155L390.531 198.853C391.496 198.538 392.05 197.803 392.05 196.819C392.05 195.482 391.009 194.613 389.366 194.613H386.759V201.871ZM387.991 197.994V195.654H389.366C390.245 195.654 390.779 196.074 390.779 196.819C390.779 197.564 390.245 197.994 389.366 197.994H387.991ZM396.206 201.986C397.371 201.986 398.23 201.46 398.545 200.353H397.333C397.17 200.849 396.836 201.145 396.206 201.145C395.499 201.145 395.031 200.649 394.945 199.646H398.641C398.65 199.522 398.66 199.369 398.66 199.273C398.66 197.602 397.619 196.609 396.196 196.609C394.687 196.609 393.732 197.717 393.732 199.293C393.732 200.859 394.659 201.986 396.206 201.986ZM394.955 198.815C395.069 197.898 395.518 197.449 396.196 197.449C396.912 197.449 397.38 197.994 397.438 198.815H394.955ZM400.696 203.743H401.89V200.811C402.176 201.499 402.845 201.986 403.58 201.986C404.802 201.986 405.672 200.859 405.672 199.293C405.672 197.726 404.793 196.609 403.58 196.609C402.711 196.609 402.119 197.22 401.89 197.908V196.724H400.696V203.743ZM401.842 199.293C401.842 198.175 402.3 197.449 403.15 197.449C404 197.449 404.459 198.175 404.459 199.293C404.459 200.419 404 201.145 403.15 201.145C402.3 201.145 401.842 200.419 401.842 199.293ZM409.837 201.986C411.394 201.986 412.358 200.887 412.358 199.293C412.358 197.707 411.394 196.609 409.837 196.609C408.281 196.609 407.306 197.707 407.306 199.293C407.306 200.887 408.281 201.986 409.837 201.986ZM408.529 199.293C408.529 198.175 408.987 197.449 409.837 197.449C410.687 197.449 411.136 198.175 411.136 199.293C411.136 200.419 410.687 201.145 409.837 201.145C408.987 201.145 408.529 200.419 408.529 199.293ZM415.311 201.871H416.505V199.407C416.505 198.404 417.068 197.726 418.721 197.726H419.208V196.609H418.921C417.384 196.609 416.706 197.583 416.495 198.328V196.724H415.311V201.871ZM424.3 201.871H425.98V200.983H424.5C424.023 200.983 423.803 200.801 423.803 200.343V200.324V197.602H425.98V196.724H423.803V195.501H422.609V196.724H420.776V197.602H422.609V200.381V200.4C422.609 201.374 423.297 201.871 424.3 201.871Z" fill="black"/>
<rect opacity="0.2" x="385.852" y="209.051" width="46.8073" height="5.94378" rx="2.97189" fill="#7379FD"/>
<rect x="348.285" y="179.604" width="159.167" height="47.75" rx="23.875" stroke="#A7ABFE" stroke-width="0.795833"/>
</g>
<g filter="url(#filter4_d_2691_130291)">
<rect x="292.574" y="107.979" width="159.167" height="47.75" rx="23.875" fill="white"/>
<g clip-path="url(#clip8_2691_130291)">
<path d="M319.632 131.127V131.859C319.631 133.576 319.075 135.245 318.047 136.62C317.02 137.994 315.575 139 313.93 139.487C312.284 139.973 310.525 139.915 308.915 139.32C307.305 138.725 305.931 137.626 304.997 136.186C304.063 134.747 303.619 133.044 303.732 131.331C303.845 129.619 304.508 127.989 305.623 126.684C306.738 125.38 308.245 124.47 309.919 124.092C311.593 123.714 313.345 123.887 314.912 124.585" stroke="#41D49D" stroke-width="1.48594" stroke-linecap="round" stroke-linejoin="round"/>
<path d="M318.839 126.283L311.677 133.446L309.289 131.058" stroke="#41D49D" stroke-width="1.48594" stroke-linecap="round" stroke-linejoin="round"/>
</g>
<path d="M333.55 130.361C335.107 130.361 336.214 129.463 336.214 128.116C336.214 126.97 335.603 126.436 334.304 126.101L333.435 125.882C332.538 125.643 332.146 125.442 332.146 124.831C332.146 124.239 332.757 123.848 333.464 123.848C334.133 123.848 334.648 124.163 334.82 124.898H336.052C335.861 123.685 334.944 122.873 333.464 122.873C332.07 122.873 330.933 123.752 330.933 124.955C330.933 126.111 331.755 126.665 332.748 126.913L333.607 127.142C334.543 127.381 335.002 127.543 335.002 128.241C335.002 128.9 334.476 129.387 333.56 129.387C332.7 129.387 332.098 128.928 331.984 128.03H330.752C330.943 129.482 332.003 130.361 333.55 130.361ZM340.552 130.361C341.755 130.361 342.729 129.692 342.968 128.47H341.765C341.593 129.138 341.201 129.52 340.552 129.52C339.721 129.52 339.244 128.804 339.244 127.668C339.244 126.55 339.712 125.824 340.552 125.824C341.211 125.824 341.593 126.302 341.717 126.894H342.92C342.71 125.748 341.832 124.984 340.552 124.984C339.005 124.984 338.031 126.082 338.031 127.668C338.031 129.262 339.005 130.361 340.552 130.361ZM346.551 130.361C347.506 130.361 347.936 129.912 348.251 129.243V130.246H349.435V126.98V126.961C349.435 125.958 348.843 124.984 347.239 124.984C346.016 124.984 345.128 125.624 345.014 126.636H346.227C346.274 126.206 346.628 125.824 347.239 125.824C347.907 125.824 348.242 126.302 348.242 126.904V126.923V127.009L346.914 127.142C345.969 127.238 344.842 127.496 344.842 128.689C344.842 129.664 345.606 130.361 346.551 130.361ZM346.064 128.689C346.064 128.011 346.809 127.916 347.353 127.849L348.242 127.754V128.059C348.242 128.909 347.831 129.606 347.019 129.606C346.494 129.606 346.064 129.272 346.064 128.689ZM351.939 130.246H353.133V127.257C353.133 126.273 353.525 125.834 354.174 125.834C354.823 125.834 355.215 126.264 355.215 127.238V130.246H356.409V127.009C356.409 125.863 355.855 124.984 354.699 124.984C353.859 124.984 353.353 125.509 353.124 126.14V125.099H351.939V130.246ZM365.313 130.246H370.441V129.186H368.493V124.048H370.441V122.988H365.313V124.048H367.261V129.186H365.313V130.246ZM372.143 130.246H374.177C376.317 130.246 377.739 129.014 377.739 126.617C377.739 124.22 376.317 122.988 374.177 122.988H372.143V130.246ZM373.375 129.186V124.048H374.206C375.648 124.048 376.469 124.965 376.469 126.617C376.469 128.269 375.648 129.186 374.206 129.186H373.375Z" fill="black"/>
<rect opacity="0.2" x="330.141" y="137.426" width="46.8073" height="5.94378" rx="2.97189" fill="#7379FD"/>
<rect x="292.574" y="107.979" width="159.167" height="47.75" rx="23.875" stroke="#A7ABFE" stroke-width="0.795833"/>
</g>
<g filter="url(#filter5_d_2691_130291)">
<rect x="361.812" y="275.104" width="47.75" height="47.75" rx="23.875" fill="white"/>
<rect x="369.77" y="283.062" width="31.8333" height="31.8333" rx="15.9167" fill="#E9EAFF"/>
<path d="M392.054 294.205L383.299 302.959L379.32 298.98" stroke="#7379FD" stroke-width="1.79062" stroke-linecap="round" stroke-linejoin="round"/>
<rect x="361.812" y="275.104" width="47.75" height="47.75" rx="23.875" stroke="#A7ABFE" stroke-width="0.795833"/>
</g>
<g filter="url(#filter6_d_2691_130291)">
<rect x="454.129" y="275.104" width="47.75" height="47.75" rx="23.875" fill="white"/>
<rect x="462.086" y="283.062" width="31.8333" height="31.8333" rx="15.9167" fill="#E9EAFF"/>
<path d="M482.78 294.205L473.23 303.755M473.23 294.205L482.78 303.755" stroke="#7379FD" stroke-width="1.59167" stroke-linecap="round" stroke-linejoin="round"/>
<rect x="454.129" y="275.104" width="47.75" height="47.75" rx="23.875" stroke="#A7ABFE" stroke-width="0.795833"/>
</g>
<path d="M332.367 155.729V187.562C332.367 196.352 339.493 203.479 348.284 203.479V203.479" stroke="#7379FD" stroke-width="0.795833"/>
</g>
<defs>
<filter id="filter0_d_2691_130291" x="176.781" y="43.9141" width="142.457" height="277.746" filterUnits="userSpaceOnUse" color-interpolation-filters="sRGB">
<feFlood flood-opacity="0" result="BackgroundImageFix"/>
<feColorMatrix in="SourceAlpha" type="matrix" values="0 0 0 0 0 0 0 0 0 0 0 0 0 0 0 0 0 0 127 0" result="hardAlpha"/>
<feOffset dx="6.36667" dy="6.36667"/>
<feColorMatrix type="matrix" values="0 0 0 0 0.654902 0 0 0 0 0.670588 0 0 0 0 0.996078 0 0 0 0.3 0"/>
<feBlend mode="normal" in2="BackgroundImageFix" result="effect1_dropShadow_2691_130291"/>
<feBlend mode="normal" in="SourceGraphic" in2="effect1_dropShadow_2691_130291" result="shape"/>
</filter>
<filter id="filter1_d_2691_130291" x="206.945" y="147.223" width="77.2104" height="48.8745" filterUnits="userSpaceOnUse" color-interpolation-filters="sRGB">
<feFlood flood-opacity="0" result="BackgroundImageFix"/>
<feColorMatrix in="SourceAlpha" type="matrix" values="0 0 0 0 0 0 0 0 0 0 0 0 0 0 0 0 0 0 127 0" result="hardAlpha"/>
<feOffset dx="6.36667" dy="6.36667"/>
<feColorMatrix type="matrix" values="0 0 0 0 0.654902 0 0 0 0 0.670588 0 0 0 0 0.996078 0 0 0 0.3 0"/>
<feBlend mode="normal" in2="BackgroundImageFix" result="effect1_dropShadow_2691_130291"/>
<feBlend mode="normal" in="SourceGraphic" in2="effect1_dropShadow_2691_130291" result="shape"/>
</filter>
<filter id="filter2_d_2691_130291" x="539.684" y="179.207" width="134.496" height="182.246" filterUnits="userSpaceOnUse" color-interpolation-filters="sRGB">
<feFlood flood-opacity="0" result="BackgroundImageFix"/>
<feColorMatrix in="SourceAlpha" type="matrix" values="0 0 0 0 0 0 0 0 0 0 0 0 0 0 0 0 0 0 127 0" result="hardAlpha"/>
<feOffset dx="6.36667" dy="6.36667"/>
<feColorMatrix type="matrix" values="0 0 0 0 0.654902 0 0 0 0 0.670588 0 0 0 0 0.996078 0 0 0 0.3 0"/>
<feBlend mode="normal" in2="BackgroundImageFix" result="effect1_dropShadow_2691_130291"/>
<feBlend mode="normal" in="SourceGraphic" in2="effect1_dropShadow_2691_130291" result="shape"/>
</filter>
<filter id="filter3_d_2691_130291" x="347.887" y="179.205" width="166.332" height="54.9135" filterUnits="userSpaceOnUse" color-interpolation-filters="sRGB">
<feFlood flood-opacity="0" result="BackgroundImageFix"/>
<feColorMatrix in="SourceAlpha" type="matrix" values="0 0 0 0 0 0 0 0 0 0 0 0 0 0 0 0 0 0 127 0" result="hardAlpha"/>
<feOffset dx="6.36667" dy="6.36667"/>
<feColorMatrix type="matrix" values="0 0 0 0 0.654902 0 0 0 0 0.670588 0 0 0 0 0.996078 0 0 0 0.3 0"/>
<feBlend mode="normal" in2="BackgroundImageFix" result="effect1_dropShadow_2691_130291"/>
<feBlend mode="normal" in="SourceGraphic" in2="effect1_dropShadow_2691_130291" result="shape"/>
</filter>
<filter id="filter4_d_2691_130291" x="292.176" y="107.58" width="166.332" height="54.9135" filterUnits="userSpaceOnUse" color-interpolation-filters="sRGB">
<feFlood flood-opacity="0" result="BackgroundImageFix"/>
<feColorMatrix in="SourceAlpha" type="matrix" values="0 0 0 0 0 0 0 0 0 0 0 0 0 0 0 0 0 0 127 0" result="hardAlpha"/>
<feOffset dx="6.36667" dy="6.36667"/>
<feColorMatrix type="matrix" values="0 0 0 0 0.654902 0 0 0 0 0.670588 0 0 0 0 0.996078 0 0 0 0.3 0"/>
<feBlend mode="normal" in2="BackgroundImageFix" result="effect1_dropShadow_2691_130291"/>
<feBlend mode="normal" in="SourceGraphic" in2="effect1_dropShadow_2691_130291" result="shape"/>
</filter>
<filter id="filter5_d_2691_130291" x="361.414" y="274.705" width="51.7302" height="51.7302" filterUnits="userSpaceOnUse" color-interpolation-filters="sRGB">
<feFlood flood-opacity="0" result="BackgroundImageFix"/>
<feColorMatrix in="SourceAlpha" type="matrix" values="0 0 0 0 0 0 0 0 0 0 0 0 0 0 0 0 0 0 127 0" result="hardAlpha"/>
<feOffset dx="3.18333" dy="3.18333"/>
<feColorMatrix type="matrix" values="0 0 0 0 0.654902 0 0 0 0 0.670588 0 0 0 0 0.996078 0 0 0 0.3 0"/>
<feBlend mode="normal" in2="BackgroundImageFix" result="effect1_dropShadow_2691_130291"/>
<feBlend mode="normal" in="SourceGraphic" in2="effect1_dropShadow_2691_130291" result="shape"/>
</filter>
<filter id="filter6_d_2691_130291" x="453.73" y="274.705" width="51.7302" height="51.7302" filterUnits="userSpaceOnUse" color-interpolation-filters="sRGB">
<feFlood flood-opacity="0" result="BackgroundImageFix"/>
<feColorMatrix in="SourceAlpha" type="matrix" values="0 0 0 0 0 0 0 0 0 0 0 0 0 0 0 0 0 0 127 0" result="hardAlpha"/>
<feOffset dx="3.18333" dy="3.18333"/>
<feColorMatrix type="matrix" values="0 0 0 0 0.654902 0 0 0 0 0.670588 0 0 0 0 0.996078 0 0 0 0.3 0"/>
<feBlend mode="normal" in2="BackgroundImageFix" result="effect1_dropShadow_2691_130291"/>
<feBlend mode="normal" in="SourceGraphic" in2="effect1_dropShadow_2691_130291" result="shape"/>
</filter>
<clipPath id="clip0_2691_130291">
<rect width="841" height="390" fill="white" transform="translate(0.5)"/>
</clipPath>
<clipPath id="clip1_2691_130291">
<rect width="23.294" height="28.9173" fill="white" transform="translate(213.738 154.49)"/>
</clipPath>
<clipPath id="clip2_2691_130291">
<rect x="540.082" y="179.605" width="127.333" height="175.083" rx="6.36667" fill="white"/>
</clipPath>
<clipPath id="clip3_2691_130291">
<rect width="12.7333" height="12.7333" fill="white" transform="translate(552.812 281.473)"/>
</clipPath>
<clipPath id="clip4_2691_130291">
<rect width="12.7333" height="12.7333" fill="white" transform="translate(552.812 319.674)"/>
</clipPath>
<clipPath id="clip5_2691_130291">
<rect width="12.7333" height="12.7333" fill="white" transform="translate(552.812 300.574)"/>
</clipPath>
<clipPath id="clip6_2691_130291">
<rect x="550.426" y="221.785" width="106.642" height="47.75" rx="2.31048" fill="white"/>
</clipPath>
<clipPath id="clip7_2691_130291">
<rect width="19.1" height="19.1" fill="white" transform="translate(357.836 193.93)"/>
</clipPath>
<clipPath id="clip8_2691_130291">
<rect width="19.1" height="19.1" fill="white" transform="translate(302.125 122.305)"/>
</clipPath>
</defs>
</svg>
