<svg width="1200" height="600" viewBox="0 0 1200 600" fill="none" xmlns="http://www.w3.org/2000/svg">
<rect width="1200" height="600" fill="#F4F5FF"/>
<path d="M310.069 277.206V300.194C310.069 310.351 318.303 318.585 328.46 318.585H419.648C429.805 318.585 438.039 326.819 438.039 336.976L438.039 413.605" stroke="#A7ABFE" stroke-width="1.53257" stroke-linecap="round"/>
<path d="M419.648 111.687L721.565 111.687C731.722 111.687 739.956 119.921 739.956 130.078V188.316C739.956 198.473 748.19 206.707 758.347 206.707H828.079" stroke="#A7ABFE" stroke-width="1.53257" stroke-linecap="round"/>
<path d="M507.773 459.582L834.212 459.582" stroke="#A7ABFE" stroke-width="1.53257" stroke-linecap="square"/>
<path d="M906.238 436.593L906.238 273.374" stroke="#A7ABFE" stroke-width="1.53257" stroke-miterlimit="16" stroke-linecap="round" stroke-dasharray="1.53 3.07"/>
<rect x="356.495" y="413.286" width="152.361" height="96.6312" rx="8.51882" fill="white"/>
<path d="M403.986 443.507C402.501 445.087 400.551 446.174 398.408 446.615C396.265 447.057 394.034 446.832 392.027 445.971L391.258 445.644C390.351 445.255 389.365 445.074 388.376 445.115C387.387 445.155 386.42 445.416 385.549 445.878C384.678 446.34 383.925 446.991 383.348 447.78C382.771 448.57 382.385 449.479 382.219 450.437L380.668 459.402C378.881 449.237 379.879 441.504 383.664 436.204C389.34 428.255 402.982 425.399 406.569 434.142C412.447 436.112 415.514 439.879 415.769 445.441C417.687 448.829 418.027 453.482 416.792 459.402L415.332 449.852C415 447.68 413.971 445.668 412.396 444.109C410.821 442.549 408.781 441.522 406.571 441.177L406.226 441.122L403.986 443.507ZM373.172 483.313C378.502 481.949 383.918 481.018 389.365 480.521C392.438 480.241 395.52 481.293 398.603 481.289C401.77 481.285 404.938 480.234 408.095 480.521C413.542 481.018 420.228 481.949 425.559 483.313V494.22H373.172V483.313Z" fill="#9BC0FF"/>
<path d="M436.207 433.455H479.545M436.207 444.362H457.32M436.207 455.268H468.432M476.211 490.169H483.99M451.764 490.169H468.432M471.766 481.444H483.99M460.654 481.444H463.988M445.097 481.444H452.875" stroke="#AACBFE" stroke-width="3.20246" stroke-linecap="round" stroke-linejoin="round"/>
<path d="M408.814 481.064C408.752 481.095 408.72 481.158 408.657 481.189C409.097 479.431 409.003 476.763 408.94 476.668L412.456 474.282C412.456 474.282 414.905 473.968 416.412 473.56C417.919 473.152 419.583 472.587 419.583 472.587V461.85C420.054 459.464 419.363 453.468 419.363 452.84C419.394 449.888 417.856 444.08 416.632 441.914C416.381 436.232 413.398 432.558 407.653 430.863C403.948 421.947 388.941 425.024 382.976 434.379C381.626 435.949 379.868 439.56 379.523 443.923C378.738 453.813 378.801 467.784 379.177 472.964C379.177 472.964 383.008 474.345 387.026 474.345C387.56 474.345 390.354 476.731 390.354 476.731C390.354 476.7 390.071 478.332 390.009 479.839C385.708 479.871 375.441 482.759 375.441 482.759C379.711 486.903 389.632 492.523 399.71 492.523C408.281 492.523 415.972 490.043 421.529 485.176C421.561 485.145 413.115 481.566 408.814 481.064Z" fill="#AACBFE"/>
<path d="M421.556 454.567C420.394 452.871 418.416 453.844 417.631 454.472L416.438 446.718C416.093 444.489 415.026 442.417 413.362 440.816C411.729 439.214 409.563 438.147 407.271 437.802L407.083 437.77L404.948 440.031C403.378 441.695 401.306 442.825 399.045 443.296C396.754 443.767 394.399 443.516 392.264 442.605L391.73 442.385C390.789 441.977 389.784 441.789 388.779 441.852C387.775 441.883 386.77 442.134 385.891 442.605C385.012 443.076 384.227 443.704 383.631 444.52C383.034 445.305 382.657 446.216 382.469 447.189L381.213 454.378C380.554 453.845 378.984 452.84 377.54 453.939C376.284 455.163 376.629 456.356 376.629 457.172C376.629 457.989 377.603 459.684 378.105 460.343C378.576 460.94 380.051 462.321 380.931 462.729C381.182 465.021 381.935 467.219 383.065 469.228C384.604 471.928 386.864 474.188 389.596 475.79L390.066 476.072V477.799V480.876L390.412 481.252C393.394 483.795 396.314 484.8 399.736 484.706C403.158 484.643 406.455 483.858 408.935 480.844V477.799V476.104L408.966 476.072L409.437 475.79C412.169 474.188 414.429 471.928 415.967 469.228C417.223 467.03 417.977 464.613 418.165 462.133C418.699 461.756 420.268 460.563 420.708 460.092C421.179 459.496 421.807 458.334 421.964 457.549C422.309 455.634 422.058 455.163 421.556 454.567Z" fill="#E3EEFF"/>
<path d="M390.07 476.575V481.158L390.415 481.441C393.021 483.607 396.38 484.769 399.833 484.706C403.287 484.643 406.615 483.387 409.126 481.158V476.355M390.07 479.808C385.894 479.808 381.75 480.405 377.763 481.566L373.305 482.854M409.158 479.84C413.333 479.84 417.258 480.405 421.245 481.566L425.703 482.854M380.808 455.132V460.751C380.745 463.797 381.467 466.842 383.006 469.542C384.544 472.242 386.805 474.502 389.536 476.104L392.048 477.579C394.277 478.898 396.851 479.588 399.457 479.588C402.063 479.588 404.637 478.898 406.866 477.579L409.378 476.104C412.109 474.502 414.369 472.242 415.908 469.542C417.446 466.873 418.231 463.828 418.168 460.751L417.823 455.132C417.666 454.284 418.702 453.531 419.393 453.436C420.617 453.279 421.81 454.253 422.155 455.414C422.532 456.576 422.218 457.863 421.653 458.962C420.837 460.563 419.801 461.787 418.168 462.572M380.808 455.132L382.441 447.471C382.629 446.498 383.006 445.588 383.602 444.803C384.199 443.987 384.984 443.359 385.863 442.888C386.742 442.417 387.746 442.166 388.751 442.134C389.756 442.071 390.76 442.26 391.702 442.668L392.236 442.888C394.371 443.798 396.725 444.049 399.017 443.578C401.278 443.107 403.35 441.977 404.919 440.313L407.054 438.053L407.243 438.084C409.535 438.43 411.701 439.497 413.333 441.098C414.997 442.699 416.065 444.771 416.41 447L417.791 454.975M380.808 455.132C380.965 454.284 379.929 453.531 379.238 453.436M379.238 453.436C378.265 443.107 380.023 438.43 383.916 433.03C389.756 424.93 403.758 422.01 407.431 430.958M379.238 453.436C378.014 453.279 376.821 454.253 376.476 455.414C376.099 456.576 376.413 457.863 376.978 458.962C377.794 460.563 378.83 461.787 380.463 462.572M407.431 430.958C413.459 432.967 416.598 436.797 416.881 442.48C418.859 445.933 419.644 451.082 419.581 453.436M407.431 430.958C407.902 432.527 408.122 433.909 408.122 435.039M394.842 468.255C397.793 469.134 400.964 469.134 403.946 468.255M399.3 456.136V463.451M379.207 461.85C379.081 465.743 379.207 469.73 379.144 473.184C381.656 474.126 383.885 474.22 386.805 474.345M419.769 461.505C419.675 465.115 419.675 468.977 419.581 472.587C417.069 473.561 414.872 473.906 411.889 474.345" stroke="#2B7FFD" stroke-width="0.896143" stroke-linecap="round" stroke-linejoin="round"/>
<rect x="356.495" y="413.286" width="152.361" height="96.6312" rx="8.51882" stroke="#A7ABFE" stroke-width="0.896143"/>
<g filter="url(#filter0_d_2691_129965)">
<rect x="714.668" y="238.125" width="49.0424" height="49.0424" rx="6.1303" fill="white"/>
<rect x="719.574" y="243.029" width="39.2339" height="39.2339" rx="2.45212" fill="#D4F5E9"/>
<path d="M724.469 261.113L724.469 263.565" stroke="#2BBC86" stroke-width="1.22606" stroke-linecap="round"/>
<path d="M728.152 258.661L728.152 266.017" stroke="#2BBC86" stroke-width="1.22606" stroke-linecap="round"/>
<path d="M731.828 264.791V259.887" stroke="#2BBC86" stroke-width="1.22606" stroke-linecap="round"/>
<path d="M735.508 254.983V269.695" stroke="#2BBC86" stroke-width="1.22606" stroke-linecap="round"/>
<path d="M739.184 257.435L739.184 267.244" stroke="#2BBC86" stroke-width="1.22606" stroke-linecap="round"/>
<path d="M742.867 261.113L742.867 263.565" stroke="#2BBC86" stroke-width="1.22606" stroke-linecap="round"/>
<path d="M746.543 252.531L746.543 272.147" stroke="#2BBC86" stroke-width="1.22606" stroke-linecap="round"/>
<path d="M750.223 258.661L750.223 266.017" stroke="#2BBC86" stroke-width="1.22606" stroke-linecap="round"/>
<path d="M724.469 261.113L724.469 263.565" stroke="#2BBC86" stroke-width="1.22606" stroke-linecap="round"/>
<path d="M728.152 258.661L728.152 266.017" stroke="#2BBC86" stroke-width="1.22606" stroke-linecap="round"/>
<path d="M731.828 264.791V259.887" stroke="#2BBC86" stroke-width="1.22606" stroke-linecap="round"/>
<path d="M735.508 254.983V269.695" stroke="#2BBC86" stroke-width="1.22606" stroke-linecap="round"/>
<path d="M739.184 257.435L739.184 267.244" stroke="#2BBC86" stroke-width="1.22606" stroke-linecap="round"/>
<path d="M742.867 261.113L742.867 263.565" stroke="#2BBC86" stroke-width="1.22606" stroke-linecap="round"/>
<path d="M746.543 252.531L746.543 272.147" stroke="#2BBC86" stroke-width="1.22606" stroke-linecap="round"/>
<path d="M750.223 258.661L750.223 266.017" stroke="#2BBC86" stroke-width="1.22606" stroke-linecap="round"/>
<path d="M724.469 261.113L724.469 263.565" stroke="#2BBC86" stroke-width="1.22606" stroke-linecap="round"/>
<path d="M728.152 258.661L728.152 266.017" stroke="#2BBC86" stroke-width="1.22606" stroke-linecap="round"/>
<path d="M731.828 264.791V259.887" stroke="#2BBC86" stroke-width="1.22606" stroke-linecap="round"/>
<path d="M735.508 254.983V269.695" stroke="#2BBC86" stroke-width="1.22606" stroke-linecap="round"/>
<path d="M739.184 257.435L739.184 267.244" stroke="#2BBC86" stroke-width="1.22606" stroke-linecap="round"/>
<path d="M742.867 261.113L742.867 263.565" stroke="#2BBC86" stroke-width="1.22606" stroke-linecap="round"/>
<path d="M746.543 252.531L746.543 272.147" stroke="#2BBC86" stroke-width="1.22606" stroke-linecap="round"/>
<path d="M750.223 258.661L750.223 266.017" stroke="#2BBC86" stroke-width="1.22606" stroke-linecap="round"/>
<path d="M753.895 261.113L753.895 263.565" stroke="#2BBC86" stroke-width="1.22606" stroke-linecap="round"/>
<path d="M728.15 278.584H725.698C724.344 278.584 723.246 277.487 723.246 276.132V273.68" stroke="#2BBC86" stroke-width="1.22606" stroke-linecap="round" stroke-linejoin="round"/>
<path d="M750.221 278.584H752.673C754.027 278.584 755.125 277.487 755.125 276.132V273.68" stroke="#2BBC86" stroke-width="1.22606" stroke-linecap="round" stroke-linejoin="round"/>
<path d="M728.15 246.707H725.698C724.344 246.707 723.246 247.805 723.246 249.159V251.611" stroke="#2BBC86" stroke-width="1.22606" stroke-linecap="round" stroke-linejoin="round"/>
<path d="M750.221 246.707H752.673C754.027 246.707 755.125 247.804 755.125 249.159V251.611" stroke="#2BBC86" stroke-width="1.22606" stroke-linecap="round" stroke-linejoin="round"/>
<rect x="714.285" y="237.742" width="49.8087" height="49.8087" rx="6.51344" stroke="#8CE5C4" stroke-width="0.766287"/>
</g>
<g filter="url(#filter1_d_2691_129965)">
<rect x="507.773" y="207.473" width="183.909" height="183.909" rx="6.1303" fill="white"/>
<rect x="523.094" y="222.799" width="153.257" height="153.257" rx="6.1303" fill="#F4F5FF"/>
<g clip-path="url(#clip0_2691_129965)">
<path d="M608.939 268.186L612.719 264.161L613.046 264.211C617.126 264.848 620.89 266.72 623.791 269.556C626.693 272.391 628.581 276.043 629.183 279.983L631.813 297.178C631.921 296.661 632.022 296.148 632.117 295.642C633.982 285.68 633.265 277.787 629.965 271.964C629.503 261.915 623.96 255.111 613.336 251.554C606.857 235.76 582.202 240.92 571.942 255.278C565.104 264.85 563.299 278.817 566.528 297.178L566.603 296.748L569.366 280.773C569.66 279.075 570.353 277.465 571.393 276.065C572.433 274.665 573.792 273.514 575.365 272.698C576.939 271.883 578.686 271.426 580.471 271.361C582.257 271.297 584.034 271.628 585.666 272.327L586.605 272.73C590.35 274.335 594.525 274.761 598.536 273.945C602.547 273.129 606.188 271.113 608.939 268.186ZM613.336 251.554C614.157 254.356 614.567 256.757 614.567 258.758L613.336 251.554ZM566.457 304.329C565.058 303.979 563.867 303.299 562.953 302.169C562.078 301.086 561.602 299.752 561.602 298.38C561.602 297.007 562.078 295.673 562.953 294.59C563.829 293.507 565.054 292.736 566.436 292.399L566.528 292.376L566.457 304.329Z" fill="#E9EAFF"/>
<path d="M566.603 296.748L566.457 304.329C566.352 309.77 567.725 315.144 570.439 319.916C573.153 324.689 577.114 328.696 581.931 331.54L582.742 332.019L586.335 334.141C590.258 336.457 594.77 337.683 599.371 337.683C603.972 337.683 608.483 336.457 612.406 334.141L615.999 332.019L616.81 331.54C621.627 328.696 625.588 324.689 628.302 319.916C631.016 315.144 632.389 309.77 632.284 304.329L632.117 295.642C632.022 296.148 631.921 296.661 631.813 297.178L629.183 279.983C628.581 276.043 626.693 272.391 623.791 269.556C620.89 266.72 617.126 264.848 613.046 264.211L612.719 264.161L608.939 268.186C606.188 271.113 602.547 273.129 598.536 273.945C594.525 274.761 590.35 274.335 586.605 272.73L585.666 272.327C584.034 271.628 582.257 271.297 580.471 271.361C578.686 271.426 576.939 271.883 575.365 272.698C573.792 273.514 572.433 274.665 571.393 276.065C570.353 277.465 569.66 279.075 569.366 280.773L566.603 296.748Z" fill="#E9EAFF"/>
<path d="M582.742 332.881V335.835V338.236L583.342 338.742C587.889 342.558 593.742 344.618 599.771 344.525C605.801 344.431 611.582 342.191 615.999 338.236V335.835V332.233V332.019L612.406 334.141C608.483 336.457 603.972 337.683 599.371 337.683C594.77 337.683 590.258 336.457 586.335 334.141L582.742 332.019V332.881Z" fill="#E9EAFF"/>
<path d="M641.483 340.044L637.705 338.941C630.668 336.882 623.355 335.835 616.001 335.833C623.304 335.833 634.218 336.168 640.859 339.135L641.845 339.575L641.483 340.043V340.044ZM637.034 345.01C627.456 354.408 614.12 360.235 599.372 360.235C581.958 360.235 566.514 352.109 556.898 339.575L557.885 339.135C564.525 336.168 575.438 335.833 582.743 335.833V338.236L583.344 338.74C587.89 342.556 593.743 344.617 599.772 344.524C605.802 344.431 611.583 342.191 616.001 338.236C623.387 339.218 630.52 341.515 637.034 345.01ZM609.14 268.422C606.389 271.349 602.748 273.365 598.738 274.181C594.727 274.997 590.551 274.572 586.806 272.966L585.868 272.564C584.235 271.864 582.458 271.533 580.673 271.598C578.887 271.662 577.141 272.119 575.567 272.935C573.993 273.75 572.635 274.902 571.595 276.301C570.555 277.701 569.861 279.311 569.568 281.009L566.73 297.414C563.5 279.053 565.305 265.086 572.143 255.514C582.403 241.156 607.782 236.131 614.26 251.924C624.359 254.9 629.638 261.413 630.1 271.464C633.568 277.581 634.205 286.231 632.014 297.414L629.385 280.221C628.783 276.281 626.895 272.629 623.993 269.792C621.092 266.956 617.328 265.084 613.248 264.447L612.921 264.398L609.14 268.42V268.422Z" fill="#FEDDAA"/>
<path d="M582.742 332.88V338.236L583.342 338.742C587.889 342.558 593.742 344.618 599.771 344.525C605.801 344.431 611.582 342.191 615.999 338.236V332.233M582.742 335.835C575.392 335.835 568.081 336.88 561.049 338.937L553.18 341.239M615.999 335.835C623.349 335.835 630.66 336.88 637.692 338.937L645.561 341.239M632.284 304.329C633.666 303.993 634.712 303.489 635.588 302.405C636.463 301.322 636.938 299.989 636.939 298.616C636.938 297.243 636.463 295.909 635.588 294.826C634.712 293.743 633.487 292.972 632.105 292.635L632.013 292.612M632.284 304.329C632.389 309.77 631.016 315.143 628.302 319.916C625.588 324.689 621.627 328.696 616.81 331.54L612.406 334.141C608.483 336.457 603.972 337.683 599.371 337.683C594.77 337.683 590.258 336.457 586.335 334.141L581.931 331.54C577.114 328.696 573.153 324.689 570.439 319.916C567.725 315.143 566.352 309.77 566.457 304.329M632.284 304.329L632.013 290.211M566.728 290.209L566.457 304.329M566.457 304.329L566.528 292.376L566.436 292.399C565.054 292.736 563.829 293.507 562.953 294.59C562.078 295.673 561.602 297.007 561.602 298.38C561.602 299.752 562.078 301.086 562.953 302.169C563.867 303.299 565.058 303.979 566.457 304.329ZM613.336 251.554C623.96 255.111 629.503 261.915 629.965 271.964C633.433 278.084 634.048 286.488 631.813 297.178L629.183 279.983C628.581 276.043 626.693 272.391 623.791 269.555C620.89 266.72 617.126 264.848 613.046 264.211L612.719 264.161L608.939 268.186C606.188 271.113 602.547 273.129 598.536 273.945C594.525 274.761 590.35 274.335 586.605 272.73L585.666 272.327C584.034 271.628 582.257 271.297 580.471 271.361C578.686 271.426 576.939 271.883 575.365 272.698C573.792 273.514 572.433 274.665 571.393 276.065C570.353 277.465 569.66 279.075 569.366 280.773L566.528 297.178C563.299 278.817 565.104 264.85 571.942 255.278C582.202 240.92 606.857 235.76 613.336 251.554ZM613.336 251.554C614.157 254.356 614.567 256.757 614.567 258.758L613.336 251.554ZM591.165 317.59C596.379 319.153 601.962 319.153 607.176 317.59" stroke="#A7ABFE" stroke-width="1.53257" stroke-linecap="round" stroke-linejoin="round"/>
</g>
<path d="M539.957 253.479V243.016C539.957 240.315 542.147 238.125 544.848 238.125H555.254" stroke="#41D49D" stroke-width="1.53257" stroke-linecap="round"/>
<path d="M539.957 344.069V354.532C539.957 357.233 542.147 359.423 544.848 359.423H555.254" stroke="#41D49D" stroke-width="1.53257" stroke-linecap="round"/>
<path d="M644.648 238.125H655.054C657.755 238.125 659.945 240.315 659.945 243.016V253.479" stroke="#41D49D" stroke-width="1.53257" stroke-linecap="round"/>
<path d="M644.648 359.423H655.054C657.755 359.423 659.945 357.233 659.945 354.532V344.069" stroke="#41D49D" stroke-width="1.53257" stroke-linecap="round"/>
<rect x="507.39" y="207.09" width="184.675" height="184.675" rx="6.51344" stroke="#A7ABFE" stroke-width="0.766287"/>
</g>
<path d="M691.677 222.799C700.141 222.799 707.003 215.938 707.003 207.473C707.003 199.009 700.141 192.148 691.677 192.148C683.213 192.148 676.352 199.009 676.352 207.473C676.352 215.938 683.213 222.799 691.677 222.799Z" fill="#41D49D"/>
<path d="M698.305 202.876L689.109 212.071L684.93 207.891" fill="#41D49D"/>
<path d="M698.305 202.876L689.109 212.071L684.93 207.891" stroke="white" stroke-width="1.53257" stroke-linecap="round" stroke-linejoin="round"/>
<g filter="url(#filter2_d_2691_129965)">
<rect x="444.938" y="158.431" width="79.6938" height="79.6938" rx="6.1303" fill="white"/>
<rect x="452.906" y="166.4" width="63.7551" height="63.7551" rx="3.98469" fill="#D4F5E9"/>
<path d="M466.852 224.179H462.867C460.667 224.179 458.883 222.395 458.883 220.194V216.209" stroke="#2BBC86" stroke-width="1.99235" stroke-linecap="round" stroke-linejoin="round"/>
<path d="M502.718 224.179H506.703C508.903 224.179 510.688 222.395 510.688 220.194V216.209" stroke="#2BBC86" stroke-width="1.99235" stroke-linecap="round" stroke-linejoin="round"/>
<path d="M466.852 172.378H462.867C460.667 172.378 458.883 174.162 458.883 176.363V180.347" stroke="#2BBC86" stroke-width="1.99235" stroke-linecap="round" stroke-linejoin="round"/>
<path d="M502.718 172.377H506.703C508.903 172.377 510.688 174.161 510.688 176.362V180.347" stroke="#2BBC86" stroke-width="1.99235" stroke-linecap="round" stroke-linejoin="round"/>
<path d="M485.282 182.34C482.838 182.34 480.426 182.902 478.233 183.983C476.04 185.065 474.126 186.636 472.637 188.575C471.149 190.515 470.127 192.771 469.65 195.169C469.173 197.567 469.254 200.042 469.887 202.404" stroke="#2BBC86" stroke-width="1.99235" stroke-linecap="round" stroke-linejoin="round"/>
<path d="M499.086 206.248C500.132 204.435 500.812 202.434 501.085 200.359C501.358 198.284 501.22 196.175 500.678 194.153C500.136 192.131 499.202 190.236 497.928 188.575C496.653 186.915 495.065 185.522 493.252 184.475L493.246 184.486C495.057 185.531 496.645 186.924 497.918 188.583C499.191 190.242 500.125 192.136 500.666 194.156C501.208 196.176 501.346 198.284 501.073 200.357C500.8 202.431 500.121 204.43 499.075 206.242L499.086 206.248Z" fill="#2BBC86" stroke="#2BBC86" stroke-width="1.99235" stroke-linejoin="round"/>
<path d="M493.255 198.278C493.255 197.056 492.974 195.85 492.433 194.753C491.893 193.657 491.107 192.7 490.137 191.955C489.167 191.211 488.039 190.7 486.841 190.462C485.642 190.223 484.404 190.264 483.223 190.58L483.225 190.586C484.405 190.27 485.641 190.229 486.839 190.468C488.037 190.706 489.164 191.217 490.133 191.96C491.103 192.704 491.888 193.66 492.428 194.756C492.968 195.851 493.249 197.057 493.249 198.278H493.255Z" fill="#2BBC86" stroke="#2BBC86" stroke-width="1.99235" stroke-linejoin="round"/>
<path d="M478.384 194.293C477.861 195.2 477.521 196.2 477.385 197.238C477.248 198.275 477.317 199.33 477.588 200.341L477.594 200.339C477.323 199.329 477.254 198.275 477.391 197.239C477.527 196.202 477.867 195.202 478.389 194.296L478.384 194.293Z" fill="#2BBC86" stroke="#2BBC86" stroke-width="1.99235" stroke-linejoin="round"/>
<path d="M475.049 206.318C474.778 207.329 474.311 208.276 473.673 209.107C473.036 209.937 472.242 210.634 471.336 211.157L471.333 211.152C472.238 210.629 473.032 209.933 473.669 209.103C474.305 208.273 474.772 207.326 475.043 206.316L475.049 206.318Z" fill="#2BBC86" stroke="#2BBC86" stroke-width="1.99235" stroke-linejoin="round"/>
<path d="M484.806 198.653C485.601 201.618 485.395 204.763 484.22 207.6C483.045 210.436 480.967 212.805 478.308 214.34L478.303 214.331C480.959 212.797 483.036 210.43 484.21 207.596C485.384 204.761 485.59 201.619 484.796 198.656L484.806 198.653Z" fill="#2BBC86" stroke="#2BBC86" stroke-width="1.99235" stroke-linejoin="round"/>
<path d="M491.874 204.902C492.008 206.072 491.911 207.256 491.587 208.388C491.264 209.52 490.72 210.578 489.988 211.5L489.983 211.495C490.714 210.574 491.257 209.518 491.58 208.386C491.904 207.255 492.001 206.071 491.867 204.903L491.874 204.902Z" fill="#2BBC86" stroke="#2BBC86" stroke-width="1.99235" stroke-linejoin="round"/>
<rect x="444.554" y="158.048" width="80.4601" height="80.4601" rx="6.51344" stroke="#8CE5C4" stroke-width="0.766287"/>
</g>
<g clip-path="url(#clip1_2691_129965)">
<rect x="830.086" y="120.117" width="152.307" height="152.307" fill="#E9EAFF"/>
<path d="M925.971 245.688C925.837 245.755 925.77 245.889 925.636 245.956C926.574 242.203 926.373 236.508 926.239 236.307L933.744 231.214C933.744 231.214 938.97 230.544 942.186 229.673C945.403 228.802 948.954 227.596 948.954 227.596V204.679C949.959 199.587 948.485 186.788 948.485 185.448C948.552 179.15 945.269 166.753 942.655 162.13C942.119 150.002 935.754 142.162 923.491 138.543C915.585 119.513 883.555 126.08 870.824 146.048C867.943 149.399 864.19 157.104 863.453 166.418C861.778 187.526 861.912 217.344 862.716 228.4C862.716 228.4 870.891 231.348 879.468 231.348C880.607 231.348 886.571 236.441 886.571 236.441C886.571 236.374 885.967 239.858 885.833 243.074C876.653 243.141 854.742 249.306 854.742 249.306C863.855 258.151 885.029 270.145 906.539 270.145C924.832 270.145 941.248 264.852 953.109 254.466C953.176 254.399 935.151 246.76 925.971 245.688Z" fill="#D3D5FF"/>
<path d="M953.175 189.134C950.696 185.516 946.475 187.593 944.799 188.933L942.253 172.382C941.516 167.625 939.238 163.202 935.686 159.785C932.202 156.368 927.579 154.089 922.687 153.352L922.285 153.285L917.729 158.11C914.378 161.661 909.956 164.074 905.131 165.079C900.24 166.084 895.214 165.548 890.658 163.604L889.519 163.135C887.508 162.264 885.364 161.862 883.22 161.996C881.076 162.063 878.931 162.599 877.055 163.604C875.179 164.61 873.504 165.95 872.231 167.692C870.958 169.367 870.153 171.31 869.751 173.388L867.071 188.732C865.664 187.593 862.314 185.449 859.231 187.794C856.551 190.407 857.288 192.954 857.288 194.696C857.288 196.438 859.365 200.056 860.437 201.463C861.443 202.737 864.592 205.685 866.468 206.556C867.004 211.448 868.612 216.138 871.025 220.426C874.308 226.189 879.132 231.014 884.962 234.431L885.967 235.034V238.719V245.286L886.704 246.09C893.07 251.518 899.302 253.662 906.605 253.461C913.909 253.327 920.945 251.652 926.238 245.219V238.719V235.101L926.305 235.034L927.311 234.431C933.14 231.014 937.965 226.189 941.248 220.426C943.928 215.736 945.536 210.576 945.938 205.283C947.078 204.479 950.428 201.933 951.366 200.927C952.371 199.654 953.711 197.175 954.046 195.5C954.783 191.412 954.247 190.407 953.175 189.134Z" fill="#D3D5FF"/>
<path d="M885.965 236.106V245.889L886.702 246.492C892.264 251.116 899.434 253.595 906.805 253.461C914.175 253.327 921.278 250.647 926.639 245.889V235.637M885.965 243.008C877.053 243.008 868.208 244.281 859.699 246.76L850.184 249.508M926.706 243.075C935.618 243.075 943.993 244.281 952.503 246.76L962.018 249.508M866.198 190.34V202.335C866.064 208.834 867.605 215.334 870.889 221.097C874.172 226.859 878.997 231.684 884.826 235.101L890.187 238.25C894.944 241.065 900.439 242.539 906 242.539C911.562 242.539 917.057 241.065 921.814 238.25L927.175 235.101C933.004 231.684 937.829 226.859 941.112 221.097C944.396 215.401 946.071 208.901 945.937 202.335L945.2 190.34C944.865 188.531 947.076 186.923 948.55 186.722C951.163 186.387 953.71 188.464 954.447 190.943C955.251 193.423 954.581 196.17 953.374 198.515C951.632 201.933 949.421 204.546 945.937 206.221M866.198 190.34L869.683 173.991C870.085 171.913 870.889 169.97 872.162 168.295C873.435 166.553 875.11 165.213 876.986 164.208C878.863 163.202 881.007 162.666 883.151 162.599C885.295 162.465 887.44 162.867 889.45 163.738L890.589 164.208C895.145 166.151 900.171 166.687 905.062 165.682C909.887 164.677 914.309 162.264 917.66 158.713L922.216 153.888L922.618 153.955C927.51 154.693 932.133 156.971 935.618 160.388C939.169 163.805 941.447 168.228 942.184 172.985L945.133 190.005M866.198 190.34C866.533 188.531 864.322 186.923 862.848 186.722M862.848 186.722C860.771 164.677 864.523 154.693 872.832 143.167C885.295 125.879 915.18 119.648 923.02 138.745M862.848 186.722C860.235 186.387 857.688 188.464 856.951 190.943C856.147 193.423 856.817 196.17 858.023 198.515C859.766 201.933 861.977 204.546 865.461 206.221M923.02 138.745C935.886 143.033 942.586 151.208 943.189 163.336C947.411 170.707 949.086 181.696 948.952 186.722M923.02 138.745C924.025 142.095 924.494 145.044 924.494 147.456M896.15 218.349C902.449 220.225 909.217 220.225 915.582 218.349M905.665 192.485V208.097M862.781 204.68C862.513 212.989 862.781 221.499 862.647 228.869C868.007 230.88 872.765 231.081 878.997 231.349M949.354 203.943C949.153 211.649 949.153 219.89 948.952 227.596C943.591 229.673 938.901 230.411 932.535 231.349" stroke="#BDC0FE" stroke-width="1.57721" stroke-linecap="round" stroke-linejoin="round"/>
<path d="M982.393 199.386C982.393 199.386 945.539 194.897 906.273 194.897C867.007 194.897 830.086 199.855 830.086 199.855C830.086 199.855 849.049 206.757 906.407 206.757C959.075 206.757 982.393 199.386 982.393 199.386Z" fill="url(#paint0_linear_2691_129965)"/>
<path d="M906.807 272.424C906.807 272.424 908.214 235.57 908.214 196.304C908.214 157.038 906.606 120.117 906.606 120.117C906.606 120.117 904.395 139.08 904.395 196.438C904.395 249.106 906.807 272.424 906.807 272.424Z" fill="url(#paint1_linear_2691_129965)"/>
</g>
<rect x="830.086" y="120.117" width="152.307" height="152.307" stroke="#A7ABFE" stroke-width="0.788606"/>
<path d="M829.609 148.126V125.59C829.609 122.567 832.077 120.117 835.122 120.117H857.758M829.609 245.364V267.901C829.609 270.924 832.077 273.374 835.122 273.374H857.758M954.718 120.117H977.354C980.399 120.117 982.867 122.567 982.867 125.59V148.126M954.718 273.374H977.354C980.399 273.374 982.867 270.924 982.867 267.901V245.364" stroke="#A7ABFE" stroke-width="2.36582" stroke-linecap="round"/>
<g filter="url(#filter3_d_2691_129965)">
<rect x="765.246" y="365.328" width="156.149" height="52.0497" rx="4.33747" fill="white"/>
<rect x="821.949" y="383.801" width="79.0374" height="3.90373" rx="1.95186" fill="#FDAB2B"/>
<rect x="821.949" y="396.325" width="51.7417" height="3.46998" rx="1.73499" fill="#FDAB2B"/>
<g clip-path="url(#clip2_2691_129965)">
<rect width="26.7828" height="26.7827" transform="translate(780.363 377.779)" fill="white"/>
<path d="M781.699 404.561C781.699 399.384 785.896 395.187 791.073 395.187H796.43C801.607 395.187 805.804 399.384 805.804 404.561H781.699Z" fill="#FDAB2B"/>
<ellipse cx="793.75" cy="385.812" rx="8.03485" ry="8.03481" fill="#FDAB2B"/>
</g>
<rect x="765.246" y="365.328" width="156.149" height="52.0497" rx="4.33747" stroke="#A7ABFE" stroke-width="0.766287"/>
</g>
<g filter="url(#filter4_d_2691_129965)">
<rect x="811.219" y="297.895" width="156.149" height="52.0497" rx="4.33747" fill="#E9EAFF"/>
<rect x="867.922" y="316.368" width="79.0374" height="3.90373" rx="1.95186" fill="#D3D5FF"/>
<rect x="867.922" y="328.892" width="51.7417" height="3.46998" rx="1.73499" fill="#D3D5FF"/>
<g clip-path="url(#clip3_2691_129965)">
<rect width="26.7828" height="26.7827" transform="translate(826.289 310.44)" fill="#E9EAFF"/>
<path d="M827.629 337.222C827.629 332.045 831.826 327.848 837.003 327.848H842.36C847.537 327.848 851.733 332.045 851.733 337.222H827.629Z" fill="#D3D5FF"/>
<ellipse cx="839.675" cy="318.474" rx="8.03485" ry="8.03481" fill="#D3D5FF"/>
</g>
<rect x="811.219" y="297.895" width="156.149" height="52.0497" rx="4.33747" stroke="#A7ABFE" stroke-width="1.11595"/>
</g>
<g filter="url(#filter5_d_2691_129965)">
<rect x="829.609" y="432.125" width="156.149" height="52.0497" rx="4.33747" fill="#E9EAFF"/>
<rect x="886.312" y="450.598" width="79.0374" height="3.90373" rx="1.95186" fill="#D3D5FF"/>
<rect x="886.312" y="463.121" width="51.7417" height="3.46998" rx="1.73499" fill="#D3D5FF"/>
<g clip-path="url(#clip4_2691_129965)">
<rect width="26.7828" height="26.7827" transform="translate(844.676 444.765)" fill="#E9EAFF"/>
<path d="M846.016 471.548C846.016 466.371 850.212 462.174 855.39 462.174H860.746C865.923 462.174 870.12 466.371 870.12 471.548H846.016Z" fill="#D3D5FF"/>
<ellipse cx="858.062" cy="452.799" rx="8.03485" ry="8.03481" fill="#D3D5FF"/>
</g>
<rect x="829.609" y="432.125" width="156.149" height="52.0497" rx="4.33747" stroke="#A7ABFE" stroke-width="1.11595"/>
</g>
<rect x="185.926" y="244.255" width="153.257" height="160.29" rx="6.1303" fill="#E9EAFF"/>
<path d="M202.062 266.136C203.467 266.136 204.164 265.07 204.393 264.124V266.027H205.27V261.952H202.003V262.849H204.264C204.234 264.413 203.417 265.289 202.222 265.289C200.907 265.289 200.11 264.184 200.11 262.241C200.11 260.299 200.917 259.193 202.252 259.193C203.218 259.193 203.826 259.761 204.124 260.797H205.17C204.772 259.263 203.816 258.346 202.252 258.346C200.319 258.346 199.064 259.771 199.064 262.241C199.064 264.712 200.309 266.136 202.062 266.136ZM209.167 266.136C210.721 266.136 211.687 265.011 211.687 263.357C211.687 261.703 210.721 260.578 209.167 260.578C207.613 260.578 206.637 261.703 206.637 263.357C206.637 265.011 207.613 266.136 209.167 266.136ZM207.633 263.357C207.633 262.112 208.181 261.295 209.167 261.295C210.153 261.295 210.691 262.112 210.691 263.357C210.691 264.602 210.153 265.419 209.167 265.419C208.181 265.419 207.633 264.602 207.633 263.357ZM215.186 266.027H217.089L218.782 260.687H217.786L216.142 265.977L214.489 260.687H213.492L215.186 266.027ZM223.267 266.136C224.442 266.136 225.299 265.598 225.598 264.463H224.602C224.412 265.06 224.014 265.419 223.267 265.419C222.41 265.419 221.862 264.801 221.782 263.646H225.697C225.707 263.516 225.717 263.377 225.717 263.277C225.717 261.633 224.711 260.578 223.257 260.578C221.713 260.578 220.796 261.733 220.796 263.357C220.796 264.961 221.693 266.136 223.267 266.136ZM221.792 262.909C221.912 261.843 222.44 261.295 223.257 261.295C224.104 261.295 224.661 261.962 224.721 262.909H221.792ZM228.817 266.027H229.794V263.367C229.794 262.281 230.391 261.504 232.194 261.504H232.623V260.578H232.334C230.73 260.578 230.043 261.544 229.794 262.281V260.687H228.817V266.027ZM234.916 266.027H235.892V262.869C235.892 261.773 236.37 261.295 237.117 261.295C237.865 261.295 238.343 261.763 238.343 262.849V266.027H239.319V262.699C239.319 261.504 238.691 260.578 237.516 260.578C236.649 260.578 236.131 261.125 235.892 261.763V260.687H234.916V266.027ZM241.094 266.027H242.07V262.869C242.07 261.892 242.24 261.295 242.837 261.295C243.375 261.295 243.614 261.892 243.614 262.869V266.027H244.591V262.869C244.591 261.892 244.76 261.295 245.358 261.295C245.896 261.295 246.135 261.892 246.135 262.869V266.027H247.111V262.719C247.111 261.584 246.752 260.578 245.816 260.578C245.039 260.578 244.65 261.145 244.501 261.783C244.372 261.125 243.943 260.578 243.286 260.578C242.648 260.578 242.22 261.026 242.07 261.614V260.687H241.094V266.027ZM251.167 266.136C252.343 266.136 253.2 265.598 253.498 264.463H252.502C252.313 265.06 251.915 265.419 251.167 265.419C250.311 265.419 249.763 264.801 249.683 263.646H253.598C253.608 263.516 253.618 263.377 253.618 263.277C253.618 261.633 252.612 260.578 251.157 260.578C249.613 260.578 248.697 261.733 248.697 263.357C248.697 264.961 249.593 266.136 251.167 266.136ZM249.693 262.909C249.813 261.843 250.341 261.295 251.157 261.295C252.004 261.295 252.562 261.962 252.622 262.909H249.693ZM255.841 266.027H256.818V262.869C256.818 261.773 257.296 261.295 258.043 261.295C258.79 261.295 259.268 261.763 259.268 262.849V266.027H260.244V262.699C260.244 261.504 259.617 260.578 258.441 260.578C257.575 260.578 257.057 261.125 256.818 261.763V260.687H255.841V266.027ZM265.705 266.027H267.399V265.289H265.805C265.267 265.289 265.028 265.08 265.028 264.562V264.542V261.424H267.399V260.687H265.028V259.422H264.052V260.687H262.05V261.424H264.052V264.542V264.562C264.052 265.538 264.709 266.027 265.705 266.027ZM276.289 266.027H281.539V265.13H279.417V259.352H281.539V258.456H276.289V259.352H278.411V265.13H276.289V266.027ZM283.244 266.027H285.296C287.508 266.027 288.982 264.702 288.982 262.241C288.982 259.781 287.508 258.456 285.296 258.456H283.244V266.027ZM284.25 265.13V259.352H285.326C286.97 259.352 287.936 260.388 287.936 262.241C287.936 264.104 286.97 265.13 285.326 265.13H284.25Z" fill="#A7ABFE"/>
<rect x="198.695" y="279.798" width="127.714" height="0.863866" fill="#A7ABFE"/>
<rect x="198.695" y="293.433" width="127.714" height="98.3401" rx="3.45546" fill="#DEE0FF"/>
<rect x="231.902" y="324.963" width="66.876" height="40.4043" rx="1.27714" fill="#D3D5FF" stroke="#A7ABFE" stroke-width="0.638572"/>
<rect x="226.793" y="319.39" width="66.876" height="40.4043" rx="1.27714" fill="#E9EAFF" stroke="#A7ABFE" stroke-width="0.638572"/>
<path d="M263.02 334.716H285.312" stroke="#A7ABFE" stroke-width="0.638572" stroke-linecap="round"/>
<path d="M263.02 340.289H279.739" stroke="#A7ABFE" stroke-width="0.638572" stroke-linecap="round"/>
<path d="M263.02 345.862H285.312" stroke="#A7ABFE" stroke-width="0.638572" stroke-linecap="round"/>
<g clip-path="url(#clip5_2691_129965)">
<path d="M234.61 349.102C233.207 350.485 233.206 353.784 234.853 353.784H253.544C254.643 353.784 254.607 351.282 254.094 350.485C253.58 349.689 249.633 349.022 247.964 348.801C246.966 349.69 245.66 350.193 244.297 350.214C243.111 350.232 240.45 349.747 240.45 348.261C238.495 348.261 236.425 348.297 234.61 349.102Z" fill="#D3D5FF"/>
<path d="M247.342 332.214C248.264 332.357 250.616 334.047 251.214 335.243C251.094 332.542 250.521 330.264 247.57 329.399C242.845 323.287 234.476 329.863 236.832 339.625C237.465 332.852 239.856 333.449 242.247 334.047C244.638 334.645 246.362 333.157 247.342 332.214Z" fill="#D3D5FF"/>
<path d="M233.766 349.475C235.965 348.835 238.129 348.26 240.445 348.26V348.992C242.602 350.799 245.822 350.896 247.959 348.992V348.26C250.274 348.26 252.439 348.835 254.638 349.475M251.638 341.178C252.719 340.916 253.192 338.829 251.807 338.829M251.638 341.178L251.807 338.829M251.638 341.178C251.714 345.065 247.925 348.394 244.036 348.394C240.25 348.394 236.693 344.919 236.765 341.178M251.807 338.829C251.033 336.047 250.631 332.667 247.218 332.149C246.427 333.449 245.231 334.611 243.438 334.047C240.262 333.048 237.898 333.471 236.862 339.427C236.132 335.3 236.46 332.304 238.005 330.152C240.323 326.925 245.754 325.714 247.218 329.265C251.244 330.606 251.807 335.157 251.807 338.829ZM236.765 341.178C236.765 341.178 237.167 337.52 235.974 338.989C235.318 339.796 235.818 340.942 236.765 341.178ZM242.348 344.159C243.526 344.51 244.787 344.51 245.965 344.159" stroke="#A7ABFE" stroke-width="0.638572" stroke-linecap="round" stroke-linejoin="round"/>
</g>
<rect x="233.526" y="326.616" width="21.3508" height="26.8481" stroke="#A7ABFE" stroke-width="0.638572"/>
<rect x="185.926" y="244.255" width="153.257" height="160.29" rx="6.1303" stroke="#A7ABFE" stroke-width="0.766287"/>
<g filter="url(#filter6_d_2691_129965)">
<rect x="266.391" y="90.2314" width="153.257" height="160.29" rx="6.1303" fill="white"/>
<path d="M282.726 112.113C284.31 112.113 285.416 111.166 285.416 109.811C285.416 108.626 284.789 108.128 283.414 107.769L282.537 107.54C281.511 107.271 281.063 107.042 281.063 106.325C281.063 105.627 281.78 105.169 282.617 105.169C283.404 105.169 283.992 105.538 284.191 106.404H285.237C285.038 105.159 284.091 104.322 282.617 104.322C281.222 104.322 280.067 105.219 280.067 106.424C280.067 107.57 280.884 108.148 281.93 108.417L282.806 108.646C283.882 108.925 284.42 109.094 284.42 109.921C284.42 110.708 283.802 111.266 282.736 111.266C281.74 111.266 281.043 110.748 280.923 109.722H279.877C280.087 111.216 281.162 112.113 282.726 112.113ZM289.781 112.113C290.957 112.113 291.814 111.575 292.112 110.439H291.116C290.927 111.037 290.528 111.395 289.781 111.395C288.925 111.395 288.377 110.778 288.297 109.622H292.212C292.222 109.493 292.232 109.353 292.232 109.253C292.232 107.61 291.226 106.554 289.771 106.554C288.227 106.554 287.311 107.709 287.311 109.333C287.311 110.937 288.207 112.113 289.781 112.113ZM288.307 108.885C288.427 107.819 288.954 107.271 289.771 107.271C290.618 107.271 291.176 107.939 291.236 108.885H288.307ZM294.146 112.003H299.406V111.266H297.265V104.432H294.455V105.169H296.288V111.266H294.146V112.003ZM302.825 105.916V106.663H300.823V107.401H302.825V112.003H303.801V107.401H310.237V111.266H308.095V112.003H313.355V111.266H311.213V106.663H303.801V105.916C303.801 105.329 304.09 105.169 304.578 105.169H306.172V104.432H304.479C303.542 104.432 302.825 104.89 302.825 105.916ZM309.978 105.667H311.213V104.432H309.978V105.667ZM317.682 112.113C318.857 112.113 319.714 111.575 320.013 110.439H319.017C318.828 111.037 318.429 111.395 317.682 111.395C316.825 111.395 316.277 110.778 316.198 109.622H320.113C320.123 109.493 320.133 109.353 320.133 109.253C320.133 107.61 319.126 106.554 317.672 106.554C316.128 106.554 315.211 107.709 315.211 109.333C315.211 110.937 316.108 112.113 317.682 112.113ZM316.208 108.885C316.327 107.819 316.855 107.271 317.672 107.271C318.519 107.271 319.077 107.939 319.136 108.885H316.208Z" fill="black"/>
<rect x="279.16" y="125.774" width="127.714" height="0.863866" fill="#E9EAFF"/>
<rect x="279.16" y="139.41" width="127.714" height="98.3401" rx="3.45546" fill="#FDE7E4"/>
<path d="M360.584 191.081V200.502C358.332 201.267 356.083 201.757 353.717 202.015L353.761 201.957C356.61 198.292 358.101 196.374 358.611 191.781L360.584 191.081Z" fill="#F79E94"/>
<path d="M332.017 202.045C328.491 202.045 325.13 200.833 325.13 200.833C324.981 198.794 324.889 195.204 324.893 191.081L326.576 191.781C326.849 195.727 329.229 199.362 332.017 202.045Z" fill="#F79E94"/>
<path d="M321.852 209.428C321.852 209.428 330.365 206.936 334.14 206.909C338.144 213.583 349.267 210.913 351.492 207.94C355.266 208.381 362.319 211.521 362.292 211.549C357.416 215.819 350.667 217.995 343.146 217.995C334.303 217.995 325.598 213.064 321.852 209.428Z" fill="#F79E94"/>
<path d="M326.576 184.217L325.241 183.772C319.901 167.754 341.259 149.511 350.157 164.639C357.276 165.084 360.391 178.432 360.391 183.175L359.056 184.217C357.937 177.868 356.75 171.738 349.712 169.979C348.823 170.868 344.067 176.243 340.369 175.318C331.47 173.093 328.355 172.649 326.576 184.217Z" fill="#F79E94"/>
<path d="M343.111 206.144C351.466 206.144 358.239 199.025 358.684 191.461C363.133 191.016 365.451 183.194 359.129 183.897C359.129 176.778 354.234 170.104 349.785 170.104C341.776 177.667 340.441 174.998 333.322 173.663C328.949 172.843 326.203 180.04 326.648 183.897C320.218 183.254 322.644 190.126 326.648 191.906C326.648 198.58 334.756 206.144 343.111 206.144Z" fill="#E9EAFF"/>
<path d="M334.687 204.239V208.023C337.136 210.027 340.058 211.194 343.254 211.136C346.285 211.081 349.205 209.979 351.409 208.023V203.808M334.687 206.838C329.59 206.838 324.822 208.111 319.977 209.51M351.436 206.866C356.471 206.866 361.168 208.129 365.954 209.51M349.921 163.974C355.21 165.737 357.965 169.098 358.213 174.084C359.945 175.763 360.747 179.962 360.417 183.698M349.921 163.974C350.334 165.351 350.527 166.564 350.527 167.555M349.921 163.974C339.477 149.512 319.01 169.979 325.684 184.217C322.778 183.844 322.047 186.305 323.2 188.547C323.916 189.952 324.825 191.026 326.257 191.715M360.417 183.698C361.491 183.56 362.538 184.414 362.841 185.434C363.625 187.852 361.391 190.73 359.342 191.715C359.146 183.88 359.5 171.851 349.59 170.2C347.541 172.37 345.608 174.409 342.538 175.048C339.192 175.736 336.704 173.781 333.53 173.781C326.172 173.781 326.574 184.845 326.56 190.117C326.39 198.37 334.432 206.019 342.786 206.019C355.021 206.019 359.665 195.371 359.039 185.186C358.902 184.442 359.811 183.781 360.417 183.698ZM338.874 196.701C341.464 197.472 344.246 197.472 346.863 196.701M342.786 186.067V192.486M325.156 191.081C325.045 194.497 325.156 197.996 325.1 201.026C327.304 201.852 329.26 201.935 331.822 202.045M360.747 190.778C360.665 193.946 360.665 197.334 360.582 200.502C358.378 201.356 356.45 201.659 353.833 202.045" stroke="black" stroke-width="0.638572" stroke-linecap="round" stroke-linejoin="round"/>
<rect x="266.391" y="90.2314" width="153.257" height="160.29" rx="6.1303" stroke="#A7ABFE" stroke-width="0.766287"/>
</g>
<g filter="url(#filter7_d_2691_129965)">
<rect x="308.539" y="365.328" width="61.303" height="61.303" rx="6.1303" fill="white"/>
<rect x="314.664" y="371.459" width="49.0424" height="49.0424" rx="3.06515" fill="#D4F5E9"/>
<path d="M325.392 415.903H322.327C320.634 415.903 319.262 414.531 319.262 412.838V409.773" stroke="#2BBC86" stroke-width="1.53257" stroke-linecap="round" stroke-linejoin="round"/>
<path d="M352.979 415.903H356.044C357.737 415.903 359.109 414.531 359.109 412.838V409.773" stroke="#2BBC86" stroke-width="1.53257" stroke-linecap="round" stroke-linejoin="round"/>
<path d="M325.392 376.056H322.327C320.634 376.056 319.262 377.429 319.262 379.122V382.187" stroke="#2BBC86" stroke-width="1.53257" stroke-linecap="round" stroke-linejoin="round"/>
<path d="M352.979 376.056H356.044C357.737 376.056 359.109 377.429 359.109 379.122V382.187" stroke="#2BBC86" stroke-width="1.53257" stroke-linecap="round" stroke-linejoin="round"/>
<path d="M339.953 387.551V394.447C339.953 396.14 338.581 397.513 336.888 397.513H335.355" stroke="#2BBC86" stroke-width="1.53257" stroke-linecap="round" stroke-linejoin="round"/>
<path d="M329.223 404.409C333.82 409.007 343.016 409.007 347.614 404.409" stroke="#2BBC86" stroke-width="1.53257" stroke-linecap="round" stroke-linejoin="round"/>
<circle cx="329.224" cy="385.252" r="1.53257" fill="#2BBC86"/>
<circle cx="347.615" cy="385.252" r="1.53257" fill="#2BBC86"/>
<rect x="308.156" y="364.945" width="62.0692" height="62.0692" rx="6.51344" stroke="#8CE5C4" stroke-width="0.766287"/>
</g>
<defs>
<filter id="filter0_d_2691_129965" x="713.902" y="237.358" width="55.4785" height="55.4792" filterUnits="userSpaceOnUse" color-interpolation-filters="sRGB">
<feFlood flood-opacity="0" result="BackgroundImageFix"/>
<feColorMatrix in="SourceAlpha" type="matrix" values="0 0 0 0 0 0 0 0 0 0 0 0 0 0 0 0 0 0 127 0" result="hardAlpha"/>
<feOffset dx="4.90424" dy="4.90424"/>
<feComposite in2="hardAlpha" operator="out"/>
<feColorMatrix type="matrix" values="0 0 0 0 0.654902 0 0 0 0 0.670588 0 0 0 0 0.996078 0 0 0 0.3 0"/>
<feBlend mode="normal" in2="BackgroundImageFix" result="effect1_dropShadow_2691_129965"/>
<feBlend mode="normal" in="SourceGraphic" in2="effect1_dropShadow_2691_129965" result="shape"/>
</filter>
<filter id="filter1_d_2691_129965" x="507.008" y="206.707" width="191.572" height="191.572" filterUnits="userSpaceOnUse" color-interpolation-filters="sRGB">
<feFlood flood-opacity="0" result="BackgroundImageFix"/>
<feColorMatrix in="SourceAlpha" type="matrix" values="0 0 0 0 0 0 0 0 0 0 0 0 0 0 0 0 0 0 127 0" result="hardAlpha"/>
<feOffset dx="6.1303" dy="6.1303"/>
<feColorMatrix type="matrix" values="0 0 0 0 0.654902 0 0 0 0 0.670588 0 0 0 0 0.996078 0 0 0 0.3 0"/>
<feBlend mode="normal" in2="BackgroundImageFix" result="effect1_dropShadow_2691_129965"/>
<feBlend mode="normal" in="SourceGraphic" in2="effect1_dropShadow_2691_129965" result="shape"/>
</filter>
<filter id="filter2_d_2691_129965" x="444.172" y="157.665" width="89.1959" height="89.1959" filterUnits="userSpaceOnUse" color-interpolation-filters="sRGB">
<feFlood flood-opacity="0" result="BackgroundImageFix"/>
<feColorMatrix in="SourceAlpha" type="matrix" values="0 0 0 0 0 0 0 0 0 0 0 0 0 0 0 0 0 0 127 0" result="hardAlpha"/>
<feOffset dx="7.96938" dy="7.96938"/>
<feComposite in2="hardAlpha" operator="out"/>
<feColorMatrix type="matrix" values="0 0 0 0 0.654902 0 0 0 0 0.670588 0 0 0 0 0.996078 0 0 0 0.3 0"/>
<feBlend mode="normal" in2="BackgroundImageFix" result="effect1_dropShadow_2691_129965"/>
<feBlend mode="normal" in="SourceGraphic" in2="effect1_dropShadow_2691_129965" result="shape"/>
</filter>
<filter id="filter3_d_2691_129965" x="764.863" y="364.945" width="160.262" height="56.1638" filterUnits="userSpaceOnUse" color-interpolation-filters="sRGB">
<feFlood flood-opacity="0" result="BackgroundImageFix"/>
<feColorMatrix in="SourceAlpha" type="matrix" values="0 0 0 0 0 0 0 0 0 0 0 0 0 0 0 0 0 0 127 0" result="hardAlpha"/>
<feOffset dx="3.34786" dy="3.34786"/>
<feColorMatrix type="matrix" values="0 0 0 0 0.654902 0 0 0 0 0.670588 0 0 0 0 0.996078 0 0 0 0.3 0"/>
<feBlend mode="normal" in2="BackgroundImageFix" result="effect1_dropShadow_2691_129965"/>
<feBlend mode="normal" in="SourceGraphic" in2="effect1_dropShadow_2691_129965" result="shape"/>
</filter>
<filter id="filter4_d_2691_129965" x="810.66" y="297.337" width="160.613" height="56.5134" filterUnits="userSpaceOnUse" color-interpolation-filters="sRGB">
<feFlood flood-opacity="0" result="BackgroundImageFix"/>
<feColorMatrix in="SourceAlpha" type="matrix" values="0 0 0 0 0 0 0 0 0 0 0 0 0 0 0 0 0 0 127 0" result="hardAlpha"/>
<feOffset dx="3.34786" dy="3.34786"/>
<feColorMatrix type="matrix" values="0 0 0 0 0.654902 0 0 0 0 0.670588 0 0 0 0 0.996078 0 0 0 0.3 0"/>
<feBlend mode="normal" in2="BackgroundImageFix" result="effect1_dropShadow_2691_129965"/>
<feBlend mode="normal" in="SourceGraphic" in2="effect1_dropShadow_2691_129965" result="shape"/>
</filter>
<filter id="filter5_d_2691_129965" x="829.051" y="431.568" width="160.613" height="56.5135" filterUnits="userSpaceOnUse" color-interpolation-filters="sRGB">
<feFlood flood-opacity="0" result="BackgroundImageFix"/>
<feColorMatrix in="SourceAlpha" type="matrix" values="0 0 0 0 0 0 0 0 0 0 0 0 0 0 0 0 0 0 127 0" result="hardAlpha"/>
<feOffset dx="3.34786" dy="3.34786"/>
<feColorMatrix type="matrix" values="0 0 0 0 0.654902 0 0 0 0 0.670588 0 0 0 0 0.996078 0 0 0 0.3 0"/>
<feBlend mode="normal" in2="BackgroundImageFix" result="effect1_dropShadow_2691_129965"/>
<feBlend mode="normal" in="SourceGraphic" in2="effect1_dropShadow_2691_129965" result="shape"/>
</filter>
<filter id="filter6_d_2691_129965" x="266.008" y="89.8484" width="160.154" height="167.186" filterUnits="userSpaceOnUse" color-interpolation-filters="sRGB">
<feFlood flood-opacity="0" result="BackgroundImageFix"/>
<feColorMatrix in="SourceAlpha" type="matrix" values="0 0 0 0 0 0 0 0 0 0 0 0 0 0 0 0 0 0 127 0" result="hardAlpha"/>
<feOffset dx="6.1303" dy="6.1303"/>
<feColorMatrix type="matrix" values="0 0 0 0 0.654902 0 0 0 0 0.670588 0 0 0 0 0.996078 0 0 0 0.3 0"/>
<feBlend mode="normal" in2="BackgroundImageFix" result="effect1_dropShadow_2691_129965"/>
<feBlend mode="normal" in="SourceGraphic" in2="effect1_dropShadow_2691_129965" result="shape"/>
</filter>
<filter id="filter7_d_2691_129965" x="307.773" y="364.562" width="68.9662" height="68.9659" filterUnits="userSpaceOnUse" color-interpolation-filters="sRGB">
<feFlood flood-opacity="0" result="BackgroundImageFix"/>
<feColorMatrix in="SourceAlpha" type="matrix" values="0 0 0 0 0 0 0 0 0 0 0 0 0 0 0 0 0 0 127 0" result="hardAlpha"/>
<feOffset dx="6.1303" dy="6.1303"/>
<feColorMatrix type="matrix" values="0 0 0 0 0.654902 0 0 0 0 0.670588 0 0 0 0 0.996078 0 0 0 0.3 0"/>
<feBlend mode="normal" in2="BackgroundImageFix" result="effect1_dropShadow_2691_129965"/>
<feBlend mode="normal" in="SourceGraphic" in2="effect1_dropShadow_2691_129965" result="shape"/>
</filter>
<linearGradient id="paint0_linear_2691_129965" x1="906.239" y1="194.897" x2="906.239" y2="206.742" gradientUnits="userSpaceOnUse">
<stop offset="0.5205" stop-color="#190052" stop-opacity="0"/>
<stop offset="1" stop-color="#190052" stop-opacity="0.3"/>
</linearGradient>
<linearGradient id="paint1_linear_2691_129965" x1="908.214" y1="196.271" x2="904.426" y2="196.271" gradientUnits="userSpaceOnUse">
<stop offset="0.00119739" stop-color="#190052" stop-opacity="0"/>
<stop offset="1" stop-color="#190052" stop-opacity="0.3"/>
</linearGradient>
<clipPath id="clip0_2691_129965">
<rect width="97.3248" height="122.28" fill="white" transform="translate(550.684 238.125)"/>
</clipPath>
<clipPath id="clip1_2691_129965">
<rect x="830.086" y="120.117" width="152.307" height="152.307" fill="white"/>
</clipPath>
<clipPath id="clip2_2691_129965">
<rect width="26.7828" height="26.7827" fill="white" transform="translate(780.363 377.779)"/>
</clipPath>
<clipPath id="clip3_2691_129965">
<rect width="26.7828" height="26.7827" fill="white" transform="translate(826.289 310.44)"/>
</clipPath>
<clipPath id="clip4_2691_129965">
<rect width="26.7828" height="26.7827" fill="white" transform="translate(844.676 444.765)"/>
</clipPath>
<clipPath id="clip5_2691_129965">
<rect x="233.207" y="326.297" width="21.9894" height="27.4867" fill="white"/>
</clipPath>
</defs>
</svg>
