<svg width="842" height="390" viewBox="0 0 842 390" fill="none" xmlns="http://www.w3.org/2000/svg">
<g clip-path="url(#clip0_2691_130309)">
<rect width="841" height="390" transform="translate(0.5)" fill="#E2F9F0"/>
<g clip-path="url(#clip1_2691_130309)">
<rect x="209.637" y="68.1426" width="423.636" height="254" rx="7.25714" fill="white"/>
<rect opacity="0.2" x="318.492" y="68.1426" width="314.779" height="254" fill="#A7ABFE"/>
<rect x="209.637" y="68.1426" width="423.729" height="18.1429" fill="#7379FD"/>
<rect x="217.242" y="73.5859" width="6.07786" height="6.07786" rx="3.03893" fill="#A7ABFE"/>
<rect x="226.738" y="73.5859" width="6.07786" height="6.07786" rx="3.03893" fill="#A7ABFE"/>
<rect x="236.246" y="73.5859" width="6.07786" height="6.07786" rx="3.03893" fill="#A7ABFE"/>
<path d="M229.758 114.667C229.758 110.315 232.946 107.064 237.456 107.064C241.931 107.064 245.213 110.315 245.213 114.728C245.213 119.051 242.05 122.27 237.302 122.27H233.636V127.995C233.636 128.204 233.607 128.231 233.4 128.231H229.994C229.785 128.231 229.758 128.202 229.758 127.995V114.667ZM241.335 114.697C241.335 112.399 239.902 110.643 237.456 110.643C234.977 110.643 233.636 112.402 233.636 114.667V118.693H237.306C239.902 118.693 241.335 116.993 241.335 114.697Z" fill="#A7ABFE"/>
</g>
<rect x="209.637" y="68.1426" width="423.636" height="254" rx="7.25714" stroke="#A7ABFE" stroke-width="0.907143"/>
<rect x="372.922" y="103.521" width="97.0643" height="194.129" rx="12.3585" fill="white"/>
<g opacity="0.2">
<rect width="68.516" height="4.56773" rx="2.28387" transform="matrix(1 0 0 -1 387.121 137.779)" fill="#7379FD"/>
<rect width="45.6773" height="4.56773" rx="2.28387" transform="matrix(1 0 0 -1 398.473 128.645)" fill="#7379FD"/>
</g>
<ellipse cx="421.14" cy="266.308" rx="12.054" ry="12.0541" fill="#F47466"/>
<g clip-path="url(#clip2_2691_130309)">
<path d="M425.893 268.983C425.893 269.199 425.806 269.406 425.649 269.558C425.493 269.711 425.282 269.797 425.061 269.797H417.571C417.35 269.797 417.138 269.711 416.982 269.558C416.826 269.406 416.738 269.199 416.738 268.983V264.507C416.738 264.291 416.826 264.084 416.982 263.932C417.138 263.779 417.35 263.693 417.571 263.693H419.235L420.067 262.473H422.564L423.396 263.693H425.061C425.282 263.693 425.493 263.779 425.649 263.932C425.806 264.084 425.893 264.291 425.893 264.507V268.983Z" stroke="white" stroke-width="1.14193" stroke-linecap="round" stroke-linejoin="round"/>
<path d="M421.315 267.967C422.073 267.967 422.688 267.352 422.688 266.594C422.688 265.836 422.073 265.221 421.315 265.221C420.556 265.221 419.941 265.836 419.941 266.594C419.941 267.352 420.556 267.967 421.315 267.967Z" stroke="white" stroke-width="1.14193" stroke-linecap="round" stroke-linejoin="round"/>
</g>
<rect x="373.375" y="157.949" width="96.1571" height="74.3857" fill="#FEF3F2"/>
<path d="M380.344 170.896V166.328C380.344 165.382 381.111 164.615 382.057 164.615H386.624" stroke="#FDAB2B" stroke-width="1.14193" stroke-linecap="round"/>
<path d="M380.344 216.001V220.568C380.344 221.514 381.111 222.281 382.057 222.281H386.624" stroke="#FDAB2B" stroke-width="1.14193" stroke-linecap="round"/>
<path d="M454.571 164.615H459.139C460.085 164.615 460.852 165.382 460.852 166.328V170.896" stroke="#FDAB2B" stroke-width="1.14193" stroke-linecap="round"/>
<path d="M454.571 222.281H459.139C460.085 222.281 460.852 221.514 460.852 220.568V216.001" stroke="#FDAB2B" stroke-width="1.14193" stroke-linecap="round"/>
<rect x="372.922" y="103.521" width="97.0643" height="194.129" rx="12.3585" stroke="#A7ABFE" stroke-width="0.907143"/>
<g filter="url(#filter0_d_2691_130309)">
<rect x="200.48" y="191.799" width="131.618" height="166.09" rx="6.26753" fill="white"/>
<path d="M215.986 216.684H217.38V213.157H221.266V211.959H217.38V209.619H221.342V208.41H215.986V216.684ZM226.243 216.814C228.017 216.814 229.117 215.562 229.117 213.744C229.117 211.937 228.017 210.686 226.243 210.686C224.468 210.686 223.358 211.937 223.358 213.744C223.358 215.562 224.468 216.814 226.243 216.814ZM224.751 213.744C224.751 212.471 225.274 211.644 226.243 211.644C227.212 211.644 227.723 212.471 227.723 213.744C227.723 215.029 227.212 215.856 226.243 215.856C225.274 215.856 224.751 215.029 224.751 213.744ZM231.59 216.684H232.95V213.276C232.95 212.155 233.397 211.654 234.137 211.654C234.877 211.654 235.324 212.144 235.324 213.255V216.684H236.684V212.993C236.684 211.687 236.053 210.686 234.736 210.686C233.778 210.686 233.201 211.284 232.94 212.003V210.816H231.59V216.684ZM242.728 216.684H244.644V215.671H242.957C242.412 215.671 242.162 215.464 242.162 214.942V214.92V211.818H244.644V210.816H242.162V209.423H240.801V210.816H238.711V211.818H240.801V214.985V215.007C240.801 216.118 241.585 216.684 242.728 216.684ZM249.762 216.814C251.221 216.814 252.31 216.139 252.31 214.975C252.31 214.027 251.776 213.494 250.579 213.233L249.664 213.037C248.989 212.884 248.652 212.743 248.652 212.34C248.652 211.894 249.164 211.644 249.719 211.644C250.209 211.644 250.677 211.883 250.829 212.318H252.201C251.95 211.23 250.916 210.686 249.719 210.686C248.412 210.686 247.335 211.371 247.335 212.449C247.335 213.342 247.966 213.832 249.011 214.06L249.926 214.267C250.644 214.419 250.992 214.604 250.992 215.105C250.992 215.562 250.568 215.856 249.795 215.856C249.294 215.856 248.728 215.66 248.587 214.942H247.204C247.389 216.183 248.412 216.814 249.762 216.814Z" fill="black"/>
<line x1="214.974" y1="229.827" x2="317.605" y2="229.827" stroke="#E9EAFF" stroke-width="0.783442" stroke-linecap="round"/>
<rect x="253.754" y="249.805" width="62.6753" height="6.26753" rx="3.13377" fill="#E9EAFF"/>
<rect x="253.754" y="259.207" width="52.4906" height="4.70065" rx="2.35032" fill="#E9EAFF"/>
<path d="M222.307 250.329L220.096 257.121H224.464L222.307 250.329ZM214.822 263.754V262.316L216.979 261.996L222.387 246.227H225.13L230.591 262.182L232.216 262.369V263.754H223.985V262.369L226.036 262.102L224.944 258.666H219.59L218.524 261.996L220.549 262.316V263.754H214.822ZM243.377 264.127C241.832 264.127 240.855 263.488 240.447 262.209C239.879 262.813 239.328 263.292 238.795 263.647C238.281 263.985 237.561 264.153 236.638 264.153C235.608 264.153 234.764 263.86 234.107 263.274C233.468 262.688 233.148 261.845 233.148 260.744C233.148 260.105 233.291 259.528 233.575 259.013C233.859 258.498 234.374 258.018 235.12 257.574C235.865 257.13 236.922 256.713 238.289 256.322C238.556 256.233 238.867 256.145 239.222 256.056C239.577 255.967 239.941 255.878 240.314 255.789V254.91C240.314 253.721 240.163 252.913 239.861 252.486C239.577 252.06 239.009 251.847 238.156 251.847C238.032 251.847 237.916 251.847 237.81 251.847C237.703 251.847 237.579 251.856 237.437 251.874L237.304 253.046C237.286 253.916 237.082 254.546 236.691 254.937C236.318 255.328 235.874 255.523 235.359 255.523C234.383 255.523 233.788 255.079 233.575 254.191C233.646 253.09 234.205 252.193 235.253 251.501C236.3 250.808 237.783 250.462 239.701 250.462C241.406 250.462 242.622 250.853 243.35 251.634C244.096 252.415 244.469 253.703 244.469 255.496V261.463C244.469 261.978 244.665 262.236 245.055 262.236C245.197 262.236 245.33 262.2 245.455 262.129C245.579 262.04 245.712 261.88 245.854 261.65L246.574 262.129C246.254 262.839 245.837 263.354 245.322 263.674C244.824 263.976 244.176 264.127 243.377 264.127ZM237.091 260.051C237.091 260.708 237.242 261.197 237.544 261.516C237.863 261.836 238.245 261.996 238.689 261.996C238.884 261.996 239.088 261.951 239.302 261.863C239.515 261.774 239.852 261.57 240.314 261.25V256.935C240.083 257.006 239.852 257.086 239.621 257.175C239.408 257.246 239.222 257.317 239.062 257.388C238.458 257.636 237.979 257.991 237.623 258.453C237.268 258.897 237.091 259.43 237.091 260.051Z" fill="#F47466"/>
<rect x="214.582" y="282.289" width="103.414" height="62.6753" rx="6.26753" fill="white"/>
<rect x="200.48" y="191.799" width="131.618" height="166.09" rx="6.26753" stroke="#A7ABFE" stroke-width="0.907143"/>
</g>
<g filter="url(#filter1_d_2691_130309)">
<rect x="176.977" y="282.678" width="134.752" height="59.5416" rx="6.26753" fill="white"/>
<rect x="233.383" y="309.314" width="62.6753" height="6.26753" rx="3.13377" fill="#E9EAFF"/>
<rect x="233.383" y="318.715" width="52.4906" height="4.70065" rx="2.35032" fill="#E9EAFF"/>
<path d="M192.998 322.346H197.38L198.632 317.175H205.735L206.986 322.346H211.368L206.007 301.663H198.36L192.998 322.346ZM199.503 313.555L202.17 302.398L204.864 313.555H199.503ZM219.02 322.672C221.687 322.672 222.967 321.339 223.783 319.597V322.346H227.892V313.066V313.011C227.892 310.018 226.096 307.242 221.225 307.242C217.578 307.242 214.857 309.038 214.53 312.059H218.721C218.857 310.97 219.755 310.072 221.225 310.072C222.885 310.072 223.729 311.215 223.729 312.739V312.793V312.984L219.946 313.365C217.115 313.637 214.013 314.481 214.013 317.855C214.013 320.713 216.217 322.672 219.02 322.672ZM218.258 317.855C218.258 316.141 220.055 315.869 221.47 315.705L223.729 315.488V316.059C223.729 318.345 222.694 320.169 220.653 320.169C219.32 320.169 218.258 319.298 218.258 317.855Z" fill="black"/>
<rect x="176.977" y="282.678" width="134.752" height="59.5416" rx="6.26753" stroke="#A7ABFE" stroke-width="0.907143"/>
</g>
<g filter="url(#filter2_d_2691_130309)">
<rect x="504.648" y="28.5117" width="132.966" height="204.107" rx="6.33174" fill="white"/>
<path d="M522.922 53.6795C524.675 53.6795 525.818 52.6344 526.21 50.7839H524.805C524.512 51.916 523.902 52.5365 522.922 52.5365C521.605 52.5365 520.843 51.3935 520.843 49.4123C520.843 47.4311 521.605 46.2881 522.922 46.2881C523.902 46.2881 524.501 46.8977 524.784 48.0298H526.188C525.785 46.1901 524.675 45.1451 522.922 45.1451C520.767 45.1451 519.406 46.7126 519.406 49.4123C519.406 52.1119 520.767 53.6795 522.922 53.6795ZM530.555 53.6795C532.33 53.6795 533.429 52.4276 533.429 50.6097C533.429 48.8027 532.33 47.5508 530.555 47.5508C528.781 47.5508 527.671 48.8027 527.671 50.6097C527.671 52.4276 528.781 53.6795 530.555 53.6795ZM529.064 50.6097C529.064 49.3361 529.586 48.5087 530.555 48.5087C531.524 48.5087 532.036 49.3361 532.036 50.6097C532.036 51.8942 531.524 52.7215 530.555 52.7215C529.586 52.7215 529.064 51.8942 529.064 50.6097ZM535.652 53.5488H541.519V52.5365H539.266V45.2757H535.978V46.2881H537.905V52.5365H535.652V53.5488ZM546.235 53.6795C548.009 53.6795 549.109 52.4276 549.109 50.6097C549.109 48.8027 548.009 47.5508 546.235 47.5508C544.461 47.5508 543.35 48.8027 543.35 50.6097C543.35 52.4276 544.461 53.6795 546.235 53.6795ZM544.744 50.6097C544.744 49.3361 545.266 48.5087 546.235 48.5087C547.204 48.5087 547.715 49.3361 547.715 50.6097C547.715 51.8942 547.204 52.7215 546.235 52.7215C545.266 52.7215 544.744 51.8942 544.744 50.6097ZM552.475 53.5488H553.835V50.7403C553.835 49.5973 554.478 48.8244 556.361 48.8244H556.916V47.5508H556.589C554.837 47.5508 554.064 48.6611 553.824 49.5102V47.6814H552.475V53.5488Z" fill="black"/>
<rect x="518.895" y="76.3203" width="104.474" height="71.232" rx="6.33174" fill="white"/>
<rect x="550.555" y="197.025" width="47.488" height="9.4976" rx="4.7488" fill="#E9EAFF"/>
<rect x="519.29" y="191.089" width="21.3696" height="21.3696" rx="1.1872" fill="#F47466" stroke="#E9EAFF" stroke-width="0.791467"/>
<rect x="544.614" y="191.089" width="78.3552" height="21.3696" rx="1.1872" stroke="#E9EAFF" stroke-width="0.791467"/>
<rect x="518.895" y="169.324" width="63.3174" height="6.33174" rx="3.16587" fill="#E9EAFF"/>
<rect x="518.895" y="178.822" width="53.0283" height="4.7488" rx="2.3744" fill="#E9EAFF"/>
<rect x="504.648" y="28.5117" width="132.966" height="204.107" rx="6.33174" stroke="#A7ABFE" stroke-width="0.907143"/>
</g>
<g filter="url(#filter3_d_2691_130309)">
<rect x="525.035" y="69.7754" width="136.131" height="75.1881" rx="6.33174" fill="white"/>
<rect x="541.259" y="107.37" width="21.3696" height="21.3696" rx="1.1872" fill="#FDAB2B" stroke="#E9EAFF" stroke-width="0.791467"/>
<rect x="566.583" y="107.37" width="78.3552" height="21.3696" rx="1.1872" stroke="#E9EAFF" stroke-width="0.791467"/>
<rect x="572.523" y="113.307" width="47.488" height="9.4976" rx="4.7488" fill="#E9EAFF"/>
<path d="M633.348 115.568L638.385 120.605M633.408 120.605L638.445 115.568" stroke="#E9EAFF" stroke-width="0.791467" stroke-linecap="round"/>
<rect x="540.863" y="85.6055" width="63.3174" height="6.33174" rx="3.16587" fill="#E9EAFF"/>
<rect x="540.863" y="95.1016" width="53.0283" height="4.7488" rx="2.3744" fill="#E9EAFF"/>
<rect x="525.035" y="69.7754" width="136.131" height="75.1881" rx="6.33174" stroke="#A7ABFE" stroke-width="0.907143"/>
</g>
<path d="M635.524 190.487C634.028 189.864 632.528 191.364 633.151 192.86L641.261 212.326C641.904 213.87 644.116 213.795 644.654 212.212L646.958 205.428C647.139 204.895 647.559 204.475 648.092 204.294L654.876 201.99C656.459 201.452 656.534 199.24 654.99 198.597L635.524 190.487Z" fill="#878CFD" stroke="black" stroke-width="0.907143" stroke-linecap="round" stroke-linejoin="round"/>
</g>
<defs>
<filter id="filter0_d_2691_130309" x="200.027" y="191.346" width="139.781" height="174.253" filterUnits="userSpaceOnUse" color-interpolation-filters="sRGB">
<feFlood flood-opacity="0" result="BackgroundImageFix"/>
<feColorMatrix in="SourceAlpha" type="matrix" values="0 0 0 0 0 0 0 0 0 0 0 0 0 0 0 0 0 0 127 0" result="hardAlpha"/>
<feOffset dx="7.25714" dy="7.25714"/>
<feColorMatrix type="matrix" values="0 0 0 0 0.654902 0 0 0 0 0.670588 0 0 0 0 0.996078 0 0 0 0.3 0"/>
<feBlend mode="normal" in2="BackgroundImageFix" result="effect1_dropShadow_2691_130309"/>
<feBlend mode="normal" in="SourceGraphic" in2="effect1_dropShadow_2691_130309" result="shape"/>
</filter>
<filter id="filter1_d_2691_130309" x="176.523" y="282.225" width="142.917" height="67.7064" filterUnits="userSpaceOnUse" color-interpolation-filters="sRGB">
<feFlood flood-opacity="0" result="BackgroundImageFix"/>
<feColorMatrix in="SourceAlpha" type="matrix" values="0 0 0 0 0 0 0 0 0 0 0 0 0 0 0 0 0 0 127 0" result="hardAlpha"/>
<feOffset dx="7.25714" dy="7.25714"/>
<feColorMatrix type="matrix" values="0 0 0 0 0.654902 0 0 0 0 0.670588 0 0 0 0 0.996078 0 0 0 0.3 0"/>
<feBlend mode="normal" in2="BackgroundImageFix" result="effect1_dropShadow_2691_130309"/>
<feBlend mode="normal" in="SourceGraphic" in2="effect1_dropShadow_2691_130309" result="shape"/>
</filter>
<filter id="filter2_d_2691_130309" x="496.938" y="28.0586" width="141.132" height="212.271" filterUnits="userSpaceOnUse" color-interpolation-filters="sRGB">
<feFlood flood-opacity="0" result="BackgroundImageFix"/>
<feColorMatrix in="SourceAlpha" type="matrix" values="0 0 0 0 0 0 0 0 0 0 0 0 0 0 0 0 0 0 127 0" result="hardAlpha"/>
<feOffset dx="-7.25714" dy="7.25714"/>
<feColorMatrix type="matrix" values="0 0 0 0 0.654902 0 0 0 0 0.670588 0 0 0 0 0.996078 0 0 0 0.3 0"/>
<feBlend mode="normal" in2="BackgroundImageFix" result="effect1_dropShadow_2691_130309"/>
<feBlend mode="normal" in="SourceGraphic" in2="effect1_dropShadow_2691_130309" result="shape"/>
</filter>
<filter id="filter3_d_2691_130309" x="517.325" y="69.3223" width="144.296" height="83.3528" filterUnits="userSpaceOnUse" color-interpolation-filters="sRGB">
<feFlood flood-opacity="0" result="BackgroundImageFix"/>
<feColorMatrix in="SourceAlpha" type="matrix" values="0 0 0 0 0 0 0 0 0 0 0 0 0 0 0 0 0 0 127 0" result="hardAlpha"/>
<feOffset dx="-7.25714" dy="7.25714"/>
<feColorMatrix type="matrix" values="0 0 0 0 0.654902 0 0 0 0 0.670588 0 0 0 0 0.996078 0 0 0 0.3 0"/>
<feBlend mode="normal" in2="BackgroundImageFix" result="effect1_dropShadow_2691_130309"/>
<feBlend mode="normal" in="SourceGraphic" in2="effect1_dropShadow_2691_130309" result="shape"/>
</filter>
<clipPath id="clip0_2691_130309">
<rect width="841" height="390" fill="white" transform="translate(0.5)"/>
</clipPath>
<clipPath id="clip1_2691_130309">
<rect x="209.637" y="68.1426" width="423.636" height="254" rx="7.25714" fill="white"/>
</clipPath>
<clipPath id="clip2_2691_130309">
<rect width="10.986" height="10.986" fill="white" transform="translate(415.82 260.643)"/>
</clipPath>
</defs>
</svg>
