<svg width="33" height="32" viewBox="0 0 33 32" fill="none" xmlns="http://www.w3.org/2000/svg">
<path d="M25.5 2C24.9477 2 24.5 2.44772 24.5 3C24.5 3.55228 24.9477 4 25.5 4H27.5C28.0523 4 28.5 4.44772 28.5 5V7C28.5 7.55228 28.9477 8 29.5 8C30.0523 8 30.5 7.55228 30.5 7V5C30.5 3.34315 29.1569 2 27.5 2H25.5Z" fill="black"/>
<path d="M30.5 25C30.5 24.4477 30.0523 24 29.5 24C28.9477 24 28.5 24.4477 28.5 25V27C28.5 27.5523 28.0523 28 27.5 28H25.5C24.9477 28 24.5 28.4477 24.5 29C24.5 29.5523 24.9477 30 25.5 30H27.5C29.1569 30 30.5 28.6569 30.5 27V25Z" fill="black"/>
<path fill-rule="evenodd" clip-rule="evenodd" d="M12.5 16C12.5 13.7909 14.2909 12 16.5 12C18.7091 12 20.5 13.7909 20.5 16C20.5 18.2091 18.7091 20 16.5 20C14.2909 20 12.5 18.2091 12.5 16ZM16.5 14C15.3954 14 14.5 14.8954 14.5 16C14.5 17.1046 15.3954 18 16.5 18C17.6046 18 18.5 17.1046 18.5 16C18.5 14.8954 17.6046 14 16.5 14Z" fill="black"/>
<path fill-rule="evenodd" clip-rule="evenodd" d="M28.4387 16.345C28.5202 16.1228 28.5202 15.8772 28.4387 15.655L28.4373 15.6513L28.4345 15.6436L28.425 15.6186C28.4171 15.5977 28.4058 15.5684 28.3912 15.5314C28.3619 15.4573 28.3192 15.3521 28.2627 15.22C28.1497 14.956 27.9814 14.584 27.7553 14.1399C27.3042 13.2542 26.6166 12.0688 25.6706 10.878C23.7895 8.51015 20.7818 6 16.5001 6C12.2183 6 9.2107 8.51015 7.32961 10.878C6.38359 12.0688 5.69599 13.2542 5.24493 14.1399C5.01878 14.584 4.85045 14.956 4.73753 15.22C4.68103 15.3521 4.63829 15.4573 4.60903 15.5314C4.59439 15.5684 4.58311 15.5977 4.57516 15.6186L4.56572 15.6436L4.56285 15.6513L4.56188 15.6539L4.56151 15.655C4.48002 15.8772 4.47972 16.122 4.56122 16.3442C4.56117 16.344 4.56284 16.3434 4.6786 16.301L5.4961 16.0015L4.56122 16.3442L4.56188 16.3461L4.56285 16.3487L4.56572 16.3564L4.57516 16.3814C4.58311 16.4023 4.59439 16.4316 4.60903 16.4686C4.63829 16.5427 4.68103 16.6479 4.73753 16.78C4.85045 17.044 5.01878 17.416 5.24493 17.8601C5.69599 18.7458 6.38359 19.9312 7.32961 21.122C9.2107 23.4898 12.2183 26 16.5001 26C20.7818 26 23.7895 23.4898 25.6706 21.122C26.6166 19.9312 27.3042 18.7458 27.7553 17.8601C27.9814 17.416 28.1497 17.044 28.2627 16.78C28.3192 16.6479 28.3619 16.5427 28.3912 16.4686C28.4058 16.4316 28.4171 16.4023 28.425 16.3814L28.4345 16.3564L28.4373 16.3487L28.4387 16.345ZM6.57916 16C6.67684 16.228 6.82555 16.5566 7.02714 16.9524C7.43546 17.7542 8.05411 18.8188 8.89558 19.878C10.5895 22.0102 13.0818 24 16.5001 24C19.9184 24 22.4107 22.0102 24.1046 19.878C24.9461 18.8188 25.5647 17.7542 25.9731 16.9524C26.1746 16.5566 26.3234 16.228 26.421 16C26.3234 15.772 26.1746 15.4434 25.9731 15.0476C25.5647 14.2458 24.9461 13.1812 24.1046 12.122C22.4107 9.98985 19.9184 8 16.5001 8C13.0818 8 10.5895 9.98985 8.89558 12.122C8.05411 13.1812 7.43546 14.2458 7.02714 15.0476C6.82555 15.4434 6.67684 15.772 6.57916 16ZM27.5001 16C28.439 15.6557 28.4388 15.6554 28.4387 15.655L27.5001 16ZM28.4387 16.345C28.4388 16.3446 28.439 16.3443 27.5001 16L28.4387 16.345ZM5.5001 16L4.56151 15.655C4.56136 15.6554 4.56122 15.6557 5.5001 16Z" fill="black"/>
<path d="M3.5 24C4.05228 24 4.5 24.4477 4.5 25V27C4.5 27.5523 4.94772 28 5.5 28H7.5C8.05228 28 8.5 28.4477 8.5 29C8.5 29.5523 8.05228 30 7.5 30H5.5C3.84315 30 2.5 28.6569 2.5 27V25C2.5 24.4477 2.94772 24 3.5 24Z" fill="black"/>
<path d="M5.5 2C3.84315 2 2.5 3.34315 2.5 5V7C2.5 7.55228 2.94772 8 3.5 8C4.05228 8 4.5 7.55228 4.5 7V5C4.5 4.44772 4.94772 4 5.5 4H7.5C8.05228 4 8.5 3.55228 8.5 3C8.5 2.44772 8.05228 2 7.5 2H5.5Z" fill="black"/>
</svg>
