<svg width="33" height="32" viewBox="0 0 33 32" fill="none" xmlns="http://www.w3.org/2000/svg">
<path fill-rule="evenodd" clip-rule="evenodd" d="M11.5 15C11.5 14.4477 11.9477 14 12.5 14H13.5V13C13.5 11.3431 14.8431 10 16.5 10C18.1569 10 19.5 11.3431 19.5 13V14H20.5C21.0523 14 21.5 14.4477 21.5 15V21C21.5 21.5523 21.0523 22 20.5 22H12.5C11.9477 22 11.5 21.5523 11.5 21V15ZM17.5 14V13C17.5 12.4477 17.0523 12 16.5 12C15.9477 12 15.5 12.4477 15.5 13V14H17.5ZM13.5 16V20H19.5V16H13.5Z" fill="black"/>
<path fill-rule="evenodd" clip-rule="evenodd" d="M16.1286 1.07152C16.367 0.976159 16.633 0.976159 16.8714 1.07152L26.8714 5.07152C27.251 5.22339 27.5 5.5911 27.5 6V20C27.5 26.0751 22.5751 31 16.5 31C10.4249 31 5.5 26.0751 5.5 20V6C5.5 5.5911 5.74895 5.22339 6.12861 5.07152L16.1286 1.07152ZM7.5 6.67703V20C7.5 24.9706 11.5294 29 16.5 29C21.4706 29 25.5 24.9706 25.5 20V6.67703L16.5 3.07703L7.5 6.67703Z" fill="black"/>
</svg>
