<svg width="37" height="36" viewBox="0 0 37 36" fill="none" xmlns="http://www.w3.org/2000/svg">
<path d="M18.5 16.5V22.5M15.5 19.5H21.5M28.5 25C28.5 25.5304 28.2893 26.0391 27.9142 26.4142C27.5391 26.7893 27.0304 27 26.5 27H10.5C9.96957 27 9.46086 26.7893 9.08579 26.4142C8.71071 26.0391 8.5 25.5304 8.5 25V11C8.5 10.4696 8.71071 9.96086 9.08579 9.58579C9.46086 9.21071 9.96957 9 10.5 9H15.5L17.5 12H26.5C27.0304 12 27.5391 12.2107 27.9142 12.5858C28.2893 12.9609 28.5 13.4696 28.5 14V25Z" stroke="black" stroke-width="2" stroke-linecap="round" stroke-linejoin="round"/>
</svg>
