<svg width="33" height="32" viewBox="0 0 33 32" fill="none" xmlns="http://www.w3.org/2000/svg">
<path d="M20.7474 11.3415L14.5598 18.4131L12.3 15.4L10.7 16.6L13.7 20.6C13.8809 20.8412 14.161 20.9879 14.4623 20.9993C14.7636 21.0106 15.054 20.8854 15.2525 20.6585L22.2525 12.6585L20.7474 11.3415Z" fill="black"/>
<path fill-rule="evenodd" clip-rule="evenodd" d="M16.8714 1.07152C16.633 0.976159 16.367 0.976159 16.1286 1.07152L6.12861 5.07152C5.74895 5.22339 5.5 5.5911 5.5 6V20C5.5 26.0751 10.4249 31 16.5 31C22.5751 31 27.5 26.0751 27.5 20V6C27.5 5.5911 27.251 5.22339 26.8714 5.07152L16.8714 1.07152ZM7.5 20V6.67703L16.5 3.07703L25.5 6.67703V20C25.5 24.9706 21.4706 29 16.5 29C11.5294 29 7.5 24.9706 7.5 20Z" fill="black"/>
</svg>
