<svg width="33" height="32" viewBox="0 0 33 32" fill="none" xmlns="http://www.w3.org/2000/svg">
<path fill-rule="evenodd" clip-rule="evenodd" d="M5.20711 3.29289C4.81658 2.90237 4.18342 2.90237 3.79289 3.29289C3.40237 3.68342 3.40237 4.31658 3.79289 4.70711L8.43033 9.34454C6.47104 11.0861 4.83742 13.1851 3.61291 15.5384C3.46698 15.8189 3.46226 16.1518 3.60019 16.4363L4.5 16C3.60019 16.4363 3.60001 16.4359 3.60019 16.4363L3.60097 16.4379L3.60217 16.4404L3.60576 16.4477L3.6178 16.472C3.62797 16.4924 3.64244 16.5211 3.66117 16.5576C3.69862 16.6306 3.75315 16.7347 3.82452 16.8656C3.96718 17.1271 4.17754 17.4962 4.45362 17.937C5.00451 18.8167 5.82362 19.9926 6.89642 21.1727C9.02146 23.5102 12.2701 26 16.5 26L16.5169 25.9999C18.835 25.9608 21.0842 25.2314 22.9972 23.9114L27.7929 28.7071C28.1834 29.0976 28.8166 29.0976 29.2071 28.7071C29.5976 28.3166 29.5976 27.6834 29.2071 27.2929L17.2118 15.2976L14.9083 12.9221L14.9046 12.9183L10.7379 8.62138C10.6033 8.48257 10.4373 8.39063 10.2612 8.34698L5.20711 3.29289ZM14.3027 15.2169L15.7869 16.7012L17.3079 18.2696C17.0383 18.3895 16.7496 18.4535 16.4579 18.4588C16.1572 18.4643 15.8578 18.4073 15.5772 18.2904C15.2965 18.1735 15.0394 17.9986 14.8221 17.7745C14.6047 17.5504 14.4317 17.2816 14.315 16.9835C14.1982 16.6853 14.1405 16.365 14.146 16.0418C14.1508 15.7584 14.2042 15.4792 14.3027 15.2169ZM9.84724 10.7615L12.8165 13.7307C12.7006 13.9167 12.5984 14.1116 12.511 14.314C12.28 14.8485 12.1563 15.4244 12.1463 16.0076C12.1363 16.5907 12.2403 17.1706 12.4527 17.7129C12.6651 18.2553 12.9821 18.75 13.3863 19.1668C13.7905 19.5837 14.2738 19.9141 14.8082 20.1367C15.3426 20.3593 15.9161 20.469 16.4943 20.4585C17.0724 20.448 17.6417 20.3175 18.1679 20.0757C18.3692 19.9832 18.5625 19.8752 18.7463 19.7529L21.4459 22.5369C19.9506 23.4621 18.2428 23.9689 16.4916 24C13.089 23.9967 10.3406 21.988 8.3763 19.8273C7.40365 18.7574 6.65458 17.6833 6.14865 16.8755C5.92934 16.5253 5.75696 16.2271 5.633 16.0037C6.73442 14.0152 8.16106 12.2419 9.84724 10.7615Z" fill="black"/>
<path fill-rule="evenodd" clip-rule="evenodd" d="M14.4437 8.24211C15.1172 8.07955 15.8064 7.99835 16.4976 8.00003L16.5 8.00003C19.9065 8.00003 22.6578 10.0102 24.6237 12.1727C25.5963 13.2426 26.3454 14.3167 26.8513 15.1245C27.071 15.4752 27.2435 15.7737 27.3675 15.9973C26.7898 17.0444 26.1208 18.0349 25.3688 18.9566C25.0197 19.3845 25.0835 20.0144 25.5114 20.3636C25.9393 20.7127 26.5693 20.6489 26.9184 20.221C27.8666 19.0589 28.6941 17.7985 29.3878 16.4602C29.5331 16.18 29.5375 15.8477 29.3998 15.5637L28.5 16C29.3998 15.5637 29.4 15.5641 29.3998 15.5637L29.399 15.5621L29.3978 15.5597L29.3942 15.5523L29.3822 15.528C29.372 15.5076 29.3576 15.4789 29.3388 15.4424C29.3014 15.3694 29.2468 15.2653 29.1755 15.1344C29.0328 14.8729 28.8225 14.5038 28.5464 14.063C27.9955 13.1833 27.1764 12.0074 26.1036 10.8273C23.9787 8.49003 20.7305 6.0005 16.5012 6.00003C15.6504 5.99806 14.8025 6.09808 13.9744 6.29795C13.4376 6.42754 13.1074 6.96781 13.237 7.50468C13.3666 8.04154 13.9069 8.3717 14.4437 8.24211ZM16.5012 6.00003H16.5V7.00003L16.5024 6.00003L16.5012 6.00003ZM28.5 16L27.6122 15.5398C27.5325 15.6935 27.451 15.846 27.3675 15.9973C27.386 16.0306 27.4034 16.0622 27.4197 16.0921C27.4826 16.2074 27.5292 16.2966 27.5594 16.3555C27.5745 16.3849 27.5855 16.4067 27.5923 16.4204L27.5994 16.4347L27.6004 16.4368C27.6003 16.4366 27.6002 16.4363 28.5 16Z" fill="black"/>
</svg>
