<svg width="36" height="36" viewBox="0 0 36 36" fill="none" xmlns="http://www.w3.org/2000/svg">
<path d="M20.7013 12.3002C20.5181 12.4872 20.4155 12.7385 20.4155 13.0002C20.4155 13.262 20.5181 13.5133 20.7013 13.7002L22.3013 15.3002C22.4882 15.4835 22.7396 15.5861 23.0013 15.5861C23.2631 15.5861 23.5144 15.4835 23.7013 15.3002L27.4713 11.5302C27.9742 12.6414 28.1264 13.8795 27.9078 15.0794C27.6891 16.2793 27.11 17.3841 26.2476 18.2465C25.3852 19.1089 24.2804 19.6881 23.0805 19.9067C21.8806 20.1253 20.6425 19.9731 19.5313 19.4702L12.6213 26.3802C12.2235 26.778 11.6839 27.0015 11.1213 27.0015C10.5587 27.0015 10.0191 26.778 9.62132 26.3802C9.2235 25.9824 9 25.4428 9 24.8802C9 24.3176 9.2235 23.778 9.62132 23.3802L16.5313 16.4702C16.0285 15.359 15.8762 14.121 16.0949 12.9211C16.3135 11.7212 16.8926 10.6164 17.755 9.75395C18.6175 8.89151 19.7223 8.31239 20.9222 8.09377C22.1221 7.87514 23.3601 8.02739 24.4713 8.53022L20.7113 12.2902L20.7013 12.3002Z" stroke="#0E0E11" stroke-width="1.875" stroke-linecap="round" stroke-linejoin="round"/>
</svg>
