<svg width="842" height="390" viewBox="0 0 842 390" fill="none" xmlns="http://www.w3.org/2000/svg">
<g clip-path="url(#clip0_2917_136891)">
<rect width="841" height="390" transform="translate(0.5)" fill="#F2F2F2"/>
<path d="M407.5 213H435.5C437.709 213 439.5 211.209 439.5 209V181C439.5 178.791 437.709 177 435.5 177H407.5C405.291 177 403.5 178.791 403.5 181V209C403.5 211.209 405.291 213 407.5 213ZM407.5 213L429.5 191L439.5 201M417.5 188C417.5 189.657 416.157 191 414.5 191C412.843 191 411.5 189.657 411.5 188C411.5 186.343 412.843 185 414.5 185C416.157 185 417.5 186.343 417.5 188Z" stroke="#5B5B5B" stroke-width="3" stroke-linecap="round" stroke-linejoin="round"/>
<path d="M279.173 116.56H271.077V158.624H279.173V156.38H273.981V118.804H279.173V116.56ZM294.523 150.484C302.487 150.484 307.591 146.26 307.591 140.32C307.591 135.524 304.687 133.148 297.735 131.608L293.863 130.728C288.407 129.54 285.855 128.264 285.855 124.656C285.855 121.136 289.419 118.672 294.391 118.672C299.099 118.672 302.751 120.828 303.675 125.14H306.799C305.919 119.596 301.079 116.076 294.391 116.076C287.747 116.076 282.775 119.948 282.775 124.92C282.775 129.98 286.823 132.224 291.795 133.324L295.623 134.16C301.695 135.524 304.511 136.8 304.511 140.628C304.511 144.896 300.859 147.888 294.523 147.888C289.551 147.888 285.547 145.072 284.843 140.1H281.719C282.643 146.436 287.659 150.484 294.523 150.484ZM323.151 150L313.823 116.56H310.611L319.939 150H323.151ZM326.583 150L334.327 116.56H331.203L323.459 150H326.583ZM345.547 150L337.759 116.56H334.635L342.379 150H345.547ZM349.023 150L358.351 116.56H355.183L345.811 150H349.023ZM377.233 150.484C386.473 150.484 392.985 143.532 392.985 133.28C392.985 123.028 386.473 116.076 377.233 116.076C368.037 116.076 361.525 123.028 361.525 133.28C361.525 143.532 368.037 150.484 377.233 150.484ZM377.233 147.888C369.885 147.888 364.649 141.86 364.649 133.28C364.649 124.7 369.885 118.672 377.233 118.672C384.625 118.672 389.817 124.7 389.817 133.28C389.817 141.86 384.625 147.888 377.233 147.888ZM394.229 116.56V119.288H405.669V150H408.705V119.288H420.145V116.56H394.229ZM459.853 126.108C455.717 126.108 453.253 129.188 452.329 132.136C451.405 128.968 448.897 126.108 444.805 126.108C441.197 126.108 438.777 128.44 437.677 131.432V126.592H434.773V150H437.677V135.92C437.677 130.948 440.053 128.308 443.749 128.308C447.445 128.308 449.821 130.948 449.821 135.876V135.964V150H452.725V135.92C452.725 130.948 455.101 128.308 458.797 128.308C462.493 128.308 464.913 130.948 464.913 135.876V135.964V150H467.817V135.48V135.392C467.817 129.76 464.649 126.108 459.853 126.108ZM483.704 126.108C478.248 126.108 474.816 129.1 474.332 133.28H477.324C477.588 130.684 479.656 128.308 483.704 128.308C488.28 128.308 490.128 131.564 490.128 134.952V135.04V135.524L483.616 136.228C479.172 136.756 473.628 137.768 473.628 143.092C473.628 147.36 477.06 150.484 481.592 150.484C486.344 150.484 488.632 148.152 490.128 144.852V150H493.032V134.82V134.732C493.032 130.596 490.48 126.108 483.704 126.108ZM482.516 148.46C479.348 148.46 476.62 146.524 476.62 143.092C476.62 139.264 480.756 138.648 484.98 138.164L490.128 137.592V140.056C490.128 144.72 487.532 148.46 482.516 148.46ZM508.541 147.756C506.077 147.756 504.713 146.788 504.713 144.06V143.972V128.836H511.181V126.592H504.713V121.048H501.809V126.592H496.573V128.836H501.809V143.972V144.06C501.809 148.108 504.449 150 508.277 150H511.225V147.756H508.541ZM518.802 126.592H515.898V150H518.802V135.744C518.802 131.036 521.398 128.968 526.062 128.968H526.898V126.108C522.366 126.108 519.946 128.308 518.802 131.652V126.592ZM534.531 122.104V116.56H531.407V122.104H534.531ZM534.443 150V126.592H531.539V150H534.443ZM551.749 137.328L560.241 126.592H557.029L549.945 135.436L542.861 126.592H539.649L548.141 137.328L538.637 150H541.849L549.945 139.308L558.041 150H561.253L551.749 137.328ZM562.845 118.804H568.037V156.38H562.845V158.624H570.941V116.56H562.845V118.804Z" fill="#E62711"/>
<rect width="840" height="390" transform="translate(0.5)" fill="#F1F6FF"/>
<g filter="url(#filter0_d_2917_136891)">
<rect width="700" height="320" transform="translate(105.5 36)" fill="white"/>
<rect x="105.5" y="36" width="350" height="160" fill="#B7EFDA"/>
<path d="M243.93 123.198C247.278 123.198 249.492 121.488 249.492 119.04C249.492 116.898 248.25 115.926 245.496 115.314L243.786 114.936C241.68 114.468 240.798 114.036 240.798 112.74C240.798 111.48 242.166 110.652 243.894 110.652C245.55 110.652 246.81 111.318 247.242 112.884H249.132C248.736 110.634 246.774 109.122 243.894 109.122C241.14 109.122 238.962 110.742 238.962 112.92C238.962 114.972 240.51 116.052 242.652 116.52L244.362 116.898C246.558 117.384 247.656 117.744 247.656 119.238C247.656 120.66 246.342 121.668 243.93 121.668C242.094 121.668 240.672 120.732 240.42 118.878H238.53C238.944 121.56 241.032 123.198 243.93 123.198ZM255.745 121.668C254.863 121.668 254.341 121.38 254.341 120.354V120.318V114.684H256.789V113.352H254.341V111.066H252.577V113.352H250.543V114.684H252.577V120.318V120.354C252.577 122.19 253.891 123 255.565 123H256.825V121.668H255.745ZM260.455 113.352H258.691V123H260.455V117.186C260.455 115.458 261.319 114.9 263.083 114.9H263.623V113.154C261.841 113.154 260.887 114.072 260.455 115.422V113.352ZM273.709 118.032C273.709 115.062 271.873 113.154 269.173 113.154C266.311 113.154 264.601 115.242 264.601 118.176C264.601 121.074 266.275 123.198 269.191 123.198C271.369 123.198 272.935 122.226 273.493 120.174H271.693C271.333 121.254 270.595 121.902 269.191 121.902C267.589 121.902 266.527 120.786 266.383 118.698H273.673C273.691 118.464 273.709 118.212 273.709 118.032ZM269.173 114.45C270.757 114.45 271.801 115.638 271.909 117.366H266.401C266.617 115.44 267.643 114.45 269.173 114.45ZM280.688 113.154C279.032 113.154 278.096 114.18 277.664 115.314V113.352H275.9V123H277.664V117.294C277.664 115.314 278.564 114.45 279.968 114.45C281.372 114.45 282.272 115.296 282.272 117.258V117.294V123H284.036V117.024V116.988C284.036 114.828 282.866 113.154 280.688 113.154ZM293.676 115.638C293.226 114.342 292.074 113.154 290.274 113.154C287.952 113.154 286.17 115.08 286.17 118.05C286.17 121.02 287.934 122.946 290.274 122.946C291.714 122.946 293.082 122.064 293.676 120.696V123.072C293.676 124.656 292.506 125.43 291.03 125.43C289.734 125.43 288.618 124.782 288.456 123.522H286.656C286.872 125.628 288.708 126.726 291.03 126.726C293.28 126.726 295.44 125.61 295.44 123.036V113.352H293.676V115.638ZM290.85 121.65C289.014 121.65 287.97 120.318 287.97 118.05C287.97 115.782 289.014 114.45 290.85 114.45C292.686 114.45 293.748 115.782 293.748 118.05C293.748 120.318 292.686 121.65 290.85 121.65ZM302.239 121.668C301.357 121.668 300.835 121.38 300.835 120.354V120.318V114.684H303.283V113.352H300.835V111.066H299.071V113.352H297.037V114.684H299.071V120.318V120.354C299.071 122.19 300.385 123 302.059 123H303.319V121.668H302.239ZM309.973 113.154C308.317 113.154 307.381 114.18 306.949 115.314V109.32H305.185V123H306.949V117.294C306.949 115.314 307.849 114.45 309.253 114.45C310.657 114.45 311.557 115.296 311.557 117.258V117.294V123H313.321V117.024V116.988C313.321 114.828 312.151 113.154 309.973 113.154ZM319.361 123.198C321.737 123.198 323.393 122.082 323.393 120.228C323.393 118.734 322.565 117.834 320.549 117.402L319.199 117.114C317.903 116.844 317.273 116.574 317.273 115.8C317.273 114.936 318.281 114.45 319.325 114.45C320.261 114.45 321.161 114.918 321.431 115.764H323.231C322.799 114.018 321.197 113.154 319.325 113.154C317.219 113.154 315.527 114.27 315.527 115.98C315.527 117.456 316.679 118.212 318.353 118.572L319.703 118.86C321.143 119.166 321.647 119.58 321.647 120.444C321.647 121.326 320.873 121.902 319.361 121.902C318.389 121.902 317.345 121.542 317.075 120.174H315.275C315.545 122.154 317.219 123.198 319.361 123.198Z" fill="black"/>
<rect x="105.5" y="36" width="350" height="160" stroke="#3F48FD"/>
<rect x="455.5" y="36" width="350" height="160" fill="#FEDDAA"/>
<path d="M589.388 122.928L586.688 109.32H582.944L580.244 122.928L576.896 109.32H574.97L578.336 123H582.116L584.816 109.41L587.516 123H591.296L594.662 109.32H592.736L589.388 122.928ZM604.304 118.032C604.304 115.062 602.468 113.154 599.768 113.154C596.906 113.154 595.196 115.242 595.196 118.176C595.196 121.074 596.87 123.198 599.786 123.198C601.964 123.198 603.53 122.226 604.088 120.174H602.288C601.928 121.254 601.19 121.902 599.786 121.902C598.184 121.902 597.122 120.786 596.978 118.698H604.268C604.286 118.464 604.304 118.212 604.304 118.032ZM599.768 114.45C601.352 114.45 602.396 115.638 602.504 117.366H596.996C597.212 115.44 598.238 114.45 599.768 114.45ZM610.293 113.154C608.025 113.154 606.477 114.378 606.261 116.196H608.061C608.187 115.278 608.943 114.45 610.293 114.45C611.823 114.45 612.525 115.512 612.525 116.772V116.808V116.97L609.933 117.24C608.205 117.42 605.955 117.852 605.955 120.102C605.955 121.884 607.395 123.198 609.195 123.198C611.067 123.198 611.859 122.37 612.525 121.02V123H614.289V116.826V116.79C614.289 114.99 613.227 113.154 610.293 113.154ZM609.843 122.028C608.727 122.028 607.755 121.344 607.755 120.102C607.755 118.698 609.267 118.518 610.599 118.374L612.525 118.176V118.896C612.525 120.624 611.625 122.028 609.843 122.028ZM620.787 117.618L625.341 113.352H623.145L618.753 117.474V109.32H616.989V123H618.753V117.798L623.325 123H625.521L620.787 117.618ZM631.691 113.154C630.035 113.154 629.099 114.18 628.667 115.314V113.352H626.903V123H628.667V117.294C628.667 115.314 629.567 114.45 630.971 114.45C632.375 114.45 633.275 115.296 633.275 117.258V117.294V123H635.039V117.024V116.988C635.039 114.828 633.869 113.154 631.691 113.154ZM646.245 118.032C646.245 115.062 644.409 113.154 641.709 113.154C638.847 113.154 637.137 115.242 637.137 118.176C637.137 121.074 638.811 123.198 641.727 123.198C643.905 123.198 645.471 122.226 646.029 120.174H644.229C643.869 121.254 643.131 121.902 641.727 121.902C640.125 121.902 639.063 120.786 638.919 118.698H646.209C646.227 118.464 646.245 118.212 646.245 118.032ZM641.709 114.45C643.293 114.45 644.337 115.638 644.445 117.366H638.937C639.153 115.44 640.179 114.45 641.709 114.45ZM651.784 123.198C654.16 123.198 655.816 122.082 655.816 120.228C655.816 118.734 654.988 117.834 652.972 117.402L651.622 117.114C650.326 116.844 649.696 116.574 649.696 115.8C649.696 114.936 650.704 114.45 651.748 114.45C652.684 114.45 653.584 114.918 653.854 115.764H655.654C655.222 114.018 653.62 113.154 651.748 113.154C649.642 113.154 647.95 114.27 647.95 115.98C647.95 117.456 649.102 118.212 650.776 118.572L652.126 118.86C653.566 119.166 654.07 119.58 654.07 120.444C654.07 121.326 653.296 121.902 651.784 121.902C650.812 121.902 649.768 121.542 649.498 120.174H647.698C647.968 122.154 649.642 123.198 651.784 123.198ZM661.329 123.198C663.705 123.198 665.361 122.082 665.361 120.228C665.361 118.734 664.533 117.834 662.517 117.402L661.167 117.114C659.871 116.844 659.241 116.574 659.241 115.8C659.241 114.936 660.249 114.45 661.293 114.45C662.229 114.45 663.129 114.918 663.399 115.764H665.199C664.767 114.018 663.165 113.154 661.293 113.154C659.187 113.154 657.495 114.27 657.495 115.98C657.495 117.456 658.647 118.212 660.321 118.572L661.671 118.86C663.111 119.166 663.615 119.58 663.615 120.444C663.615 121.326 662.841 121.902 661.329 121.902C660.357 121.902 659.313 121.542 659.043 120.174H657.243C657.513 122.154 659.187 123.198 661.329 123.198ZM676.04 118.032C676.04 115.062 674.204 113.154 671.504 113.154C668.642 113.154 666.932 115.242 666.932 118.176C666.932 121.074 668.606 123.198 671.522 123.198C673.7 123.198 675.266 122.226 675.824 120.174H674.024C673.664 121.254 672.926 121.902 671.522 121.902C669.92 121.902 668.858 120.786 668.714 118.698H676.004C676.022 118.464 676.04 118.212 676.04 118.032ZM671.504 114.45C673.088 114.45 674.132 115.638 674.24 117.366H668.732C668.948 115.44 669.974 114.45 671.504 114.45ZM681.579 123.198C683.955 123.198 685.611 122.082 685.611 120.228C685.611 118.734 684.783 117.834 682.767 117.402L681.417 117.114C680.121 116.844 679.491 116.574 679.491 115.8C679.491 114.936 680.499 114.45 681.543 114.45C682.479 114.45 683.379 114.918 683.649 115.764H685.449C685.017 114.018 683.415 113.154 681.543 113.154C679.437 113.154 677.745 114.27 677.745 115.98C677.745 117.456 678.897 118.212 680.571 118.572L681.921 118.86C683.361 119.166 683.865 119.58 683.865 120.444C683.865 121.326 683.091 121.902 681.579 121.902C680.607 121.902 679.563 121.542 679.293 120.174H677.493C677.763 122.154 679.437 123.198 681.579 123.198Z" fill="black"/>
<rect x="455.5" y="36" width="350" height="160" stroke="#3F48FD"/>
<rect x="105.5" y="196" width="350" height="160" fill="#E2F9F0"/>
<path d="M228.22 283.198C232.072 283.198 234.736 280.354 234.736 276.16C234.736 271.966 232.072 269.122 228.22 269.122C224.368 269.122 221.704 271.966 221.704 276.16C221.704 280.354 224.368 283.198 228.22 283.198ZM228.22 281.668C225.466 281.668 223.594 279.4 223.594 276.16C223.594 272.92 225.466 270.652 228.22 270.652C230.974 270.652 232.846 272.92 232.846 276.16C232.846 279.4 230.974 281.668 228.22 281.668ZM242.21 273.154C240.41 273.154 239.258 274.396 238.808 275.692V273.352H237.044V286.528H238.808V280.894C239.402 282.28 240.77 283.198 242.21 283.198C244.55 283.198 246.314 281.146 246.314 278.176C246.314 275.206 244.532 273.154 242.21 273.154ZM241.634 281.902C239.798 281.902 238.736 280.444 238.736 278.176C238.736 275.908 239.798 274.45 241.634 274.45C243.47 274.45 244.514 275.908 244.514 278.176C244.514 280.444 243.47 281.902 241.634 281.902ZM253.688 273.154C251.888 273.154 250.736 274.396 250.286 275.692V273.352H248.522V286.528H250.286V280.894C250.88 282.28 252.248 283.198 253.688 283.198C256.028 283.198 257.792 281.146 257.792 278.176C257.792 275.206 256.01 273.154 253.688 273.154ZM253.112 281.902C251.276 281.902 250.214 280.444 250.214 278.176C250.214 275.908 251.276 274.45 253.112 274.45C254.948 274.45 255.992 275.908 255.992 278.176C255.992 280.444 254.948 281.902 253.112 281.902ZM264.087 283.198C266.949 283.198 268.767 281.164 268.767 278.176C268.767 275.188 266.949 273.154 264.087 273.154C261.225 273.154 259.389 275.188 259.389 278.176C259.389 281.164 261.225 283.198 264.087 283.198ZM264.087 281.902C262.251 281.902 261.189 280.444 261.189 278.176C261.189 275.908 262.251 274.45 264.087 274.45C265.923 274.45 266.967 275.908 266.967 278.176C266.967 280.444 265.923 281.902 264.087 281.902ZM272.733 273.352H270.969V283H272.733V277.186C272.733 275.458 273.597 274.9 275.361 274.9H275.901V273.154C274.119 273.154 273.165 274.072 272.733 275.422V273.352ZM281.716 281.668C280.834 281.668 280.312 281.38 280.312 280.354V280.318V274.684H282.76V273.352H280.312V271.066H278.548V273.352H276.514V274.684H278.548V280.318V280.354C278.548 282.19 279.862 283 281.536 283H282.796V281.668H281.716ZM290.837 279.058C290.837 281.02 289.991 281.902 288.587 281.902C287.183 281.902 286.319 281.038 286.319 279.094V279.058V273.352H284.555V279.328V279.364C284.555 281.524 285.689 283.198 287.867 283.198C289.469 283.198 290.423 282.172 290.837 281.074V283H292.601V273.352H290.837V279.058ZM300.191 273.154C298.535 273.154 297.599 274.18 297.167 275.314V273.352H295.403V283H297.167V277.294C297.167 275.314 298.067 274.45 299.471 274.45C300.875 274.45 301.775 275.296 301.775 277.258V277.294V283H303.539V277.024V276.988C303.539 274.828 302.369 273.154 300.191 273.154ZM308.067 271.696V269.32H306.159V271.696H308.067ZM307.995 283V273.352H306.231V283H307.995ZM314.833 281.668C313.951 281.668 313.429 281.38 313.429 280.354V280.318V274.684H315.877V273.352H313.429V271.066H311.665V273.352H309.631V274.684H311.665V280.318V280.354C311.665 282.19 312.979 283 314.653 283H315.913V281.668H314.833ZM319.616 271.696V269.32H317.708V271.696H319.616ZM319.544 283V273.352H317.78V283H319.544ZM330.864 278.032C330.864 275.062 329.028 273.154 326.328 273.154C323.466 273.154 321.756 275.242 321.756 278.176C321.756 281.074 323.43 283.198 326.346 283.198C328.524 283.198 330.09 282.226 330.648 280.174H328.848C328.488 281.254 327.75 281.902 326.346 281.902C324.744 281.902 323.682 280.786 323.538 278.698H330.828C330.846 278.464 330.864 278.212 330.864 278.032ZM326.328 274.45C327.912 274.45 328.956 275.638 329.064 277.366H323.556C323.772 275.44 324.798 274.45 326.328 274.45ZM336.403 283.198C338.779 283.198 340.435 282.082 340.435 280.228C340.435 278.734 339.607 277.834 337.591 277.402L336.241 277.114C334.945 276.844 334.315 276.574 334.315 275.8C334.315 274.936 335.323 274.45 336.367 274.45C337.303 274.45 338.203 274.918 338.473 275.764H340.273C339.841 274.018 338.239 273.154 336.367 273.154C334.261 273.154 332.569 274.27 332.569 275.98C332.569 277.456 333.721 278.212 335.395 278.572L336.745 278.86C338.185 279.166 338.689 279.58 338.689 280.444C338.689 281.326 337.915 281.902 336.403 281.902C335.431 281.902 334.387 281.542 334.117 280.174H332.317C332.587 282.154 334.261 283.198 336.403 283.198Z" fill="black"/>
<rect x="105.5" y="196" width="350" height="160" stroke="#3F48FD"/>
<rect x="455.5" y="196" width="350" height="160" fill="#FFF4E3"/>
<path d="M598.128 269.32V270.94H602.682V283H604.5V270.94H609.054V269.32H598.128ZM615.474 273.154C613.818 273.154 612.882 274.18 612.45 275.314V269.32H610.686V283H612.45V277.294C612.45 275.314 613.35 274.45 614.754 274.45C616.158 274.45 617.058 275.296 617.058 277.258V277.294V283H618.822V277.024V276.988C618.822 274.828 617.652 273.154 615.474 273.154ZM623.278 273.352H621.514V283H623.278V277.186C623.278 275.458 624.142 274.9 625.906 274.9H626.446V273.154C624.664 273.154 623.71 274.072 623.278 275.422V273.352ZM636.532 278.032C636.532 275.062 634.696 273.154 631.996 273.154C629.134 273.154 627.424 275.242 627.424 278.176C627.424 281.074 629.098 283.198 632.014 283.198C634.192 283.198 635.758 282.226 636.316 280.174H634.516C634.156 281.254 633.418 281.902 632.014 281.902C630.412 281.902 629.35 280.786 629.206 278.698H636.496C636.514 278.464 636.532 278.212 636.532 278.032ZM631.996 274.45C633.58 274.45 634.624 275.638 634.732 277.366H629.224C629.44 275.44 630.466 274.45 631.996 274.45ZM642.521 273.154C640.253 273.154 638.705 274.378 638.489 276.196H640.289C640.415 275.278 641.171 274.45 642.521 274.45C644.051 274.45 644.753 275.512 644.753 276.772V276.808V276.97L642.161 277.24C640.433 277.42 638.183 277.852 638.183 280.102C638.183 281.884 639.623 283.198 641.423 283.198C643.295 283.198 644.087 282.37 644.753 281.02V283H646.517V276.826V276.79C646.517 274.99 645.455 273.154 642.521 273.154ZM642.071 282.028C640.955 282.028 639.983 281.344 639.983 280.102C639.983 278.698 641.495 278.518 642.827 278.374L644.753 278.176V278.896C644.753 280.624 643.853 282.028 642.071 282.028ZM653.109 281.668C652.227 281.668 651.705 281.38 651.705 280.354V280.318V274.684H654.153V273.352H651.705V271.066H649.941V273.352H647.907V274.684H649.941V280.318V280.354C649.941 282.19 651.255 283 652.929 283H654.189V281.668H653.109ZM659.403 283.198C661.779 283.198 663.435 282.082 663.435 280.228C663.435 278.734 662.607 277.834 660.591 277.402L659.241 277.114C657.945 276.844 657.315 276.574 657.315 275.8C657.315 274.936 658.323 274.45 659.367 274.45C660.303 274.45 661.203 274.918 661.473 275.764H663.273C662.841 274.018 661.239 273.154 659.367 273.154C657.261 273.154 655.569 274.27 655.569 275.98C655.569 277.456 656.721 278.212 658.395 278.572L659.745 278.86C661.185 279.166 661.689 279.58 661.689 280.444C661.689 281.326 660.915 281.902 659.403 281.902C658.431 281.902 657.387 281.542 657.117 280.174H655.317C655.587 282.154 657.261 283.198 659.403 283.198Z" fill="black"/>
<rect x="455.5" y="196" width="350" height="160" stroke="#3F48FD"/>
</g>
<path d="M248.94 24H250.152V19.836H254.232V24H255.444V14.88H254.232V18.756H250.152V14.88H248.94V24ZM259.106 24H265.022V22.92H260.318V19.836H264.818V18.756H260.318V15.96H264.902V14.88H259.106V24ZM269.104 24H274.972V22.92H270.316V14.88H269.104V24ZM278.143 24H279.355V20.592H281.287C283.411 20.592 284.695 19.572 284.695 17.736C284.695 15.9 283.411 14.88 281.287 14.88H278.143V24ZM279.355 19.512V15.96H281.323C282.679 15.96 283.435 16.536 283.435 17.736C283.435 18.936 282.679 19.512 281.323 19.512H279.355ZM288.045 24H289.257V19.98H293.721V18.9H289.257V15.96H293.793V14.88H288.045V24ZM300.204 24.132C302.472 24.132 303.456 22.836 303.456 20.436V14.88H302.244V20.508C302.244 22.344 301.512 23.112 300.204 23.112C298.896 23.112 298.164 22.356 298.164 20.532V20.508V14.88H296.952V20.436V20.46C296.952 22.848 297.936 24.132 300.204 24.132ZM307.514 24H313.382V22.92H308.726V14.88H307.514V24Z" fill="black"/>
<path d="M85.5 153.765L85.5 147.441L84.42 147.441L84.42 149.997L77.46 149.997L77.46 147.441L76.38 147.441L76.38 153.765L77.46 153.765L77.46 151.209L84.42 151.209L84.42 153.765L85.5 153.765ZM85.5 144.259L85.5 143.047L76.452 143.047L85.5 140.203L85.5 137.755L76.38 137.755L76.38 138.967L85.428 138.967L76.38 141.811L76.38 144.259L85.5 144.259ZM85.5 132.005L85.5 130.793L77.46 130.793L77.46 127.757L76.38 127.757L76.38 135.041L77.46 135.041L77.46 132.005L85.5 132.005ZM85.5 124.49L85.5 118.574L84.42 118.574L84.42 123.278L81.336 123.278L81.336 118.778L80.256 118.778L80.256 123.278L77.46 123.278L77.46 118.694L76.38 118.694L76.38 124.49L85.5 124.49ZM85.5 115.116L85.5 113.904L81.78 113.904L81.78 111.936L85.5 110.04L85.5 108.624L81.612 110.64C81.252 109.416 80.34 108.684 79.08 108.684C77.436 108.684 76.38 109.932 76.38 111.924L76.38 115.116L85.5 115.116ZM80.7 113.904L77.46 113.904L77.46 111.9C77.46 110.688 78.036 109.944 79.08 109.944C80.124 109.944 80.7 110.688 80.7 111.9L80.7 113.904ZM85.5 105.85L85.5 104.638L76.452 104.638L85.5 101.794L85.5 99.3457L76.38 99.3457L76.38 100.558L85.428 100.558L76.38 103.402L76.38 105.85L85.5 105.85ZM85.5 96.9193L85.5 95.6233L82.908 94.8673L82.908 91.1113L85.5 90.3553L85.5 89.0593L76.38 91.7713L76.38 94.2073L85.5 96.9193ZM81.828 94.5553L76.44 92.9833L81.828 91.4233L81.828 94.5553ZM85.5 85.685L85.5 79.817L84.42 79.817L84.42 84.473L76.38 84.473L76.38 85.685L85.5 85.685Z" fill="black"/>
<path d="M85.5 313.297L85.5 307.381L84.42 307.381L84.42 312.085L81.336 312.085L81.336 307.585L80.256 307.585L80.256 312.085L77.46 312.085L77.46 307.501L76.38 307.501L76.38 313.297L85.5 313.297ZM85.5 304.919L85.5 303.491L81.552 301.007L85.5 298.523L85.5 297.095L80.616 300.203L76.38 297.467L76.38 298.907L79.692 301.007L76.38 303.107L76.38 304.547L80.628 301.811L85.5 304.919ZM85.5 292.005L85.5 290.793L77.46 290.793L77.46 287.757L76.38 287.757L76.38 295.041L77.46 295.041L77.46 292.005L85.5 292.005ZM85.5 284.49L85.5 278.574L84.42 278.574L84.42 283.278L81.336 283.278L81.336 278.778L80.256 278.778L80.256 283.278L77.46 283.278L77.46 278.694L76.38 278.694L76.38 284.49L85.5 284.49ZM85.5 275.116L85.5 273.904L81.78 273.904L81.78 271.936L85.5 270.04L85.5 268.624L81.612 270.64C81.252 269.416 80.34 268.684 79.08 268.684C77.436 268.684 76.38 269.932 76.38 271.924L76.38 275.116L85.5 275.116ZM80.7 273.904L77.46 273.904L77.46 271.9C77.46 270.688 78.036 269.944 79.08 269.944C80.124 269.944 80.7 270.688 80.7 271.9L80.7 273.904ZM85.5 265.85L85.5 264.638L76.452 264.638L85.5 261.794L85.5 259.346L76.38 259.346L76.38 260.558L85.428 260.558L76.38 263.402L76.38 265.85L85.5 265.85ZM85.5 256.919L85.5 255.623L82.908 254.867L82.908 251.111L85.5 250.355L85.5 249.059L76.38 251.771L76.38 254.207L85.5 256.919ZM81.828 254.555L76.44 252.983L81.828 251.423L81.828 254.555ZM85.5 245.685L85.5 239.817L84.42 239.817L84.42 244.473L76.38 244.473L76.38 245.685L85.5 245.685Z" fill="black"/>
<path d="M598.94 24H600.152V19.836H604.232V24H605.444V14.88H604.232V18.756H600.152V14.88H598.94V24ZM607.87 24H609.166L609.922 21.408H613.678L614.434 24H615.73L613.018 14.88H610.582L607.87 24ZM610.234 20.328L611.806 14.94L613.366 20.328H610.234ZM618.48 24H619.692V20.28H621.66L623.556 24H624.972L622.956 20.112C624.18 19.752 624.912 18.84 624.912 17.58C624.912 15.936 623.664 14.88 621.672 14.88H618.48V24ZM619.692 19.2V15.96H621.696C622.908 15.96 623.652 16.536 623.652 17.58C623.652 18.624 622.908 19.2 621.696 19.2H619.692ZM627.663 24H628.707V14.952L629.955 21.948H632.043L633.291 14.952V24H634.335V14.88H632.247L630.999 21.876L629.751 14.88H627.663V24ZM638.045 24H639.257V19.98H643.721V18.9H639.257V15.96H643.793V14.88H638.045V24ZM650.204 24.132C652.472 24.132 653.456 22.836 653.456 20.436V14.88H652.244V20.508C652.244 22.344 651.512 23.112 650.204 23.112C648.896 23.112 648.164 22.356 648.164 20.532V20.508V14.88H646.952V20.436V20.46C646.952 22.848 647.936 24.132 650.204 24.132ZM657.514 24H663.382V22.92H658.726V14.88H657.514V24Z" fill="black"/>
</g>
<defs>
<filter id="filter0_d_2917_136891" x="105" y="35.5" width="709" height="329" filterUnits="userSpaceOnUse" color-interpolation-filters="sRGB">
<feFlood flood-opacity="0" result="BackgroundImageFix"/>
<feColorMatrix in="SourceAlpha" type="matrix" values="0 0 0 0 0 0 0 0 0 0 0 0 0 0 0 0 0 0 127 0" result="hardAlpha"/>
<feOffset dx="8" dy="8"/>
<feColorMatrix type="matrix" values="0 0 0 0 0.654902 0 0 0 0 0.670588 0 0 0 0 0.996078 0 0 0 0.3 0"/>
<feBlend mode="normal" in2="BackgroundImageFix" result="effect1_dropShadow_2917_136891"/>
<feBlend mode="normal" in="SourceGraphic" in2="effect1_dropShadow_2917_136891" result="shape"/>
</filter>
<clipPath id="clip0_2917_136891">
<rect width="841" height="390" fill="white" transform="translate(0.5)"/>
</clipPath>
</defs>
</svg>
