<svg width="16" height="16" viewBox="0 0 16 16" fill="none" xmlns="http://www.w3.org/2000/svg">
<path d="M15.3346 2.66668V6.66668M15.3346 6.66668H11.3346M15.3346 6.66668L12.2413 3.76001C11.5248 3.04315 10.6384 2.51948 9.66476 2.23786C8.69114 1.95624 7.66204 1.92584 6.67349 2.14952C5.68495 2.37319 4.76917 2.84363 4.01161 3.51696C3.25406 4.19028 2.67941 5.04453 2.3413 6.00001M0.667969 13.3333V9.33334M0.667969 9.33334H4.66797M0.667969 9.33334L3.7613 12.24C4.4778 12.9569 5.36422 13.4805 6.33784 13.7622C7.31147 14.0438 8.34056 14.0742 9.32911 13.8505C10.3177 13.6268 11.2334 13.1564 11.991 12.4831C12.7485 11.8097 13.3232 10.9555 13.6613 10" stroke="#0E0E11" stroke-width="1.25" stroke-linecap="round" stroke-linejoin="round"/>
</svg>
