<svg width="293" height="65" viewBox="0 0 293 65" fill="none" xmlns="http://www.w3.org/2000/svg">
<path d="M40.129 31.9498C40.129 28.1057 37.0008 24.9784 33.1557 24.9784C31.3369 24.9784 29.5166 25.7452 28.2859 27.0285L28.233 27.0843L28.1815 27.0271C27.0796 25.8211 25.0361 24.9784 23.2101 24.9784C19.4223 24.9784 16.3399 28.1057 16.3399 31.9498C16.3399 36.4433 18.9486 39.871 21.1523 41.964C22.3272 41.4404 24.9918 39.7666 26.0493 38.9397C24.8758 37.9611 22.31 35.768 22.31 32.934C22.31 31.2402 23.7711 29.7552 25.4382 29.7552C26.6932 29.7552 27.3887 30.2388 27.838 30.7652C28.0684 31.0342 28.482 31.0413 28.7095 30.7709C29.1789 30.2159 29.8901 29.7552 31.085 29.7552C32.838 29.7552 34.2647 31.2273 34.2647 33.037C34.2647 35.7552 31.5658 38.0026 29.9545 39.346L29.9402 39.3588C26.3011 42.366 23.6881 44.1914 18.0843 44.1914C14.8359 44.1914 11.795 42.9311 9.51821 40.6421C7.24577 38.3574 5.99506 35.306 5.99506 32.0528C5.99506 28.7996 7.25578 25.7524 9.5454 23.4634C11.835 21.1745 14.8859 19.9141 18.1372 19.9141C19.6798 19.9141 21.4357 20.309 23.0513 21.0114C23.3947 21.1602 23.7954 21.0142 23.97 20.6838L26.0936 16.6695C26.284 16.309 26.1337 15.8626 25.7659 15.6867C23.5021 14.6094 20.7517 14 18.0814 14C8.15159 14 0.0735321 22.1215 0.0735321 32.1057C0.0735321 42.0899 8.00563 50.107 18.1329 50.107C23.399 50.107 28.0885 48.7679 35.1777 42.0999C38.4161 39.0327 40.1276 35.5234 40.1276 31.9498" fill="white"/>
<path d="M49.2002 29.276C49.0728 29.2488 48.9984 29.2431 48.9984 29.2431C48.9984 29.2431 48.9326 29.2903 49.1959 29.1372C49.4578 28.9841 51.9907 26.904 51.9907 23.4577C51.9921 17.8884 46.6959 14 39.113 14C36.0621 14 33.1557 14.5436 30.8618 15.5393C30.5999 15.6523 30.431 15.9113 30.431 16.196V22.9942C31.2825 22.7081 32.2756 22.5564 33.3117 22.5564C34.4407 22.5564 35.4153 22.7224 36.1408 23.0357V20.0829L36.1994 20.0715C36.208 20.07 37.0509 19.9155 38.3889 19.9155C43.5606 19.9155 46.0749 21.0743 46.0749 23.4563C46.0749 24.4005 45.7887 25.1587 45.222 25.7109C44.0414 26.8625 41.9607 26.8125 41.1765 26.7939C41.1536 26.7939 41.1336 26.7939 41.1121 26.7924C42.1696 28.4019 42.7063 30.2059 42.7063 32.1572C42.7063 32.4963 42.7063 32.8782 42.6648 33.2244H43.0497C43.864 33.2244 45.4238 33.3303 46.716 34.0356C48.1455 34.8167 48.8711 36.1014 48.8711 37.8524C48.8711 39.2959 48.2872 40.6221 47.1825 41.685C45.3121 43.4847 42.1324 44.3917 38.2301 44.2429C37.8222 44.2429 37.443 44.1986 37.0423 44.1528C36.8506 44.1299 36.6531 44.1084 36.4513 44.0898C35.2278 45.529 33.4419 47.1599 31.2768 48.8151C32.2742 49.24 34.8457 50.107 39.2175 50.107C43.2858 50.107 47.2812 48.9296 50.1776 46.8767C53.466 44.5462 55.2047 41.283 55.2047 37.439C55.2047 30.4805 49.3304 29.3017 49.2031 29.2745" fill="white"/>
<path d="M80.6206 40.7405C76.7211 40.7405 73.4794 37.5327 73.4794 33.5117C73.4794 29.4907 76.7211 26.3726 80.6206 26.3726C82.4118 26.3726 84.0655 27.0453 85.3335 28.1604C85.4531 28.265 85.6295 28.265 85.7402 28.1514L88.0219 25.8704C88.1415 25.7508 88.1385 25.5535 88.0129 25.4399C86.0572 23.676 83.4495 22.6207 80.6206 22.6207C74.5889 22.6207 69.6397 27.5385 69.6397 33.5386C69.6397 39.5387 74.5889 44.4864 80.6206 44.4864C83.7216 44.4864 86.5147 43.1979 88.5153 41.1381C88.6319 41.0185 88.623 40.8272 88.5003 40.7136L86.1499 38.5401C86.0303 38.4295 85.8448 38.4385 85.7312 38.5581C84.4483 39.9004 82.6152 40.7375 80.6206 40.7375" fill="white"/>
<path d="M277.681 30.0933C273.811 30.0933 270.54 33.334 270.54 37.2922C270.54 41.2503 273.811 44.491 277.771 44.491C280.238 44.491 282.086 43.7137 283.396 42.4163C283.518 42.2937 283.503 42.0874 283.369 41.9798L281.111 40.1442C280.991 40.0485 280.818 40.0545 280.713 40.1651C280.049 40.8707 279.056 41.2204 277.738 41.2204C275.937 41.2204 274.526 39.7496 274.406 38.0395H283.928C284.083 38.0395 284.209 37.923 284.224 37.7705C284.239 37.627 284.248 37.4656 284.248 37.2922C284.248 32.5238 281.428 30.0933 277.678 30.0933M274.436 35.6419C274.705 34.0216 276.057 33.0918 277.648 33.0918C279.239 33.0918 280.588 33.9917 280.767 35.6419H274.436Z" fill="white"/>
<path d="M292.923 44.0706L292.352 41.2514C292.322 41.102 292.172 41.0123 292.053 41.0422H291.754C290.794 41.0422 290.252 40.6834 289.893 40.2918C289.472 39.8732 289.322 39.3919 289.322 38.4921V23.2841C289.322 23.1347 289.173 23.0151 289.023 23.0151H285.815C285.665 23.0151 285.575 23.1347 285.575 23.2841V38.0406C285.575 40.1094 285.815 41.4009 286.595 42.3905C287.525 43.7118 289.146 44.4891 291.425 44.4891C291.783 44.4891 292.205 44.4592 292.654 44.3994C292.803 44.3994 292.953 44.25 292.923 44.0706Z" fill="white"/>
<path d="M128.114 30.0933C124.244 30.0933 120.972 33.334 120.972 37.2922C120.972 41.2503 124.244 44.491 128.203 44.491C130.67 44.491 132.518 43.7137 133.828 42.4163C133.951 42.2937 133.936 42.0874 133.801 41.9798L131.544 40.1442C131.424 40.0485 131.251 40.0545 131.146 40.1651C130.482 40.8707 129.489 41.2204 128.17 41.2204C126.37 41.2204 124.962 39.7496 124.839 38.0395H134.361C134.516 38.0395 134.642 37.923 134.657 37.7705C134.672 37.627 134.681 37.4656 134.681 37.2922C134.681 32.5238 131.861 30.0933 128.111 30.0933M124.872 35.6419C125.141 34.0216 126.493 33.0918 128.081 33.0918C129.669 33.0918 131.02 33.9917 131.2 35.6419H124.869H124.872Z" fill="white"/>
<path d="M120.977 33.1865V30.3315C120.977 30.167 120.842 30.0355 120.681 30.0355H117.977V28.5347C117.977 27.6349 118.127 27.1536 118.519 26.735C118.877 26.3464 119.389 25.9846 120.349 25.9846H120.648C120.737 26.0145 120.887 25.9248 120.917 25.7754L121.488 22.9562C121.488 22.7768 121.368 22.6274 121.219 22.6274C120.767 22.5676 120.379 22.5377 120.02 22.5377C117.801 22.5377 116.12 23.3179 115.19 24.6363C114.44 25.6259 114.2 26.9144 114.2 28.9862V30.0355H109.969V28.5347C109.969 27.6349 110.118 27.1536 110.507 26.735C110.866 26.3464 111.377 25.9846 112.337 25.9846H112.636C112.726 26.0145 112.876 25.9248 112.906 25.7754L113.477 22.9562C113.477 22.7768 113.357 22.6274 113.208 22.6274C112.756 22.5676 112.367 22.5377 112.008 22.5377C109.79 22.5377 108.109 23.3179 107.179 24.6363C106.428 25.6259 106.189 26.9144 106.189 28.9862V30.0355H103.486C103.321 30.0355 103.19 30.167 103.19 30.3315V33.1865C103.19 33.3509 103.324 33.4825 103.486 33.4825H106.189V43.7128C106.189 43.8772 106.324 44.0087 106.485 44.0087H109.67C109.834 44.0087 109.966 43.8742 109.966 43.7128V33.4825H114.197V43.7128C114.197 43.8772 114.332 44.0087 114.493 44.0087H117.678C117.843 44.0087 117.974 43.8742 117.974 43.7128V33.4825H120.678C120.842 33.4825 120.974 33.3479 120.974 33.1865" fill="white"/>
<path d="M95.9534 30.0933C91.9941 30.0933 88.7226 33.334 88.7226 37.2922C88.7226 41.2503 91.9941 44.491 95.9534 44.491C99.9127 44.491 103.184 41.2802 103.184 37.2922C103.184 33.3041 99.9127 30.0933 95.9534 30.0933M95.9534 41.0411C93.914 41.0411 92.2333 39.3609 92.2333 37.2922C92.2333 35.2234 93.914 33.5731 95.9534 33.5731C97.9929 33.5731 99.6735 35.2234 99.6735 37.2922C99.6735 39.3609 97.9929 41.0411 95.9534 41.0411Z" fill="white"/>
<path d="M250.139 30.9041C249.22 30.4108 248.171 30.1208 247.037 30.0939C243.284 30.0072 240.195 33.0237 239.956 36.7696C239.684 40.9969 242.737 44.4887 246.87 44.4887C248.069 44.4887 249.179 44.1927 250.142 43.6725V43.9834C250.142 44.1479 250.273 44.2794 250.438 44.2794H253.592C253.757 44.2794 253.889 44.1449 253.889 43.9834V30.3301C253.889 30.1657 253.754 30.0341 253.592 30.0341H250.438C250.273 30.0341 250.142 30.1657 250.142 30.3301V30.9041H250.139ZM247.139 40.9789C245.249 40.9789 243.688 39.3586 243.688 37.3496C243.688 35.3406 245.249 33.7501 247.139 33.7501C249.029 33.7501 250.59 35.3406 250.59 37.3496C250.59 39.3586 249.029 40.9789 247.139 40.9789Z" fill="white"/>
<path d="M194.092 30.0933C190.223 30.0933 186.951 33.334 186.951 37.2922C186.951 41.2503 190.223 44.491 194.182 44.491C196.649 44.491 198.497 43.7137 199.807 42.4163C199.929 42.2937 199.914 42.0874 199.78 41.9798L197.522 40.1442C197.403 40.0485 197.229 40.0545 197.124 40.1651C196.461 40.8707 195.468 41.2204 194.149 41.2204C192.349 41.2204 190.937 39.7496 190.818 38.0395H200.339C200.495 38.0395 200.62 37.923 200.635 37.7705C200.65 37.627 200.659 37.4656 200.659 37.2922C200.659 32.5238 197.839 30.0933 194.089 30.0933M190.848 35.6419C191.117 34.0216 192.468 33.0918 194.056 33.0918C195.644 33.0918 196.996 33.9917 197.175 35.6419H190.845H190.848Z" fill="white"/>
<path d="M215.845 34.3529C215.845 33.6025 216.506 33.2438 217.287 33.2438C218.258 33.2438 218.839 33.5068 219.341 33.8237C219.482 33.9134 219.67 33.8686 219.754 33.7251L221.066 31.5128C221.15 31.3753 221.108 31.1899 220.968 31.1092C219.852 30.4485 218.378 30.033 216.955 30.033C214.105 30.033 211.943 31.7131 211.943 34.5024C211.943 38.4008 218.184 38.1915 218.184 39.7819C218.184 40.7416 217.642 41.0106 216.354 41.0106C214.553 41.0106 213.713 40.4396 213.082 40.0211C212.823 39.8417 212.563 39.8517 212.302 40.051C211.823 40.4396 211.162 41.0106 209.541 41.0106C208.372 41.0106 207.98 40.6818 207.622 40.2902C207.263 39.8716 207.113 39.3903 207.113 38.4904V33.4829H210.441C210.606 33.4829 210.738 33.3514 210.738 33.1869V30.3319C210.738 30.1675 210.606 30.036 210.441 30.036H207.113V26.3139C207.113 26.1495 206.979 26.018 206.817 26.018H203.662C203.498 26.018 203.366 26.1525 203.366 26.3139V30.036H200.962C200.797 30.036 200.666 30.1705 200.666 30.3319V33.1869C200.666 33.3514 200.797 33.4829 200.962 33.4829H203.366V38.042C203.366 40.1108 203.575 41.4023 204.356 42.3918C205.286 43.7102 206.907 44.4905 209.126 44.4905C210.355 44.4905 211.886 44.1019 212.726 43.5308C213.537 44.1019 214.736 44.4905 216.596 44.4905C219.987 44.4905 222.086 42.7805 222.086 39.9613C222.086 35.5517 215.845 36.0629 215.845 34.3529" fill="white"/>
<path d="M234.777 31.8619C234.896 31.832 236.427 30.5734 236.427 28.3222C236.427 25.4433 234.358 23.0128 228.625 23.0128H223.763C223.598 23.0128 223.467 23.1443 223.467 23.3087L223.437 43.7095C223.437 43.874 223.568 44.0085 223.733 44.0085H231.535C235.946 44.0085 238.586 41.3089 238.586 37.4105C238.586 33.1803 235.255 31.9516 234.777 31.8619M227.217 26.6122H228.808C231.269 26.6122 232.677 27.1533 232.677 28.6511C232.677 30.1489 232.016 30.5704 230.668 30.5704H227.187L227.217 26.6122V26.6122ZM230.578 40.409H227.187V34.3193H230.369C232.259 34.3193 234.839 34.8275 234.839 37.4075C234.839 39.9875 232.528 40.4061 230.578 40.4061" fill="white"/>
<path d="M160.787 34.2917L153.284 23.1466C153.231 23.0629 153.138 23.0151 153.036 23.0151H151.362C151.197 23.0151 151.066 23.1466 151.066 23.311V43.7118C151.066 43.8763 151.2 44.0078 151.362 44.0078H154.516C154.681 44.0078 154.813 43.8733 154.813 43.7118V32.3126L159.645 39.1169C159.702 39.1946 159.792 39.2424 159.887 39.2424H161.711C161.807 39.2424 161.897 39.1946 161.954 39.1169L166.786 32.3126V43.7118C166.786 43.8763 166.921 44.0078 167.082 44.0078H170.237C170.402 44.0078 170.533 43.8733 170.533 43.7118V23.311C170.533 23.1466 170.402 23.0151 170.237 23.0151H168.562C168.464 23.0151 168.371 23.0629 168.317 23.1466L160.784 34.2947L160.787 34.2917Z" fill="white"/>
<path d="M265.44 30.9041C264.522 30.4108 263.473 30.1208 262.336 30.0939C258.583 30.0072 255.494 33.0237 255.255 36.7696C254.983 40.9969 258.036 44.4887 262.169 44.4887C263.368 44.4887 264.477 44.1927 265.44 43.6725V44.0103C265.44 46.2884 264.361 47.251 262.259 47.251C261.024 47.251 260.04 46.7727 259.283 46.2107C259.163 46.121 258.996 46.1419 258.894 46.2495L256.75 48.5455C256.631 48.6711 256.646 48.8744 256.783 48.982C258.186 50.0702 259.971 50.9999 262.262 50.9999C266.971 50.9999 269.193 47.4902 269.193 44.0103V30.3301C269.193 30.1657 269.062 30.0341 268.897 30.0341H265.742C265.578 30.0341 265.446 30.1657 265.446 30.3301V30.9041H265.44ZM262.531 40.9789C260.641 40.9789 259.08 39.3586 259.08 37.3496C259.08 35.3406 260.641 33.7501 262.531 33.7501C264.421 33.7501 265.982 35.3406 265.982 37.3496C265.982 39.3586 264.421 40.9789 262.531 40.9789Z" fill="white"/>
<path d="M143.146 30.0933C139.277 30.0933 136.005 33.334 136.005 37.2922C136.005 41.2503 139.277 44.491 143.236 44.491C145.703 44.491 147.551 43.7137 148.861 42.4163C148.984 42.2937 148.969 42.0874 148.834 41.9798L146.576 40.1442C146.457 40.0485 146.283 40.0545 146.179 40.1651C145.515 40.8707 144.522 41.2204 143.203 41.2204C141.403 41.2204 139.995 39.7496 139.872 38.0395H149.393C149.549 38.0395 149.675 37.923 149.69 37.7705C149.704 37.627 149.713 37.4656 149.713 37.2922C149.713 32.5238 146.893 30.0933 143.143 30.0933M139.905 35.6419C140.174 34.0216 141.526 33.0918 143.114 33.0918C144.701 33.0918 146.053 33.9917 146.233 35.6419H139.902H139.905Z" fill="white"/>
<path d="M179.03 30.0933C175.16 30.0933 171.889 33.334 171.889 37.2922C171.889 41.2503 175.16 44.491 179.119 44.491C181.586 44.491 183.435 43.7137 184.744 42.4163C184.867 42.2937 184.852 42.0874 184.717 41.9798L182.46 40.1442C182.34 40.0485 182.167 40.0545 182.062 40.1651C181.398 40.8707 180.405 41.2204 179.086 41.2204C177.286 41.2204 175.878 39.7496 175.755 38.0395H185.277C185.432 38.0395 185.558 37.923 185.573 37.7705C185.588 37.627 185.597 37.4656 185.597 37.2922C185.597 32.5238 182.777 30.0933 179.027 30.0933M175.788 35.6419C176.057 34.0216 177.409 33.0918 178.997 33.0918C180.585 33.0918 181.936 33.9917 182.116 35.6419H175.785H175.788Z" fill="white"/>
</svg>
