<svg width="225" height="66" viewBox="0 0 225 66" fill="none" xmlns="http://www.w3.org/2000/svg">
<path d="M212.258 42.5564C212.258 41.8641 212.207 41.4795 211.181 41.4795C210.207 41.4795 210.13 41.9154 210.13 42.5564H212.258Z" fill="white"/>
<path d="M192.489 50.8128C192.489 50.1205 192.438 49.7359 191.412 49.7359C190.438 49.7359 190.361 50.1718 190.361 50.8128H192.489Z" fill="white"/>
<path d="M178.592 43.0179C178.592 41.941 178.668 41.5308 179.745 41.5308C180.797 41.5308 180.899 41.941 180.899 43.0179C180.899 44.0949 180.822 44.5051 179.745 44.5051C178.694 44.5051 178.592 44.0949 178.592 43.0179Z" fill="white"/>
<path d="M189.515 43.0436C189.515 41.9154 189.694 41.582 190.515 41.582C191.438 41.582 191.72 41.8384 191.745 43.0436C191.745 44.2487 191.463 44.5051 190.515 44.5051C189.694 44.5051 189.515 44.1461 189.515 43.0436Z" fill="white"/>
<path d="M204.771 43.0436C204.771 41.9154 204.951 41.582 205.771 41.582C206.694 41.582 206.976 41.8384 207.002 43.0436C207.002 44.2487 206.72 44.5051 205.771 44.5051C204.951 44.5051 204.771 44.1461 204.771 43.0436Z" fill="white"/>
<path d="M179.694 51.2743C179.694 50.1974 179.771 49.7872 180.848 49.7872C181.899 49.7872 182.002 50.1974 182.002 51.2743C182.002 52.3513 181.925 52.7615 180.848 52.7615C179.797 52.7615 179.694 52.3513 179.694 51.2743Z" fill="white"/>
<path fill-rule="evenodd" clip-rule="evenodd" d="M164.823 61.9143H219.566C220.694 61.9143 221.592 60.9912 221.592 59.863V5.11939C221.592 4.01683 220.694 3.09375 219.566 3.09375H164.823C163.72 3.09375 162.797 3.99119 162.797 5.11939V59.8886C162.797 60.9912 163.694 61.9143 164.823 61.9143ZM183.899 41.0692C184.181 40.7615 184.566 40.659 185.027 40.6077C185.284 40.582 185.386 40.582 185.412 40.582L185.309 41.4795C184.438 41.5308 184.258 41.7872 184.156 42.0948C184.045 42.3827 184.049 42.8235 184.052 43.1697C184.053 43.2243 184.053 43.2766 184.053 43.3256V45.4025H182.951V40.6333H183.899V41.0692ZM210.13 43.8128C210.181 44.3 210.438 44.5564 211.181 44.582C211.662 44.5992 212.086 44.5703 212.506 44.5417C212.713 44.5276 212.919 44.5136 213.13 44.5051L213.002 45.3769C212.617 45.4282 211.874 45.4795 211.207 45.4795H211.13C210.207 45.4538 209.566 45.1974 209.284 44.582C209.079 44.1718 209.027 43.659 209.027 43.0692C209.027 41.6333 209.309 40.5564 211.207 40.5564C213.284 40.5564 213.386 41.7615 213.386 43.4282H210.13V43.8128ZM190.361 52.0692C190.412 52.5564 190.668 52.8128 191.412 52.8384C192.098 52.8629 192.666 52.8173 193.274 52.7684L193.361 52.7615L193.233 53.6333C192.848 53.6846 192.104 53.7359 191.438 53.7359H191.361C190.438 53.7102 189.797 53.4538 189.515 52.8384C189.309 52.4282 189.258 51.9154 189.258 51.3256C189.258 49.8897 189.54 48.8128 191.438 48.8128C193.515 48.8128 193.617 50.0179 193.617 51.6846H190.361V52.0692ZM174.566 45.4025H175.668L176.976 40.6333H175.899L175.079 44.1974L174.104 40.6333H173.027L172.079 44.1974L171.233 40.6333H170.156L171.438 45.4025H172.592L173.592 41.6846L174.566 45.4025ZM179.72 45.4795C180.489 45.4795 181.079 45.3513 181.489 44.941C181.925 44.5308 182.002 43.9154 182.002 43.0179C182.002 42.1205 181.899 41.5051 181.489 41.0949C181.079 40.6846 180.489 40.5564 179.72 40.5564C178.925 40.5564 178.361 40.6846 177.951 41.0949C177.515 41.5051 177.438 42.1205 177.438 43.0179C177.438 43.9154 177.54 44.5308 177.951 44.941C178.361 45.3513 178.951 45.4795 179.72 45.4795ZM187.438 38.582H186.335V45.3769H187.438V38.582ZM191.822 45.0179V45.4025H192.797V38.6077H191.694V40.9923C191.335 40.6077 190.771 40.5564 190.258 40.5564C188.694 40.5564 188.412 41.582 188.412 43.0179C188.412 44.1974 188.489 45.4795 190.386 45.4795C191.002 45.4795 191.54 45.2743 191.822 45.0179ZM198.104 45.4025H199.207L200.489 40.6333H199.438L198.592 44.1974L197.643 40.6333H196.566L195.592 44.1974L194.771 40.6333H193.694L194.976 45.4025H196.13L197.13 41.6846L198.104 45.4025ZM202.566 40.6333H201.463V45.4025H202.566V40.6333ZM207.079 45.0179V45.4025H208.053V38.6077H206.951V40.9923C206.592 40.6077 206.027 40.5564 205.515 40.5564C203.951 40.5564 203.668 41.582 203.668 43.0179C203.668 44.1974 203.745 45.4795 205.643 45.4795C206.258 45.4795 206.797 45.2743 207.079 45.0179ZM176.54 50.7872V53.6333H177.617V50.7872C177.617 50.7536 177.617 50.7198 177.618 50.6858L177.618 50.6427C177.621 50.3013 177.624 49.9477 177.489 49.6333C177.258 49.0692 176.643 48.8128 175.899 48.8128C175.233 48.8128 174.822 48.9666 174.463 49.3C174.181 48.9923 173.745 48.8128 173.207 48.8128C172.592 48.8128 172.181 49.0179 171.899 49.3V48.8897H170.951V53.659H172.053V51.4795C172.053 51.4117 172.052 51.3416 172.051 51.2702C172.04 50.5862 172.027 49.7872 173.002 49.7872C173.747 49.7872 173.746 50.1719 173.745 50.7319L173.745 50.7872V53.659H174.848V51.4538C174.848 51.3887 174.847 51.321 174.846 51.252C174.834 50.5868 174.821 49.7872 175.797 49.7872C176.545 49.7872 176.543 50.151 176.541 50.686C176.54 50.7191 176.54 50.7528 176.54 50.7872ZM180.822 53.7359C181.592 53.7359 182.181 53.6077 182.592 53.1974C183.002 52.8128 183.104 52.1974 183.104 51.2743C183.104 50.3769 183.002 49.7615 182.592 49.3513C182.181 48.941 181.592 48.8128 180.822 48.8128C180.027 48.8128 179.463 48.941 179.053 49.3513C178.617 49.7615 178.54 50.3769 178.54 51.2743C178.54 52.1718 178.643 52.7872 179.053 53.1974C179.463 53.6077 180.053 53.7359 180.822 53.7359ZM187.181 51.1461V53.6333H188.284V51.0436L188.284 50.9266C188.287 49.905 188.29 48.7872 186.438 48.7872C185.745 48.7872 185.335 49.0179 185.053 49.2487V48.8641H184.104V53.6333H185.207V51.4282C185.207 51.3807 185.207 51.3332 185.206 51.2859C185.202 50.5154 185.198 49.7872 186.309 49.7872C187.189 49.7872 187.187 50.1621 187.182 50.953L187.182 50.9592C187.182 50.9936 187.182 51.0289 187.181 51.0649C187.181 51.0916 187.181 51.1186 187.181 51.1461ZM195.027 55.5308H196.181L198.771 48.8897H197.592L196.412 52.3256L195.207 48.8897H194.027L195.848 53.5564L195.027 55.5308ZM202.566 38.8641H201.463V39.9666H202.566V38.8641Z" fill="white"/>
<path d="M83.6428 49.6333C83.6428 50.7615 84.1044 51.3769 86.1813 51.3769C89.2838 51.3769 89.5915 50.1974 89.5915 47.9154H86.0787C84.2326 47.9154 83.6428 48.2487 83.6428 49.6333Z" fill="white"/>
<path d="M115.592 45.7872C115.592 43.9154 115.438 42.8384 112.617 42.8384C109.976 42.8384 109.694 44.0692 109.694 45.7872H115.592Z" fill="white"/>
<path d="M134.335 45.7872C134.335 43.9154 134.181 42.8384 131.361 42.8384C128.72 42.8384 128.438 44.0692 128.438 45.7872H134.335Z" fill="white"/>
<path fill-rule="evenodd" clip-rule="evenodd" d="M5.59156 61.9143H157.643C158.745 61.9143 159.668 60.9912 159.668 59.863V5.11939C159.668 4.01683 158.771 3.09375 157.643 3.09375H5.59156C4.489 3.09375 3.56592 3.99119 3.56592 5.11939V59.8886C3.56592 60.9912 4.46335 61.9143 5.59156 61.9143ZM71.1042 53.6591V37.8642H76.5657V35.0437H62.4888V37.8642H67.9503V53.6591H71.1042ZM98.2324 53.6591H101.284L106.412 40.5565H103.258L99.7965 50.1719L96.3349 40.5565H93.0785L98.2324 53.6591ZM123.514 34.9668H120.489V53.6847H123.514V34.9668ZM144.668 48.9412L147.925 53.6591H151.514L146.514 46.9924L151.361 40.5565H147.899L144.771 45.0181L141.668 40.5565H138.104L142.925 47.0181L137.925 53.6591H141.361L144.668 48.9412ZM77.3095 41.7615C78.1044 40.9154 79.2069 40.6077 80.4377 40.5051C81.1556 40.4282 81.4633 40.4282 81.489 40.4282L81.1813 42.8641C78.771 43.0692 78.3095 43.7359 78.0018 44.582C77.6814 45.4287 77.6878 46.6633 77.6929 47.6481C77.6932 47.7171 77.6936 47.7849 77.6938 47.8513C77.694 47.899 77.6941 47.9461 77.6941 47.9923V53.6846H74.6685V40.582H77.3095V41.7615ZM83.3608 40.5308C84.0274 40.4282 85.4633 40.3 86.9249 40.3513C90.412 40.4795 92.489 41.7359 92.489 45.1205V53.659H89.771V52.582C88.9505 53.3 87.5659 53.8641 85.6941 53.8641C82.5659 53.8641 80.5915 52.8897 80.5915 49.6846C80.5915 45.8897 83.3864 45.4538 86.1813 45.4538H89.5403L89.5394 45.4403C89.4374 43.8333 89.3791 42.9151 86.771 42.8128C86.7537 42.8128 86.7064 42.8114 86.6331 42.8092C86.164 42.7953 84.631 42.7497 83.0787 42.8384L83.3608 40.5308ZM109.694 49.3256C109.874 50.6333 110.54 51.3513 112.592 51.4282C114.172 51.4874 115.463 51.3793 116.793 51.2679C117.19 51.2347 117.59 51.2012 118.002 51.1718L117.668 53.6077C116.617 53.7359 114.566 53.8641 112.72 53.8641H112.438C109.899 53.8641 108.13 53.1205 107.335 51.4282C106.771 50.3256 106.617 48.8897 106.617 47.2743C106.617 43.3513 107.386 40.3513 112.643 40.3513C118.361 40.3513 118.617 43.7102 118.617 48.2743H109.643C109.643 48.5564 109.643 48.8128 109.668 49.0436V49.1461C109.668 49.1718 109.675 49.2038 109.681 49.2359C109.688 49.2679 109.694 49.3 109.694 49.3256ZM128.463 49.3256C128.643 50.6333 129.309 51.3513 131.361 51.4282C132.911 51.4871 134.191 51.3807 135.523 51.2701C135.931 51.2362 136.344 51.2019 136.771 51.1718L136.438 53.6077C135.386 53.7359 133.335 53.8641 131.489 53.8641H131.207C128.668 53.8641 126.899 53.1205 126.104 51.4282C125.54 50.3256 125.386 48.8897 125.386 47.2743C125.386 43.3513 126.156 40.3513 131.412 40.3513C137.13 40.3513 137.386 43.7102 137.386 48.2743H128.412C128.412 48.5563 128.412 48.8129 128.438 49.0436V49.1461C128.438 49.1718 128.444 49.2038 128.451 49.2359C128.457 49.2679 128.463 49.3 128.463 49.3256Z" fill="white"/>
</svg>
