<svg width="122" height="66" viewBox="0 0 122 66" fill="none" xmlns="http://www.w3.org/2000/svg">
<path d="M10.2403 27.2781V23.7942H4.42193L3.37463 29.6007H6.74926C6.51653 30.1813 6.40016 30.762 6.2838 31.3426L4.30556 42.6071C4.1892 43.3039 4.1892 44.0007 4.30556 44.6975H1.0473L0 50.5039H14.7786L15.8259 44.6975H12.684C11.2876 44.6975 10.1239 43.42 10.3566 42.0265L11.9858 32.3878C12.2185 30.762 13.6149 29.6007 15.244 29.6007H21.8769L19.4332 43.42C19.3169 44.3491 19.3169 45.3942 19.5496 46.3233C20.3642 48.8781 22.6915 50.5039 25.2516 50.5039H66.329L76.1038 29.6007H81.573L79.1293 43.42C79.0129 44.3491 79.0129 45.3942 79.2457 46.3233C80.293 48.8781 82.6203 50.5039 85.1804 50.5039H119.974L121.021 44.6975H118.112C116.716 44.6975 115.552 43.42 115.785 42.0265L120.556 14.5039H108.919L107.872 20.3104H113.69L109.734 42.6071C109.617 43.3039 109.617 44.0007 109.734 44.6975H87.3913C85.9949 44.6975 84.8313 43.42 85.064 42.0265L85.4131 40.0523H104.264L106.01 30.2975C106.126 29.3684 106.126 28.3233 105.777 27.3942C104.963 25.1878 102.868 23.9104 100.657 23.9104H72.2637L62.4889 44.8136H60.7434L58.0669 29.7168H64.0016L65.0489 23.9104H51.2013L54.925 44.8136H28.2771C26.8807 44.8136 25.717 43.5362 25.9498 42.1426L26.2989 40.1684H45.1502L46.8957 30.4136C47.0121 29.4846 47.0121 28.4394 46.663 27.5104C45.8484 25.3039 43.7538 24.0265 41.5429 24.0265H32.5827H27.6953H19.0841C17.8041 24.0265 16.6404 24.1426 15.4768 24.6071C14.1967 24.9555 12.9167 26.0007 11.9858 27.2781H10.2403ZM86.6931 31.5749C86.9259 30.4136 87.8568 29.6007 89.0205 29.6007H91.6969H97.6316C99.028 29.6007 100.192 30.8781 99.9589 32.2716L99.6098 34.2458H86.2277L86.6931 31.5749ZM27.6953 31.5749C27.928 30.4136 28.8589 29.6007 30.0226 29.6007H32.699H38.6337C40.0301 29.6007 41.1938 30.8781 40.961 32.2716L40.4956 34.2458H27.2298L27.6953 31.5749Z" fill="white"/>
</svg>
