<svg width="16" height="16" viewBox="0 0 16 16" fill="none" xmlns="http://www.w3.org/2000/svg" class="pds-icon"><path d="M12.708 14a.625.625 0 1 0 1.25 0h-1.25Zm-2.041-4v-.625V10Zm-5.334 0v-.625V10Zm-2.666 2.667h-.625.625ZM2.042 14a.625.625 0 1 0 1.25 0h-1.25Zm11.916 0v-1.333h-1.25V14h1.25Zm0-1.333c0-.873-.346-1.71-.964-2.328l-.884.884c.383.383.598.902.598 1.444h1.25Zm-.964-2.328a3.292 3.292 0 0 0-2.327-.964v1.25c.541 0 1.06.215 1.443.598l.884-.884Zm-2.327-.964H5.333v1.25h5.334v-1.25Zm-5.334 0c-.873 0-1.71.347-2.327.964l.884.884a2.042 2.042 0 0 1 1.443-.598v-1.25Zm-2.327.964a3.292 3.292 0 0 0-.964 2.328h1.25c0-.542.215-1.061.598-1.444l-.884-.884Zm-.964 2.328V14h1.25v-1.333h-1.25Zm8-8A2.042 2.042 0 0 1 8 6.708v1.25a3.292 3.292 0 0 0 3.292-3.291h-1.25ZM8 6.708a2.042 2.042 0 0 1-2.042-2.041h-1.25A3.292 3.292 0 0 0 8 7.958v-1.25ZM5.958 4.667c0-1.128.914-2.042 2.042-2.042v-1.25a3.292 3.292 0 0 0-3.292 3.292h1.25ZM8 2.625c1.128 0 2.042.914 2.042 2.042h1.25A3.292 3.292 0 0 0 8 1.375v1.25Z" fill="currentColor"/></svg>