<svg width="16" height="16" viewBox="0 0 16 16" fill="none" xmlns="http://www.w3.org/2000/svg" class="pds-icon"><path d="m8 1.333.304-.546a.625.625 0 0 0-.608 0L8 1.333Zm6 3.334v.625a.625.625 0 0 0 .303-1.172L14 4.667Zm-12 0-.304-.547A.625.625 0 0 0 2 5.292v-.625Zm4.958 2.666a.625.625 0 1 0-1.25 0h1.25Zm-1.25 4a.625.625 0 1 0 1.25 0h-1.25Zm-2.083-4a.625.625 0 1 0-1.25 0h1.25Zm-1.25 4a.625.625 0 1 0 1.25 0h-1.25Zm7.917-4a.625.625 0 0 0-1.25 0h1.25Zm-1.25 4a.625.625 0 1 0 1.25 0h-1.25Zm4.583-4a.625.625 0 1 0-1.25 0h1.25Zm-1.25 4a.625.625 0 1 0 1.25 0h-1.25ZM14 14.625a.625.625 0 1 0 0-1.25v1.25Zm-12-1.25a.625.625 0 1 0 0 1.25v-1.25Zm0-8.083h12v-1.25H2v1.25ZM7.696.787l-6 3.333.608 1.093 6-3.333L7.696.787Zm6.607 3.333-6-3.333-.607 1.093 6 3.333.607-1.093ZM5.708 7.333v4h1.25v-4h-1.25Zm-3.333 0v4h1.25v-4h-1.25Zm6.667 0v4h1.25v-4h-1.25Zm3.333 0v4h1.25v-4h-1.25ZM14 13.375H2v1.25h12v-1.25Z" fill="currentColor"/></svg>