<svg width="16" height="16" viewBox="0 0 16 16" fill="none" xmlns="http://www.w3.org/2000/svg" class="pds-icon"><path d="M2.333 8v-.625A.625.625 0 0 0 1.708 8h.625Zm11.334 0h.625a.625.625 0 0 0-.625-.625V8Zm-.625 2.667a.625.625 0 0 0 1.25 0h-1.25Zm-4.417-6a.625.625 0 1 0-1.25 0h1.25Zm-6.917 6a.625.625 0 0 0 1.25 0h-1.25Zm5.667 0a.625.625 0 0 0 1.25 0h-1.25Zm-1.042-6h-.625a.625.625 0 0 0 .625.625v-.625Zm0-2.667v-.625A.625.625 0 0 0 5.708 2h.625Zm3.334 0h.625a.625.625 0 0 0-.625-.625V2Zm0 2.667v.625c.345 0 .625-.28.625-.625h-.625ZM12 13.333h-.625c0 .345.28.625.625.625v-.625Zm0-2.666v-.625a.625.625 0 0 0-.625.625H12Zm3.333 0h.625a.625.625 0 0 0-.625-.625v.625Zm0 2.666v.625c.345 0 .625-.28.625-.625h-.625Zm-9 0h-.625c0 .345.28.625.625.625v-.625Zm0-2.666v-.625a.625.625 0 0 0-.625.625h.625Zm3.334 0h.625a.625.625 0 0 0-.625-.625v.625Zm0 2.666v.625c.345 0 .625-.28.625-.625h-.625Zm-9 0H.042c0 .345.28.625.625.625v-.625Zm0-2.666v-.625a.625.625 0 0 0-.625.625h.625Zm3.333 0h.625A.625.625 0 0 0 4 10.042v.625Zm0 2.666v.625c.345 0 .625-.28.625-.625H4Zm4-5.958H2.333v1.25H8v-1.25Zm0 1.25h5.667v-1.25H8v1.25ZM13.042 8v2.667h1.25V8h-1.25ZM7.375 4.667V8h1.25V4.667h-1.25ZM1.708 8v2.667h1.25V8h-1.25Zm5.667 0v2.667h1.25V8h-1.25Zm-.417-3.333V2h-1.25v2.667h1.25Zm-.625-2.042h3.334v-1.25H6.333v1.25ZM9.042 2v2.667h1.25V2h-1.25Zm.625 2.042H6.333v1.25h3.334v-1.25Zm2.958 9.291v-2.666h-1.25v2.666h1.25ZM12 11.292h3.333v-1.25H12v1.25Zm2.708-.625v2.666h1.25v-2.666h-1.25Zm.625 2.041H12v1.25h3.333v-1.25Zm-8.375.625v-2.666h-1.25v2.666h1.25Zm-.625-2.041h3.334v-1.25H6.333v1.25Zm2.709-.625v2.666h1.25v-2.666h-1.25Zm.625 2.041H6.333v1.25h3.334v-1.25Zm-8.375.625v-2.666H.042v2.666h1.25Zm2.083-2.666v2.666h1.25v-2.666h-1.25ZM4 12.708H.667v1.25H4v-1.25ZM.667 11.292H4v-1.25H.667v1.25Z" fill="currentColor"/></svg>