<svg width="16" height="16" viewBox="0 0 16 16" fill="none" xmlns="http://www.w3.org/2000/svg" class="pds-icon"><path d="m9.339 1.333.464-.418A.625.625 0 0 0 9.34.708v.625ZM4 1.333V.708v.625ZM2.667 2.667h-.625.625Zm0 10.666h-.625.625ZM13.333 5.77h.625a.625.625 0 0 0-.16-.418l-.465.418Zm-3.994 0h-.625c0 .345.28.625.625.625v-.625Zm1.328 3.523a.625.625 0 0 0 0-1.25v1.25Zm-5.334-1.25a.625.625 0 0 0 0 1.25v-1.25Zm5.334 3.916a.625.625 0 0 0 0-1.25v1.25Zm-5.334-1.25a.625.625 0 0 0 0 1.25v-1.25Zm1.334-4.083a.625.625 0 0 0 0-1.25v1.25Zm-1.334-1.25a.625.625 0 0 0 0 1.25v-1.25ZM9.34.708H4v1.25h5.339V.708ZM4 .708c-.52 0-1.018.207-1.385.574l.884.884A.708.708 0 0 1 4 1.958V.708Zm-1.385.574a1.958 1.958 0 0 0-.573 1.385h1.25c0-.188.074-.368.207-.501l-.884-.884Zm-.573 1.385v10.666h1.25V2.667h-1.25Zm0 10.666c0 .52.206 1.018.573 1.385l.884-.884a.708.708 0 0 1-.207-.5h-1.25Zm.573 1.385c.367.367.866.574 1.385.574v-1.25a.709.709 0 0 1-.5-.208l-.885.884ZM4 15.292h8v-1.25H4v1.25Zm8 0c.52 0 1.018-.207 1.385-.574l-.884-.884a.709.709 0 0 1-.501.208v1.25Zm1.385-.574c.367-.367.573-.865.573-1.385h-1.25a.708.708 0 0 1-.207.501l.884.884Zm.573-1.385V5.77h-1.25v7.564h1.25Zm-.16-7.982L9.803.915l-.929.837 3.995 4.435.929-.836Zm-.465-.207H9.34v1.25h3.994v-1.25Zm-3.37.625V1.333h-1.25V5.77h1.25Zm.704 2.273H5.333v1.25h5.334v-1.25Zm0 2.666H5.333v1.25h5.334v-1.25Zm-4-5.333H5.333v1.25h1.334v-1.25Z" fill="currentColor"/></svg>