<svg width="16" height="16" viewBox="0 0 16 16" fill="none" xmlns="http://www.w3.org/2000/svg" class="pds-icon"><path d="M5.333 3.375a.625.625 0 0 0 0 1.25v-1.25ZM14 4.625a.625.625 0 1 0 0-1.25v1.25Zm-8.667 2.75a.625.625 0 0 0 0 1.25v-1.25ZM14 8.625a.625.625 0 1 0 0-1.25v1.25Zm-8.667 2.75a.625.625 0 1 0 0 1.25v-1.25ZM14 12.625a.625.625 0 1 0 0-1.25v1.25ZM2 3.375a.625.625 0 1 0 0 1.25v-1.25Zm.007 1.25a.625.625 0 0 0 0-1.25v1.25ZM2 7.375a.625.625 0 1 0 0 1.25v-1.25Zm.007 1.25a.625.625 0 0 0 0-1.25v1.25ZM2 11.375a.625.625 0 1 0 0 1.25v-1.25Zm.007 1.25a.625.625 0 1 0 0-1.25v1.25Zm3.326-8H14v-1.25H5.333v1.25Zm0 4H14v-1.25H5.333v1.25Zm0 4H14v-1.25H5.333v1.25ZM2 4.625h.007v-1.25H2v1.25Zm0 4h.007v-1.25H2v1.25Zm0 4h.007v-1.25H2v1.25Z" fill="currentColor"/></svg>