<svg width="124" height="124" viewBox="0 0 124 124" fill="none" xmlns="http://www.w3.org/2000/svg">
<g clip-path="url(#clip0_1006_157726)">
<rect width="124" height="124" rx="24" fill="#68F0FD"/>
<path d="M15.2627 31.7319H16.457C16.4633 31.8353 16.4758 31.9294 16.4758 32.0203C16.4758 33.9763 16.4758 35.9323 16.4758 37.8883C16.4758 38.65 16.4758 39.4117 16.4758 40.1734C16.4758 40.2455 16.4758 40.3208 16.4758 40.4305C16.5479 40.3741 16.5855 40.349 16.62 40.3208C17.7328 39.2895 18.8487 38.2582 19.9615 37.2269C20.8173 36.4338 21.6762 35.6408 22.5288 34.8446C22.6385 34.7411 22.7513 34.7035 22.8987 34.7066C23.2905 34.716 23.6823 34.7066 24.0741 34.7098C24.1306 34.7098 24.1901 34.716 24.2998 34.7254C22.861 36.0733 21.4599 37.3836 20.0399 38.7127C21.5006 40.8505 22.9551 42.9789 24.4284 45.1356C24.3281 45.145 24.2622 45.1512 24.1964 45.1544C23.8673 45.1544 23.535 45.1481 23.2059 45.1575C23.0491 45.1638 22.9551 45.1042 22.8704 44.9757C21.8486 43.4711 20.8204 41.9696 19.7954 40.4681C19.6198 40.2142 19.4474 39.9571 19.2719 39.7032C19.2374 39.6531 19.1998 39.6061 19.1559 39.5496C19.1026 39.5904 19.0556 39.6217 19.018 39.6594C18.2281 40.3803 17.4381 41.1076 16.6419 41.8254C16.5228 41.932 16.4789 42.0417 16.4789 42.1984C16.4852 43.0918 16.4789 43.982 16.4789 44.8754C16.4789 44.9569 16.4789 45.0384 16.4789 45.145L15.2658 45.1575V31.7319H15.2627Z" fill="black"/>
<path d="M111.728 51.9606C110.828 51.9606 109.929 51.9606 109.029 51.9606C108.919 51.9606 108.81 51.9574 108.7 51.948C108.575 51.9355 108.553 51.9073 108.546 51.7756C108.546 51.7411 108.546 51.7067 108.546 51.6722C108.546 50.2867 108.546 48.898 108.546 47.5125C108.546 47.4655 108.546 47.4153 108.546 47.3683C108.546 47.29 108.59 47.2555 108.659 47.2461C108.706 47.2398 108.756 47.2398 108.803 47.2398C109.669 47.2398 110.537 47.2398 111.402 47.2398C111.462 47.2398 111.524 47.2492 111.6 47.2523V47.8542C111.22 47.8699 110.844 47.8605 110.471 47.8636C110.095 47.8636 109.716 47.8636 109.324 47.8636V49.2334C109.487 49.2334 109.644 49.2334 109.8 49.2334C110.343 49.2334 110.885 49.2334 111.427 49.2334C111.531 49.2334 111.587 49.2805 111.59 49.3745C111.596 49.4967 111.596 49.6221 111.59 49.7444C111.584 49.8384 111.531 49.8854 111.427 49.8854C110.872 49.8854 110.314 49.8854 109.759 49.8854C109.622 49.8854 109.487 49.8854 109.355 49.8854C109.305 50.0359 109.292 51.039 109.339 51.3023C109.415 51.3054 109.496 51.3117 109.575 51.3117C110.214 51.3117 110.853 51.3117 111.493 51.3117C111.574 51.3117 111.656 51.3274 111.737 51.3336V51.9512L111.728 51.9606Z" fill="black"/>
<path d="M64.9809 45.114C64.8179 45.1705 64.0248 45.1736 63.8054 45.114V43.5373L63.7584 43.5123C62.9215 44.5247 61.9058 45.2614 60.6175 45.5717C59.8527 45.7566 59.0815 45.7911 58.3073 45.6877C57.6208 45.5968 56.9719 45.3836 56.3638 45.0482C55.6993 44.6815 55.1382 44.1925 54.6492 43.6188C52.7966 41.4497 52.7841 37.7445 55.32 35.5346C56.5832 34.4344 58.0596 33.9861 59.721 34.124C61.3886 34.2651 62.7114 35.0487 63.7803 36.3747C63.7929 36.2838 63.8054 36.2336 63.8054 36.1866C63.8054 35.7822 63.8054 35.3779 63.8054 34.9704V34.7227C64.2067 34.7071 64.5859 34.7102 64.9809 34.7196V45.114ZM63.8054 39.9419C63.843 37.4467 61.7648 35.3026 59.2069 35.2807C56.6208 35.2588 54.5614 37.384 54.5206 39.8385C54.4799 42.3744 56.5425 44.5592 59.1662 44.5592C61.7993 44.5592 63.8242 42.3744 63.8054 39.9419Z" fill="black"/>
<path d="M81.7483 36.3049V34.7188C82.1464 34.7062 82.5257 34.7094 82.9206 34.7188V45.1101C82.7514 45.1728 81.9301 45.1728 81.7483 45.1038V43.5051C81.6762 43.5678 81.6354 43.5992 81.601 43.6368C81.275 44.0192 80.9145 44.3672 80.507 44.6649C79.7829 45.1916 78.9804 45.5238 78.0964 45.6618C77.2501 45.7934 76.4131 45.7652 75.5856 45.5489C74.4038 45.2417 73.4384 44.5929 72.6516 43.6713C71.9181 42.8124 71.4667 41.825 71.3413 40.7028C71.1062 38.6088 71.7519 36.8472 73.36 35.4617C74.2377 34.7031 75.2596 34.2642 76.41 34.1357C77.3441 34.0291 78.2594 34.1263 79.1465 34.446C80.0368 34.7689 80.7797 35.3081 81.416 36.004C81.5132 36.1105 81.6072 36.2171 81.7013 36.3237L81.7514 36.308L81.7483 36.3049ZM81.7483 39.9128C81.8078 37.5431 79.7829 35.2893 77.1278 35.2799C74.5386 35.2705 72.4353 37.4522 72.4698 39.9881C72.5011 42.3892 74.5104 44.5678 77.1216 44.5584C79.8079 44.5521 81.8141 42.2732 81.7483 39.9128Z" fill="black"/>
<path d="M34.801 34.7413C35.0267 34.6975 35.7916 34.7037 35.9546 34.7507V45.1358C35.8856 45.1421 35.826 45.1546 35.7665 45.1546C35.5063 45.1546 35.243 45.1546 34.9828 45.1546C34.7979 45.1546 34.7822 45.1389 34.7822 44.954C34.7822 44.5496 34.7822 44.1452 34.7822 43.7377C34.7822 43.6719 34.7759 43.6061 34.754 43.5308C33.8136 44.653 32.6632 45.4085 31.2087 45.6499C30.1618 45.8254 29.1273 45.7533 28.1243 45.3928C27.1839 45.0574 26.4096 44.4775 25.7482 43.7409C23.7953 41.5686 23.8079 37.9543 26.0366 35.7852C26.8422 35.0015 27.7763 34.453 28.886 34.2273C29.98 34.0047 31.0583 34.0549 32.1146 34.4185C33.1836 34.7852 34.0299 35.4686 34.7634 36.3588C34.7759 36.2773 34.7853 36.2334 34.7853 36.1895C34.7853 35.7852 34.7853 35.3808 34.7853 34.9733C34.7853 34.8949 34.7979 34.8134 34.8042 34.7382L34.801 34.7413ZM34.7791 39.9386C34.8543 37.5218 32.7792 35.2774 30.1461 35.2805C27.56 35.2805 25.51 37.4497 25.5037 39.9041C25.4974 42.3836 27.5349 44.5653 30.1524 44.5621C32.8481 44.559 34.8386 42.2833 34.7822 39.9417L34.7791 39.9386Z" fill="black"/>
<path d="M37.5026 45.1394V34.7575C37.65 34.7042 38.3584 34.6917 38.6531 34.7355C38.7126 34.9989 38.6468 35.281 38.6969 35.5913C38.8349 35.4628 38.9477 35.3593 39.0606 35.2559C39.7345 34.6572 40.5119 34.2779 41.4084 34.1525C42.3457 34.0177 43.2516 34.1149 44.0979 34.5381C45.4803 35.2308 46.3643 36.3311 46.6746 37.8608C46.7247 38.1084 46.7373 38.3655 46.7373 38.6162C46.7404 40.7039 46.7373 42.7916 46.7373 44.8761C46.7373 44.9576 46.7373 45.0391 46.7373 45.1363C46.336 45.1676 45.9567 45.1519 45.5555 45.1488C45.5555 45.0328 45.5555 44.9513 45.5555 44.8698C45.5555 42.7978 45.5618 40.7227 45.5555 38.6507C45.5524 37.5818 45.101 36.7166 44.2797 36.0427C43.7343 35.5944 43.1042 35.3625 42.3958 35.2998C40.4931 35.1274 38.9132 36.5474 38.6969 38.2557C38.675 38.4187 38.675 38.5849 38.675 38.7479C38.675 40.7666 38.675 42.7853 38.675 44.804C38.675 45.2209 38.6687 45.1488 38.3145 45.1551C38.1139 45.1551 37.9164 45.1551 37.7158 45.1551C37.65 45.1551 37.5841 45.1457 37.4995 45.1394H37.5026Z" fill="black"/>
<path d="M51.8345 35.8977C51.5524 35.8977 51.2922 35.8977 51.032 35.8977C50.5963 35.8977 50.6433 35.8507 50.6433 36.277C50.6433 39.1452 50.6433 42.0165 50.6433 44.8847V45.101C50.4646 45.1668 49.6434 45.17 49.4522 45.101V35.9009H48.2641C48.2516 35.4965 48.2547 35.1235 48.2641 34.7222C48.6528 34.6878 49.0352 34.7254 49.4428 34.6972C49.4678 34.4464 49.4522 34.1987 49.4553 33.9574C49.4553 33.7097 49.4553 33.4621 49.4553 33.2145V31.7381C49.8565 31.713 50.2358 31.7193 50.6402 31.7349V34.6909C51.0477 34.7348 51.4364 34.6846 51.8345 34.7222V35.8946V35.8977Z" fill="black"/>
<path d="M66.5201 34.7199C66.9088 34.7073 67.2819 34.7042 67.6706 34.723L67.705 35.1932C68.1846 34.8954 68.6768 34.7418 69.2065 34.7136C69.3883 34.7042 69.5733 34.7136 69.7708 34.7136V35.8922C69.6328 35.8922 69.5043 35.8922 69.3758 35.8953C68.868 35.8985 68.4417 36.0834 68.1 36.4627C67.8085 36.7856 67.6925 37.1711 67.6894 37.5975C67.6862 38.1397 67.6894 38.682 67.6894 39.2243C67.6894 41.0988 67.6894 42.9733 67.6894 44.8479V45.1112C67.6455 45.13 67.6204 45.1488 67.5953 45.1488C67.2787 45.1488 66.9621 45.1488 66.6455 45.1551C66.5484 45.1551 66.5107 45.108 66.5107 45.0171C66.5107 44.9607 66.5107 44.9074 66.5107 44.851C66.5107 41.569 66.5107 38.2871 66.5107 35.0082C66.5107 34.9205 66.517 34.8327 66.5233 34.7199H66.5201Z" fill="black"/>
<path d="M71.7297 50.756V50.5397C71.7297 49.5241 71.7297 48.5085 71.7297 47.4929C71.7297 47.2578 71.7422 47.2452 71.9679 47.2421C72.1372 47.2421 72.3096 47.2421 72.4726 47.2421C72.5196 47.4082 72.5353 51.64 72.4914 51.9503C72.3127 51.9503 72.1309 51.966 71.946 51.9503C71.8802 51.9472 71.8049 51.897 71.7579 51.8469C70.7423 50.7404 69.7267 49.6307 68.7142 48.521C68.6766 48.4803 68.6327 48.4427 68.57 48.4113C68.5355 48.7123 68.5418 49.0006 68.5418 49.2922C68.5418 49.5868 68.5418 49.8815 68.5418 50.1761C68.5418 50.4708 68.5418 50.7529 68.5418 51.0413C68.5418 51.3328 68.5418 51.6275 68.5418 51.9221C68.3098 51.9785 68.1061 51.966 67.9023 51.9472C67.8145 51.9378 67.7675 51.8845 67.7707 51.7936C67.7707 51.7528 67.7707 51.7121 67.7707 51.6713C67.7707 50.2858 67.7707 48.9003 67.7707 47.5117C67.7707 47.4772 67.7707 47.4427 67.7707 47.4082C67.7769 47.2829 67.802 47.2515 67.9274 47.2452C68.0653 47.239 68.2032 47.2452 68.338 47.2421C68.4415 47.239 68.4979 47.3079 68.5606 47.3738C69.1248 47.9913 69.6922 48.6088 70.2564 49.2263C70.6953 49.7059 71.1372 50.1887 71.5761 50.6683C71.6074 50.7027 71.6357 50.7435 71.6639 50.7811L71.7297 50.756Z" fill="black"/>
<path d="M92.0139 51.9498C91.7694 51.9498 91.5594 51.9498 91.3525 51.9498C91.2459 51.9498 91.2208 51.8715 91.1832 51.7962C91.0139 51.4357 90.8384 51.0784 90.6723 50.7179C90.6315 50.627 90.5814 50.58 90.4716 50.58C89.8196 50.5831 89.1676 50.58 88.5156 50.5831C88.4968 50.5831 88.4749 50.5925 88.4341 50.5988C88.3025 50.8778 88.1646 51.1693 88.0266 51.4577C87.9671 51.5831 87.9075 51.7053 87.8542 51.8307C87.8229 51.8997 87.7853 51.9498 87.7038 51.9498C87.4937 51.9498 87.2837 51.9498 87.0518 51.9498C87.08 51.8777 87.0956 51.8276 87.1176 51.7805C87.7978 50.3261 88.478 48.8747 89.1551 47.4203C89.2209 47.2792 89.2993 47.2291 89.4529 47.2322C89.7789 47.2385 89.782 47.2322 89.9231 47.53C90.5908 48.9343 91.2584 50.3417 91.9261 51.7461C91.9481 51.7962 91.97 51.8464 92.0107 51.9435L92.0139 51.9498ZM89.5281 48.345L89.4748 48.3544C89.246 48.8528 89.0203 49.3512 88.7915 49.8465C88.7852 49.859 88.7852 49.8747 88.7852 49.8872C88.7852 49.8935 88.7915 49.8998 88.7946 49.906C88.7977 49.9123 88.804 49.9154 88.8009 49.9123H90.2679L89.525 48.3419L89.5281 48.345Z" fill="black"/>
<path d="M104.34 50.5399C104.377 50.4741 104.402 50.4365 104.424 50.3957C104.907 49.3958 105.39 48.3958 105.866 47.3927C105.916 47.2862 105.982 47.2329 106.101 47.2391C106.292 47.2454 106.48 47.2391 106.706 47.2391C105.932 48.8472 105.173 50.4208 104.412 52.0006H104.236C103.493 50.4239 102.75 48.8503 101.992 47.2454C102.246 47.2454 102.471 47.2423 102.694 47.2454C102.785 47.2454 102.807 47.3363 102.838 47.4021C103.032 47.8128 103.224 48.2203 103.418 48.6309C103.691 49.2077 103.96 49.7845 104.236 50.3612C104.261 50.4145 104.296 50.4615 104.34 50.5368V50.5399Z" fill="black"/>
<path d="M97.2992 47.2671V47.8439C97.2114 47.8533 97.133 47.8658 97.0547 47.8658C96.6001 47.8658 96.1488 47.8658 95.6942 47.8658C95.619 47.8658 95.5469 47.8658 95.4497 47.8658V51.9032C95.2178 51.9753 94.9262 51.9753 94.6817 51.9064V47.8627H92.8354V47.2765C93.0016 47.2264 97.0202 47.2138 97.2992 47.264V47.2671Z" fill="black"/>
<path d="M79.7637 47.8752C79.1274 47.8564 78.5255 47.8815 77.9111 47.8595V47.2639C77.977 47.2577 78.0428 47.242 78.1055 47.242C79.4534 47.242 80.7981 47.242 82.146 47.242C82.2056 47.242 82.2651 47.2514 82.356 47.2608C82.356 47.4364 82.356 47.5962 82.356 47.7592C82.356 47.825 82.3184 47.8595 82.2557 47.8658C82.2024 47.8689 82.146 47.8689 82.0896 47.8689C81.6445 47.8689 81.1962 47.8689 80.7511 47.8689C80.6759 47.8689 80.6038 47.8689 80.5035 47.8689V48.1322C80.5035 49.3046 80.5035 50.4801 80.5035 51.6524C80.5035 51.7089 80.5035 51.7621 80.5035 51.8186C80.5035 51.9032 80.4659 51.9502 80.3812 51.9502C80.1837 51.9502 79.9863 51.9502 79.7668 51.9502V47.8783L79.7637 47.8752Z" fill="black"/>
<path d="M84.4285 47.2705C84.6887 47.2141 84.9332 47.2517 85.1902 47.2423V51.9286C84.9739 51.9756 84.7639 51.9662 84.5539 51.9474C84.4661 51.938 84.4159 51.891 84.4191 51.8001C84.4191 51.7656 84.4191 51.7311 84.4191 51.6966C84.4191 50.2923 84.4191 48.888 84.4191 47.4806C84.4191 47.421 84.4254 47.3583 84.4285 47.2705Z" fill="black"/>
<path d="M75.0684 51.9442V47.2548C75.2972 47.2266 75.5229 47.2297 75.7454 47.2548C75.7799 47.2579 75.8207 47.3238 75.8395 47.3676C75.8552 47.4084 75.8426 47.4617 75.8426 47.5118C75.8426 48.8973 75.8426 50.286 75.8426 51.6715C75.8426 51.7123 75.8426 51.753 75.8426 51.7938C75.8489 51.8878 75.8019 51.9411 75.7141 51.9442C75.5041 51.9505 75.2941 51.9442 75.0715 51.9442H75.0684Z" fill="black"/>
<path d="M64.514 47.2398C64.7053 47.2398 64.8902 47.2398 65.0751 47.2398C65.1159 47.2398 65.1535 47.2555 65.2037 47.2649V51.9198C64.9623 51.9825 64.7335 51.9606 64.5046 51.9355C64.4545 51.7474 64.4576 47.4373 64.514 47.2398Z" fill="black"/>
<path d="M100.077 51.9258C99.879 51.9791 99.6721 51.9635 99.4684 51.9478C99.3932 51.9415 99.3618 51.8976 99.3618 51.8255C99.3618 51.7785 99.3618 51.7284 99.3618 51.6813C99.3618 50.2896 99.3618 48.8947 99.3618 47.5029V47.2615C99.6126 47.2302 99.8414 47.2396 100.067 47.2521C100.12 47.4182 100.127 51.7158 100.077 51.9258Z" fill="black"/>
<path d="M85.1871 26.1272C84.0868 24.7135 82.7797 23.6101 81.1935 22.8484C81.0901 22.7983 80.9334 22.8077 80.8143 22.8422C79.6294 23.187 78.6545 23.8484 77.8834 24.7919C77.8144 24.8734 77.7454 24.9549 77.6796 25.0395C76.1437 27.0143 75.6609 29.334 75.5073 31.7853H82.8549C82.8455 30.7383 83.0555 29.7509 83.4191 28.798C83.7859 27.8325 84.3345 26.9767 85.0836 26.2526L85.0742 26.2401C85.1118 26.2025 85.1495 26.1649 85.1871 26.1304V26.1272Z" fill="black" stroke="#68F0FD" stroke-width="0.75"/>
<path d="M68.2505 31.7849C68.5389 30.4746 68.9182 29.249 69.4511 28.0735C70.2065 26.3965 71.219 24.9107 72.6985 23.7822C74.4069 22.4782 76.3629 21.9139 78.4851 22.0143C79.1214 22.0425 79.7452 22.3528 80.3721 22.5471C80.5947 22.6161 80.8047 22.7321 81.0899 22.8543C80.9583 22.9108 80.9081 22.9358 80.8517 22.9546C79.0462 23.5032 77.808 24.7069 76.9585 26.3495C76.1247 27.9607 75.7642 29.6972 75.6514 31.4902C75.6451 31.5906 75.6388 31.694 75.6325 31.788H68.2536L68.2505 31.7849Z" fill="black" stroke="#68F0FD" stroke-width="0.75"/>
<path d="M111.336 45.3332C110.631 41.3867 109.537 37.5656 107.662 33.9952C106.186 31.1803 104.308 28.6789 101.863 26.6257C99.4184 24.5725 96.6536 23.1463 93.5347 22.4347C92.8137 22.2717 92.0865 22.1024 91.353 22.046C91.1147 22.0523 90.8985 22.046 90.6728 22.046H86.0962C86.1652 22.0836 86.2341 22.1244 86.3062 22.1557C87.3062 22.604 88.3531 22.9739 89.3029 23.5099C92.9266 25.5537 95.5596 28.5441 97.4185 32.2304C99.3243 36.0171 100.168 40.0733 100.443 44.2706C100.472 44.6969 100.494 45.1232 100.519 45.5401H111.355C111.349 45.4523 111.349 45.3928 111.336 45.3332Z" fill="black" stroke="#68F0FD" stroke-width="0.75"/>
<path d="M78.3283 22.0016C78.4851 22.0016 78.5948 22.0016 78.7045 22.0016C81.1903 22.0016 83.676 21.9953 86.1586 22.0078C86.4815 22.0078 86.8169 22.0611 87.121 22.1677C90.2023 23.2335 92.7664 25.0704 94.9199 27.4934C97.4935 30.3898 99.0953 33.7909 100.07 37.5117C100.744 40.0853 101.067 42.7089 101.18 45.3608C101.18 45.411 101.18 45.4612 101.18 45.5395H88.8544C88.8889 45.1069 88.9297 44.6712 88.9579 44.2355C89.2306 39.7687 88.9861 35.3551 87.5661 31.0732C86.8451 28.8978 85.7982 26.8602 84.1932 25.1926C83.2905 24.2554 82.2936 23.4153 81.0993 22.9043C80.0743 22.4467 78.8706 22.0987 78.3252 22.0016H78.3283Z" fill="black" stroke="#68F0FD" stroke-width="0.75"/>
<path d="M107.929 24.1897V22.2745H107.214V22.0206H108.935V22.2745H108.217V24.1897H107.929Z" fill="black"/>
<path d="M109.22 24.1902V22.0211H109.653L110.167 23.557C110.214 23.7012 110.248 23.8078 110.27 23.8768C110.295 23.7984 110.333 23.6824 110.386 23.5288L110.907 22.0179H111.292V24.1902H111.016V22.3722L110.386 24.1902H110.126L109.499 22.3408V24.1902H109.223H109.22Z" fill="black"/>
<g filter="url(#filter0_d_1006_157726)">
<rect x="11" y="67" width="105" height="42" rx="20" fill="#B4F8FE" shape-rendering="crispEdges"/>
<path d="M22.0072 87V78.64H24.2512L26.8582 86.934V78.64H27.9692V87H25.7252L23.1182 78.706V87H22.0072ZM29.7973 87V86.01H32.1403V79.63H29.7973V78.64H35.5943V79.63H33.2513V86.01H35.5943V87H29.7973ZM40.4805 87.121C38.7535 87.121 37.5655 86.131 37.3345 84.481H38.4895C38.6215 85.614 39.3915 86.186 40.4915 86.186C41.6685 86.186 42.3505 85.57 42.3505 84.701C42.3505 83.788 41.7565 83.601 40.5685 83.293L39.6005 83.04C38.4455 82.743 37.5435 82.105 37.5435 80.84C37.5435 79.509 38.8195 78.519 40.3595 78.519C41.9875 78.519 43.0325 79.443 43.2525 80.818H42.0975C41.8775 79.861 41.2285 79.454 40.3595 79.454C39.4355 79.454 38.6435 79.96 38.6435 80.73C38.6435 81.522 39.1385 81.775 40.2715 82.072L41.2395 82.325C42.7575 82.721 43.4505 83.271 43.4505 84.58C43.4505 86.076 42.2295 87.121 40.4805 87.121ZM47.5446 87V79.63H44.7616V78.64H51.4386V79.63H48.6556V87H47.5446ZM63.4989 87.121C61.7609 87.121 60.3859 86.241 60.3859 84.635C60.3859 83.293 61.5079 82.699 62.4209 82.534C61.5519 82.314 60.6389 81.874 60.6389 80.675C60.6389 79.344 61.8159 78.519 63.4989 78.519C65.1819 78.519 66.3589 79.344 66.3589 80.675C66.3589 81.874 65.4459 82.314 64.5769 82.534C65.4899 82.699 66.6119 83.293 66.6119 84.635C66.6119 86.241 65.2369 87.121 63.4989 87.121ZM61.5079 84.58C61.5079 85.779 62.5419 86.252 63.4989 86.252C64.4559 86.252 65.4899 85.779 65.4899 84.58C65.4899 83.557 64.6099 82.963 63.4989 82.963C62.3879 82.963 61.5079 83.557 61.5079 84.58ZM61.7499 80.741C61.7499 81.478 62.2449 82.094 63.4989 82.094C64.7529 82.094 65.2479 81.478 65.2479 80.741C65.2479 79.96 64.6759 79.388 63.4989 79.388C62.3219 79.388 61.7499 79.96 61.7499 80.741ZM71.2011 87.121C69.2101 87.121 67.9671 85.603 67.9671 82.82C67.9671 80.037 69.2101 78.519 71.2011 78.519C73.1921 78.519 74.4351 80.037 74.4351 82.82C74.4351 85.603 73.1921 87.121 71.2011 87.121ZM69.0891 82.82C69.0891 83.546 69.1661 84.162 69.3201 84.657L72.4991 79.927C72.1581 79.575 71.7181 79.388 71.2011 79.388C69.8811 79.388 69.0891 80.565 69.0891 82.82ZM69.9031 85.702C70.2441 86.065 70.6841 86.252 71.2011 86.252C72.5211 86.252 73.3131 85.075 73.3131 82.82C73.3131 82.094 73.2361 81.478 73.0711 80.972L69.9031 85.702ZM78.9032 87.121C76.9122 87.121 75.6692 85.603 75.6692 82.82C75.6692 80.037 76.9122 78.519 78.9032 78.519C80.8942 78.519 82.1372 80.037 82.1372 82.82C82.1372 85.603 80.8942 87.121 78.9032 87.121ZM76.7912 82.82C76.7912 83.546 76.8682 84.162 77.0222 84.657L80.2012 79.927C79.8602 79.575 79.4202 79.388 78.9032 79.388C77.5832 79.388 76.7912 80.565 76.7912 82.82ZM77.6052 85.702C77.9462 86.065 78.3862 86.252 78.9032 86.252C80.2232 86.252 81.0152 85.075 81.0152 82.82C81.0152 82.094 80.9382 81.478 80.7732 80.972L77.6052 85.702ZM84.8674 83.183V82.193H88.3434V83.183H84.8674ZM94.5935 87.121C92.6245 87.121 91.3155 85.724 91.3155 82.82C91.3155 80.048 92.6355 78.519 94.5825 78.519C96.1005 78.519 97.1235 79.3 97.4315 80.675H96.3095C96.1005 79.96 95.5725 79.388 94.5825 79.388C92.9655 79.388 92.3605 81.126 92.4375 83.172C92.7345 82.171 93.7025 81.478 94.8025 81.478C96.5295 81.478 97.6295 82.578 97.6295 84.305C97.6295 86.01 96.2985 87.121 94.5935 87.121ZM92.5585 84.206C92.5585 85.372 93.2405 86.252 94.5715 86.252C95.6715 86.252 96.5075 85.482 96.5075 84.305C96.5075 83.139 95.7925 82.347 94.5715 82.347C93.3505 82.347 92.5585 83.161 92.5585 84.206ZM101.867 87.121C100.151 87.121 99.1057 86.219 98.9517 84.789H100.074C100.173 85.647 100.745 86.252 101.867 86.252C102.736 86.252 103.858 85.812 103.858 84.602C103.858 83.546 102.89 83.029 101.735 83.029H101.229V82.127H101.735C102.879 82.127 103.594 81.511 103.594 80.73C103.594 79.949 102.923 79.388 101.856 79.388C100.866 79.388 100.305 79.938 100.239 80.741H99.1167C99.2377 79.344 100.481 78.519 101.856 78.519C103.407 78.519 104.716 79.344 104.716 80.642C104.716 81.918 103.682 82.402 102.791 82.578C103.693 82.688 104.98 83.216 104.98 84.646C104.98 86.296 103.528 87.121 101.867 87.121ZM46.6976 98V92.104H47.7756V93.864C48.0506 93.05 48.8096 91.983 50.5806 91.983H50.8996V93.006H50.4266C48.4356 93.006 47.7756 93.864 47.7756 95.063V98H46.6976ZM55.9728 98.121C54.2348 98.121 53.2448 96.823 53.2448 95.052C53.2448 93.259 54.2568 91.983 55.9618 91.983C57.5678 91.983 58.6788 93.149 58.6788 94.964C58.6788 95.074 58.6678 95.228 58.6568 95.371H54.3338C54.4218 96.647 55.0268 97.329 55.9728 97.329C56.7978 97.329 57.2378 96.933 57.4468 96.273H58.5468C58.2168 97.527 57.2708 98.121 55.9728 98.121ZM54.3448 94.557H57.5788C57.5128 93.512 56.8968 92.775 55.9618 92.775C55.0598 92.775 54.4768 93.38 54.3448 94.557ZM62.4539 98L60.5839 92.104H61.6839L63.5099 97.945L65.3249 92.104H66.4249L64.5549 98H62.4539ZM70.5191 98V96.636H71.8831V98H70.5191ZM78.7602 98.121C77.0442 98.121 75.9992 97.219 75.8452 95.789H76.9672C77.0662 96.647 77.6382 97.252 78.7602 97.252C79.6292 97.252 80.7512 96.812 80.7512 95.602C80.7512 94.546 79.7832 94.029 78.6282 94.029H78.1222V93.127H78.6282C79.7722 93.127 80.4872 92.511 80.4872 91.73C80.4872 90.949 79.8162 90.388 78.7492 90.388C77.7592 90.388 77.1982 90.938 77.1322 91.741H76.0102C76.1312 90.344 77.3742 89.519 78.7492 89.519C80.3002 89.519 81.6092 90.344 81.6092 91.642C81.6092 92.918 80.5752 93.402 79.6842 93.578C80.5862 93.688 81.8732 94.216 81.8732 95.646C81.8732 97.296 80.4212 98.121 78.7602 98.121Z" fill="black"/>
</g>
</g>
<defs>
<filter id="filter0_d_1006_157726" x="11" y="67" width="105" height="44" filterUnits="userSpaceOnUse" color-interpolation-filters="sRGB">
<feFlood flood-opacity="0" result="BackgroundImageFix"/>
<feColorMatrix in="SourceAlpha" type="matrix" values="0 0 0 0 0 0 0 0 0 0 0 0 0 0 0 0 0 0 127 0" result="hardAlpha"/>
<feOffset dy="2"/>
<feComposite in2="hardAlpha" operator="out"/>
<feColorMatrix type="matrix" values="0 0 0 0 0.0117647 0 0 0 0 0.901961 0 0 0 0 0.988235 0 0 0 1 0"/>
<feBlend mode="normal" in2="BackgroundImageFix" result="effect1_dropShadow_1006_157726"/>
<feBlend mode="normal" in="SourceGraphic" in2="effect1_dropShadow_1006_157726" result="shape"/>
</filter>
<clipPath id="clip0_1006_157726">
<rect width="124" height="124" fill="white"/>
</clipPath>
</defs>
</svg>
