<svg width="124" height="124" viewBox="0 0 124 124" fill="none" xmlns="http://www.w3.org/2000/svg">
<g clip-path="url(#clip0_1006_157679)">
<rect width="124" height="124" rx="62" fill="#2B7FFD"/>
<path d="M61.9993 10L66.5026 12.6V17.8L61.9993 20.4L57.496 17.8V12.6L61.9993 10Z" fill="white"/>
<path d="M108.8 56.8L113.303 59.4V64.6L108.8 67.2L104.297 64.6V59.4L108.8 56.8Z" fill="white"/>
<path d="M102.3 33.4L106.803 36V41.2L102.3 43.8L97.7968 41.2V36L102.3 33.4Z" fill="white"/>
<path d="M21.7 33.4L26.2033 36V41.2L21.7 43.8L17.1967 41.2V36L21.7 33.4Z" fill="white"/>
<path d="M85.4002 16.4999L89.9035 19.0999V24.2999L85.4002 26.8999L80.8969 24.2999V19.0999L85.4002 16.4999Z" fill="white"/>
<path d="M38.5999 16.4999L43.1032 19.0999V24.2999L38.5999 26.8999L34.0966 24.2999V19.0999L38.5999 16.4999Z" fill="white"/>
<path d="M38.5999 97.1L43.1032 99.7V104.9L38.5999 107.5L34.0966 104.9V99.7L38.5999 97.1Z" fill="white"/>
<path d="M85.4002 97.1L89.9035 99.7V104.9L85.4002 107.5L80.8969 104.9V99.7L85.4002 97.1Z" fill="white"/>
<path d="M20.4002 80.2001L24.9035 82.8001V88.0001L20.4002 90.6001L15.8969 88.0001V82.8001L20.4002 80.2001Z" fill="white"/>
<path d="M102.3 80.2001L106.803 82.8001V88.0001L102.3 90.6001L97.7968 88.0001V82.8001L102.3 80.2001Z" fill="white"/>
<path d="M15.2 56.8L19.7033 59.4V64.6L15.2 67.2L10.6967 64.6V59.4L15.2 56.8Z" fill="white"/>
<path d="M61.9993 103.6L66.5026 106.2V111.4L61.9993 114L57.496 111.4V106.2L61.9993 103.6Z" fill="white"/>
<path d="M39.997 69.216C36.901 69.216 34.615 66.624 34.615 62.16C34.615 57.66 36.883 55.104 40.537 55.104C43.489 55.104 45.289 56.868 45.937 59.604H43.165C42.733 58.146 41.887 57.354 40.537 57.354C38.575 57.354 37.531 59.118 37.531 62.16C37.531 65.202 38.611 66.966 40.573 66.966C42.301 66.966 43.381 65.634 43.435 63.528H40.141V61.26H46.117V69H43.777V65.688C43.381 67.416 42.211 69.216 39.997 69.216ZM49.7385 69V55.32H53.6805C57.7845 55.32 60.4845 57.57 60.4845 62.16C60.4845 66.768 57.7845 69 53.6805 69H49.7385ZM52.5645 66.624H53.7345C56.2185 66.624 57.5685 65.022 57.5685 62.16C57.5685 59.298 56.2185 57.696 53.7345 57.696H52.5645V66.624ZM64.538 69V55.32H69.452C72.944 55.32 74.924 56.994 74.924 59.784C74.924 62.574 72.962 64.248 69.452 64.248H67.382V69H64.538ZM67.382 61.89H69.488C71.09 61.89 72.008 61.17 72.008 59.784C72.008 58.398 71.09 57.66 69.488 57.66H67.382V61.89ZM78.7975 69V55.32H83.8195C87.0415 55.32 89.0755 57.012 89.0755 59.604C89.0755 61.422 88.0855 62.808 86.3395 63.456L89.3815 69H86.1775L83.4775 63.87H81.6415V69H78.7975ZM81.6415 61.566H83.8015C85.2775 61.566 86.1775 60.846 86.1775 59.604C86.1775 58.362 85.2775 57.624 83.8015 57.624H81.6415V61.566Z" fill="white"/>
</g>
<defs>
<clipPath id="clip0_1006_157679">
<rect width="124" height="124" fill="white"/>
</clipPath>
</defs>
</svg>
