<svg width="124" height="124" viewBox="0 0 124 124" fill="none" xmlns="http://www.w3.org/2000/svg">
<g clip-path="url(#clip0_1006_157669)">
<rect width="124" height="124" rx="26" fill="#FDAB2B"/>
<path d="M13.0898 34.8694L14.662 19.3538C14.7975 18.0171 15.9229 17 17.2664 17H45.3016C46.7173 17 47.8765 18.1256 47.9181 19.5408L48.7599 48.2034C48.7815 48.9366 49.1097 49.6272 49.6647 50.1069L94.4552 88.8221C94.6334 88.9761 94.79 89.1536 94.9208 89.3495L98.5597 94.8027C98.8468 95.2329 99 95.7385 99 96.2557V102.739C99 103.253 98.686 103.714 98.2081 103.903C97.7302 104.091 97.4162 104.553 97.4162 105.067V111.378C97.4162 112.657 96.4923 113.748 95.2312 113.959L89.2369 114.964C89.094 114.988 88.9492 115 88.8043 115H74.0503C73.2082 115 72.4175 114.595 71.9256 113.911L65.3932 104.833C65.1027 104.43 64.7033 104.117 64.2416 103.932L43.9702 95.8142C43.4027 95.5869 42.9327 95.1683 42.6416 94.6308L28.6787 68.8496C28.4714 68.4668 28.3628 68.0384 28.3628 67.603V64.5384C28.3628 63.9179 28.1424 63.3177 27.741 62.8446L18.3732 51.8061C17.9718 51.333 17.7514 50.7328 17.7514 50.1124V44.1607C17.7514 43.6731 17.6152 43.1951 17.3581 42.7807L13.4698 36.5132C13.1652 36.0222 13.0316 35.4442 13.0898 34.8694Z" fill="#FFF4E3"/>
<circle cx="64.54" cy="63" r="15" fill="#C47802"/>
<g clip-path="url(#clip1_1006_157669)">
<path d="M68.4284 62.444H60.6507C60.037 62.444 59.5396 62.9415 59.5396 63.5551V67.444C59.5396 68.0577 60.037 68.5551 60.6507 68.5551H68.4284C69.0421 68.5551 69.5396 68.0577 69.5396 67.444V63.5551C69.5396 62.9415 69.0421 62.444 68.4284 62.444Z" stroke="#FFF4E3" stroke-width="2" stroke-linecap="round" stroke-linejoin="round"/>
<path d="M61.7622 62.4439V60.2217C61.7622 59.485 62.0549 58.7784 62.5758 58.2575C63.0967 57.7366 63.8033 57.4439 64.54 57.4439C65.2767 57.4439 65.9832 57.7366 66.5042 58.2575C67.0251 58.7784 67.3178 59.485 67.3178 60.2217V62.4439" stroke="#FFF4E3" stroke-width="2" stroke-linecap="round" stroke-linejoin="round"/>
</g>
<path d="M63.735 34.216C60.099 34.216 57.849 31.624 57.849 27.16C57.849 22.696 60.099 20.104 63.735 20.104C66.705 20.104 68.577 21.85 69.207 24.982H66.417C66.021 23.272 65.175 22.354 63.735 22.354C61.791 22.354 60.765 24.118 60.765 27.16C60.765 30.202 61.791 31.966 63.735 31.966C65.175 31.966 66.039 31.03 66.453 29.302H69.243C68.613 32.452 66.723 34.216 63.735 34.216ZM78.1385 34.216C74.5025 34.216 72.2525 31.624 72.2525 27.16C72.2525 22.696 74.5025 20.104 78.1385 20.104C81.1085 20.104 82.9805 21.85 83.6105 24.982H80.8205C80.4245 23.272 79.5785 22.354 78.1385 22.354C76.1945 22.354 75.1685 24.118 75.1685 27.16C75.1685 30.202 76.1945 31.966 78.1385 31.966C79.5785 31.966 80.4425 31.03 80.8565 29.302H83.6465C83.0165 32.452 81.1265 34.216 78.1385 34.216ZM87.538 34V20.32H92.452C95.944 20.32 97.924 21.994 97.924 24.784C97.924 27.574 95.962 29.248 92.452 29.248H90.382V34H87.538ZM90.382 26.89H92.488C94.09 26.89 95.008 26.17 95.008 24.784C95.008 23.398 94.09 22.66 92.488 22.66H90.382V26.89ZM100.538 34L104.084 20.32H109.142L112.688 34H109.79L108.962 30.58H104.264L103.436 34H100.538ZM104.84 28.186H108.386L106.604 20.806L104.84 28.186Z" fill="black"/>
</g>
<defs>
<clipPath id="clip0_1006_157669">
<rect width="124" height="124" fill="white"/>
</clipPath>
<clipPath id="clip1_1006_157669">
<rect width="13.3333" height="13.3333" fill="white" transform="translate(57.873 56.3329)"/>
</clipPath>
</defs>
</svg>
