<svg width="124" height="124" viewBox="0 0 124 124" fill="none" xmlns="http://www.w3.org/2000/svg">
<g clip-path="url(#clip0_1006_157696)">
<rect width="124" height="124" rx="26" fill="#F04B38"/>
<path d="M28.1332 110V107.102L34.0012 102.35C34.8472 101.648 35.4412 100.982 35.4412 100.136C35.4412 99.056 34.6132 98.246 33.2812 98.246C31.9492 98.246 31.1032 98.966 31.0132 100.334H28.1872C28.3312 97.67 30.4372 96.104 33.2992 96.104C36.2332 96.104 38.2852 97.724 38.2852 100.082C38.2852 101.792 37.3492 102.926 35.9452 104.042L31.3372 107.75H38.5732V110H28.1332ZM43.1307 110L49.9707 98.57H42.4827V96.32H52.7247V99.218L46.4967 110H43.1307ZM61.9982 110.216C58.5422 110.216 56.4902 107.768 56.4902 103.16C56.4902 98.552 58.5422 96.104 61.9982 96.104C65.4542 96.104 67.5062 98.552 67.5062 103.16C67.5062 107.768 65.4542 110.216 61.9982 110.216ZM59.3342 103.16C59.3342 103.916 59.3882 104.564 59.4782 105.14L63.4562 98.786C63.0602 98.426 62.5742 98.246 61.9982 98.246C60.2522 98.246 59.3342 99.902 59.3342 103.16ZM60.5222 107.516C60.9182 107.894 61.4222 108.074 61.9982 108.074C63.7442 108.074 64.6622 106.418 64.6622 103.16C64.6622 102.422 64.6082 101.756 64.5182 101.18L60.5222 107.516ZM76.4018 110.216C72.9458 110.216 70.8938 107.768 70.8938 103.16C70.8938 98.552 72.9458 96.104 76.4018 96.104C79.8578 96.104 81.9098 98.552 81.9098 103.16C81.9098 107.768 79.8578 110.216 76.4018 110.216ZM73.7378 103.16C73.7378 103.916 73.7918 104.564 73.8818 105.14L77.8598 98.786C77.4638 98.426 76.9778 98.246 76.4018 98.246C74.6558 98.246 73.7378 99.902 73.7378 103.16ZM74.9258 107.516C75.3218 107.894 75.8258 108.074 76.4018 108.074C78.1478 108.074 79.0658 106.418 79.0658 103.16C79.0658 102.422 79.0118 101.756 78.9218 101.18L74.9258 107.516ZM86.1793 110V107.75H90.1393V100.568H86.3413V98.3H87.6193C89.4913 98.3 90.1753 97.706 90.5533 96.626L90.6433 96.32H92.9473V107.75H96.6013V110H86.1793Z" fill="white"/>
<path d="M71.2703 71.3065C70.9002 72.7473 70.4965 74.1024 70.0584 75.3506C67.1993 75.0942 64.2475 74.9584 61.2654 74.9584C58.4078 74.9584 55.6089 75.0777 52.9037 75.3056C52.4712 74.0694 52.0724 72.7304 51.7076 71.3065H49.4953C49.8558 72.7743 50.2586 74.1847 50.7038 75.5156C46.8918 75.9113 43.1169 76.6059 39.4138 77.5928C37.2644 75.7406 35.3536 73.6289 33.7249 71.3065H31.1167C41.793 88.069 64.0459 93.0089 80.8198 82.34C85.2633 79.5136 89.0321 75.7473 91.8604 71.3065H89.2536C87.5974 73.6687 85.6487 75.8121 83.4537 77.6851C79.7818 76.6906 76.0375 75.9849 72.2554 75.5737C72.7083 74.2254 73.1173 72.7962 73.4835 71.3063L71.2703 71.3065ZM41.5313 79.2725C44.8012 78.4996 48.1188 77.9454 51.4622 77.6124C52.792 81.0013 54.5373 83.7895 56.2638 85.542C50.9307 84.6296 45.8853 82.4825 41.5313 79.2725ZM61.4894 85.9644C58.7545 85.9644 55.9283 82.7507 53.7049 77.409C56.176 77.216 58.7117 77.1133 61.2656 77.1133C63.9743 77.1133 66.6548 77.228 69.2585 77.4441C67.0379 82.7638 64.2181 85.9644 61.4894 85.9644ZM81.3358 79.3543C77.0065 82.5184 72.0019 84.6367 66.715 85.542C68.4341 83.797 70.1727 81.0246 71.4994 77.6578C74.8129 78.0015 78.0991 78.5685 81.3358 79.3543Z" fill="white"/>
<path d="M89.2531 32.6637H91.8606C81.1836 15.901 58.9304 10.9617 42.1568 21.6316C37.7138 24.4577 33.9452 28.2234 31.1172 32.6637H33.7247C35.3815 30.3024 37.3298 28.1592 39.5237 26.2851C43.1957 27.2803 46.9402 27.9861 50.7226 28.3971C50.2694 29.7463 49.8609 31.1739 49.495 32.6636H51.7075C52.0777 31.2233 52.4811 29.868 52.9197 28.6194C55.7787 28.8764 58.7312 29.0118 61.7128 29.0118C64.5709 29.0118 67.3684 28.8925 70.0747 28.6653C70.5063 29.901 70.9054 31.241 71.2694 32.6638H73.4827C73.1215 31.1959 72.7186 29.7858 72.2743 28.4551C76.0857 28.0591 79.8598 27.3644 83.5627 26.3784C85.7134 28.2294 87.6248 30.3406 89.2531 32.6637ZM51.479 26.314C48.166 25.969 44.8799 25.402 41.6429 24.6172C45.9716 21.4521 50.9762 19.3338 56.2628 18.4286C54.5441 20.1729 52.8044 22.9471 51.479 26.314ZM61.713 26.857C59.0048 26.857 56.3232 26.7428 53.7195 26.527C55.9403 21.2076 58.7592 18.0062 61.4892 18.0062C64.2242 18.0062 67.0503 21.2209 69.2731 26.5617C66.8028 26.7551 64.2666 26.8564 61.713 26.857ZM71.5166 26.3573C70.1859 22.9684 68.4411 20.1801 66.7143 18.4283C72.0474 19.3409 77.0929 21.4878 81.4464 24.6985C78.1771 25.4714 74.8597 26.0257 71.5166 26.3573Z" fill="white"/>
<path d="M88.9611 35.7549C78.9875 35.7549 71.8594 41.549 71.8594 51.9215C71.8594 62.2937 78.9879 68.088 88.9611 68.088C98.9325 68.088 106.062 62.2937 106.062 51.9215C106.062 41.549 98.9325 35.7549 88.9611 35.7549ZM88.9611 60.7427C85.008 60.7427 82.4967 58.2335 82.4967 51.9215C82.4967 45.6106 85.0079 43.1014 88.9611 43.1014C92.9123 43.1014 95.424 45.6104 95.424 51.9215C95.424 58.2336 92.912 60.7427 88.9611 60.7427Z" fill="white"/>
<path d="M69.3039 45.6839V36.3079H61.7692C59.4556 35.9846 57.1246 35.7997 54.789 35.7549C46.1085 35.7549 40.1616 38.9299 40.1616 45.9429C40.1616 59.7478 60.0706 53.7294 60.0706 58.8969C60.0706 60.4852 58.4813 61.3712 54.5668 61.3712C51.6118 61.3712 49.0268 60.7427 47.9192 60.1532V58.1594H40.3838V67.5344H47.9192C50.369 67.8602 52.8347 68.0451 55.3056 68.0881C66.7192 68.0881 70.5229 63.4382 70.5229 57.754C70.5229 44.0237 50.4308 50.334 50.4308 44.8355C50.4308 43.506 51.7973 42.4731 55.3055 42.4731C58.0395 42.4731 60.6611 43.1016 61.7695 43.6908V45.6842L69.3039 45.6839Z" fill="white"/>
<path d="M18 59.8473V67.5983H38.129V59.8473H33.0689V44.1227H38.129V36.3717H18V44.1227H23.059V59.8473H18Z" fill="white"/>
</g>
<defs>
<clipPath id="clip0_1006_157696">
<rect width="124" height="124" fill="white"/>
</clipPath>
</defs>
</svg>
