<svg width="124" height="124" viewBox="0 0 124 124" fill="none" xmlns="http://www.w3.org/2000/svg">
<g clip-path="url(#clip0_1006_157711)">
<rect width="124" height="124" rx="26" fill="#41D49D"/>
<path d="M29.0512 100V86.32H38.1412V88.696H31.8952V92.008H38.0332V94.384H31.8952V100H29.0512ZM43.2567 100V86.32H52.4547V88.696H46.1007V91.792H52.3287V94.168H46.1007V97.624H52.6347V100H43.2567ZM57.1922 100V86.32H62.2142C65.4362 86.32 67.4702 88.012 67.4702 90.604C67.4702 92.422 66.4802 93.808 64.7342 94.456L67.7762 100H64.5722L61.8722 94.87H60.0362V100H57.1922ZM60.0362 92.566H62.1962C63.6722 92.566 64.5722 91.846 64.5722 90.604C64.5722 89.362 63.6722 88.624 62.1962 88.624H60.0362V92.566ZM71.7398 100V86.32H76.6538C80.1458 86.32 82.1258 87.994 82.1258 90.784C82.1258 93.574 80.1638 95.248 76.6538 95.248H74.5838V100H71.7398ZM74.5838 92.89H76.6898C78.2918 92.89 79.2098 92.17 79.2098 90.784C79.2098 89.398 78.2918 88.66 76.6898 88.66H74.5838V92.89ZM84.7393 100L88.2853 86.32H93.3433L96.8893 100H93.9913L93.1633 96.58H88.4653L87.6373 100H84.7393ZM89.0413 94.186H92.5873L90.8053 86.806L89.0413 94.186Z" fill="black"/>
<rect x="33.5" y="60" width="15" height="11" rx="2.61765" fill="black"/>
<rect x="75.5" y="55" width="15" height="16" rx="2.61765" fill="black"/>
<rect x="54.5" y="45" width="15" height="26" rx="2.61765" fill="black"/>
<circle cx="41" cy="46.5" r="7.5" fill="black"/>
<circle cx="62" cy="31.5" r="7.5" fill="black"/>
<circle cx="83" cy="41.5" r="7.5" fill="black"/>
</g>
<defs>
<clipPath id="clip0_1006_157711">
<rect width="124" height="124" fill="white"/>
</clipPath>
</defs>
</svg>
