<svg width="124" height="124" viewBox="0 0 124 124" fill="none" xmlns="http://www.w3.org/2000/svg">
<g clip-path="url(#clip0_1006_157721)">
<path d="M15.2727 0C9.04697 0 4 5.04697 4 11.2727L4 66C4 98.0325 29.9675 124 62 124C94.0325 124 120 98.0325 120 66V11.2727C120 5.04698 114.953 0 108.727 0L15.2727 0Z" fill="#D4E5FF"/>
<g clip-path="url(#clip1_1006_157721)">
<path fill-rule="evenodd" clip-rule="evenodd" d="M63.0138 26.2309C64.7881 25.7667 66.0992 24.1296 66.0992 22.1813C66.0992 19.872 64.2574 18 61.9853 18C59.7132 18 57.8714 19.872 57.8714 22.1813C57.8714 24.1296 59.1824 25.7667 60.9568 26.2309V48.0397C60.8381 48.0181 60.7197 47.9966 60.6018 47.9753L60.6004 47.975L60.5984 47.9746C60.4347 47.945 60.2719 47.9155 60.1103 47.886C58.0239 47.5049 56.1177 47.1166 54.7297 46.4148C54.0514 46.0718 53.5578 45.6824 53.2343 45.238C52.9223 44.8094 52.729 44.2765 52.729 43.5572C52.729 43.0489 52.8656 42.768 53.0077 42.5973C53.1612 42.413 53.4022 42.2617 53.7485 42.162C54.2845 42.0077 54.9247 42.0206 55.4286 42.1005C55.7137 42.7182 56.3184 43.2359 57.1006 43.4489C58.3765 43.7964 59.6418 43.202 59.9267 42.1213C60.2116 41.0407 59.4082 39.8829 58.1323 39.5354C57.2342 39.2909 56.3414 39.5129 55.792 40.0428C55.0384 39.9174 54.0776 39.8943 53.1878 40.1505C52.57 40.3284 51.9271 40.659 51.4378 41.2465C50.9371 41.8476 50.672 42.6283 50.672 43.5572C50.672 44.6999 50.9929 45.6739 51.5808 46.4815C52.1572 47.2734 52.9493 47.8497 53.8136 48.2867C54.911 48.8415 56.2217 49.2167 57.5591 49.5127C56.8737 49.8452 56.2403 50.2708 55.7491 50.8386C55.1341 51.5495 54.7859 52.434 54.7859 53.4884C54.7859 55.2805 55.5515 56.5585 56.6281 57.5048C57.5512 58.3163 58.7257 58.9016 59.7997 59.4067C59.6878 59.4905 59.5786 59.5769 59.4729 59.666C58.3984 60.5711 57.6142 61.8025 57.6142 63.5496C57.6142 64.8105 57.9294 65.8479 58.5247 66.665C58.5623 66.7165 58.6007 66.7669 58.64 66.816C58.5547 66.8162 58.4699 66.8162 58.3856 66.8162C57.8176 66.8162 57.3571 67.2842 57.3571 67.8615C57.3571 68.4389 57.8176 68.9069 58.3856 68.9069L58.4622 68.9069C59.1655 68.907 60.046 68.9072 60.9568 68.8096V69.4821C60.9568 70.0594 61.4173 70.5275 61.9853 70.5275C62.5533 70.5275 63.0138 70.0594 63.0138 69.4821V68.8095C63.9246 68.9072 64.8051 68.907 65.5084 68.9069L65.585 68.9069C66.153 68.9069 66.6135 68.4389 66.6135 67.8615C66.6135 67.2842 66.153 66.8162 65.585 66.8162C65.5007 66.8162 65.4159 66.8162 65.3306 66.816C65.3699 66.7669 65.4083 66.7165 65.4459 66.665C66.0412 65.8479 66.3563 64.8105 66.3563 63.5496C66.3563 61.8025 65.5722 60.5711 64.4977 59.666C64.3919 59.5769 64.2828 59.4905 64.1709 59.4067C65.2449 58.9016 66.4194 58.3163 67.3425 57.5048C68.4191 56.5585 69.1847 55.2805 69.1847 53.4884C69.1847 52.434 68.8365 51.5495 68.2215 50.8386C67.7303 50.2708 67.0969 49.8452 66.4115 49.5127C67.7489 49.2167 69.0596 48.8415 70.157 48.2867C71.0213 47.8497 71.8134 47.2734 72.3898 46.4815C72.9777 45.6739 73.2986 44.6999 73.2986 43.5572C73.2986 42.6283 73.0335 41.8476 72.5328 41.2465C72.0435 40.659 71.4006 40.3284 70.7828 40.1505C69.893 39.8943 68.9322 39.9174 68.1786 40.0428C67.6292 39.5129 66.7364 39.2909 65.8383 39.5354C64.5624 39.8829 63.759 41.0407 64.0439 42.1213C64.3288 43.202 65.5941 43.7964 66.87 43.4489C67.6522 43.2359 68.2569 42.7182 68.542 42.1005C69.0459 42.0206 69.6861 42.0077 70.2221 42.162C70.5684 42.2617 70.8094 42.413 70.9629 42.5973C71.105 42.768 71.2416 43.0489 71.2416 43.5572C71.2416 44.2765 71.0483 44.8094 70.7362 45.238C70.4128 45.6824 69.9192 46.0718 69.2409 46.4148C67.8529 47.1166 65.9467 47.5049 63.8603 47.886C63.6976 47.9157 63.5337 47.9454 63.3688 47.9753C63.2509 47.9966 63.1325 48.0181 63.0138 48.0397V26.2309ZM63.0138 57.6467V50.5818C63.8223 50.7696 64.5577 50.982 65.1915 51.2487C65.8851 51.5406 66.3701 51.8647 66.6767 52.2191C66.9617 52.5485 67.1277 52.9421 67.1277 53.4884C67.1277 54.5709 66.7041 55.3019 65.9969 55.9235C65.2446 56.5849 64.2126 57.0864 63.0138 57.6467ZM60.7855 61.2756C60.8411 61.2288 60.8982 61.1827 60.9568 61.1374V66.1015C60.6346 65.9164 60.375 65.6915 60.1778 65.4208C59.8894 65.025 59.6712 64.4452 59.6712 63.5496C59.6712 62.5527 60.0763 61.8731 60.7855 61.2756ZM60.9568 50.5818C60.1482 50.7696 59.4129 50.982 58.7791 51.2487C58.0855 51.5406 57.6005 51.8647 57.2939 52.2191C57.0089 52.5485 56.8429 52.9421 56.8429 53.4884C56.8429 54.5709 57.2665 55.3019 57.9737 55.9235C58.726 56.5849 59.758 57.0864 60.9568 57.6467V50.5818ZM63.0138 61.1374V66.1015C63.336 65.9164 63.5956 65.6915 63.7928 65.4208C64.0812 65.025 64.2994 64.4452 64.2994 63.5496C64.2994 62.5527 63.8943 61.8731 63.1851 61.2756C63.1295 61.2288 63.0723 61.1827 63.0138 61.1374Z" fill="#020CD0"/>
<path d="M65.0707 29.9338V37.3853C65.0707 37.6739 65.2962 37.907 65.5801 37.8995C67.3787 37.8524 73.3698 37.5419 74.2251 35.496C74.3362 35.2304 74.5592 34.9869 74.8432 34.9834C81.6121 34.902 85.4745 33.1597 89.3989 26.4103C89.6314 26.0103 89.2616 25.5303 88.8187 25.6454C80.4528 27.8189 73.3891 26.9635 68.5717 25.3804C68.4486 25.3399 68.3161 25.3472 68.1989 25.4029C66.0501 26.4247 65.0707 27.4842 65.0707 29.9338Z" fill="#020CD0"/>
<path d="M58.8998 37.3853V29.9338C58.8999 27.4842 57.9205 26.4247 55.7717 25.4029C55.6545 25.3472 55.522 25.3399 55.3989 25.3804C50.5815 26.9635 43.5178 27.8189 35.1519 25.6454C34.709 25.5303 34.3392 26.0103 34.5717 26.4103C38.4961 33.1597 42.3585 34.902 49.1274 34.9834C49.4114 34.9869 49.6344 35.2304 49.7455 35.496C50.6008 37.5419 56.5919 37.8524 58.3905 37.8995C58.6744 37.907 58.8998 37.6739 58.8998 37.3853Z" fill="#020CD0"/>
</g>
<path d="M28.0252 95V81.32H30.8692V86.72H35.5132V81.32H38.3572V95H35.5132V89.276H30.8692V95H28.0252ZM42.6807 95V92.624H46.1727V83.696H42.6807V81.32H52.5087V83.696H49.0167V92.624H52.5087V95H42.6807ZM57.3362 95V81.32H62.2502C65.7422 81.32 67.7222 82.994 67.7222 85.784C67.7222 88.574 65.7602 90.248 62.2502 90.248H60.1802V95H57.3362ZM60.1802 87.89H62.2862C63.8882 87.89 64.8062 87.17 64.8062 85.784C64.8062 84.398 63.8882 83.66 62.2862 83.66H60.1802V87.89ZM70.3358 95L73.8818 81.32H78.9398L82.4858 95H79.5878L78.7598 91.58H74.0618L73.2338 95H70.3358ZM74.6378 89.186H78.1838L76.4018 81.806L74.6378 89.186ZM84.7393 95L88.2853 81.32H93.3433L96.8893 95H93.9913L93.1633 91.58H88.4653L87.6373 95H84.7393ZM89.0413 89.186H92.5873L90.8053 81.806L89.0413 89.186Z" fill="#020CD0"/>
</g>
<defs>
<clipPath id="clip0_1006_157721">
<rect width="124" height="124" fill="white"/>
</clipPath>
<clipPath id="clip1_1006_157721">
<rect width="55" height="55" fill="white" transform="translate(34.5 17)"/>
</clipPath>
</defs>
</svg>
