<svg width="124" height="124" viewBox="0 0 124 124" fill="none" xmlns="http://www.w3.org/2000/svg">
<g clip-path="url(#clip0_1006_157706)">
<path d="M0 124C0 89.7583 27.7583 62 62 62C96.2417 62 124 89.7583 124 124H0Z" fill="#BDC0FE"/>
<path d="M35.0992 104.216C32.0932 104.216 30.0412 102.56 29.6812 99.788H32.4712C32.6692 101.318 33.6772 102.074 35.1172 102.074C36.6472 102.074 37.4752 101.264 37.4752 100.202C37.4752 99.068 36.7552 98.762 35.1712 98.348L33.4972 97.934C31.6612 97.484 30.0232 96.404 30.0232 94.136C30.0232 91.778 32.2192 90.104 34.9552 90.104C37.8712 90.104 39.6352 91.634 39.9952 93.974H37.2052C36.9532 92.75 36.0712 92.246 34.9552 92.246C33.8212 92.246 32.8312 92.876 32.8312 93.866C32.8312 94.838 33.4792 95.198 35.0272 95.594L36.7012 96.026C39.1312 96.638 40.3012 97.754 40.3012 99.914C40.3012 102.542 38.1052 104.216 35.0992 104.216ZM48.4947 104.216C44.8767 104.216 42.6267 101.624 42.6267 97.16C42.6267 92.696 44.8767 90.104 48.4947 90.104C52.1127 90.104 54.3627 92.696 54.3627 97.16C54.3627 101.624 52.1127 104.216 48.4947 104.216ZM45.5427 97.16C45.5427 100.202 46.5507 101.966 48.4947 101.966C50.4387 101.966 51.4467 100.202 51.4467 97.16C51.4467 94.118 50.4387 92.354 48.4947 92.354C46.5507 92.354 45.5427 94.118 45.5427 97.16ZM62.3402 104.216C58.7042 104.216 56.4542 101.624 56.4542 97.16C56.4542 92.696 58.7042 90.104 62.3402 90.104C65.3102 90.104 67.1822 91.85 67.8122 94.982H65.0222C64.6262 93.272 63.7802 92.354 62.3402 92.354C60.3962 92.354 59.3702 94.118 59.3702 97.16C59.3702 100.202 60.3962 101.966 62.3402 101.966C63.7802 101.966 64.6442 101.03 65.0582 99.302H67.8482C67.2182 102.452 65.3282 104.216 62.3402 104.216ZM83.9473 104V101.102L89.8153 96.35C90.6613 95.648 91.2553 94.982 91.2553 94.136C91.2553 93.056 90.4273 92.246 89.0953 92.246C87.7633 92.246 86.9173 92.966 86.8273 94.334H84.0013C84.1453 91.67 86.2513 90.104 89.1133 90.104C92.0473 90.104 94.0993 91.724 94.0993 94.082C94.0993 95.792 93.1633 96.926 91.7593 98.042L87.1513 101.75H94.3873V104H83.9473Z" fill="black"/>
<path d="M124 0C124 34.2417 96.2417 62 62 62C27.7583 62 0 34.2417 0 0H124Z" fill="#3F48FD"/>
<path d="M28.9252 34L32.4712 20.32H37.5292L41.0752 34H38.1772L37.3492 30.58H32.6512L31.8232 34H28.9252ZM33.2272 28.186H36.7732L34.9912 20.806L33.2272 28.186ZM43.5807 34V31.624H47.0727V22.696H43.5807V20.32H53.4087V22.696H49.9167V31.624H53.4087V34H43.5807ZM62.3402 34.216C58.7042 34.216 56.4542 31.624 56.4542 27.16C56.4542 22.696 58.7042 20.104 62.3402 20.104C65.3102 20.104 67.1822 21.85 67.8122 24.982H65.0222C64.6262 23.272 63.7802 22.354 62.3402 22.354C60.3962 22.354 59.3702 24.118 59.3702 27.16C59.3702 30.202 60.3962 31.966 62.3402 31.966C63.7802 31.966 64.6442 31.03 65.0582 29.302H67.8482C67.2182 32.452 65.3282 34.216 62.3402 34.216ZM70.8398 34V20.32H75.7538C79.2458 20.32 81.2258 21.994 81.2258 24.784C81.2258 27.574 79.2638 29.248 75.7538 29.248H73.6838V34H70.8398ZM73.6838 26.89H75.7898C77.3918 26.89 78.3098 26.17 78.3098 24.784C78.3098 23.398 77.3918 22.66 75.7898 22.66H73.6838V26.89ZM82.9393 34L86.4853 20.32H91.5433L95.0893 34H92.1913L91.3633 30.58H86.6653L85.8373 34H82.9393ZM87.2413 28.186H90.7873L89.0053 20.806L87.2413 28.186Z" fill="white"/>
</g>
<defs>
<clipPath id="clip0_1006_157706">
<rect width="124" height="124" fill="white"/>
</clipPath>
</defs>
</svg>
