<svg width="127" height="28" viewBox="0 0 127 28" fill="none" xmlns="http://www.w3.org/2000/svg">
<path d="M0 5.29762H6.13145C11.4675 5.29762 14.3742 8.59696 14.3742 13.3828C14.3742 17.8714 11.4242 21.236 6.20375 21.236H0V5.29762ZM3.05849 18.437H6.12422C9.64546 18.437 11.3012 16.1601 11.3012 13.3828C11.3012 10.243 9.59485 8.07486 6.08083 8.07486H3.05849V18.437Z" fill="#D3D5FF"/>
<path d="M15.6974 18.1182C15.6974 15.7253 17.4688 14.6593 19.8983 14.6593C20.5201 14.6593 21.1347 14.7318 21.7348 14.8841L22.6892 15.1089V14.4273C22.6892 13.1728 21.7782 12.4912 20.4839 12.4912C19.1463 12.4912 18.3726 13.2453 18.1485 14.2895L15.6251 13.6079C16.189 11.6065 17.8304 10.2143 20.5056 10.2143C23.7955 10.2143 25.4585 11.8096 25.4585 14.5868V21.2363H22.8049V19.5757C22.1253 20.7794 21.0551 21.4683 19.2403 21.4683C17.4254 21.4683 15.6974 20.2356 15.6974 18.1182ZM22.6892 17.2553V17.161L22.0313 16.958C21.3733 16.755 20.8527 16.6389 20.3538 16.6389C19.3343 16.6389 18.6474 17.074 18.6474 17.9369C18.6474 18.6911 19.2114 19.2349 20.3972 19.2349C21.6914 19.2349 22.6892 18.5315 22.6892 17.2553Z" fill="#D3D5FF"/>
<path d="M30.0137 10.4461V12.0631C30.8452 10.9174 32.1684 10.2358 33.5783 10.2213C36.485 10.2213 38.6397 12.4764 38.6397 15.8918C38.6397 19.3072 36.4199 21.4753 33.4193 21.4753C31.9442 21.4753 30.6934 20.8589 30.1294 19.8583V25.7536H27.2227V10.4533L30.0137 10.4461ZM32.877 18.9881C34.4171 18.9881 35.7402 17.8496 35.7402 15.8918C35.7402 13.8904 34.4243 12.7302 32.877 12.7302C31.402 12.7302 30.0137 13.8469 30.0137 15.8918C30.0137 17.8931 31.402 18.9881 32.877 18.9881Z" fill="#D3D5FF"/>
<path d="M42.8189 10.4461V12.0631C43.6504 10.9174 44.9736 10.2358 46.3836 10.2213C49.2902 10.2213 51.4449 12.4764 51.4449 15.8918C51.4449 19.3072 49.2251 21.4753 46.2245 21.4753C44.7495 21.4753 43.4986 20.8589 42.9346 19.8583V25.7536H40.028V10.4533L42.8189 10.4461ZM45.6822 18.9881C47.2223 18.9881 48.5455 17.8496 48.5455 15.8918C48.5455 13.8904 47.2295 12.7302 45.6822 12.7302C44.2072 12.7302 42.8189 13.8469 42.8189 15.8918C42.8189 17.8931 44.2072 18.9881 45.6822 18.9881Z" fill="#D3D5FF"/>
<path d="M60.9385 17.1173L63.4113 18.0962C62.6882 20.1483 60.9819 21.468 58.3933 21.468C55.0818 21.468 52.6957 19.2346 52.6957 15.7758C52.6957 12.7012 54.8287 10.2213 58.0535 10.2213C61.0252 10.2213 63.0498 12.0921 63.0498 15.0724C63.0498 15.5147 63.0064 15.9571 62.9124 16.3921H55.6024C55.6458 18.1034 56.9906 18.9663 58.4367 18.9663C59.825 18.9591 60.6203 18.2557 60.9385 17.1173ZM55.6024 14.456H60.2082C60.2227 14.427 60.2299 14.398 60.2299 14.3618C60.2299 13.2668 59.3478 12.5634 58.0463 12.5634C56.8966 12.5634 55.8771 13.2451 55.6024 14.456Z" fill="#D3D5FF"/>
<path d="M67.7856 10.4463V11.8313C68.2194 10.8742 69.0799 10.2143 70.3741 10.2143C72.3697 10.2143 73.4615 11.6065 73.4615 13.4049C73.4615 13.8544 73.4109 14.3113 73.3025 14.7463H70.5549C70.62 14.478 70.6489 14.2025 70.6489 13.9197C70.6489 13.1438 70.1066 12.5782 69.2896 12.5782C68.3785 12.5782 67.7928 13.1946 67.7928 14.2895V21.2363H64.8862V10.4463H67.7856Z" fill="#D3D5FF"/>
<path d="M82.3912 5.14551V18.3791H91.733V21.2579H79.2966V5.14551H82.3912Z" fill="#D3D5FF"/>
<path d="M92.7019 18.1036C92.7019 15.6889 94.4951 14.6084 96.9462 14.6084C97.568 14.6084 98.1826 14.681 98.8045 14.8405L99.7661 15.0725V14.3837C99.7661 13.1147 98.8479 12.4258 97.5391 12.4258C96.187 12.4258 95.4061 13.1872 95.1748 14.2459L92.6296 13.557C93.2008 11.5339 94.8566 10.1271 97.5608 10.1271C100.887 10.1271 102.564 11.7369 102.564 14.5432V21.2651H99.8818V19.5828C99.1949 20.8011 98.1176 21.4899 96.281 21.4899C94.4445 21.4899 92.7019 20.2427 92.7019 18.1036ZM99.7661 17.2262V17.1391L99.1009 16.9289C98.4357 16.7186 97.9079 16.6098 97.4017 16.6098C96.3678 16.6098 95.6809 17.0449 95.6809 17.9223C95.6809 18.6837 96.2521 19.2348 97.4451 19.2348C98.7611 19.2348 99.7661 18.5169 99.7661 17.2262Z" fill="#D3D5FF"/>
<path d="M107.452 5.14551V11.9835C108.161 10.8813 109.491 10.1199 110.937 10.1199C113.873 10.1199 116.056 12.3968 116.056 15.8484C116.056 19.3 113.829 21.4899 110.778 21.4899C109.354 21.4899 108.096 20.9171 107.336 19.8076V21.2579H104.517V5.14551H107.452ZM110.236 18.981C111.798 18.981 113.128 17.828 113.128 15.8484C113.128 13.8253 111.798 12.6506 110.236 12.6506C108.746 12.6506 107.344 13.7818 107.344 15.8484C107.344 17.8715 108.739 18.981 110.236 18.981Z" fill="#D3D5FF"/>
<path d="M116.591 18.5676L118.883 17.3494C119.411 18.5458 120.373 19.0752 121.617 19.0752C122.788 19.0752 123.381 18.6183 123.381 18.0165C123.381 17.2769 122.896 16.8853 120.857 16.588C118.609 16.2399 117.141 15.232 117.141 13.3176C117.141 11.3598 119.093 10.1198 121.298 10.1198C123.728 10.1198 124.834 11.106 125.427 12.4185L123.2 13.6367C122.925 12.7883 122.217 12.3967 121.363 12.3967C120.489 12.3967 119.823 12.7883 119.823 13.3394C119.823 13.9848 120.395 14.2603 122.231 14.5359C125.08 14.9709 126.107 16.0804 126.107 17.9657C126.107 20.0396 124.133 21.4899 121.515 21.4899C118.956 21.4899 117.351 20.3804 116.591 18.5676Z" fill="#D3D5FF"/>
</svg>
