<svg width="134" height="28" viewBox="0 0 134 28" fill="none" xmlns="http://www.w3.org/2000/svg">
<g clip-path="url(#clip0_1288_180441)">
<path d="M14.2709 0.955078L0.177734 10.6134L1.43608 12.2531L14.2711 3.48044L27.1064 12.2531L28.3648 10.6134L14.2714 0.955078H14.2709Z" fill="#D3D5FF"/>
<path d="M6.10762 8.48711H4.02148V1.79199H10.8547V4.94663H8.76857V3.65464H6.10762V8.48711Z" fill="#D3D5FF"/>
<path d="M24.0941 24.3878H4.02148V11.416H10.1334V13.4722H6.1524V22.3318H21.9632V13.4722H15.9246V11.416H24.0941V24.3878Z" fill="#D3D5FF"/>
<path d="M4.875 18.1113H14.6978V16.019H4.875V18.1113Z" fill="#D3D5FF"/>
<path d="M15.5527 23.5509H17.6881V12.2529H15.5527V23.5509Z" fill="#D3D5FF"/>
<path d="M9.57422 18.1115V7.65039H16.4074V18.1115H9.57422ZM11.2825 16.0193H15.1262V9.32417H11.2825V16.0193Z" fill="#D3D5FF"/>
<path d="M47.9201 6.02986V21.9756C47.9201 22.1897 47.776 22.3328 47.5595 22.3328H44.1477C43.9554 22.3328 43.8114 22.2612 43.7152 22.0948L37.8044 11.5991V21.9756C37.8044 22.1897 37.6602 22.3328 37.444 22.3328H34.4405C34.2242 22.3328 34.0801 22.1897 34.0801 21.9756V6.02986C34.0801 5.81572 34.2242 5.67285 34.4405 5.67285H37.8284C38.0206 5.67285 38.1648 5.74429 38.2609 5.91103L44.1958 16.4302V6.02986C44.1958 5.81572 44.34 5.67285 44.556 5.67285H47.5595C47.776 5.67285 47.9201 5.81572 47.9201 6.02986Z" fill="#D3D5FF"/>
<path d="M53.4462 15.4538H58.2996C58.0595 14.0972 57.0744 13.4546 55.921 13.4546C54.7196 13.4546 53.7105 14.0972 53.4462 15.4538ZM60.6303 17.7147H53.494C53.8546 18.9761 54.9119 19.6426 56.5217 19.6426C57.2904 19.6426 57.9632 19.4759 58.8044 18.9523C59.0204 18.8096 59.1646 18.8333 59.333 18.9998L60.5823 20.1899C60.7266 20.3564 60.7266 20.5232 60.5344 20.7135C59.4051 21.8322 57.8673 22.4983 56.1611 22.4983C52.461 22.4983 49.9141 19.809 49.9141 16.4532C49.9141 13.0976 52.461 10.4321 55.8968 10.4321C59.3088 10.4321 61.4953 13.0976 61.4953 16.2391C61.4953 17.215 61.3752 17.7147 60.6303 17.7147Z" fill="#D3D5FF"/>
<path d="M63.7306 10.6707H66.6141C66.8303 10.6707 66.9743 10.8137 66.9743 11.0277V21.9756C66.9743 22.1898 66.8303 22.3327 66.6141 22.3327H63.7306C63.5143 22.3327 63.3701 22.1898 63.3701 21.9756V11.0277C63.3701 10.8137 63.5143 10.6707 63.7306 10.6707ZM63.25 6.72006C63.25 5.6492 64.0911 4.79248 65.1722 4.79248C66.2535 4.79248 67.0946 5.6492 67.0946 6.72006C67.0946 7.76722 66.2535 8.62411 65.1722 8.62411C64.0911 8.62411 63.25 7.76722 63.25 6.72006Z" fill="#D3D5FF"/>
<mask id="mask0_1288_180441" style="mask-type:alpha" maskUnits="userSpaceOnUse" x="68" y="10" width="14" height="18">
<path d="M68.8496 10.4087H81.296V27.0449H68.8496V10.4087Z" fill="#D3D5FF"/>
</mask>
<g mask="url(#mask0_1288_180441)">
<path d="M77.6198 16.3825C77.6198 14.9545 76.4905 13.6456 74.9767 13.6456C73.4389 13.6456 72.3098 14.8831 72.3098 16.3825C72.3098 17.9057 73.4389 19.1431 74.9767 19.1431C76.4905 19.1431 77.6198 17.8104 77.6198 16.3825ZM81.296 11.0274V22.2372C81.296 25.9739 77.7159 27.0449 75.0248 27.0449C72.9584 27.0449 71.0363 26.426 69.7867 25.5218C69.6185 25.4026 69.5945 25.236 69.6906 25.0456L70.6277 23.3797C70.772 23.1893 70.892 23.1178 71.1084 23.2368C72.2135 23.8794 73.3428 24.1413 74.7364 24.1413C75.9859 24.1413 77.9802 23.7128 77.9802 21.9278V20.8331C77.1632 21.7612 76.0099 22.4038 74.5202 22.4038C71.2524 22.4038 68.8496 19.6908 68.8496 16.4062C68.8496 13.1219 71.2524 10.4087 74.5202 10.4087C75.9138 10.4087 77.0431 11.0274 77.8841 11.9559L77.9562 11.0274C77.9802 10.8134 78.1003 10.6704 78.3166 10.6704H80.9356C81.1519 10.6704 81.296 10.8134 81.296 11.0274Z" fill="#D3D5FF"/>
</g>
<path d="M95.1578 15.4304V21.9753C95.1578 22.1894 95.0136 22.3323 94.7974 22.3323H91.9142C91.6979 22.3323 91.5536 22.1894 91.5536 21.9753V16.1443C91.5536 14.2641 90.4965 13.7168 89.5353 13.7168C87.9254 13.7168 87.2526 15.2876 87.2526 15.8587V21.9753C87.2526 22.1894 87.1086 22.3323 86.8924 22.3323H84.009C83.7926 22.3323 83.6484 22.1894 83.6484 21.9753V5.31551C83.6484 5.10154 83.7926 4.9585 84.009 4.9585H86.8924C87.1086 4.9585 87.2526 5.10154 87.2526 5.31551V12.5031C87.9975 11.2892 89.1989 10.4086 90.8808 10.4086C93.2596 10.4086 95.1578 12.3128 95.1578 15.4304Z" fill="#D3D5FF"/>
<path d="M106.307 16.5015C106.307 14.8356 105.178 13.6931 103.64 13.6931C102.054 13.6931 100.997 14.9307 100.997 16.5015C100.997 18.0961 102.054 19.2384 103.64 19.2384C105.178 19.2384 106.307 18.1199 106.307 16.5015ZM109.767 16.5253C109.767 19.8572 107.364 22.499 104.072 22.499C102.535 22.499 101.453 21.8801 100.708 20.9758L100.564 21.9754C100.54 22.1896 100.42 22.3324 100.204 22.3324H97.753C97.5366 22.3324 97.3926 22.1896 97.3926 21.9754V5.31551C97.3926 5.10154 97.5366 4.9585 97.753 4.9585H100.636C100.853 4.9585 100.997 5.10154 100.997 5.31551V11.7415C101.741 10.9561 102.775 10.4326 104.072 10.4326C107.364 10.4326 109.767 13.1218 109.767 16.5253Z" fill="#D3D5FF"/>
<path d="M119.835 16.5019C119.835 14.8834 118.658 13.7174 117.168 13.7174C115.702 13.7174 114.501 14.8834 114.501 16.5019C114.501 18.0965 115.702 19.2626 117.168 19.2626C118.658 19.2626 119.835 18.0965 119.835 16.5019ZM111.041 16.5019C111.041 13.0987 113.78 10.4092 117.168 10.4092C120.58 10.4092 123.319 13.0987 123.319 16.5019C123.319 19.8815 120.58 22.5709 117.168 22.5709C113.78 22.5709 111.041 19.8815 111.041 16.5019Z" fill="#D3D5FF"/>
<mask id="mask1_1288_180441" style="mask-type:alpha" maskUnits="userSpaceOnUse" x="125" y="10" width="9" height="13">
<path d="M125.072 10.4087H133.478V22.3325H125.072V10.4087Z" fill="white"/>
</mask>
<g mask="url(#mask1_1288_180441)">
<path d="M133.434 11.5275L132.641 13.5744C132.545 13.86 132.329 13.9074 132.04 13.8359C131.8 13.7646 131.512 13.6456 131.055 13.6456C129.565 13.6456 128.676 14.7404 128.676 16.1682V21.9755C128.676 22.1897 128.532 22.3325 128.316 22.3325H125.433C125.216 22.3325 125.072 22.1897 125.072 21.9755V11.0276C125.072 10.8136 125.216 10.6706 125.433 10.6706H128.196C128.412 10.6706 128.532 10.8136 128.556 11.0276L128.653 12.3842C129.253 11.2419 130.238 10.4087 131.68 10.4087C132.377 10.4087 132.977 10.6944 133.314 11.0039C133.506 11.1706 133.506 11.3609 133.434 11.5275Z" fill="#D3D5FF"/>
</g>
</g>
<defs>
<clipPath id="clip0_1288_180441">
<rect width="133.299" height="26.09" fill="white" transform="translate(0.177734 0.955078)"/>
</clipPath>
</defs>
</svg>
