<svg width="129" height="30" viewBox="0 0 129 30" fill="none" xmlns="http://www.w3.org/2000/svg">
<path d="M21.5448 22.6481H21.8247V29.0959H20.7551C13.8375 29.0959 9.83886 25.1872 9.83886 18.7994V15.5006L12.0881 14.9508C12.7446 14.7848 13.3416 14.4384 13.8115 13.9508C14.2814 13.4632 14.6055 12.8539 14.7472 12.1917C14.8871 11.5315 14.8374 10.8451 14.6039 10.2119C14.3704 9.57864 13.9626 9.02433 13.4276 8.61293C12.8921 8.20068 12.2523 7.94574 11.5799 7.87668C10.9076 7.80761 10.2294 7.92716 9.62117 8.22192C9.01298 8.51667 8.4989 8.97499 8.13654 9.54549C7.77419 10.116 7.57789 10.7762 7.56964 11.452V25.5371H0.582031V11.202C0.582031 10.7722 0.612021 10.3423 0.662004 9.91249C1.02781 7.38897 2.29803 5.08432 4.23626 3.42744C6.17449 1.77057 8.64869 0.87435 11.1984 0.905574C13.5086 0.882812 15.763 1.61571 17.6182 2.99266C19.4733 4.3696 20.8276 6.31513 21.4749 8.53296C22.1146 10.8322 21.9047 13.2913 20.8951 15.4506C20.036 17.2867 18.6604 18.8326 16.9364 19.8991C17.5162 22.2283 18.7358 22.6581 21.4649 22.6581L21.5448 22.6481ZM39.6786 8.9928V12.9314H39.0388C37.6793 12.9314 36.6197 13.3113 35.8599 14.0511C35.4703 14.4535 35.168 14.932 34.9719 15.4566C34.7758 15.9813 34.6902 16.5407 34.7203 17.1V24.2076H30.9016V9.23272H34.7203V11.1721C35.2155 10.4921 35.8654 9.93977 36.6164 9.56082C37.3673 9.18186 38.1977 8.98716 39.0388 8.9928H39.6786ZM56.103 18.0997H44.507C44.7369 18.9994 45.2867 19.7991 46.0364 20.3589C46.7962 20.9087 47.7159 21.1886 48.7955 21.1886C49.6252 21.1886 50.4449 21.0187 51.1947 20.6588C51.8545 20.3589 52.4442 19.9091 52.9141 19.3393L55.4632 21.5685C54.6634 22.5246 53.6544 23.2839 52.5142 23.7877C51.3146 24.3175 49.9951 24.5875 48.6755 24.5675C47.1919 24.5893 45.7268 24.2351 44.417 23.5378C43.1749 22.8842 42.1382 21.8993 41.4217 20.6923C40.7053 19.4854 40.3373 18.1036 40.3584 16.7002C40.3584 15.3006 40.7083 13.9111 41.398 12.7015C42.0788 11.5199 43.0713 10.5481 44.2671 9.89249C45.506 9.20887 46.9007 8.85759 48.3157 8.87284C49.3588 8.84098 50.3973 9.02295 51.3675 9.40754C52.3376 9.79214 53.2187 10.3712 53.9567 11.1091C54.6946 11.8471 55.2737 12.7282 55.6583 13.6983C56.0429 14.6685 56.2248 15.707 56.193 16.7501C56.193 17.2 56.163 17.6498 56.093 18.0997H56.103ZM50.7048 13.0614C50.0125 12.5207 49.1592 12.227 48.2807 12.227C47.4022 12.227 46.5489 12.5207 45.8565 13.0614C45.1557 13.633 44.6637 14.4203 44.457 15.3006H52.1144C51.9077 14.4203 51.4156 13.633 50.7148 13.0614H50.7048ZM80.6946 10.4023C81.2123 10.9391 81.6151 11.5759 81.8781 12.2738C82.1411 12.9717 82.2588 13.7159 82.224 14.4609V24.2176H78.3953V15.6005C78.3953 14.6808 78.1354 13.9411 77.5956 13.4013C77.3179 13.1225 76.9851 12.9047 76.6185 12.7619C76.2519 12.619 75.8595 12.5542 75.4664 12.5716C74.5367 12.5716 73.7669 12.8515 73.1871 13.4213C72.8942 13.7133 72.6655 14.0634 72.5157 14.449C72.3659 14.8346 72.2984 15.2473 72.3174 15.6605V24.2176H68.4987V15.6005C68.4987 14.6908 68.2288 13.9611 67.689 13.4013C67.4045 13.1204 67.0648 12.9017 66.6914 12.7588C66.3181 12.616 65.9191 12.5523 65.5198 12.5716C65.1038 12.5535 64.6885 12.6195 64.2987 12.7654C63.9088 12.9114 63.5523 13.1345 63.2505 13.4213C62.9581 13.7137 62.7297 14.0638 62.58 14.4493C62.4302 14.8349 62.3624 15.2473 62.3808 15.6605V24.2176H58.5621V9.23272H62.3708V10.7822C62.9225 10.1543 63.607 9.65724 64.3748 9.32698C65.1425 8.99671 65.9741 8.84158 66.8093 8.87284C67.769 8.85285 68.7287 9.07277 69.5884 9.51262C70.3881 9.92248 71.0579 10.5423 71.5177 11.312C72.1058 10.5223 72.8773 9.88758 73.7655 9.46262C74.6537 9.03767 75.632 8.83525 76.616 8.87284C78.3154 8.87284 79.6749 9.37267 80.6846 10.3923L80.6946 10.4023ZM100.528 16.7202C100.555 17.7618 100.364 18.7976 99.9681 19.7615C99.5722 20.7254 98.9798 21.5961 98.2285 22.3182C97.4705 23.0599 96.5709 23.6412 95.5834 24.0277C94.5958 24.4141 93.5406 24.5977 92.4805 24.5675C90.1913 24.5675 88.282 23.8177 86.7325 22.3182C85.9777 21.5979 85.3815 20.7279 84.9821 19.7639C84.5828 18.8 84.389 17.7633 84.4133 16.7202C84.4133 14.4909 85.183 12.6216 86.7325 11.1221C87.4908 10.3809 88.3905 9.79983 89.378 9.41343C90.3654 9.02703 91.4206 8.84319 92.4805 8.87284C94.7697 8.87284 96.6791 9.62258 98.2185 11.1221C98.9716 11.8433 99.5659 12.7137 99.9635 13.6776C100.361 14.6415 100.553 15.6778 100.528 16.7202ZM95.4295 19.6891C95.8131 19.2981 96.1137 18.8335 96.313 18.3232C96.5122 17.813 96.6062 17.2677 96.5891 16.7202C96.5891 15.5406 96.1992 14.5509 95.4295 13.7612C95.0484 13.3706 94.5905 13.0632 94.0846 12.8584C93.5788 12.6537 93.036 12.556 92.4905 12.5716C91.9444 12.5579 91.4013 12.6574 90.8955 12.8639C90.3897 13.0703 89.9321 13.3792 89.5515 13.7712C88.7965 14.5694 88.3757 15.6264 88.3757 16.7251C88.3757 17.8239 88.7965 18.8809 89.5515 19.6791C89.9325 20.0706 90.3901 20.3792 90.8959 20.5856C91.4016 20.792 91.9445 20.8918 92.4905 20.8787C93.6701 20.8787 94.6498 20.4789 95.4195 19.6791L95.4295 19.6891ZM107.515 12.7215V18.9494C107.515 20.2289 108.195 20.8687 109.575 20.8687C110.264 20.8487 110.934 20.6688 111.544 20.3689V23.9277C110.674 24.3675 109.715 24.5974 108.745 24.5675C107.076 24.5675 105.806 24.1276 104.966 23.2279C104.076 22.2203 103.619 20.9017 103.697 19.5592V12.7215H101.307V9.23272H103.697V6.73358L107.505 5.43402V9.23272H111.544V12.7215H107.515ZM128.458 18.0997H116.842C117.082 18.9994 117.622 19.7991 118.382 20.3589C119.131 20.9087 120.051 21.1886 121.131 21.1886C121.96 21.1886 122.78 21.0187 123.53 20.6588C124.2 20.3589 124.789 19.9091 125.249 19.3393L127.808 21.5685C127.009 22.5282 125.999 23.2779 124.859 23.7877C123.65 24.3175 122.34 24.5875 121.021 24.5675C119.537 24.5893 118.072 24.2351 116.762 23.5378C115.518 22.8856 114.479 21.9012 113.761 20.6942C113.043 19.4871 112.673 18.1046 112.694 16.7002C112.694 15.3006 113.053 13.9211 113.733 12.7015C114.419 11.5225 115.414 10.5543 116.612 9.90249C117.85 9.21538 119.245 8.86065 120.661 8.87284C122.91 8.87284 124.789 9.62258 126.289 11.1221C127.029 11.8563 127.611 12.7347 127.997 13.7028C128.384 14.6709 128.568 15.708 128.538 16.7501C128.538 17.2 128.508 17.6498 128.458 18.0997ZM123.07 13.0614C122.377 12.5182 121.522 12.2231 120.641 12.2231C119.76 12.2231 118.905 12.5182 118.212 13.0614C117.515 13.6345 117.026 14.4216 116.822 15.3006H124.46C124.256 14.4216 123.767 13.6345 123.07 13.0614Z" fill="#D3D5FF"/>
</svg>
