<svg width="64" height="28" viewBox="0 0 64 28" fill="none" xmlns="http://www.w3.org/2000/svg">
<g clip-path="url(#clip0_1251_178269)">
<path d="M27.209 13.2367H31.0711C31.6441 13.2367 32.0877 13.2802 32.3938 13.3633C32.6999 13.4464 32.9747 13.6007 33.218 13.8262C33.7283 14.293 33.9834 15.0367 33.9834 16.0534V20.5713H31.9856V15.8279C31.9856 15.464 31.9071 15.2029 31.7462 15.0446C31.5853 14.8864 31.3223 14.8073 30.9573 14.8073H29.2146V20.5752H27.2168L27.209 13.2367ZM35.1648 10.5308L37.4098 18.0869L39.4979 10.5308H41.8685L43.9566 18.0869L46.1977 10.5347H48.3878L45.1615 20.5752H42.7477L40.6832 13.3238L38.6148 20.5713H36.201L32.9786 10.5308H35.1648V10.5308ZM52.8465 16.1167C52.8465 15.6025 52.7445 15.2543 52.5365 15.0763C52.3284 14.8983 51.9242 14.8073 51.3197 14.8073H47.9325V13.2407H51.3197C51.9242 13.2407 52.3402 13.2525 52.5718 13.2723C52.8033 13.2961 53.0349 13.3435 53.2704 13.4147C54.3733 13.838 54.8993 14.8429 54.8482 16.4372V20.5713H50.6289C49.8754 20.5713 49.3533 20.5475 49.0629 20.504C48.7725 20.4605 48.5173 20.3656 48.3015 20.2152C47.7088 19.8117 47.4105 19.2064 47.4105 18.3994C47.4105 17.9049 47.5283 17.4658 47.7638 17.0781C47.9993 16.6943 48.3093 16.4332 48.694 16.2948C49.0354 16.1721 49.6006 16.1128 50.3935 16.1128L52.8465 16.1167V16.1167ZM52.8465 17.6833H50.5347L50.1972 17.6754C49.9696 17.6754 49.789 17.7387 49.6556 17.8574C49.5221 17.9801 49.4554 18.1462 49.4554 18.3519C49.4554 18.5932 49.5378 18.7634 49.6987 18.8583C49.8636 18.9572 50.1383 19.0047 50.5347 19.0047H52.8465V17.6833V17.6833ZM60.2057 19.0086V13.2407H62.2035V20.4289C62.2035 21.3862 61.9523 22.0825 61.4539 22.5256C60.9554 22.9687 60.1626 23.1862 59.0793 23.1862H55.5037V21.6196H59.0793C59.5071 21.6157 59.7858 21.5643 59.9192 21.4733C60.0173 21.4179 60.0801 21.3427 60.1115 21.2438C60.1429 21.1449 60.1743 20.9234 60.2018 20.5752H58.4121C56.3593 20.6227 55.3899 19.5467 55.4998 17.3392V13.2407H57.4975V17.1374C57.4975 17.897 57.5643 18.3994 57.7016 18.6407C57.839 18.882 58.1216 19.0047 58.5494 19.0047L60.2057 19.0086V19.0086Z" fill="#D3D5FF"/>
<path fill-rule="evenodd" clip-rule="evenodd" d="M25.6034 12.7064C25.623 12.9161 25.6387 13.1337 25.6505 13.3473C25.6622 13.5649 25.6701 13.7825 25.6622 14.0001C25.6622 14.2176 25.6583 14.4313 25.6465 14.6489C25.6387 14.8625 25.6191 15.0761 25.5994 15.2897C25.5798 15.5034 25.5523 15.713 25.5209 15.9227C25.4895 16.1324 25.4542 16.3381 25.411 16.5438C25.3679 16.7495 25.3208 16.9552 25.2697 17.157C25.2187 17.3588 25.1638 17.5605 25.101 17.7583C25.0421 17.9561 24.9754 18.15 24.9047 18.3438C24.8341 18.5377 24.7595 18.7276 24.681 18.9175C24.6025 19.1074 24.5162 19.2933 24.4298 19.4792C24.3395 19.6652 24.2493 19.8471 24.1511 20.0252C24.053 20.2032 23.9549 20.3812 23.8489 20.5553L23.8489 20.5553C23.7429 20.7294 23.637 20.9034 23.5232 21.0696C23.4093 21.2357 23.2955 21.4019 23.1738 21.5641C23.0522 21.7263 22.9305 21.8885 22.801 22.0428C22.6754 22.1971 22.5419 22.3513 22.4085 22.5017C22.2711 22.652 22.1337 22.7984 21.9924 22.9408C21.8511 23.0832 21.7059 23.2256 21.5568 23.3601C21.4077 23.4985 21.2547 23.629 21.1017 23.7595L21.1015 23.7597C20.9445 23.8902 20.7875 24.0129 20.6266 24.1355C20.4656 24.2582 20.3008 24.3729 20.136 24.4876C19.9672 24.6023 19.7984 24.7092 19.6257 24.816C19.453 24.9228 19.2764 25.0217 19.0998 25.1206L19.0998 25.1206C18.9192 25.2195 18.7426 25.3144 18.5581 25.4015C18.3737 25.4885 18.1892 25.5755 18.0008 25.6547C17.8124 25.7338 17.624 25.8089 17.4317 25.8802C17.2433 25.9514 17.047 26.0147 16.8508 26.078C16.6546 26.1373 16.4544 26.1966 16.2542 26.2481C16.054 26.2995 15.8499 26.347 15.6459 26.3905C15.4418 26.434 15.2377 26.4696 15.0296 26.5013C14.8216 26.5329 14.6136 26.5606 14.4017 26.5804C14.1936 26.6002 13.9778 26.616 13.7658 26.6279C13.5539 26.6397 13.338 26.6437 13.1221 26.6437C12.9063 26.6437 12.6904 26.6397 12.4784 26.6279C12.2665 26.6199 12.0546 26.6002 11.8427 26.5804L11.8426 26.5804C11.6307 26.5606 11.4226 26.5329 11.2146 26.5013C11.0066 26.4696 10.8025 26.434 10.5984 26.3905C10.3943 26.347 10.1902 26.2995 9.99005 26.2481C9.78988 26.1966 9.58971 26.1413 9.39346 26.078C9.19722 26.0186 9.0049 25.9514 8.81258 25.8802C8.62026 25.8089 8.43186 25.7338 8.24346 25.6547C8.05507 25.5755 7.8706 25.4885 7.68613 25.4015C7.50166 25.3105 7.32111 25.2195 7.14449 25.1206C6.96787 25.0217 6.79125 24.9228 6.61855 24.816C6.44585 24.7092 6.27316 24.6023 6.10831 24.4876C5.94346 24.3729 5.77862 24.2582 5.6177 24.1355C5.45678 24.0129 5.29585 23.8902 5.14278 23.7597C4.98971 23.6291 4.83664 23.4946 4.68749 23.3601C4.53834 23.2217 4.39312 23.0832 4.25183 22.9408C4.11053 22.7984 3.96923 22.652 3.83579 22.5017C3.70234 22.3513 3.57282 22.1971 3.44329 22.0428C3.31377 21.8845 3.1921 21.7263 3.07043 21.5641C2.94875 21.4019 2.83493 21.2397 2.72111 21.0696C2.60729 20.8995 2.50131 20.7293 2.39534 20.5553C2.28938 20.3812 2.19126 20.2032 2.09315 20.0252L2.09312 20.0252C1.995 19.8471 1.9008 19.6652 1.81445 19.4792C1.72811 19.2933 1.64176 19.1074 1.56326 18.9175C1.48476 18.7276 1.41019 18.5377 1.33954 18.3438C1.26889 18.1539 1.20609 17.9561 1.14329 17.7583C1.08442 17.5605 1.02555 17.3588 0.974523 17.157C0.923499 16.9552 0.8764 16.7495 0.833226 16.5438C0.790052 16.3381 0.754727 16.1324 0.723328 15.9227C0.691929 15.713 0.664454 15.5034 0.64483 15.2897C0.625205 15.0801 0.609506 14.8625 0.597731 14.6489C0.585956 14.4352 0.582031 14.2176 0.582031 14.0001C0.582031 13.7825 0.585956 13.5649 0.601656 13.3513C0.609506 13.1376 0.62913 12.924 0.648755 12.7104C0.668379 12.4968 0.695854 12.2871 0.727253 12.0774C0.758652 11.8717 0.793977 11.662 0.837151 11.4563C0.880325 11.2506 0.927424 11.0449 0.978448 10.8431C1.02947 10.6414 1.08442 10.4396 1.14722 10.2418C1.20609 10.04 1.27282 9.84618 1.34346 9.65233C1.41411 9.45849 1.48869 9.2686 1.56718 9.0787C1.64568 8.88881 1.73203 8.70288 1.81838 8.51695L1.81838 8.51694C1.90865 8.33101 1.99893 8.14903 2.09705 7.971C2.19517 7.79298 2.29329 7.61496 2.39927 7.44089C2.50524 7.26682 2.61121 7.09671 2.72503 6.9266C2.83886 6.76044 2.95268 6.59429 3.07435 6.43209L3.07435 6.43209C3.19603 6.26989 3.3177 6.10769 3.44722 5.9534C3.57282 5.79912 3.70626 5.64483 3.83971 5.4945C3.97708 5.34417 4.11445 5.19779 4.25575 5.05538C4.39705 4.91296 4.54227 4.77054 4.69142 4.63603C4.84056 4.50152 4.99364 4.37097 5.14671 4.24042C5.3037 4.10987 5.4607 3.98724 5.62162 3.8646C5.78254 3.74196 5.94346 3.62723 6.11224 3.51251C6.28101 3.39778 6.44978 3.29097 6.62247 3.18415C6.79517 3.07734 6.97178 2.97844 7.1484 2.87954L7.14841 2.87953C7.32503 2.78063 7.50558 2.68569 7.69005 2.59865L7.69006 2.59865C7.87453 2.51162 8.059 2.42458 8.24739 2.34546C8.43579 2.26634 8.62418 2.19118 8.8165 2.11997C9.00882 2.04876 9.20114 1.98546 9.39739 1.92216C9.59363 1.85887 9.79381 1.80348 9.99398 1.75205C10.1941 1.70062 10.3982 1.65315 10.6023 1.60963C10.8064 1.56612 11.0105 1.53051 11.2185 1.49886C11.4266 1.46722 11.6346 1.43952 11.8465 1.41974C12.0546 1.39996 12.2665 1.38414 12.4824 1.37227C12.6943 1.3604 12.9102 1.35645 13.1261 1.35645C13.3419 1.35645 13.5578 1.3604 13.7697 1.36831C13.9817 1.37623 14.1936 1.39205 14.4056 1.41579C14.6175 1.43557 14.8255 1.46326 15.0336 1.49491C15.2416 1.52656 15.4457 1.56216 15.6498 1.60568C15.8539 1.64919 16.058 1.69667 16.2581 1.7481C16.4583 1.79953 16.6585 1.85491 16.8547 1.91821C17.051 1.97755 17.2433 2.0448 17.4356 2.11601C17.6279 2.18722 17.8163 2.26239 18.0047 2.34151C18.1931 2.42063 18.3776 2.50766 18.5621 2.5947C18.7465 2.68569 18.9271 2.77668 19.1037 2.87558C19.2803 2.97448 19.4569 3.07338 19.6296 3.1802C19.8023 3.28701 19.9711 3.39382 20.1399 3.50855C20.3047 3.62328 20.4696 3.738 20.6305 3.86064C20.7914 3.98328 20.9523 4.10592 21.1054 4.23647C21.2585 4.36306 21.4116 4.49757 21.5607 4.63208C21.7098 4.77054 21.8551 4.909 21.9964 5.05142C22.1377 5.19384 22.279 5.34021 22.4124 5.49054C22.5459 5.64087 22.6754 5.79516 22.8049 5.94945C22.9344 6.10769 23.0561 6.26593 23.1778 6.42813C23.2994 6.59031 23.4132 6.75644 23.527 6.92257L23.5271 6.92264C23.6409 7.09275 23.7469 7.26287 23.8528 7.43693C23.9588 7.61099 24.0569 7.78901 24.1551 7.96703L24.1551 7.96705C24.2532 8.14903 24.3474 8.32705 24.4337 8.51298C24.5201 8.69892 24.6064 8.88486 24.6849 9.07475C24.7634 9.26464 24.838 9.45453 24.9087 9.64838C24.9793 9.84219 25.0421 10.04 25.1049 10.2377L25.1049 10.2378C25.1677 10.4356 25.2226 10.6374 25.2737 10.8392C25.3247 11.0409 25.3718 11.2466 25.415 11.4523C25.4581 11.6581 25.4935 11.8638 25.5249 12.0735C25.5563 12.2831 25.5837 12.4928 25.6034 12.7064ZM24.8223 14.819C24.8302 14.6845 24.838 14.546 24.8419 14.4115L24.8421 14.4056C24.846 14.2692 24.8497 14.1366 24.8459 14.004C24.8459 13.8656 24.8419 13.7271 24.838 13.5926C24.8341 13.4542 24.8262 13.3197 24.8184 13.1853L24.8184 13.1851L24.7831 12.7816C24.7713 12.6471 24.7556 12.5126 24.736 12.382C24.7203 12.2475 24.7006 12.117 24.6771 11.9864L24.6771 11.9864C24.6535 11.8558 24.63 11.7253 24.6025 11.5948C24.575 11.4642 24.5476 11.3337 24.5162 11.2071C24.4848 11.0805 24.4534 10.9539 24.418 10.8273C24.3827 10.7007 24.3474 10.5741 24.3081 10.4515C24.2689 10.3249 24.2296 10.2022 24.1865 10.0796C24.1433 9.95695 24.1001 9.83827 24.053 9.71563C24.0059 9.59299 23.9588 9.47431 23.9078 9.35563C23.8568 9.23695 23.8057 9.11826 23.7508 9.00354C23.6959 8.88486 23.6409 8.77013 23.582 8.6554C23.5271 8.54068 23.4682 8.42595 23.4054 8.31518C23.3465 8.20441 23.2837 8.09364 23.217 7.98287C23.1503 7.8721 23.0836 7.76133 23.0168 7.65452C22.9501 7.5477 22.8795 7.44089 22.8088 7.33407C22.7382 7.22726 22.6636 7.1244 22.589 7.02154C22.5145 6.91869 22.436 6.81583 22.3575 6.71693L22.3573 6.71675C22.2789 6.61791 22.2004 6.51907 22.118 6.42022L22.118 6.42021C22.0356 6.32131 21.9532 6.22241 21.8668 6.12747L21.8667 6.12733C21.7804 6.03243 21.6941 5.93753 21.6039 5.84263C21.5175 5.74769 21.4273 5.6567 21.3331 5.56571C21.2428 5.47472 21.1447 5.38373 21.0505 5.2967L20.7561 5.0356C20.654 4.94856 20.552 4.86548 20.4499 4.78241C20.3479 4.69933 20.2419 4.61625 20.136 4.53713C20.03 4.45805 19.9202 4.37896 19.8103 4.29988L19.8102 4.29977C19.7003 4.22066 19.5865 4.14551 19.4727 4.07036L19.4726 4.07031C19.3588 3.99515 19.2411 3.91998 19.1233 3.84877L19.1231 3.84865C19.0054 3.77748 18.8878 3.70631 18.7662 3.63514V14.4867L7.37998 3.69053C7.26616 3.75383 7.15234 3.82108 7.03852 3.89229C6.92469 3.9635 6.8148 4.03471 6.7049 4.10592C6.59893 4.17713 6.48903 4.25229 6.38305 4.32746C6.3442 4.35647 6.30534 4.38495 6.26667 4.41329C6.19989 4.46224 6.13369 4.51076 6.06906 4.56087C5.96309 4.63999 5.86497 4.71911 5.76292 4.80219C5.66088 4.88525 5.56277 4.96832 5.46466 5.05139L5.46462 5.05142C5.36651 5.13449 5.27231 5.22152 5.17812 5.30855L5.17811 5.30856C5.08391 5.3956 4.98971 5.48263 4.89944 5.57362C4.80916 5.66461 4.71889 5.7556 4.63254 5.84659C4.5462 5.93757 4.45986 6.03251 4.37352 6.12745L4.3735 6.12747C4.28715 6.22242 4.20473 6.31736 4.1223 6.41627C4.03989 6.51516 3.96139 6.61406 3.8829 6.71295L3.88288 6.71297C3.86855 6.73199 3.85406 6.75115 3.83949 6.77043C3.77827 6.85143 3.71547 6.93451 3.65524 7.01759L3.65524 7.01759C3.58066 7.12045 3.50609 7.22331 3.43544 7.33012C3.3648 7.43693 3.29415 7.54375 3.22742 7.65056C3.17238 7.73686 3.12211 7.82075 3.07103 7.90599C3.05655 7.93016 3.04199 7.95444 3.02725 7.97891C2.98539 8.05013 2.94352 8.12485 2.90165 8.19958C2.88072 8.23694 2.85979 8.2743 2.83886 8.31123C2.77998 8.422 2.72111 8.53672 2.66224 8.65145C2.60336 8.76617 2.54841 8.8809 2.49346 8.99958C2.43852 9.11431 2.38749 9.23299 2.33647 9.35167L2.33647 9.35167C2.29674 9.44409 2.25939 9.5389 2.22256 9.63237C2.2121 9.65894 2.20167 9.68541 2.19125 9.71168C2.14415 9.83035 2.10098 9.95298 2.05781 10.0756L2.0578 10.0756C2.02306 10.1743 1.99086 10.2756 1.95916 10.3752C1.95146 10.3994 1.94379 10.4236 1.93613 10.4475C1.89688 10.5701 1.86155 10.6967 1.82623 10.8233C1.7909 10.9499 1.75951 11.0765 1.72811 11.2031C1.69671 11.3337 1.66923 11.4603 1.64176 11.5908C1.61428 11.7214 1.59073 11.8519 1.56718 11.9825C1.55737 12.0477 1.54756 12.114 1.53775 12.1803C1.52793 12.2465 1.51812 12.3128 1.50831 12.3781C1.48869 12.5126 1.47299 12.6431 1.46121 12.7776C1.44551 12.9121 1.43374 13.0466 1.42589 13.1812C1.41804 13.3157 1.41019 13.4541 1.40626 13.5886L1.40594 13.5999C1.40213 13.7344 1.39841 13.8653 1.39841 14.0001C1.39841 14.1108 1.39841 14.2176 1.40234 14.3245C1.40626 14.4313 1.41019 14.5341 1.41411 14.633C1.41778 14.7292 1.42489 14.8185 1.43222 14.9106L1.43374 14.9297C1.43786 14.9816 1.44305 15.0324 1.4482 15.0827C1.45286 15.1282 1.45748 15.1734 1.46121 15.2185C1.46514 15.2581 1.46906 15.2897 1.47299 15.3174C1.47487 15.3288 1.47585 15.3402 1.47679 15.3511C1.47781 15.363 1.47879 15.3744 1.48084 15.3847C1.48084 15.3951 1.48193 15.4045 1.48296 15.4133C1.48389 15.4212 1.48476 15.4286 1.48476 15.4361C1.48476 15.4446 1.48589 15.4519 1.48694 15.4588C1.48784 15.4647 1.48869 15.4702 1.48869 15.4757C1.48869 15.4816 1.48967 15.4875 1.49065 15.4935C1.49163 15.4994 1.49261 15.5053 1.49261 15.5113C1.49261 15.5172 1.49359 15.5232 1.49457 15.5291C1.49556 15.535 1.49654 15.541 1.49654 15.5469C1.49654 15.5528 1.49752 15.5588 1.4985 15.5647C1.49948 15.5706 1.50046 15.5766 1.50046 15.5825C1.50046 15.5884 1.50144 15.5944 1.50242 15.6003C1.5034 15.6062 1.50439 15.6122 1.50439 15.6181C1.5065 15.6394 1.50974 15.6595 1.5129 15.6791C1.51562 15.6959 1.51827 15.7124 1.52009 15.7289C1.5222 15.7501 1.52544 15.7703 1.5286 15.7899C1.53132 15.8067 1.53397 15.8232 1.53579 15.8396C1.53971 15.8792 1.54364 15.9148 1.55149 15.9504C1.55506 15.9684 1.55783 15.9857 1.56052 16.0024C1.56373 16.0224 1.56684 16.0418 1.57111 16.0612C1.58698 16.1358 1.60106 16.2086 1.61456 16.2785C1.6211 16.3123 1.62751 16.3454 1.63391 16.3777C1.65353 16.4766 1.67316 16.5715 1.69278 16.6625C1.70506 16.7194 1.71888 16.7748 1.73231 16.8287C1.74034 16.8609 1.74824 16.8925 1.75558 16.9236C1.76736 16.9651 1.77815 17.0067 1.78894 17.0482C1.79974 17.0898 1.81053 17.1313 1.8223 17.1728L1.83408 17.2084L1.84585 17.244L1.85763 17.2796L1.8694 17.3153L1.86941 17.3153C1.88118 17.3509 1.89295 17.3865 1.9008 17.4181C1.91258 17.4498 1.92043 17.4775 1.92828 17.5051C1.93613 17.5328 1.94398 17.5605 1.95183 17.5843C1.95968 17.612 1.96753 17.6357 1.97538 17.6594C1.98651 17.6919 1.99726 17.7235 2.00774 17.7544C2.0305 17.8214 2.052 17.8847 2.0735 17.9443C2.08364 17.9724 2.09337 18.0001 2.10295 18.0273C2.12305 18.0845 2.14251 18.1399 2.16377 18.1935C2.18299 18.2488 2.20413 18.3023 2.2245 18.3537C2.23325 18.3758 2.24186 18.3976 2.25012 18.419L2.25014 18.419C2.2776 18.4902 2.30507 18.5614 2.33647 18.6326C2.33843 18.6366 2.33941 18.6395 2.34039 18.6425C2.34137 18.6455 2.34236 18.6485 2.34432 18.6524C2.34628 18.6564 2.34726 18.6593 2.34824 18.6623C2.34922 18.6653 2.35021 18.6682 2.35217 18.6722C2.35413 18.6761 2.35511 18.6791 2.35609 18.6821C2.35707 18.685 2.35806 18.688 2.36002 18.692C2.36244 18.6944 2.36337 18.6969 2.36465 18.7002C2.36544 18.7023 2.36637 18.7048 2.36787 18.7078C2.40712 18.7909 2.43852 18.8581 2.46207 18.9135C2.4661 18.9223 2.47002 18.9309 2.47382 18.9392C2.49222 18.9795 2.50793 19.0139 2.52094 19.0401C2.53664 19.0717 2.54841 19.0955 2.55626 19.1153C2.5615 19.1285 2.56673 19.1381 2.57197 19.1478C2.57458 19.1526 2.5772 19.1575 2.57981 19.1627C2.60663 19.2222 2.63346 19.2743 2.65777 19.3215C2.66904 19.3434 2.67977 19.3642 2.68971 19.3843C2.72503 19.4476 2.75251 19.503 2.77606 19.5504C2.78837 19.5753 2.80068 19.5979 2.81243 19.6195C2.82316 19.6393 2.83342 19.6581 2.84278 19.677L2.90166 19.7838C2.94192 19.8549 2.98056 19.9194 3.01656 19.9795C3.03672 20.0131 3.05604 20.0454 3.07435 20.0766C3.08276 20.0909 3.09096 20.105 3.09898 20.1187C3.13961 20.1882 3.17567 20.2499 3.21172 20.306C3.23658 20.3448 3.26013 20.3822 3.28239 20.4175C3.29879 20.4436 3.31448 20.4685 3.32947 20.492L3.32948 20.492C3.3648 20.5474 3.40012 20.6028 3.43544 20.6542C3.442 20.6641 3.44855 20.6733 3.45482 20.6821C3.46357 20.6944 3.47176 20.706 3.47862 20.7175C3.48796 20.7292 3.49591 20.741 3.5033 20.7519C3.50833 20.7594 3.5131 20.7665 3.51787 20.7729C3.52375 20.7808 3.52866 20.7887 3.53357 20.7966C3.53847 20.8045 3.54338 20.8124 3.54927 20.8203C3.55515 20.8282 3.56006 20.8352 3.56497 20.8421C3.56987 20.849 3.57478 20.8559 3.58067 20.8639C3.60562 20.8981 3.62795 20.9298 3.64842 20.9588C3.66336 20.98 3.67731 20.9998 3.69056 21.0181C3.71202 21.0479 3.73164 21.0739 3.74943 21.0975C3.75768 21.1085 3.76553 21.1189 3.77299 21.1289C3.77907 21.1371 3.78489 21.145 3.79051 21.1526C3.80667 21.1746 3.82123 21.1944 3.83579 21.212C3.84894 21.2319 3.86484 21.2518 3.87889 21.2693C3.88161 21.2727 3.88426 21.276 3.88681 21.2792C3.92998 21.3386 3.97316 21.394 4.02026 21.4494C4.04381 21.477 4.06637 21.5047 4.08894 21.5324C4.11151 21.5601 4.13408 21.5878 4.15763 21.6155L4.29893 21.7817C4.34267 21.8331 4.3898 21.8845 4.43403 21.9328L4.44415 21.9439L4.45593 21.9571C4.48649 21.9913 4.51396 22.0221 4.53835 22.0467C4.56582 22.0744 4.58937 22.0981 4.60899 22.1219C4.62862 22.1456 4.64824 22.1654 4.66394 22.1812L4.71104 22.2287C4.77379 22.288 4.82479 22.3394 4.86403 22.3789L4.86411 22.379C4.90729 22.4186 4.93869 22.4502 4.96224 22.474C4.9752 22.487 4.98697 22.4977 4.99756 22.5073C5.0062 22.5151 5.01405 22.5222 5.02111 22.5294L5.06036 22.5689C5.07876 22.5856 5.09544 22.6014 5.1112 22.6164C5.12905 22.6333 5.14573 22.6492 5.16241 22.6639C5.18988 22.6916 5.21736 22.7153 5.2409 22.7351C5.26445 22.7588 5.28408 22.7786 5.3037 22.7944C5.32332 22.8142 5.34293 22.83 5.36254 22.8458L5.36258 22.8458C5.40968 22.8894 5.44893 22.925 5.48817 22.9566C5.52742 22.9883 5.55882 23.016 5.59022 23.0436C5.62162 23.0674 5.6491 23.0911 5.67657 23.1149C5.70021 23.1319 5.72385 23.1518 5.74498 23.1697C5.74841 23.1726 5.75178 23.1754 5.75507 23.1782C5.78921 23.204 5.81923 23.2277 5.84662 23.2493C5.85701 23.2576 5.86702 23.2655 5.87674 23.2731C5.89113 23.2844 5.90488 23.2957 5.91797 23.3064C5.937 23.322 5.95466 23.3365 5.97094 23.3483C5.98616 23.3614 6.00017 23.3721 6.01365 23.3824C6.0245 23.3907 6.03501 23.3988 6.04551 23.4076C6.06906 23.4274 6.08869 23.4432 6.11224 23.459C6.12788 23.4705 6.14352 23.4825 6.15934 23.4946C6.18721 23.516 6.21565 23.5378 6.24568 23.5579C6.26923 23.5738 6.2918 23.5906 6.31437 23.6074C6.33694 23.6242 6.35951 23.641 6.38305 23.6568C6.42623 23.6924 6.47333 23.7241 6.52043 23.7557L6.66172 23.8507C6.68046 23.8649 6.6992 23.8776 6.71711 23.8898C6.72921 23.898 6.74092 23.906 6.752 23.914C6.77947 23.9338 6.80695 23.9535 6.83442 23.9694C6.85132 23.9815 6.86821 23.9922 6.88419 24.0023C6.8942 24.0086 6.90385 24.0147 6.91292 24.0208C6.92469 24.0287 6.93745 24.0366 6.95021 24.0445C6.96296 24.0524 6.97572 24.0604 6.98749 24.0683C7.02282 24.092 7.05422 24.1118 7.08169 24.1276C7.10916 24.1434 7.12879 24.1553 7.14841 24.1672C7.15702 24.1724 7.16486 24.1768 7.17196 24.1808C7.18105 24.186 7.1889 24.1904 7.19551 24.1949C7.2112 24.2028 7.22297 24.2107 7.23474 24.2186L7.23476 24.2186L7.46633 13.5174L18.8682 24.3135L18.8684 24.3135C18.9821 24.2462 19.0959 24.179 19.2097 24.1078C19.3235 24.0366 19.4334 23.9654 19.5433 23.8942C19.6493 23.823 19.7592 23.7478 19.8651 23.6727C19.904 23.6436 19.9429 23.6152 19.9815 23.5868C20.0483 23.5379 20.1145 23.4894 20.1791 23.4393C20.2851 23.3601 20.3832 23.281 20.4853 23.1979C20.5873 23.1149 20.6854 23.0318 20.7836 22.9487C20.8817 22.8656 20.9759 22.7786 21.0701 22.6916C21.1643 22.6045 21.2585 22.5175 21.3488 22.4265C21.439 22.3395 21.5293 22.2445 21.6156 22.1535C21.7019 22.0626 21.7882 21.9678 21.8744 21.873L21.8747 21.8727C21.9571 21.7777 22.0395 21.6828 22.122 21.5839C22.185 21.5112 22.2458 21.4339 22.3061 21.3573C22.3246 21.3338 22.343 21.3104 22.3614 21.2872C22.4399 21.1882 22.5184 21.0854 22.593 20.9825L22.5931 20.9824C22.6676 20.8796 22.7421 20.7768 22.8127 20.67C22.8834 20.5632 22.954 20.4564 23.0208 20.3496C23.0758 20.2633 23.126 20.1794 23.1771 20.0942C23.1916 20.07 23.2062 20.0457 23.2209 20.0212C23.2628 19.95 23.3047 19.8752 23.3466 19.8005C23.3675 19.7631 23.3884 19.7258 23.4093 19.6889C23.4682 19.5782 23.527 19.4635 23.5859 19.3488L23.586 19.3487C23.6448 19.2339 23.6998 19.1192 23.7547 19.0005C23.8097 18.8858 23.8607 18.7671 23.9117 18.6484C23.9627 18.5298 24.0098 18.4111 24.0569 18.2884C24.104 18.1698 24.1472 18.0471 24.1904 17.9245C24.2251 17.8258 24.2573 17.7246 24.289 17.6249C24.2967 17.6007 24.3044 17.5766 24.3121 17.5526C24.3513 17.43 24.3866 17.3034 24.422 17.1768C24.4573 17.0503 24.4887 16.9237 24.52 16.7972L24.5201 16.797C24.5515 16.6665 24.579 16.5399 24.6064 16.4093C24.6339 16.2788 24.6575 16.1482 24.681 16.0177C24.6908 15.9524 24.7006 15.8861 24.7104 15.8199C24.7203 15.7536 24.7301 15.6873 24.7399 15.6221C24.7453 15.5754 24.7512 15.5293 24.7571 15.4833C24.7682 15.3966 24.7793 15.3104 24.787 15.2225C24.8027 15.088 24.8145 14.9535 24.8223 14.819ZM17.365 14.5617L18.3776 14.6923L7.92161 4.78233L8.92639 6.5586L17.365 14.5617ZM7.87457 13.3078L8.88327 13.4384L17.3258 21.4415L18.3266 23.2178L7.87457 13.3078Z" fill="#D3D5FF"/>
</g>
<defs>
<clipPath id="clip0_1251_178269">
<rect width="63.4188" height="26.09" fill="white" transform="translate(0.582031 0.955078)"/>
</clipPath>
</defs>
</svg>
