<svg width="780" height="499" viewBox="0 0 780 499" fill="none" xmlns="http://www.w3.org/2000/svg">
<g clip-path="url(#clip0_1265_191908)">
<rect x="-77" y="-64" width="920" height="563" fill="#F4F5FF"/>
<g clip-path="url(#clip1_1265_191908)">
<g opacity="0.8">
<path d="M253.741 0.832606C272.791 86.2688 303.786 165.82 367.012 226.97C488.78 344.749 649.492 377.438 813.114 375.021" stroke="#C8CBFE" stroke-miterlimit="10"/>
<path d="M261.489 -36.6607C278.469 56.5612 307.315 144.276 374.941 210.169C495.014 327.14 654.97 357.864 817.359 354.479" stroke="#C8CBFE" stroke-miterlimit="10"/>
<path d="M272.489 -78.0232C287.12 24.0985 312.6 121.713 385.332 193.092C503.704 309.278 662.955 337.947 824.122 333.622" stroke="#C8CBFE" stroke-miterlimit="10"/>
<path d="M279.422 -123.445C291.621 -11.1672 311.97 98.6433 390.694 176.533C507.366 291.935 665.947 318.529 825.876 313.261" stroke="#C8CBFE" stroke-miterlimit="10"/>
<path d="M290.012 -174.687C300.276 -51.0432 312.783 74.0706 398.618 159.682C513.542 274.303 671.501 298.744 830.155 292.562" stroke="#C8CBFE" stroke-miterlimit="10"/>
<path d="M302.515 -217.171C311.705 -85.8665 315.675 51.5164 406.472 142.852C519.645 256.703 677.044 278.927 834.429 271.872" stroke="#C8CBFE" stroke-miterlimit="10"/>
<path d="M318.483 -213.873C325.002 -89.2076 329.164 39.543 414.34 126.037C525.713 239.121 682.61 259.077 838.707 251.17" stroke="#C8CBFE" stroke-miterlimit="10"/>
<path d="M334.009 -210.663C338.159 -92.7132 342.549 27.5398 422.211 109.214C531.782 221.544 688.227 239.14 842.995 230.423" stroke="#C8CBFE" stroke-miterlimit="10"/>
<path d="M349.122 -207.541C351.211 -96.4105 355.868 15.4674 430.092 92.3376C537.827 203.919 693.883 219.091 847.296 209.611" stroke="#C8CBFE" stroke-miterlimit="10"/>
<path d="M363.731 -204.519C364.074 -100.269 369.025 3.40509 437.898 75.5147C543.763 186.366 699.542 199.023 851.591 188.828" stroke="#C8CBFE" stroke-miterlimit="10"/>
<path d="M377.912 -201.59C376.83 -104.307 382.15 -8.73197 445.747 58.6328C549.724 168.763 705.275 178.826 855.917 167.971" stroke="#C8CBFE" stroke-miterlimit="10"/>
<path d="M391.606 -198.761C389.447 -108.513 395.12 -20.8881 453.549 41.754C555.602 151.181 711.042 158.547 860.212 147.107" stroke="#C8CBFE" stroke-miterlimit="10"/>
<path d="M404.856 -196.023C401.938 -112.886 408.008 -33.0354 461.345 24.8997C561.425 133.626 716.868 138.204 864.52 126.259" stroke="#C8CBFE" stroke-miterlimit="10"/>
<path d="M417.709 -193.366C414.385 -117.431 420.875 -45.2363 469.187 7.98001C567.262 116.012 722.777 117.701 868.825 105.349" stroke="#C8CBFE" stroke-miterlimit="10"/>
<path d="M430.044 -190.817C426.657 -122.127 433.539 -57.454 476.947 -8.93118C572.994 98.4394 728.769 97.1005 873.161 84.4445" stroke="#C8CBFE" stroke-miterlimit="10"/>
<path d="M441.997 -188.35C438.894 -126.963 446.156 -69.673 484.729 -25.8677C578.697 80.8568 734.85 76.3744 877.494 63.5483" stroke="#C8CBFE" stroke-miterlimit="10"/>
<path d="M453.599 -185.948C451.097 -131.937 458.693 -81.8881 492.499 -42.8244C584.322 63.2658 741.04 55.5126 881.795 42.6653" stroke="#C8CBFE" stroke-miterlimit="10"/>
<path d="M464.88 -183.617C463.291 -137.032 471.118 -94.1049 500.234 -59.8434C589.874 45.6428 747.349 34.4551 886.102 21.7417" stroke="#C8CBFE" stroke-miterlimit="10"/>
<path d="M475.994 -181.322C475.551 -142.205 483.501 -106.268 508.003 -76.8698C595.409 28.0274 753.845 13.269 890.426 0.896383" stroke="#C8CBFE" stroke-miterlimit="10"/>
<path d="M487.138 -179.018C488.008 -147.41 495.825 -118.378 515.738 -93.9645C600.849 10.4076 760.525 -8.11868 894.745 -19.9224" stroke="#C8CBFE" stroke-miterlimit="10"/>
<path d="M498.571 -176.657C500.724 -152.564 508.087 -130.349 523.429 -111.083C606.179 -7.22418 767.423 -29.7179 899.019 -40.6884" stroke="#C8CBFE" stroke-miterlimit="10"/>
</g>
</g>
<path d="M308.375 153.02C308.375 137.899 308.375 130.338 311.318 124.563C313.906 119.482 318.037 115.352 323.117 112.763C328.893 109.82 336.454 109.82 351.575 109.82H457.175C472.296 109.82 479.857 109.82 485.633 112.763C490.713 115.352 494.844 119.482 497.432 124.563C500.375 130.338 500.375 137.899 500.375 153.02V413.416C500.375 428.537 500.375 436.098 497.432 441.873C494.844 446.954 490.713 451.084 485.633 453.673C479.857 456.616 472.296 456.616 457.175 456.616H351.575C336.454 456.616 328.893 456.616 323.117 453.673C318.037 451.084 313.906 446.954 311.318 441.873C308.375 436.098 308.375 428.537 308.375 413.416V153.02Z" fill="white"/>
<path d="M340.469 175.831H344.177L347.993 162.652H345.995L342.323 175.761L338.651 162.652H336.653L340.469 175.831Z" fill="black"/>
<path d="M355.215 176.021C357.339 176.021 358.887 175.085 359.427 173.108H357.627C357.285 174.149 356.565 174.773 355.215 174.773C353.667 174.773 352.677 173.698 352.533 171.686H359.607C359.625 171.461 359.643 171.218 359.643 171.045C359.643 168.184 357.825 166.346 355.197 166.346C352.407 166.346 350.751 168.357 350.751 171.184C350.751 173.975 352.371 176.021 355.215 176.021ZM352.551 170.403C352.767 168.548 353.721 167.594 355.197 167.594C356.727 167.594 357.735 168.756 357.843 170.403H352.551Z" fill="black"/>
<path d="M365.244 175.831H367.008V171.201C367.008 169.311 368.088 167.958 371.346 167.958H372.12V166.346H371.598C368.7 166.346 367.458 168.028 367.008 169.311V166.536H365.244V175.831Z" fill="black"/>
<path d="M375.706 175.831H385.21V174.547H381.34V166.536H376.264V167.82H379.576V174.547H375.706V175.831ZM379.108 164.802H381.34V162.652H379.108V164.802Z" fill="black"/>
<path d="M391.387 165.236V166.536H387.769V167.82H391.387V175.831H393.151V167.82H397.435V166.536H393.151V165.236C393.151 164.213 393.673 163.935 394.555 163.935H397.435V162.652H394.375C392.683 162.652 391.387 163.45 391.387 165.236Z" fill="black"/>
<path d="M403.991 179.229H405.827L410.039 166.536H408.203L405.521 174.617L402.407 166.536H400.589L403.775 174.808H405.467L403.991 179.229Z" fill="black"/>
<path d="M429.198 179.229H431.034L435.246 166.536H433.41L430.728 174.617L427.614 166.536H425.796L428.982 174.808H430.674L429.198 179.229Z" fill="black"/>
<path d="M443.169 176.021C445.977 176.021 447.723 174.062 447.723 171.184C447.723 168.305 445.977 166.346 443.169 166.346C440.361 166.346 438.597 168.305 438.597 171.184C438.597 174.062 440.361 176.021 443.169 176.021ZM440.397 171.184C440.397 169.016 441.387 167.594 443.169 167.594C444.951 167.594 445.923 169.016 445.923 171.184C445.923 173.351 444.951 174.773 443.169 174.773C441.387 174.773 440.397 173.351 440.397 171.184Z" fill="black"/>
<path d="M454.981 176.021C456.529 176.021 457.465 175.05 457.861 173.975V175.831H459.625V166.536H457.861V172.033C457.861 173.923 457.051 174.773 455.701 174.773C454.351 174.773 453.523 173.941 453.523 172.068V166.536H451.759V172.328C451.759 174.409 452.857 176.021 454.981 176.021Z" fill="black"/>
<path d="M466.072 175.831H467.836V171.201C467.836 169.311 468.916 167.958 472.174 167.958H472.948V166.346H472.426C469.528 166.346 468.286 168.028 467.836 169.311V166.536H466.072V175.831Z" fill="black"/>
<path d="M356.8 196.783H366.304V195.5H362.434V187.489H357.358V188.772H360.67V195.5H356.8V196.783ZM360.202 185.755H362.434V183.605H360.202V185.755Z" fill="black"/>
<path d="M372.86 196.974C374.228 196.974 375.56 196.089 376.136 194.771V196.783H377.9V183.605H376.136V189.743C375.704 188.477 374.552 187.298 372.86 187.298C370.61 187.298 368.882 189.275 368.882 192.136C368.882 194.997 370.592 196.974 372.86 196.974ZM370.682 192.136C370.682 189.968 371.654 188.546 373.436 188.546C375.218 188.546 376.208 189.968 376.208 192.136C376.208 194.303 375.218 195.725 373.436 195.725C371.654 195.725 370.682 194.303 370.682 192.136Z" fill="black"/>
<path d="M386.723 196.974C388.847 196.974 390.395 196.037 390.935 194.06H389.135C388.793 195.101 388.073 195.725 386.723 195.725C385.175 195.725 384.185 194.65 384.041 192.639H391.115C391.133 192.413 391.151 192.17 391.151 191.997C391.151 189.136 389.333 187.298 386.705 187.298C383.915 187.298 382.259 189.309 382.259 192.136C382.259 194.927 383.879 196.974 386.723 196.974ZM384.059 191.355C384.275 189.5 385.229 188.546 386.705 188.546C388.235 188.546 389.243 189.708 389.351 191.355H384.059Z" fill="black"/>
<path d="M395.169 196.783H396.933V191.286C396.933 189.379 397.797 188.546 399.147 188.546C400.497 188.546 401.361 189.361 401.361 191.251V196.783H403.125V190.991C403.125 188.911 401.991 187.298 399.867 187.298C398.301 187.298 397.365 188.252 396.933 189.361V187.489H395.169V196.783Z" fill="black"/>
<path d="M412.992 196.783H416.052V195.5H413.172C412.2 195.5 411.768 195.136 411.768 194.234V194.199V188.772H416.052V187.489H411.768V185.287H410.004V187.489H406.386V188.772H410.004V194.199V194.234C410.004 195.933 411.192 196.783 412.992 196.783Z" fill="black"/>
<path d="M419.818 196.783H429.322V195.5H425.452V187.489H420.376V188.772H423.688V195.5H419.818V196.783ZM423.22 185.755H425.452V183.605H423.22V185.755Z" fill="black"/>
<path d="M438.199 196.783H441.259V195.5H438.379C437.407 195.5 436.975 195.136 436.975 194.234V194.199V188.772H441.259V187.489H436.975V185.287H435.211V187.489H431.593V188.772H435.211V194.199V194.234C435.211 195.933 436.399 196.783 438.199 196.783Z" fill="black"/>
<path d="M448.103 200.181H449.939L454.151 187.489H452.315L449.633 195.569L446.519 187.489H444.701L447.887 195.76H449.579L448.103 200.181Z" fill="black"/>
<rect x="335.899" y="370.641" width="137.25" height="39.0145" rx="19.5072" fill="#FED28D"/>
<rect opacity="0.6" x="368.524" y="387.258" width="72" height="5.77992" rx="2.20588" fill="#FDAB2B"/>
<path opacity="0.2" d="M349.938 325.457C382.456 343.426 476.998 345.923 476.46 301.771C475.919 257.367 420.111 249.07 347.971 283.742C329.739 292.504 324.477 311.388 349.938 325.457Z" fill="#A7ABFE"/>
<rect width="54.3556" height="31.6812" rx="2.2664" transform="matrix(0.990959 -0.134162 0.144364 0.989525 348.411 261.938)" fill="#A7ABFE" stroke="black" stroke-width="0.75"/>
<rect width="54.3556" height="31.6812" rx="2.2664" transform="matrix(0.990959 -0.134162 0.144364 0.989525 349.042 266.262)" fill="white" stroke="black" stroke-width="0.75"/>
<path d="M381.961 273.93L398.971 271.627" stroke="black" stroke-width="0.75" stroke-linecap="round"/>
<path d="M382.593 278.254L393.932 276.719" stroke="black" stroke-width="0.75" stroke-linecap="round"/>
<path d="M383.222 282.578L397.397 280.659" stroke="black" stroke-width="0.75" stroke-linecap="round"/>
<path d="M357.088 273.77L360.245 284.373L368.501 282.093L369.29 284.744L377.545 282.463L374.389 271.86L366.133 274.14L365.344 271.489L357.088 273.77Z" fill="#A7ABFE"/>
<path d="M361.808 289.583L357.074 273.677M357.074 273.677L365.33 271.397L366.119 274.048L374.374 271.767L377.531 282.371L373.403 283.511L369.275 284.652L368.486 282.001L360.918 284.091M357.074 273.677C357.834 273.467 358.273 272.704 358.055 271.972C357.837 271.24 357.045 270.816 356.285 271.026C355.525 271.236 355.085 272 355.303 272.732C355.521 273.464 356.314 273.887 357.074 273.677Z" stroke="black" stroke-width="0.75" stroke-linecap="round" stroke-linejoin="round"/>
<rect width="52.4378" height="36.2371" rx="2.2664" transform="matrix(-0.144364 0.989525 -0.990959 -0.134162 460.972 254.652)" fill="#A7ABFE" stroke="black" stroke-width="0.75"/>
<rect width="36.2371" height="52.4378" rx="2.2664" transform="matrix(0.990959 0.134162 -0.144364 0.989525 420.575 249.184)" fill="white" stroke="black" stroke-width="0.75"/>
<path d="M423.837 289.57L441.792 292.001" stroke="black" stroke-width="0.75" stroke-linecap="round"/>
<path d="M425.413 294.453L438.879 296.276" stroke="black" stroke-width="0.75" stroke-linecap="round"/>
<ellipse cx="9.59216" cy="9.25373" rx="9.59216" ry="9.25373" transform="matrix(0.990959 0.134162 -0.144364 0.989525 428.29 259.051)" fill="#A7ABFE"/>
<path d="M445.965 270.781C445.227 275.839 440.373 279.362 435.124 278.651M445.965 270.781C446.703 265.724 443.045 261.048 437.795 260.338M445.965 270.781L426.954 268.208M435.124 278.651C429.874 277.941 426.216 273.265 426.954 268.208M435.124 278.651C437.867 276.466 439.693 273.395 440.262 270.009C440.684 266.604 439.807 263.167 437.795 260.338M435.124 278.651C433.112 275.822 432.235 272.385 432.657 268.98C433.226 265.594 435.052 262.523 437.795 260.338M426.954 268.208C427.692 263.15 432.546 259.627 437.795 260.338" stroke="black" stroke-width="0.75" stroke-linecap="round" stroke-linejoin="round"/>
<rect x="377.875" y="292.852" width="54.3935" height="31.6574" rx="2.2664" fill="#A7ABFE" stroke="black" stroke-width="0.75"/>
<rect x="377.875" y="288.488" width="54.3935" height="31.6574" rx="2.2664" fill="white" stroke="black" stroke-width="0.75"/>
<path d="M407.338 300.496H425.47" stroke="black" stroke-width="0.75" stroke-linecap="round"/>
<path d="M407.338 304.859H420.937" stroke="black" stroke-width="0.75" stroke-linecap="round"/>
<path d="M407.338 309.23H425.47" stroke="black" stroke-width="0.75" stroke-linecap="round"/>
<g clip-path="url(#clip2_1265_191908)">
<path d="M384.233 311.765C383.091 312.85 383.091 315.434 384.43 315.434H399.633C400.527 315.434 400.497 313.474 400.08 312.85C399.662 312.226 396.451 311.703 395.094 311.53C394.282 312.226 393.22 312.621 392.112 312.637C391.147 312.651 388.982 312.271 388.982 311.106C387.393 311.106 385.709 311.135 384.233 311.765Z" fill="#A7ABFE"/>
<path d="M394.588 298.534C395.338 298.646 397.251 299.97 397.738 300.907C397.64 298.791 397.174 297.006 394.774 296.328C390.931 291.539 384.124 296.691 386.04 304.34C386.555 299.033 388.499 299.502 390.444 299.97C392.389 300.438 393.792 299.273 394.588 298.534Z" fill="#A7ABFE"/>
<path d="M383.549 312.061C385.338 311.559 387.099 311.109 388.982 311.109V311.682C390.736 313.098 393.355 313.174 395.093 311.682V311.109C396.977 311.109 398.737 311.559 400.526 312.061M398.086 305.56C398.965 305.355 399.35 303.72 398.223 303.72M398.086 305.56L398.223 303.72M398.086 305.56C398.147 308.605 395.065 311.214 391.902 311.214C388.823 311.214 385.93 308.491 385.989 305.56M398.223 303.72C397.594 301.54 397.267 298.891 394.491 298.486C393.847 299.504 392.875 300.414 391.416 299.973C388.833 299.19 386.91 299.521 386.068 304.188C385.474 300.954 385.741 298.607 386.997 296.921C388.883 294.392 393.3 293.444 394.491 296.226C397.765 297.276 398.223 300.843 398.223 303.72ZM385.989 305.56C385.989 305.56 386.316 302.694 385.345 303.845C384.812 304.477 385.219 305.375 385.989 305.56ZM390.53 307.896C391.488 308.171 392.514 308.171 393.472 307.896" stroke="black" stroke-width="0.75" stroke-linecap="round" stroke-linejoin="round"/>
</g>
<path d="M308.375 153.02C308.375 137.899 308.375 130.338 311.318 124.563C313.906 119.482 318.037 115.352 323.117 112.763C328.893 109.82 336.454 109.82 351.575 109.82H457.175C472.296 109.82 479.857 109.82 485.633 112.763C490.713 115.352 494.844 119.482 497.432 124.563C500.375 130.338 500.375 137.899 500.375 153.02V413.416C500.375 428.537 500.375 436.098 497.432 441.873C494.844 446.954 490.713 451.084 485.633 453.673C479.857 456.616 472.296 456.616 457.175 456.616H351.575C336.454 456.616 328.893 456.616 323.117 453.673C318.037 451.084 313.906 446.954 311.318 441.873C308.375 436.098 308.375 428.537 308.375 413.416V153.02Z" stroke="#7379FD" stroke-width="0.75"/>
<path d="M527.375 81.493C527.375 66.3716 527.375 58.8108 530.318 53.0352C532.906 47.9548 537.037 43.8244 542.117 41.2358C547.893 38.293 555.454 38.293 570.575 38.293H675.425C690.546 38.293 698.107 38.293 703.883 41.2358C708.963 43.8244 713.094 47.9548 715.682 53.0352C718.625 58.8108 718.625 66.3716 718.625 81.493V341.888C718.625 357.01 718.625 364.57 715.682 370.346C713.094 375.426 708.963 379.557 703.883 382.146C698.107 385.088 690.546 385.088 675.425 385.088H570.575C555.454 385.088 547.893 385.088 542.117 382.146C537.037 379.557 532.906 375.426 530.318 370.346C527.375 364.57 527.375 357.01 527.375 341.888V81.493Z" fill="white"/>
<path d="M559.094 104.303H562.802L566.618 91.125H564.62L560.948 104.234L557.276 91.125H555.278L559.094 104.303Z" fill="black"/>
<path d="M573.84 104.494C575.964 104.494 577.512 103.558 578.052 101.581H576.252C575.91 102.621 575.19 103.245 573.84 103.245C572.292 103.245 571.302 102.17 571.158 100.159H578.232C578.25 99.9336 578.268 99.6908 578.268 99.5174C578.268 96.6564 576.45 94.8184 573.822 94.8184C571.032 94.8184 569.376 96.8298 569.376 99.6562C569.376 102.448 570.996 104.494 573.84 104.494ZM571.176 98.8759C571.392 97.0205 572.346 96.0668 573.822 96.0668C575.352 96.0668 576.36 97.2286 576.468 98.8759H571.176Z" fill="black"/>
<path d="M583.869 104.303H585.633V99.6735C585.633 97.7835 586.713 96.431 589.971 96.431H590.745V94.8184H590.223C587.325 94.8184 586.083 96.5003 585.633 97.7835V95.0091H583.869V104.303Z" fill="black"/>
<path d="M594.331 104.303H603.835V103.02H599.965V95.0091H594.889V96.2923H598.201V103.02H594.331V104.303ZM597.733 93.2751H599.965V91.125H597.733V93.2751Z" fill="black"/>
<path d="M610.012 93.7086V95.0091H606.394V96.2923H610.012V104.303H611.776V96.2923H616.06V95.0091H611.776V93.7086C611.776 92.6856 612.298 92.4081 613.18 92.4081H616.06V91.125H613C611.308 91.125 610.012 91.9226 610.012 93.7086Z" fill="black"/>
<path d="M622.616 107.702H624.452L628.664 95.0091H626.828L624.146 103.089L621.032 95.0091H619.214L622.4 103.28H624.092L622.616 107.702Z" fill="black"/>
<path d="M647.823 107.702H649.659L653.871 95.0091H652.035L649.353 103.089L646.239 95.0091H644.421L647.607 103.28H649.299L647.823 107.702Z" fill="black"/>
<path d="M661.794 104.494C664.602 104.494 666.348 102.535 666.348 99.6562C666.348 96.7778 664.602 94.8184 661.794 94.8184C658.986 94.8184 657.222 96.7778 657.222 99.6562C657.222 102.535 658.986 104.494 661.794 104.494ZM659.022 99.6562C659.022 97.4887 660.012 96.0668 661.794 96.0668C663.576 96.0668 664.548 97.4887 664.548 99.6562C664.548 101.824 663.576 103.245 661.794 103.245C660.012 103.245 659.022 101.824 659.022 99.6562Z" fill="black"/>
<path d="M673.606 104.494C675.154 104.494 676.09 103.523 676.486 102.448V104.303H678.25V95.0091H676.486V100.506C676.486 102.396 675.676 103.245 674.326 103.245C672.976 103.245 672.148 102.413 672.148 100.54V95.0091H670.384V100.801C670.384 102.881 671.482 104.494 673.606 104.494Z" fill="black"/>
<path d="M684.697 104.303H686.461V99.6735C686.461 97.7835 687.541 96.431 690.799 96.431H691.573V94.8184H691.051C688.153 94.8184 686.911 96.5003 686.461 97.7835V95.0091H684.697V104.303Z" fill="black"/>
<path d="M575.425 125.255H584.929V123.972H581.059V115.961H575.983V117.244H579.295V123.972H575.425V125.255ZM578.827 114.227H581.059V112.077H578.827V114.227Z" fill="black"/>
<path d="M591.485 125.446C592.853 125.446 594.185 124.562 594.761 123.244V125.255H596.525V112.077H594.761V118.216C594.329 116.95 593.177 115.771 591.485 115.771C589.235 115.771 587.507 117.747 587.507 120.608C587.507 123.469 589.217 125.446 591.485 125.446ZM589.307 120.608C589.307 118.441 590.279 117.019 592.061 117.019C593.843 117.019 594.833 118.441 594.833 120.608C594.833 122.776 593.843 124.198 592.061 124.198C590.279 124.198 589.307 122.776 589.307 120.608Z" fill="black"/>
<path d="M605.348 125.446C607.472 125.446 609.02 124.51 609.56 122.533H607.76C607.418 123.573 606.698 124.198 605.348 124.198C603.8 124.198 602.81 123.123 602.666 121.111H609.74C609.758 120.886 609.776 120.643 609.776 120.47C609.776 117.609 607.958 115.771 605.33 115.771C602.54 115.771 600.884 117.782 600.884 120.608C600.884 123.4 602.504 125.446 605.348 125.446ZM602.684 119.828C602.9 117.973 603.854 117.019 605.33 117.019C606.86 117.019 607.868 118.181 607.976 119.828H602.684Z" fill="black"/>
<path d="M613.794 125.255H615.558V119.759C615.558 117.851 616.422 117.019 617.772 117.019C619.122 117.019 619.986 117.834 619.986 119.724V125.255H621.75V119.464C621.75 117.383 620.616 115.771 618.492 115.771C616.926 115.771 615.99 116.724 615.558 117.834V115.961H613.794V125.255Z" fill="black"/>
<path d="M631.617 125.255H634.677V123.972H631.797C630.825 123.972 630.393 123.608 630.393 122.707V122.672V117.244H634.677V115.961H630.393V113.759H628.629V115.961H625.011V117.244H628.629V122.672V122.707C628.629 124.406 629.817 125.255 631.617 125.255Z" fill="black"/>
<path d="M638.443 125.255H647.947V123.972H644.077V115.961H639.001V117.244H642.313V123.972H638.443V125.255ZM641.845 114.227H644.077V112.077H641.845V114.227Z" fill="black"/>
<path d="M656.824 125.255H659.884V123.972H657.004C656.032 123.972 655.6 123.608 655.6 122.707V122.672V117.244H659.884V115.961H655.6V113.759H653.836V115.961H650.218V117.244H653.836V122.672V122.707C653.836 124.406 655.024 125.255 656.824 125.255Z" fill="black"/>
<path d="M666.728 128.654H668.564L672.776 115.961H670.94L668.258 124.042L665.144 115.961H663.326L666.512 124.232H668.204L666.728 128.654Z" fill="black"/>
<rect x="554.524" y="299.113" width="137.25" height="39.0145" rx="19.5072" fill="#A7ABFE"/>
<rect opacity="0.6" x="587.149" y="315.73" width="72" height="5.77992" rx="2.20588" fill="#7379FD"/>
<path opacity="0.2" d="M568.563 253.93C601.081 271.899 695.623 274.395 695.085 230.244C694.544 185.84 638.736 177.543 566.596 212.214C548.364 220.977 543.102 239.86 568.563 253.93Z" fill="#A7ABFE"/>
<rect width="54.3556" height="31.6812" rx="2.2664" transform="matrix(0.990959 -0.134162 0.144364 0.989525 567.036 190.41)" fill="#A7ABFE" stroke="black" stroke-width="0.75"/>
<rect width="54.3556" height="31.6812" rx="2.2664" transform="matrix(0.990959 -0.134162 0.144364 0.989525 567.667 194.734)" fill="white" stroke="black" stroke-width="0.75"/>
<path d="M600.586 202.402L617.596 200.099" stroke="black" stroke-width="0.75" stroke-linecap="round"/>
<path d="M601.218 206.727L612.557 205.191" stroke="black" stroke-width="0.75" stroke-linecap="round"/>
<path d="M601.847 211.051L616.022 209.132" stroke="black" stroke-width="0.75" stroke-linecap="round"/>
<path d="M575.713 202.242L578.87 212.846L587.126 210.566L587.915 213.217L596.17 210.936L593.014 200.332L584.758 202.613L583.969 199.962L575.713 202.242Z" fill="#A7ABFE"/>
<path d="M580.433 218.056L575.699 202.15M575.699 202.15L583.955 199.869L584.744 202.52L592.999 200.24L596.156 210.844L592.028 211.984L587.9 213.124L587.111 210.473L579.543 212.564M575.699 202.15C576.459 201.94 576.898 201.176 576.68 200.444C576.462 199.712 575.67 199.289 574.91 199.499C574.15 199.709 573.71 200.472 573.928 201.204C574.146 201.936 574.939 202.36 575.699 202.15Z" stroke="black" stroke-width="0.75" stroke-linecap="round" stroke-linejoin="round"/>
<rect width="52.4378" height="36.2371" rx="2.2664" transform="matrix(-0.144364 0.989525 -0.990959 -0.134162 679.597 183.125)" fill="#A7ABFE" stroke="black" stroke-width="0.75"/>
<rect width="36.2371" height="52.4378" rx="2.2664" transform="matrix(0.990959 0.134162 -0.144364 0.989525 639.2 177.656)" fill="white" stroke="black" stroke-width="0.75"/>
<path d="M642.462 218.043L660.417 220.474" stroke="black" stroke-width="0.75" stroke-linecap="round"/>
<path d="M644.038 222.926L657.504 224.749" stroke="black" stroke-width="0.75" stroke-linecap="round"/>
<ellipse cx="9.59216" cy="9.25373" rx="9.59216" ry="9.25373" transform="matrix(0.990959 0.134162 -0.144364 0.989525 646.915 187.523)" fill="#A7ABFE"/>
<path d="M664.59 199.254C663.852 204.311 658.998 207.835 653.749 207.124M664.59 199.254C665.328 194.197 661.67 189.521 656.42 188.81M664.59 199.254L645.579 196.68M653.749 207.124C648.499 206.413 644.841 201.737 645.579 196.68M653.749 207.124C656.492 204.938 658.318 201.867 658.887 198.482C659.309 195.077 658.432 191.64 656.42 188.81M653.749 207.124C651.737 204.295 650.86 200.858 651.282 197.452C651.851 194.067 653.677 190.996 656.42 188.81M645.579 196.68C646.317 191.623 651.171 188.1 656.42 188.81" stroke="black" stroke-width="0.75" stroke-linecap="round" stroke-linejoin="round"/>
<rect x="596.5" y="221.324" width="54.3935" height="31.6574" rx="2.2664" fill="#A7ABFE" stroke="black" stroke-width="0.75"/>
<rect x="596.5" y="216.961" width="54.3935" height="31.6574" rx="2.2664" fill="white" stroke="black" stroke-width="0.75"/>
<path d="M625.963 228.969H644.095" stroke="black" stroke-width="0.75" stroke-linecap="round"/>
<path d="M625.963 233.332H639.562" stroke="black" stroke-width="0.75" stroke-linecap="round"/>
<path d="M625.963 237.703H644.095" stroke="black" stroke-width="0.75" stroke-linecap="round"/>
<g clip-path="url(#clip3_1265_191908)">
<path d="M602.858 240.238C601.716 241.322 601.716 243.907 603.055 243.907H618.258C619.152 243.907 619.122 241.946 618.705 241.322C618.287 240.698 615.076 240.175 613.719 240.002C612.907 240.699 611.845 241.093 610.737 241.11C609.772 241.124 607.607 240.744 607.607 239.579C606.018 239.579 604.334 239.608 602.858 240.238Z" fill="#A7ABFE"/>
<path d="M613.213 227.006C613.963 227.119 615.876 228.443 616.363 229.38C616.265 227.263 615.799 225.478 613.399 224.801C609.556 220.012 602.749 225.164 604.665 232.813C605.18 227.506 607.124 227.974 609.069 228.443C611.014 228.911 612.417 227.745 613.213 227.006Z" fill="#A7ABFE"/>
<path d="M602.174 240.533C603.963 240.032 605.724 239.582 607.607 239.582V240.155C609.361 241.571 611.98 241.647 613.718 240.155V239.582C615.602 239.582 617.362 240.032 619.151 240.533M616.711 234.033C617.59 233.828 617.975 232.192 616.848 232.192M616.711 234.033L616.848 232.192M616.711 234.033C616.772 237.078 613.69 239.687 610.527 239.687C607.448 239.687 604.555 236.964 604.614 234.033M616.848 232.192C616.219 230.012 615.892 227.364 613.116 226.958C612.472 227.977 611.5 228.887 610.041 228.445C607.458 227.663 605.535 227.994 604.693 232.661C604.099 229.427 604.366 227.08 605.622 225.394C607.508 222.865 611.925 221.917 613.116 224.698C616.39 225.749 616.848 229.315 616.848 232.192ZM604.614 234.033C604.614 234.033 604.941 231.166 603.97 232.317C603.437 232.95 603.844 233.848 604.614 234.033ZM609.155 236.368C610.113 236.643 611.139 236.643 612.097 236.368" stroke="black" stroke-width="0.75" stroke-linecap="round" stroke-linejoin="round"/>
</g>
<path d="M527.375 81.493C527.375 66.3716 527.375 58.8108 530.318 53.0352C532.906 47.9548 537.037 43.8244 542.117 41.2358C547.893 38.293 555.454 38.293 570.575 38.293H675.425C690.546 38.293 698.107 38.293 703.883 41.2358C708.963 43.8244 713.094 47.9548 715.682 53.0352C718.625 58.8108 718.625 66.3716 718.625 81.493V341.888C718.625 357.01 718.625 364.57 715.682 370.346C713.094 375.426 708.963 379.557 703.883 382.146C698.107 385.088 690.546 385.088 675.425 385.088H570.575C555.454 385.088 547.893 385.088 542.117 382.146C537.037 379.557 532.906 375.426 530.318 370.346C527.375 364.57 527.375 357.01 527.375 341.888V81.493Z" stroke="#7379FD" stroke-width="0.75"/>
<path d="M67.75 96.1845C67.75 81.063 67.75 73.5022 70.6928 67.7266C73.2814 62.6463 77.4119 58.5158 82.4923 55.9272C88.2679 52.9844 95.8286 52.9844 110.95 52.9844H215.8C230.921 52.9844 238.482 52.9844 244.258 55.9272C249.338 58.5158 253.469 62.6463 256.057 67.7266C259 73.5022 259 81.063 259 96.1844V356.58C259 371.701 259 379.262 256.057 385.037C253.469 390.118 249.338 394.248 244.258 396.837C238.482 399.78 230.921 399.78 215.8 399.78H110.95C95.8286 399.78 88.2679 399.78 82.4923 396.837C77.4119 394.248 73.2814 390.118 70.6928 385.037C67.75 379.262 67.75 371.701 67.75 356.58V96.1845Z" fill="white"/>
<path d="M99.4691 118.995H103.177L106.993 105.816H104.995L101.323 118.925L97.6511 105.816H95.6531L99.4691 118.995Z" fill="black"/>
<path d="M114.215 119.185C116.339 119.185 117.887 118.249 118.427 116.272H116.627C116.285 117.313 115.565 117.937 114.215 117.937C112.667 117.937 111.677 116.862 111.533 114.85H118.607C118.625 114.625 118.643 114.382 118.643 114.209C118.643 111.348 116.825 109.51 114.197 109.51C111.407 109.51 109.751 111.521 109.751 114.348C109.751 117.139 111.371 119.185 114.215 119.185ZM111.551 113.567C111.767 111.712 112.721 110.758 114.197 110.758C115.727 110.758 116.735 111.92 116.843 113.567H111.551Z" fill="black"/>
<path d="M124.244 118.995H126.008V114.365C126.008 112.475 127.088 111.122 130.346 111.122H131.12V109.51H130.598C127.7 109.51 126.458 111.192 126.008 112.475V109.701H124.244V118.995Z" fill="black"/>
<path d="M134.706 118.995H144.21V117.711H140.34V109.701H135.264V110.984H138.576V117.711H134.706V118.995ZM138.108 107.967H140.34V105.816H138.108V107.967Z" fill="black"/>
<path d="M150.387 108.4V109.701H146.769V110.984H150.387V118.995H152.151V110.984H156.435V109.701H152.151V108.4C152.151 107.377 152.673 107.1 153.555 107.1H156.435V105.816H153.375C151.683 105.816 150.387 106.614 150.387 108.4Z" fill="black"/>
<path d="M162.991 122.393H164.827L169.039 109.701H167.203L164.521 117.781L161.407 109.701H159.589L162.775 117.972H164.467L162.991 122.393Z" fill="black"/>
<path d="M188.198 122.393H190.034L194.246 109.701H192.41L189.728 117.781L186.614 109.701H184.796L187.982 117.972H189.674L188.198 122.393Z" fill="black"/>
<path d="M202.169 119.185C204.977 119.185 206.723 117.226 206.723 114.348C206.723 111.469 204.977 109.51 202.169 109.51C199.361 109.51 197.597 111.469 197.597 114.348C197.597 117.226 199.361 119.185 202.169 119.185ZM199.397 114.348C199.397 112.18 200.387 110.758 202.169 110.758C203.951 110.758 204.923 112.18 204.923 114.348C204.923 116.515 203.951 117.937 202.169 117.937C200.387 117.937 199.397 116.515 199.397 114.348Z" fill="black"/>
<path d="M213.981 119.185C215.529 119.185 216.465 118.214 216.861 117.139V118.995H218.625V109.701H216.861V115.197C216.861 117.087 216.051 117.937 214.701 117.937C213.351 117.937 212.523 117.105 212.523 115.232V109.701H210.759V115.492C210.759 117.573 211.857 119.185 213.981 119.185Z" fill="black"/>
<path d="M225.072 118.995H226.836V114.365C226.836 112.475 227.916 111.122 231.174 111.122H231.948V109.51H231.426C228.528 109.51 227.286 111.192 226.836 112.475V109.701H225.072V118.995Z" fill="black"/>
<path d="M115.8 139.947H125.304V138.664H121.434V130.653H116.358V131.936H119.67V138.664H115.8V139.947ZM119.202 128.919H121.434V126.769H119.202V128.919Z" fill="black"/>
<path d="M131.86 140.138C133.228 140.138 134.56 139.253 135.136 137.935V139.947H136.9V126.769H135.136V132.907C134.704 131.641 133.552 130.462 131.86 130.462C129.61 130.462 127.882 132.439 127.882 135.3C127.882 138.161 129.592 140.138 131.86 140.138ZM129.682 135.3C129.682 133.132 130.654 131.71 132.436 131.71C134.218 131.71 135.208 133.132 135.208 135.3C135.208 137.467 134.218 138.889 132.436 138.889C130.654 138.889 129.682 137.467 129.682 135.3Z" fill="black"/>
<path d="M145.723 140.138C147.847 140.138 149.395 139.201 149.935 137.225H148.135C147.793 138.265 147.073 138.889 145.723 138.889C144.175 138.889 143.185 137.814 143.041 135.803H150.115C150.133 135.577 150.151 135.334 150.151 135.161C150.151 132.3 148.333 130.462 145.705 130.462C142.915 130.462 141.259 132.473 141.259 135.3C141.259 138.091 142.879 140.138 145.723 140.138ZM143.059 134.52C143.275 132.664 144.229 131.71 145.705 131.71C147.235 131.71 148.243 132.872 148.351 134.52H143.059Z" fill="black"/>
<path d="M154.169 139.947H155.933V134.45C155.933 132.543 156.797 131.71 158.147 131.71C159.497 131.71 160.361 132.525 160.361 134.415V139.947H162.125V134.155C162.125 132.075 160.991 130.462 158.867 130.462C157.301 130.462 156.365 131.416 155.933 132.525V130.653H154.169V139.947Z" fill="black"/>
<path d="M171.992 139.947H175.052V138.664H172.172C171.2 138.664 170.768 138.3 170.768 137.398V137.363V131.936H175.052V130.653H170.768V128.451H169.004V130.653H165.386V131.936H169.004V137.363V137.398C169.004 139.097 170.192 139.947 171.992 139.947Z" fill="black"/>
<path d="M178.818 139.947H188.322V138.664H184.452V130.653H179.376V131.936H182.688V138.664H178.818V139.947ZM182.22 128.919H184.452V126.769H182.22V128.919Z" fill="black"/>
<path d="M197.199 139.947H200.259V138.664H197.379C196.407 138.664 195.975 138.3 195.975 137.398V137.363V131.936H200.259V130.653H195.975V128.451H194.211V130.653H190.593V131.936H194.211V137.363V137.398C194.211 139.097 195.399 139.947 197.199 139.947Z" fill="black"/>
<path d="M207.103 143.345H208.939L213.151 130.653H211.315L208.633 138.733L205.519 130.653H203.701L206.887 138.924H208.579L207.103 143.345Z" fill="black"/>
<rect x="94.8994" y="313.805" width="137.25" height="39.0145" rx="19.5072" fill="#8CE5C4"/>
<rect opacity="0.6" x="127.524" y="330.422" width="72" height="5.77992" rx="2.20588" fill="#2BBC86"/>
<path opacity="0.2" d="M108.938 268.622C141.456 286.59 235.998 289.087 235.46 244.935C234.919 200.531 179.111 192.234 106.971 226.906C88.7388 235.668 83.4768 254.552 108.938 268.622Z" fill="#A7ABFE"/>
<rect width="54.3556" height="31.6812" rx="2.2664" transform="matrix(0.990959 -0.134162 0.144364 0.989525 107.411 205.102)" fill="#A7ABFE" stroke="black" stroke-width="0.75"/>
<rect width="54.3556" height="31.6812" rx="2.2664" transform="matrix(0.990959 -0.134162 0.144364 0.989525 108.042 209.426)" fill="white" stroke="black" stroke-width="0.75"/>
<path d="M140.961 217.094L157.971 214.791" stroke="black" stroke-width="0.75" stroke-linecap="round"/>
<path d="M141.593 221.418L152.932 219.883" stroke="black" stroke-width="0.75" stroke-linecap="round"/>
<path d="M142.222 225.742L156.397 223.823" stroke="black" stroke-width="0.75" stroke-linecap="round"/>
<path d="M116.088 216.934L119.245 227.538L127.501 225.257L128.29 227.908L136.545 225.628L133.389 215.024L125.133 217.304L124.344 214.653L116.088 216.934Z" fill="#A7ABFE"/>
<path d="M120.808 232.747L116.074 216.841M116.074 216.841L124.33 214.561L125.119 217.212L133.374 214.931L136.531 225.535L132.403 226.675L128.275 227.816L127.486 225.165L119.918 227.255M116.074 216.841C116.834 216.631 117.273 215.868 117.055 215.136C116.837 214.404 116.045 213.98 115.285 214.19C114.525 214.4 114.085 215.164 114.303 215.896C114.521 216.628 115.314 217.051 116.074 216.841Z" stroke="black" stroke-width="0.75" stroke-linecap="round" stroke-linejoin="round"/>
<rect width="52.4378" height="36.2371" rx="2.2664" transform="matrix(-0.144364 0.989525 -0.990959 -0.134162 219.972 197.816)" fill="#A7ABFE" stroke="black" stroke-width="0.75"/>
<rect width="36.2371" height="52.4378" rx="2.2664" transform="matrix(0.990959 0.134162 -0.144364 0.989525 179.575 192.348)" fill="white" stroke="black" stroke-width="0.75"/>
<path d="M182.837 232.734L200.792 235.165" stroke="black" stroke-width="0.75" stroke-linecap="round"/>
<path d="M184.413 237.617L197.879 239.44" stroke="black" stroke-width="0.75" stroke-linecap="round"/>
<ellipse cx="9.59216" cy="9.25373" rx="9.59216" ry="9.25373" transform="matrix(0.990959 0.134162 -0.144364 0.989525 187.29 202.215)" fill="#A7ABFE"/>
<path d="M204.965 213.945C204.227 219.003 199.373 222.526 194.124 221.815M204.965 213.945C205.703 208.888 202.045 204.212 196.795 203.502M204.965 213.945L185.954 211.372M194.124 221.815C188.874 221.105 185.216 216.429 185.954 211.372M194.124 221.815C196.867 219.63 198.693 216.559 199.262 213.173C199.684 209.768 198.807 206.331 196.795 203.502M194.124 221.815C192.112 218.986 191.235 215.549 191.657 212.144C192.226 208.758 194.052 205.687 196.795 203.502M185.954 211.372C186.692 206.314 191.546 202.791 196.795 203.502" stroke="black" stroke-width="0.75" stroke-linecap="round" stroke-linejoin="round"/>
<rect x="136.875" y="236.016" width="54.3935" height="31.6574" rx="2.2664" fill="#A7ABFE" stroke="black" stroke-width="0.75"/>
<rect x="136.875" y="231.652" width="54.3935" height="31.6574" rx="2.2664" fill="white" stroke="black" stroke-width="0.75"/>
<path d="M166.338 243.66H184.47" stroke="black" stroke-width="0.75" stroke-linecap="round"/>
<path d="M166.338 248.023H179.937" stroke="black" stroke-width="0.75" stroke-linecap="round"/>
<path d="M166.338 252.395H184.47" stroke="black" stroke-width="0.75" stroke-linecap="round"/>
<g clip-path="url(#clip4_1265_191908)">
<path d="M143.233 254.929C142.091 256.014 142.091 258.598 143.43 258.598H158.633C159.527 258.598 159.497 256.638 159.08 256.014C158.662 255.39 155.451 254.867 154.094 254.694C153.282 255.39 152.22 255.785 151.112 255.801C150.147 255.815 147.982 255.435 147.982 254.271C146.393 254.271 144.709 254.299 143.233 254.929Z" fill="#A7ABFE"/>
<path d="M153.588 241.698C154.338 241.81 156.251 243.134 156.738 244.071C156.64 241.955 156.174 240.17 153.774 239.492C149.931 234.703 143.124 239.856 145.04 247.504C145.555 242.197 147.499 242.666 149.444 243.134C151.389 243.602 152.792 242.437 153.588 241.698Z" fill="#A7ABFE"/>
<path d="M142.549 255.225C144.338 254.723 146.099 254.273 147.982 254.273V254.846C149.736 256.262 152.355 256.338 154.093 254.846V254.273C155.977 254.273 157.737 254.723 159.526 255.225M157.086 248.724C157.965 248.519 158.35 246.884 157.223 246.884M157.086 248.724L157.223 246.884M157.086 248.724C157.147 251.769 154.065 254.378 150.902 254.378C147.823 254.378 144.93 251.655 144.989 248.724M157.223 246.884C156.594 244.704 156.267 242.055 153.491 241.65C152.847 242.668 151.875 243.578 150.416 243.137C147.833 242.354 145.91 242.685 145.068 247.352C144.474 244.118 144.741 241.771 145.997 240.085C147.883 237.556 152.3 236.608 153.491 239.39C156.765 240.44 157.223 244.007 157.223 246.884ZM144.989 248.724C144.989 248.724 145.316 245.858 144.345 247.009C143.812 247.641 144.219 248.539 144.989 248.724ZM149.53 251.06C150.488 251.335 151.514 251.335 152.472 251.06" stroke="black" stroke-width="0.75" stroke-linecap="round" stroke-linejoin="round"/>
</g>
<path d="M67.75 96.1845C67.75 81.063 67.75 73.5022 70.6928 67.7266C73.2814 62.6463 77.4119 58.5158 82.4923 55.9272C88.2679 52.9844 95.8286 52.9844 110.95 52.9844H215.8C230.921 52.9844 238.482 52.9844 244.258 55.9272C249.338 58.5158 253.469 62.6463 256.057 67.7266C259 73.5022 259 81.063 259 96.1844V356.58C259 371.701 259 379.262 256.057 385.037C253.469 390.118 249.338 394.248 244.258 396.837C238.482 399.78 230.921 399.78 215.8 399.78H110.95C95.8286 399.78 88.2679 399.78 82.4923 396.837C77.4119 394.248 73.2814 390.118 70.6928 385.037C67.75 379.262 67.75 371.701 67.75 356.58V96.1845Z" stroke="#7379FD" stroke-width="0.75"/>
<rect x="697.625" y="120.656" width="60" height="57.7992" rx="28.8996" fill="#A7ABFE" fill-opacity="0.3"/>
<rect x="691.625" y="114.875" width="60" height="57.7992" rx="28.8996" fill="white"/>
<g clip-path="url(#clip5_1265_191908)">
<path d="M732.277 137.468C732.116 137.585 729.27 139.086 729.27 142.423C729.27 146.283 732.891 147.648 732.999 147.682C732.983 147.765 732.424 149.552 731.09 151.373C729.901 152.975 728.658 154.575 726.769 154.575C724.879 154.575 724.393 153.547 722.211 153.547C720.085 153.547 719.329 154.609 717.601 154.609C715.872 154.609 714.666 153.126 713.279 151.305C711.673 149.167 710.375 145.846 710.375 142.694C710.375 137.637 713.888 134.956 717.345 134.956C719.182 134.956 720.713 136.085 721.866 136.085C722.964 136.085 724.676 134.888 726.766 134.888C727.558 134.888 730.404 134.956 732.277 137.468ZM725.774 132.748C726.638 131.788 727.25 130.456 727.25 129.124C727.25 128.94 727.233 128.752 727.197 128.602C725.79 128.651 724.117 129.478 723.109 130.573C722.317 131.416 721.577 132.748 721.577 134.097C721.577 134.3 721.614 134.503 721.63 134.568C721.719 134.584 721.864 134.602 722.008 134.602C723.27 134.602 724.857 133.811 725.774 132.748Z" fill="#7379FD"/>
</g>
<rect x="691.625" y="114.875" width="60" height="57.7992" rx="28.8996" stroke="#A7ABFE" stroke-width="1.5"/>
<rect x="354.875" y="73.2109" width="60" height="57.7992" rx="28.8996" fill="#A7ABFE" fill-opacity="0.3"/>
<rect x="348.875" y="67.4336" width="60" height="57.7992" rx="28.8996" fill="white"/>
<g clip-path="url(#clip6_1265_191908)">
<path d="M379.25 98.9417C380.764 98.9417 381.991 97.7751 381.991 96.3361C381.991 94.897 380.764 93.7305 379.25 93.7305C377.736 93.7305 376.509 94.897 376.509 96.3361C376.509 97.7751 377.736 98.9417 379.25 98.9417Z" fill="#FDAB2B"/>
<path d="M379.249 101.673C387.372 101.673 393.956 99.2827 393.956 96.3344C393.956 93.3861 387.372 90.9961 379.249 90.9961C371.127 90.9961 364.543 93.3861 364.543 96.3344C364.543 99.2827 371.127 101.673 379.249 101.673Z" stroke="#FDAB2B" stroke-width="1.5"/>
<path d="M374.387 99.0012C378.448 105.688 383.918 109.914 386.603 108.44C389.289 106.966 388.174 100.35 384.113 93.6629C380.052 86.9757 374.583 82.7497 371.897 84.2238C369.211 85.698 370.326 92.314 374.387 99.0012Z" stroke="#FDAB2B" stroke-width="1.5"/>
<path d="M374.386 93.6644C370.325 100.352 369.21 106.968 371.896 108.442C374.582 109.916 380.051 105.69 384.112 99.0027C388.173 92.3155 389.288 85.6995 386.602 84.2254C383.917 82.7512 378.447 86.9772 374.386 93.6644Z" stroke="#FDAB2B" stroke-width="1.5"/>
</g>
<rect x="348.875" y="67.4336" width="60" height="57.7992" rx="28.8996" stroke="#A7ABFE" stroke-width="1.5"/>
<rect x="31" y="151.242" width="60" height="57.7992" rx="28.8996" fill="#A7ABFE" fill-opacity="0.3"/>
<rect x="25" y="145.461" width="60" height="57.7992" rx="28.8996" fill="white"/>
<g clip-path="url(#clip7_1265_191908)">
<path d="M62.3801 176.48C62.1192 176.48 61.8642 176.405 61.6473 176.264C61.4304 176.123 61.2614 175.923 61.1615 175.689C61.0617 175.455 61.0356 175.197 61.0865 174.949C61.1374 174.7 61.263 174.472 61.4474 174.293C61.6319 174.114 61.8669 173.992 62.1228 173.942C62.3786 173.893 62.6438 173.918 62.8848 174.015C63.1259 174.112 63.3319 174.276 63.4768 174.487C63.6217 174.698 63.6991 174.945 63.6991 175.199C63.6991 175.539 63.5601 175.865 63.3128 176.105C63.0654 176.345 62.7299 176.48 62.3801 176.48M47.7989 176.48C47.5381 176.48 47.2831 176.405 47.0661 176.264C46.8492 176.123 46.6802 175.923 46.5804 175.689C46.4805 175.455 46.4544 175.197 46.5053 174.949C46.5562 174.7 46.6818 174.472 46.8663 174.293C47.0507 174.114 47.2858 173.992 47.5416 173.942C47.7975 173.893 48.0627 173.918 48.3037 174.015C48.5447 174.112 48.7507 174.276 48.8956 174.487C49.0405 174.698 49.1179 174.945 49.1179 175.199C49.1179 175.539 48.9789 175.865 48.7316 176.105C48.4842 176.345 48.1487 176.48 47.7989 176.48M62.853 168.76L65.4896 164.328C65.5255 164.268 65.5488 164.201 65.5581 164.131C65.5673 164.062 65.5625 163.992 65.5438 163.924C65.5251 163.857 65.4928 163.793 65.4489 163.738C65.4051 163.683 65.3504 163.636 65.288 163.601C65.2256 163.566 65.1568 163.544 65.0854 163.535C65.0141 163.526 64.9416 163.53 64.8721 163.549C64.8026 163.567 64.7375 163.598 64.6804 163.641C64.6234 163.683 64.5756 163.736 64.5397 163.797V163.797L61.8703 168.289C59.7378 167.36 57.4272 166.88 55.0902 166.88C52.7532 166.88 50.4426 167.36 48.3101 168.289L45.6394 163.797C45.5669 163.674 45.4469 163.584 45.306 163.546C45.165 163.509 45.0145 163.527 44.8876 163.598C44.7607 163.668 44.6679 163.785 44.6294 163.922C44.591 164.059 44.6101 164.205 44.6826 164.328V164.328L47.3192 168.764C45.0417 169.969 43.11 171.707 41.6996 173.821C40.2891 175.935 39.4446 178.357 39.2427 180.869H70.9295C70.7275 178.357 69.8829 175.935 68.4725 173.821C67.062 171.707 65.1304 169.969 62.853 168.764" fill="#2BBC86"/>
</g>
<rect x="25" y="145.461" width="60" height="57.7992" rx="28.8996" stroke="#A7ABFE" stroke-width="1.5"/>
</g>
<defs>
<clipPath id="clip0_1265_191908">
<rect width="780" height="499" fill="white"/>
</clipPath>
<clipPath id="clip1_1265_191908">
<rect width="658" height="507.67" fill="white" transform="translate(279 -120.414)"/>
</clipPath>
<clipPath id="clip2_1265_191908">
<rect width="17.885" height="21.5363" fill="white" transform="translate(383.089 293.898)"/>
</clipPath>
<clipPath id="clip3_1265_191908">
<rect width="17.885" height="21.5363" fill="white" transform="translate(601.714 222.371)"/>
</clipPath>
<clipPath id="clip4_1265_191908">
<rect width="17.885" height="21.5363" fill="white" transform="translate(142.089 237.062)"/>
</clipPath>
<clipPath id="clip5_1265_191908">
<rect width="22.6216" height="26.0097" fill="white" transform="translate(710.375 128.602)"/>
</clipPath>
<clipPath id="clip6_1265_191908">
<rect width="30.75" height="26.0097" fill="white" transform="translate(363.875 83.3281)"/>
</clipPath>
<clipPath id="clip7_1265_191908">
<rect width="31.68" height="17.3398" fill="white" transform="translate(39.25 163.523)"/>
</clipPath>
</defs>
</svg>
