<svg width="152" height="64" viewBox="0 0 152 64" fill="none" xmlns="http://www.w3.org/2000/svg">
<path fill-rule="evenodd" clip-rule="evenodd" d="M0 45.5088H16.5879V40.063H6.00296V19.2856H0V45.5088Z" fill="white"/>
<path fill-rule="evenodd" clip-rule="evenodd" d="M24.9859 45.5088V27.4471H18.9824V45.5088H24.9859ZM21.9841 24.981C24.0777 24.981 25.3808 23.594 25.3808 21.8596C25.3417 20.0878 24.0777 18.7399 22.0241 18.7399C19.9702 18.7399 18.6274 20.0878 18.6274 21.8596C18.6274 23.594 19.9302 24.981 21.945 24.981H21.9841Z" fill="white"/>
<path fill-rule="evenodd" clip-rule="evenodd" d="M27.7734 45.5088H33.777V35.4221C33.777 34.8822 33.816 34.343 33.9748 33.9571C34.4085 32.879 35.3963 31.7619 37.0549 31.7619C39.2275 31.7619 40.0965 33.4188 40.0965 35.8454V45.5088H46.0995V35.1522C46.0995 29.6042 43.1374 27.0227 39.1875 27.0227C35.9491 27.0227 34.527 28.833 33.737 30.066H33.7771V27.4471H27.7735C27.8524 29.1419 27.7734 45.5088 27.7734 45.5088Z" fill="white"/>
<path fill-rule="evenodd" clip-rule="evenodd" d="M54.5687 19.2856H48.5649V45.5088H54.5687V39.653L56.0691 37.7642L60.7693 45.5088H68.1547L60.256 34.297L67.1676 26.6689H59.9401C59.9401 26.6689 55.0032 33.4937 54.5687 34.3029V19.2856Z" fill="white"/>
<path fill-rule="evenodd" clip-rule="evenodd" d="M84.2096 37.9747C84.2885 37.5108 84.4072 36.6208 84.4072 35.615C84.4072 30.9457 82.037 26.206 75.7971 26.206C69.122 26.206 66.0415 31.485 66.0415 36.2729C66.0415 42.1949 69.7936 45.8936 76.3498 45.8936C78.9567 45.8936 81.3655 45.5087 83.3406 44.6995L82.5504 40.7347C80.9313 41.2719 79.2725 41.5402 77.2189 41.5402C74.4147 41.5402 71.9662 40.3895 71.7684 37.9362L84.2096 37.9736V37.9747ZM71.7292 33.9132C71.8871 32.3717 72.9141 30.098 75.4813 30.098C78.2059 30.098 78.8382 32.5262 78.8382 33.9132H71.7292Z" fill="white"/>
<path fill-rule="evenodd" clip-rule="evenodd" d="M99.2263 19.2836V28.3612H99.1475C98.2784 27.0908 96.4612 26.2431 94.0527 26.2431C89.4313 26.2431 85.3635 29.9417 85.4026 36.2598C85.4026 42.1166 89.0759 45.9307 93.6573 45.9307C96.1455 45.9307 98.5151 44.8515 99.7 42.7708H99.8187L100.056 45.5068H105.388C105.309 44.2353 105.229 42.0391 105.229 39.8819V19.2836H99.2263ZM99.2263 37.1465C99.2263 37.6083 99.1868 38.0711 99.1076 38.456C98.7526 40.1128 97.3303 41.2684 95.593 41.2684C93.1046 41.2684 91.4852 39.2652 91.4852 36.1058C91.4852 33.1395 92.8679 30.7509 95.6322 30.7509C97.4882 30.7509 98.7918 32.0219 99.1475 33.6013C99.2263 33.9487 99.2263 34.334 99.2263 34.6804V37.1465Z" fill="white"/>
<path fill-rule="evenodd" clip-rule="evenodd" d="M111.268 14.8683C111.268 13.2862 112.583 12.0029 114.205 12.0029H148.078C149.7 12.0029 151.015 13.2862 151.015 14.8683V49.1376C151.015 50.7202 149.7 52.0029 148.078 52.0029H114.205C112.583 52.0029 111.268 50.7202 111.268 49.1376V14.8683ZM123.315 45.4865V27.4243H117.312V45.4865H123.315ZM120.314 24.9582C122.407 24.9582 123.71 23.5712 123.71 21.8379C123.671 20.0655 122.407 18.717 120.353 18.717C118.3 18.717 116.957 20.0655 116.957 21.8379C116.957 23.5712 118.26 24.9582 120.274 24.9582H120.314ZM132.641 45.4865H126.638C126.638 45.4865 126.716 29.1191 126.638 27.4243H132.641V29.9815C133.439 28.7508 134.867 27.0004 138.052 27.0004C142.001 27.0004 144.963 29.5819 144.963 35.1299V45.4865H138.96V35.8236C138.96 33.3955 138.091 31.7391 135.919 31.7391C134.26 31.7391 133.273 32.8562 132.839 33.9348C132.68 34.3207 132.641 34.8599 132.641 35.3998V45.4865ZM132.641 29.9815V30.0437H132.601C132.614 30.0232 132.628 30.0024 132.641 29.9815Z" fill="white"/>
</svg>
