<svg width="112" height="65" viewBox="0 0 112 65" fill="none" xmlns="http://www.w3.org/2000/svg">
<g clip-path="url(#clip0_2847_84)">
<path d="M82.5563 42.6408C79.0093 42.1462 79.2062 38.2787 79.2062 35.3556V29.0148H85.3371C85.8188 29.0148 86.2128 28.6101 86.2128 28.1154V21.3698C86.2128 20.8751 85.8188 20.4704 85.3371 20.4704H79.2062V14.3994C79.2062 13.9047 78.8122 13.5 78.3305 13.5H70.9955C70.5139 13.5 70.1198 13.9047 70.1198 14.3994C70.1198 19.1213 70.1198 30.6337 70.1198 34.2988C70.1198 38.1213 69.9665 42.3036 71.8058 45.7663C73.8202 49.5437 78.0241 51.2303 82.0965 51.275H87.9646C88.4462 51.275 88.8403 50.8703 88.8403 50.3757V43.7426C88.8403 43.2479 88.4462 42.8432 87.9646 42.8432C86.1909 42.8432 84.2423 42.8657 82.5563 42.6408Z" fill="white"/>
<path d="M105.107 42.6408C101.56 42.1462 101.756 38.2787 101.756 35.3556V29.0148H107.887C108.369 29.0148 108.763 28.6101 108.763 28.1154V21.3698C108.763 20.8751 108.369 20.4704 107.887 20.4704H101.756V14.3994C101.756 13.9047 101.362 13.5 100.881 13.5H93.5458C93.0642 13.5 92.6701 13.9047 92.6701 14.3994C92.6701 19.1213 92.6701 30.6337 92.6701 34.2988C92.6701 38.1213 92.5168 42.3036 94.3558 45.7663C96.3705 49.5437 100.574 51.2303 104.647 51.275H110.515C110.996 51.275 111.391 50.8703 111.391 50.3757V43.7426C111.391 43.2479 110.996 42.8432 110.515 42.8432C108.741 42.8432 106.792 42.8657 105.107 42.6408Z" fill="white"/>
<path d="M50.3265 20.4482C41.9844 20.4482 35.2188 27.3961 35.2188 35.963C35.2188 44.5299 41.9844 51.4776 50.3265 51.4776C58.6686 51.4776 65.4339 44.5299 65.4339 35.963C65.4339 27.3961 58.6902 20.4482 50.3265 20.4482ZM50.3265 43.3381C46.3632 43.3381 43.1446 40.0328 43.1446 35.963C43.1446 31.8932 46.3632 28.5879 50.3265 28.5879C54.2894 28.5879 57.5081 31.8932 57.5081 35.963C57.5081 40.0328 54.2894 43.3381 50.3265 43.3381Z" fill="white"/>
<path d="M21.4253 14.3994V21.8195C11.1565 17.1426 -0.535599 25.642 0.252631 37.1095C0.99707 47.9697 12.6453 54.783 22.1041 49.8587C27.1619 47.183 30.3805 41.8538 30.4024 36.0077V14.3994C30.4024 13.9047 30.0083 13.5 29.5266 13.5H22.3011C21.7975 13.5 21.4253 13.9047 21.4253 14.3994ZM15.3823 43.3379C11.4192 43.3379 8.20061 40.0325 8.20061 35.9627C8.20061 31.8929 11.4192 28.5876 15.3823 28.5876C19.3453 28.5876 22.5639 31.8929 22.5639 35.9627C22.5201 40.0325 19.3234 43.2929 15.3823 43.3379Z" fill="white"/>
</g>
<defs>
<clipPath id="clip0_2847_84">
<rect width="111.206" height="38" fill="white" transform="translate(0.206055 13.5)"/>
</clipPath>
</defs>
</svg>
