<svg width="70" height="28" viewBox="0 0 70 28" fill="none" xmlns="http://www.w3.org/2000/svg">
<g clip-path="url(#clip0_4083_19438)">
<path d="M14.5364 3.64583V10.6552C14.5364 10.6552 17.0062 10.6552 18.3281 10.5548C19.3676 10.3728 19.5589 10.2725 19.7502 9.233L20.1329 7.7105H21.2634L21.0721 11.0378L21.1724 14.4468H20.0326L19.7502 13.1157C19.4679 12.1683 19.0852 11.9758 18.3281 11.8848C17.3807 11.7845 14.5364 11.7845 14.5364 11.7845V17.6633C14.5364 18.7938 15.1104 19.2768 16.4322 19.2768H20.4152C21.6461 19.2768 22.8757 19.1765 23.6422 17.381L24.6724 15.1025H25.6291C25.5287 15.5762 25.0551 19.7505 24.9641 20.6897C24.9641 20.6897 21.3637 20.5987 19.8506 20.5987H13.0232L8.94922 20.6897V19.6595L10.2711 19.3678C11.2277 19.1765 11.5101 18.8942 11.5101 18.137C11.5101 18.137 11.6104 15.5762 11.6104 11.3097C11.6104 7.05367 11.5101 4.49167 11.5101 4.49167C11.5101 3.6435 11.2277 3.45217 10.2711 3.26083L8.94922 2.98083V1.94133L12.9322 2.023H20.5156C22.0287 2.023 24.5802 1.75 24.5802 1.75C24.5802 1.75 24.4892 3.35417 24.3889 7.14583H23.3494L22.9667 5.81467C22.5934 4.11017 22.0276 3.262 20.9799 3.262H15.0194C14.5364 3.26317 14.5364 3.35417 14.5364 3.64583ZM29.8851 4.39367H31.0249V8.37667L34.9169 8.18533L34.7256 9.99017L30.9339 9.6985V16.7172C30.9339 18.704 31.5989 19.4693 32.7387 19.4693C33.7689 19.4693 34.5342 18.8953 34.8166 18.4217L35.3812 19.0867C34.8166 20.4085 33.2124 21.0735 31.6899 21.0735C29.8034 21.0735 28.2716 19.943 28.2716 17.7648V9.79767H26.0106V8.85033C27.9076 8.659 29.3204 7.51917 29.8851 4.39367ZM38.0424 16.6157L38.7984 18.4205C39.0807 19.1765 39.7457 19.943 41.2589 19.943C42.8724 19.943 43.5374 19.0867 43.5374 18.0472C43.5374 14.8202 37.1849 15.7687 37.1849 11.4112C37.1849 8.95067 39.1717 7.8015 41.7326 7.8015C42.8724 7.8015 44.5769 7.99283 45.4332 8.3755C45.2419 9.32283 45.1416 10.5537 45.1416 11.5022L44.2024 11.5932L43.5374 9.69733C43.3461 9.233 42.5807 8.84917 41.6416 8.84917C40.5017 8.84917 39.3631 9.32283 39.3631 10.5537C39.3631 13.489 45.9069 12.8322 45.9069 17.1897C45.9069 19.6595 43.7287 20.9813 41.0676 20.9813C39.0807 20.9813 37.0846 20.216 37.0846 20.216C37.2759 19.0855 37.1849 17.8558 37.0846 16.6157H38.0424ZM45.4344 25.7122C45.7167 24.6727 45.9081 23.352 46.0994 22.1118L47.1389 22.0208L47.5216 24.0077C47.6126 24.4813 47.8949 24.864 48.6521 24.864C49.8829 24.864 51.4964 24.108 53.0177 21.455C52.3434 19.8415 50.3566 14.637 48.5517 10.654C48.0781 9.60633 47.987 9.51417 47.3302 9.32283L46.8472 9.14083V8.18417L49.6997 8.2845L53.1997 8.09317V9.04167L52.3434 9.233C51.6784 9.324 51.4042 9.69733 51.4042 10.0812C51.4042 10.1815 51.4042 10.2725 51.4952 10.4638C51.6772 11.0378 53.1997 15.295 54.3396 18.1382C55.2787 16.1513 57.0836 11.6947 57.3659 10.9375C57.4662 10.5548 57.5572 10.4638 57.5572 10.1815C57.5572 9.6985 57.2749 9.41617 56.6181 9.23417L55.9437 9.04167V8.09433L58.6049 8.18533L61.0654 8.09433V9.04167L60.5917 9.415C59.6444 9.79767 59.5441 9.88867 59.1696 10.654L55.0046 20.4062C52.5347 26.0027 49.9739 26.4763 48.1772 26.4763C47.0386 26.4775 46.1822 26.1858 45.4344 25.7122Z" fill="white"/>
</g>
<defs>
<clipPath id="clip0_4083_19438">
<rect width="70" height="28" fill="white"/>
</clipPath>
</defs>
</svg>
