<svg width="60" height="21" viewBox="0 0 60 21" fill="none" xmlns="http://www.w3.org/2000/svg">
<g clip-path="url(#clip0_4083_19442)">
<g clip-path="url(#clip1_4083_19442)">
<path fill-rule="evenodd" clip-rule="evenodd" d="M44.4248 15.9673C42.5148 15.7051 42.6206 13.6773 42.6206 12.1301V8.79658H45.9277C45.9898 8.79648 46.0513 8.78416 46.1086 8.76031C46.1659 8.73646 46.218 8.70155 46.2619 8.65757C46.3057 8.6136 46.3404 8.56142 46.3641 8.50401C46.3878 8.44661 46.3999 8.3851 46.3998 8.323V4.77372C46.3999 4.71162 46.3878 4.65012 46.3641 4.59271C46.3404 4.5353 46.3057 4.48312 46.2619 4.43915C46.218 4.39517 46.1659 4.36026 46.1086 4.33641C46.0513 4.31256 45.9898 4.30024 45.9277 4.30015H42.6206V1.10443C42.6206 0.979327 42.5711 0.859304 42.4829 0.770574C42.3947 0.681843 42.2749 0.631616 42.1498 0.630862H38.1898C38.1279 0.630767 38.0666 0.642897 38.0093 0.666555C37.9521 0.690214 37.9001 0.724935 37.8563 0.76873C37.8125 0.812525 37.7778 0.864532 37.7541 0.921771C37.7305 0.97901 37.7183 1.04035 37.7184 1.10229V11.5809C37.7184 13.5866 37.637 15.7937 38.6298 17.6166C39.7134 19.6066 41.9784 20.4966 44.1798 20.5123H47.3456C47.4708 20.5121 47.5909 20.4622 47.6795 20.3735C47.768 20.2849 47.8177 20.1647 47.8177 20.0394V16.5451C47.8177 16.4828 47.8054 16.4211 47.7815 16.3636C47.7576 16.306 47.7226 16.2538 47.6785 16.2098C47.6344 16.1658 47.582 16.1309 47.5244 16.1072C47.4667 16.0835 47.405 16.0714 47.3427 16.0716C46.3863 16.0787 45.3298 16.0923 44.4248 15.9673ZM56.5898 15.9673C54.6806 15.7051 54.7856 13.6773 54.7856 12.1301V8.79658H58.0927C58.1548 8.79648 58.2163 8.78416 58.2736 8.76031C58.3309 8.73646 58.383 8.70155 58.4269 8.65757C58.4707 8.6136 58.5054 8.56142 58.5291 8.50401C58.5528 8.44661 58.5649 8.3851 58.5648 8.323V4.77372C58.565 4.64843 58.5155 4.52819 58.4271 4.4394C58.3387 4.35061 58.2187 4.30053 58.0934 4.30015H54.7856V1.10443C54.7856 0.979204 54.736 0.859073 54.6476 0.770323C54.5593 0.681572 54.4394 0.631428 54.3141 0.630862H50.3556C50.2934 0.630673 50.2318 0.642775 50.1744 0.666471C50.1169 0.690168 50.0647 0.724991 50.0208 0.768938C49.9768 0.812884 49.942 0.865086 49.9183 0.922541C49.8946 0.979996 49.8825 1.04157 49.8827 1.10372V11.5801C49.8827 13.5866 49.802 15.7937 50.7948 17.6166C51.8784 19.6066 54.1434 20.4966 56.3448 20.5123H59.5098C59.6353 20.5123 59.7555 20.4625 59.8442 20.3738C59.9329 20.2851 59.9827 20.1648 59.9827 20.0394V16.5451C59.9827 16.4828 59.9704 16.4211 59.9465 16.3636C59.9226 16.306 59.8876 16.2538 59.8435 16.2098C59.7994 16.1658 59.747 16.1309 59.6894 16.1072C59.6317 16.0835 59.57 16.0714 59.5077 16.0716C58.5506 16.0787 57.4956 16.0923 56.5898 15.9673Z" fill="white"/>
<path d="M27.0396 4.288C22.536 4.288 18.8853 7.94586 18.8853 12.458C18.8853 16.9701 22.536 20.628 27.0396 20.628C31.5424 20.628 35.1931 16.9709 35.1931 12.458C35.1932 10.2922 34.3342 8.21484 32.8046 6.68157C32.0481 5.9233 31.1496 5.32164 30.1604 4.91104C29.1711 4.50044 28.1106 4.28825 27.0396 4.288ZM27.0396 16.3373C26.5307 16.3368 26.0269 16.2361 25.5569 16.041C25.087 15.8458 24.6601 15.56 24.3006 15.1998C23.9411 14.8396 23.656 14.4122 23.4617 13.9419C23.2674 13.4716 23.1677 12.9676 23.1681 12.4587C23.1681 10.3159 24.901 8.58015 27.0396 8.58015C27.5484 8.58061 28.0522 8.68131 28.5222 8.87648C28.9922 9.07165 29.4191 9.35747 29.7786 9.71763C30.1381 10.0778 30.4231 10.5052 30.6174 10.9755C30.8117 11.4459 30.9115 11.9498 30.911 12.4587C30.911 13.4873 30.5024 14.473 29.7767 15.2016C29.4176 15.5615 28.9909 15.8471 28.5212 16.042C28.0516 16.2369 27.5481 16.3372 27.0396 16.3373ZM11.4396 1.10443V5.00943C5.90743 2.54515 -0.404 7.02586 0.0202857 13.0594C0.423143 18.7766 6.70957 22.3573 11.8089 19.7701C13.1507 19.0802 14.2775 18.0352 15.0663 16.749C15.8551 15.4627 16.2758 13.9847 16.2824 12.4759V1.10443C16.2825 1.04227 16.2704 0.980709 16.2466 0.923257C16.2229 0.865805 16.1881 0.813593 16.1442 0.769608C16.1003 0.725624 16.0481 0.69073 15.9907 0.666922C15.9333 0.643114 15.8717 0.630859 15.8096 0.630859H11.9124C11.8503 0.630859 11.7887 0.643114 11.7313 0.666922C11.6739 0.69073 11.6217 0.725624 11.5778 0.769608C11.5339 0.813593 11.4991 0.865805 11.4754 0.923257C11.4516 0.980709 11.4395 1.04227 11.4396 1.10443ZM8.18671 16.3373C7.67784 16.3368 7.17404 16.2361 6.70409 16.041C6.23413 15.8458 5.80722 15.56 5.44772 15.1998C5.08823 14.8396 4.80319 14.4122 4.60889 13.9419C4.41458 13.4716 4.31482 12.9676 4.31529 12.4587C4.31529 10.3159 6.04886 8.58015 8.18671 8.58015C8.69559 8.58061 9.19938 8.68131 9.66934 8.87648C10.1393 9.07165 10.5662 9.35747 10.9257 9.71763C11.2852 10.0778 11.5702 10.5052 11.7645 10.9755C11.9588 11.4459 12.0586 11.9498 12.0581 12.4587C12.0489 13.4833 11.6382 14.4633 10.9144 15.1885C10.1906 15.9137 9.21125 16.3261 8.18671 16.3373Z" fill="white"/>
</g>
</g>
<defs>
<clipPath id="clip0_4083_19442">
<rect width="60" height="20" fill="white" transform="translate(0 0.630859)"/>
</clipPath>
<clipPath id="clip1_4083_19442">
<rect width="60" height="20" fill="white" transform="translate(0 0.630859)"/>
</clipPath>
</defs>
</svg>
