<svg width="110" height="31" viewBox="0 0 110 31" fill="none" xmlns="http://www.w3.org/2000/svg">
<g clip-path="url(#clip0_4083_19440)">
<path d="M104.839 20.6571C104.839 20.3109 104.814 20.1186 104.301 20.1186C103.814 20.1186 103.775 20.3366 103.775 20.6571H104.839Z" fill="white"/>
<path d="M94.9547 24.7853C94.9547 24.4392 94.929 24.2468 94.4162 24.2468C93.929 24.2468 93.8906 24.4648 93.8906 24.7853H94.9547Z" fill="white"/>
<path d="M88.006 20.8879C88.006 20.3494 88.0444 20.1443 88.5829 20.1443C89.1085 20.1443 89.1598 20.3494 89.1598 20.8879C89.1598 21.4263 89.1214 21.6315 88.5829 21.6315C88.0573 21.6315 88.006 21.4263 88.006 20.8879Z" fill="white"/>
<path d="M93.4675 20.9007C93.4675 20.3366 93.5573 20.1699 93.9675 20.1699C94.429 20.1699 94.5701 20.2981 94.5829 20.9007C94.5829 21.5033 94.4419 21.6315 93.9675 21.6315C93.5573 21.6315 93.4675 21.452 93.4675 20.9007Z" fill="white"/>
<path d="M101.096 20.9007C101.096 20.3366 101.185 20.1699 101.596 20.1699C102.057 20.1699 102.198 20.2981 102.211 20.9007C102.211 21.5033 102.07 21.6315 101.596 21.6315C101.185 21.6315 101.096 21.452 101.096 20.9007Z" fill="white"/>
<path d="M88.5573 25.0161C88.5573 24.4776 88.5957 24.2725 89.1342 24.2725C89.6598 24.2725 89.7111 24.4776 89.7111 25.0161C89.7111 25.5545 89.6726 25.7597 89.1342 25.7597C88.6085 25.7597 88.5573 25.5545 88.5573 25.0161Z" fill="white"/>
<path fill-rule="evenodd" clip-rule="evenodd" d="M81.1215 30.336H108.493C109.057 30.336 109.506 29.8745 109.506 29.3104V1.9386C109.506 1.38732 109.057 0.925781 108.493 0.925781H81.1215C80.5702 0.925781 80.1086 1.3745 80.1086 1.9386V29.3232C80.1086 29.8745 80.5574 30.336 81.1215 30.336ZM90.6598 19.9135C90.8008 19.7597 90.9932 19.7084 91.2239 19.6827C91.3521 19.6699 91.4034 19.6699 91.4162 19.6699L91.3649 20.1186C90.929 20.1443 90.8393 20.2725 90.788 20.4263C90.7327 20.5703 90.7347 20.7907 90.7362 20.9637C90.7365 20.9911 90.7367 21.0172 90.7367 21.0417V22.0802H90.1855V19.6956H90.6598V19.9135ZM103.775 21.2853C103.801 21.5289 103.929 21.6571 104.301 21.6699C104.541 21.6785 104.753 21.6641 104.963 21.6498C105.067 21.6427 105.169 21.6357 105.275 21.6315L105.211 22.0674C105.019 22.093 104.647 22.1186 104.314 22.1186H104.275C103.814 22.1058 103.493 21.9776 103.352 21.6699C103.25 21.4648 103.224 21.2084 103.224 20.9135C103.224 20.1956 103.365 19.6571 104.314 19.6571C105.352 19.6571 105.403 20.2597 105.403 21.093H103.775V21.2853ZM93.8906 25.4135C93.9162 25.6571 94.0444 25.7853 94.4162 25.7981C94.759 25.8104 95.0434 25.7875 95.3474 25.7631L95.3906 25.7597L95.3265 26.1956C95.1342 26.2212 94.7624 26.2468 94.429 26.2468H94.3906C93.929 26.234 93.6085 26.1058 93.4675 25.7981C93.3649 25.593 93.3393 25.3366 93.3393 25.0417C93.3393 24.3238 93.4803 23.7853 94.429 23.7853C95.4675 23.7853 95.5188 24.3879 95.5188 25.2212H93.8906V25.4135ZM85.9932 22.0802H86.5444L87.1983 19.6956H86.6598L86.2496 21.4776L85.7624 19.6956H85.2239L84.7496 21.4776L84.3265 19.6956H83.788L84.429 22.0802H85.006L85.506 20.2212L85.9932 22.0802ZM88.5701 22.1186C88.9547 22.1186 89.2496 22.0545 89.4547 21.8494C89.6726 21.6443 89.7111 21.3366 89.7111 20.8879C89.7111 20.4392 89.6598 20.1315 89.4547 19.9263C89.2496 19.7212 88.9547 19.6571 88.5701 19.6571C88.1726 19.6571 87.8906 19.7212 87.6855 19.9263C87.4675 20.1315 87.429 20.4392 87.429 20.8879C87.429 21.3366 87.4803 21.6443 87.6855 21.8494C87.8906 22.0545 88.1855 22.1186 88.5701 22.1186ZM92.429 18.6699H91.8778V22.0674H92.429V18.6699ZM94.6214 21.8879V22.0802H95.1085V18.6827H94.5572V19.875C94.3778 19.6827 94.0957 19.6571 93.8393 19.6571C93.0573 19.6571 92.9162 20.1699 92.9162 20.8879C92.9162 21.4776 92.9547 22.1186 93.9034 22.1186C94.2111 22.1186 94.4803 22.0161 94.6214 21.8879ZM97.7624 22.0802H98.3137L98.9547 19.6956H98.429L98.006 21.4776L97.5316 19.6956H96.9931L96.506 21.4776L96.0957 19.6956H95.5572L96.1983 22.0802H96.7752L97.2752 20.2212L97.7624 22.0802ZM99.9932 19.6956H99.4419V22.0802H99.9932V19.6956ZM102.25 21.8879V22.0802H102.737V18.6827H102.185V19.875C102.006 19.6827 101.724 19.6571 101.468 19.6571C100.685 19.6571 100.544 20.1699 100.544 20.8879C100.544 21.4776 100.583 22.1186 101.532 22.1186C101.839 22.1186 102.109 22.0161 102.25 21.8879ZM86.9803 24.7725V26.1956H87.5188V24.7725C87.5188 24.7557 87.5189 24.7388 87.519 24.7218L87.5192 24.7002C87.5206 24.5296 87.522 24.3527 87.4547 24.1956C87.3393 23.9135 87.0316 23.7853 86.6598 23.7853C86.3265 23.7853 86.1214 23.8622 85.9419 24.0289C85.8008 23.875 85.5829 23.7853 85.3137 23.7853C85.006 23.7853 84.8008 23.8879 84.6598 24.0289V23.8238H84.1855V26.2084H84.7367V25.1186C84.7367 25.0847 84.7362 25.0497 84.7356 25.014C84.73 24.672 84.7235 24.2725 85.2111 24.2725C85.5836 24.2725 85.5833 24.4649 85.5829 24.7449L85.5829 24.7725V26.2084H86.1342V25.1058C86.1342 25.0732 86.1336 25.0394 86.133 25.0049C86.1274 24.6723 86.1207 24.2725 86.6085 24.2725C86.9828 24.2725 86.9819 24.4544 86.9805 24.7219C86.9804 24.7384 86.9803 24.7553 86.9803 24.7725ZM89.1213 26.2468C89.506 26.2468 89.8008 26.1827 90.006 25.9776C90.2111 25.7853 90.2624 25.4776 90.2624 25.0161C90.2624 24.5674 90.2111 24.2597 90.006 24.0545C89.8008 23.8494 89.506 23.7853 89.1213 23.7853C88.7239 23.7853 88.4419 23.8494 88.2367 24.0545C88.0188 24.2597 87.9803 24.5674 87.9803 25.0161C87.9803 25.4648 88.0316 25.7725 88.2367 25.9776C88.4419 26.1827 88.7367 26.2468 89.1213 26.2468ZM92.3008 24.952V26.1956H92.8521V24.9007L92.8522 24.8422C92.8536 24.3314 92.8551 23.7725 91.929 23.7725C91.5829 23.7725 91.3778 23.8879 91.2367 24.0033V23.8109H90.7624V26.1956H91.3137V25.093C91.3137 25.0693 91.3135 25.0455 91.3134 25.0218C91.3113 24.6366 91.3093 24.2725 91.8649 24.2725C92.3049 24.2725 92.3037 24.46 92.3012 24.8554L92.3012 24.8585C92.3011 24.8757 92.301 24.8933 92.3009 24.9114C92.3009 24.9247 92.3008 24.9382 92.3008 24.952ZM96.2239 27.1443H96.8008L98.0957 23.8238H97.506L96.9162 25.5417L96.3137 23.8238H95.7239L96.6342 26.1571L96.2239 27.1443ZM99.9932 18.8109H99.4419V19.3622H99.9932V18.8109Z" fill="white"/>
<path d="M40.5316 24.1956C40.5316 24.7597 40.7624 25.0674 41.8008 25.0674C43.3521 25.0674 43.506 24.4776 43.506 23.3366H41.7496C40.8265 23.3366 40.5316 23.5033 40.5316 24.1956Z" fill="white"/>
<path d="M56.506 22.2725C56.506 21.3366 56.429 20.7981 55.0188 20.7981C53.6983 20.7981 53.5573 21.4135 53.5573 22.2725H56.506Z" fill="white"/>
<path d="M65.8778 22.2725C65.8778 21.3366 65.8008 20.7981 64.3906 20.7981C63.0701 20.7981 62.929 21.4135 62.929 22.2725H65.8778Z" fill="white"/>
<path fill-rule="evenodd" clip-rule="evenodd" d="M1.50598 30.336H77.5316C78.0829 30.336 78.5444 29.8745 78.5444 29.3104V1.9386C78.5444 1.38732 78.0957 0.925781 77.5316 0.925781H1.50598C0.954703 0.925781 0.493164 1.3745 0.493164 1.9386V29.3232C0.493164 29.8745 0.941882 30.336 1.50598 30.336ZM34.2623 26.2085V18.311H36.993V16.9008H29.9546V18.311H32.6854V26.2085H34.2623ZM47.8264 26.2085H49.352L51.9161 19.6572H50.3392L48.6084 24.4649L46.8777 19.6572H45.2495L47.8264 26.2085ZM60.4674 16.8623H58.9546V26.2213H60.4674V16.8623ZM71.0443 23.8495L72.6725 26.2085H74.4674L71.9674 22.8751L74.3905 19.6572H72.6597L71.0956 21.8879L69.5443 19.6572H67.7623L70.1725 22.8879L67.6725 26.2085H69.3905L71.0443 23.8495ZM37.3649 20.2597C37.7624 19.8366 38.3137 19.6827 38.929 19.6315C39.288 19.593 39.4419 19.593 39.4547 19.593L39.3008 20.8109C38.0957 20.9135 37.8649 21.2468 37.7111 21.6699C37.5509 22.0932 37.5541 22.7105 37.5566 23.203C37.5568 23.2375 37.557 23.2714 37.5571 23.3045C37.5572 23.3284 37.5572 23.3519 37.5572 23.375V26.2212H36.0444V19.6699H37.3649V20.2597ZM40.3906 19.6443C40.7239 19.593 41.4419 19.5289 42.1726 19.5545C43.9162 19.6186 44.9547 20.2468 44.9547 21.9392V26.2084H43.5957V25.6699C43.1855 26.0289 42.4932 26.3109 41.5573 26.3109C39.9932 26.3109 39.006 25.8238 39.006 24.2212C39.006 22.3238 40.4034 22.1058 41.8008 22.1058H43.4803L43.4799 22.0991C43.4289 21.2956 43.3998 20.8364 42.0957 20.7853C42.087 20.7853 42.0634 20.7846 42.0267 20.7835C41.7922 20.7765 41.0257 20.7538 40.2496 20.7981L40.3906 19.6443ZM53.5573 24.0417C53.647 24.6956 53.9803 25.0545 55.006 25.093C55.7961 25.1226 56.4416 25.0686 57.1067 25.0129C57.305 24.9963 57.505 24.9795 57.7111 24.9648L57.5444 26.1827C57.0188 26.2468 55.9931 26.3109 55.0701 26.3109H54.929C53.6598 26.3109 52.7752 25.9392 52.3778 25.093C52.0957 24.5417 52.0188 23.8238 52.0188 23.0161C52.0188 21.0545 52.4034 19.5545 55.0316 19.5545C57.8906 19.5545 58.0188 21.234 58.0188 23.5161H53.5316C53.5316 23.6571 53.5316 23.7853 53.5444 23.9007V23.952C53.5444 23.9648 53.5476 23.9808 53.5508 23.9968C53.5541 24.0129 53.5573 24.0289 53.5573 24.0417ZM62.9419 24.0417C63.0316 24.6956 63.3649 25.0545 64.3906 25.093C65.1658 25.1224 65.8057 25.0693 66.4715 25.014C66.6756 24.997 66.8821 24.9798 67.0957 24.9648L66.929 26.1827C66.4034 26.2468 65.3778 26.3109 64.4547 26.3109H64.3137C63.0444 26.3109 62.1598 25.9392 61.7624 25.093C61.4803 24.5417 61.4034 23.8238 61.4034 23.0161C61.4034 21.0545 61.788 19.5545 64.4162 19.5545C67.2752 19.5545 67.4034 21.234 67.4034 23.5161H62.9162C62.9162 23.657 62.9162 23.7853 62.929 23.9007V23.952C62.929 23.9648 62.9322 23.9808 62.9355 23.9968C62.9387 24.0129 62.9419 24.0289 62.9419 24.0417Z" fill="white"/>
</g>
<defs>
<clipPath id="clip0_4083_19440">
<rect width="109.013" height="29.4103" fill="white" transform="translate(0.493164 0.925781)"/>
</clipPath>
</defs>
</svg>
