<svg width="92" height="48" viewBox="0 0 92 48" fill="none" xmlns="http://www.w3.org/2000/svg">
<g clip-path="url(#clip0_4083_19441)">
<g clip-path="url(#clip1_4083_19441)">
<path fill-rule="evenodd" clip-rule="evenodd" d="M17.2002 9.22734C25.1423 9.22734 31.6041 15.6886 31.6041 23.6313C31.6041 31.5741 25.1429 38.0347 17.2002 38.0347C9.2581 38.0347 2.79629 31.5734 2.79629 23.6307C2.79629 15.6879 9.2581 9.22734 17.2002 9.22734ZM17.2002 7.38452C8.22781 7.38452 0.954102 14.6583 0.954102 23.6307C0.954102 32.6031 8.22781 39.8768 17.2002 39.8768C26.1726 39.8768 33.447 32.6031 33.447 23.6307C33.447 14.6583 26.1733 7.38452 17.2002 7.38452ZM45.175 24.6271C45.175 24.4892 45.1831 16.9165 45.1851 15.5501H42.3837C42.3837 16.7356 42.3846 22.5984 42.3849 24.2394L42.385 24.6667C42.395 26.4963 43.1132 28.2164 44.4065 29.5097C44.5469 29.6532 44.6973 29.7905 44.8559 29.9201C46.1335 30.9907 47.6868 31.5326 49.4736 31.5326H51.0867V28.7401C50.8117 28.7406 49.3207 28.7419 49.2892 28.7419C47.0209 28.7413 45.175 26.896 45.175 24.6271ZM55.2826 23.2723H52.4805V31.5323H55.2826V23.2723ZM71.0674 17.8764C72.3866 17.8764 73.6 18.2818 74.558 19.2818C75.5933 20.3625 76.1056 21.9171 76.1075 23.6818C76.1075 26.3556 76.11 29.6455 76.111 31.0403L76.1113 31.5032H73.3276C73.3206 30.435 73.2904 25.6341 73.2904 23.6818C73.2904 21.2606 71.9675 20.3977 70.6678 20.3977C70.377 20.3977 70.0894 20.4455 69.8125 20.54C69.2524 20.7011 68.6418 21.2518 68.3738 21.6924C68.1157 22.1159 67.9438 22.6024 67.9438 23.5987V31.5032H64.9971V23.5987C64.9971 22.603 64.8252 22.1166 64.5673 21.6924C64.2985 21.2518 63.688 20.7011 63.1279 20.54C62.8516 20.4455 62.5634 20.3977 62.2726 20.3977C60.9723 20.3977 59.6499 21.2606 59.6499 23.6818C59.6499 25.6348 59.6197 30.4357 59.6129 31.5032H56.8291L56.8294 31.0382V31.036L56.8294 31.0262L56.8295 30.9797C56.8305 29.5519 56.8329 26.3177 56.8329 23.6818C56.8329 21.9176 57.3451 20.3625 58.3804 19.2818C59.3384 18.2818 60.5512 17.8764 61.871 17.8764C63.2311 17.8764 64.442 18.3145 65.3767 19.2818C66.0664 19.9961 66.4693 20.9075 66.4693 20.9075C66.4693 20.9075 66.872 19.9961 67.5618 19.2818C68.4958 18.3145 69.7073 17.8764 71.0674 17.8764ZM90.7537 24.5805C90.7537 22.7447 90.0677 21.2921 88.8737 19.9987C87.6659 18.6908 85.8451 17.8764 83.9665 17.8764C81.9745 17.8764 80.2545 18.6467 78.8812 20.0899C77.6451 21.3896 77.1591 22.9329 77.1591 24.8405C77.1591 26.752 77.9169 28.5569 79.2745 29.7742C80.7006 31.0531 82.1803 31.7121 84.3202 31.7121C86.1479 31.7121 88.0531 31.0053 89.3295 30.075L87.5174 28.263C86.6263 28.8842 85.4574 29.2745 84.3876 29.2745C82.8456 29.2745 81.1009 28.2952 80.3879 26.9879L90.721 25.1665C90.7355 24.9997 90.7537 24.7568 90.7537 24.5805ZM80.0895 24.3792C80.1198 22.3387 81.2634 20.4267 83.9854 20.4267C86.3927 20.4267 87.5193 22.0221 87.7798 23.2972L80.0895 24.6517V24.3792ZM51.7789 19.7381C51.7789 20.6418 52.1994 21.6111 53.8816 21.6111C55.5639 21.6111 55.9844 20.6418 55.9844 19.7381C55.9844 18.8343 55.4846 17.8651 53.8816 17.8651C52.2786 17.8651 51.7789 18.8343 51.7789 19.7381ZM19.3018 23.6307C19.3018 24.7913 18.3609 25.7322 17.2003 25.7322C16.0397 25.7322 15.0988 24.7913 15.0988 23.6307C15.0988 22.47 16.0397 21.5292 17.2003 21.5292C18.3609 21.5292 19.3018 22.47 19.3018 23.6307ZM20.7593 20.5159L25.8019 17.605C26.7962 17.031 26.9851 15.6722 26.1826 14.8508C24.601 13.2333 22.5863 12.0413 20.3256 11.4623C19.2085 11.1759 18.119 12.0123 18.119 13.166V18.9915C18.119 20.3465 19.5861 21.1931 20.7593 20.5159ZM16.2812 13.1658V18.9913C16.2812 20.3464 14.8141 21.1935 13.6409 20.5157L8.5984 17.6048C7.60398 17.0302 7.41454 15.672 8.21763 14.8506C9.79925 13.2331 11.8139 12.0411 14.0747 11.4621C15.1917 11.1763 16.2812 12.0121 16.2812 13.1658ZM21.6785 25.1565L26.7235 28.0692C27.7179 28.6433 28.9893 28.1284 29.2984 27.0226C29.6004 25.9439 29.7616 24.8066 29.7616 23.6315C29.7616 22.4564 29.5998 21.3192 29.2984 20.2403C28.9893 19.1352 27.7174 18.6198 26.7235 19.1938L21.6785 22.1065C20.5046 22.785 20.5046 24.4786 21.6785 25.1565ZM8.59886 29.6573L13.6414 26.7464C14.8146 26.0692 16.2816 26.9157 16.2816 28.2708V34.0963C16.2816 35.25 15.1922 36.0864 14.075 35.8C11.8143 35.221 9.79971 34.029 8.21808 32.4115C7.41562 31.5901 7.60444 30.2313 8.59886 29.6573ZM12.723 22.1067L7.67793 19.1939C6.68351 18.6198 5.41217 19.1347 5.10314 20.2405C4.80104 21.3192 4.63992 22.4566 4.63992 23.6316C4.63992 24.8067 4.80167 25.9439 5.10314 27.0227C5.41217 28.128 6.68414 28.6433 7.67793 28.0694L12.723 25.1566C13.8968 24.4781 13.8968 22.7845 12.723 22.1067ZM18.119 34.0966V28.2711C18.119 26.9154 19.5861 26.0689 20.7593 26.7468L25.8019 29.6577C26.7962 30.2323 26.9857 31.5904 26.1826 32.4118C24.601 34.0293 22.5863 35.2214 20.3256 35.8004C19.2085 36.0861 18.119 35.2503 18.119 34.0966Z" fill="white"/>
</g>
</g>
<defs>
<clipPath id="clip0_4083_19441">
<rect width="90.0923" height="47.2615" fill="white" transform="translate(0.954102)"/>
</clipPath>
<clipPath id="clip1_4083_19441">
<rect width="90.0923" height="47.2615" fill="white" transform="translate(0.954102)"/>
</clipPath>
</defs>
</svg>
