<svg width="98" height="26" viewBox="0 0 98 26" fill="none" xmlns="http://www.w3.org/2000/svg">
<g clip-path="url(#clip0_4083_19437)">
<path fill-rule="evenodd" clip-rule="evenodd" d="M0.442871 21.6851H11.1102V18.183H4.30324V4.82151H0.442871V21.6851Z" fill="white"/>
<path fill-rule="evenodd" clip-rule="evenodd" d="M16.5108 21.6851V10.07H12.6501V21.6851H16.5108ZM14.5805 8.48411C15.9268 8.48411 16.7648 7.59217 16.7648 6.47683C16.7397 5.33742 15.9268 4.47058 14.6062 4.47058C13.2853 4.47058 12.4219 5.33742 12.4219 6.47683C12.4219 7.59217 13.2597 8.48411 14.5553 8.48411H14.5805Z" fill="white"/>
<path fill-rule="evenodd" clip-rule="evenodd" d="M18.3037 21.6851H22.1645V15.1985C22.1645 14.8514 22.1895 14.5046 22.2917 14.2564C22.5706 13.5631 23.2058 12.8448 24.2724 12.8448C25.6695 12.8448 26.2284 13.9103 26.2284 15.4707V21.6851H30.0888V15.0249C30.0888 11.4572 28.1839 9.79709 25.6439 9.79709C23.5613 9.79709 22.6468 10.9612 22.1387 11.7542H22.1645V10.07H18.3038C18.3545 11.1599 18.3037 21.6851 18.3037 21.6851Z" fill="white"/>
<path fill-rule="evenodd" clip-rule="evenodd" d="M35.5347 4.82151H31.6738V21.6851H35.5347V17.9193L36.4996 16.7047L39.5221 21.6851H44.2715L39.192 14.475L43.6368 9.56955H38.9889C38.9889 9.56955 35.8142 13.9584 35.5347 14.4788V4.82151Z" fill="white"/>
<path fill-rule="evenodd" clip-rule="evenodd" d="M54.5956 16.8402C54.6463 16.5418 54.7227 15.9696 54.7227 15.3227C54.7227 12.32 53.1985 9.27198 49.1857 9.27198C44.8931 9.27198 42.9121 12.6668 42.9121 15.7458C42.9121 19.5541 45.325 21.9326 49.5411 21.9326C51.2176 21.9326 52.7666 21.6851 54.0368 21.1648L53.5286 18.6151C52.4874 18.9605 51.4206 19.1331 50.1 19.1331C48.2967 19.1331 46.7221 18.3931 46.5949 16.8154L54.5956 16.8395V16.8402ZM46.5698 14.2283C46.6713 13.237 47.3317 11.7749 48.9826 11.7749C50.7347 11.7749 51.1414 13.3364 51.1414 14.2283H46.5698Z" fill="white"/>
<path fill-rule="evenodd" clip-rule="evenodd" d="M64.2532 4.82018V10.6578H64.2025C63.6436 9.84079 62.475 9.29566 60.9261 9.29566C57.9542 9.29566 55.3383 11.6741 55.3635 15.7372C55.3635 19.5036 57.7257 21.9563 60.6719 21.9563C62.2719 21.9563 63.7958 21.2623 64.5578 19.9243H64.6341L64.7865 21.6837H68.2156C68.1647 20.866 68.1135 19.4537 68.1135 18.0665V4.82018H64.2532ZM64.2532 16.3074C64.2532 16.6044 64.2277 16.902 64.1768 17.1495C63.9485 18.215 63.0339 18.9581 61.9166 18.9581C60.3164 18.9581 59.275 17.6699 59.275 15.6382C59.275 13.7306 60.1642 12.1945 61.9418 12.1945C63.1354 12.1945 63.9737 13.0119 64.2025 14.0275C64.2532 14.251 64.2532 14.4988 64.2532 14.7215V16.3074Z" fill="white"/>
<path fill-rule="evenodd" clip-rule="evenodd" d="M71.9961 1.98114C71.9961 0.963747 72.8418 0.138494 73.885 0.138494H95.6681C96.7113 0.138494 97.557 0.963747 97.557 1.98114V24.0189C97.557 25.0367 96.7113 25.8616 95.6681 25.8616H73.885C72.8418 25.8616 71.9961 25.0367 71.9961 24.0189V1.98114ZM79.7439 21.6709V10.0555H75.8831V21.6709H79.7439ZM77.8135 8.46964C79.1598 8.46964 79.9978 7.5777 79.9978 6.46304C79.9727 5.32329 79.1598 4.45611 77.839 4.45611C76.5184 4.45611 75.6549 5.32329 75.6549 6.46304C75.6549 7.5777 76.4927 8.46964 77.7883 8.46964H77.8135ZM85.7408 21.6709H81.8801C81.8801 21.6709 81.9308 11.1454 81.8802 10.0555H85.7409V11.7C86.254 10.9086 87.1722 9.78296 89.2202 9.78296C91.7603 9.78296 93.665 11.4431 93.665 15.0108V21.6709H89.8046V15.457C89.8046 13.8955 89.2457 12.8303 87.8487 12.8303C86.7822 12.8303 86.1469 13.5487 85.8678 14.2423C85.7659 14.4904 85.7408 14.8372 85.7408 15.1844V21.6709ZM85.7409 11.7V11.7401H85.7151C85.7236 11.7268 85.7322 11.7135 85.7409 11.7Z" fill="white"/>
</g>
<defs>
<clipPath id="clip0_4083_19437">
<rect width="97.1145" height="25.7231" fill="white" transform="translate(0.442871 0.138428)"/>
</clipPath>
</defs>
</svg>
