<svg width="80" height="24" viewBox="0 0 80 24" fill="none" xmlns="http://www.w3.org/2000/svg">
<g clip-path="url(#clip0_4083_19439)">
<path d="M11.8171 9.08549C11.8171 10.4246 10.7041 11.5273 9.35264 11.5273C8.00114 11.5273 6.88814 10.4246 6.88814 9.08549C6.88814 7.74642 8.00114 6.64365 9.35264 6.64365C10.7041 6.64365 11.8171 7.74642 11.8171 9.08549ZM9.35264 12.4726C8.00114 12.4726 6.88814 13.5753 6.88814 14.9144C6.88814 16.2535 8.00114 17.3563 9.35264 17.3563C10.7041 17.3563 11.8171 16.2535 11.8171 14.9144C11.8171 13.5753 10.7041 12.4726 9.35264 12.4726ZM24.2191 12C24.2191 18.5378 18.8926 23.8153 12.2941 23.8153C5.69564 23.8153 0.369141 18.5378 0.369141 12C0.369141 5.46211 5.69564 0.18457 12.2941 0.18457C18.8926 0.18457 24.2191 5.46211 24.2191 12ZM21.0391 12C21.0391 7.19503 17.1436 3.33534 12.2941 3.33534C7.44464 3.33534 3.54914 7.19503 3.54914 12C3.54914 16.8049 7.44464 20.6646 12.2941 20.6646C17.1436 20.6646 21.0391 16.8049 21.0391 12ZM15.2356 12.4726C13.8841 12.4726 12.7711 13.5753 12.7711 14.9144C12.7711 16.2535 13.8841 17.3563 15.2356 17.3563C16.5871 17.3563 17.7001 16.2535 17.7001 14.9144C17.7001 13.5753 16.5871 12.4726 15.2356 12.4726ZM15.2356 6.64365C13.8841 6.64365 12.7711 7.74642 12.7711 9.08549C12.7711 10.4246 13.8841 11.5273 15.2356 11.5273C16.5871 11.5273 17.7001 10.4246 17.7001 9.08549C17.7001 7.74642 16.5871 6.64365 15.2356 6.64365ZM56.2576 4.83196C56.3371 4.83196 56.4166 4.91072 56.4961 4.98949V7.51011C56.4961 7.66765 56.3371 7.74642 56.2576 7.74642H52.0441C51.8851 7.74642 51.8056 7.58888 51.8056 7.51011V5.06826C51.8056 4.91072 51.9646 4.83196 52.0441 4.83196H56.2576ZM56.1781 8.37657H48.0691C47.9896 8.37657 47.8306 8.45534 47.8306 8.61288L46.7971 12.5513L46.7176 12.7876L45.4456 8.61288C45.4456 8.53411 45.2866 8.37657 45.2071 8.37657H42.0271C41.9476 8.37657 41.7886 8.45534 41.7886 8.61288L40.5961 12.5513L40.5166 12.7876L40.4371 12.5513L39.9601 10.5821L39.4831 8.61288C39.4831 8.53411 39.3241 8.37657 39.2446 8.37657H32.8846V4.98949C32.8846 4.91072 32.7256 4.75319 32.5666 4.83196L28.5916 6.09226C28.4326 6.09226 28.3531 6.17103 28.3531 6.32857V8.45534H27.3196C27.2401 8.45534 27.0811 8.53411 27.0811 8.69165V11.6849C27.0811 11.7636 27.1606 11.9212 27.3196 11.9212H28.3531V15.6233C28.3531 18.2227 29.7841 19.4043 32.4076 19.4043C33.5206 19.4043 34.5541 19.168 35.2696 18.7741V15.6233C35.2696 15.4658 35.1106 15.387 35.0311 15.4658C34.6336 15.6233 34.2361 15.7021 33.9181 15.7021C33.2026 15.7021 32.8051 15.387 32.8051 14.5993V11.9212H35.1106C35.1901 11.9212 35.3491 11.8424 35.3491 11.6849V9.16426L38.3701 19.0892C38.3701 19.168 38.5291 19.3255 38.6086 19.3255H41.9476C42.0271 19.3255 42.1861 19.2467 42.1861 19.0892L43.6171 14.6781L44.3326 16.9624L44.9686 19.0892C44.9686 19.168 45.1276 19.3255 45.2071 19.3255H48.5461C48.6256 19.3255 48.7846 19.2467 48.7846 19.0892L51.8056 9.16426V19.0892C51.8056 19.168 51.8851 19.3255 52.0441 19.3255H56.0986C56.1781 19.3255 56.3371 19.2467 56.3371 19.0892V8.61288C56.3371 8.53411 56.2576 8.37657 56.1781 8.37657ZM61.5046 4.83196H57.4501C57.3706 4.83196 57.2116 4.91072 57.2116 5.06826V19.0104C57.2116 19.0892 57.2911 19.2467 57.4501 19.2467H61.5046C61.5841 19.2467 61.7431 19.168 61.7431 19.0104V4.98949C61.7431 4.91072 61.6636 4.83196 61.5046 4.83196ZM66.9106 4.83196H62.6971C62.6176 4.83196 62.4586 4.91072 62.4586 5.06826V7.51011C62.4586 7.58888 62.5381 7.74642 62.6971 7.74642H66.9106C66.9901 7.74642 67.1491 7.66765 67.1491 7.51011V4.98949C67.1491 4.91072 67.0696 4.83196 66.9106 4.83196ZM66.8311 8.37657H62.7766C62.6971 8.37657 62.5381 8.45534 62.5381 8.61288V18.9316C62.5381 19.0104 62.6176 19.168 62.7766 19.168H66.8311C66.9106 19.168 67.0696 19.0892 67.0696 18.9316V8.61288C67.0696 8.53411 66.9901 8.37657 66.8311 8.37657ZM79.6306 13.7329C79.6306 16.7261 77.0866 19.3255 73.5091 19.3255C70.0111 19.3255 67.4671 16.7261 67.4671 13.7329C67.4671 10.7396 70.0111 8.14026 73.5886 8.14026C77.0866 8.14026 79.6306 10.7396 79.6306 13.7329ZM75.3376 13.8116C75.3376 12.7089 74.5426 11.8424 73.5886 11.9212C72.5551 11.9212 71.8396 12.7876 71.8396 13.8116C71.8396 14.8356 72.6346 15.7021 73.5886 15.7021C74.6221 15.7021 75.3376 14.8356 75.3376 13.8116Z" fill="white"/>
</g>
<defs>
<clipPath id="clip0_4083_19439">
<rect width="79.2615" height="23.6308" fill="white" transform="translate(0.369141 0.18457)"/>
</clipPath>
</defs>
</svg>
