<svg width="125" height="65" viewBox="0 0 125 65" fill="none" xmlns="http://www.w3.org/2000/svg">
<g clip-path="url(#clip0_3190_7514)">
<mask id="mask0_3190_7514" style="mask-type:luminance" maskUnits="userSpaceOnUse" x="0" y="10" width="125" height="45">
<path d="M124.536 10.5029H0V54.5029H124.536V10.5029Z" fill="white"/>
</mask>
<g mask="url(#mask0_3190_7514)">
<path d="M53.3193 22.9221C53.3193 22.87 53.34 22.82 53.3769 22.7832C53.4137 22.7463 53.4637 22.7256 53.5158 22.7256H56.843C56.8951 22.7256 56.9451 22.7463 56.9819 22.7832C57.0188 22.82 57.0395 22.87 57.0395 22.9221V29.3959L57.3376 28.9854C58.2543 27.8311 59.585 27.2539 61.3299 27.2538C62.8164 27.2538 63.9808 27.6899 64.8233 28.5622C65.6657 29.4345 66.087 30.6445 66.0872 32.1922V41.3855C66.0872 41.4376 66.0665 41.4875 66.0296 41.5244C65.9928 41.5612 65.9428 41.5819 65.8908 41.5819H62.5635C62.5114 41.5819 62.4614 41.5612 62.4246 41.5244C62.3877 41.4875 62.367 41.4376 62.367 41.3855V32.8594C62.367 31.9955 62.1791 31.3563 61.8031 30.9416C61.4271 30.5269 60.8503 30.3196 60.0728 30.3196C59.0961 30.3196 58.3464 30.6106 57.8237 31.1926C57.3009 31.7746 57.0395 32.6126 57.0395 33.7067V41.3861C57.0395 41.4382 57.0188 41.4882 56.9819 41.525C56.9451 41.5619 56.8951 41.5826 56.843 41.5826H53.5158C53.4637 41.5826 53.4137 41.5619 53.3769 41.525C53.34 41.4882 53.3193 41.4382 53.3193 41.3861V22.9221Z" fill="black"/>
<path d="M74.5709 41.94C72.4373 41.94 70.7918 41.2859 69.6347 39.9775C68.4775 38.6691 67.8989 36.8049 67.8989 34.3847C67.8989 32.1529 68.4882 30.4063 69.6667 29.1449C70.8453 27.8835 72.48 27.2529 74.5707 27.2529C76.7131 27.2529 78.3629 27.8963 79.52 29.1833C80.6772 30.4703 81.2558 32.3024 81.2558 34.6798C81.2558 34.6798 81.2514 35.2313 81.1903 35.5135H71.6286C71.7146 36.6169 71.9598 37.4422 72.3641 37.9894C72.8802 38.6733 73.7406 39.0152 74.9452 39.0152C75.5044 39.0152 76.0227 38.8571 76.5003 38.5407C76.9267 38.258 77.2005 37.9242 77.3216 37.5394C77.334 37.499 77.3589 37.4636 77.3928 37.4384C77.4266 37.4131 77.4677 37.3994 77.5099 37.399H80.8767C80.9067 37.399 80.9364 37.4059 80.9634 37.4191C80.9903 37.4324 81.0139 37.4516 81.0323 37.4754C81.0506 37.4992 81.0633 37.5269 81.0693 37.5563C81.0753 37.5857 81.0744 37.6162 81.0668 37.6452C80.7209 38.9475 80.0033 39.9769 78.9137 40.7335C77.756 41.538 76.3084 41.9402 74.5709 41.94ZM77.3973 33.1662C77.3113 32.3281 77.0876 31.6739 76.7262 31.2037C76.253 30.5795 75.5174 30.2674 74.5194 30.2674C73.5643 30.2674 72.8373 30.6308 72.3384 31.3576C72.0288 31.8194 71.8051 32.4223 71.6673 33.1662H77.3973Z" fill="black"/>
<path d="M86.8846 41.9403C85.5931 41.9403 84.5541 41.5705 83.7675 40.831C82.9809 40.0914 82.5875 39.1186 82.5874 37.9127C82.5874 36.6385 82.9423 35.6188 83.652 34.8534C84.3618 34.0881 85.3965 33.607 86.7562 33.4103L89.181 33.0768C89.8138 32.9913 90.3398 32.8458 90.7588 32.6403C90.9384 32.5549 91.0773 32.401 91.1757 32.1787C91.2725 31.966 91.3102 31.7312 91.2848 31.4988C91.2336 31.106 91.0326 30.7981 90.6818 30.5752C90.2627 30.3101 89.6598 30.1775 88.8731 30.1775C88.1721 30.1775 87.6248 30.3486 87.2314 30.6907C86.8755 31.0001 86.67 31.4251 86.615 31.9655C86.6097 32.0135 86.5868 32.0578 86.5508 32.09C86.5148 32.1222 86.4682 32.1401 86.4199 32.1401H83.2836C83.2565 32.1402 83.2296 32.1346 83.2047 32.1238C83.1798 32.113 83.1574 32.0971 83.1389 32.0772C83.1205 32.0573 83.1063 32.0337 83.0974 32.0081C83.0885 31.9824 83.085 31.9552 83.0872 31.9282C83.201 30.4004 83.7526 29.2481 84.742 28.4714C85.7766 27.6591 87.2945 27.2529 89.2956 27.2529C91.0316 27.2529 92.402 27.6189 93.4067 28.3508C94.4114 29.0826 94.9139 30.082 94.9144 31.3489V39.155C94.9144 39.7806 94.9657 40.2194 95.0682 40.4713C95.1595 40.6952 95.3313 40.8771 95.5837 41.0169C95.6142 41.0339 95.6395 41.0588 95.6571 41.0889C95.6748 41.1189 95.6841 41.1532 95.6841 41.188V41.3844C95.6841 41.4365 95.6634 41.4865 95.6266 41.5233C95.5898 41.5602 95.5398 41.5809 95.4877 41.5809H91.8636C91.8191 41.5808 91.776 41.5657 91.7412 41.538C91.7064 41.5102 91.6821 41.4715 91.6722 41.4281C91.5971 41.1007 91.4267 40.3301 91.3869 39.9128L91.3741 39.8872C90.2195 41.2561 88.723 41.9405 86.8846 41.9403ZM91.3099 36.4246V34.8213C90.8823 35.0607 90.3179 35.2531 89.6167 35.3986L88.257 35.6551C87.6157 35.7747 87.1283 35.9949 86.7947 36.3157C86.461 36.6365 86.2943 37.0406 86.2944 37.5279C86.2944 38.0839 86.4441 38.5204 86.7434 38.8374C87.0427 39.1545 87.4617 39.3126 88.0005 39.3119C89.1805 39.3119 90.1212 38.8972 90.8225 38.0679C90.9593 37.9055 91.0748 37.666 91.1689 37.3496C91.2605 37.0497 91.308 36.7381 91.3099 36.4246Z" fill="black"/>
<path d="M96.9268 22.922C96.9268 22.87 96.9474 22.82 96.9843 22.7832C97.0211 22.7463 97.0711 22.7256 97.1232 22.7256H100.412C100.464 22.7256 100.514 22.7463 100.551 22.7832C100.587 22.82 100.608 22.87 100.608 22.922V41.3863C100.608 41.4384 100.587 41.4884 100.551 41.5252C100.514 41.5621 100.464 41.5828 100.412 41.5828H97.1232C97.0711 41.5828 97.0211 41.5621 96.9843 41.5252C96.9474 41.4884 96.9268 41.4384 96.9268 41.3863V22.922Z" fill="black"/>
<path d="M110.028 41.4764C110.028 41.5261 110.009 41.574 109.975 41.6105C109.941 41.647 109.895 41.6692 109.845 41.6728C109.265 41.7147 108.569 41.7357 107.757 41.7357C106.457 41.7357 105.523 41.5029 104.955 41.0373C104.386 40.5716 104.102 39.8084 104.102 38.7476V29.9934H102.361C102.309 29.9934 102.259 29.9727 102.222 29.9359C102.185 29.899 102.165 29.8491 102.165 29.797V27.6116C102.165 27.5595 102.185 27.5095 102.222 27.4727C102.259 27.4359 102.309 27.4152 102.361 27.4152H104.102V24.0636C104.102 24.0116 104.122 23.9616 104.159 23.9248C104.196 23.8879 104.246 23.8672 104.298 23.8672H107.587C107.639 23.8672 107.689 23.8879 107.725 23.9248C107.762 23.9616 107.783 24.0116 107.783 24.0636V27.4152H109.831C109.883 27.4152 109.933 27.4359 109.97 27.4727C110.007 27.5095 110.028 27.5595 110.028 27.6116V29.797C110.028 29.8491 110.007 29.899 109.97 29.9359C109.933 29.9727 109.883 29.9934 109.831 29.9934H107.783V38.1312C107.783 38.4561 107.879 38.6699 108.072 38.7727C108.264 38.8754 108.664 38.9267 109.271 38.9265H109.831C109.883 38.9265 109.933 38.9472 109.97 38.9841C110.007 39.0209 110.028 39.0709 110.028 39.123V41.4764Z" fill="black"/>
<path d="M111.768 22.922C111.768 22.87 111.789 22.82 111.825 22.7832C111.862 22.7463 111.912 22.7256 111.964 22.7256H115.292C115.344 22.7256 115.394 22.7463 115.43 22.7832C115.467 22.82 115.488 22.87 115.488 22.922V29.3959L115.786 28.9854C116.703 27.8311 118.034 27.2539 119.778 27.2537C121.265 27.2537 122.429 27.6899 123.272 28.5622C124.114 29.4345 124.536 30.6445 124.536 32.1922V41.3855C124.536 41.4376 124.515 41.4875 124.478 41.5244C124.441 41.5612 124.391 41.5819 124.339 41.5819H121.012C120.96 41.5819 120.91 41.5612 120.873 41.5244C120.836 41.4875 120.816 41.4376 120.816 41.3855V32.8594C120.816 31.9955 120.628 31.3563 120.252 30.9416C119.876 30.5269 119.299 30.3195 118.521 30.3195C117.545 30.3195 116.795 30.6106 116.273 31.1926C115.751 31.7746 115.489 32.6126 115.488 33.7066V41.3861C115.488 41.4382 115.467 41.4882 115.43 41.525C115.394 41.5618 115.344 41.5825 115.292 41.5825H111.964C111.912 41.5825 111.862 41.5618 111.825 41.525C111.789 41.4882 111.768 41.4382 111.768 41.3861V22.922Z" fill="black"/>
<mask id="mask1_3190_7514" style="mask-type:luminance" maskUnits="userSpaceOnUse" x="0" y="10" width="44" height="45">
<path d="M44 10.5029H0V54.5029H44V10.5029Z" fill="white"/>
</mask>
<g mask="url(#mask1_3190_7514)">
<path d="M29.5059 41.9314C29.541 41.9314 29.5755 41.922 29.6057 41.9043C29.6359 41.8865 29.6609 41.8609 29.6779 41.8302C29.6949 41.7996 29.7034 41.7649 29.7025 41.7298C29.7016 41.6948 29.6913 41.6606 29.6727 41.6308L23.8161 32.2584L29.5221 26.5523C29.5495 26.5248 29.5682 26.4898 29.5758 26.4517C29.5833 26.4136 29.5794 26.3741 29.5646 26.3383C29.5497 26.3024 29.5245 26.2717 29.4922 26.2502C29.4599 26.2286 29.4219 26.2171 29.3831 26.2171H24.1173C24.0652 26.2171 24.0152 26.2379 23.9784 26.2747L18.6033 31.6492C18.5758 31.6766 18.5408 31.6953 18.5028 31.7029C18.4647 31.7105 18.4252 31.7066 18.3893 31.6917C18.3535 31.6769 18.3228 31.6517 18.3012 31.6194C18.2796 31.5872 18.2681 31.5492 18.2681 31.5104V23.2707C18.2681 23.2186 18.2474 23.1686 18.2105 23.1318C18.1737 23.0949 18.1237 23.0742 18.0716 23.0742H14.3395C14.2874 23.0742 14.2374 23.0949 14.2006 23.1318C14.1637 23.1686 14.1431 23.2186 14.1431 23.2707V41.7267C14.1431 41.7787 14.1637 41.8287 14.2006 41.8655C14.2374 41.9024 14.2874 41.9231 14.3395 41.9231H18.0716C18.1237 41.9231 18.1737 41.9024 18.2105 41.8655C18.2474 41.8287 18.2681 41.7787 18.2681 41.7267V37.8869C18.268 37.8349 18.2887 37.7849 18.3255 37.7481L20.6531 35.4204C20.674 35.3995 20.6994 35.3836 20.7273 35.3739C20.7552 35.3641 20.785 35.3608 20.8143 35.3642C20.8437 35.3675 20.8719 35.3775 20.8969 35.3932C20.9219 35.409 20.943 35.4303 20.9587 35.4553L24.9477 41.8391C24.9654 41.8673 24.9899 41.8906 25.019 41.9067C25.0482 41.9229 25.0809 41.9314 25.1142 41.9314H29.5059Z" fill="black"/>
<path d="M22 10.5029C9.8498 10.5029 0 20.3527 0 32.5029V54.3065C0 54.3586 0.0206951 54.4085 0.0575326 54.4454C0.0943701 54.4822 0.144332 54.5029 0.196429 54.5029H22C34.1502 54.5029 44 44.6531 44 32.5029C44 20.3623 34.1406 10.5029 22 10.5029ZM22 50.3779H4.32143C4.26933 50.3779 4.21937 50.3572 4.18253 50.3204C4.14569 50.2835 4.125 50.2336 4.125 50.1815V32.5799C4.125 22.7284 12.1853 14.6083 22.0367 14.6279C31.8919 14.6478 39.875 22.6431 39.875 32.5029C39.875 42.375 31.8721 50.3779 22 50.3779Z" fill="black"/>
</g>
</g>
</g>
<defs>
<clipPath id="clip0_3190_7514">
<rect width="124.536" height="65" fill="white" transform="translate(0 0.00292969)"/>
</clipPath>
</defs>
</svg>
