<svg width="182" height="65" viewBox="0 0 182 65" fill="none" xmlns="http://www.w3.org/2000/svg">
<path d="M57.0809 34.044C57.0809 42.2192 62.331 47.9193 69.6062 47.9193C76.8813 47.9193 82.1314 42.2192 82.1314 34.044C82.1314 25.8689 76.8813 20.1687 69.6062 20.1687C62.331 20.1687 57.0809 25.8689 57.0809 34.044ZM77.3313 34.044C77.3313 39.8942 74.1438 43.6817 69.6062 43.6817C65.0686 43.6817 61.881 39.8942 61.881 34.044C61.881 28.1939 65.0686 24.4063 69.6062 24.4063C74.1438 24.4063 77.3313 28.1939 77.3313 34.044Z" fill="black"/>
<path d="M95.6489 47.9194C101.162 47.9194 104.312 43.2693 104.312 37.6817C104.312 32.0941 101.162 27.444 95.6489 27.444C93.0989 27.444 91.2238 28.4565 89.9863 29.919V27.819H85.4862V54.257H89.9863V45.4444C91.2238 46.9069 93.0989 47.9194 95.6489 47.9194ZM89.8738 37.1192C89.8738 33.4066 91.9739 31.3816 94.7489 31.3816C98.0115 31.3816 99.774 33.9316 99.774 37.6817C99.774 41.4318 98.0115 43.9818 94.7489 43.9818C91.9739 43.9818 89.8738 41.9193 89.8738 38.2817V37.1192Z" fill="black"/>
<path d="M116.49 47.9194C120.428 47.9194 123.54 45.8569 124.928 42.4068L121.065 40.9443C120.465 42.9693 118.703 44.0943 116.49 44.0943C113.602 44.0943 111.577 42.0318 111.24 38.6567H125.04V37.1567C125.04 31.7566 122.003 27.444 116.303 27.444C110.602 27.444 106.927 31.9066 106.927 37.6817C106.927 43.7568 110.865 47.9194 116.49 47.9194ZM116.265 31.2316C119.115 31.2316 120.465 33.1066 120.503 35.2816H111.465C112.14 32.6191 113.94 31.2316 116.265 31.2316Z" fill="black"/>
<path d="M128.417 47.5069H132.917V35.9567C132.917 33.1441 134.979 31.6441 137.004 31.6441C139.48 31.6441 140.455 33.4066 140.455 35.8442V47.5069H144.955V34.5316C144.955 30.294 142.48 27.444 138.355 27.444C135.804 27.444 134.042 28.6065 132.917 29.919V27.819H128.417V47.5069Z" fill="black"/>
<path d="M158.135 20.5813L147.934 47.5069H152.697L154.985 41.3568H166.61L168.935 47.5069H173.772L163.572 20.5813H158.135ZM160.76 25.9065L165.035 37.1567H156.56L160.76 25.9065Z" fill="black"/>
<path d="M181.498 20.6595H176.697V47.585H181.498V20.6595Z" fill="black"/>
<path d="M46.0838 30.4706C47.2182 27.0658 46.8276 23.3361 45.0135 20.2391C42.2853 15.489 36.8008 13.0452 31.4445 14.1952C29.0616 11.5108 25.6381 9.98422 22.0489 10.0061C16.5738 9.99359 11.7159 13.5187 10.0315 18.7282C6.51423 19.4485 3.47823 21.6501 1.70163 24.7705C-1.04687 29.5081 -0.42029 35.4801 3.25166 39.5427C2.11726 42.9474 2.5079 46.6772 4.322 49.7741C7.05018 54.5242 12.5347 56.968 17.891 55.818C20.2723 58.5024 23.6974 60.029 27.2865 60.0056C32.7648 60.0197 37.6243 56.4915 39.3087 51.2773C42.8259 50.557 45.8619 48.3553 47.6385 45.235C50.3839 40.4974 49.7558 34.53 46.0854 30.4675L46.0838 30.4706ZM27.2897 56.7383C25.0974 56.7415 22.974 55.9743 21.2911 54.5695C21.3677 54.5289 21.5005 54.4555 21.5864 54.4024L31.5429 48.6522C32.0523 48.3632 32.3648 47.821 32.3617 47.235V33.1988L36.5696 35.6285C36.6149 35.6504 36.6446 35.6941 36.6508 35.7441V47.3678C36.6446 52.5367 32.4585 56.7274 27.2897 56.7383ZM7.158 48.1397C6.05954 46.2428 5.66421 44.0193 6.04079 41.8615C6.11422 41.9052 6.24391 41.9849 6.3361 42.038L16.2926 47.7881C16.7973 48.0835 17.4223 48.0835 17.9285 47.7881L30.0835 40.7692V45.6287C30.0866 45.6787 30.0632 45.7272 30.0241 45.7584L19.9598 51.5695C15.4769 54.1508 9.7518 52.6164 7.15956 48.1397H7.158ZM4.53763 26.4064C5.6314 24.5064 7.358 23.0532 9.41429 22.2985C9.41429 22.3845 9.40961 22.536 9.40961 22.6423V34.1441C9.40648 34.7285 9.71899 35.2707 10.2268 35.5598L22.3818 42.5771L18.1739 45.0068C18.1317 45.035 18.0785 45.0396 18.0317 45.0193L7.96583 39.2036C3.49229 36.6129 1.95789 30.8893 4.53607 26.408L4.53763 26.4064ZM39.1102 34.4519L26.9553 27.433L31.1632 25.0048C31.2054 24.9767 31.2585 24.972 31.3054 24.9923L41.3712 30.8034C45.8526 33.3925 47.3885 39.1255 44.7994 43.6068C43.7041 45.5037 41.9791 46.9569 39.9243 47.7131V35.8676C39.929 35.2832 39.6181 34.7426 39.1118 34.4519H39.1102ZM43.2978 28.1487C43.2244 28.1034 43.0947 28.0252 43.0025 27.9721L33.046 22.222C32.5413 21.9267 31.9163 21.9267 31.4101 22.222L19.2551 29.2409V24.3814C19.252 24.3314 19.2754 24.283 19.3145 24.2517L29.3788 18.4453C33.8617 15.8593 39.5931 17.3984 42.1775 21.8829C43.2697 23.7767 43.665 25.9939 43.2947 28.1487H43.2978ZM16.9676 36.8098L12.7581 34.38C12.7128 34.3582 12.6831 34.3144 12.6769 34.2644V22.6407C12.68 17.4656 16.8785 13.2718 22.0536 13.2749C24.2427 13.2749 26.3615 14.0437 28.0444 15.4437C27.9678 15.4843 27.8366 15.5578 27.7491 15.6109L17.7926 21.361C17.2832 21.6501 16.9707 22.1907 16.9738 22.7767L16.9676 36.8098ZM19.2536 31.8816L24.6677 28.7549L30.0819 31.88V38.1317L24.6677 41.2568L19.2536 38.1317V31.8816Z" fill="black"/>
</svg>
