<svg width="75" height="21" viewBox="0 0 75 21" fill="none" xmlns="http://www.w3.org/2000/svg">
<g clip-path="url(#clip0_2218_2222)">
<path d="M23.2979 10.365C23.2979 13.635 25.3979 15.915 28.3079 15.915C31.2179 15.915 33.3179 13.635 33.3179 10.365C33.3179 7.095 31.2179 4.815 28.3079 4.815C25.3979 4.815 23.2979 7.095 23.2979 10.365ZM31.3979 10.365C31.3979 12.705 30.1229 14.22 28.3079 14.22C26.4929 14.22 25.2179 12.705 25.2179 10.365C25.2179 8.025 26.4929 6.51 28.3079 6.51C30.1229 6.51 31.3979 8.025 31.3979 10.365Z" fill="#787878"/>
<path d="M38.7252 15.915C40.9302 15.915 42.1902 14.055 42.1902 11.82C42.1902 9.58498 40.9302 7.72498 38.7252 7.72498C37.7052 7.72498 36.9552 8.12998 36.4602 8.71498V7.87498H34.6602V18.45H36.4602V14.925C36.9552 15.51 37.7052 15.915 38.7252 15.915ZM36.4152 11.595C36.4152 10.11 37.2552 9.29998 38.3652 9.29998C39.6702 9.29998 40.3752 10.32 40.3752 11.82C40.3752 13.32 39.6702 14.34 38.3652 14.34C37.2552 14.34 36.4152 13.515 36.4152 12.06V11.595Z" fill="#787878"/>
<path d="M47.0613 15.915C48.6363 15.915 49.8813 15.09 50.4363 13.71L48.8913 13.125C48.6513 13.935 47.9463 14.385 47.0613 14.385C45.9063 14.385 45.0963 13.56 44.9613 12.21H50.4813V11.61C50.4813 9.44998 49.2663 7.72498 46.9863 7.72498C44.7063 7.72498 43.2363 9.50998 43.2363 11.82C43.2363 14.25 44.8113 15.915 47.0613 15.915ZM46.9713 9.23998C48.1113 9.23998 48.6513 9.98998 48.6663 10.86H45.0513C45.3213 9.79498 46.0413 9.23998 46.9713 9.23998Z" fill="#787878"/>
<path d="M51.832 15.75H53.632V11.13C53.632 10.005 54.457 9.40498 55.267 9.40498C56.257 9.40498 56.647 10.11 56.647 11.085V15.75H58.447V10.56C58.447 8.86498 57.457 7.72498 55.807 7.72498C54.787 7.72498 54.082 8.18998 53.632 8.71498V7.87498H51.832V15.75Z" fill="#787878"/>
<path d="M63.7187 4.97998L59.6387 15.75H61.5437L62.4587 13.29H67.1087L68.0387 15.75H69.9737L65.8937 4.97998H63.7187ZM64.7687 7.10998L66.4787 11.61H63.0887L64.7687 7.10998Z" fill="#787878"/>
<path d="M73.0636 5.01123H71.1436V15.7812H73.0636V5.01123Z" fill="#787878"/>
<path d="M18.899 8.9356C19.3527 7.57372 19.1965 6.08185 18.4708 4.8431C17.3796 2.9431 15.1858 1.9656 13.0433 2.4256C12.0902 1.35185 10.7208 0.741221 9.28521 0.749971C7.09521 0.744971 5.15208 2.15497 4.47833 4.23872C3.07146 4.52685 1.85708 5.40747 1.14646 6.6556C0.047083 8.5506 0.297708 10.9393 1.76646 12.5643C1.31271 13.9262 1.46896 15.4181 2.19458 16.6568C3.28583 18.5568 5.47958 19.5343 7.62208 19.0743C8.57458 20.1481 9.94458 20.7587 11.3802 20.7493C13.5715 20.755 15.5152 19.3437 16.189 17.2581C17.5958 16.97 18.8102 16.0893 19.5208 14.8412C20.619 12.9462 20.3677 10.5593 18.8996 8.93435L18.899 8.9356ZM11.3815 19.4425C10.5046 19.4437 9.65521 19.1368 8.98208 18.575C9.01271 18.5587 9.06583 18.5293 9.10021 18.5081L13.0827 16.2081C13.2865 16.0925 13.4115 15.8756 13.4102 15.6412V10.0268L15.0933 10.9987C15.1115 11.0075 15.1233 11.025 15.1258 11.045V15.6943C15.1233 17.7618 13.449 19.4381 11.3815 19.4425ZM3.32896 16.0031C2.88958 15.2443 2.73146 14.355 2.88208 13.4918C2.91146 13.5093 2.96333 13.5412 3.00021 13.5625L6.98271 15.8625C7.18458 15.9806 7.43458 15.9806 7.63708 15.8625L12.499 13.055V14.9987C12.5002 15.0187 12.4908 15.0381 12.4752 15.0506L8.44958 17.375C6.65646 18.4075 4.36646 17.7937 3.32958 16.0031H3.32896ZM2.28083 7.30997C2.71833 6.54997 3.40896 5.96872 4.23146 5.66685C4.23146 5.70122 4.22958 5.76185 4.22958 5.80435V10.405C4.22833 10.6387 4.35333 10.8556 4.55646 10.9712L9.41833 13.7781L7.73521 14.75C7.71833 14.7612 7.69708 14.7631 7.67833 14.755L3.65208 12.4287C1.86271 11.3925 1.24896 9.1031 2.28021 7.3106L2.28083 7.30997ZM16.1096 10.5281L11.2477 7.7206L12.9308 6.74935C12.9477 6.7381 12.969 6.73622 12.9877 6.74435L17.014 9.06872C18.8065 10.1043 19.4208 12.3975 18.3852 14.19C17.9471 14.9487 17.2571 15.53 16.4352 15.8325V11.0943C16.4371 10.8606 16.3127 10.6443 16.1102 10.5281H16.1096ZM17.7846 8.00685C17.7552 7.98872 17.7033 7.95747 17.6665 7.93622L13.684 5.63622C13.4821 5.5181 13.2321 5.5181 13.0296 5.63622L8.16771 8.44372V6.49997C8.16646 6.47997 8.17583 6.4606 8.19146 6.4481L12.2171 4.1256C14.0102 3.09122 16.3027 3.70685 17.3365 5.5006C17.7733 6.2581 17.9315 7.14497 17.7833 8.00685H17.7846ZM7.25271 11.4712L5.56896 10.4993C5.55083 10.4906 5.53896 10.4731 5.53646 10.4531V5.80372C5.53771 3.73372 7.21708 2.05622 9.28708 2.05747C10.1627 2.05747 11.0102 2.36497 11.6833 2.92497C11.6527 2.94122 11.6002 2.9706 11.5652 2.99185L7.58271 5.29185C7.37896 5.40747 7.25396 5.62372 7.25521 5.8581L7.25271 11.47V11.4712ZM8.16708 9.49997L10.3327 8.24935L12.4983 9.49935V12L10.3327 13.25L8.16708 12V9.49997Z" fill="#787878"/>
</g>
<defs>
<clipPath id="clip0_2218_2222">
<rect width="73.75" height="20" fill="white" transform="translate(0.333008 0.75)"/>
</clipPath>
</defs>
</svg>
