<svg width="163" height="30" viewBox="0 0 163 30" fill="none" xmlns="http://www.w3.org/2000/svg">
<path fill-rule="evenodd" clip-rule="evenodd" d="M43.0134 10.6026C41.9398 10.6026 41.1083 11.0097 40.5195 11.8234C39.9307 12.6367 39.636 13.7707 39.636 15.2245C39.636 18.25 40.7617 19.7629 43.0134 19.7629C43.9584 19.7629 45.1024 19.5249 46.4461 19.0484V21.4615C45.3417 21.9256 44.1083 22.1574 42.7467 22.1574C40.7895 22.1574 39.2922 21.559 38.2555 20.3617C37.2187 19.1645 36.7003 17.4462 36.7003 15.2059C36.7003 13.7955 36.9548 12.5594 37.4642 11.4981C37.9735 10.4373 38.705 9.62361 39.6589 9.05745C40.613 8.49129 41.7312 8.2082 43.0134 8.2082C44.3202 8.2082 45.6331 8.52724 46.9522 9.16407L46.0318 11.5031C45.529 11.2617 45.0226 11.0514 44.5136 10.8717C44.0043 10.6923 43.5044 10.6026 43.0134 10.6026Z" fill="white"/>
<path fill-rule="evenodd" clip-rule="evenodd" d="M48.8325 21.9715H51.6394V11.5953H48.8325V21.9715ZM48.7132 8.91329C48.7132 7.9913 49.2225 7.53011 50.2408 7.53011C51.2591 7.53011 51.7685 7.9913 51.7685 8.91329C51.7685 9.35259 51.6411 9.69435 51.3866 9.93858C51.1321 10.1832 50.7502 10.3051 50.2408 10.3051C49.2225 10.3051 48.7132 9.84105 48.7132 8.91329Z" fill="white"/>
<path fill-rule="evenodd" clip-rule="evenodd" d="M59.9918 11.4002C60.3721 11.4002 60.688 11.4279 60.9396 11.4837L60.7282 14.1381C60.5011 14.0765 60.225 14.045 59.8996 14.045C59.0038 14.045 58.306 14.2773 57.8065 14.7414C57.306 15.2055 57.0561 15.8552 57.0561 16.6904V21.9714H54.2491V11.5952H56.3751L56.7894 13.34H56.927C57.2463 12.7586 57.6773 12.2895 58.2203 11.9342C58.7633 11.5783 59.3538 11.4002 59.9918 11.4002Z" fill="white"/>
<path fill-rule="evenodd" clip-rule="evenodd" d="M66.7087 22.157C63.5063 22.157 61.9049 20.3841 61.9049 16.8387C61.9049 15.0753 62.3404 13.7281 63.2116 12.797C64.0829 11.8659 65.3315 11.4002 66.957 11.4002C68.1475 11.4002 69.215 11.6358 70.1598 12.1056L69.3318 14.2959C68.89 14.1166 68.4786 13.9695 68.0982 13.855C67.718 13.7405 67.3377 13.6834 66.957 13.6834C65.497 13.6834 64.7672 14.729 64.7672 16.8201C64.7672 18.85 65.497 19.8646 66.957 19.8646C67.4971 19.8646 67.997 19.7918 68.4573 19.6464C68.9174 19.5009 69.3776 19.2736 69.8378 18.9641V21.3866C69.3838 21.6775 68.9252 21.8784 68.4618 21.99C67.9987 22.1012 67.4144 22.157 66.7087 22.157Z" fill="white"/>
<path fill-rule="evenodd" clip-rule="evenodd" d="M71.9628 21.9714H74.7698V7.53011H71.9628V21.9714Z" fill="white"/>
<path fill-rule="evenodd" clip-rule="evenodd" d="M81.7328 13.4154C81.1378 13.4154 80.6716 13.6055 80.3338 13.9861C79.9966 14.3668 79.8036 14.9065 79.7545 15.6057H83.6932C83.6806 14.9065 83.4998 14.3668 83.1499 13.9861C82.8003 13.6055 82.3278 13.4154 81.7328 13.4154ZM82.1288 22.158C80.4721 22.158 79.1775 21.6971 78.2453 20.7752C77.3122 19.8532 76.8463 18.5477 76.8463 16.8587C76.8463 15.1202 77.277 13.7758 78.1391 12.8261C79.001 11.8761 80.193 11.4012 81.7145 11.4012C83.1683 11.4012 84.3006 11.819 85.1103 12.6543C85.9201 13.4898 86.3253 14.6436 86.3253 16.1161V17.4898H79.6902C79.7205 18.2939 79.9569 18.9221 80.3987 19.3738C80.8404 19.8255 81.46 20.0512 82.2574 20.0512C82.877 20.0512 83.463 19.9862 84.0154 19.8561C84.5674 19.7264 85.1439 19.5193 85.7454 19.2345V21.4248C85.2546 21.6723 84.7296 21.8562 84.1719 21.9769C83.6134 22.0976 82.9324 22.158 82.1288 22.158Z" fill="white"/>
<path fill-rule="evenodd" clip-rule="evenodd" d="M99.42 21.9722L96.1807 11.3271H96.098C96.2144 13.4925 96.2725 14.9373 96.2725 15.6613V21.9722H93.7237V8.40366H97.6072L100.791 18.7794H100.846L104.224 8.40366H108.107V21.9722H105.448V15.5498C105.448 15.2468 105.453 14.8972 105.462 14.5009C105.471 14.105 105.512 13.0532 105.586 11.3457H105.503L102.034 21.9722H99.42Z" fill="white"/>
<path fill-rule="evenodd" clip-rule="evenodd" d="M115.3 13.4154C114.705 13.4154 114.239 13.6055 113.902 13.9861C113.564 14.3668 113.371 14.9065 113.322 15.6057H117.261C117.248 14.9065 117.067 14.3668 116.717 13.9861C116.368 13.6055 115.896 13.4154 115.3 13.4154ZM115.696 22.158C114.039 22.158 112.745 21.6971 111.813 20.7752C110.879 19.8532 110.414 18.5477 110.414 16.8587C110.414 15.1202 110.845 13.7758 111.707 12.8261C112.568 11.8761 113.761 11.4012 115.282 11.4012C116.736 11.4012 117.869 11.819 118.677 12.6543C119.487 13.4898 119.892 14.6436 119.892 16.1161V17.4898H113.258C113.288 18.2939 113.524 18.9221 113.966 19.3738C114.408 19.8255 115.028 20.0512 115.825 20.0512C116.445 20.0512 117.03 19.9862 117.583 19.8561C118.135 19.7264 118.711 19.5193 119.313 19.2345V21.4248C118.822 21.6723 118.297 21.8562 117.739 21.9769C117.181 22.0976 116.5 22.158 115.696 22.158Z" fill="white"/>
<path fill-rule="evenodd" clip-rule="evenodd" d="M126.352 19.902C127.07 19.902 127.596 19.6917 127.93 19.2709C128.265 18.8502 128.447 18.1357 128.478 17.1269V16.8207C128.478 15.707 128.308 14.909 127.967 14.4263C127.626 13.9436 127.072 13.7022 126.306 13.7022C125.68 13.7022 125.193 13.9701 124.848 14.5052C124.501 15.0404 124.327 15.8185 124.327 16.8393C124.327 17.8605 124.502 18.6258 124.852 19.1362C125.202 19.647 125.701 19.902 126.352 19.902ZM125.367 22.1575C124.158 22.1575 123.209 21.6839 122.519 20.7371C121.828 19.7903 121.484 18.479 121.484 16.802C121.484 15.1006 121.834 13.7748 122.537 12.8252C123.24 11.8755 124.208 11.4007 125.441 11.4007C126.736 11.4007 127.723 11.9078 128.405 12.9227H128.496C128.355 12.1491 128.284 11.4593 128.284 10.8531V7.53011H131.1V21.9714H128.947L128.405 20.6259H128.284C127.647 21.6466 126.675 22.1575 125.367 22.1575Z" fill="white"/>
<path fill-rule="evenodd" clip-rule="evenodd" d="M133.696 21.9715H136.504V11.5953H133.696V21.9715ZM133.577 8.91329C133.577 7.9913 134.086 7.53011 135.104 7.53011C136.123 7.53011 136.632 7.9913 136.632 8.91329C136.632 9.35259 136.505 9.69435 136.251 9.93858C135.996 10.1832 135.614 10.3051 135.104 10.3051C134.086 10.3051 133.577 9.84105 133.577 8.91329Z" fill="white"/>
<path fill-rule="evenodd" clip-rule="evenodd" d="M143.353 22.157C140.151 22.157 138.55 20.3841 138.55 16.8387C138.55 15.0753 138.985 13.7281 139.856 12.797C140.728 11.8659 141.976 11.4002 143.602 11.4002C144.792 11.4002 145.859 11.6358 146.805 12.1056L145.977 14.2959C145.535 14.1166 145.123 13.9695 144.742 13.855C144.363 13.7405 143.983 13.6834 143.602 13.6834C142.141 13.6834 141.412 14.729 141.412 16.8201C141.412 18.85 142.141 19.8646 143.602 19.8646C144.142 19.8646 144.641 19.7918 145.101 19.6464C145.562 19.5009 146.023 19.2736 146.483 18.9641V21.3866C146.029 21.6775 145.57 21.8784 145.107 21.99C144.643 22.1012 144.059 22.157 143.353 22.157Z" fill="white"/>
<path fill-rule="evenodd" clip-rule="evenodd" d="M154.353 17.1641L153.267 17.2012C152.452 17.226 151.844 17.3744 151.445 17.6467C151.046 17.9191 150.847 18.3336 150.847 18.8903C150.847 19.6883 151.3 20.0874 152.209 20.0874C152.859 20.0874 153.379 19.899 153.769 19.5217C154.158 19.1444 154.353 18.6431 154.353 18.0178V17.1641ZM155.181 21.9716L154.639 20.5611H154.565C154.092 21.1613 153.607 21.5774 153.106 21.8093C152.606 22.0415 151.954 22.1576 151.15 22.1576C150.163 22.1576 149.385 21.8729 148.817 21.3034C148.25 20.7343 147.967 19.924 147.967 18.8718C147.967 17.7708 148.348 16.9584 149.112 16.4356C149.876 15.9129 151.028 15.6236 152.568 15.5677L154.353 15.512V15.0574C154.353 14.0056 153.82 13.4795 152.752 13.4795C151.93 13.4795 150.964 13.73 149.853 14.2313L148.924 12.3195C150.108 11.6947 151.421 11.3822 152.862 11.3822C154.242 11.3822 155.301 11.6856 156.037 12.2914C156.774 12.8981 157.142 13.8201 157.142 15.0574V21.9716H155.181Z" fill="white"/>
<path fill-rule="evenodd" clip-rule="evenodd" d="M159.693 21.9714H162.5V7.53011H159.693V21.9714Z" fill="white"/>
<path fill-rule="evenodd" clip-rule="evenodd" d="M15.0103 2.59364C13.1281 2.59364 11.7198 4.49794 10.3572 6.34025C9.75856 7.14942 9.13979 7.98626 8.48374 8.64789C7.82768 9.30952 6.99788 9.93313 6.19553 10.5369C4.36915 11.9106 2.48048 13.3318 2.48048 15.2298C2.48048 17.128 4.36915 18.5492 6.19553 19.9228C6.99788 20.5266 7.82768 21.1506 8.48374 21.8118C9.13979 22.4735 9.75896 23.3103 10.3577 24.1203C11.7202 25.9618 13.1285 27.8661 15.0103 27.8661C16.8924 27.8661 18.3008 25.9618 19.6633 24.1203C20.2619 23.3103 20.8808 22.4735 21.5372 21.8118C22.1933 21.1506 23.0231 20.5266 23.8254 19.9228C25.6522 18.5483 27.5405 17.128 27.5405 15.2298C27.5405 13.3318 25.6522 11.9114 23.8254 10.5369C23.0231 9.93313 22.1933 9.30952 21.5372 8.64789C20.8812 7.98626 20.2623 7.14942 19.6641 6.34025C18.3012 4.49794 16.8924 2.59364 15.0103 2.59364ZM15.0103 29.5297C12.3013 29.5297 10.5663 27.1841 9.03536 25.1153C8.44569 24.3177 7.8888 23.5652 7.31715 22.9891C6.74552 22.4121 5.99931 21.8509 5.20885 21.2562C3.15709 19.7123 0.83078 17.9626 0.83078 15.2297C0.83078 12.4968 3.15709 10.7471 5.20885 9.20314C5.99931 8.60846 6.74552 8.04767 7.31715 7.47035C7.8888 6.89426 8.44528 6.14172 9.03453 5.34495C10.5659 3.27535 12.3009 0.929688 15.0103 0.929688C17.7202 0.929688 19.4552 3.27535 20.9862 5.34495C21.5757 6.14172 22.1323 6.89426 22.7039 7.47035C23.2755 8.04767 24.0218 8.60846 24.8122 9.20314C26.8644 10.7471 29.1903 12.4968 29.1903 15.2297C29.1903 17.9626 26.8644 19.7123 24.8122 21.2562C24.0218 21.8509 23.2755 22.4121 22.7039 22.9891C22.1319 23.5652 21.5753 24.3177 20.9858 25.1153C19.4548 27.1841 17.7198 29.5297 15.0103 29.5297Z" fill="white"/>
<path fill-rule="evenodd" clip-rule="evenodd" d="M9.08438 5.32595C7.92267 5.32595 6.88429 5.55407 6.14997 6.29421C4.81941 7.63607 5.15912 9.98751 5.48694 12.2621C5.63119 13.2605 5.78035 14.2933 5.78035 15.2293C5.78035 16.1653 5.63119 17.1981 5.48694 18.1969C5.15912 20.4711 4.81941 22.8225 6.14997 24.1644C7.48051 25.5071 9.81338 25.1641 12.0672 24.833C13.058 24.688 14.0825 24.5379 15.0102 24.5379C15.9379 24.5379 16.9627 24.688 17.9536 24.833C20.207 25.1653 22.5403 25.5071 23.8704 24.1644C25.2009 22.8225 24.8617 20.4711 24.5338 18.1969C24.3896 17.1981 24.2405 16.1645 24.2405 15.2293C24.2405 14.2941 24.3896 13.2605 24.5338 12.2621C24.8617 9.98751 25.2009 7.63607 23.8704 6.29421C22.5407 4.95278 20.209 5.29496 17.9536 5.62473C16.9627 5.77062 15.9383 5.92104 15.0102 5.92104C14.0825 5.92104 13.058 5.77062 12.0672 5.62473C11.0562 5.47679 10.0293 5.32595 9.08438 5.32595ZM9.07217 26.7966C7.55477 26.7966 6.10538 26.4722 4.98382 25.3416C3.0677 23.4088 3.48568 20.5126 3.85447 17.9579C3.99666 16.9735 4.13026 16.0445 4.13026 15.2291C4.13026 14.4138 3.99666 13.4851 3.85447 12.5008C3.48568 9.94563 3.0677 7.04951 4.98382 5.11711C6.89953 3.18595 9.77044 3.60706 12.3054 3.97817C13.2806 4.12198 14.2018 4.25712 15.0103 4.25712C15.8188 4.25712 16.7404 4.12198 17.7156 3.97817C20.2489 3.60706 23.1218 3.18595 25.0371 5.11711C26.9529 7.04951 26.5349 9.94563 26.1665 12.5016C26.0243 13.4851 25.8907 14.4138 25.8907 15.2291C25.8907 16.0445 26.0243 16.9735 26.1665 17.9571C26.5349 20.5126 26.9529 23.4088 25.0371 25.3416C23.1214 27.2732 20.2501 26.8521 17.7156 26.4797C16.7404 26.3367 15.8188 26.2016 15.0103 26.2016C14.2018 26.2016 13.2806 26.3367 12.3054 26.4797C11.255 26.6343 10.1466 26.7966 9.07217 26.7966Z" fill="white"/>
</svg>
