<svg width="138" height="25" viewBox="0 0 138 25" fill="none" xmlns="http://www.w3.org/2000/svg">
<g clip-path="url(#clip0_4280_1044)">
<path d="M32.1144 14.7148C30.7619 14.7148 29.735 14.4136 29.0342 13.811C28.3331 13.1961 27.9702 12.3661 27.9456 11.3208H30.4174C30.4174 11.702 30.5649 12.0156 30.8602 12.2615C31.1553 12.5075 31.5735 12.6304 32.1144 12.6304C32.6309 12.6304 33.0246 12.5505 33.295 12.3907C33.5654 12.2185 33.7008 12.0033 33.7008 11.7451C33.7008 11.2778 33.332 10.9703 32.5942 10.8228L31.0448 10.5276C29.1755 10.171 28.2409 9.19955 28.2409 7.6132C28.2409 6.80158 28.5789 6.1314 29.2554 5.60263C29.9441 5.06154 30.8786 4.79102 32.0592 4.79102C33.2396 4.79102 34.1865 5.09228 34.8998 5.69484C35.613 6.2851 35.9697 7.04755 35.9697 7.98211H33.5349C33.5349 7.62552 33.3995 7.33652 33.1291 7.11517C32.8708 6.88153 32.5018 6.76471 32.0222 6.76471C31.6043 6.76471 31.2722 6.84462 31.0261 7.00451C30.7803 7.16437 30.6573 7.37342 30.6573 7.63165C30.6573 8.07435 30.9832 8.36335 31.6348 8.4986L33.3871 8.81218C34.2603 8.98433 34.9428 9.29179 35.4347 9.73448C35.9389 10.1772 36.1909 10.8412 36.1909 11.7266C36.1909 12.6612 35.8097 13.3929 35.0473 13.9217C34.2849 14.4504 33.3074 14.7148 32.1144 14.7148Z" fill="white"/>
<path d="M37.9019 14.5488V4.95703H40.3737V14.5488H37.9019Z" fill="white"/>
<path d="M53.4898 4.79102C54.5475 4.79102 55.3899 5.10457 56.0169 5.73174C56.644 6.35889 56.9577 7.20125 56.9577 8.25882V14.5488H54.4859V8.95975C54.4859 7.68085 53.9326 7.04139 52.826 7.04139C52.2478 7.04139 51.7991 7.23815 51.4792 7.63165C51.1596 8.02515 50.9996 8.56009 50.9996 9.23643V14.5488H48.5465V8.95975C48.5465 7.68085 47.987 7.04139 46.8679 7.04139C46.2898 7.04139 45.8227 7.23815 45.466 7.63165C45.1094 8.02515 44.9311 8.56009 44.9311 9.23643V14.5488H42.4593V4.95701H44.6728L44.8573 6.04533H44.9311C45.5582 5.2091 46.4559 4.79102 47.6241 4.79102C48.9644 4.79102 49.9238 5.26446 50.5017 6.21132H50.5571C51.1966 5.26446 52.1741 4.79102 53.4898 4.79102Z" fill="white"/>
<path d="M59.0497 18.7729V4.95701H61.2632L61.5215 5.98997H61.5952C62.2101 5.19065 63.0955 4.79102 64.2515 4.79102C65.4443 4.79102 66.3975 5.25214 67.1107 6.17444C67.824 7.08443 68.1806 8.28341 68.1806 9.77136C68.1806 11.2224 67.8299 12.4091 67.1291 13.3314C66.428 14.2537 65.4689 14.7148 64.2515 14.7148C63.0955 14.7148 62.2101 14.3152 61.5952 13.5159H61.5215V18.7729H59.0497ZM61.9273 11.782C62.2717 12.2861 62.8129 12.5382 63.5507 12.5382C64.2885 12.5382 64.8235 12.2861 65.1555 11.782C65.4997 11.2655 65.6718 10.5953 65.6718 9.77136C65.6718 8.93516 65.4997 8.25882 65.1555 7.74234C64.8235 7.22586 64.2885 6.9676 63.5507 6.9676C62.825 6.9676 62.2901 7.23199 61.9459 7.76077C61.6014 8.27725 61.4293 8.94746 61.4293 9.77136C61.4293 10.5953 61.5952 11.2655 61.9273 11.782Z" fill="white"/>
<path d="M69.8941 14.5478V0.897949H72.3659V14.5478H69.8941Z" fill="white"/>
<path d="M78.5463 14.7148C77.1073 14.7148 75.9761 14.2537 75.1521 13.3314C74.3281 12.3968 73.9161 11.2101 73.9161 9.77136C73.9161 8.3326 74.3097 7.14592 75.0967 6.21132C75.8962 5.26446 77.0336 4.79102 78.5093 4.79102C79.8987 4.79102 80.9872 5.23371 81.7742 6.11911C82.5734 7.00451 82.9733 8.12355 82.9733 9.47623V10.4354H76.4433C76.4557 11.1241 76.634 11.6713 76.9782 12.0771C77.3348 12.4706 77.8576 12.6674 78.5463 12.6674C79.5667 12.6674 80.194 12.2984 80.4277 11.5606H82.8441C82.7088 12.4706 82.2538 13.2269 81.4789 13.8294C80.7165 14.4197 79.7391 14.7148 78.5463 14.7148ZM76.4616 8.79373H80.4461C80.4215 8.21578 80.2432 7.74847 79.9112 7.39185C79.5913 7.03525 79.1242 6.85694 78.5093 6.85694C77.8452 6.85694 77.341 7.03525 76.9966 7.39185C76.6645 7.74847 76.4862 8.21578 76.4616 8.79373Z" fill="white"/>
<path d="M90.2021 14.7148C88.7018 14.7148 87.5458 14.2598 86.7342 13.3499C85.9347 12.4398 85.5352 11.247 85.5352 9.77136C85.5352 8.2957 85.9409 7.09672 86.7525 6.17444C87.5641 5.25214 88.714 4.79102 90.2021 4.79102C91.6777 4.79102 92.8213 5.25214 93.6329 6.17444C94.4445 7.09672 94.8503 8.2957 94.8503 9.77136C94.8503 11.2347 94.4445 12.4276 93.6329 13.3499C92.8335 14.2598 91.6899 14.7148 90.2021 14.7148ZM88.0623 9.77136C88.0623 11.6159 88.7756 12.5382 90.2021 12.5382C91.6285 12.5382 92.3418 11.6159 92.3418 9.77136C92.3418 7.9022 91.6285 6.9676 90.2021 6.9676C88.7756 6.9676 88.0623 7.9022 88.0623 9.77136Z" fill="white"/>
<path d="M96.5721 14.5488V4.95701H98.7856L98.9699 6.04533H99.0436C99.671 5.2091 100.581 4.79102 101.774 4.79102C102.831 4.79102 103.674 5.10457 104.301 5.73174C104.94 6.35889 105.26 7.20125 105.26 8.25882V14.5488H102.788V8.95975C102.788 7.68085 102.198 7.04139 101.017 7.04139C100.427 7.04139 99.9476 7.23815 99.5786 7.63165C99.2219 8.02515 99.0436 8.56009 99.0436 9.23643V14.5488H96.5721Z" fill="white"/>
<path d="M107.344 14.5478V0.897949H109.816V14.5478H107.344Z" fill="white"/>
<path d="M111.901 14.5488V4.95703H114.373V14.5488H111.901Z" fill="white"/>
<path d="M116.459 14.5488V4.95701H118.672L118.857 6.04533H118.93C119.558 5.2091 120.468 4.79102 121.66 4.79102C122.718 4.79102 123.561 5.10457 124.188 5.73174C124.827 6.35889 125.147 7.20125 125.147 8.25882V14.5488H122.675V8.95975C122.675 7.68085 122.085 7.04139 120.904 7.04139C120.314 7.04139 119.834 7.23815 119.465 7.63165C119.109 8.02515 118.93 8.56009 118.93 9.23643V14.5488H116.459Z" fill="white"/>
<path d="M131.325 14.7148C129.887 14.7148 128.755 14.2537 127.932 13.3314C127.108 12.3968 126.696 11.2101 126.696 9.77136C126.696 8.3326 127.089 7.14592 127.876 6.21132C128.675 5.26446 129.813 4.79102 131.289 4.79102C132.678 4.79102 133.766 5.23371 134.553 6.11911C135.353 7.00451 135.752 8.12355 135.752 9.47623V10.4354H129.223C129.235 11.1241 129.413 11.6713 129.758 12.0771C130.114 12.4706 130.637 12.6674 131.325 12.6674C132.346 12.6674 132.973 12.2984 133.207 11.5606H135.623C135.488 12.4706 135.033 13.2269 134.258 13.8294C133.496 14.4197 132.518 14.7148 131.325 14.7148ZM129.241 8.79373H133.226C133.201 8.21578 133.023 7.74847 132.691 7.39185C132.371 7.03525 131.904 6.85694 131.289 6.85694C130.625 6.85694 130.121 7.03525 129.776 7.39185C129.444 7.74847 129.266 8.21578 129.241 8.79373Z" fill="white"/>
<path d="M90.6012 17.0745H91.4976V22.4384H90.6012V20.0783H88.0954V22.4384H87.1987V17.0745H88.0954V19.2584H90.6012V17.0745Z" fill="white"/>
<path d="M92.8336 22.4384V17.0745H96.4506V17.8867H93.7303V19.266H96.2131V20.0783H93.7303V21.6339H96.4506V22.4384H92.8336Z" fill="white"/>
<path d="M100.047 17.0745L101.97 22.3618V22.4384H100.99L100.568 21.1971H98.3765L97.9551 22.4384H97.0049V22.3618L98.9207 17.0745H100.047ZM98.6448 20.4078H100.3L99.4877 18.017H99.4569L98.6448 20.4078Z" fill="white"/>
<path d="M102.809 22.4384V17.0745H103.705V21.6262H106.234V22.4384H102.809Z" fill="white"/>
<path d="M107.371 22.4384V17.8867H105.754V17.0745H109.892V17.8867H108.275V22.4384H107.371Z" fill="white"/>
<path d="M114.159 17.0745H115.055V22.4384H114.159V20.0783H111.653V22.4384H110.756V17.0745H111.653V19.2584H114.159V17.0745Z" fill="white"/>
<path d="M118.552 22.5071C117.765 22.5071 117.157 22.2567 116.728 21.7561C116.299 21.2503 116.085 20.5862 116.085 19.7638C116.085 18.9362 116.299 18.2695 116.728 17.7638C117.157 17.258 117.765 17.0051 118.552 17.0051C119.201 17.0051 119.724 17.1865 120.123 17.5492C120.521 17.9119 120.746 18.3844 120.797 18.9668H119.878C119.842 18.6245 119.712 18.3512 119.487 18.1469C119.262 17.9375 118.95 17.8327 118.552 17.8327C118.031 17.8327 117.643 18.0115 117.387 18.3691C117.132 18.7216 117.004 19.1865 117.004 19.7638C117.004 20.341 117.132 20.8059 117.387 21.1584C117.643 21.5109 118.031 21.6871 118.552 21.6871C118.94 21.6871 119.244 21.5901 119.464 21.3959C119.684 21.2018 119.824 20.9362 119.885 20.599H120.797C120.731 21.1661 120.501 21.6258 120.108 21.9783C119.714 22.3308 119.196 22.5071 118.552 22.5071Z" fill="white"/>
<path d="M124.241 17.0745L126.164 22.3618V22.4384H125.183L124.762 21.1971H122.57L122.149 22.4384H121.199V22.3618L123.114 17.0745H124.241ZM122.838 20.4078H124.494L123.681 18.017H123.651L122.838 20.4078Z" fill="white"/>
<path d="M129.914 20.3082L131.286 22.3618V22.4384H130.266L128.972 20.4155H127.899V22.4384H127.002V17.0745H129.27C129.807 17.0745 130.233 17.2328 130.55 17.5496C130.867 17.8663 131.025 18.2596 131.025 18.7296C131.025 19.1128 130.926 19.4448 130.726 19.7258C130.527 20.0017 130.256 20.1958 129.914 20.3082ZM127.899 17.8867V19.6032H129.217C129.508 19.6032 129.727 19.5266 129.876 19.3733C130.024 19.215 130.098 19.0029 130.098 18.7373C130.098 18.4767 130.021 18.2699 129.868 18.1166C129.72 17.9633 129.503 17.8867 129.217 17.8867H127.899Z" fill="white"/>
<path d="M132.136 22.4384V17.0745H135.753V17.8867H133.033V19.266H135.515V20.0783H133.033V21.6339H135.753V22.4384H132.136Z" fill="white"/>
<path fill-rule="evenodd" clip-rule="evenodd" d="M9.81057 0.980225H16.6824L15.0628 8.7425L15.0191 8.95167L9.00986 7.6962L7.6787 14.076L7.1032 13.9558L0.720764 12.6224V5.74614L8.47801 7.3668L9.81057 0.980225Z" fill="white"/>
<path fill-rule="evenodd" clip-rule="evenodd" d="M12.8382 22.0945L14.1899 15.6163L21.8344 17.2133V11.3587L9.75458 8.83496L6.98795 22.0945H12.8382Z" fill="white"/>
</g>
<defs>
<clipPath id="clip0_4280_1044">
<rect width="136.615" height="24" fill="white" transform="translate(0.692322 0.689209)"/>
</clipPath>
</defs>
</svg>
