<svg width="75" height="39" viewBox="0 0 75 39" fill="none" xmlns="http://www.w3.org/2000/svg">
<g clip-path="url(#clip0_4257_75236)">
<mask id="mask0_4257_75236" style="mask-type:luminance" maskUnits="userSpaceOnUse" x="0" y="6" width="75" height="27">
<path d="M74.5094 6.67236H0.823822V32.7063H74.5094V6.67236Z" fill="white"/>
</mask>
<g mask="url(#mask0_4257_75236)">
<path d="M32.3719 14.0201C32.3719 13.9892 32.3841 13.9597 32.406 13.9379C32.4277 13.9161 32.4573 13.9038 32.4882 13.9038H34.4568C34.4876 13.9038 34.5172 13.9161 34.539 13.9379C34.5608 13.9597 34.5731 13.9892 34.5731 14.0201V17.8505L34.7494 17.6076C35.2918 16.9246 36.0792 16.5831 37.1116 16.5831C37.9911 16.5831 38.6801 16.8411 39.1786 17.3572C39.677 17.8733 39.9263 18.5893 39.9264 19.505V24.9445C39.9264 24.9753 39.9142 25.0049 39.8923 25.0267C39.8706 25.0485 39.841 25.0607 39.8102 25.0607H37.8415C37.8107 25.0607 37.7811 25.0485 37.7593 25.0267C37.7375 25.0049 37.7252 24.9753 37.7252 24.9445V19.8998C37.7252 19.3886 37.6141 19.0104 37.3916 18.7651C37.1691 18.5197 36.8278 18.397 36.3678 18.397C35.7899 18.397 35.3463 18.5692 35.0371 18.9136C34.7277 19.2579 34.5731 19.7538 34.5731 20.4011V24.9449C34.5731 24.9757 34.5608 25.0053 34.539 25.0271C34.5172 25.0489 34.4876 25.0611 34.4568 25.0611H32.4882C32.4573 25.0611 32.4277 25.0489 32.406 25.0271C32.3841 25.0053 32.3719 24.9757 32.3719 24.9449V14.0201Z" fill="white"/>
<path d="M44.9459 25.2733C43.6835 25.2733 42.7099 24.8863 42.0253 24.1122C41.3406 23.338 40.9982 22.235 40.9982 20.803C40.9982 19.4825 41.3469 18.4491 42.0442 17.7027C42.7416 16.9564 43.7088 16.5833 44.9458 16.5833C46.2134 16.5833 47.1896 16.9639 47.8742 17.7254C48.5589 18.4869 48.9013 19.5709 48.9013 20.9776C48.9013 20.9776 48.8986 21.3039 48.8625 21.4709H43.205C43.2559 22.1238 43.401 22.6121 43.6402 22.9358C43.9456 23.3405 44.4547 23.5428 45.1674 23.5428C45.4983 23.5428 45.8049 23.4492 46.0875 23.262C46.3398 23.0948 46.5018 22.8973 46.5735 22.6696C46.5808 22.6457 46.5955 22.6247 46.6156 22.6098C46.6356 22.5948 46.6599 22.5867 46.6849 22.5865H48.6769C48.6947 22.5865 48.7123 22.5906 48.7282 22.5984C48.7442 22.6063 48.7581 22.6176 48.769 22.6317C48.7798 22.6458 48.7874 22.6622 48.7909 22.6796C48.7945 22.697 48.7939 22.715 48.7894 22.7322C48.5848 23.5027 48.1602 24.1118 47.5155 24.5595C46.8305 25.0355 45.974 25.2734 44.9459 25.2733ZM46.6183 20.082C46.5674 19.5862 46.435 19.1991 46.2212 18.9209C45.9412 18.5515 45.506 18.3669 44.9155 18.3669C44.3503 18.3669 43.9202 18.5819 43.625 19.0119C43.4418 19.2852 43.3095 19.6419 43.2279 20.082H46.6183Z" fill="white"/>
<path d="M52.2317 25.2733C51.4675 25.2733 50.8527 25.0545 50.3873 24.6169C49.9219 24.1793 49.6891 23.6037 49.6891 22.8902C49.6891 22.1363 49.8991 21.533 50.319 21.0801C50.739 20.6273 51.3512 20.3426 52.1557 20.2262L53.5904 20.0289C53.9648 19.9783 54.276 19.8922 54.5239 19.7706C54.6302 19.7201 54.7124 19.629 54.7706 19.4975C54.8279 19.3717 54.8502 19.2327 54.8352 19.0952C54.8049 18.8628 54.686 18.6806 54.4784 18.5487C54.2304 18.3919 53.8737 18.3134 53.4082 18.3134C52.9934 18.3134 52.6696 18.4147 52.4369 18.6171C52.2263 18.8002 52.1047 19.0516 52.0721 19.3714C52.069 19.3998 52.0555 19.426 52.0342 19.445C52.0129 19.4641 51.9853 19.4747 51.9567 19.4747H50.101C50.085 19.4747 50.0691 19.4714 50.0543 19.465C50.0396 19.4586 50.0263 19.4492 50.0154 19.4375C50.0045 19.4257 49.9961 19.4117 49.9908 19.3966C49.9856 19.3814 49.9835 19.3653 49.9848 19.3493C50.0521 18.4453 50.3785 17.7635 50.9639 17.304C51.5761 16.8233 52.4742 16.583 53.6582 16.583C54.6854 16.583 55.4962 16.7996 56.0907 17.2326C56.6851 17.6656 56.9824 18.2569 56.9827 19.0065V23.6253C56.9827 23.9954 57.0131 24.255 57.0737 24.4041C57.1278 24.5366 57.2294 24.6442 57.3788 24.7269C57.3968 24.737 57.4118 24.7517 57.4222 24.7695C57.4326 24.7873 57.4382 24.8076 57.4382 24.8281V24.9443C57.4382 24.9752 57.4259 25.0048 57.4041 25.0265C57.3824 25.0484 57.3528 25.0606 57.3219 25.0606H55.1776C55.1513 25.0606 55.1258 25.0516 55.1052 25.0352C55.0846 25.0188 55.0702 24.9959 55.0644 24.9702C55.02 24.7765 54.9191 24.3205 54.8956 24.0736L54.888 24.0585C54.2049 24.8684 53.3194 25.2734 52.2317 25.2733ZM54.85 22.0097V21.0611C54.597 21.2027 54.2631 21.3166 53.8482 21.4027L53.0437 21.5544C52.6642 21.6252 52.3759 21.7555 52.1785 21.9453C51.981 22.1351 51.8824 22.3742 51.8824 22.6625C51.8824 22.9915 51.971 23.2498 52.1481 23.4373C52.3252 23.625 52.5731 23.7185 52.8919 23.7181C53.5901 23.7181 54.1467 23.4727 54.5616 22.982C54.6426 22.8859 54.7109 22.7442 54.7666 22.557C54.8208 22.3796 54.8489 22.1952 54.85 22.0097Z" fill="white"/>
<path d="M58.1735 14.02C58.1735 13.9892 58.1857 13.9597 58.2075 13.9379C58.2293 13.9161 58.2588 13.9038 58.2897 13.9038H60.2357C60.2665 13.9038 60.2961 13.9161 60.318 13.9379C60.3393 13.9597 60.3517 13.9892 60.3517 14.02V24.945C60.3517 24.9758 60.3393 25.0054 60.318 25.0272C60.2961 25.049 60.2665 25.0613 60.2357 25.0613H58.2897C58.2588 25.0613 58.2293 25.049 58.2075 25.0272C58.1857 25.0054 58.1735 24.9758 58.1735 24.945V14.02Z" fill="white"/>
<path d="M65.9253 24.9984C65.9253 25.0278 65.914 25.0561 65.8939 25.0777C65.8738 25.0993 65.8466 25.1125 65.817 25.1146C65.4738 25.1394 65.062 25.1518 64.5816 25.1518C63.8124 25.1518 63.2598 25.0141 62.9237 24.7386C62.587 24.463 62.419 24.0115 62.419 23.3838V18.2041H61.3889C61.3581 18.2041 61.3285 18.1919 61.3066 18.1701C61.2847 18.1482 61.2729 18.1187 61.2729 18.0879V16.7948C61.2729 16.764 61.2847 16.7344 61.3066 16.7127C61.3285 16.6909 61.3581 16.6786 61.3889 16.6786H62.419V14.6956C62.419 14.6648 62.4308 14.6352 62.4527 14.6134C62.4746 14.5916 62.5042 14.5793 62.5349 14.5793H64.481C64.5117 14.5793 64.5413 14.5916 64.5626 14.6134C64.5845 14.6352 64.597 14.6648 64.597 14.6956V16.6786H65.8087C65.8395 16.6786 65.8691 16.6909 65.891 16.7127C65.9129 16.7344 65.9253 16.764 65.9253 16.7948V18.0879C65.9253 18.1187 65.9129 18.1482 65.891 18.1701C65.8691 18.1919 65.8395 18.2041 65.8087 18.2041H64.597V23.0191C64.597 23.2113 64.6538 23.3378 64.7679 23.3986C64.8815 23.4594 65.1182 23.4898 65.4774 23.4896H65.8087C65.8395 23.4896 65.8691 23.5019 65.891 23.5237C65.9129 23.5455 65.9253 23.5751 65.9253 23.6059V24.9984Z" fill="white"/>
<path d="M66.9548 14.02C66.9548 13.9892 66.9672 13.9597 66.9885 13.9379C67.0104 13.9161 67.04 13.9038 67.0707 13.9038H69.0399C69.0706 13.9038 69.1002 13.9161 69.1215 13.9379C69.1434 13.9597 69.1558 13.9892 69.1558 14.02V17.8505L69.3322 17.6076C69.8747 16.9246 70.6622 16.5831 71.6941 16.583C72.574 16.583 73.2627 16.8411 73.7615 17.3572C74.2597 17.8733 74.5094 18.5893 74.5094 19.505V24.9445C74.5094 24.9753 74.4969 25.0049 74.475 25.0267C74.4531 25.0485 74.4236 25.0607 74.3928 25.0607H72.4243C72.3935 25.0607 72.3639 25.0485 72.342 25.0267C72.3201 25.0049 72.3083 24.9753 72.3083 24.9445V19.8998C72.3083 19.3886 72.1971 19.0104 71.9746 18.7651C71.7521 18.5197 71.4107 18.397 70.9504 18.397C70.3729 18.397 69.9292 18.5692 69.6203 18.9136C69.3114 19.2579 69.1564 19.7538 69.1558 20.4011V24.9449C69.1558 24.9757 69.1434 25.0053 69.1215 25.0271C69.1002 25.0488 69.0706 25.0611 69.0399 25.0611H67.0707C67.04 25.0611 67.0104 25.0488 66.9885 25.0271C66.9672 25.0053 66.9548 24.9757 66.9548 24.9449V14.02Z" fill="white"/>
<mask id="mask1_4257_75236" style="mask-type:luminance" maskUnits="userSpaceOnUse" x="0" y="6" width="27" height="27">
<path d="M26.8578 6.67236H0.823822V32.7063H26.8578V6.67236Z" fill="white"/>
</mask>
<g mask="url(#mask1_4257_75236)">
<path d="M18.2818 25.2678C18.3025 25.2678 18.323 25.2622 18.3408 25.2518C18.3587 25.2412 18.3735 25.2261 18.3835 25.2079C18.3936 25.1898 18.3986 25.1693 18.3981 25.1485C18.3976 25.1278 18.3915 25.1076 18.3805 25.0899L14.9152 19.5445L18.2914 16.1683C18.3076 16.152 18.3186 16.1313 18.3231 16.1088C18.3276 16.0862 18.3253 16.0628 18.3165 16.0417C18.3077 16.0204 18.2928 16.0023 18.2737 15.9895C18.2546 15.9768 18.2321 15.9699 18.2091 15.9699H15.0934C15.0626 15.9699 15.033 15.9823 15.0113 16.004L11.8309 19.184C11.8146 19.2002 11.7939 19.2113 11.7714 19.2158C11.7489 19.2203 11.7255 19.218 11.7043 19.2092C11.6831 19.2004 11.6649 19.1855 11.6522 19.1664C11.6394 19.1473 11.6326 19.1248 11.6326 19.1019V14.2266C11.6326 14.1958 11.6203 14.1662 11.5985 14.1444C11.5767 14.1226 11.5471 14.1104 11.5163 14.1104H9.3081C9.27727 14.1104 9.24769 14.1226 9.22592 14.1444C9.20408 14.1662 9.19189 14.1958 9.19189 14.2266V25.1467C9.19189 25.1774 9.20408 25.207 9.22592 25.2288C9.24769 25.2506 9.27727 25.2629 9.3081 25.2629H11.5163C11.5471 25.2629 11.5767 25.2506 11.5985 25.2288C11.6203 25.207 11.6326 25.1774 11.6326 25.1467V22.8747C11.6325 22.844 11.6448 22.8144 11.6665 22.7926L13.0437 21.4154C13.0561 21.403 13.0711 21.3936 13.0876 21.3879C13.1041 21.3821 13.1218 21.3801 13.1391 21.3821C13.1565 21.3841 13.1732 21.39 13.188 21.3993C13.2028 21.4086 13.2153 21.4212 13.2246 21.436L15.5848 25.2132C15.5952 25.2299 15.6097 25.2437 15.627 25.2532C15.6442 25.2628 15.6636 25.2678 15.6833 25.2678H18.2818Z" fill="white"/>
<path d="M13.8408 6.67236C6.65176 6.67236 0.823822 12.5003 0.823822 19.6893V32.5901C0.823822 32.621 0.836067 32.6505 0.857863 32.6723C0.879659 32.6941 0.909221 32.7063 0.940045 32.7063H13.8408C21.0298 32.7063 26.8578 26.8784 26.8578 19.6893C26.8578 12.506 21.0242 6.67236 13.8408 6.67236ZM13.8408 30.2656H3.38073C3.3499 30.2656 3.32034 30.2534 3.29855 30.2316C3.27675 30.2098 3.26451 30.1803 3.26451 30.1494V19.7349C3.26451 13.906 8.03363 9.10143 13.8625 9.11305C19.6937 9.1248 24.4171 13.8555 24.4171 19.6893C24.4171 25.5305 19.6819 30.2656 13.8408 30.2656Z" fill="white"/>
</g>
</g>
</g>
<defs>
<clipPath id="clip0_4257_75236">
<rect width="73.6856" height="38.4593" fill="white" transform="translate(0.823853 0.459473)"/>
</clipPath>
</defs>
</svg>
