<svg width="104" height="39" viewBox="0 0 104 39" fill="none" xmlns="http://www.w3.org/2000/svg">
<path fill-rule="evenodd" clip-rule="evenodd" d="M63.1855 21.0986V28.0192H59.0378V12.2443H63.1855V15.3483C64.5345 12.8208 67.4425 11.1973 69.6832 12.0736L69.126 16.7699C65.5785 16.2347 63.1855 17.4108 63.1855 21.0986ZM32.6596 28.4008C36.7088 28.4008 40.2392 25.8311 40.9552 22.0909L36.9308 21.3022C36.5358 23.4649 35.0298 24.8387 32.6596 24.8387C29.7218 24.8387 28.0429 22.9814 28.0429 20.1317C28.0429 17.2821 29.7218 15.4246 32.6596 15.4246C35.0298 15.4246 36.5358 16.7986 36.9308 18.9613L40.9552 18.1472C40.2392 14.4068 36.6345 11.8625 32.6596 11.8625C27.5245 11.8625 23.8951 15.3738 23.8951 20.1317C23.8951 24.8896 27.5245 28.4008 32.6596 28.4008ZM49.2312 28.4008H49.725C54.1689 28.3245 56.8847 25.9074 56.8847 21.0732V12.2696H52.7371V20.666C52.7371 23.5666 51.7247 24.8387 49.478 24.8387C47.2314 24.8387 46.2191 23.5666 46.2191 20.666V12.2443H42.0714V21.0732C42.0714 25.9837 44.7872 28.4008 49.2312 28.4008ZM78.3275 28.4008C82.0309 28.4008 85.1667 26.4926 86.3021 23.4649L82.3271 22.6252C81.4138 24.6607 79.8584 24.966 78.2289 24.966C75.7352 24.966 74.2293 23.4647 73.8589 21.6328H86.9689V20.3607C86.9689 15.2719 83.3887 11.8625 78.3275 11.8625C73.2664 11.8625 69.6865 15.3738 69.6865 20.1317C69.6865 24.8896 73.2664 28.4008 78.3275 28.4008ZM73.8095 18.5797C74.007 16.3914 75.5624 15.043 78.3029 15.043C81.0433 15.043 82.6235 16.3914 82.821 18.5797H73.8095ZM94.7111 22.7778L90.7362 28.0192H85.6507L92.1438 20.1317L85.6507 12.2443H90.7362L94.7111 17.4855L98.686 12.2443H103.772L97.279 20.1317L103.772 28.0192H98.686L94.7111 22.7778Z" fill="white"/>
<path fill-rule="evenodd" clip-rule="evenodd" d="M12.4246 20.3174C10.727 18.1359 8.81639 14.8403 7.85615 8.57939L9.98502 8.28369C10.8948 14.2159 12.6706 17.1933 14.1535 19.0988C14.533 19.5865 14.8988 20.0107 15.2478 20.4155L15.259 20.4285C15.5969 20.8203 15.9337 21.2109 16.2197 21.598C16.8179 22.4075 17.2671 23.2977 17.2151 24.4695C17.1486 25.9673 16.3916 26.9765 15.3577 27.5331C14.3927 28.0526 13.2773 28.1344 12.4398 28.0374C10.1527 27.7729 8.6293 26.722 6.29311 25.1103C5.89271 24.834 5.46842 24.5413 5.0123 24.2333L5.01104 24.2324L5.00976 24.2316C3.81211 23.4176 3.03072 23.6295 2.72077 23.8483C2.3928 24.0797 2.22976 24.5287 2.55833 25.0384L2.55879 25.0392C3.00265 25.729 4.22629 26.193 5.55729 25.9772L5.91867 27.9955C4.06907 28.2955 1.78746 27.7612 0.724021 26.1083C-0.173839 24.7146 0.195878 23.0813 1.43916 22.2038C2.70035 21.3136 4.52857 21.3894 6.25867 22.5644C6.75356 22.8987 7.1988 23.2038 7.60451 23.4817C9.98094 25.1099 11.0007 25.8085 12.6994 26.005C13.225 26.0658 13.8441 25.9957 14.2984 25.7511C14.6837 25.5437 15.0304 25.1765 15.0656 24.3832C15.0902 23.8306 14.9089 23.3834 14.4599 22.7757C14.2255 22.4585 13.9388 22.1249 13.5847 21.7143L13.575 21.7031C13.2307 21.3038 12.8365 20.8464 12.4246 20.3174Z" fill="white"/>
</svg>
