<svg width="91" height="16" viewBox="0 0 91 16" fill="none" xmlns="http://www.w3.org/2000/svg">
<g clip-path="url(#clip0_2288_1987)">
<path d="M64.5566 5.70453C64.5566 2.43181 67.0794 0 70.4203 0C73.7612 0 76.2839 2.43181 76.2839 5.70453V11.3863H73.4203V5.70453C73.4203 3.88635 72.1248 2.63636 70.4203 2.63636C68.7157 2.63636 67.4203 3.88635 67.4203 5.70453V11.3863H64.5566V5.70453Z" fill="#787878"/>
<path d="M22.1639 7.85423C21.6639 8.51332 20.8457 8.78605 19.9366 8.78605C18.5275 8.78605 17.3684 7.96787 17.073 6.67242H25.3911C25.4366 6.30878 25.4366 6.03606 25.4366 5.67242C25.4366 2.49061 23.1411 0.0360718 19.823 0.0360718C16.4821 0.0360718 14.0957 2.49061 14.0957 5.71788C14.0957 8.9906 16.573 11.4224 19.9366 11.4224C22.2548 11.4224 24.4366 10.036 25.2548 7.85423H22.1639ZM17.1411 4.53606C17.323 3.30879 18.5275 2.49061 19.823 2.49061C21.1411 2.49061 22.2093 3.28606 22.3911 4.53606H17.1411Z" fill="#787878"/>
<path d="M48.5069 3.51334C47.916 1.42243 46.1205 0.0360718 42.8933 0.0360718C39.8251 0.0360718 37.9842 1.51334 37.9842 3.60425C37.9842 5.55879 39.2796 6.55878 41.7342 6.80878L43.8705 7.01333C44.9615 7.12696 45.5524 7.42242 45.5524 8.03605C45.5524 8.71787 44.6887 9.05878 43.5978 9.05878C42.0978 9.05878 41.0524 8.64969 40.7115 7.71787H37.666C38.1887 10.0815 40.1887 11.4224 43.3705 11.4224C46.5524 11.4224 48.416 9.92241 48.416 7.85423C48.416 5.78606 46.9614 4.78606 44.5296 4.58152L42.5751 4.42243C41.4615 4.33152 40.8478 4.05879 40.8478 3.46788C40.8478 2.80879 41.5978 2.3997 42.8251 2.3997C44.1205 2.3997 45.0296 2.74061 45.4615 3.51334H48.5069Z" fill="#787878"/>
<path d="M30.9046 11.1232H28.041V5.63649C28.041 2.96414 29.719 0.236877 33.7455 0.236877H35.774V2.96414H33.7228C31.8819 2.96414 30.9046 4.14596 30.9046 5.87323V11.1232Z" fill="#787878"/>
<path fill-rule="evenodd" clip-rule="evenodd" d="M5.86362 0.0360718C2.52272 0.0360718 0 2.46788 0 5.7406V16H2.86363V11.4224H5.86362C9.20452 11.4224 11.7272 8.99059 11.7272 5.7406C11.7272 2.46788 9.20452 0.0360718 5.86362 0.0360718ZM8.86361 5.7406C8.86361 3.92243 7.56816 2.67243 5.86362 2.67243C4.15908 2.67243 2.86363 3.92243 2.86363 5.7406V8.78605H5.86362C7.56816 8.78605 8.86361 7.53605 8.86361 5.7406Z" fill="#787878"/>
<path fill-rule="evenodd" clip-rule="evenodd" d="M84.5866 0.0360718C87.9275 0.0360718 90.4502 2.46788 90.4502 5.7406V11.4224H87.5866H84.5866C81.2457 11.4224 78.723 8.9906 78.723 5.7406C78.723 2.46788 81.2457 0.0360718 84.5866 0.0360718ZM81.5866 5.7406C81.5866 3.92243 82.882 2.67243 84.5866 2.67243C86.2911 2.67243 87.5866 3.92243 87.5866 5.7406V8.78605H84.5866C82.882 8.78605 81.5866 7.53605 81.5866 5.7406Z" fill="#787878"/>
<path d="M56.266 0.0360718C52.9251 0.0360718 50.4023 2.46788 50.4023 5.7406C50.4023 8.9906 52.9251 11.4224 56.266 11.4224C59.6069 11.4224 62.1296 8.9906 62.1296 5.7406C62.1296 2.46788 59.6069 0.0360718 56.266 0.0360718ZM56.266 2.67243C57.9705 2.67243 59.266 3.92243 59.266 5.7406C59.266 7.53605 57.9705 8.78605 56.266 8.78605C54.5614 8.78605 53.266 7.53605 53.266 5.7406C53.266 3.92243 54.5614 2.67243 56.266 2.67243Z" fill="#787878"/>
</g>
<defs>
<clipPath id="clip0_2288_1987">
<rect width="90.4504" height="16" fill="white"/>
</clipPath>
</defs>
</svg>
