<svg width="102" height="39" viewBox="0 0 102 39" fill="none" xmlns="http://www.w3.org/2000/svg">
<path fill-rule="evenodd" clip-rule="evenodd" d="M11.1982 12.1443C9.56383 10.8616 7.43537 10.2202 4.81298 10.2202H0.703522V27.4819H4.81298C7.38514 27.4819 9.51773 26.8414 11.2108 25.5603C13.2521 23.9511 14.2728 21.713 14.2728 18.846C14.2728 15.9791 13.2479 13.7452 11.1982 12.1443ZM8.35473 23.4755C7.29384 24.042 6.10305 24.3209 4.9009 24.2843H4.14733V13.4204H4.9009C6.10317 13.3826 7.29426 13.6616 8.35473 14.2292C9.98919 15.1737 10.8064 16.7168 10.8064 18.8586C10.8064 21.0004 9.98919 22.5394 8.35473 23.4755Z" fill="white"/>
<path fill-rule="evenodd" clip-rule="evenodd" d="M21.3007 15.5956C19.6414 15.563 18.0331 16.1701 16.8094 17.2912C16.2075 17.8247 15.7293 18.4833 15.4082 19.2209C15.0872 19.9585 14.931 20.7572 14.9506 21.5614C14.9031 23.1341 15.4553 24.6661 16.4954 25.8467C17.0382 26.4938 17.718 27.0122 18.4855 27.3645C19.2531 27.7168 20.0894 27.8942 20.9339 27.8838C22.6873 27.8838 24.1408 27.3571 25.2946 26.3038C25.9293 25.7659 26.4381 25.0952 26.7854 24.3392C27.1326 23.5831 27.3096 22.7601 27.3041 21.9281C27.3041 20.215 26.79 18.7816 25.7618 17.6278C25.2127 16.9827 24.5284 16.4662 23.7575 16.1151C22.9865 15.7639 22.1478 15.5865 21.3007 15.5956ZM23.1595 24.0306C22.9167 24.307 22.6165 24.5271 22.2798 24.6755C21.9432 24.8239 21.5781 24.897 21.2102 24.8897C20.4557 24.8961 19.7258 24.6211 19.1631 24.1185C18.5736 23.6044 18.2822 22.7562 18.2889 21.5739C18.2889 20.3958 18.7411 19.5343 19.6428 18.9967C20.134 18.7141 20.694 18.5733 21.2605 18.5898C21.9413 18.6184 22.5884 18.8934 23.0816 19.3635C23.6644 19.8659 23.9558 20.6245 23.9558 21.6393C23.9558 22.654 23.6903 23.4512 23.1595 24.0306Z" fill="white"/>
<path fill-rule="evenodd" clip-rule="evenodd" d="M35.4432 24.543C34.945 24.7971 34.3891 24.9166 33.8306 24.8897C33.1397 24.8757 32.4799 24.6001 31.9843 24.1185C31.4116 23.5927 31.1211 22.8249 31.1127 21.8151C31.1043 20.8053 31.3656 20.0132 31.8964 19.4389C32.1628 19.1521 32.489 18.9273 32.8519 18.7806C33.2148 18.6339 33.6055 18.5687 33.9963 18.5898C34.4593 18.5791 34.9176 18.6835 35.3302 18.8937C35.8495 19.2169 36.3198 19.6127 36.7268 20.0693L38.8519 17.8689C38.1618 17.1551 37.3579 16.5609 36.4731 16.1106C35.6904 15.7621 34.8404 15.5906 33.9838 15.6082C32.3696 15.5932 30.8116 16.2003 29.6332 17.3037C29.0299 17.8313 28.5505 18.4856 28.2292 19.2198C27.9078 19.954 27.7526 20.7501 27.7744 21.5513C27.7289 23.1316 28.2794 24.6711 29.3167 25.8643C30.3088 26.9418 31.6447 27.6409 33.0956 27.8416C34.5464 28.0422 36.022 27.7322 37.2693 26.9644C37.876 26.5595 38.4288 26.0792 38.9146 25.5352L36.8022 23.3348C36.4181 23.8089 35.9591 24.2171 35.4432 24.543Z" fill="white"/>
<path fill-rule="evenodd" clip-rule="evenodd" d="M47.1059 17.0123L45.5636 16.4421C44.5086 16.0478 43.9836 15.5956 43.9836 15.0932C43.9888 14.8386 44.0653 14.5905 44.2047 14.3773C44.342 14.1476 44.5414 13.9612 44.7799 13.8398C45.0776 13.7084 45.4018 13.6482 45.7269 13.6639C46.1084 13.6557 46.4804 13.783 46.7768 14.0231C47.2343 14.4681 47.6267 14.9756 47.9424 15.5303L51.444 13.3173C50.6854 12.0697 49.8548 11.1654 48.9521 10.6045C48.0495 10.0434 46.9242 9.76297 45.5762 9.76297C44.2576 9.75333 42.9712 10.1701 41.9088 10.9511C41.2381 11.4095 40.6933 12.029 40.3242 12.7527C39.9551 13.4764 39.7736 14.2812 39.7963 15.0932C39.7963 17.3187 41.1544 18.9456 43.8706 19.9738L45.3376 20.5315C45.8984 20.7171 46.4303 20.9809 46.9175 21.3152C47.0616 21.429 47.1767 21.5752 47.2536 21.742C47.3304 21.9087 47.3667 22.0912 47.3596 22.2747C47.3532 22.4992 47.3016 22.7201 47.2079 22.9242C47.1143 23.1283 46.9805 23.3115 46.8145 23.4628C46.6049 23.6657 46.3544 23.8216 46.0798 23.9199C45.8052 24.0182 45.5127 24.0568 45.222 24.033C44.8984 24.0389 44.5807 23.9458 44.3114 23.7662C44.042 23.5867 43.8339 23.3293 43.7148 23.0283C43.4882 22.4954 43.3197 21.9395 43.2125 21.3705L39.0629 22.4832C39.2296 23.3255 39.5066 24.1422 39.8867 24.9122C40.2208 25.5316 40.6741 26.0788 41.2205 26.5223C42.3731 27.4689 43.8264 27.9714 45.3175 27.9391C46.4134 27.9502 47.4951 27.6914 48.4674 27.1855C49.4045 26.7022 50.1915 25.9716 50.7432 25.073C51.3115 24.1502 51.6052 23.0846 51.5896 22.0009C51.5846 19.7871 50.0901 18.1242 47.1059 17.0123Z" fill="white"/>
<path fill-rule="evenodd" clip-rule="evenodd" d="M62.4685 16.3668C61.6366 15.8372 60.6722 15.5526 59.6852 15.5454C58.6796 15.5593 57.7031 15.8868 56.8923 16.4823V16.0001H52.8431V33.4301H56.8923V27.0047C57.6842 27.5904 58.638 27.9169 59.6225 27.9391C60.3325 27.944 61.036 27.8067 61.6916 27.5353C62.3472 27.264 62.9419 26.864 63.4406 26.3591C64.0631 25.7656 64.553 25.0478 64.8796 24.2524C65.2056 23.4569 65.3606 22.6016 65.3346 21.7423C65.3429 20.6587 65.0843 19.5898 64.5814 18.63C64.0933 17.6994 63.3637 16.9176 62.4685 16.3668ZM60.7106 23.5634C60.5284 23.8061 60.2911 24.0012 60.0178 24.1324C59.7444 24.2637 59.4434 24.3269 59.1404 24.317C58.8358 24.3285 58.5321 24.2758 58.2491 24.1625C57.9661 24.0491 57.71 23.8775 57.4976 23.6588C57.0756 23.2293 56.8672 22.6088 56.8672 21.8C56.8202 21.1063 57.0263 20.4191 57.4474 19.8659C57.6361 19.6384 57.8743 19.4571 58.1438 19.3356C58.4132 19.2141 58.7068 19.1558 59.0023 19.165C59.3036 19.1623 59.6024 19.2203 59.8805 19.3355C60.1592 19.4507 60.4112 19.6209 60.6225 19.8358C60.8455 20.0811 61.0177 20.3686 61.1278 20.6813C61.2384 20.9941 61.2851 21.3258 61.2656 21.6568C61.2976 22.3383 61.0976 23.0104 60.6976 23.5634H60.7106Z" fill="white"/>
<path fill-rule="evenodd" clip-rule="evenodd" d="M73.985 16.4799C73.1892 15.8923 72.2312 15.5659 71.242 15.5454C69.7935 15.5454 68.4782 16.1106 67.296 17.2409C66.1139 18.3713 65.5234 19.8717 65.5251 21.7423C65.5169 22.825 65.7754 23.8932 66.2789 24.852C66.7606 25.7864 67.4913 26.569 68.3912 27.1127C69.2279 27.6433 70.1965 27.9288 71.1869 27.9366C72.1922 27.9218 73.1685 27.5954 73.9803 27.0022V27.4794H78.0268V16.0001H73.985V16.4799ZM73.4679 23.5634C73.2921 23.8086 73.0572 24.0059 72.7862 24.1376C72.5147 24.2692 72.2141 24.3308 71.9129 24.317C71.6029 24.3216 71.2946 24.2635 71.0077 24.1461C70.7207 24.0287 70.4603 23.8544 70.2426 23.6337C70.0178 23.3905 69.8456 23.1038 69.7361 22.7916C69.6261 22.4793 69.5817 22.1478 69.6042 21.8176C69.5675 21.1383 69.7693 20.4674 70.1746 19.9211C70.3627 19.6794 70.6047 19.4854 70.881 19.3544C71.1579 19.2235 71.4615 19.1595 71.7674 19.1676C72.0727 19.1596 72.3768 19.2151 72.6602 19.3305C72.943 19.446 73.1992 19.6188 73.4122 19.8382C73.6323 20.085 73.8004 20.3733 73.9063 20.6861C74.0122 20.9989 74.0548 21.3299 74.0305 21.6594C74.0607 22.339 73.8625 23.0094 73.4679 23.5634Z" fill="white"/>
<path fill-rule="evenodd" clip-rule="evenodd" d="M86.5683 24.018C86.1363 24.2288 85.6589 24.3289 85.179 24.3095C84.8962 24.3081 84.6169 24.249 84.3577 24.1359C84.0986 24.0227 83.8655 23.8578 83.672 23.6513C83.2424 23.2143 83.0265 22.5888 83.0265 21.78C82.9868 21.0883 83.2081 20.407 83.6471 19.8709C83.827 19.6529 84.053 19.4774 84.3086 19.3571C84.5642 19.2368 84.8435 19.1747 85.1263 19.1751C85.6009 19.1545 86.073 19.2457 86.5056 19.4414C86.9487 19.6969 87.3487 20.0208 87.6913 20.4009L90.1077 17.6052C89.4344 16.9494 88.6545 16.4126 87.8013 16.0177C87.0221 15.693 86.1843 15.5314 85.3399 15.5429C83.7584 15.5032 82.2194 16.06 81.0295 17.1028C80.358 17.6723 79.8219 18.3846 79.461 19.1877C79.0995 19.9908 78.9226 20.8644 78.9421 21.7448C78.9504 23.3468 79.5705 24.8853 80.6751 26.0451C81.8206 27.3095 83.3756 27.9417 85.3399 27.9417C86.1967 27.9517 87.0458 27.7804 87.8315 27.4393C88.696 27.0238 89.4829 26.4631 90.158 25.7814L87.7439 22.9857C87.4132 23.3941 87.0156 23.7432 86.5683 24.018Z" fill="white"/>
<path fill-rule="evenodd" clip-rule="evenodd" d="M101.966 21.9709C101.966 19.9614 101.371 18.3889 100.182 17.2535C99.6379 16.7092 98.9912 16.2781 98.2794 15.9849C97.5676 15.6918 96.8049 15.5424 96.0352 15.5455C94.9678 15.5418 93.9199 15.8256 93.0004 16.3668C92.0703 16.9002 91.3082 17.6833 90.8 18.6275C90.2817 19.5697 90.0071 20.6267 90.0012 21.7021C89.9692 23.2421 90.516 24.7381 91.5337 25.8944C92.0981 26.5593 92.8046 27.0887 93.601 27.4435C94.3974 27.7983 95.2636 27.9694 96.1352 27.9441C98.4025 27.9441 100.207 26.9578 101.548 24.9852L97.8433 23.581C97.638 23.8586 97.3682 24.0827 97.0582 24.2344C96.7476 24.3861 96.4056 24.4609 96.06 24.4526C95.6488 24.4736 95.2417 24.3589 94.9021 24.1261C94.5577 23.8215 94.298 23.4329 94.1483 22.9982H101.935C101.953 22.5386 101.966 22.197 101.966 21.9709ZM94.1507 20.4788C94.253 20.048 94.4844 19.6588 94.8139 19.3635C95.0956 19.1441 95.5441 19.0345 96.1606 19.0345C96.4257 19.018 96.6913 19.0646 96.9351 19.1702C97.1795 19.2758 97.3949 19.4376 97.5647 19.6423C97.7481 19.8995 97.8848 20.1869 97.9688 20.4914L94.1507 20.4788Z" fill="white"/>
</svg>
