<svg width="596" height="240" viewBox="0 0 596 240" fill="none" xmlns="http://www.w3.org/2000/svg">
<g clip-path="url(#clip0_1970_73734)">
<g clip-path="url(#clip1_1970_73734)">
<rect width="658" height="527" transform="translate(-9 -287)" fill="#E9EAFF"/>
<g opacity="0.8">
<path d="M-34.2596 -165.753C-15.2091 -80.3172 15.786 -0.766376 79.0121 60.3838C200.78 178.163 361.492 210.852 525.114 208.435" stroke="#B2B6FE" stroke-miterlimit="10"/>
<path d="M-26.5107 -203.247C-9.53076 -110.025 19.3155 -22.3096 86.9417 43.5829C207.014 160.554 366.971 191.278 529.36 187.893" stroke="#B2B6FE" stroke-miterlimit="10"/>
<path d="M-15.5114 -244.609C-0.879868 -142.487 24.5997 -44.8731 97.3317 26.506C215.704 142.692 374.955 171.361 536.122 167.036" stroke="#B2B6FE" stroke-miterlimit="10"/>
<path d="M-8.57757 -290.031C3.62097 -177.753 23.9698 -67.9427 102.694 9.94679C219.366 125.349 377.948 151.943 537.877 146.675" stroke="#B2B6FE" stroke-miterlimit="10"/>
<path d="M2.01241 -341.273C12.2759 -217.629 24.7826 -92.5154 110.618 -6.90388C225.542 107.717 383.501 132.158 542.155 125.976" stroke="#B2B6FE" stroke-miterlimit="10"/>
<path d="M14.5152 -383.757C23.7051 -252.452 27.6754 -115.07 118.472 -23.7339C231.645 90.1172 389.044 112.341 546.429 105.287" stroke="#B2B6FE" stroke-miterlimit="10"/>
<path d="M30.483 -380.459C37.0017 -255.794 41.1641 -127.043 126.34 -40.5491C237.713 72.5354 394.61 92.491 550.707 84.5841" stroke="#B2B6FE" stroke-miterlimit="10"/>
<path d="M46.0089 -377.248C50.1591 -259.299 54.5495 -139.046 134.211 -57.372C243.782 54.9581 400.228 72.5536 554.996 63.8373" stroke="#B2B6FE" stroke-miterlimit="10"/>
<path d="M61.122 -374.127C63.2111 -262.996 67.8679 -151.119 142.092 -74.2484C249.827 37.3332 405.883 52.505 559.296 43.0249" stroke="#B2B6FE" stroke-miterlimit="10"/>
<path d="M75.7301 -371.105C76.0736 -266.855 81.0248 -163.181 149.897 -91.0712C255.762 19.78 411.541 32.4369 563.591 22.2419" stroke="#B2B6FE" stroke-miterlimit="10"/>
<path d="M89.912 -368.176C88.8301 -270.893 94.1497 -175.318 157.747 -107.953C261.724 2.1768 417.275 12.2398 567.917 1.38462" stroke="#B2B6FE" stroke-miterlimit="10"/>
<path d="M103.606 -365.347C101.447 -275.099 107.12 -187.474 165.549 -124.832C267.602 -15.4052 423.042 -8.03943 572.213 -19.4788" stroke="#B2B6FE" stroke-miterlimit="10"/>
<path d="M116.856 -362.609C113.938 -279.472 120.008 -199.621 173.345 -141.686C273.426 -32.9599 428.869 -28.3823 576.52 -40.3266" stroke="#B2B6FE" stroke-miterlimit="10"/>
<path d="M129.709 -359.952C126.385 -284.017 132.875 -211.822 181.187 -158.606C279.262 -50.5742 434.776 -48.8852 580.825 -61.2371" stroke="#B2B6FE" stroke-miterlimit="10"/>
</g>
</g>
</g>
<defs>
<clipPath id="clip0_1970_73734">
<rect width="596" height="240" fill="white"/>
</clipPath>
<clipPath id="clip1_1970_73734">
<rect width="658" height="527" fill="white" transform="translate(-9 -287)"/>
</clipPath>
</defs>
</svg>
