<svg width="70" height="21" viewBox="0 0 70 21" fill="none" xmlns="http://www.w3.org/2000/svg">
<path fill-rule="evenodd" clip-rule="evenodd" d="M66.2988 8.29856C65.1536 8.29856 64.1983 8.71008 63.4932 9.49801V5.44338C63.4932 5.05177 63.1858 4.745 62.7939 4.745C62.4112 4.745 62.1113 5.05177 62.1113 5.44338V16.9752C62.1113 17.3735 62.412 17.6736 62.8106 17.6736C63.2063 17.6736 63.4932 17.3798 63.4932 16.9752V12.3825C63.4932 10.7768 64.6237 9.61132 66.1816 9.61132C67.7073 9.61132 68.618 10.5971 68.618 12.2482V16.9752C68.618 17.3735 68.9187 17.6736 69.3175 17.6736C69.713 17.6736 69.9999 17.3798 69.9999 16.9752V12.0975C69.9999 9.78958 68.5473 8.29856 66.2988 8.29856Z" fill="#787878"/>
<path fill-rule="evenodd" clip-rule="evenodd" d="M60.0118 15.1203C59.7868 15.1203 59.6374 15.2436 59.5451 15.3365C58.7871 16.0937 57.9509 16.4779 57.0599 16.4779C55.2424 16.4779 53.8184 14.9736 53.8184 13.0531V13.0197C53.8184 11.118 55.213 9.62832 56.9928 9.62832C58.1106 9.62832 58.8619 10.1993 59.444 10.7526C59.5587 10.8673 59.7391 10.9356 59.9279 10.9356C60.3197 10.9356 60.6271 10.6288 60.6271 10.2372C60.6271 10.052 60.5506 9.86075 60.4209 9.73168C59.7072 9.06425 58.674 8.29871 57.0097 8.29871C54.4511 8.29871 52.3691 10.4315 52.3691 13.0531V13.0865C52.3691 15.6897 54.4511 17.8078 57.0097 17.8078C58.3747 17.8078 59.4556 17.3269 60.5121 16.2504C60.6263 16.1363 60.6942 15.9685 60.6942 15.8019C60.6942 15.4451 60.3691 15.1203 60.0118 15.1203Z" fill="#787878"/>
<path fill-rule="evenodd" clip-rule="evenodd" d="M47.2834 8.29871C46.1383 8.29871 45.1829 8.71022 44.4779 9.49815V9.13086C44.4779 8.73288 44.1771 8.43247 43.7783 8.43247C43.3956 8.43247 43.0957 8.73924 43.0957 9.13086V16.9753C43.0957 17.3736 43.3964 17.6737 43.7952 17.6737C44.191 17.6737 44.4779 17.3799 44.4779 16.9753V12.3826C44.4779 10.7769 45.6083 9.61146 47.1659 9.61146C48.6916 9.61146 49.6026 10.5973 49.6026 12.2483V16.9753C49.6026 17.3736 49.9033 17.6737 50.3022 17.6737C50.6977 17.6737 50.9848 17.3799 50.9848 16.9753V12.0977C50.9848 9.78972 49.532 8.29871 47.2834 8.29871Z" fill="#787878"/>
<path fill-rule="evenodd" clip-rule="evenodd" d="M37.1555 13.0475C38.2405 13.0475 39.1127 13.2111 39.7765 13.3717V14.1256C39.7765 15.4666 38.5055 16.4778 36.8201 16.4778C35.7259 16.4778 34.6181 15.9002 34.6181 14.7964V14.7627C34.6181 13.6887 35.5668 13.0475 37.1555 13.0475ZM37.2727 8.36523C36.2664 8.36523 35.3897 8.56312 34.3512 9.02244C34.1861 9.08822 33.9405 9.31014 33.9405 9.65063C33.9405 10.1011 34.4518 10.4676 34.9114 10.2376C35.6899 9.86758 36.4241 9.69513 37.2225 9.69513C38.3799 9.69513 39.7598 10.1003 39.7598 12.0307V12.0401C39.0944 11.8812 38.3056 11.7513 37.2059 11.7513C34.7636 11.7513 33.1855 12.953 33.1855 14.813V14.8464C33.1855 16.3181 34.4169 17.8077 36.7697 17.8077C38.2061 17.8077 39.1662 17.221 39.7598 16.6514V16.9753C39.7598 17.3799 40.0467 17.6737 40.4425 17.6737C40.838 17.6737 41.1251 17.3799 41.1251 16.9753V11.997C41.1251 10.8973 40.8041 10.0188 40.1711 9.38615C39.5029 8.71844 38.5007 8.36523 37.2727 8.36523Z" fill="#787878"/>
<path fill-rule="evenodd" clip-rule="evenodd" d="M32.5615 8.36523C31.5868 8.36523 30.298 8.93456 29.4036 10.1639V9.13078C29.4036 8.73281 29.1029 8.43239 28.7041 8.43239C28.3214 8.43239 28.0215 8.73916 28.0215 9.13078V16.9753C28.0215 17.3735 28.3222 17.6737 28.721 17.6737C29.1038 17.6737 29.4036 17.3669 29.4036 16.9753V13.8241C29.4036 11.0949 31.0482 9.97039 32.579 9.82862C32.9836 9.80374 33.2774 9.49614 33.2774 9.09734C33.2774 8.68693 32.9628 8.36523 32.5615 8.36523Z" fill="#787878"/>
<path fill-rule="evenodd" clip-rule="evenodd" d="M24.9869 13.053V13.0864C24.9869 15.105 23.7517 16.4612 21.9128 16.4612C19.9314 16.4612 18.705 14.7007 18.705 13.0698V13.0361C18.705 10.9415 20.3699 9.64476 21.9128 9.64476C23.6652 9.64476 24.9869 11.1101 24.9869 13.053ZM21.9967 8.29856C20.734 8.29856 19.6465 8.82007 18.7549 9.85176V5.44338C18.7549 5.04513 18.4542 4.745 18.0557 4.745C17.6602 4.745 17.373 5.03878 17.373 5.44338V16.9752C17.373 17.3668 17.6804 17.6736 18.0723 17.6736C18.455 17.6736 18.7549 17.3668 18.7549 16.9752V16.315C19.6282 17.306 20.7155 17.8076 21.9967 17.8076C24.1788 17.8076 26.4356 16.0289 26.4356 13.053V13.0195C26.4356 10.0643 24.1788 8.29856 21.9967 8.29856Z" fill="#787878"/>
<path fill-rule="evenodd" clip-rule="evenodd" d="M7.02244 18.7006V12.9599L10.5079 10.1859C10.9607 11.208 11.2434 12.0382 11.2434 12.5099C11.2434 14.5739 10.6262 15.4478 7.02244 18.7006ZM1.40072 12.5099C1.40072 11.1817 3.63926 7.01432 5.62172 3.70313V18.7006C2.01821 15.4478 1.40072 14.5739 1.40072 12.5099ZM7.02244 3.70313C8.02129 5.37158 9.08472 7.25642 9.89455 8.88701L7.02244 11.1729V3.70313ZM6.91352 0.858452C6.78492 0.656702 6.56182 0.534546 6.32208 0.534546C6.08234 0.534546 5.85924 0.656702 5.73064 0.858452C5.14419 1.78015 0 9.93666 0 12.5099C0 15.4486 1.21392 16.6519 5.85536 20.7878C5.98839 20.9063 6.15524 20.9655 6.32208 20.9655C6.48892 20.9655 6.65577 20.9063 6.7888 20.7878C11.4302 16.6519 12.6444 15.4486 12.6444 12.5099C12.6444 9.93666 7.49997 1.78015 6.91352 0.858452Z" fill="#787878"/>
</svg>
