<svg width="124" height="21" viewBox="0 0 124 21" fill="none" xmlns="http://www.w3.org/2000/svg">
<path d="M2.60317 16.2782V8.44786H0V5.74489H2.60317V1.94202H5.59931V5.73865H9.31693V8.44162H5.59931V16.2719C5.59931 17.272 6.03802 17.8022 7.00485 17.8022H9.18386V20.5052H7.00485C4.44743 20.5135 2.60317 18.8668 2.60317 16.2782Z" fill="#787878"/>
<path d="M17.3046 18.1016C19.9078 18.1016 21.8976 16.3051 21.8976 13.1281C21.8976 9.95106 19.9078 8.1567 17.3046 8.1567C14.7014 8.1567 12.6742 9.9469 12.6742 13.1281C12.6742 16.3093 14.6702 18.1016 17.3046 18.1016ZM9.57617 13.1281C9.57617 8.03819 13.0006 5.32898 16.6891 5.32898C18.8827 5.32898 20.7582 6.18353 21.8872 7.82403V5.73858H24.8854V20.5134H21.8976V18.4197C20.7582 20.0622 18.8827 20.9147 16.6995 20.9147C13.0173 20.9147 9.58657 18.2118 9.58657 13.1177L9.57617 13.1281Z" fill="#787878"/>
<path d="M26.7285 16.4236H29.8473C30.1987 17.6919 31.1052 18.2762 32.3923 18.2762C33.7396 18.2762 34.6794 17.5734 34.6794 16.3945C34.6794 12.9513 26.8949 15.9246 26.8949 9.89076C26.8949 7.15036 29.2922 5.33105 32.1324 5.33105C34.9726 5.33105 37.137 6.97571 37.4593 9.56848H34.3405C34.0182 8.52887 33.2489 7.97996 32.1157 7.97996C30.9826 7.97996 29.9804 8.62868 29.9804 9.74729C29.9804 13.1031 37.7629 10.1631 37.7629 16.2822C37.7629 18.9603 35.4258 20.9397 32.3715 20.9397C29.3171 20.9397 27.0487 19.241 26.7285 16.4236Z" fill="#787878"/>
<path d="M47.6916 5.7469H50.9414L46.0594 12.442L51.5007 20.5134H48.0181L42.7161 12.6665L47.6916 5.7469ZM39.7324 1.91284H42.7286V20.5134H39.7345L39.7324 1.91284Z" fill="#787878"/>
<path d="M52.4028 5.73862H55.399V7.93011C55.9549 7.12179 56.7004 6.46204 57.5704 6.00858C58.4403 5.55513 59.4081 5.3218 60.3891 5.32902V8.43536C57.5219 7.93635 55.3824 9.29199 55.3824 12.2944V20.5135H52.3945L52.4028 5.73862Z" fill="#787878"/>
<path d="M66.0384 18.3386C67.8245 18.3386 69.729 17.1909 69.729 14.9516V13.3901L65.6891 14.4505C64.3418 14.8352 63.8178 15.4236 63.8178 16.4237C63.8137 17.7481 64.8075 18.3386 66.0384 18.3386ZM60.7988 16.6316C60.7988 14.2156 62.2044 12.9015 65.0446 12.126L69.729 10.8784V10.0467C69.729 8.94893 68.8204 8.12972 67.2111 8.12972C65.8929 8.12972 64.635 8.62665 64.215 10.3358H61.0047C61.5328 6.97992 63.9987 5.30408 67.2111 5.30408C70.6626 5.30408 72.7127 7.17536 72.7127 10.0405V20.5052H69.7165V18.9167C68.6624 20.3721 66.9055 20.921 65.3835 20.921C62.7907 20.9293 60.7988 19.478 60.7988 16.6316Z" fill="#787878"/>
<path d="M82.3199 18.1016C84.9272 18.1016 86.917 16.3051 86.917 13.1281C86.917 9.95106 84.9272 8.1567 82.3199 8.1567C79.7126 8.1567 77.6978 9.9469 77.6978 13.1281C77.6978 16.3093 79.6876 18.1016 82.3199 18.1016ZM77.6978 18.455V20.5134H74.6934V1.91284H77.6978V7.80116C78.8663 6.18145 80.7106 5.33522 82.9353 5.33522C86.5947 5.33522 90.0483 8.03819 90.0483 13.1364C90.0483 18.2346 86.5927 20.9293 82.9333 20.9293C80.7085 20.9293 78.8643 20.0622 77.6957 18.455H77.6978Z" fill="#787878"/>
<path d="M99.488 18.1016C102.089 18.1016 104.081 16.3051 104.081 13.1281C104.081 9.95106 102.089 8.1567 99.488 8.1567C96.8869 8.1567 94.8576 9.9469 94.8576 13.1281C94.8576 16.3093 96.8474 18.1016 99.4818 18.1016H99.488ZM94.8576 18.455V20.5134H91.8594V1.91284H94.8555V7.80116C96.024 6.18145 97.8704 5.33522 100.095 5.33522C103.752 5.33522 107.206 8.03819 107.206 13.1364C107.206 18.2346 103.755 20.9293 100.097 20.9293C97.8662 20.9293 96.0261 20.0622 94.8576 18.455Z" fill="#787878"/>
<path d="M108.97 5.73861H111.973V20.5135H108.976L108.97 5.73861ZM110.463 0C110.746 0.00211713 111.025 0.0667251 111.28 0.189207C111.662 0.374528 111.972 0.681672 112.16 1.06225C112.348 1.44283 112.404 1.87522 112.32 2.29129C112.231 2.75912 111.971 3.17685 111.59 3.46216C111.209 3.74747 110.734 3.87968 110.261 3.83271C109.787 3.78575 109.348 3.56303 109.03 3.20844C108.712 2.85386 108.539 2.39312 108.544 1.91703C108.536 1.66273 108.58 1.40945 108.673 1.17267C108.767 0.93842 108.909 0.726093 109.089 0.548911C109.266 0.369641 109.479 0.228189 109.712 0.133069C109.948 0.0397055 110.2 -0.00417798 110.453 0.00415772L110.463 0Z" fill="#787878"/>
<path d="M116.199 16.2782V8.44786H113.592V5.74489H116.199V1.94202H119.195V5.73865H122.913V8.44162H119.195V16.2719C119.195 17.272 119.632 17.8022 120.599 17.8022H122.778V20.5052H120.599C118.035 20.5135 116.199 18.8668 116.199 16.2782Z" fill="#787878"/>
</svg>
