<svg width="82" height="21" viewBox="0 0 82 21" fill="none" xmlns="http://www.w3.org/2000/svg">
<path d="M8.44123 12.9872C9.28466 13.0053 11.1265 13.045 11.1366 11.8635C11.1464 10.6598 9.36709 10.6885 8.49562 10.7026C8.39784 10.7042 8.31149 10.7056 8.24038 10.7051L8.24584 12.9837C8.3022 12.9842 8.36794 12.9856 8.44123 12.9872Z" fill="#787878"/>
<path d="M8.4354 9.67012C9.1327 9.68748 10.6675 9.7257 10.6775 8.65041C10.6825 7.54706 9.17773 7.58159 8.46313 7.59799C8.38849 7.5997 8.32247 7.60122 8.2677 7.60122L8.27316 9.6668C8.31978 9.66724 8.37438 9.6686 8.4354 9.67012Z" fill="#787878"/>
<path fill-rule="evenodd" clip-rule="evenodd" d="M17.9563 6.72678C17.9563 17.9454 8.97814 21 8.97814 21C8.97814 21 0 17.9454 0 6.72678V2.68853C0 2.2459 0.344262 1.89071 0.775956 1.85792C2.40437 1.78142 6.27323 1.45355 8.97814 0C11.6886 1.45355 15.5519 1.78142 17.1803 1.86338C17.612 1.89071 17.9563 2.2459 17.9563 2.68853V6.72678ZM10.1147 6.43183C11.448 6.55751 12.4972 6.97827 12.6064 8.20232C12.6885 9.0985 12.3114 9.63401 11.7103 9.94003C12.6993 10.1805 13.3114 10.7706 13.1803 12.0876C13.0163 13.716 11.7922 14.1476 10.0546 14.2351L10.06 15.9455H9.01634L9.0218 14.2515C8.75404 14.246 8.48081 14.2405 8.19666 14.2351L8.18573 15.9455L7.15842 15.94L7.15295 14.2187C6.91251 14.2187 5.27317 14.2242 5.27317 14.2242L5.2841 12.9782L6.44257 12.9728L6.44803 7.50833H5.12563V6.42089C5.12563 6.42089 6.98901 6.42089 7.21305 6.41543L7.2076 4.71598L8.25131 4.71051V6.3881C8.52996 6.38265 8.81954 6.38265 9.09274 6.38265L9.08737 4.7269L10.1202 4.72145L10.1147 6.43183Z" fill="#787878"/>
<path d="M35.8088 13.918C35.8088 14.8142 35.6338 15.5628 35.2786 16.1694C34.9235 16.7759 34.4536 17.2677 33.8688 17.6338C33.2841 18.0054 32.6174 18.2677 31.8689 18.4317C31.1202 18.5956 30.3552 18.6721 29.5683 18.6721H23.0546V2.32241H29.5683C30.2022 2.32241 30.8469 2.38797 31.5082 2.51912C32.1694 2.65027 32.7705 2.87432 33.3115 3.19126C33.8525 3.5082 34.2896 3.93443 34.6284 4.47541C34.9672 5.0164 35.1367 5.69946 35.1367 6.53005C35.1367 7.43716 34.8907 8.19126 34.3989 8.78142C33.9071 9.37705 33.2568 9.80328 32.459 10.0656V10.1093C32.9234 10.1858 33.3552 10.3279 33.765 10.5355C34.1749 10.7432 34.53 11.0109 34.8251 11.3333C35.1257 11.6557 35.3661 12.0328 35.541 12.4645C35.7213 12.8962 35.8088 13.3825 35.8088 13.918ZM31.3279 7.06011C31.3279 6.5082 31.1147 6.10382 30.694 5.84699C30.2677 5.59017 29.6448 5.46449 28.8087 5.46449H26.8688V8.83607H28.9945C29.7322 8.83607 30.306 8.68852 30.7158 8.38798C31.1257 8.08743 31.3279 7.64481 31.3279 7.06011ZM31.8579 13.552C31.8579 12.8744 31.6065 12.4044 31.0929 12.1421C30.5847 11.8798 29.9071 11.7486 29.0601 11.7486H26.8633V15.4918H29.0819C29.388 15.4918 29.7103 15.4644 30.0382 15.4099C30.3716 15.3552 30.6721 15.2623 30.9398 15.1202C31.2076 14.9836 31.4262 14.7869 31.5956 14.5301C31.776 14.2787 31.8579 13.9508 31.8579 13.552Z" fill="#787878"/>
<path d="M41.06 3.50273C41.06 3.79782 41 4.07103 40.8852 4.32241C40.7705 4.57923 40.6174 4.79782 40.4208 4.97814C40.2295 5.16393 39.9945 5.31147 39.7267 5.41529C39.459 5.52459 39.1748 5.57923 38.8853 5.57923C38.2677 5.57923 37.7541 5.37705 37.3388 4.96721C36.9235 4.55738 36.7158 4.07103 36.7158 3.50273C36.7158 3.22404 36.7704 2.96174 36.8798 2.70491C36.989 2.44809 37.142 2.2295 37.3443 2.04918C37.5464 1.86338 37.7759 1.71585 38.0382 1.60109C38.3005 1.48633 38.5846 1.42623 38.8906 1.42623C39.1858 1.42623 39.4645 1.48088 39.7322 1.59016C40 1.69945 40.235 1.84153 40.4261 2.02732C40.6174 2.21311 40.7705 2.43169 40.8907 2.68306C41.0055 2.93442 41.06 3.20765 41.06 3.50273ZM36.9945 18.6776V7.17486H40.7814V18.6776H36.9945Z" fill="#787878"/>
<path d="M47.6503 9.99453V14.3989C47.6503 14.9399 47.7541 15.3443 47.9617 15.6175C48.1694 15.8907 48.541 16.0219 49.082 16.0219C49.2678 16.0219 49.4645 16.0054 49.6722 15.9781C49.8798 15.9454 50.0546 15.9017 50.1913 15.8415L50.235 18.6121C49.9727 18.705 49.6448 18.7869 49.2404 18.8524C48.8415 18.9235 48.4372 18.9563 48.0383 18.9563C47.2678 18.9563 46.623 18.8579 46.0984 18.6667C45.5738 18.4754 45.1531 18.1967 44.8415 17.8306C44.5246 17.4699 44.3005 17.0328 44.1584 16.5356C44.0219 16.0328 43.9508 15.4754 43.9508 14.858V9.99453H42.1039V7.17486H43.929V4.14753H47.6503V7.17486H50.3553V9.99453H47.6503Z" fill="#787878"/>
<path d="M64.0656 18.6995C62.9945 18.9617 61.8306 19.0929 60.5629 19.0929C59.2514 19.0929 58.0491 18.8853 56.9454 18.47C55.8415 18.0546 54.8962 17.4699 54.1039 16.7159C53.3115 15.9617 52.6885 15.0546 52.2459 14C51.7979 12.9454 51.5738 11.7705 51.5738 10.4754C51.5738 9.16393 51.8032 7.97814 52.2568 6.91803C52.7103 5.85793 53.3389 4.95082 54.1421 4.20218C54.9399 3.45355 55.8797 2.87978 56.9617 2.48088C58.0383 2.08197 59.2022 1.87979 60.448 1.87979C61.7432 1.87979 62.9453 2.0765 64.0547 2.46994C65.1639 2.86338 66.0655 3.38797 66.7596 4.05464L64.2623 6.89617C63.8744 6.44808 63.3661 6.08197 62.7377 5.79781C62.1039 5.51366 61.388 5.37158 60.5901 5.37158C59.8962 5.37158 59.2569 5.49726 58.6722 5.7541C58.0875 6.00546 57.5793 6.36066 57.1475 6.8142C56.7159 7.26776 56.3825 7.80875 56.1421 8.43169C55.9017 9.05464 55.7815 9.7377 55.7815 10.4754C55.7815 11.2295 55.8907 11.9235 56.1038 12.5574C56.317 13.1913 56.6394 13.7323 57.0601 14.1858C57.4809 14.6394 58.0054 14.9946 58.6285 15.2459C59.2514 15.5027 59.9617 15.6285 60.765 15.6285C61.2295 15.6285 61.6667 15.5956 62.0819 15.5246C62.4973 15.4536 62.8853 15.3443 63.235 15.1912V12.2131H60.1148V9.02732H66.8634V17.6885C66.071 18.0983 65.1366 18.4372 64.0656 18.6995Z" fill="#787878"/>
<path d="M81.1148 12.8797C81.1148 13.8197 80.9454 14.6722 80.6066 15.4317C80.2678 16.1967 79.8033 16.8415 79.2186 17.3716C78.6339 17.9017 77.9563 18.3169 77.1858 18.6066C76.4153 18.9016 75.5902 19.0437 74.7158 19.0437C73.8524 19.0437 73.0329 18.8962 72.2569 18.6066C71.4809 18.3114 70.8033 17.9017 70.2241 17.3716C69.6448 16.8415 69.1859 16.1912 68.847 15.4317C68.5083 14.6667 68.3388 13.8197 68.3388 12.8797C68.3388 11.9399 68.5083 11.0929 68.847 10.3388C69.1859 9.58471 69.6448 8.94536 70.2241 8.42077C70.8033 7.89618 71.4809 7.49727 72.2569 7.21859C73.0329 6.9399 73.8524 6.80328 74.7158 6.80328C75.5957 6.80328 76.4153 6.9399 77.1858 7.21859C77.9563 7.49727 78.6339 7.89618 79.2186 8.42077C79.8033 8.94536 80.2678 9.58471 80.6066 10.3388C80.9454 11.0929 81.1148 11.9399 81.1148 12.8797ZM77.4645 12.8797C77.4645 12.5082 77.4044 12.1476 77.2787 11.7924C77.1531 11.4371 76.9781 11.1257 76.7486 10.8579C76.5192 10.5902 76.235 10.3716 75.8962 10.2022C75.5574 10.0328 75.1639 9.95083 74.7158 9.95083C74.2678 9.95083 73.8743 10.0383 73.5356 10.2022C73.1968 10.3716 72.918 10.5902 72.694 10.8579C72.47 11.1257 72.3006 11.4371 72.1858 11.7924C72.0711 12.1476 72.0109 12.5082 72.0109 12.8797C72.0109 13.2513 72.0711 13.612 72.1858 13.9672C72.3006 14.3225 72.4755 14.6394 72.705 14.9235C72.9345 15.2077 73.2186 15.4372 73.5574 15.6065C73.8963 15.7759 74.2897 15.8634 74.7377 15.8634C75.1858 15.8634 75.5792 15.7814 75.9181 15.6065C76.2568 15.4372 76.541 15.2077 76.7705 14.9235C77 14.6394 77.1749 14.317 77.2897 13.9672C77.4099 13.612 77.4645 13.2513 77.4645 12.8797Z" fill="#787878"/>
</svg>
