<svg width="86" height="65" viewBox="0 0 86 65" fill="none" xmlns="http://www.w3.org/2000/svg">
<path d="M11.7302 16.599V27.3633C11.7302 27.3633 15.5232 27.3633 17.5531 27.2092C19.1495 26.9297 19.4433 26.7756 19.7371 25.1793L20.3248 22.8411H22.0609L21.7671 27.951L21.9212 33.1862H20.1707L19.7371 31.1419C19.3036 29.6871 18.7159 29.3915 17.5531 29.2517C16.0983 29.0976 11.7302 29.0976 11.7302 29.0976V38.1258C11.7302 39.862 12.6117 40.6037 14.6417 40.6037H20.7584C22.6486 40.6037 24.537 40.4496 25.7142 37.6923L27.2962 34.1931H28.7654C28.6113 34.9205 27.8839 41.3311 27.7441 42.7734C27.7441 42.7734 22.215 42.6337 19.8912 42.6337H9.4064L3.1499 42.7734V41.1914L5.17986 40.7435C6.64903 40.4496 7.08261 40.016 7.08261 38.8533C7.08261 38.8533 7.23669 34.9205 7.23669 28.3684C7.23669 21.8324 7.08261 17.8979 7.08261 17.8979C7.08261 16.5954 6.64903 16.3015 5.17986 16.0077L3.1499 15.5777V13.9813L9.26665 14.1067H20.9125C23.2363 14.1067 27.1546 13.6875 27.1546 13.6875C27.1546 13.6875 27.0149 16.151 26.8608 21.974H25.2644L24.6768 19.9297C24.1034 17.312 23.2345 16.0095 21.6256 16.0095H12.4719C11.7302 16.0113 11.7302 16.151 11.7302 16.599ZM35.3014 17.7474H37.0518V23.8642L43.0288 23.5703L42.735 26.342L36.9121 25.8941V36.6728C36.9121 39.724 37.9333 40.8993 39.6838 40.8993C41.2658 40.8993 42.4412 40.0178 42.8747 39.2904L43.7419 40.3117C42.8747 42.3416 40.4112 43.3629 38.0731 43.3629C35.1759 43.3629 32.8235 41.6268 32.8235 38.2817V26.0464H29.3512V24.5916C32.2645 24.2978 34.4342 22.5473 35.3014 17.7474ZM47.8287 36.5169L48.9897 39.2886C49.4233 40.4496 50.4445 41.6268 52.7683 41.6268C55.2462 41.6268 56.2674 40.3117 56.2674 38.7153C56.2674 33.7595 46.5118 35.2162 46.5118 28.5243C46.5118 24.7457 49.563 22.9809 53.4957 22.9809C55.2462 22.9809 57.8638 23.2747 59.1789 23.8624C58.8851 25.3172 58.731 27.2074 58.731 28.664L57.2887 28.8038L56.2674 25.8923C55.9736 25.1793 54.7983 24.5898 53.356 24.5898C51.6055 24.5898 49.8569 25.3172 49.8569 27.2074C49.8569 31.7153 59.9063 30.7065 59.9063 37.3984C59.9063 41.1914 56.5613 43.2213 52.4745 43.2213C49.4233 43.2213 46.3577 42.046 46.3577 42.046C46.6516 40.3099 46.5118 38.4215 46.3577 36.5169H47.8287ZM59.1807 50.4865C59.6143 48.8902 59.9081 46.862 60.2019 44.9575L61.7983 44.8177L62.386 47.8689C62.5257 48.5963 62.9593 49.184 64.1221 49.184C66.0123 49.184 68.4902 48.023 70.8265 43.9488C69.7909 41.4709 66.7397 33.4783 63.968 27.3615C63.2406 25.7526 63.1009 25.611 62.0921 25.3172L61.3504 25.0377V23.5685L65.731 23.7226L71.106 23.4288V24.8854L69.7909 25.1793C68.7697 25.319 68.3486 25.8923 68.3486 26.4818C68.3486 26.6359 68.3487 26.7756 68.4884 27.0695C68.7679 27.951 71.106 34.4888 72.8565 38.855C74.2988 35.8038 77.0705 28.9597 77.5041 27.7969C77.6581 27.2092 77.7979 27.0695 77.7979 26.6359C77.7979 25.8941 77.3643 25.4605 76.3556 25.181L75.32 24.8854V23.4306L79.4068 23.5703L83.1854 23.4306V24.8854L82.458 25.4587C81.0032 26.0464 80.8491 26.1862 80.274 27.3615L73.8777 42.338C70.0848 50.9327 66.1521 51.6601 63.3929 51.6601C61.6442 51.6619 60.3291 51.214 59.1807 50.4865Z" fill="white"/>
</svg>
