<svg width="62" height="24" viewBox="0 0 62 24" fill="none" xmlns="http://www.w3.org/2000/svg">
<path d="M45.4907 13.7937C45.2812 13.999 44.6228 14.5271 43.9046 14.4391C43.2462 14.3511 42.7374 13.823 42.7374 12.0335V7.16354H46.6579V4.37654H42.7374V0.73877H39.4453V1.35484V4.3472V7.13421V12.0041C39.4453 13.7057 39.8942 17.6368 43.9046 17.6368C45.9397 17.6075 47.1966 16.522 47.7054 16.1113L47.7653 16.0526L45.7002 13.559C45.6703 13.5883 45.5207 13.7643 45.4907 13.7937Z" fill="#787878"/>
<path d="M6.9732 14.4389C4.9381 14.4389 3.322 12.8254 3.322 10.8598C3.322 8.89426 4.96803 7.28073 6.9732 7.28073C8.97837 7.28073 10.6244 8.89426 10.6244 10.8598C10.6244 12.8254 8.97837 14.4389 6.9732 14.4389ZM14.0063 4.3177H10.7142V5.08046C9.63678 4.40571 8.34988 3.995 6.9732 3.995C3.1125 3.995 0 7.07537 0 10.8305C0 14.5856 3.1125 17.666 6.9732 17.666C8.31996 17.666 9.60686 17.2846 10.6843 16.6099C10.6843 16.7272 10.6843 16.8152 10.6843 16.8739C10.6843 18.8688 9.03823 20.453 7.03306 20.453C6.31479 20.453 5.65637 20.2476 5.08774 19.8956L3.41178 22.7413C4.45926 23.3573 5.6863 23.7387 7.00313 23.7387C10.8339 23.7387 14.0063 20.6877 14.0063 16.9032V4.3177Z" fill="#787878"/>
<path d="M24.2431 10.7132C24.2431 11.9454 24.1833 12.7375 24.0337 13.1189C23.8541 13.6176 23.5548 13.999 23.1657 14.263C22.7767 14.527 22.2978 14.6444 21.7591 14.6444C21.2204 14.6444 20.7416 14.527 20.3525 14.263C19.9635 13.999 19.6941 13.6469 19.5445 13.1482C19.3649 12.6788 19.2751 11.828 19.2751 10.6252V4.37646H15.9531V9.77445C15.9531 11.8574 16.0728 13.2655 16.3422 14.0576C16.7013 15.2018 17.3298 16.0819 18.2276 16.698C19.1255 17.3434 20.2927 17.6367 21.7292 17.6367C23.076 17.6367 24.1534 17.3727 25.0213 16.8153C25.8892 16.2579 26.5476 15.4951 26.9965 14.4684C27.3556 13.6469 27.5352 12.0921 27.5352 9.83312V4.37646H24.2431V10.7132Z" fill="#787878"/>
<path d="M34.5969 9.45174L33.3699 8.865C32.8312 8.60097 32.502 8.42495 32.3822 8.27826C32.2625 8.13158 32.1727 7.98489 32.1727 7.80887C32.1727 7.57418 32.2925 7.39816 32.502 7.22213C32.7114 7.07545 33.0107 6.98744 33.3699 6.98744C34.0582 6.98744 34.8064 7.39816 35.6444 8.19025L37.7094 6.16601C37.1707 5.46192 36.5422 4.93386 35.794 4.58181C35.0458 4.20044 34.2378 4.02441 33.3699 4.02441C32.1129 4.02441 31.0953 4.37646 30.2873 5.10988C29.4792 5.8433 29.0902 6.72341 29.0902 7.72086C29.0902 9.30505 30.1676 10.6252 32.2925 11.6813L33.3998 12.2387C34.3575 12.7081 34.8363 13.2069 34.8363 13.7056C34.8363 13.9696 34.7166 14.2043 34.4473 14.4097C34.1779 14.615 33.8188 14.7324 33.3998 14.7324C32.9808 14.7324 32.5319 14.5857 32.0231 14.3217C31.5143 14.0576 31.0355 13.6762 30.6464 13.2362L28.6113 15.4071C29.7486 16.874 31.3048 17.6074 33.2202 17.6074C34.6568 17.6074 35.8239 17.226 36.6919 16.4633C37.5598 15.7005 37.9788 14.7324 37.9788 13.5882C37.9788 12.7375 37.7393 11.9747 37.2605 11.3293C36.7517 10.7132 35.8838 10.0971 34.5969 9.45174Z" fill="#787878"/>
<path d="M57.1922 13.5591C56.5039 14.2632 55.636 14.6153 54.5885 14.6153C53.541 14.6153 52.703 14.2632 52.0147 13.5591C51.3264 12.8551 50.9971 11.9456 50.9971 10.8308C50.9971 9.74535 51.3264 8.83591 52.0147 8.13182C52.703 7.42774 53.5709 7.07569 54.5885 7.07569C55.636 7.07569 56.5039 7.42774 57.1922 8.10249C57.8806 8.80657 58.2098 9.68668 58.2098 10.8015C58.2098 11.9456 57.8806 12.8551 57.1922 13.5591ZM60.6339 7.42774C60.0054 6.37161 59.1675 5.55018 58.0601 4.9341C56.9528 4.31803 55.7856 4.02466 54.5586 4.02466C52.8227 4.02466 51.2964 4.6114 49.9796 5.78487C48.4533 7.13437 47.7051 8.80657 47.7051 10.8308C47.7051 12.7084 48.3635 14.3219 49.7102 15.6421C51.057 16.9622 52.6731 17.637 54.5586 17.637C55.8455 17.637 57.0126 17.3436 58.0901 16.7275C59.1675 16.1408 60.0054 15.29 60.6339 14.2339C61.2624 13.1778 61.5617 12.0336 61.5617 10.8015C61.5617 9.628 61.2624 8.48386 60.6339 7.42774Z" fill="#787878"/>
</svg>
