<svg width="65" height="64" viewBox="0 0 65 64" fill="none" xmlns="http://www.w3.org/2000/svg">
<path fill-rule="evenodd" clip-rule="evenodd" d="M18.6675 6.99863C18.1155 6.99863 17.6675 7.44663 17.6675 7.99863C17.6675 8.55063 18.1155 8.99863 18.6675 8.99863C19.2195 8.99863 19.6675 8.55063 19.6675 7.99863C19.6675 7.44663 19.2195 6.99863 18.6675 6.99863ZM10.6675 6.99863C10.1155 6.99863 9.66748 7.44663 9.66748 7.99863C9.66748 8.55063 10.1155 8.99863 10.6675 8.99863C11.2195 8.99863 11.6675 8.55063 11.6675 7.99863C11.6675 7.44663 11.2195 6.99863 10.6675 6.99863ZM14.6675 12.9986C14.1155 12.9986 13.6675 13.4466 13.6675 13.9986C13.6675 14.5506 14.1155 14.9986 14.6675 14.9986C15.2195 14.9986 15.6675 14.5506 15.6675 13.9986C15.6675 13.4466 15.2195 12.9986 14.6675 12.9986ZM4.66748 8.99863C4.11548 8.99863 3.66748 9.44663 3.66748 9.99863C3.66748 10.5506 4.11548 10.9986 4.66748 10.9986C5.21948 10.9986 5.66748 10.5506 5.66748 9.99863C5.66748 9.44663 5.21948 8.99863 4.66748 8.99863ZM8.66748 16.9986C8.11548 16.9986 7.66748 17.4466 7.66748 17.9986C7.66748 18.5506 8.11548 18.9986 8.66748 18.9986C9.21948 18.9986 9.66748 18.5506 9.66748 17.9986C9.66748 17.4466 9.21948 16.9986 8.66748 16.9986ZM4.66748 18.9986C4.11548 18.9986 3.66748 19.4466 3.66748 19.9986C3.66748 20.5506 4.11548 20.9986 4.66748 20.9986C5.21948 20.9986 5.66748 20.5506 5.66748 19.9986C5.66748 19.4466 5.21948 18.9986 4.66748 18.9986ZM10.6675 20.9986C10.1155 20.9986 9.66748 21.4466 9.66748 21.9986C9.66748 22.5506 10.1155 22.9986 10.6675 22.9986C11.2195 22.9986 11.6675 22.5506 11.6675 21.9986C11.6675 21.4466 11.2195 20.9986 10.6675 20.9986ZM6.66748 22.9986C6.11548 22.9986 5.66748 23.4466 5.66748 23.9986C5.66748 24.5506 6.11548 24.9986 6.66748 24.9986C7.21948 24.9986 7.66748 24.5506 7.66748 23.9986C7.66748 23.4466 7.21948 22.9986 6.66748 22.9986ZM12.6675 24.9986C12.1155 24.9986 11.6675 25.4466 11.6675 25.9986C11.6675 26.5506 12.1155 26.9986 12.6675 26.9986C13.2195 26.9986 13.6675 26.5506 13.6675 25.9986C13.6675 25.4466 13.2195 24.9986 12.6675 24.9986ZM3.66748 26.9986C3.11548 26.9986 2.66748 27.4466 2.66748 27.9986C2.66748 28.5506 3.11548 28.9986 3.66748 28.9986C4.21948 28.9986 4.66748 28.5506 4.66748 27.9986C4.66748 27.4466 4.21948 26.9986 3.66748 26.9986ZM8.66748 28.9986C8.11548 28.9986 7.66748 29.4466 7.66748 29.9986C7.66748 30.5506 8.11548 30.9986 8.66748 30.9986C9.21948 30.9986 9.66748 30.5506 9.66748 29.9986C9.66748 29.4466 9.21948 28.9986 8.66748 28.9986ZM5.66748 30.9986C5.11548 30.9986 4.66748 31.4466 4.66748 31.9986C4.66748 32.5506 5.11548 32.9986 5.66748 32.9986C6.21948 32.9986 6.66748 32.5506 6.66748 31.9986C6.66748 31.4466 6.21948 30.9986 5.66748 30.9986ZM8.66748 34.9986C8.11548 34.9986 7.66748 35.4466 7.66748 35.9986C7.66748 36.5506 8.11548 36.9986 8.66748 36.9986C9.21948 36.9986 9.66748 36.5506 9.66748 35.9986C9.66748 35.4466 9.21948 34.9986 8.66748 34.9986ZM14.6675 34.9986C14.1155 34.9986 13.6675 35.4466 13.6675 35.9986C13.6675 36.5506 14.1155 36.9986 14.6675 36.9986C15.2195 36.9986 15.6675 36.5506 15.6675 35.9986C15.6675 35.4466 15.2195 34.9986 14.6675 34.9986ZM14.6675 40.9986C14.1155 40.9986 13.6675 41.4466 13.6675 41.9986C13.6675 42.5506 14.1155 42.9986 14.6675 42.9986C15.2195 42.9986 15.6675 42.5506 15.6675 41.9986C15.6675 41.4466 15.2195 40.9986 14.6675 40.9986ZM6.66748 40.9986C6.11548 40.9986 5.66748 41.4466 5.66748 41.9986C5.66748 42.5506 6.11548 42.9986 6.66748 42.9986C7.21948 42.9986 7.66748 42.5506 7.66748 41.9986C7.66748 41.4466 7.21948 40.9986 6.66748 40.9986ZM12.6675 44.9986C12.1155 44.9986 11.6675 45.4466 11.6675 45.9986C11.6675 46.5506 12.1155 46.9986 12.6675 46.9986C13.2195 46.9986 13.6675 46.5506 13.6675 45.9986C13.6675 45.4466 13.2195 44.9986 12.6675 44.9986ZM8.66748 46.9986C8.11548 46.9986 7.66748 47.4466 7.66748 47.9986C7.66748 48.5506 8.11548 48.9986 8.66748 48.9986C9.21948 48.9986 9.66748 48.5506 9.66748 47.9986C9.66748 47.4466 9.21948 46.9986 8.66748 46.9986ZM22.6675 46.9986C22.1155 46.9986 21.6675 47.4466 21.6675 47.9986C21.6675 48.5506 22.1155 48.9986 22.6675 48.9986C23.2195 48.9986 23.6675 48.5506 23.6675 47.9986C23.6675 47.4466 23.2195 46.9986 22.6675 46.9986ZM16.6675 50.9986C16.1155 50.9986 15.6675 51.4466 15.6675 51.9986C15.6675 52.5506 16.1155 52.9986 16.6675 52.9986C17.2195 52.9986 17.6675 52.5506 17.6675 51.9986C17.6675 51.4466 17.2195 50.9986 16.6675 50.9986ZM10.6675 52.9986C10.1155 52.9986 9.66748 53.4466 9.66748 53.9986C9.66748 54.5506 10.1155 54.9986 10.6675 54.9986C11.2195 54.9986 11.6675 54.5506 11.6675 53.9986C11.6675 53.4466 11.2195 52.9986 10.6675 52.9986ZM8.66748 56.9986C8.11548 56.9986 7.66748 57.4466 7.66748 57.9986C7.66748 58.5506 8.11548 58.9986 8.66748 58.9986C9.21948 58.9986 9.66748 58.5506 9.66748 57.9986C9.66748 57.4466 9.21948 56.9986 8.66748 56.9986ZM24.6675 54.9986C24.1155 54.9986 23.6675 55.4466 23.6675 55.9986C23.6675 56.5506 24.1155 56.9986 24.6675 56.9986C25.2195 56.9986 25.6675 56.5506 25.6675 55.9986C25.6675 55.4466 25.2195 54.9986 24.6675 54.9986ZM28.6675 59.9986C28.1155 59.9986 27.6675 60.4466 27.6675 60.9986C27.6675 61.5506 28.1155 61.9986 28.6675 61.9986C29.2195 61.9986 29.6675 61.5506 29.6675 60.9986C29.6675 60.4466 29.2195 59.9986 28.6675 59.9986ZM38.6675 52.9986C38.1155 52.9986 37.6675 53.4466 37.6675 53.9986C37.6675 54.5506 38.1155 54.9986 38.6675 54.9986C39.2195 54.9986 39.6675 54.5506 39.6675 53.9986C39.6675 53.4466 39.2195 52.9986 38.6675 52.9986ZM39.6675 1.27863C26.5875 1.27863 15.9475 11.9186 15.9475 24.9986C15.9475 38.0786 26.5875 48.7186 39.6675 48.7186C52.7475 48.7186 63.3875 38.0786 63.3875 24.9986C63.3875 11.9186 52.7475 1.27863 39.6675 1.27863ZM39.6675 47.2786C27.3815 47.2786 17.3875 37.2846 17.3875 24.9986C17.3875 12.7126 27.3815 2.71863 39.6675 2.71863C51.9535 2.71863 61.9475 12.7126 61.9475 24.9986C61.9475 37.2846 51.9535 47.2786 39.6675 47.2786ZM31.1755 30.5066L28.6855 32.9986L31.1755 35.4886L30.1575 36.5086L27.6675 34.0166L25.1755 36.5086L24.1575 35.4886L26.6475 32.9986L24.1575 30.5066L25.1755 29.4886L27.6675 31.9786L30.1595 29.4886L31.1755 30.5066ZM53.1775 26.5066L50.6855 28.9986L53.1775 31.4906L52.1575 32.5086L49.6675 30.0166L47.1775 32.5066L46.1575 31.4886L48.6495 28.9966L46.1575 26.5046L47.1775 25.4866L49.6675 27.9766L52.1575 25.4866L53.1775 26.5066ZM41.1775 12.5066L38.6855 14.9986L41.1775 17.4906L40.1575 18.5086L37.6675 16.0166L35.1775 18.5066L34.1595 17.4886L36.6495 14.9986L34.1595 12.5066L35.1775 11.4886L37.6675 13.9806L40.1575 11.4906L41.1775 12.5066Z" fill="#623C01"/>
</svg>
