<svg width="64" height="64" viewBox="0 0 64 64" fill="none" xmlns="http://www.w3.org/2000/svg">
<path fill-rule="evenodd" clip-rule="evenodd" d="M32 2.72003C30.1977 2.72003 28.72 4.19767 28.72 6.00003C28.72 7.80238 30.1977 9.28003 32 9.28003C33.8024 9.28003 35.28 7.80238 35.28 6.00003C35.28 4.19767 33.8024 2.72003 32 2.72003ZM27.28 6.00003C27.28 3.40238 29.4024 1.28003 32 1.28003C34.5977 1.28003 36.72 3.40238 36.72 6.00003C36.72 8.59767 34.5977 10.72 32 10.72C29.4024 10.72 27.28 8.59767 27.28 6.00003ZM9.69091 9.69091C11.5321 7.84974 14.528 7.84974 16.3691 9.69091C18.2103 11.5321 18.2103 14.528 16.3691 16.3691C14.528 18.2103 11.5321 18.2103 9.69091 16.3691C7.84974 14.528 7.84974 11.5321 9.69091 9.69091ZM15.3509 10.7091C14.0721 9.43032 11.988 9.43032 10.7091 10.7091C9.43032 11.988 9.43032 14.0721 10.7091 15.3509C11.988 16.6297 14.0721 16.6297 15.3509 15.3509C16.6297 14.0721 16.6297 11.988 15.3509 10.7091ZM47.6309 9.69091C49.4721 7.84974 52.468 7.84974 54.3091 9.69091C56.1503 11.5321 56.1503 14.528 54.3091 16.3691C52.468 18.2103 49.4721 18.2103 47.6309 16.3691C45.7897 14.528 45.7897 11.5321 47.6309 9.69091ZM53.2909 10.7091C52.0121 9.43032 49.928 9.43032 48.6491 10.7091C47.3703 11.988 47.3703 14.0721 48.6491 15.3509C49.928 16.6297 52.0121 16.6297 53.2909 15.3509C54.5697 14.0721 54.5697 11.988 53.2909 10.7091ZM1.28003 32C1.28003 29.4024 3.40238 27.28 6.00003 27.28C8.59767 27.28 10.72 29.4024 10.72 32C10.72 34.5977 8.59767 36.72 6.00003 36.72C3.40238 36.72 1.28003 34.5977 1.28003 32ZM6.00003 28.72C4.19767 28.72 2.72003 30.1977 2.72003 32C2.72003 33.8024 4.19767 35.28 6.00003 35.28C7.80238 35.28 9.28003 33.8024 9.28003 32C9.28003 30.1977 7.80238 28.72 6.00003 28.72ZM53.28 32C53.28 29.4024 55.4024 27.28 58 27.28C60.5977 27.28 62.72 29.4024 62.72 32C62.72 34.5977 60.5977 36.72 58 36.72C55.4024 36.72 53.28 34.5977 53.28 32ZM58 28.72C56.1977 28.72 54.72 30.1977 54.72 32C54.72 33.8024 56.1977 35.28 58 35.28C59.8024 35.28 61.28 33.8024 61.28 32C61.28 30.1977 59.8024 28.72 58 28.72ZM9.69091 47.6309C11.5321 45.7897 14.528 45.7897 16.3691 47.6309C18.2103 49.4721 18.2103 52.468 16.3691 54.3091C14.528 56.1503 11.5321 56.1503 9.69091 54.3091C7.84974 52.468 7.84974 49.4721 9.69091 47.6309ZM15.3509 48.6491C14.0721 47.3703 11.988 47.3703 10.7091 48.6491C9.43032 49.928 9.43032 52.0121 10.7091 53.2909C11.988 54.5697 14.0721 54.5697 15.3509 53.2909C16.6297 52.0121 16.6297 49.928 15.3509 48.6491ZM47.6309 47.6309C49.4721 45.7897 52.468 45.7897 54.3091 47.6309C56.1503 49.4721 56.1503 52.468 54.3091 54.3091C52.468 56.1503 49.4721 56.1503 47.6309 54.3091C45.7897 52.468 45.7897 49.4721 47.6309 47.6309ZM53.2909 48.6491C52.0121 47.3703 49.928 47.3703 48.6491 48.6491C47.3703 49.928 47.3703 52.0121 48.6491 53.2909C49.928 54.5697 52.0121 54.5697 53.2909 53.2909C54.5697 52.0121 54.5697 49.928 53.2909 48.6491ZM27.28 58C27.28 55.4024 29.4024 53.28 32 53.28C34.5977 53.28 36.72 55.4024 36.72 58C36.72 60.5977 34.5977 62.72 32 62.72C29.4024 62.72 27.28 60.5977 27.28 58ZM32 54.72C30.1977 54.72 28.72 56.1977 28.72 58C28.72 59.8024 30.1977 61.28 32 61.28C33.8024 61.28 35.28 59.8024 35.28 58C35.28 56.1977 33.8024 54.72 32 54.72Z" fill="#623C01"/>
<path fill-rule="evenodd" clip-rule="evenodd" d="M31.28 54V46H32.72V54H31.28Z" fill="#623C01"/>
<path fill-rule="evenodd" clip-rule="evenodd" d="M31.28 18V10H32.72V18H31.28Z" fill="#623C01"/>
<path fill-rule="evenodd" clip-rule="evenodd" d="M54 32.72H46V31.28H54V32.72Z" fill="#623C01"/>
<path fill-rule="evenodd" clip-rule="evenodd" d="M18 32.72H10V31.28H18V32.72Z" fill="#623C01"/>
<path fill-rule="evenodd" clip-rule="evenodd" d="M47.0509 48.0691L41.4909 42.5091L42.5091 41.4909L48.0691 47.0509L47.0509 48.0691Z" fill="#623C01"/>
<path fill-rule="evenodd" clip-rule="evenodd" d="M21.491 22.5086L15.931 16.9486L16.9492 15.9304L22.5092 21.4904L21.491 22.5086Z" fill="#623C01"/>
<path fill-rule="evenodd" clip-rule="evenodd" d="M48.0691 16.9486L42.5091 22.5086L41.4909 21.4904L47.0509 15.9304L48.0691 16.9486Z" fill="#623C01"/>
<path fill-rule="evenodd" clip-rule="evenodd" d="M22.5092 42.5091L16.9492 48.0691L15.931 47.0509L21.491 41.4909L22.5092 42.5091Z" fill="#623C01"/>
<path fill-rule="evenodd" clip-rule="evenodd" d="M19.3 32C19.3 24.9824 25.0024 19.28 32.0201 19.28C39.0377 19.28 44.7401 24.9824 44.7401 32C44.7401 39.0177 39.0377 44.72 32.0201 44.72C25.0024 44.72 19.3 39.0177 19.3 32ZM32.0201 20.72C25.7977 20.72 20.74 25.7777 20.74 32C20.74 34.7742 21.7454 37.3169 23.4111 39.2831C23.9142 36.4073 25.8241 34.0236 28.4136 32.8562C27.4678 31.9277 26.88 30.6327 26.88 29.2C26.88 26.3603 29.1845 24.08 32 24.08C34.8177 24.08 37.12 26.3824 37.12 29.2C37.12 30.6323 36.5326 31.927 35.5873 32.8554C38.1858 34.0226 40.1127 36.4054 40.6125 39.3025C42.2881 37.3337 43.3001 34.7834 43.3001 32C43.3001 25.7777 38.2424 20.72 32.0201 20.72ZM39.2977 40.6136C39.2153 37.3155 36.9534 34.5986 33.893 33.7753C33.6079 33.6986 33.3986 33.4557 33.3648 33.1624C33.331 32.8692 33.4796 32.585 33.7398 32.4455C34.8947 31.8262 35.68 30.6049 35.68 29.2C35.68 27.1777 34.0224 25.52 32 25.52C29.9756 25.52 28.32 27.1598 28.32 29.2C28.32 30.6049 29.1054 31.8262 30.2603 32.4455C30.5205 32.585 30.6691 32.8692 30.6353 33.1624C30.6015 33.4557 30.3922 33.6986 30.1071 33.7753C27.0558 34.5961 24.8121 37.3214 24.7228 40.597C26.6909 42.2698 29.2392 43.28 32.0201 43.28C34.7917 43.28 37.3323 42.2765 39.2977 40.6136Z" fill="#623C01"/>
</svg>
