<svg width="65" height="64" viewBox="0 0 65 64" fill="none" xmlns="http://www.w3.org/2000/svg">
<path fill-rule="evenodd" clip-rule="evenodd" d="M30.5 56.9818L37.9909 49.4909L39.0091 50.5091L30.5 59.0183L25.9909 54.5091L27.0091 53.4909L30.5 56.9818Z" fill="#623C01"/>
<path fill-rule="evenodd" clip-rule="evenodd" d="M20.78 33C20.78 26.5224 26.0224 21.28 32.5 21.28C38.9777 21.28 44.22 26.5224 44.22 33C44.22 36.8988 42.3118 40.3424 39.3875 42.4743C47.4485 45.3083 53.22 52.9642 53.22 62H51.78C51.78 53.075 45.7278 45.5938 37.4943 43.3957C37.209 43.3195 36.9991 43.0768 36.9649 42.7835C36.9306 42.4902 37.079 42.2057 37.3391 42.0659C40.5769 40.3253 42.78 36.9225 42.78 33C42.78 27.3177 38.1824 22.72 32.5 22.72C26.8177 22.72 22.22 27.3177 22.22 33C22.22 36.9245 24.4248 40.3449 27.6581 42.0643C27.921 42.2041 28.0707 42.4914 28.0348 42.787C27.9988 43.0826 27.7846 43.3255 27.4958 43.3982C19.3174 45.4573 13.22 53.0683 13.22 62H11.78C11.78 52.9846 17.5643 45.2062 25.5886 42.4628C22.676 40.3374 20.78 36.8858 20.78 33Z" fill="#623C01"/>
<path fill-rule="evenodd" clip-rule="evenodd" d="M32.5 2.72003C30.1363 2.72003 28.22 4.63625 28.22 7.00003C28.22 9.36381 30.1363 11.28 32.5 11.28C34.8638 11.28 36.78 9.36381 36.78 7.00003C36.78 4.63625 34.8638 2.72003 32.5 2.72003ZM26.78 7.00003C26.78 3.84096 29.341 1.28003 32.5 1.28003C35.6591 1.28003 38.22 3.84096 38.22 7.00003C38.22 10.1591 35.6591 12.72 32.5 12.72C29.341 12.72 26.78 10.1591 26.78 7.00003Z" fill="#623C01"/>
<path fill-rule="evenodd" clip-rule="evenodd" d="M7.50003 24.72C5.13625 24.72 3.22003 26.6363 3.22003 29C3.22003 31.3638 5.13625 33.28 7.50003 33.28C9.86381 33.28 11.78 31.3638 11.78 29C11.78 26.6363 9.86381 24.72 7.50003 24.72ZM1.78003 29C1.78003 25.841 4.34096 23.28 7.50003 23.28C10.6591 23.28 13.22 25.841 13.22 29C13.22 32.1591 10.6591 34.72 7.50003 34.72C4.34096 34.72 1.78003 32.1591 1.78003 29Z" fill="#623C01"/>
<path fill-rule="evenodd" clip-rule="evenodd" d="M57.5 24.72C55.1362 24.72 53.22 26.6363 53.22 29C53.22 31.3638 55.1362 33.28 57.5 33.28C59.8638 33.28 61.78 31.3638 61.78 29C61.78 26.6363 59.8638 24.72 57.5 24.72ZM51.78 29C51.78 25.841 54.341 23.28 57.5 23.28C60.6591 23.28 63.22 25.841 63.22 29C63.22 32.1591 60.6591 34.72 57.5 34.72C54.341 34.72 51.78 32.1591 51.78 29Z" fill="#623C01"/>
<path fill-rule="evenodd" clip-rule="evenodd" d="M43.78 13C43.78 9.84238 46.3424 7.28003 49.5 7.28003C52.6577 7.28003 55.22 9.84238 55.22 13C55.22 16.1577 52.6577 18.72 49.5 18.72C46.3424 18.72 43.78 16.1577 43.78 13ZM49.5 8.72003C47.1377 8.72003 45.22 10.6377 45.22 13C45.22 15.3624 47.1377 17.28 49.5 17.28C51.8624 17.28 53.78 15.3624 53.78 13C53.78 10.6377 51.8624 8.72003 49.5 8.72003Z" fill="#623C01"/>
<path fill-rule="evenodd" clip-rule="evenodd" d="M15.5 8.72003C13.1363 8.72003 11.22 10.6363 11.22 13C11.22 15.3638 13.1363 17.28 15.5 17.28C17.8638 17.28 19.78 15.3638 19.78 13C19.78 10.6363 17.8638 8.72003 15.5 8.72003ZM9.78003 13C9.78003 9.84096 12.341 7.28003 15.5 7.28003C18.6591 7.28003 21.22 9.84096 21.22 13C21.22 16.1591 18.6591 18.72 15.5 18.72C12.341 18.72 9.78003 16.1591 9.78003 13Z" fill="#623C01"/>
<path d="M17.5 31C17.5 31.5523 17.0523 32 16.5 32C15.9477 32 15.5 31.5523 15.5 31C15.5 30.4477 15.9477 30 16.5 30C17.0523 30 17.5 30.4477 17.5 31Z" fill="#623C01"/>
<path d="M23.5 20C23.5 20.5523 23.0523 21 22.5 21C21.9477 21 21.5 20.5523 21.5 20C21.5 19.4477 21.9477 19 22.5 19C23.0523 19 23.5 19.4477 23.5 20Z" fill="#623C01"/>
<path d="M33.5 16C33.5 16.5523 33.0523 17 32.5 17C31.9477 17 31.5 16.5523 31.5 16C31.5 15.4477 31.9477 15 32.5 15C33.0523 15 33.5 15.4477 33.5 16Z" fill="#623C01"/>
<path d="M43.5 20C43.5 20.5523 43.0523 21 42.5 21C41.9477 21 41.5 20.5523 41.5 20C41.5 19.4477 41.9477 19 42.5 19C43.0523 19 43.5 19.4477 43.5 20Z" fill="#623C01"/>
<path d="M49.5 31C49.5 31.5523 49.0523 32 48.5 32C47.9477 32 47.5 31.5523 47.5 31C47.5 30.4477 47.9477 30 48.5 30C49.0523 30 49.5 30.4477 49.5 31Z" fill="#623C01"/>
</svg>
