<svg width="65" height="64" viewBox="0 0 65 64" fill="none" xmlns="http://www.w3.org/2000/svg">
<g clip-path="url(#clip0_3173_5663)">
<path d="M32.3333 60.72C16.4973 60.72 3.61328 47.836 3.61328 32C3.61328 24.328 6.60128 17.116 12.0253 11.692L13.0433 12.71C7.89128 17.862 5.05328 24.712 5.05328 32C5.05328 47.042 17.2913 59.28 32.3333 59.28C47.3753 59.28 59.6133 47.044 59.6133 32C59.6133 17.972 48.8153 6.18003 34.9093 4.87203C34.5453 5.94603 33.5293 6.72003 32.3333 6.72003C30.8333 6.72003 29.6133 5.50003 29.6133 4.00003C29.6133 2.50003 30.8333 1.28003 32.3333 1.28003C33.6393 1.28003 34.7313 2.20403 34.9933 3.43203C49.6573 4.78803 61.0533 17.214 61.0533 32C61.0533 47.836 48.1693 60.72 32.3333 60.72ZM32.3333 2.72003C31.6273 2.72003 31.0533 3.29403 31.0533 4.00003C31.0533 4.70603 31.6273 5.28003 32.3333 5.28003C33.0393 5.28003 33.6133 4.70603 33.6133 4.00003C33.6133 3.29403 33.0393 2.72003 32.3333 2.72003ZM32.3333 52.72C31.0133 52.72 29.9093 51.774 29.6653 50.524C20.4713 49.216 13.6133 41.36 13.6133 32C13.6133 21.678 22.0113 13.28 32.3333 13.28C42.6553 13.28 51.0533 21.678 51.0533 32C51.0533 37 49.1053 41.702 45.5713 45.236L44.5513 44.216C47.8153 40.952 49.6113 36.614 49.6113 32C49.6113 22.472 41.8593 14.72 32.3313 14.72C22.8033 14.72 15.0513 22.472 15.0513 32C15.0513 40.608 21.3333 47.838 29.7693 49.086C30.1473 48.036 31.1533 47.28 32.3333 47.28C33.8333 47.28 35.0533 48.5 35.0533 50C35.0533 51.5 33.8333 52.72 32.3333 52.72ZM32.3333 48.72C31.6273 48.72 31.0533 49.294 31.0533 50C31.0533 50.706 31.6273 51.28 32.3333 51.28C33.0393 51.28 33.6133 50.706 33.6133 50C33.6133 49.294 33.0393 48.72 32.3333 48.72ZM32.3333 40.72C27.5253 40.72 23.6133 36.808 23.6133 32C23.6133 29.672 24.5193 27.482 26.1653 25.834L27.1853 26.852C25.8113 28.228 25.0533 30.056 25.0533 32C25.0533 36.014 28.3193 39.28 32.3333 39.28C36.3473 39.28 39.6133 36.014 39.6133 32C39.6133 28.912 37.6613 26.198 34.7893 25.172C34.3493 26.088 33.4153 26.72 32.3333 26.72C30.8333 26.72 29.6133 25.5 29.6133 24C29.6133 22.5 30.8333 21.28 32.3333 21.28C33.7453 21.28 34.9073 22.36 35.0413 23.736C38.6113 24.9 41.0553 28.216 41.0553 32C41.0533 36.808 37.1413 40.72 32.3333 40.72ZM32.3333 22.72C31.6273 22.72 31.0533 23.294 31.0533 24C31.0533 24.706 31.6273 25.28 32.3333 25.28C33.0393 25.28 33.6133 24.706 33.6133 24C33.6133 23.294 33.0393 22.72 32.3333 22.72Z" fill="#623C01"/>
</g>
<defs>
<clipPath id="clip0_3173_5663">
<rect width="64" height="64" fill="white" transform="translate(0.333252)"/>
</clipPath>
</defs>
</svg>
