<svg width="83" height="65" viewBox="0 0 83 65" fill="none" xmlns="http://www.w3.org/2000/svg">
<path d="M21.7742 27.1953C20.5093 27.1953 19.5088 28.1708 19.5088 29.4607C19.5088 30.7506 20.5093 31.7261 21.7742 31.7261C23.0391 31.7261 24.0396 30.7506 24.0396 29.4607C24.0396 28.1708 23.0391 27.1953 21.7742 27.1953Z" fill="white"/>
<path d="M34.708 16.0575H26.6971V12.2104H33.8374V8.36337H26.6971V4.56874H34.5758V0.694336H22.376V19.9319H34.708V16.0575Z" fill="white"/>
<path d="M25.7805 27.6694C27.0454 27.6694 28.0459 26.694 28.0459 25.4041C28.0459 24.1141 27.0454 23.1387 25.7805 23.1387C24.5156 23.1387 23.5151 24.1141 23.5151 25.4041C23.5151 26.694 24.5156 27.6694 25.7805 27.6694Z" fill="white"/>
<path d="M8.9681 20.3259C11.7622 20.3259 14.2122 18.9038 15.6617 16.7159V19.9316H19.4563V9.23371H9.28489V12.9235H13.5536C13.1593 14.8995 11.4181 16.4287 9.30996 16.4287C6.96481 16.4287 5.06636 14.5302 5.06636 11.7635V8.91692C5.06636 6.20257 7.09472 4.19927 9.94126 4.19927C12.1542 4.19927 14.1302 5.41173 14.7888 7.178L18.7954 5.78094C17.6878 2.40793 14.1051 0.299805 9.96861 0.299805C4.75185 0.299805 0.850098 3.805 0.850098 8.91692V11.7635C0.852377 16.6885 4.48748 20.3259 8.9681 20.3259Z" fill="white"/>
<path d="M46.0122 8.66127V6.09961H41.748V9.68685V12.2462H46.0122V8.66127Z" fill="white"/>
<path d="M51.1514 0.694336H36.5518V4.56874H51.1514V0.694336Z" fill="white"/>
<path d="M7.96762 42.2665H12.2887V34.969L19.5338 23.0312H14.6589L10.1008 30.91L5.59512 23.0312H0.720215L7.96762 35.0214V42.2665Z" fill="white"/>
<path d="M46.0122 17.3652V13.7803H41.748V16.3397V19.9246H46.0122V17.3652Z" fill="white"/>
<path d="M78.8895 42.2668L73.6454 34.9146C76.2025 34.1238 77.9938 31.8834 77.9938 29.144C77.9938 25.6662 75.1222 23.0293 71.4848 23.0293H68.9551V26.9288H71.3276C72.5925 26.9288 73.5679 27.9293 73.5679 29.2466C73.5679 30.5639 72.5925 31.5667 71.3276 31.5667H68.9551V35.2564L73.6454 42.2668H78.8895Z" fill="white"/>
<path d="M57.4733 45.3408H51.1216V64.6034H57.4733C63.4285 64.6034 67.6448 60.5194 67.6448 54.9858C67.6448 49.4522 63.4285 45.3408 57.4733 45.3408ZM57.8152 60.729H55.4427V49.2129H57.8152C61.0309 49.2129 63.2165 51.6903 63.2165 54.9835C63.2165 58.2768 61.0309 60.729 57.8152 60.729Z" fill="white"/>
<path d="M74.5481 56.882H81.6884V53.0349H74.5481V49.2403H82.4269V45.3682H70.2271V64.6034H82.559V60.729H74.5481V56.882Z" fill="white"/>
<path d="M67.663 35.7621L65.4295 32.5965L67.6334 29.3944L65.3999 26.2311L67.606 23.0312L63.1505 23.0335L60.9443 26.2675L63.1801 29.4331L60.974 32.6352L63.2097 35.7985L61.0036 39.0029L63.3761 42.2961H67.8795L65.4569 38.9664L67.663 35.7621Z" fill="white"/>
<path d="M57.8245 34.7844V23.0312H53.5285V34.8641C53.5285 37.0771 51.9468 38.7112 49.7863 38.7112C47.6257 38.7112 46.0441 37.0771 46.0441 34.8641V23.0312H41.748V34.7844C41.748 39.3174 45.1484 42.6631 49.7863 42.6631C54.4242 42.6631 57.8245 39.3151 57.8245 34.7844Z" fill="white"/>
<path d="M34.2385 57.1991C34.2385 59.412 32.6568 61.0461 30.4962 61.0461C28.3357 61.0461 26.754 59.412 26.754 57.1991V45.3662H22.458V57.1193C22.458 61.6524 25.8584 64.998 30.4962 64.998C35.1341 64.998 38.5345 61.6524 38.5345 57.1193V45.3662H34.2385V57.1991Z" fill="white"/>
<path d="M9.28489 57.5954H13.5536C13.1593 59.5713 11.4181 61.1006 9.30996 61.1006C6.96481 61.1006 5.06636 59.2021 5.06636 56.4353V53.5888C5.06636 50.8744 7.09472 48.8712 9.94126 48.8712C12.1542 48.8712 14.1302 50.0836 14.7888 51.8499L18.7954 50.4528C17.6878 47.0798 14.1051 44.9717 9.96861 44.9717C4.75185 44.9717 0.850098 48.4769 0.850098 53.5888V56.4353C0.850098 61.3627 4.48748 65 8.96583 65C11.76 65 14.2099 63.5779 15.6594 61.39V64.6058H19.4541V53.9079H9.28489V57.5954Z" fill="white"/>
<path d="M29.0217 22.6348V26.6938C32.185 26.6938 34.6874 29.2759 34.6874 32.6489C34.6874 36.022 32.185 38.6041 29.0217 38.6041C25.8606 38.6041 23.3559 36.022 23.3559 32.6489H18.9277C18.9277 38.2623 23.4084 42.6631 29.0194 42.6631C34.6327 42.6631 39.1111 38.2623 39.1111 32.6489C39.1111 27.0356 34.635 22.6348 29.0217 22.6348Z" fill="white"/>
<path d="M46.6955 54.4229C47.3337 53.8463 48.4025 52.8822 48.4025 51.116C48.4025 49.3497 47.3337 48.3856 46.6955 47.809C46.6682 47.784 46.6408 47.7589 46.6158 47.7384C46.2967 47.4034 46.242 46.9225 46.2352 46.6946V45.3408H41.9072V47.1413H41.9095C41.9095 47.1641 41.9072 47.1846 41.9072 47.2074C41.9072 48.9736 42.9761 49.9377 43.6142 50.5143C44.0723 50.9291 44.0723 50.9496 44.0723 51.116C44.0723 51.2823 44.0723 51.3028 43.6142 51.7176C43.0012 52.2714 41.9916 53.1876 41.9163 54.8308H41.9118C41.9118 54.8627 41.9072 54.8924 41.9072 54.922C41.9072 54.9402 41.9095 54.9562 41.9095 54.9721C41.9095 54.9904 41.9072 55.0063 41.9072 55.0223C41.9072 55.0542 41.9095 55.0838 41.9118 55.1134H41.9163C41.9916 56.7566 43.0012 57.6728 43.6142 58.2266C44.0723 58.6414 44.0723 58.6619 44.0723 58.8283C44.0723 58.9947 44.0723 59.0152 43.6142 59.43C42.9761 60.0066 41.9072 60.9706 41.9072 62.7369C41.9072 62.7597 41.9072 62.7825 41.9095 62.803H41.9072V64.6034H46.2352V63.2497C46.242 63.024 46.2967 62.5409 46.6158 62.2059C46.6408 62.1831 46.6659 62.1603 46.6955 62.1352C47.3337 61.5586 48.4025 60.5946 48.4025 58.8283C48.4025 57.062 47.3337 56.098 46.6955 55.5214C46.2876 55.1544 46.242 55.0952 46.2374 54.9721C46.242 54.8491 46.2876 54.7898 46.6955 54.4229Z" fill="white"/>
</svg>
