<svg width="60" height="65" viewBox="0 0 60 65" fill="none" xmlns="http://www.w3.org/2000/svg">
<path d="M22.6614 21.7774H31.2486V41.0532C31.2486 44.6453 29.9987 47.6294 27.6543 49.6698C25.5531 51.4985 22.6321 52.5029 19.4341 52.5029C17.3937 52.5029 15.3217 52.075 13.4052 51.3138V43.7017C13.6777 43.8548 13.9232 43.9765 13.9232 43.9765C15.2001 44.5845 16.5717 44.9223 17.9409 44.9223C19.281 44.9223 20.4385 44.6161 21.3506 44.0373C22.3258 43.4292 22.9046 42.5464 23.0262 41.5104C21.7333 42.6075 20.0938 43.2115 18.3981 43.2152C16.5014 43.2123 14.6833 42.4575 13.3421 41.1163C12.0009 39.7752 11.2462 37.957 11.2432 36.0603V21.7774H19.8282V33.1956C19.8282 34.2947 21.0781 35.1167 22.2357 34.2947C22.3807 34.1913 22.4981 34.0538 22.5774 33.8943C22.6568 33.7349 22.6956 33.5583 22.6906 33.3803V21.7774H22.6614ZM9.11269 36.0603C9.11269 38.3732 9.84237 40.4136 11.2432 41.9676C11.3333 42.0577 11.5472 42.3009 11.5472 42.3009C11.5472 42.3009 11.304 42.454 11.1824 42.5148C10.2008 42.976 9.12969 43.2152 8.04519 43.2152C4.42155 43.2152 0.554688 40.5352 0.554688 34.628V13.1924H9.11269V36.0603ZM56.247 30.3647V31.7971C56.247 33.351 57.4947 34.6572 59.1072 34.6572V43.2468H58.7446C55.7898 43.1544 53.0198 41.9969 50.9793 39.9587C48.8466 37.826 47.6913 34.932 47.6913 31.8286V23.971C47.6913 21.8991 45.4684 20.3158 43.2456 21.5342C42.8564 21.7603 42.5334 22.0845 42.3089 22.4746C42.0844 22.8647 41.9663 23.307 41.9664 23.757V26.1015H45.5292V34.628H41.9664C41.9687 36.8453 41.1057 38.976 39.5612 40.5668C38.0413 42.1696 35.9516 43.1097 33.744 43.1837H33.4107V23.7255C33.4107 19.4938 36.6379 14.7441 40.5949 13.2825C47.7205 10.634 54.7854 15.0482 56.0646 21.7774H59.1094V30.3647H56.247Z" fill="white"/>
</svg>
