<svg width="110" height="65" viewBox="0 0 110 65" fill="none" xmlns="http://www.w3.org/2000/svg">
<g clip-path="url(#clip0_4735_99)">
<path d="M100.854 32.0259H97.0225C94.5506 32.0259 93.191 33.8037 93.191 36.8852V47.9074H85.7753V32.0259H82.6854C80.2135 32.0259 78.8539 33.8037 78.8539 36.8852V47.9074H71.4382V26.1H78.8539V29.4185C80.0899 26.8111 81.6966 26.1 84.1685 26.1H93.191V29.4185C94.427 26.8111 96.0337 26.1 98.5056 26.1H100.978L100.854 32.0259ZM69.7079 38.663H54.382C54.7528 41.1519 56.3595 42.4556 58.9551 42.4556C60.9326 42.4556 62.2921 41.6259 62.7865 40.3222L69.3371 42.1C67.7303 45.8926 63.7753 48.1444 58.9551 48.1444C50.9213 48.1444 47.2135 42.1 47.2135 36.8852C47.2135 31.7889 50.427 25.7444 58.4607 25.7444C66.9888 25.7444 69.8315 31.9074 69.8315 36.5296C69.8315 37.5963 69.8315 38.1889 69.7079 38.663ZM62.6629 34.5148C62.5393 32.6185 61.0562 30.9593 58.5843 30.9593C56.236 30.9593 54.8764 31.9074 54.382 34.5148H62.6629ZM34.3595 47.9074H40.7865L48.9438 26.2185H41.5281L37.573 38.9L33.618 26.1H26.2022L34.3595 47.9074ZM4.20225 47.9074H11.4944V32.0259H18.5393V47.9074H25.8315V26.1H11.4944V24.7963C11.4944 23.3741 12.6067 22.4259 14.2135 22.4259H18.5393V16.5H13.1011C7.78652 16.5 4.20225 19.7 4.20225 24.3222V26.1H0V32.0259H4.20225V47.9074Z" fill="white"/>
<path d="M105.427 48.4999C107.899 48.4999 110 46.485 110 44.1147C110 41.7443 107.899 39.7295 105.427 39.7295C102.955 39.7295 100.854 41.7443 100.854 44.1147C100.854 46.485 102.955 48.4999 105.427 48.4999Z" fill="white"/>
</g>
<defs>
<clipPath id="clip0_4735_99">
<rect width="110" height="32" fill="white" transform="translate(0 16.5)"/>
</clipPath>
</defs>
</svg>
