<svg width="166" height="72" viewBox="0 0 166 72" fill="none" xmlns="http://www.w3.org/2000/svg">
<path d="M0 16C0 7.16344 7.16344 0 16 0H150C158.837 0 166 7.16344 166 16V56C166 64.8366 158.837 72 150 72H16C7.16344 72 0 64.8366 0 56V16Z" fill="#F2F2F2"/>
<path d="M33.6366 53.9538L33.2788 53.4724C30.6234 46.2765 26.7919 39.2062 24.2025 32.026C23.9309 31.2731 23.5395 30.5998 24.614 30.3204L43.8565 25.0938L43.2696 26.5188L43.0516 26.7477L25.6034 31.4795L34.1967 52.164L34.5265 52.1057L53.6629 39.7235L53.9636 39.636L54.4052 40.969L34.1956 53.9538H33.6366Z" fill="#90AEB2"/>
<path d="M64.243 47.9136H59.384C59.1447 47.9136 58.3241 47.1461 58.1877 46.8734L54.8593 38.0695H46.4818L48.0459 33.8191H53.2963L50.8355 26.3808C51.6583 24.3689 52.2095 21.8812 53.1274 19.949C53.1677 19.8648 53.3209 19.5473 53.4058 19.6135L64.2418 47.9136H64.243Z" fill="#0B4551"/>
<path d="M52.5135 18.0469L44.96 39.086L40.4163 37.4881L40.243 37.2536L48.1017 18.0469H52.5135Z" fill="#C6D930"/>
<path d="M38.2172 40.1947L39.4437 40.0847C39.6595 40.8275 39.4068 43.9335 40.5908 43.755C41.2918 43.6496 42.6145 42.0607 42.979 41.9934C43.1802 41.9563 43.6285 42.6105 43.5704 42.8069L33.8602 48.3601C33.3124 46.3448 33.3258 44.3273 34.4394 42.5095C34.5557 42.3188 35.269 41.5176 35.1985 41.4267C33.0273 40.6884 31.7203 37.6172 31.9719 35.4527C32.2704 32.8764 34.6831 32.8731 36.3747 34.2633C38.0931 35.676 38.9954 38.0436 38.2161 40.1947H38.2172Z" fill="#90AEB2"/>
<path d="M84.6828 34.3228C84.1842 38.0347 78.2597 38.0885 75.9923 36.1137L77.2009 34.1556C77.95 34.5125 78.6264 35.0668 79.4884 35.1621C80.7395 35.3002 82.4814 35.0163 82.1124 33.3713C79.7366 35.4572 76.1835 33.7831 75.8715 30.7288C75.4758 26.8452 79.2245 24.2364 82.3349 26.9956C82.3696 26.8722 82.2913 26.1013 82.3349 26.1013H84.6806V34.3228H84.6828ZM79.9624 28.1413C77.9131 28.4857 77.9388 31.7005 79.9434 32.0214C83.1544 32.5365 83.084 27.6161 79.9624 28.1413Z" fill="#0B4551"/>
<path d="M76.3054 34.1544H73.29C73.1078 33.7571 72.5152 31.8159 72.2111 31.7116C71.6409 31.7509 67.8206 31.5724 67.6931 31.7598L66.8121 34.1544H63.9075L69.0974 22.4005C69.5893 22.506 71.0014 22.2087 71.2709 22.5857L76.3065 34.1532L76.3054 34.1544ZM71.3916 29.4562L69.9952 25.8756L68.5988 29.4562H71.3916Z" fill="#0B4551"/>
<path d="M107.68 32.2658C108.096 32.9772 105.468 34.1981 104.904 34.326C99.9004 35.4604 95.9649 31.2818 97.3614 26.3255C98.561 22.0661 104.487 20.5277 107.466 23.8076C107.466 23.9344 105.619 25.3953 105.493 25.4155C105.38 25.4323 104.837 24.905 104.591 24.7894C102.746 23.9187 100.551 25.0632 100.018 26.973C98.9658 30.742 102.685 33.9097 105.625 30.8195C105.846 31.1191 107.61 32.1469 107.68 32.267V32.2658Z" fill="#0B4551"/>
<path d="M110.82 21.6265V26.9956C111.045 26.8206 111.121 26.585 111.386 26.3886C112.437 25.6099 114.443 25.666 115.337 26.6669C115.607 26.9687 116.069 28.0179 116.069 28.3938V34.1545H113.612V30.0713C113.431 28.9447 113.445 27.9528 111.991 28.111C111.502 28.1637 110.82 28.8235 110.82 29.2881V34.1534H108.251V21.6265H110.82Z" fill="#0B4551"/>
<path d="M136.288 29.1208C137.16 28.1423 138.127 27.1639 138.858 26.1001H141.985L138.97 29.7323L142.096 34.1533H139.025L136.288 30.2384V34.1533H133.719V21.5142H136.121C136.133 21.5142 136.288 21.6701 136.288 21.6825V29.1208Z" fill="#0B4551"/>
<path d="M93.8432 30.9105H88.035C88.2508 32.3557 89.7869 32.8696 90.9765 32.1223C91.199 31.9832 91.4372 31.5893 91.6619 31.5826C91.9716 31.5736 93.0449 32.5555 93.3937 32.7552C90.2956 36.4536 83.9217 33.4262 85.7139 28.5305C86.586 26.1484 89.892 25.125 92.0208 26.4143C93.6118 27.377 93.7828 29.2049 93.8421 30.9105H93.8432ZM91.2739 29.233C91.1755 27.0415 88.2228 27.2334 87.9232 29.233H91.2739Z" fill="#0B4551"/>
<path d="M125.118 30.9103H119.422C119.389 31.7586 120.376 32.461 121.158 32.4801C122.103 32.5025 122.843 31.579 123.05 31.5802C123.243 31.5802 124.701 32.6383 124.663 32.8526C124.554 33.4686 122.614 34.2676 122.018 34.3495C115.252 35.2797 115.051 25.2078 121.822 25.8777C123.357 26.0292 125.118 27.5844 125.118 29.1767V30.9103ZM122.66 29.2328C122.491 27.0806 119.533 27.2141 119.31 29.2328H122.66Z" fill="#0B4551"/>
<path d="M132.921 33.4688C132.849 33.5933 131.864 34.077 131.646 34.1488C128.263 35.2484 124.834 32.6474 125.729 29.0063C126.365 26.4199 129.346 25.3023 131.734 26.1326C132.085 26.2549 133.088 26.669 132.884 27.1077C132.839 27.2053 131.52 28.6483 131.415 28.6674C131.326 28.6831 130.758 28.1636 130.316 28.1131C127.421 27.7877 127.388 32.4454 130.314 32.1458C130.762 32.0998 131.32 31.5747 131.415 31.5904C131.52 31.6084 132.808 33.011 132.883 33.149C132.935 33.2455 132.982 33.3656 132.922 33.4688H132.921Z" fill="#0B4551"/>
<path d="M40.2421 41.2987L40.1157 37.8472L44.8037 39.5808L42.1561 41.8553C41.6642 41.9978 40.7564 41.3997 40.2409 41.2998L40.2421 41.2987Z" fill="#0B4551"/>
<path d="M118.416 40.4189C118.539 40.4402 118.945 40.3864 118.975 40.4189C119.023 40.4672 118.894 40.815 119.03 40.8666C119.513 40.2944 120.282 40.1025 120.918 40.5457C121.063 40.6456 121.083 40.8677 121.153 40.8689C121.439 40.8733 121.627 40.1698 122.596 40.3145C122.959 40.3684 123.554 40.7611 123.554 41.1471V43.8873H122.995V41.5937C122.995 41.2672 122.528 40.8442 122.165 40.8677C121.9 40.8846 121.32 41.3783 121.32 41.5937V43.8873C121.103 43.8828 120.751 43.9624 120.665 43.7044C120.496 43.1916 120.853 41.3042 120.509 41.0069C120.071 40.6276 119.085 41.164 119.085 41.7059V43.719C119.085 43.9411 118.415 43.9411 118.415 43.719V40.4189H118.416Z" fill="#0B4551"/>
<path d="M106.674 38.9782C106.807 39.2071 106.458 39.4966 106.292 39.6323C106.025 39.5145 105.966 39.2823 105.6 39.2149C105.06 39.1162 104.275 39.2351 104.231 39.923C104.174 40.8105 105.548 40.8812 106.096 41.1786C106.88 41.6038 107.075 42.5565 106.602 43.2971C105.991 44.252 103.852 44.2318 103.449 43.1052C104.159 42.6014 104.148 43.1871 104.644 43.3027C105.3 43.4553 106.191 43.1759 106.139 42.3747C106.077 41.3996 103.779 41.7329 103.568 40.355C103.342 38.8805 104.802 38.2634 106.044 38.6573C106.137 38.6864 106.656 38.9467 106.674 38.977V38.9782Z" fill="#0B4551"/>
<path d="M68.8056 39.5091C68.7922 39.5316 68.3964 39.738 68.3394 39.7302C68.1918 39.71 67.7949 39.2881 67.4014 39.2151C64.3927 38.6597 64.3581 43.9559 67.5132 43.3018C67.862 43.2299 68.4814 42.6846 68.5418 42.6835C68.7866 42.6812 69.046 42.9685 68.8302 43.2793C68.3237 44.0076 66.924 44.0928 66.1458 43.828C63.3507 42.8765 64.0987 38.4521 67.0917 38.5093C67.4942 38.5172 69.0918 39.0165 68.8067 39.5102L68.8056 39.5091Z" fill="#0B4551"/>
<path d="M73.2902 40.419C73.7296 40.4212 73.8514 40.281 73.9051 40.7556C74.6262 40.1901 75.126 40.3303 75.9712 40.419V39.4113C76.9953 39.1521 76.5112 40.2888 76.6409 40.419C76.6812 40.4594 77.3699 40.3887 77.5354 40.4179V40.9778H76.6409V43.1591C76.6409 43.4329 77.6047 43.2837 77.646 43.3274C77.93 44.2565 75.9701 43.9614 75.9701 43.3824V40.9778C75.3865 40.9497 73.9599 40.8308 73.9599 41.7049V43.8862C73.8 43.9154 73.2902 43.8896 73.2902 43.7179V40.4179V40.419Z" fill="#0B4551"/>
<path d="M72.7311 42.321H69.9382C70.1394 43.0627 70.6113 43.47 71.4207 43.3028C71.6812 43.2489 72.0837 42.8697 72.2123 42.8921C72.8865 43.0099 72.1754 43.7179 71.7282 43.8346C70.5062 44.1544 69.2562 43.5272 69.2584 42.1526C69.2629 39.6784 72.9558 39.6582 72.7299 42.321H72.7311ZM72.0613 41.761C71.8825 40.603 70.1171 40.5582 70.0511 41.761H72.0613Z" fill="#0B4551"/>
<path d="M117.857 42.3208H115.065C115.266 43.0625 115.738 43.4699 116.547 43.3027C116.808 43.2488 117.21 42.8695 117.339 42.892C118.013 43.0098 117.302 43.7178 116.855 43.8345C115.098 44.2935 113.811 42.7809 114.668 41.1965C115.597 39.4775 118.116 40.3774 117.856 42.3208H117.857ZM117.188 41.7609C117.002 40.5749 115.262 40.5569 115.177 41.7609H117.188Z" fill="#0B4551"/>
<path d="M127.575 42.3207H124.894C125.043 43.1096 125.571 43.4922 126.379 43.3037C126.762 43.2139 126.988 42.6013 127.359 43.0422C127.641 43.3777 126.89 43.8008 126.6 43.8602C125.521 44.0813 124.393 43.6706 124.234 42.4778C123.868 39.7209 127.911 39.4964 127.575 42.3196V42.3207ZM126.905 41.7608C126.867 40.5344 125.075 40.6096 124.895 41.7608H126.905Z" fill="#0B4551"/>
<path d="M111.379 38.2939V40.7547C111.974 40.3036 112.939 40.0511 113.506 40.6952C113.579 40.7782 113.837 41.309 113.837 41.3707V43.7192C113.837 43.9414 113.167 43.9414 113.167 43.7192V41.3707C113.167 40.8332 111.894 40.6571 111.56 41.4347C111.528 41.511 111.379 42.0069 111.379 42.0417V43.8875H110.82V38.2951H111.379V38.2939Z" fill="#0B4551"/>
<path d="M89.2624 43.8862C88.7481 43.8963 88.6352 44.0118 88.7023 43.4384C86.6954 45.0408 84.7735 42.1503 87.8794 41.6622C88.2987 41.596 88.766 41.8406 88.5715 41.2773C88.2752 40.42 86.9716 41.2392 86.7725 41.1887C85.7931 40.9418 87.3472 40.1384 88.2875 40.3314C88.6251 40.401 89.2624 40.9351 89.2624 41.256V43.885V43.8862ZM88.7045 42.2098C88.1511 42.1357 86.559 42.1727 86.9961 43.0749C87.4121 43.931 88.8554 43.1467 88.7045 42.2098Z" fill="#0B4551"/>
<path d="M95.2674 40.3358C98.0346 39.9666 98.2649 44.2059 95.2372 43.8849C93.284 43.6774 93.1722 40.6152 95.2674 40.3358ZM95.3803 40.8879C93.9202 41.1011 94.0599 43.7469 95.9975 43.3026C97.1591 43.0355 96.9903 40.6533 95.3803 40.8879Z" fill="#0B4551"/>
<path d="M100.992 43.8861C100.87 43.8794 100.728 43.9108 100.614 43.8727C100.059 43.6887 101.032 40.9586 99.7004 40.8689C99.2118 40.8363 98.646 41.3637 98.646 41.8159V43.885H98.087L97.9752 40.4178C98.3732 40.4357 98.6908 40.2517 98.7008 40.7533C99.1883 40.2865 99.9128 40.144 100.49 40.5289C100.601 40.604 100.992 41.0562 100.992 41.1449V43.885V43.8861Z" fill="#0B4551"/>
<path d="M79.8799 40.9777C79.843 40.9407 79.2493 41.0047 79.0973 40.9777V40.4178C79.2505 40.3909 79.8419 40.4571 79.8799 40.4189C80.0174 40.2809 79.5289 38.8671 80.3964 38.4194C80.7755 38.223 81.1489 38.2993 81.5559 38.2937C81.6453 39.0298 81.2618 38.7538 80.8526 38.8749C80.4166 39.0051 80.4233 40.0251 80.4378 40.4189H81.3322V40.9789H80.4378V43.8862H79.8788C79.8017 43.4979 79.9817 41.081 79.8788 40.9777H79.8799Z" fill="#0B4551"/>
<path d="M108.782 40.3325C109.293 40.2517 110.835 40.6175 110.211 41.0966C109.867 41.3615 109.545 40.925 109.174 40.8891C107.623 40.7398 107.57 43.4609 109.2 43.3341C109.559 43.306 109.806 42.9975 109.964 43.0109C110.735 43.076 110.203 43.7403 109.623 43.8603C106.936 44.4135 106.511 40.6905 108.782 40.3325Z" fill="#0B4551"/>
<path d="M84.4303 40.3339C84.9603 40.2475 86.5199 40.5976 85.8614 41.0981C85.488 41.3819 85.2129 40.8938 84.844 40.8692C83.2575 40.7659 83.262 43.5666 84.9536 43.322C85.3035 43.2715 85.7395 42.7509 85.9743 43.2154C86.1219 43.5083 85.5886 43.7843 85.3616 43.8382C82.5285 44.5114 82.268 40.6851 84.4314 40.3339H84.4303Z" fill="#0B4551"/>
<path d="M90.3791 40.9776C90.3422 40.9405 89.7485 41.0045 89.5964 40.9776V40.4176C90.653 40.5411 90.3589 40.3066 90.3779 39.4111H90.8721C91.0376 39.4336 90.8699 40.3526 90.9358 40.4188C90.9783 40.4614 91.7643 40.3873 91.9421 40.4176V40.9776H90.9358V43.0467C90.9358 43.3205 91.7151 43.3799 91.9421 43.3261V43.886C91.6201 43.9298 90.3779 43.9331 90.3779 43.4944C90.3779 43.1421 90.4674 41.0662 90.3779 40.9776H90.3791Z" fill="#0B4551"/>
<path d="M82.3373 40.4189H81.6676V43.8862H82.3373V40.4189Z" fill="#0B4551"/>
<path d="M78.6523 40.4189H78.0933V43.7751H78.6523V40.4189Z" fill="#0B4551"/>
<path d="M93.0615 40.4189H92.5024V43.7751H93.0615V40.4189Z" fill="#0B4551"/>
<path d="M41.6786 42.0978C41.8094 42.2773 40.8948 43.1088 40.5203 42.9831C40.1983 42.8754 40.2072 41.9362 40.2274 41.6489L41.6786 42.0978Z" fill="#0B4551"/>
<path d="M82.3228 39.5092C81.9438 39.746 81.2595 39.2163 81.6967 38.7698C82.1775 38.2794 82.7477 39.2433 82.3228 39.5092Z" fill="#0B4551"/>
<path d="M92.5819 38.762C93.2348 38.5667 93.3432 39.2815 93.0682 39.4756C92.5517 39.8403 91.939 38.9538 92.5819 38.762Z" fill="#0B4551"/>
<path d="M78.1636 38.7549C78.7942 38.545 78.9463 39.2733 78.6589 39.4752C78.0742 39.887 77.6896 38.9131 78.1636 38.7549Z" fill="#0B4551"/>
</svg>
