<svg width="96" height="96" viewBox="0 0 96 96" fill="none" xmlns="http://www.w3.org/2000/svg">
<path d="M24.75 24.4004H23.25V12.4004H24.75V24.4004ZM72.75 12.4004H71.25V24.4004H72.75V12.4004ZM12.75 76.9004V31.1504H83.25V54.4004H84.75V19.9004C84.75 18.6584 83.742 17.6504 82.5 17.6504H75V19.1504H82.5C82.914 19.1504 83.25 19.4864 83.25 19.9004V29.6504H12.75V19.9004C12.75 19.4864 13.086 19.1504 13.5 19.1504H21V17.6504H13.5C12.258 17.6504 11.25 18.6584 11.25 19.9004V76.9004C11.25 78.1424 12.258 79.1504 13.5 79.1504H51V77.6504H13.5C13.086 77.6504 12.75 77.3144 12.75 76.9004ZM69 17.6504H27V19.1504H69V17.6504ZM90 72.4004C90 82.3424 81.942 90.4004 72 90.4004C62.058 90.4004 54 82.3424 54 72.4004C54 62.4584 62.058 54.4004 72 54.4004C81.942 54.4004 90 62.4584 90 72.4004ZM88.5 72.4004C88.5 63.3014 81.099 55.9004 72 55.9004C62.901 55.9004 55.5 63.3014 55.5 72.4004C55.5 81.4994 62.901 88.9004 72 88.9004C81.099 88.9004 88.5 81.4994 88.5 72.4004ZM68.667 78.0074L62.532 71.8724L61.47 72.9344L68.667 80.1314L82.533 66.2684L81.471 65.2064L68.667 78.0104V78.0074Z" fill="#0263F5"/>
</svg>
