<svg fill="none" height="96" viewBox="0 0 97 96" width="97" xmlns="http://www.w3.org/2000/svg" xmlns:xlink="http://www.w3.org/1999/xlink"><clipPath id="a"><path d="m.961792 0h96v96h-96z"/></clipPath><g clip-path="url(#a)"><path d="m.961792 96c0-26.5097 21.490308-48 48.000008-48s48 21.4903 48 48z" fill="#f2f2f2"/><path d="m31.1121 78.4255c-2.2436 0-4.0274-1.0451-4.111-3.3306l2.16-.2369c0 1.3239.8222 1.951 2.0206 1.951 1.101 0 1.8395-.432 1.8395-1.3099 0-.9337-.9336-1.0173-2.3551-1.3378-1.8813-.432-3.3863-1.1009-3.3863-2.9683 0-1.9928 1.9231-2.8568 3.6929-2.8568 2.1182 0 3.6093.8222 3.8462 3.0519l-2.1042.3345c-.0558-1.31-.7247-1.7838-1.7559-1.7838-.9337 0-1.5608.4041-1.5608 1.1288 0 .7386.7943 1.0173 2.0764 1.2821 2.0206.4041 3.665.9615 3.665 3.0658 0 2.0763-1.7698 3.01-4.0273 3.01zm9.9453 0c-2.801 0-4.4175-1.7977-4.4175-5.0446 0-2.9683 1.6026-5.0447 4.4175-5.0447 2.8429 0 4.4036 2.0904 4.4036 5.0447 0 2.9822-1.5886 5.0446-4.4036 5.0446zm-2.2296-5.0446c0 1.1427.1532 2.0624.5434 2.6199.3624.5295.9895.7664 1.6862.7664.7386 0 1.3239-.2508 1.6723-.7525.4181-.5853.5435-1.5469.5435-2.6338 0-1.1567-.1533-2.1461-.5714-2.6896-.3484-.4877-.9058-.6967-1.5886-.6967-.7525 0-1.3378.2369-1.7141.7525-.4041.5574-.5713 1.5468-.5713 2.6338zm12.755 5.0446c-2.6896 0-4.4594-1.6583-4.4594-5.0446 0-3.1355 1.7698-5.0447 4.4594-5.0447 1.9927 0 3.5117 1.0591 4.0134 3.0798l-2.0764.4041c-.223-1.2263-.8501-1.8534-1.9231-1.8534-.7665 0-1.3378.209-1.7001.7107-.4042.5574-.5853 1.4493-.5853 2.7035 0 1.282.1811 2.0903.5713 2.6338.3763.5156.9198.7525 1.7002.7525 1.0869 0 1.714-.6689 1.9788-1.7001l2.0903.5574c-.655 1.6444-2.0067 2.801-4.0691 2.801zm12.0675-.1672c.0837-2.3551 1.1427-3.5535 2.9265-4.6684 1.1706-.7386 1.8534-1.1566 1.8534-2.2157 0-.6689-.3066-1.1845-1.1009-1.1845-1.1009 0-1.2821.8918-1.2542 1.7837l-2.1042-.3066c-.0279-1.6583.9615-3.1215 3.4141-3.1215 1.8813 0 3.1216 1.0173 3.1216 2.8707 0 1.6722-.864 2.4526-2.5363 3.4838-.9894.6132-1.6165.9755-1.8255 1.6862h4.3757v1.6723z" fill="#010668"/><path d="m96.9618 0c0 26.5097-21.4903 48-48 48s-48.000008-21.4903-48.000008-48z" fill="#9a9ffe"/><path d="m26.5601 24.0645 3.233-9.7549h2.3133l3.2191 9.7549h-2.174l-.6689-2.2855h-3.0936l-.655 2.2855zm3.3166-4.0274h2.1043l-.5575-1.9092c-.1114-.4041-.3483-1.2263-.4877-1.8394h-.0418c-.1533.6549-.2926 1.2263-.4738 1.8394zm7.3345 4.0274v-1.6723h1.1009v-6.4103h-1.1009v-1.6723h4.3061v1.6723h-1.1009v6.4103h1.1009v1.6723zm11.0102.1672c-2.6896 0-4.4594-1.6583-4.4594-5.0447 0-3.1355 1.7698-5.0446 4.4594-5.0446 1.9927 0 3.5117 1.0591 4.0134 3.0797l-2.0764.4042c-.223-1.2264-.8501-1.8535-1.9231-1.8535-.7665 0-1.3378.2091-1.7001.7107-.4042.5575-.5853 1.4493-.5853 2.7035 0 1.2821.1811 2.0904.5713 2.6338.3763.5157.9198.7526 1.7002.7526 1.0869 0 1.714-.6689 1.9788-1.7002l2.0903.5574c-.6549 1.6444-2.0067 2.8011-4.0691 2.8011zm6.1431-.1672v-9.7549h3.3863c1.7002 0 3.9577.2787 3.9577 3.0798 0 2.801-2.2157 3.1215-3.9577 3.1215h-1.282v3.5536zm2.1043-5.198h1.2263c.9615 0 1.8952-.0697 1.8952-1.4771 0-1.4075-.9337-1.4354-1.8813-1.4354h-1.2402zm6.1248 5.198 3.2331-9.7549h2.3133l3.2191 9.7549h-2.174l-.6689-2.2855h-3.0937l-.6549 2.2855zm3.3167-4.0274h2.1042l-.5574-1.9092c-.1115-.4041-.3484-1.2263-.4877-1.8394h-.0418c-.1533.6549-.2927 1.2263-.4738 1.8394z" fill="#fff"/></g></svg>