<svg width="200" height="64" viewBox="0 0 200 64" fill="none" xmlns="http://www.w3.org/2000/svg">
<rect y="10.6667" width="42.6667" height="42.6667" rx="2" fill="#02099C"/>
<rect x="8" y="18.6667" width="26.6667" height="26.6667" rx="2" fill="#02099C"/>
<path fill-rule="evenodd" clip-rule="evenodd" d="M20.9383 20.4329C21.1849 20.3001 21.4818 20.3001 21.7285 20.4329L32.5618 26.2663C32.8979 26.4473 33.0681 26.8335 32.9748 27.2037C32.8814 27.5739 32.5485 27.8333 32.1667 27.8333H10.5C10.1183 27.8333 9.78532 27.5739 9.69199 27.2037C9.59866 26.8335 9.76882 26.4473 10.105 26.2663L20.9383 20.4329ZM13.8054 26.1666H28.8614L21.3334 22.1131L13.8054 26.1666ZM13 29.5C13.4603 29.5 13.8334 29.8731 13.8334 30.3333V39.5C13.8334 39.9602 13.4603 40.3333 13 40.3333C12.5398 40.3333 12.1667 39.9602 12.1667 39.5V30.3333C12.1667 29.8731 12.5398 29.5 13 29.5ZM17.1667 29.5C17.6269 29.5 18 29.8731 18 30.3333V39.5C18 39.9602 17.6269 40.3333 17.1667 40.3333C16.7065 40.3333 16.3334 39.9602 16.3334 39.5V30.3333C16.3334 29.8731 16.7065 29.5 17.1667 29.5ZM21.3334 29.5C21.7936 29.5 22.1667 29.8731 22.1667 30.3333V39.5C22.1667 39.9602 21.7936 40.3333 21.3334 40.3333C20.8731 40.3333 20.5 39.9602 20.5 39.5V30.3333C20.5 29.8731 20.8731 29.5 21.3334 29.5ZM25.5 29.5C25.9603 29.5 26.3334 29.8731 26.3334 30.3333V39.5C26.3334 39.9602 25.9603 40.3333 25.5 40.3333C25.0398 40.3333 24.6667 39.9602 24.6667 39.5V30.3333C24.6667 29.8731 25.0398 29.5 25.5 29.5ZM29.6667 29.5C30.1269 29.5 30.5 29.8731 30.5 30.3333V39.5C30.5 39.9602 30.1269 40.3333 29.6667 40.3333C29.2065 40.3333 28.8334 39.9602 28.8334 39.5V30.3333C28.8334 29.8731 29.2065 29.5 29.6667 29.5ZM9.6667 42.8333C9.6667 42.3731 10.0398 42 10.5 42H32.1667C32.6269 42 33 42.3731 33 42.8333C33 43.2935 32.6269 43.6666 32.1667 43.6666H10.5C10.0398 43.6666 9.6667 43.2935 9.6667 42.8333Z" fill="white"/>
<path d="M64.6906 38.5V23.1H69.9046C72.8526 23.1 75.5146 23.694 75.5146 27.5C75.5146 29.414 74.5026 30.822 72.7866 31.262C74.5246 31.68 75.1846 32.736 75.1626 34.628C75.1626 36.366 75.2726 37.488 76.0206 38.434L75.9986 38.5H74.5466C73.9966 37.708 73.8206 36.85 73.8426 34.804C73.9086 32.582 73.0946 31.79 69.8826 31.79H65.9886V38.5H64.6906ZM65.9886 30.668H69.9486C72.1266 30.668 74.1946 30.162 74.1946 27.544C74.1946 24.596 72.3246 24.222 69.8826 24.222H65.9886V30.668ZM82.9828 38.764C81.4868 38.764 80.2108 38.324 79.3088 37.356C78.3408 36.366 77.8568 34.936 77.8568 33.044C77.8568 31.24 78.3848 29.722 79.3748 28.71C80.2988 27.764 81.5528 27.324 82.9168 27.324C84.5448 27.324 85.9528 28.028 86.8328 29.304C87.5368 30.316 87.8888 31.812 87.8448 33.264H79.2208C79.2428 36.52 80.8048 37.708 83.0268 37.708C85.1388 37.708 86.2388 36.63 86.5468 34.914L87.7568 35.046C87.3168 37.356 85.6008 38.764 82.9828 38.764ZM79.2428 32.23H86.5468C86.4808 31.372 86.1948 30.426 85.7768 29.788C85.0948 28.776 84.0828 28.38 82.8948 28.38C81.7728 28.38 80.8488 28.754 80.2768 29.436C79.6608 30.14 79.3308 31.13 79.2428 32.23ZM94.7541 42.922C92.3121 42.922 90.3541 41.8 90.2221 39.292L91.4761 39.204C91.6301 41.272 92.8841 41.888 94.9081 41.888C97.2621 41.888 98.4721 40.634 98.4721 38.478V36.124C97.7461 37.532 96.4701 38.412 94.6441 38.412C91.8061 38.412 89.6941 36.388 89.6941 32.89C89.6941 29.348 91.8941 27.324 94.6441 27.324C96.5141 27.324 97.7681 28.182 98.4721 29.458V27.566H99.7481V38.434C99.7481 41.338 97.8341 42.922 94.7541 42.922ZM91.0801 32.89C91.0801 35.706 92.4001 37.334 94.7761 37.334C95.9421 37.334 96.8221 36.96 97.4381 36.3C98.1861 35.486 98.5161 34.232 98.5161 32.758C98.5161 29.612 97.0201 28.38 94.8201 28.38C93.5881 28.38 92.6641 28.798 92.0261 29.568C91.3881 30.338 91.0801 31.46 91.0801 32.89ZM102.966 38.5V27.566H104.242V38.5H102.966ZM102.966 25.19V23.188H104.242V25.19H102.966ZM112.054 38.742C108.71 38.742 106.774 36.564 106.774 33.044C106.774 29.788 108.754 27.324 112.054 27.324C115.398 27.324 117.334 29.656 117.334 33.044C117.334 36.388 115.31 38.742 112.054 38.742ZM108.138 33.044C108.138 34.562 108.49 35.794 109.216 36.63C109.854 37.334 110.778 37.686 112.032 37.686C113.308 37.686 114.254 37.312 114.892 36.586C115.618 35.75 115.97 34.54 115.97 33.044C115.97 31.482 115.596 30.25 114.826 29.436C114.21 28.754 113.308 28.38 112.098 28.38C110.822 28.38 109.876 28.776 109.238 29.48C108.49 30.316 108.138 31.526 108.138 33.044ZM119.874 38.5V27.566H121.15V29.59C121.678 28.204 122.866 27.324 124.824 27.324C126.232 27.324 127.244 27.742 127.948 28.468C128.828 29.37 128.872 30.778 128.872 31.878V38.5H127.552V32.098C127.552 31.064 127.574 29.986 126.892 29.26C126.298 28.6 125.44 28.424 124.494 28.424C123.284 28.424 121.15 28.974 121.15 32.384V38.5H119.874ZM134.984 38.764C132.872 38.764 131.332 37.598 131.332 35.684C131.332 33.616 132.916 32.868 134.742 32.516L138.944 31.702C138.944 30.536 138.922 29.656 138.328 29.084C137.866 28.622 137.096 28.38 136.04 28.38C133.928 28.38 132.96 29.106 132.96 31.108L131.706 30.932C131.706 29.788 132.102 28.798 132.894 28.182C133.686 27.566 134.83 27.324 136.084 27.324C138.746 27.324 140.176 28.446 140.176 30.954V36.718C140.176 37.312 140.264 37.532 140.858 37.532C141.144 37.532 141.386 37.488 141.694 37.422L141.716 38.478C141.342 38.544 140.99 38.588 140.66 38.588C139.56 38.588 138.966 38.126 138.966 36.652C138.372 37.906 137.052 38.764 134.984 38.764ZM132.652 35.618C132.652 37.026 133.752 37.708 135.204 37.708C137.602 37.708 138.944 36.41 138.944 34.43V32.67L134.896 33.528C133.488 33.814 132.652 34.276 132.652 35.618ZM143.571 38.5V23.1H144.847V38.5H143.571ZM158.516 38.742C156.844 38.742 155.502 37.994 154.666 36.542V38.5H153.39V23.1H154.666V29.568C155.414 28.182 156.756 27.324 158.582 27.324C161.398 27.324 163.488 29.37 163.488 33.044C163.488 36.542 161.398 38.742 158.516 38.742ZM154.6 33.11C154.6 36.3 156.206 37.708 158.318 37.708C159.594 37.708 160.518 37.29 161.112 36.542C161.794 35.706 162.08 34.496 162.08 33.044C162.08 29.898 160.738 28.38 158.274 28.38C157.174 28.38 156.206 28.776 155.568 29.568C154.93 30.382 154.6 31.592 154.6 33.11ZM169.058 38.764C166.946 38.764 165.406 37.598 165.406 35.684C165.406 33.616 166.99 32.868 168.816 32.516L173.018 31.702C173.018 30.536 172.996 29.656 172.402 29.084C171.94 28.622 171.17 28.38 170.114 28.38C168.002 28.38 167.034 29.106 167.034 31.108L165.78 30.932C165.78 29.788 166.176 28.798 166.968 28.182C167.76 27.566 168.904 27.324 170.158 27.324C172.82 27.324 174.25 28.446 174.25 30.954V36.718C174.25 37.312 174.338 37.532 174.932 37.532C175.218 37.532 175.46 37.488 175.768 37.422L175.79 38.478C175.416 38.544 175.064 38.588 174.734 38.588C173.634 38.588 173.04 38.126 173.04 36.652C172.446 37.906 171.126 38.764 169.058 38.764ZM166.726 35.618C166.726 37.026 167.826 37.708 169.278 37.708C171.676 37.708 173.018 36.41 173.018 34.43V32.67L168.97 33.528C167.562 33.814 166.726 34.276 166.726 35.618ZM177.646 38.5V27.566H178.922V29.59C179.45 28.204 180.638 27.324 182.596 27.324C184.004 27.324 185.016 27.742 185.72 28.468C186.6 29.37 186.644 30.778 186.644 31.878V38.5H185.324V32.098C185.324 31.064 185.346 29.986 184.664 29.26C184.07 28.6 183.212 28.424 182.266 28.424C181.056 28.424 178.922 28.974 178.922 32.384V38.5H177.646ZM189.741 38.5V23.1H191.017V32.824L196.671 27.566H198.365L194.009 31.526L198.585 38.5H197.111L193.129 32.362L191.017 34.276V38.5H189.741Z" fill="black"/>
</svg>
