<svg width="283" height="64" viewBox="0 0 283 64" fill="none" xmlns="http://www.w3.org/2000/svg">
<rect y="12" width="40" height="40" rx="2" fill="#02099C"/>
<rect x="6.66797" y="18.667" width="26.6667" height="26.6667" rx="2" fill="#02099C"/>
<path fill-rule="evenodd" clip-rule="evenodd" d="M18.3348 27.8335C18.3348 29.6752 16.8431 31.1668 15.0015 31.1668C13.1598 31.1668 11.6681 29.6752 11.6681 27.8335V21.1668C11.6681 20.7066 11.295 20.3335 10.8348 20.3335C10.3746 20.3335 10.0015 20.7066 10.0015 21.1668V27.8335C10.0015 30.3085 11.8098 32.3585 14.1681 32.7585V42.8335C14.1681 43.2937 14.5412 43.6668 15.0015 43.6668C15.4617 43.6668 15.8348 43.2937 15.8348 42.8335V32.7585C18.1931 32.3585 20.0015 30.3085 20.0015 27.8335V21.1668C20.0015 20.7066 19.6284 20.3335 19.1681 20.3335C18.7079 20.3335 18.3348 20.7066 18.3348 21.1668V27.8335ZM15.8348 27.8335V21.1668C15.8348 20.7066 15.4617 20.3335 15.0015 20.3335C14.5412 20.3335 14.1681 20.7066 14.1681 21.1668V27.8335C14.1681 28.2937 14.5412 28.6668 15.0015 28.6668C15.4617 28.6668 15.8348 28.2937 15.8348 27.8335ZM24.1681 21.1668C24.1681 20.7066 24.5412 20.3335 25.0015 20.3335C28.9598 20.3335 30.0015 23.6002 30.0015 25.3335V33.6668C30.0015 34.5835 29.2515 35.3335 28.3348 35.3335H25.8348V42.8335C25.8348 43.2937 25.4617 43.6668 25.0015 43.6668C24.5412 43.6668 24.1681 43.2937 24.1681 42.8335V21.1668ZM25.8348 33.6668H28.3348V25.3335C28.3348 25.0252 28.2348 22.5418 25.8348 22.0752V33.6668Z" fill="white"/>
<path d="M62.024 38.5V23.1H71.594V24.266H63.322V30.096H70.78V31.24H63.322V38.5H62.024ZM78.1063 38.742C74.7623 38.742 72.8263 36.564 72.8263 33.044C72.8263 29.788 74.8063 27.324 78.1063 27.324C81.4503 27.324 83.3863 29.656 83.3863 33.044C83.3863 36.388 81.3623 38.742 78.1063 38.742ZM74.1903 33.044C74.1903 34.562 74.5423 35.794 75.2683 36.63C75.9063 37.334 76.8303 37.686 78.0843 37.686C79.3603 37.686 80.3063 37.312 80.9443 36.586C81.6703 35.75 82.0223 34.54 82.0223 33.044C82.0223 31.482 81.6483 30.25 80.8783 29.436C80.2623 28.754 79.3603 28.38 78.1503 28.38C76.8743 28.38 75.9283 28.776 75.2903 29.48C74.5423 30.316 74.1903 31.526 74.1903 33.044ZM90.5243 38.742C87.1803 38.742 85.2443 36.564 85.2443 33.044C85.2443 29.788 87.2243 27.324 90.5243 27.324C93.8683 27.324 95.8043 29.656 95.8043 33.044C95.8043 36.388 93.7803 38.742 90.5243 38.742ZM86.6083 33.044C86.6083 34.562 86.9603 35.794 87.6863 36.63C88.3243 37.334 89.2483 37.686 90.5023 37.686C91.7783 37.686 92.7243 37.312 93.3623 36.586C94.0883 35.75 94.4403 34.54 94.4403 33.044C94.4403 31.482 94.0663 30.25 93.2963 29.436C92.6803 28.754 91.7783 28.38 90.5683 28.38C89.2923 28.38 88.3463 28.776 87.7083 29.48C86.9603 30.316 86.6083 31.526 86.6083 33.044ZM102.678 38.742C99.8623 38.742 97.6623 36.762 97.6623 33.044C97.6623 29.348 99.9943 27.324 102.678 27.324C104.526 27.324 105.802 28.138 106.506 29.392V23.1H107.804V38.5H106.506V36.454C105.78 37.862 104.504 38.742 102.678 38.742ZM99.0703 33.044C99.0703 36.036 100.412 37.686 102.832 37.686C103.932 37.686 104.79 37.356 105.428 36.718C106.176 35.926 106.55 34.694 106.55 32.956C106.55 30.052 105.318 28.38 102.876 28.38C101.688 28.38 100.764 28.776 100.126 29.502C99.4223 30.338 99.0703 31.526 99.0703 33.044ZM120.682 38.742C117.866 38.742 115.666 36.762 115.666 33.044C115.666 29.348 117.998 27.324 120.682 27.324C122.53 27.324 123.806 28.138 124.51 29.392V23.1H125.808V38.5H124.51V36.454C123.784 37.862 122.508 38.742 120.682 38.742ZM117.074 33.044C117.074 36.036 118.416 37.686 120.836 37.686C121.936 37.686 122.794 37.356 123.432 36.718C124.18 35.926 124.554 34.694 124.554 32.956C124.554 30.052 123.322 28.38 120.88 28.38C119.692 28.38 118.768 28.776 118.13 29.502C117.426 30.338 117.074 31.526 117.074 33.044ZM133.49 38.764C131.994 38.764 130.718 38.324 129.816 37.356C128.848 36.366 128.364 34.936 128.364 33.044C128.364 31.24 128.892 29.722 129.882 28.71C130.806 27.764 132.06 27.324 133.424 27.324C135.052 27.324 136.46 28.028 137.34 29.304C138.044 30.316 138.396 31.812 138.352 33.264H129.728C129.75 36.52 131.312 37.708 133.534 37.708C135.646 37.708 136.746 36.63 137.054 34.914L138.264 35.046C137.824 37.356 136.108 38.764 133.49 38.764ZM129.75 32.23H137.054C136.988 31.372 136.702 30.426 136.284 29.788C135.602 28.776 134.59 28.38 133.402 28.38C132.28 28.38 131.356 28.754 130.784 29.436C130.168 30.14 129.838 31.13 129.75 32.23ZM140.883 38.5V23.1H142.159V38.5H140.883ZM145.374 38.5V27.566H146.65V38.5H145.374ZM145.374 25.19V23.188H146.65V25.19H145.374ZM152.79 38.5L148.478 27.566H149.842L152.196 33.704C152.482 34.43 152.922 35.596 153.45 37.18C153.868 35.992 154.374 34.694 154.748 33.704L157.08 27.566H158.444L154.11 38.5H152.79ZM164.556 38.764C163.06 38.764 161.784 38.324 160.882 37.356C159.914 36.366 159.43 34.936 159.43 33.044C159.43 31.24 159.958 29.722 160.948 28.71C161.872 27.764 163.126 27.324 164.49 27.324C166.118 27.324 167.526 28.028 168.406 29.304C169.11 30.316 169.462 31.812 169.418 33.264H160.794C160.816 36.52 162.378 37.708 164.6 37.708C166.712 37.708 167.812 36.63 168.12 34.914L169.33 35.046C168.89 37.356 167.174 38.764 164.556 38.764ZM160.816 32.23H168.12C168.054 31.372 167.768 30.426 167.35 29.788C166.668 28.776 165.656 28.38 164.468 28.38C163.346 28.38 162.422 28.754 161.85 29.436C161.234 30.14 160.904 31.13 160.816 32.23ZM171.95 38.5V27.566H173.226V29.898C173.578 28.38 174.832 27.478 176.482 27.302C176.724 27.28 177.076 27.28 177.34 27.28L177.296 28.512C177.098 28.49 176.9 28.49 176.658 28.49C174.678 28.49 173.226 29.48 173.226 33.154V38.5H171.95ZM180.462 43.01C179.956 43.01 179.45 42.922 178.988 42.768L179.032 41.558C179.428 41.69 179.868 41.822 180.33 41.822C181.188 41.822 181.518 41.206 182.376 38.874L177.976 27.566H179.34L182.134 35.134C182.376 35.772 182.684 36.652 182.97 37.488C183.3 36.498 183.52 35.86 183.784 35.134L186.49 27.566H187.832L183.19 40.106C182.42 42.196 181.826 43.01 180.462 43.01ZM199.148 38.742C195.694 38.742 193.912 36.432 193.912 33.044C193.912 29.744 195.848 27.324 199.148 27.324C201.81 27.324 203.306 28.864 203.768 31.02L202.536 31.262C202.162 29.612 201.282 28.402 199.126 28.402C197.718 28.402 196.772 28.886 196.156 29.722C195.54 30.536 195.298 31.702 195.298 33.044C195.298 35.816 196.31 37.664 199.148 37.664C201.062 37.664 202.228 36.872 202.646 34.98L203.856 35.112C203.438 37.29 201.678 38.742 199.148 38.742ZM210.794 38.742C207.45 38.742 205.514 36.564 205.514 33.044C205.514 29.788 207.494 27.324 210.794 27.324C214.138 27.324 216.074 29.656 216.074 33.044C216.074 36.388 214.05 38.742 210.794 38.742ZM206.878 33.044C206.878 34.562 207.23 35.794 207.956 36.63C208.594 37.334 209.518 37.686 210.772 37.686C212.048 37.686 212.994 37.312 213.632 36.586C214.358 35.75 214.71 34.54 214.71 33.044C214.71 31.482 214.336 30.25 213.566 29.436C212.95 28.754 212.048 28.38 210.838 28.38C209.562 28.38 208.616 28.776 207.978 29.48C207.23 30.316 206.878 31.526 206.878 33.044ZM218.614 38.5V27.566H219.89V29.546C220.044 29.106 220.264 28.71 220.66 28.336C221.254 27.764 222.156 27.324 223.476 27.324C225.28 27.324 226.512 28.248 226.93 29.854C227.128 29.238 227.436 28.754 227.898 28.314C228.492 27.764 229.35 27.324 230.648 27.324C233.156 27.324 234.388 28.754 234.388 31.57V38.5H233.068V32.032C233.068 31.02 233.068 29.942 232.408 29.216C231.836 28.556 231.022 28.424 230.252 28.424C229.592 28.424 228.844 28.6 228.25 29.128C227.634 29.678 227.128 30.558 227.128 32.34V38.5H225.83V32.098C225.83 31.042 225.83 29.964 225.17 29.216C224.598 28.6 223.784 28.424 223.014 28.424C222.222 28.424 221.496 28.688 221.012 29.128C220.374 29.678 219.89 30.58 219.89 32.362V38.5H218.614ZM237.477 42.9V27.566H238.753V29.656C239.501 28.226 240.843 27.324 242.647 27.324C245.441 27.324 247.575 29.326 247.575 33.044C247.575 36.498 245.529 38.764 242.647 38.764C240.931 38.764 239.589 38.06 238.753 36.652V42.9H237.477ZM238.687 33.088C238.687 35.992 240.029 37.708 242.383 37.708C243.637 37.708 244.561 37.29 245.133 36.586C245.859 35.75 246.167 34.584 246.167 33.044C246.167 29.942 244.891 28.38 242.383 28.38C241.349 28.38 240.403 28.71 239.743 29.502C239.105 30.25 238.687 31.416 238.687 33.088ZM253.145 38.764C251.033 38.764 249.493 37.598 249.493 35.684C249.493 33.616 251.077 32.868 252.903 32.516L257.105 31.702C257.105 30.536 257.083 29.656 256.489 29.084C256.027 28.622 255.257 28.38 254.201 28.38C252.089 28.38 251.121 29.106 251.121 31.108L249.867 30.932C249.867 29.788 250.263 28.798 251.055 28.182C251.847 27.566 252.991 27.324 254.245 27.324C256.907 27.324 258.337 28.446 258.337 30.954V36.718C258.337 37.312 258.425 37.532 259.019 37.532C259.305 37.532 259.547 37.488 259.855 37.422L259.877 38.478C259.503 38.544 259.151 38.588 258.821 38.588C257.721 38.588 257.127 38.126 257.127 36.652C256.533 37.906 255.213 38.764 253.145 38.764ZM250.813 35.618C250.813 37.026 251.913 37.708 253.365 37.708C255.763 37.708 257.105 36.41 257.105 34.43V32.67L253.057 33.528C251.649 33.814 250.813 34.276 250.813 35.618ZM261.733 38.5V27.566H263.009V29.59C263.537 28.204 264.725 27.324 266.683 27.324C268.091 27.324 269.103 27.742 269.807 28.468C270.687 29.37 270.731 30.778 270.731 31.878V38.5H269.411V32.098C269.411 31.064 269.433 29.986 268.751 29.26C268.157 28.6 267.299 28.424 266.353 28.424C265.143 28.424 263.009 28.974 263.009 32.384V38.5H261.733ZM274.886 43.01C274.38 43.01 273.874 42.922 273.412 42.768L273.456 41.558C273.852 41.69 274.292 41.822 274.754 41.822C275.612 41.822 275.942 41.206 276.8 38.874L272.4 27.566H273.764L276.558 35.134C276.8 35.772 277.108 36.652 277.394 37.488C277.724 36.498 277.944 35.86 278.208 35.134L280.914 27.566H282.256L277.614 40.106C276.844 42.196 276.25 43.01 274.886 43.01Z" fill="black"/>
</svg>
