<svg width="223" height="64" viewBox="0 0 223 64" fill="none" xmlns="http://www.w3.org/2000/svg">
<rect y="12" width="40" height="40" rx="2" fill="#02099C"/>
<rect x="6.66797" y="18.667" width="26.6667" height="26.6667" rx="2" fill="#02099C"/>
<path fill-rule="evenodd" clip-rule="evenodd" d="M19.6061 20.4331C19.8528 20.3003 20.1497 20.3003 20.3963 20.4331L31.2296 26.2664C31.5658 26.4474 31.7359 26.8337 31.6426 27.2039C31.5493 27.5741 31.2163 27.8335 30.8346 27.8335H9.16788C8.78611 27.8335 8.45317 27.5741 8.35984 27.2039C8.26651 26.8337 8.43666 26.4474 8.7728 26.2664L19.6061 20.4331ZM12.4732 26.1668H27.5292L20.0012 22.1133L12.4732 26.1668ZM11.6679 29.5002C12.1281 29.5002 12.5012 29.8733 12.5012 30.3335V39.5002C12.5012 39.9604 12.1281 40.3335 11.6679 40.3335C11.2076 40.3335 10.8346 39.9604 10.8346 39.5002V30.3335C10.8346 29.8733 11.2076 29.5002 11.6679 29.5002ZM15.8346 29.5002C16.2948 29.5002 16.6679 29.8733 16.6679 30.3335V39.5002C16.6679 39.9604 16.2948 40.3335 15.8346 40.3335C15.3743 40.3335 15.0012 39.9604 15.0012 39.5002V30.3335C15.0012 29.8733 15.3743 29.5002 15.8346 29.5002ZM20.0012 29.5002C20.4615 29.5002 20.8346 29.8733 20.8346 30.3335V39.5002C20.8346 39.9604 20.4615 40.3335 20.0012 40.3335C19.541 40.3335 19.1679 39.9604 19.1679 39.5002V30.3335C19.1679 29.8733 19.541 29.5002 20.0012 29.5002ZM24.1679 29.5002C24.6281 29.5002 25.0012 29.8733 25.0012 30.3335V39.5002C25.0012 39.9604 24.6281 40.3335 24.1679 40.3335C23.7076 40.3335 23.3346 39.9604 23.3346 39.5002V30.3335C23.3346 29.8733 23.7076 29.5002 24.1679 29.5002ZM28.3346 29.5002C28.7948 29.5002 29.1679 29.8733 29.1679 30.3335V39.5002C29.1679 39.9604 28.7948 40.3335 28.3346 40.3335C27.8743 40.3335 27.5012 39.9604 27.5012 39.5002V30.3335C27.5012 29.8733 27.8743 29.5002 28.3346 29.5002ZM8.33455 42.8335C8.33455 42.3733 8.70765 42.0002 9.16788 42.0002H30.8346C31.2948 42.0002 31.6679 42.3733 31.6679 42.8335C31.6679 43.2937 31.2948 43.6668 30.8346 43.6668H9.16788C8.70765 43.6668 8.33455 43.2937 8.33455 42.8335Z" fill="white"/>
<path d="M68.162 38.764C63.674 38.764 61.034 35.926 61.034 30.8C61.034 26.136 63.586 22.836 68.096 22.836C71.242 22.836 73.706 24.464 74.564 27.676L73.156 27.962C72.65 25.674 70.89 23.958 68.118 23.958C66.402 23.958 65.016 24.508 64.07 25.586C63.014 26.774 62.486 28.578 62.486 30.8C62.486 32.758 62.86 34.342 63.674 35.53C64.576 36.872 66.138 37.642 68.162 37.642C70.846 37.642 72.474 36.058 73.244 33.924L74.696 34.342C73.552 37.092 71.352 38.764 68.162 38.764ZM76.9029 38.5V27.566H78.1789V29.898C78.5309 28.38 79.7849 27.478 81.4349 27.302C81.6769 27.28 82.0289 27.28 82.2929 27.28L82.2489 28.512C82.0509 28.49 81.8529 28.49 81.6109 28.49C79.6309 28.49 78.1789 29.48 78.1789 33.154V38.5H76.9029ZM85.4155 43.01C84.9095 43.01 84.4035 42.922 83.9415 42.768L83.9855 41.558C84.3815 41.69 84.8215 41.822 85.2835 41.822C86.1415 41.822 86.4715 41.206 87.3295 38.874L82.9295 27.566H84.2935L87.0875 35.134C87.3295 35.772 87.6375 36.652 87.9235 37.488C88.2535 36.498 88.4735 35.86 88.7375 35.134L91.4435 27.566H92.7855L88.1435 40.106C87.3735 42.196 86.7795 43.01 85.4155 43.01ZM94.606 42.9V27.566H95.882V29.656C96.63 28.226 97.972 27.324 99.776 27.324C102.57 27.324 104.704 29.326 104.704 33.044C104.704 36.498 102.658 38.764 99.776 38.764C98.06 38.764 96.718 38.06 95.882 36.652V42.9H94.606ZM95.816 33.088C95.816 35.992 97.158 37.708 99.512 37.708C100.766 37.708 101.69 37.29 102.262 36.586C102.988 35.75 103.296 34.584 103.296 33.044C103.296 29.942 102.02 28.38 99.512 28.38C98.478 28.38 97.532 28.71 96.872 29.502C96.234 30.25 95.816 31.416 95.816 33.088ZM109.881 38.61C108.341 38.61 107.615 37.972 107.615 36.498V28.644H105.921V27.566H107.615V24.53H108.891V27.566H111.157V28.644H108.891V36.52C108.891 37.268 109.199 37.444 109.947 37.444C110.277 37.444 110.717 37.4 111.113 37.312L111.135 38.478C110.739 38.566 110.299 38.61 109.881 38.61ZM117.724 38.742C114.38 38.742 112.444 36.564 112.444 33.044C112.444 29.788 114.424 27.324 117.724 27.324C121.068 27.324 123.004 29.656 123.004 33.044C123.004 36.388 120.98 38.742 117.724 38.742ZM113.808 33.044C113.808 34.562 114.16 35.794 114.886 36.63C115.524 37.334 116.448 37.686 117.702 37.686C118.978 37.686 119.924 37.312 120.562 36.586C121.288 35.75 121.64 34.54 121.64 33.044C121.64 31.482 121.266 30.25 120.496 29.436C119.88 28.754 118.978 28.38 117.768 28.38C116.492 28.38 115.546 28.776 114.908 29.48C114.16 30.316 113.808 31.526 113.808 33.044ZM135.338 38.764C133.842 38.764 132.566 38.324 131.664 37.356C130.696 36.366 130.212 34.936 130.212 33.044C130.212 31.24 130.74 29.722 131.73 28.71C132.654 27.764 133.908 27.324 135.272 27.324C136.9 27.324 138.308 28.028 139.188 29.304C139.892 30.316 140.244 31.812 140.2 33.264H131.576C131.598 36.52 133.16 37.708 135.382 37.708C137.494 37.708 138.594 36.63 138.902 34.914L140.112 35.046C139.672 37.356 137.956 38.764 135.338 38.764ZM131.598 32.23H138.902C138.836 31.372 138.55 30.426 138.132 29.788C137.45 28.776 136.438 28.38 135.25 28.38C134.128 28.38 133.204 28.754 132.632 29.436C132.016 30.14 131.686 31.13 131.598 32.23ZM140.958 38.5L145.204 32.802L141.31 27.566H142.806L144.962 30.536C145.336 31.042 145.666 31.526 145.908 31.9C146.194 31.526 146.502 31.064 146.876 30.58L149.076 27.566H150.528L146.656 32.78L150.858 38.5H149.384L147.052 35.266C146.656 34.716 146.238 34.1 145.908 33.638C145.622 34.078 145.182 34.716 144.786 35.244L142.41 38.5H140.958ZM156.803 38.742C153.349 38.742 151.567 36.432 151.567 33.044C151.567 29.744 153.503 27.324 156.803 27.324C159.465 27.324 160.961 28.864 161.423 31.02L160.191 31.262C159.817 29.612 158.937 28.402 156.781 28.402C155.373 28.402 154.427 28.886 153.811 29.722C153.195 30.536 152.953 31.702 152.953 33.044C152.953 35.816 153.965 37.664 156.803 37.664C158.717 37.664 159.883 36.872 160.301 34.98L161.511 35.112C161.093 37.29 159.333 38.742 156.803 38.742ZM163.85 38.5V23.1H165.126V29.59C165.676 28.16 166.952 27.324 168.8 27.324C170.208 27.324 171.22 27.742 171.924 28.468C172.804 29.37 172.848 30.756 172.848 31.878V38.5H171.528V32.076C171.528 31.042 171.55 29.986 170.868 29.26C170.274 28.6 169.416 28.424 168.47 28.424C167.26 28.424 165.126 28.93 165.126 32.34V38.5H163.85ZM178.96 38.764C176.848 38.764 175.308 37.598 175.308 35.684C175.308 33.616 176.892 32.868 178.718 32.516L182.92 31.702C182.92 30.536 182.898 29.656 182.304 29.084C181.842 28.622 181.072 28.38 180.016 28.38C177.904 28.38 176.936 29.106 176.936 31.108L175.682 30.932C175.682 29.788 176.078 28.798 176.87 28.182C177.662 27.566 178.806 27.324 180.06 27.324C182.722 27.324 184.152 28.446 184.152 30.954V36.718C184.152 37.312 184.24 37.532 184.834 37.532C185.12 37.532 185.362 37.488 185.67 37.422L185.692 38.478C185.318 38.544 184.966 38.588 184.636 38.588C183.536 38.588 182.942 38.126 182.942 36.652C182.348 37.906 181.028 38.764 178.96 38.764ZM176.628 35.618C176.628 37.026 177.728 37.708 179.18 37.708C181.578 37.708 182.92 36.41 182.92 34.43V32.67L178.872 33.528C177.464 33.814 176.628 34.276 176.628 35.618ZM187.547 38.5V27.566H188.823V29.59C189.351 28.204 190.539 27.324 192.497 27.324C193.905 27.324 194.917 27.742 195.621 28.468C196.501 29.37 196.545 30.778 196.545 31.878V38.5H195.225V32.098C195.225 31.064 195.247 29.986 194.565 29.26C193.971 28.6 193.113 28.424 192.167 28.424C190.957 28.424 188.823 28.974 188.823 32.384V38.5H187.547ZM204.021 42.922C201.579 42.922 199.621 41.8 199.489 39.292L200.743 39.204C200.897 41.272 202.151 41.888 204.175 41.888C206.529 41.888 207.739 40.634 207.739 38.478V36.124C207.013 37.532 205.737 38.412 203.911 38.412C201.073 38.412 198.961 36.388 198.961 32.89C198.961 29.348 201.161 27.324 203.911 27.324C205.781 27.324 207.035 28.182 207.739 29.458V27.566H209.015V38.434C209.015 41.338 207.101 42.922 204.021 42.922ZM200.347 32.89C200.347 35.706 201.667 37.334 204.043 37.334C205.209 37.334 206.089 36.96 206.705 36.3C207.453 35.486 207.783 34.232 207.783 32.758C207.783 29.612 206.287 28.38 204.087 28.38C202.855 28.38 201.931 28.798 201.293 29.568C200.655 30.338 200.347 31.46 200.347 32.89ZM216.699 38.764C215.203 38.764 213.927 38.324 213.025 37.356C212.057 36.366 211.573 34.936 211.573 33.044C211.573 31.24 212.101 29.722 213.091 28.71C214.015 27.764 215.269 27.324 216.633 27.324C218.261 27.324 219.669 28.028 220.549 29.304C221.253 30.316 221.605 31.812 221.561 33.264H212.937C212.959 36.52 214.521 37.708 216.743 37.708C218.855 37.708 219.955 36.63 220.263 34.914L221.473 35.046C221.033 37.356 219.317 38.764 216.699 38.764ZM212.959 32.23H220.263C220.197 31.372 219.911 30.426 219.493 29.788C218.811 28.776 217.799 28.38 216.611 28.38C215.489 28.38 214.565 28.754 213.993 29.436C213.377 30.14 213.047 31.13 212.959 32.23Z" fill="black"/>
</svg>
