<svg width="332" height="64" viewBox="0 0 332 64" fill="none" xmlns="http://www.w3.org/2000/svg">
<rect y="12" width="40" height="40" rx="2" fill="#02099C"/>
<path d="M30.642 38.5694C29.9873 41.8441 27.0385 42.5008 25.4012 42.5C23.7639 42.4992 20.8158 41.844 20.1604 38.5694C19.3545 34.543 21.7178 33.0468 24.297 33.6168C25.0214 33.7769 25.7811 33.7769 26.5055 33.6168C29.0849 33.0467 31.4472 34.5427 30.642 38.5694Z" stroke="white" stroke-width="1.5"/>
<path d="M9.9248 20.8242C10.1847 20.6993 10.4936 20.734 10.7188 20.9141L12.125 22.0391L13.5312 20.9141L13.6387 20.8428C13.9005 20.6987 14.2289 20.7222 14.4688 20.9141L15.875 22.0391L17.2812 20.9141L17.3887 20.8428C17.6505 20.6987 17.9789 20.7222 18.2188 20.9141L19.625 22.0391L21.0312 20.9141L21.1387 20.8428C21.4005 20.6987 21.7289 20.7222 21.9688 20.9141L23.375 22.0391L24.7812 20.9141L24.8691 20.8535C25.0826 20.7277 25.3477 20.7149 25.5752 20.8242C25.8348 20.9492 26 21.2118 26 21.5V28.25H24.5V23.0605L23.8438 23.5859C23.5699 23.805 23.1801 23.805 22.9062 23.5859L21.5 22.4609L20.0938 23.5859C19.8199 23.805 19.4301 23.805 19.1562 23.5859L17.75 22.4609L16.3438 23.5859C16.0699 23.805 15.6801 23.805 15.4062 23.5859L14 22.4609L12.5938 23.5859C12.3199 23.805 11.9301 23.805 11.6562 23.5859L11 23.0605V40.25H17.75V41.75H10.25C9.83583 41.75 9.50007 41.4142 9.5 41V21.5L9.50781 21.3936C9.54292 21.1485 9.69757 20.9336 9.9248 20.8242Z" fill="white"/>
<path d="M27.2827 29.7822C27.6789 29.6625 28.0981 29.8862 28.2183 30.2822C28.3383 30.6784 28.1142 31.0973 27.7183 31.2178C27.1403 31.3929 26.7426 31.7247 26.4771 32.0938L26.1812 32.1523C25.7341 32.2511 25.2655 32.2636 24.813 32.1895L24.7573 32.1777C25.0984 31.2497 25.8343 30.2212 27.2827 29.7822Z" fill="white"/>
<path d="M68.096 38.764C63.674 38.764 61.056 35.926 61.056 30.8C61.056 26.136 63.586 22.836 68.096 22.836C71.264 22.836 73.684 24.464 74.542 27.676L73.134 27.962C72.606 25.696 70.912 23.958 68.14 23.958C66.424 23.958 65.016 24.508 64.07 25.586C62.992 26.752 62.486 28.578 62.486 30.8C62.486 32.934 62.926 34.54 63.762 35.706C64.708 36.982 66.204 37.62 68.206 37.62C71.594 37.62 73.332 35.618 73.354 31.812H68.382V30.624H74.63V38.5H73.552L73.442 35.596C72.562 37.532 70.758 38.764 68.096 38.764ZM77.6119 38.5V27.566H78.8879V29.898C79.2399 28.38 80.4939 27.478 82.1439 27.302C82.3859 27.28 82.7379 27.28 83.0019 27.28L82.9579 28.512C82.7599 28.49 82.5619 28.49 82.3199 28.49C80.3399 28.49 78.8879 29.48 78.8879 33.154V38.5H77.6119ZM88.913 38.742C85.569 38.742 83.633 36.564 83.633 33.044C83.633 29.788 85.613 27.324 88.913 27.324C92.257 27.324 94.193 29.656 94.193 33.044C94.193 36.388 92.169 38.742 88.913 38.742ZM84.997 33.044C84.997 34.562 85.349 35.794 86.075 36.63C86.713 37.334 87.637 37.686 88.891 37.686C90.167 37.686 91.113 37.312 91.751 36.586C92.477 35.75 92.829 34.54 92.829 33.044C92.829 31.482 92.455 30.25 91.685 29.436C91.069 28.754 90.167 28.38 88.957 28.38C87.681 28.38 86.735 28.776 86.097 29.48C85.349 30.316 84.997 31.526 84.997 33.044ZM101.287 38.742C97.833 38.742 96.051 36.432 96.051 33.044C96.051 29.744 97.987 27.324 101.287 27.324C103.949 27.324 105.445 28.864 105.907 31.02L104.675 31.262C104.301 29.612 103.421 28.402 101.265 28.402C99.857 28.402 98.911 28.886 98.295 29.722C97.679 30.536 97.437 31.702 97.437 33.044C97.437 35.816 98.449 37.664 101.287 37.664C103.201 37.664 104.367 36.872 104.785 34.98L105.995 35.112C105.577 37.29 103.817 38.742 101.287 38.742ZM112.801 38.764C111.305 38.764 110.029 38.324 109.127 37.356C108.159 36.366 107.675 34.936 107.675 33.044C107.675 31.24 108.203 29.722 109.193 28.71C110.117 27.764 111.371 27.324 112.735 27.324C114.363 27.324 115.771 28.028 116.651 29.304C117.355 30.316 117.707 31.812 117.663 33.264H109.039C109.061 36.52 110.623 37.708 112.845 37.708C114.957 37.708 116.057 36.63 116.365 34.914L117.575 35.046C117.135 37.356 115.419 38.764 112.801 38.764ZM109.061 32.23H116.365C116.299 31.372 116.013 30.426 115.595 29.788C114.913 28.776 113.901 28.38 112.713 28.38C111.591 28.38 110.667 28.754 110.095 29.436C109.479 30.14 109.149 31.13 109.061 32.23ZM120.194 38.5V27.566H121.47V29.898C121.822 28.38 123.076 27.478 124.726 27.302C124.968 27.28 125.32 27.28 125.584 27.28L125.54 28.512C125.342 28.49 125.144 28.49 124.902 28.49C122.922 28.49 121.47 29.48 121.47 33.154V38.5H120.194ZM128.707 43.01C128.201 43.01 127.695 42.922 127.233 42.768L127.277 41.558C127.673 41.69 128.113 41.822 128.575 41.822C129.433 41.822 129.763 41.206 130.621 38.874L126.221 27.566H127.585L130.379 35.134C130.621 35.772 130.929 36.652 131.215 37.488C131.545 36.498 131.765 35.86 132.029 35.134L134.735 27.566H136.077L131.435 40.106C130.665 42.196 130.071 43.01 128.707 43.01ZM145.588 38.61C144.048 38.61 143.322 37.972 143.322 36.498V28.644H141.628V27.566H143.322V24.53H144.598V27.566H146.864V28.644H144.598V36.52C144.598 37.268 144.906 37.444 145.654 37.444C145.984 37.444 146.424 37.4 146.82 37.312L146.842 38.478C146.446 38.566 146.006 38.61 145.588 38.61ZM153.299 38.764C151.803 38.764 150.527 38.324 149.625 37.356C148.657 36.366 148.173 34.936 148.173 33.044C148.173 31.24 148.701 29.722 149.691 28.71C150.615 27.764 151.869 27.324 153.233 27.324C154.861 27.324 156.269 28.028 157.149 29.304C157.853 30.316 158.205 31.812 158.161 33.264H149.537C149.559 36.52 151.121 37.708 153.343 37.708C155.455 37.708 156.555 36.63 156.863 34.914L158.073 35.046C157.633 37.356 155.917 38.764 153.299 38.764ZM149.559 32.23H156.863C156.797 31.372 156.511 30.426 156.093 29.788C155.411 28.776 154.399 28.38 153.211 28.38C152.089 28.38 151.165 28.754 150.593 29.436C149.977 30.14 149.647 31.13 149.559 32.23ZM165.246 38.742C161.792 38.742 160.01 36.432 160.01 33.044C160.01 29.744 161.946 27.324 165.246 27.324C167.908 27.324 169.404 28.864 169.866 31.02L168.634 31.262C168.26 29.612 167.38 28.402 165.224 28.402C163.816 28.402 162.87 28.886 162.254 29.722C161.638 30.536 161.396 31.702 161.396 33.044C161.396 35.816 162.408 37.664 165.246 37.664C167.16 37.664 168.326 36.872 168.744 34.98L169.954 35.112C169.536 37.29 167.776 38.742 165.246 38.742ZM172.294 38.5V23.1H173.57V29.59C174.12 28.16 175.396 27.324 177.244 27.324C178.652 27.324 179.664 27.742 180.368 28.468C181.248 29.37 181.292 30.756 181.292 31.878V38.5H179.972V32.076C179.972 31.042 179.994 29.986 179.312 29.26C178.718 28.6 177.86 28.424 176.914 28.424C175.704 28.424 173.57 28.93 173.57 32.34V38.5H172.294ZM184.389 38.5V27.566H185.665V29.59C186.193 28.204 187.381 27.324 189.339 27.324C190.747 27.324 191.759 27.742 192.463 28.468C193.343 29.37 193.387 30.778 193.387 31.878V38.5H192.067V32.098C192.067 31.064 192.089 29.986 191.407 29.26C190.813 28.6 189.955 28.424 189.009 28.424C187.799 28.424 185.665 28.974 185.665 32.384V38.5H184.389ZM201.083 38.742C197.739 38.742 195.803 36.564 195.803 33.044C195.803 29.788 197.783 27.324 201.083 27.324C204.427 27.324 206.363 29.656 206.363 33.044C206.363 36.388 204.339 38.742 201.083 38.742ZM197.167 33.044C197.167 34.562 197.519 35.794 198.245 36.63C198.883 37.334 199.807 37.686 201.061 37.686C202.337 37.686 203.283 37.312 203.921 36.586C204.647 35.75 204.999 34.54 204.999 33.044C204.999 31.482 204.625 30.25 203.855 29.436C203.239 28.754 202.337 28.38 201.127 28.38C199.851 28.38 198.905 28.776 198.267 29.48C197.519 30.316 197.167 31.526 197.167 33.044ZM208.903 38.5V23.1H210.179V38.5H208.903ZM217.991 38.742C214.647 38.742 212.711 36.564 212.711 33.044C212.711 29.788 214.691 27.324 217.991 27.324C221.335 27.324 223.271 29.656 223.271 33.044C223.271 36.388 221.247 38.742 217.991 38.742ZM214.075 33.044C214.075 34.562 214.427 35.794 215.153 36.63C215.791 37.334 216.715 37.686 217.969 37.686C219.245 37.686 220.191 37.312 220.829 36.586C221.555 35.75 221.907 34.54 221.907 33.044C221.907 31.482 221.533 30.25 220.763 29.436C220.147 28.754 219.245 28.38 218.035 28.38C216.759 28.38 215.813 28.776 215.175 29.48C214.427 30.316 214.075 31.526 214.075 33.044ZM230.189 42.922C227.747 42.922 225.789 41.8 225.657 39.292L226.911 39.204C227.065 41.272 228.319 41.888 230.343 41.888C232.697 41.888 233.907 40.634 233.907 38.478V36.124C233.181 37.532 231.905 38.412 230.079 38.412C227.241 38.412 225.129 36.388 225.129 32.89C225.129 29.348 227.329 27.324 230.079 27.324C231.949 27.324 233.203 28.182 233.907 29.458V27.566H235.183V38.434C235.183 41.338 233.269 42.922 230.189 42.922ZM226.515 32.89C226.515 35.706 227.835 37.334 230.211 37.334C231.377 37.334 232.257 36.96 232.873 36.3C233.621 35.486 233.951 34.232 233.951 32.758C233.951 29.612 232.455 28.38 230.255 28.38C229.023 28.38 228.099 28.798 227.461 29.568C226.823 30.338 226.515 31.46 226.515 32.89ZM239.523 43.01C239.017 43.01 238.511 42.922 238.049 42.768L238.093 41.558C238.489 41.69 238.929 41.822 239.391 41.822C240.249 41.822 240.579 41.206 241.437 38.874L237.037 27.566H238.401L241.195 35.134C241.437 35.772 241.745 36.652 242.031 37.488C242.361 36.498 242.581 35.86 242.845 35.134L245.551 27.566H246.893L242.251 40.106C241.481 42.196 240.887 43.01 239.523 43.01ZM253.655 42.9V27.566H254.931V29.656C255.679 28.226 257.021 27.324 258.825 27.324C261.619 27.324 263.753 29.326 263.753 33.044C263.753 36.498 261.707 38.764 258.825 38.764C257.109 38.764 255.767 38.06 254.931 36.652V42.9H253.655ZM254.865 33.088C254.865 35.992 256.207 37.708 258.561 37.708C259.815 37.708 260.739 37.29 261.311 36.586C262.037 35.75 262.345 34.584 262.345 33.044C262.345 29.942 261.069 28.38 258.561 28.38C257.527 28.38 256.581 28.71 255.921 29.502C255.283 30.25 254.865 31.416 254.865 33.088ZM266.309 38.5V23.1H267.585V38.5H266.309ZM273.813 38.764C271.701 38.764 270.161 37.598 270.161 35.684C270.161 33.616 271.745 32.868 273.571 32.516L277.773 31.702C277.773 30.536 277.751 29.656 277.157 29.084C276.695 28.622 275.925 28.38 274.869 28.38C272.757 28.38 271.789 29.106 271.789 31.108L270.535 30.932C270.535 29.788 270.931 28.798 271.723 28.182C272.515 27.566 273.659 27.324 274.913 27.324C277.575 27.324 279.005 28.446 279.005 30.954V36.718C279.005 37.312 279.093 37.532 279.687 37.532C279.973 37.532 280.215 37.488 280.523 37.422L280.545 38.478C280.171 38.544 279.819 38.588 279.489 38.588C278.389 38.588 277.795 38.126 277.795 36.652C277.201 37.906 275.881 38.764 273.813 38.764ZM271.481 35.618C271.481 37.026 272.581 37.708 274.033 37.708C276.431 37.708 277.773 36.41 277.773 34.43V32.67L273.725 33.528C272.317 33.814 271.481 34.276 271.481 35.618ZM285.108 38.61C283.568 38.61 282.842 37.972 282.842 36.498V28.644H281.148V27.566H282.842V24.53H284.118V27.566H286.384V28.644H284.118V36.52C284.118 37.268 284.426 37.444 285.174 37.444C285.504 37.444 285.944 37.4 286.34 37.312L286.362 38.478C285.966 38.566 285.526 38.61 285.108 38.61ZM289.052 38.5V28.622H287.358V27.544H289.052V25.146C289.052 23.694 289.756 23.012 291.34 23.012C291.802 23.012 292.286 23.078 292.55 23.144L292.506 24.288C292.198 24.222 291.736 24.156 291.362 24.156C290.614 24.156 290.328 24.354 290.328 25.08V27.544H292.594V28.622H290.328V38.5H289.052ZM298.837 38.742C295.493 38.742 293.557 36.564 293.557 33.044C293.557 29.788 295.537 27.324 298.837 27.324C302.181 27.324 304.117 29.656 304.117 33.044C304.117 36.388 302.093 38.742 298.837 38.742ZM294.921 33.044C294.921 34.562 295.273 35.794 295.999 36.63C296.637 37.334 297.561 37.686 298.815 37.686C300.091 37.686 301.037 37.312 301.675 36.586C302.401 35.75 302.753 34.54 302.753 33.044C302.753 31.482 302.379 30.25 301.609 29.436C300.993 28.754 300.091 28.38 298.881 28.38C297.605 28.38 296.659 28.776 296.021 29.48C295.273 30.316 294.921 31.526 294.921 33.044ZM306.657 38.5V27.566H307.933V29.898C308.285 28.38 309.539 27.478 311.189 27.302C311.431 27.28 311.783 27.28 312.047 27.28L312.003 28.512C311.805 28.49 311.607 28.49 311.365 28.49C309.385 28.49 307.933 29.48 307.933 33.154V38.5H306.657ZM313.919 38.5V27.566H315.195V29.546C315.349 29.106 315.569 28.71 315.965 28.336C316.559 27.764 317.461 27.324 318.78 27.324C320.585 27.324 321.817 28.248 322.235 29.854C322.433 29.238 322.741 28.754 323.203 28.314C323.797 27.764 324.655 27.324 325.953 27.324C328.461 27.324 329.693 28.754 329.693 31.57V38.5H328.373V32.032C328.373 31.02 328.373 29.942 327.713 29.216C327.141 28.556 326.327 28.424 325.557 28.424C324.897 28.424 324.149 28.6 323.555 29.128C322.939 29.678 322.433 30.558 322.433 32.34V38.5H321.135V32.098C321.135 31.042 321.135 29.964 320.475 29.216C319.903 28.6 319.089 28.424 318.319 28.424C317.527 28.424 316.801 28.688 316.317 29.128C315.679 29.678 315.195 30.58 315.195 32.362V38.5H313.919Z" fill="black"/>
</svg>
