<svg width="313" height="64" viewBox="0 0 313 64" fill="none" xmlns="http://www.w3.org/2000/svg">
<rect y="12" width="40" height="40" rx="2" fill="#02099C"/>
<rect x="6.66797" y="18.667" width="26.6667" height="26.6667" rx="2" fill="#02099C"/>
<path fill-rule="evenodd" clip-rule="evenodd" d="M20.8348 20.3335C20.3746 20.3335 20.0015 20.7066 20.0015 21.1668V27.0002C20.0015 29.4777 21.8034 31.5343 24.1681 31.931V37.0002C24.1681 39.7616 21.9296 42.0002 19.1681 42.0002C16.4067 42.0002 14.1681 39.7616 14.1681 37.0002V31.8951C15.6058 31.5251 16.6681 30.22 16.6681 28.6668C16.6681 26.8259 15.1757 25.3335 13.3348 25.3335C11.4938 25.3335 10.0015 26.8259 10.0015 28.6668C10.0015 30.22 11.0638 31.5251 12.5015 31.8951V37.0002C12.5015 40.6821 15.4862 43.6668 19.1681 43.6668C22.85 43.6668 25.8348 40.6821 25.8348 37.0002V31.931C28.1996 31.5343 30.0015 29.4777 30.0015 27.0002V21.1668C30.0015 20.7066 29.6284 20.3335 29.1681 20.3335H27.5015C27.0412 20.3335 26.6681 20.7066 26.6681 21.1668C26.6681 21.6271 27.0412 22.0002 27.5015 22.0002H28.3348V27.0002C28.3348 28.8411 26.8424 30.3335 25.0015 30.3335C23.1605 30.3335 21.6681 28.8411 21.6681 27.0002V22.0002H22.5015C22.9617 22.0002 23.3348 21.6271 23.3348 21.1668C23.3348 20.7066 22.9617 20.3335 22.5015 20.3335H20.8348ZM13.3348 30.3335C14.2553 30.3335 15.0015 29.5873 15.0015 28.6668C15.0015 27.7464 14.2553 27.0002 13.3348 27.0002C12.4143 27.0002 11.6681 27.7464 11.6681 28.6668C11.6681 29.5873 12.4143 30.3335 13.3348 30.3335Z" fill="white"/>
<path d="M68.14 38.764C63.696 38.764 61.034 35.926 61.034 30.8C61.034 26.136 63.63 22.836 68.118 22.836C72.54 22.836 75.158 26.158 75.158 30.8C75.158 35.508 72.54 38.764 68.14 38.764ZM62.486 30.8C62.486 32.978 62.992 34.694 63.828 35.75C64.796 36.96 66.248 37.642 68.14 37.642C70.098 37.642 71.528 36.916 72.452 35.596C73.288 34.408 73.728 32.78 73.728 30.8C73.728 28.754 73.266 27.148 72.386 25.96C71.462 24.684 70.01 23.958 68.162 23.958C66.336 23.958 64.994 24.596 64.136 25.52C63.058 26.664 62.486 28.556 62.486 30.8ZM77.8052 38.5V27.566H79.0812V29.59C79.6092 28.204 80.7972 27.324 82.7552 27.324C84.1632 27.324 85.1752 27.742 85.8792 28.468C86.7592 29.37 86.8032 30.778 86.8032 31.878V38.5H85.4832V32.098C85.4832 31.064 85.5052 29.986 84.8232 29.26C84.2292 28.6 83.3712 28.424 82.4252 28.424C81.2152 28.424 79.0812 28.974 79.0812 32.384V38.5H77.8052ZM89.9009 38.5V23.1H91.1769V38.5H89.9009ZM94.3912 38.5V27.566H95.6672V38.5H94.3912ZM94.3912 25.19V23.188H95.6672V25.19H94.3912ZM98.8814 38.5V27.566H100.157V29.59C100.685 28.204 101.873 27.324 103.831 27.324C105.239 27.324 106.251 27.742 106.955 28.468C107.835 29.37 107.879 30.778 107.879 31.878V38.5H106.559V32.098C106.559 31.064 106.581 29.986 105.899 29.26C105.305 28.6 104.447 28.424 103.501 28.424C102.291 28.424 100.157 28.974 100.157 32.384V38.5H98.8814ZM115.443 38.764C113.947 38.764 112.671 38.324 111.769 37.356C110.801 36.366 110.317 34.936 110.317 33.044C110.317 31.24 110.845 29.722 111.835 28.71C112.759 27.764 114.013 27.324 115.377 27.324C117.005 27.324 118.413 28.028 119.293 29.304C119.997 30.316 120.349 31.812 120.305 33.264H111.681C111.703 36.52 113.265 37.708 115.487 37.708C117.599 37.708 118.699 36.63 119.007 34.914L120.217 35.046C119.777 37.356 118.061 38.764 115.443 38.764ZM111.703 32.23H119.007C118.941 31.372 118.655 30.426 118.237 29.788C117.555 28.776 116.543 28.38 115.355 28.38C114.233 28.38 113.309 28.754 112.737 29.436C112.121 30.14 111.791 31.13 111.703 32.23ZM128.165 42.9V27.566H129.441V29.656C130.189 28.226 131.531 27.324 133.335 27.324C136.129 27.324 138.263 29.326 138.263 33.044C138.263 36.498 136.217 38.764 133.335 38.764C131.619 38.764 130.277 38.06 129.441 36.652V42.9H128.165ZM129.375 33.088C129.375 35.992 130.717 37.708 133.071 37.708C134.325 37.708 135.249 37.29 135.821 36.586C136.547 35.75 136.855 34.584 136.855 33.044C136.855 29.942 135.579 28.38 133.071 28.38C132.037 28.38 131.091 28.71 130.431 29.502C129.793 30.25 129.375 31.416 129.375 33.088ZM140.819 38.5V27.566H142.095V29.898C142.447 28.38 143.701 27.478 145.351 27.302C145.593 27.28 145.945 27.28 146.209 27.28L146.165 28.512C145.967 28.49 145.769 28.49 145.527 28.49C143.547 28.49 142.095 29.48 142.095 33.154V38.5H140.819ZM151.988 38.764C150.492 38.764 149.216 38.324 148.314 37.356C147.346 36.366 146.862 34.936 146.862 33.044C146.862 31.24 147.39 29.722 148.38 28.71C149.304 27.764 150.558 27.324 151.922 27.324C153.55 27.324 154.958 28.028 155.838 29.304C156.542 30.316 156.894 31.812 156.85 33.264H148.226C148.248 36.52 149.81 37.708 152.032 37.708C154.144 37.708 155.244 36.63 155.552 34.914L156.762 35.046C156.322 37.356 154.606 38.764 151.988 38.764ZM148.248 32.23H155.552C155.486 31.372 155.2 30.426 154.782 29.788C154.1 28.776 153.088 28.38 151.9 28.38C150.778 28.38 149.854 28.754 149.282 29.436C148.666 30.14 148.336 31.13 148.248 32.23ZM163.209 38.742C160.525 38.742 158.611 37.422 158.633 34.914L159.843 34.804C159.821 36.74 161.339 37.686 163.253 37.686C165.167 37.686 166.311 36.96 166.311 35.552C166.311 33.902 164.287 33.682 162.461 33.286C160.283 32.824 158.897 32.164 158.897 30.338C158.897 28.49 160.525 27.324 162.835 27.324C165.189 27.324 166.927 28.446 167.191 30.778L165.981 30.976C165.849 29.304 164.771 28.314 162.791 28.314C161.317 28.314 160.129 28.996 160.129 30.206C160.129 31.438 161.229 31.856 163.231 32.23C165.409 32.67 167.499 33.066 167.499 35.442C167.499 37.664 165.651 38.742 163.209 38.742ZM174.527 38.742C171.073 38.742 169.291 36.432 169.291 33.044C169.291 29.744 171.227 27.324 174.527 27.324C177.189 27.324 178.685 28.864 179.147 31.02L177.915 31.262C177.541 29.612 176.661 28.402 174.505 28.402C173.097 28.402 172.151 28.886 171.535 29.722C170.919 30.536 170.677 31.702 170.677 33.044C170.677 35.816 171.689 37.664 174.527 37.664C176.441 37.664 177.607 36.872 178.025 34.98L179.235 35.112C178.817 37.29 177.057 38.742 174.527 38.742ZM181.575 38.5V27.566H182.851V29.898C183.203 28.38 184.457 27.478 186.107 27.302C186.349 27.28 186.701 27.28 186.965 27.28L186.921 28.512C186.723 28.49 186.525 28.49 186.283 28.49C184.303 28.49 182.851 29.48 182.851 33.154V38.5H181.575ZM188.836 38.5V27.566H190.112V38.5H188.836ZM188.836 25.19V23.188H190.112V25.19H188.836ZM193.327 42.9V27.566H194.603V29.656C195.351 28.226 196.693 27.324 198.497 27.324C201.291 27.324 203.425 29.326 203.425 33.044C203.425 36.498 201.379 38.764 198.497 38.764C196.781 38.764 195.439 38.06 194.603 36.652V42.9H193.327ZM194.537 33.088C194.537 35.992 195.879 37.708 198.233 37.708C199.487 37.708 200.411 37.29 200.983 36.586C201.709 35.75 202.017 34.584 202.017 33.044C202.017 29.942 200.741 28.38 198.233 28.38C197.199 28.38 196.253 28.71 195.593 29.502C194.955 30.25 194.537 31.416 194.537 33.088ZM208.602 38.61C207.062 38.61 206.336 37.972 206.336 36.498V28.644H204.642V27.566H206.336V24.53H207.612V27.566H209.878V28.644H207.612V36.52C207.612 37.268 207.92 37.444 208.668 37.444C208.998 37.444 209.438 37.4 209.834 37.312L209.856 38.478C209.46 38.566 209.02 38.61 208.602 38.61ZM211.997 38.5V27.566H213.273V38.5H211.997ZM211.997 25.19V23.188H213.273V25.19H211.997ZM221.085 38.742C217.741 38.742 215.805 36.564 215.805 33.044C215.805 29.788 217.785 27.324 221.085 27.324C224.429 27.324 226.365 29.656 226.365 33.044C226.365 36.388 224.341 38.742 221.085 38.742ZM217.169 33.044C217.169 34.562 217.521 35.794 218.247 36.63C218.885 37.334 219.809 37.686 221.063 37.686C222.339 37.686 223.285 37.312 223.923 36.586C224.649 35.75 225.001 34.54 225.001 33.044C225.001 31.482 224.627 30.25 223.857 29.436C223.241 28.754 222.339 28.38 221.129 28.38C219.853 28.38 218.907 28.776 218.269 29.48C217.521 30.316 217.169 31.526 217.169 33.044ZM228.905 38.5V27.566H230.181V29.59C230.709 28.204 231.897 27.324 233.855 27.324C235.263 27.324 236.275 27.742 236.979 28.468C237.859 29.37 237.903 30.778 237.903 31.878V38.5H236.583V32.098C236.583 31.064 236.605 29.986 235.923 29.26C235.329 28.6 234.471 28.424 233.525 28.424C232.315 28.424 230.181 28.974 230.181 32.384V38.5H228.905ZM250.157 38.742C247.473 38.742 245.559 37.422 245.581 34.914L246.791 34.804C246.769 36.74 248.287 37.686 250.201 37.686C252.115 37.686 253.259 36.96 253.259 35.552C253.259 33.902 251.235 33.682 249.409 33.286C247.231 32.824 245.845 32.164 245.845 30.338C245.845 28.49 247.473 27.324 249.783 27.324C252.137 27.324 253.875 28.446 254.139 30.778L252.929 30.976C252.797 29.304 251.719 28.314 249.739 28.314C248.265 28.314 247.077 28.996 247.077 30.206C247.077 31.438 248.177 31.856 250.179 32.23C252.357 32.67 254.447 33.066 254.447 35.442C254.447 37.664 252.599 38.742 250.157 38.742ZM261.386 38.764C259.89 38.764 258.614 38.324 257.712 37.356C256.744 36.366 256.26 34.936 256.26 33.044C256.26 31.24 256.788 29.722 257.778 28.71C258.702 27.764 259.956 27.324 261.32 27.324C262.948 27.324 264.356 28.028 265.236 29.304C265.94 30.316 266.292 31.812 266.248 33.264H257.624C257.646 36.52 259.208 37.708 261.43 37.708C263.542 37.708 264.642 36.63 264.95 34.914L266.16 35.046C265.72 37.356 264.004 38.764 261.386 38.764ZM257.646 32.23H264.95C264.884 31.372 264.598 30.426 264.18 29.788C263.498 28.776 262.486 28.38 261.298 28.38C260.176 28.38 259.252 28.754 258.68 29.436C258.064 30.14 257.734 31.13 257.646 32.23ZM268.78 38.5V27.566H270.056V29.898C270.408 28.38 271.662 27.478 273.312 27.302C273.554 27.28 273.906 27.28 274.17 27.28L274.126 28.512C273.928 28.49 273.73 28.49 273.488 28.49C271.508 28.49 270.056 29.48 270.056 33.154V38.5H268.78ZM279.096 38.5L274.784 27.566H276.148L278.502 33.704C278.788 34.43 279.228 35.596 279.756 37.18C280.174 35.992 280.68 34.694 281.054 33.704L283.386 27.566H284.75L280.416 38.5H279.096ZM286.569 38.5V27.566H287.845V38.5H286.569ZM286.569 25.19V23.188H287.845V25.19H286.569ZM295.613 38.742C292.159 38.742 290.377 36.432 290.377 33.044C290.377 29.744 292.313 27.324 295.613 27.324C298.275 27.324 299.771 28.864 300.233 31.02L299.001 31.262C298.627 29.612 297.747 28.402 295.591 28.402C294.183 28.402 293.237 28.886 292.621 29.722C292.005 30.536 291.763 31.702 291.763 33.044C291.763 35.816 292.775 37.664 295.613 37.664C297.527 37.664 298.693 36.872 299.111 34.98L300.321 35.112C299.903 37.29 298.143 38.742 295.613 38.742ZM307.127 38.764C305.631 38.764 304.355 38.324 303.453 37.356C302.485 36.366 302.001 34.936 302.001 33.044C302.001 31.24 302.529 29.722 303.519 28.71C304.443 27.764 305.697 27.324 307.061 27.324C308.689 27.324 310.097 28.028 310.977 29.304C311.681 30.316 312.033 31.812 311.989 33.264H303.365C303.387 36.52 304.949 37.708 307.171 37.708C309.283 37.708 310.383 36.63 310.691 34.914L311.901 35.046C311.461 37.356 309.745 38.764 307.127 38.764ZM303.387 32.23H310.691C310.625 31.372 310.339 30.426 309.921 29.788C309.239 28.776 308.227 28.38 307.039 28.38C305.917 28.38 304.993 28.754 304.421 29.436C303.805 30.14 303.475 31.13 303.387 32.23Z" fill="black"/>
</svg>
