<svg width="324" height="64" viewBox="0 0 324 64" fill="none" xmlns="http://www.w3.org/2000/svg">
<rect width="40" height="40" transform="translate(0 12)" fill="#02099C"/>
<g clip-path="url(#clip0_4963_43)">
<path d="M29.9743 39.3456C30.2495 40.9968 28.9762 42.5 27.3021 42.5C26.4791 42.5 25.7008 42.1259 25.1867 41.4833L23.9008 39.8759C23.3315 39.1643 22.4695 38.75 21.5582 38.75H18.4419C17.5306 38.75 16.6687 39.1643 16.0993 39.8759L14.8135 41.4833C14.2993 42.1259 13.521 42.5 12.698 42.5C11.024 42.5 9.7506 40.9968 10.0258 39.3456L11.1234 32.7602C11.485 30.5904 13.3624 29 15.5621 29H24.438C26.6378 29 28.5151 30.5904 28.8768 32.7602L29.9743 39.3456Z" stroke="white" stroke-width="1.125"/>
<circle cx="22.375" cy="34.25" r="0.875" fill="white"/>
<circle cx="25.875" cy="34.25" r="0.875" fill="white"/>
<circle cx="24.125" cy="32.5" r="0.875" fill="white"/>
<circle cx="24.125" cy="36" r="0.875" fill="white"/>
<path d="M16.25 33.5H17.375C17.5821 33.5 17.75 33.6679 17.75 33.875V34.625C17.75 34.8321 17.5821 35 17.375 35H16.25V36.125C16.25 36.3321 16.0821 36.5 15.875 36.5H15.125C14.9179 36.5 14.75 36.3321 14.75 36.125V35H13.625C13.4179 35 13.25 34.8321 13.25 34.625V33.875C13.25 33.6679 13.4179 33.5 13.625 33.5H14.75V32.375C14.75 32.1679 14.9179 32 15.125 32H15.875C16.0821 32 16.25 32.1679 16.25 32.375V33.5Z" fill="white"/>
<path d="M23.8566 26.6786C21.7331 24.5551 18.2903 24.5551 16.1668 26.6786L15.3713 25.8831C17.9341 23.3202 22.0893 23.3202 24.6521 25.8831L23.8566 26.6786Z" fill="white"/>
<path d="M25.9779 24.5572C22.6829 21.2622 17.3406 21.2622 14.0455 24.5572L13.25 23.7617C16.9844 20.0273 23.039 20.0273 26.7734 23.7617L25.9779 24.5572Z" fill="white"/>
</g>
<path d="M62.024 38.5V23.1H63.894L68.052 33.55C68.58 34.914 69.064 36.146 69.416 37.114L70.736 33.638L75.004 23.1H76.83V38.5H75.554V28.028C75.554 27.28 75.598 25.85 75.62 24.75C75.114 26.07 74.696 27.17 74.322 28.072L70.098 38.5H68.69L64.444 27.94C64.114 27.104 63.674 25.872 63.234 24.75H63.212C63.278 25.806 63.3 27.236 63.3 27.94V38.5H62.024ZM84.3219 38.742C82.9799 38.742 81.9239 38.412 81.1979 37.664C80.4499 36.894 80.2299 35.706 80.2299 34.386V27.566H81.5499V34.188C81.5499 35.508 81.7259 36.41 82.3859 37.004C82.9579 37.532 83.7499 37.664 84.6519 37.664C86.3679 37.642 87.9959 36.63 87.9959 33.66V27.566H89.2719V38.5H87.9959V36.432C87.4459 37.928 86.1259 38.742 84.3219 38.742ZM92.479 38.5V23.1H93.755V38.5H92.479ZM99.7193 38.61C98.1793 38.61 97.4533 37.972 97.4533 36.498V28.644H95.7593V27.566H97.4533V24.53H98.7293V27.566H100.995V28.644H98.7293V36.52C98.7293 37.268 99.0373 37.444 99.7853 37.444C100.115 37.444 100.555 37.4 100.951 37.312L100.973 38.478C100.577 38.566 100.137 38.61 99.7193 38.61ZM103.114 38.5V27.566H104.39V38.5H103.114ZM103.114 25.19V23.188H104.39V25.19H103.114ZM107.604 42.9V27.566H108.88V29.656C109.628 28.226 110.97 27.324 112.774 27.324C115.568 27.324 117.702 29.326 117.702 33.044C117.702 36.498 115.656 38.764 112.774 38.764C111.058 38.764 109.716 38.06 108.88 36.652V42.9H107.604ZM108.814 33.088C108.814 35.992 110.156 37.708 112.51 37.708C113.764 37.708 114.688 37.29 115.26 36.586C115.986 35.75 116.294 34.584 116.294 33.044C116.294 29.942 115.018 28.38 112.51 28.38C111.476 28.38 110.53 28.71 109.87 29.502C109.232 30.25 108.814 31.416 108.814 33.088ZM120.258 38.5V23.1H121.534V38.5H120.258ZM127.763 38.764C125.651 38.764 124.111 37.598 124.111 35.684C124.111 33.616 125.695 32.868 127.521 32.516L131.723 31.702C131.723 30.536 131.701 29.656 131.107 29.084C130.645 28.622 129.875 28.38 128.819 28.38C126.707 28.38 125.739 29.106 125.739 31.108L124.485 30.932C124.485 29.788 124.881 28.798 125.673 28.182C126.465 27.566 127.609 27.324 128.863 27.324C131.525 27.324 132.955 28.446 132.955 30.954V36.718C132.955 37.312 133.043 37.532 133.637 37.532C133.923 37.532 134.165 37.488 134.473 37.422L134.495 38.478C134.121 38.544 133.769 38.588 133.439 38.588C132.339 38.588 131.745 38.126 131.745 36.652C131.151 37.906 129.831 38.764 127.763 38.764ZM125.431 35.618C125.431 37.026 126.531 37.708 127.983 37.708C130.381 37.708 131.723 36.41 131.723 34.43V32.67L127.675 33.528C126.267 33.814 125.431 34.276 125.431 35.618ZM137.3 43.01C136.794 43.01 136.288 42.922 135.826 42.768L135.87 41.558C136.266 41.69 136.706 41.822 137.168 41.822C138.026 41.822 138.356 41.206 139.214 38.874L134.814 27.566H136.178L138.972 35.134C139.214 35.772 139.522 36.652 139.808 37.488C140.138 36.498 140.358 35.86 140.622 35.134L143.328 27.566H144.67L140.028 40.106C139.258 42.196 138.664 43.01 137.3 43.01ZM150.806 38.764C149.31 38.764 148.034 38.324 147.132 37.356C146.164 36.366 145.68 34.936 145.68 33.044C145.68 31.24 146.208 29.722 147.198 28.71C148.122 27.764 149.376 27.324 150.74 27.324C152.368 27.324 153.776 28.028 154.656 29.304C155.36 30.316 155.712 31.812 155.668 33.264H147.044C147.066 36.52 148.628 37.708 150.85 37.708C152.962 37.708 154.062 36.63 154.37 34.914L155.58 35.046C155.14 37.356 153.424 38.764 150.806 38.764ZM147.066 32.23H154.37C154.304 31.372 154.018 30.426 153.6 29.788C152.918 28.776 151.906 28.38 150.718 28.38C149.596 28.38 148.672 28.754 148.1 29.436C147.484 30.14 147.154 31.13 147.066 32.23ZM158.2 38.5V27.566H159.476V29.898C159.828 28.38 161.082 27.478 162.732 27.302C162.974 27.28 163.326 27.28 163.59 27.28L163.546 28.512C163.348 28.49 163.15 28.49 162.908 28.49C160.928 28.49 159.476 29.48 159.476 33.154V38.5H158.2ZM174.588 42.922C172.146 42.922 170.188 41.8 170.056 39.292L171.31 39.204C171.464 41.272 172.718 41.888 174.742 41.888C177.096 41.888 178.306 40.634 178.306 38.478V36.124C177.58 37.532 176.304 38.412 174.478 38.412C171.64 38.412 169.528 36.388 169.528 32.89C169.528 29.348 171.728 27.324 174.478 27.324C176.348 27.324 177.602 28.182 178.306 29.458V27.566H179.582V38.434C179.582 41.338 177.668 42.922 174.588 42.922ZM170.914 32.89C170.914 35.706 172.234 37.334 174.61 37.334C175.776 37.334 176.656 36.96 177.272 36.3C178.02 35.486 178.35 34.232 178.35 32.758C178.35 29.612 176.854 28.38 174.654 28.38C173.422 28.38 172.498 28.798 171.86 29.568C171.222 30.338 170.914 31.46 170.914 32.89ZM185.813 38.764C183.701 38.764 182.161 37.598 182.161 35.684C182.161 33.616 183.745 32.868 185.571 32.516L189.773 31.702C189.773 30.536 189.751 29.656 189.157 29.084C188.695 28.622 187.925 28.38 186.869 28.38C184.757 28.38 183.789 29.106 183.789 31.108L182.535 30.932C182.535 29.788 182.931 28.798 183.723 28.182C184.515 27.566 185.659 27.324 186.913 27.324C189.575 27.324 191.005 28.446 191.005 30.954V36.718C191.005 37.312 191.093 37.532 191.687 37.532C191.973 37.532 192.215 37.488 192.523 37.422L192.545 38.478C192.171 38.544 191.819 38.588 191.489 38.588C190.389 38.588 189.795 38.126 189.795 36.652C189.201 37.906 187.881 38.764 185.813 38.764ZM183.481 35.618C183.481 37.026 184.581 37.708 186.033 37.708C188.431 37.708 189.773 36.41 189.773 34.43V32.67L185.725 33.528C184.317 33.814 183.481 34.276 183.481 35.618ZM194.401 38.5V27.566H195.677V29.546C195.831 29.106 196.051 28.71 196.447 28.336C197.041 27.764 197.943 27.324 199.263 27.324C201.067 27.324 202.299 28.248 202.717 29.854C202.915 29.238 203.223 28.754 203.685 28.314C204.279 27.764 205.137 27.324 206.435 27.324C208.943 27.324 210.175 28.754 210.175 31.57V38.5H208.855V32.032C208.855 31.02 208.855 29.942 208.195 29.216C207.623 28.556 206.809 28.424 206.039 28.424C205.379 28.424 204.631 28.6 204.037 29.128C203.421 29.678 202.915 30.558 202.915 32.34V38.5H201.617V32.098C201.617 31.042 201.617 29.964 200.957 29.216C200.385 28.6 199.571 28.424 198.801 28.424C198.009 28.424 197.283 28.688 196.799 29.128C196.161 29.678 195.677 30.58 195.677 32.362V38.5H194.401ZM217.73 38.764C216.234 38.764 214.958 38.324 214.056 37.356C213.088 36.366 212.604 34.936 212.604 33.044C212.604 31.24 213.132 29.722 214.122 28.71C215.046 27.764 216.3 27.324 217.664 27.324C219.292 27.324 220.7 28.028 221.58 29.304C222.284 30.316 222.636 31.812 222.592 33.264H213.968C213.99 36.52 215.552 37.708 217.774 37.708C219.886 37.708 220.986 36.63 221.294 34.914L222.504 35.046C222.064 37.356 220.348 38.764 217.73 38.764ZM213.99 32.23H221.294C221.228 31.372 220.942 30.426 220.524 29.788C219.842 28.776 218.83 28.38 217.642 28.38C216.52 28.38 215.596 28.754 215.024 29.436C214.408 30.14 214.078 31.13 213.99 32.23ZM234.786 38.742C231.97 38.742 229.77 36.762 229.77 33.044C229.77 29.348 232.102 27.324 234.786 27.324C236.634 27.324 237.91 28.138 238.614 29.392V23.1H239.912V38.5H238.614V36.454C237.888 37.862 236.612 38.742 234.786 38.742ZM231.178 33.044C231.178 36.036 232.52 37.686 234.94 37.686C236.04 37.686 236.898 37.356 237.536 36.718C238.284 35.926 238.658 34.694 238.658 32.956C238.658 30.052 237.426 28.38 234.984 28.38C233.796 28.38 232.872 28.776 232.234 29.502C231.53 30.338 231.178 31.526 231.178 33.044ZM247.593 38.764C246.097 38.764 244.821 38.324 243.919 37.356C242.951 36.366 242.467 34.936 242.467 33.044C242.467 31.24 242.995 29.722 243.985 28.71C244.909 27.764 246.163 27.324 247.527 27.324C249.155 27.324 250.563 28.028 251.443 29.304C252.147 30.316 252.499 31.812 252.455 33.264H243.831C243.853 36.52 245.415 37.708 247.637 37.708C249.749 37.708 250.849 36.63 251.157 34.914L252.367 35.046C251.927 37.356 250.211 38.764 247.593 38.764ZM243.853 32.23H251.157C251.091 31.372 250.805 30.426 250.387 29.788C249.705 28.776 248.693 28.38 247.505 28.38C246.383 28.38 245.459 28.754 244.887 29.436C244.271 30.14 243.941 31.13 243.853 32.23ZM257.762 38.5L253.45 27.566H254.814L257.168 33.704C257.454 34.43 257.894 35.596 258.422 37.18C258.84 35.992 259.346 34.694 259.72 33.704L262.052 27.566H263.416L259.082 38.5H257.762ZM269.529 38.764C268.033 38.764 266.757 38.324 265.855 37.356C264.887 36.366 264.403 34.936 264.403 33.044C264.403 31.24 264.931 29.722 265.921 28.71C266.845 27.764 268.099 27.324 269.463 27.324C271.091 27.324 272.499 28.028 273.379 29.304C274.083 30.316 274.435 31.812 274.391 33.264H265.767C265.789 36.52 267.351 37.708 269.573 37.708C271.685 37.708 272.785 36.63 273.093 34.914L274.303 35.046C273.863 37.356 272.147 38.764 269.529 38.764ZM265.789 32.23H273.093C273.027 31.372 272.741 30.426 272.323 29.788C271.641 28.776 270.629 28.38 269.441 28.38C268.319 28.38 267.395 28.754 266.823 29.436C266.207 30.14 265.877 31.13 265.789 32.23ZM276.922 38.5V23.1H278.198V38.5H276.922ZM286.011 38.742C282.667 38.742 280.731 36.564 280.731 33.044C280.731 29.788 282.711 27.324 286.011 27.324C289.355 27.324 291.291 29.656 291.291 33.044C291.291 36.388 289.267 38.742 286.011 38.742ZM282.095 33.044C282.095 34.562 282.447 35.794 283.173 36.63C283.811 37.334 284.735 37.686 285.989 37.686C287.265 37.686 288.211 37.312 288.849 36.586C289.575 35.75 289.927 34.54 289.927 33.044C289.927 31.482 289.553 30.25 288.783 29.436C288.167 28.754 287.265 28.38 286.055 28.38C284.779 28.38 283.833 28.776 283.195 29.48C282.447 30.316 282.095 31.526 282.095 33.044ZM293.831 42.9V27.566H295.107V29.656C295.855 28.226 297.197 27.324 299.001 27.324C301.795 27.324 303.929 29.326 303.929 33.044C303.929 36.498 301.883 38.764 299.001 38.764C297.285 38.764 295.943 38.06 295.107 36.652V42.9H293.831ZM295.041 33.088C295.041 35.992 296.383 37.708 298.737 37.708C299.991 37.708 300.915 37.29 301.487 36.586C302.213 35.75 302.521 34.584 302.521 33.044C302.521 29.942 301.245 28.38 298.737 28.38C297.703 28.38 296.757 28.71 296.097 29.502C295.459 30.25 295.041 31.416 295.041 33.088ZM310.951 38.764C309.455 38.764 308.179 38.324 307.277 37.356C306.309 36.366 305.825 34.936 305.825 33.044C305.825 31.24 306.353 29.722 307.343 28.71C308.267 27.764 309.521 27.324 310.885 27.324C312.513 27.324 313.921 28.028 314.801 29.304C315.505 30.316 315.857 31.812 315.813 33.264H307.189C307.211 36.52 308.773 37.708 310.995 37.708C313.107 37.708 314.207 36.63 314.515 34.914L315.725 35.046C315.285 37.356 313.569 38.764 310.951 38.764ZM307.211 32.23H314.515C314.449 31.372 314.163 30.426 313.745 29.788C313.063 28.776 312.051 28.38 310.863 28.38C309.741 28.38 308.817 28.754 308.245 29.436C307.629 30.14 307.299 31.13 307.211 32.23ZM318.344 38.5V27.566H319.62V29.898C319.972 28.38 321.226 27.478 322.876 27.302C323.118 27.28 323.47 27.28 323.734 27.28L323.69 28.512C323.492 28.49 323.294 28.49 323.052 28.49C321.072 28.49 319.62 29.48 319.62 33.154V38.5H318.344Z" fill="black"/>
<defs>
<clipPath id="clip0_4963_43">
<rect width="24" height="24" fill="white" transform="translate(8 20)"/>
</clipPath>
</defs>
</svg>
