<svg width="96" height="96" viewBox="0 0 96 96" fill="none" xmlns="http://www.w3.org/2000/svg">
<path d="M83.9999 23.25H44.4869C43.0829 23.25 41.7659 22.704 40.7729 21.711L32.2889 13.227C31.0139 11.952 29.3189 11.25 27.5159 11.25H12.0029C8.27993 11.25 5.25293 14.277 5.25293 18V72C5.25293 75.723 8.27993 78.75 12.0029 78.75H84.0029C87.7259 78.75 90.7529 75.723 90.7529 72V30C90.7529 26.277 87.7229 23.25 83.9999 23.25ZM89.2499 72C89.2499 74.895 86.8949 77.25 83.9999 77.25H11.9999C9.10493 77.25 6.74993 74.895 6.74993 72V18C6.74993 15.105 9.10493 12.75 11.9999 12.75H27.5129C28.9169 12.75 30.2339 13.296 31.2269 14.289L39.7109 22.773C40.9859 24.048 42.6809 24.75 44.4839 24.75H83.9969C86.8919 24.75 89.2469 27.105 89.2469 30L89.2499 72ZM47.9999 51C52.1429 51 55.4999 47.643 55.4999 43.5C55.4999 39.357 52.1429 36 47.9999 36C43.8569 36 40.4999 39.357 40.4999 43.5C40.4999 47.643 43.8569 51 47.9999 51ZM47.9999 37.5C51.3089 37.5 53.9999 40.191 53.9999 43.5C53.9999 46.809 51.3089 49.5 47.9999 49.5C44.6909 49.5 41.9999 46.809 41.9999 43.5C41.9999 40.191 44.6909 37.5 47.9999 37.5ZM60.7079 63H59.2919C59.2919 59.004 55.7579 54.708 47.9999 54.708C40.2419 54.708 36.7079 59.007 36.7079 63H35.2919C35.2919 58.323 39.2699 53.292 47.9999 53.292C56.7299 53.292 60.7079 58.323 60.7079 63ZM83.9999 12.75H38.9999V11.25H83.9999C87.7229 11.25 90.7499 14.277 90.7499 18H89.2499C89.2499 15.105 86.8949 12.75 83.9999 12.75Z" fill="#0263F5"/>
</svg>
