<svg width="97" height="96" viewBox="0 0 97 96" fill="none" xmlns="http://www.w3.org/2000/svg">
<g clip-path="url(#clip0_11543_6230)">
<rect x="0.961792" width="96" height="96" rx="20.129" fill="#F2F2F2"/>
<path d="M11.0959 26.9955L12.3131 14.9834C12.418 13.9486 13.2892 13.1611 14.3294 13.1611H36.034C37.1301 13.1611 38.0275 14.0326 38.0597 15.1282L38.7115 37.3186C38.7282 37.8862 38.9823 38.4209 39.4119 38.7923L74.0884 68.7653C74.2264 68.8846 74.3477 69.0219 74.4489 69.1737L77.2662 73.3955C77.4884 73.7286 77.607 74.12 77.607 74.5204V79.5395C77.607 79.9373 77.3639 80.2946 76.9939 80.4407C76.624 80.5867 76.3808 80.944 76.3808 81.3418V86.2278C76.3808 87.2178 75.6656 88.0629 74.6892 88.2265L70.0485 89.0042C69.9378 89.0228 69.8258 89.0321 69.7136 89.0321H58.2911C57.6391 89.0321 57.027 88.7184 56.6462 88.1892L51.5888 81.1611C51.3639 80.8486 51.0547 80.6066 50.6973 80.4635L35.0033 74.1786C34.564 74.0026 34.2001 73.6785 33.9747 73.2624L23.1647 53.3028C23.0042 53.0064 22.9201 52.6747 22.9201 52.3377V49.965C22.9201 49.4847 22.7495 49.02 22.4387 48.6537L15.1863 40.1078C14.8755 39.7416 14.7049 39.2768 14.7049 38.7965V34.1888C14.7049 33.8112 14.5994 33.4412 14.4004 33.1204L11.3901 28.2682C11.1543 27.888 11.0508 27.4405 11.0959 26.9955Z" fill="#9A9FFE"/>
<circle cx="50.9283" cy="48.774" r="11.6129" fill="#010668"/>
<g clip-path="url(#clip1_11543_6230)">
<path d="M53.9388 48.3438H47.9173C47.4423 48.3438 47.0571 48.7289 47.0571 49.204V52.2147C47.0571 52.6898 47.4423 53.0749 47.9173 53.0749H53.9388C54.4139 53.0749 54.7991 52.6898 54.7991 52.2147V49.204C54.7991 48.7289 54.4139 48.3438 53.9388 48.3438Z" stroke="#F4F5FF" stroke-width="1.54839" stroke-linecap="round" stroke-linejoin="round"/>
<path d="M48.7775 48.3436V46.6232C48.7775 46.0528 49.004 45.5058 49.4073 45.1025C49.8106 44.6992 50.3576 44.4727 50.928 44.4727C51.4984 44.4727 52.0454 44.6992 52.4487 45.1025C52.852 45.5058 53.0785 46.0528 53.0785 46.6232V48.3436" stroke="#F4F5FF" stroke-width="1.54839" stroke-linecap="round" stroke-linejoin="round"/>
</g>
<path d="M51.342 25.2317C48.6524 25.2317 46.8826 23.5734 46.8826 20.187C46.8826 17.0515 48.6524 15.1424 51.342 15.1424C53.3347 15.1424 54.8537 16.2015 55.3554 18.2221L53.279 18.6263C53.056 17.3999 52.4289 16.7728 51.3559 16.7728C50.5895 16.7728 50.0181 16.9819 49.6558 17.4835C49.2516 18.041 49.0705 18.9328 49.0705 20.187C49.0705 21.4691 49.2516 22.2774 49.6418 22.8208C50.0181 23.3365 50.5616 23.5734 51.342 23.5734C52.4289 23.5734 53.056 22.9045 53.3208 21.8732L55.4111 22.4306C54.7562 24.075 53.4044 25.2317 51.342 25.2317ZM62.1256 25.2317C59.4361 25.2317 57.6663 23.5734 57.6663 20.187C57.6663 17.0515 59.4361 15.1424 62.1256 15.1424C64.1184 15.1424 65.6374 16.2015 66.1391 18.2221L64.0627 18.6263C63.8397 17.3999 63.2126 16.7728 62.1396 16.7728C61.3731 16.7728 60.8018 16.9819 60.4394 17.4835C60.0353 18.041 59.8542 18.9328 59.8542 20.187C59.8542 21.4691 60.0353 22.2774 60.4255 22.8208C60.8018 23.3365 61.3453 23.5734 62.1256 23.5734C63.2126 23.5734 63.8397 22.9045 64.1045 21.8732L66.1948 22.4306C65.5398 24.075 64.1881 25.2317 62.1256 25.2317ZM68.9656 25.0645V15.3096H72.3519C74.052 15.3096 76.3096 15.5883 76.3096 18.3894C76.3096 21.1904 74.0938 21.5109 72.3519 21.5109H71.0698V25.0645H68.9656ZM71.0698 19.8665H72.2961C73.2577 19.8665 74.1914 19.7968 74.1914 18.3894C74.1914 16.9819 73.2577 16.954 72.3101 16.954H71.0698V19.8665ZM77.8915 25.0645L81.1245 15.3096H83.4378L86.6569 25.0645H84.4829L83.814 22.779H80.7204L80.0654 25.0645H77.8915ZM81.2081 21.0371H83.3124L82.7549 19.1279C82.6435 18.7238 82.4066 17.9016 82.2672 17.2885H82.2254C82.0721 17.9434 81.9328 18.5148 81.7516 19.1279L81.2081 21.0371Z" fill="#010668"/>
</g>
<defs>
<clipPath id="clip0_11543_6230">
<rect width="96" height="96" fill="white" transform="translate(0.961792)"/>
</clipPath>
<clipPath id="clip1_11543_6230">
<rect width="10.3226" height="10.3226" fill="white" transform="translate(45.7667 43.6123)"/>
</clipPath>
</defs>
</svg>
