<svg width="97" height="96" viewBox="0 0 97 96" fill="none" xmlns="http://www.w3.org/2000/svg">
<g clip-path="url(#clip0_11543_6321)">
<rect x="0.0380859" width="96" height="96" rx="20.129" fill="#F2F2F2"/>
<path d="M22.5293 77.1611V66.5702H29.5668V68.4096H24.7312V70.9738H29.4832V72.8133H24.7312V77.1611H22.5293ZM33.5272 77.1611V66.5702H40.6482V68.4096H35.729V70.8066H40.5506V72.646H35.729V75.3216H40.7876V77.1611H33.5272ZM44.316 77.1611V66.5702H48.204C50.6984 66.5702 52.2731 67.8801 52.2731 69.8868C52.2731 71.2943 51.5067 72.3673 50.1549 72.869L52.51 77.1611H50.0295L47.9392 73.1895H46.5178V77.1611H44.316ZM46.5178 71.4058H48.19C49.3327 71.4058 50.0295 70.8484 50.0295 69.8868C50.0295 68.9253 49.3327 68.3539 48.19 68.3539H46.5178V71.4058ZM55.5785 77.1611V66.5702H59.3829C62.0864 66.5702 63.6193 67.8662 63.6193 70.0262C63.6193 72.1862 62.1004 73.4822 59.3829 73.4822H57.7804V77.1611H55.5785ZM57.7804 71.6566H59.4108C60.6511 71.6566 61.3618 71.0992 61.3618 70.0262C61.3618 68.9531 60.6511 68.3818 59.4108 68.3818H57.7804V71.6566ZM65.6427 77.1611L68.388 66.5702H72.3038L75.0491 77.1611H72.8055L72.1645 74.5134H68.5273L67.8863 77.1611H65.6427ZM68.9733 72.66H71.7186L70.3389 66.9464L68.9733 72.66Z" fill="#9A9FFE"/>
<rect x="25.9736" y="46.4517" width="11.6129" height="8.51613" rx="2.02657" fill="#9A9FFE"/>
<rect x="58.4897" y="42.5806" width="11.6129" height="12.3871" rx="2.02657" fill="#9A9FFE"/>
<rect x="42.2317" y="34.8389" width="11.6129" height="20.129" rx="2.02657" fill="#9A9FFE"/>
<circle cx="31.7801" cy="35.9998" r="5.80645" fill="#9A9FFE"/>
<circle cx="48.0381" cy="24.387" r="5.80645" fill="#9A9FFE"/>
<circle cx="64.2962" cy="32.1292" r="5.80645" fill="#9A9FFE"/>
</g>
<defs>
<clipPath id="clip0_11543_6321">
<rect width="96" height="96" fill="white" transform="translate(0.0380859)"/>
</clipPath>
</defs>
</svg>
