<svg width="96" height="96" viewBox="0 0 96 96" fill="none" xmlns="http://www.w3.org/2000/svg">
<path d="M54 80.25H69V81.75H54C51.933 81.75 50.25 80.067 50.25 78V54C50.25 51.933 51.933 50.25 54 50.25H78C80.067 50.25 81.75 51.933 81.75 54V69H80.25V54C80.25 52.758 79.242 51.75 78 51.75H54C52.758 51.75 51.75 52.758 51.75 54V78C51.75 79.242 52.758 80.25 54 80.25ZM90.651 77.799C90.567 78.768 89.901 79.548 88.956 79.785L82.056 81.51C81.789 81.576 81.579 81.786 81.51 82.056L79.785 88.956C79.548 89.901 78.768 90.567 77.799 90.651C77.73 90.657 77.661 90.66 77.595 90.66C76.707 90.66 75.915 90.153 75.546 89.322L66.9 69.867C66.519 69.009 66.702 68.025 67.365 67.362C68.031 66.696 69.015 66.516 69.87 66.897L89.325 75.543C90.216 75.939 90.738 76.824 90.654 77.796L90.651 77.799ZM89.157 77.667C89.169 77.541 89.169 77.118 88.716 76.917L69.261 68.271C68.829 68.079 68.511 68.337 68.427 68.427C68.34 68.511 68.076 68.826 68.271 69.261L76.917 88.716C77.118 89.169 77.541 89.175 77.667 89.157C77.793 89.148 78.207 89.073 78.327 88.593L80.052 81.693C80.253 80.886 80.883 80.256 81.69 80.055L88.59 78.33C89.07 78.21 89.145 77.793 89.154 77.67L89.157 77.667ZM14.25 18V21H15.75V18C15.75 16.758 16.758 15.75 18 15.75H21V14.25H18C15.933 14.25 14.25 15.933 14.25 18ZM15.75 25.5H14.25V34.5H15.75V25.5ZM15.75 42V39H14.25V42C14.25 44.067 15.933 45.75 18 45.75H21V44.25H18C16.758 44.25 15.75 43.242 15.75 42ZM44.25 42C44.25 43.242 43.242 44.25 42 44.25H39V45.75H42C44.067 45.75 45.75 44.067 45.75 42V39H44.25V42ZM44.25 34.5H45.75V25.5H44.25V34.5ZM42 14.25H39V15.75H42C43.242 15.75 44.25 16.758 44.25 18V21H45.75V18C45.75 15.933 44.067 14.25 42 14.25ZM27 14.25H25.5V15.75H34.5V14.25H27ZM25.5 45.75H34.5V44.25H25.5V45.75ZM14.25 54V57H15.75V54C15.75 52.758 16.758 51.75 18 51.75H21V50.25H18C15.933 50.25 14.25 51.933 14.25 54ZM15.75 61.5H14.25V70.5H15.75V61.5ZM15.75 78V75H14.25V78C14.25 80.067 15.933 81.75 18 81.75H21V80.25H18C16.758 80.25 15.75 79.242 15.75 78ZM44.25 78C44.25 79.242 43.242 80.25 42 80.25H39V81.75H42C44.067 81.75 45.75 80.067 45.75 78V75H44.25V78ZM44.25 70.5H45.75V61.5H44.25V70.5ZM42 50.25H39V51.75H42C43.242 51.75 44.25 52.758 44.25 54V57H45.75V54C45.75 51.933 44.067 50.25 42 50.25ZM27 50.25H25.5V51.75H34.5V50.25H27ZM25.5 81.75H34.5V80.25H25.5V81.75ZM51.75 18C51.75 16.758 52.758 15.75 54 15.75H57V14.25H54C51.933 14.25 50.25 15.933 50.25 18V21H51.75V18ZM51.75 25.5H50.25V34.5H51.75V25.5ZM54 45.75H57V44.25H54C52.758 44.25 51.75 43.242 51.75 42V39H50.25V42C50.25 44.067 51.933 45.75 54 45.75ZM81.75 42V39H80.25V42C80.25 43.242 79.242 44.25 78 44.25H75V45.75H78C80.067 45.75 81.75 44.067 81.75 42ZM80.25 34.5H81.75V25.5H80.25V34.5ZM80.25 18V21H81.75V18C81.75 15.933 80.067 14.25 78 14.25H75V15.75H78C79.242 15.75 80.25 16.758 80.25 18ZM69 15.75H70.5V14.25H61.5V15.75H69ZM70.5 44.25H61.5V45.75H70.5V44.25Z" fill="#0263F5"/>
</svg>
