<svg width="64" height="64" viewBox="0 0 64 64" fill="none" xmlns="http://www.w3.org/2000/svg">
<path d="M31.5 14.2672H32.5V18.2672H31.5V14.2672ZM46 32.7672H50V31.7672H46V32.7672ZM14 32.7672H18V31.7672H14V32.7672ZM45.082 19.8932L44.374 19.1852L41.546 22.0132L42.254 22.7212L45.082 19.8932ZM18.918 44.6412L19.626 45.3492L22.454 42.5212L21.746 41.8132L18.918 44.6412ZM21.748 22.7212L22.456 22.0132L19.628 19.1852L18.92 19.8932L21.748 22.7212ZM60.5 32.2672C60.5 34.7492 58.482 36.7672 56 36.7672C53.518 36.7672 51.5 34.7492 51.5 32.2672C51.5 29.7852 53.518 27.7672 56 27.7672C58.482 27.7672 60.5 29.7852 60.5 32.2672ZM59.5 32.2672C59.5 30.3372 57.93 28.7672 56 28.7672C54.07 28.7672 52.5 30.3372 52.5 32.2672C52.5 34.1972 54.07 35.7672 56 35.7672C57.93 35.7672 59.5 34.1972 59.5 32.2672ZM8 36.7672C5.518 36.7672 3.5 34.7492 3.5 32.2672C3.5 29.7852 5.518 27.7672 8 27.7672C10.482 27.7672 12.5 29.7852 12.5 32.2672C12.5 34.7492 10.482 36.7672 8 36.7672ZM11.5 32.2672C11.5 30.3372 9.93 28.7672 8 28.7672C6.07 28.7672 4.5 30.3372 4.5 32.2672C4.5 34.1972 6.07 35.7672 8 35.7672C9.93 35.7672 11.5 34.1972 11.5 32.2672ZM27.5 8.26721C27.5 5.78521 29.518 3.76721 32 3.76721C34.482 3.76721 36.5 5.78521 36.5 8.26721C36.5 10.7492 34.482 12.7672 32 12.7672C29.518 12.7672 27.5 10.7492 27.5 8.26721ZM28.5 8.26721C28.5 10.1972 30.07 11.7672 32 11.7672C33.93 11.7672 35.5 10.1972 35.5 8.26721C35.5 6.33721 33.93 4.76721 32 4.76721C30.07 4.76721 28.5 6.33721 28.5 8.26721ZM45.79 18.4772C44.036 16.7232 44.036 13.8672 45.79 12.1132C47.544 10.3592 50.4 10.3592 52.154 12.1132C53.908 13.8672 53.908 16.7232 52.154 18.4772C51.278 19.3532 50.124 19.7932 48.972 19.7932C47.82 19.7932 46.668 19.3552 45.79 18.4772ZM46.496 17.7712C47.862 19.1372 50.08 19.1372 51.446 17.7712C52.812 16.4052 52.81 14.1872 51.446 12.8212C50.764 12.1392 49.868 11.7972 48.972 11.7972C48.076 11.7972 47.18 12.1372 46.498 12.8212C45.134 14.1852 45.134 16.4052 46.498 17.7712H46.496ZM18.21 46.0572C19.964 47.8112 19.964 50.6672 18.21 52.4212C17.334 53.2972 16.18 53.7372 15.028 53.7372C13.876 53.7372 12.724 53.2992 11.846 52.4212C10.092 50.6672 10.092 47.8112 11.846 46.0572C13.6 44.3032 16.456 44.3032 18.21 46.0572ZM17.504 46.7632C16.822 46.0812 15.926 45.7392 15.03 45.7392C14.134 45.7392 13.238 46.0792 12.556 46.7632C11.192 48.1272 11.192 50.3472 12.556 51.7132C13.92 53.0792 16.14 53.0792 17.506 51.7132C18.872 50.3472 18.87 48.1292 17.506 46.7632H17.504ZM11.848 18.4772C10.094 16.7232 10.094 13.8672 11.848 12.1132C13.602 10.3592 16.458 10.3592 18.212 12.1132C19.966 13.8672 19.966 16.7232 18.212 18.4772C17.336 19.3532 16.182 19.7932 15.03 19.7932C13.878 19.7932 12.726 19.3552 11.848 18.4772ZM12.554 17.7712C13.92 19.1372 16.138 19.1372 17.504 17.7712C18.87 16.4052 18.868 14.1872 17.504 12.8212C16.822 12.1392 15.926 11.7972 15.03 11.7972C14.134 11.7972 13.238 12.1372 12.556 12.8212C11.192 14.1852 11.19 16.4052 12.554 17.7712ZM40.822 40.3812L52.354 51.9132L51.646 52.6212L40.114 41.0892C37.976 43.0572 35.132 44.2672 32 44.2672C25.372 44.2672 20 38.8952 20 32.2672C20 25.6392 25.372 20.2672 32 20.2672C38.628 20.2672 44 25.6392 44 32.2672C44 35.4012 42.788 38.2452 40.822 40.3812ZM32 43.2672C38.066 43.2672 43 38.3332 43 32.2672C43 26.2012 38.066 21.2672 32 21.2672C25.934 21.2672 21 26.2012 21 32.2672C21 38.3332 25.934 43.2672 32 43.2672ZM31.5 34.2672H32.5V26.2672H31.5V34.2672ZM31.5 38.2672H32.5V37.2672H31.5V38.2672Z" fill="#7379FD"/>
</svg>
