<svg width="64" height="64" viewBox="0 0 64 64" fill="none" xmlns="http://www.w3.org/2000/svg">
<path d="M24.5 18.2672H23.5V14.2672C23.5 9.58121 27.314 5.76721 32 5.76721C36.686 5.76721 40.5 9.58121 40.5 14.2672V18.2672H39.5V14.2672C39.5 10.1312 36.136 6.76721 32 6.76721C27.864 6.76721 24.5 10.1312 24.5 14.2672V18.2672ZM32 34.2672C30.896 34.2672 30 35.1632 30 36.2672C30 37.1952 30.644 37.9392 31.5 38.1672V42.2672H32.5V38.1672C33.356 37.9412 34 37.1952 34 36.2672C34 35.1632 33.104 34.2672 32 34.2672ZM48.662 41.5972C48.704 45.9452 46.536 49.9332 42.866 52.2652L33.348 58.3112C32.94 58.5692 32.474 58.6992 32.008 58.6992C31.536 58.6992 31.064 58.5672 30.654 58.3012L21.23 52.2292C17.642 49.9172 15.5 45.9892 15.5 41.7212V25.6512C15.5 24.6132 16.152 23.6732 17.124 23.3112L27.612 19.3792C30.442 18.3172 33.56 18.3172 36.392 19.3792L46.892 23.3172C47.852 23.6772 48.504 24.6092 48.514 25.6332L48.664 41.5952L48.662 41.5972ZM47.662 41.6052L47.512 25.6432C47.506 25.0272 47.116 24.4692 46.538 24.2532L36.038 20.3152C34.736 19.8272 33.368 19.5832 32 19.5832C30.632 19.5832 29.264 19.8272 27.962 20.3152L17.474 24.2492C16.89 24.4672 16.5 25.0312 16.5 25.6532V41.7232C16.5 45.6492 18.47 49.2652 21.772 51.3912L31.196 57.4632C31.688 57.7792 32.32 57.7792 32.814 57.4672L42.33 51.4212C45.706 49.2752 47.702 45.6072 47.664 41.6072L47.662 41.6052Z" fill="#7379FD"/>
</svg>
