<svg width="97" height="96" viewBox="0 0 97 96" fill="none" xmlns="http://www.w3.org/2000/svg">
<g clip-path="url(#clip0_11543_6240)">
<rect x="0.961792" width="96" height="96" rx="48" fill="#F2F2F2"/>
<path d="M48.9615 7.7417L52.4479 9.7546V13.7804L48.9615 15.7933L45.475 13.7804V9.7546L48.9615 7.7417Z" fill="#010668"/>
<path d="M85.1941 43.9741L88.6806 45.987V50.0128L85.1941 52.0257L81.7077 50.0128V45.987L85.1941 43.9741Z" fill="#010668"/>
<path d="M80.1618 25.8579L83.6482 27.8708V31.8966L80.1618 33.9095L76.6753 31.8966V27.8708L80.1618 25.8579Z" fill="#010668"/>
<path d="M17.7618 25.8579L21.2482 27.8708V31.8966L17.7618 33.9095L14.2753 31.8966V27.8708L17.7618 25.8579Z" fill="#010668"/>
<path d="M67.0782 12.7744L70.5646 14.7873V18.8131L67.0782 20.826L63.5917 18.8131V14.7873L67.0782 12.7744Z" fill="#010668"/>
<path d="M30.8456 12.7744L34.3321 14.7873V18.8131L30.8456 20.826L27.3592 18.8131V14.7873L30.8456 12.7744Z" fill="#010668"/>
<path d="M30.8456 75.1743L34.3321 77.1872V81.213L30.8456 83.2259L27.3592 81.213V77.1872L30.8456 75.1743Z" fill="#010668"/>
<path d="M67.0782 75.1743L70.5646 77.1872V81.213L67.0782 83.2259L63.5917 81.213V77.1872L67.0782 75.1743Z" fill="#010668"/>
<path d="M16.7554 62.0903L20.2419 64.1032V68.129L16.7554 70.1419L13.269 68.129V64.1032L16.7554 62.0903Z" fill="#010668"/>
<path d="M80.1618 62.0903L83.6482 64.1032V68.129L80.1618 70.1419L76.6753 68.129V64.1032L80.1618 62.0903Z" fill="#010668"/>
<path d="M12.7295 43.9741L16.216 45.987V50.0128L12.7295 52.0257L9.24309 50.0128V45.987L12.7295 43.9741Z" fill="#010668"/>
<path d="M48.9615 80.2065L52.4479 82.2194V86.2453L48.9615 88.2582L45.475 86.2453V82.2194L48.9615 80.2065Z" fill="#010668"/>
<path d="M32.9834 52.3284C30.6004 52.3284 28.8027 50.7676 28.8027 47.2837C28.8027 44.0367 30.6562 42.2391 33.3039 42.2391C35.3942 42.2391 36.8017 43.326 37.2755 45.2491L35.227 45.6393C34.9762 44.4827 34.4048 43.8695 33.29 43.8695C32.4956 43.8695 31.9243 44.1064 31.548 44.6499C31.1857 45.1655 30.9906 46.0156 30.9906 47.2837C30.9906 48.5936 31.1996 49.4019 31.5759 49.9175C31.9522 50.4471 32.4956 50.67 33.29 50.67C34.5302 50.67 35.3245 49.9454 35.4778 48.5379H33.0809V46.796H37.3731V52.1611H35.6869L35.6172 51.0184C35.1434 51.8267 34.1818 52.3284 32.9834 52.3284ZM40.3191 52.1611V42.4063H43.5939C46.6876 42.4063 48.2484 44.3433 48.2484 47.2837C48.2484 50.3356 46.5901 52.1611 43.5939 52.1611H40.3191ZM42.4234 50.5167H43.5103C44.4022 50.5167 45.0432 50.252 45.4474 49.7503C45.8933 49.1929 46.0605 48.3428 46.0605 47.2837C46.0605 46.1828 45.949 45.4164 45.5031 44.8032C45.1129 44.2597 44.4161 44.0507 43.5103 44.0507H42.4234V50.5167ZM51.0911 52.1611V42.4063H54.4774C56.1776 42.4063 58.4351 42.685 58.4351 45.486C58.4351 48.2871 56.2194 48.6076 54.4774 48.6076H53.1954V52.1611H51.0911ZM53.1954 46.9632H54.4217C55.3833 46.9632 56.3169 46.8935 56.3169 45.486C56.3169 44.0786 55.3833 44.0507 54.4356 44.0507H53.1954V46.9632ZM61.1367 52.1611V42.4063H64.7181C66.7527 42.4063 68.5643 42.8522 68.5643 45.3467C68.5643 46.5591 67.9372 47.3673 67.0174 47.7715C67.9511 48.1198 68.3274 48.8306 68.3274 49.8896C68.3274 50.8651 68.4249 51.4922 68.843 52.1193L68.829 52.1611H66.5715C66.3067 51.6455 66.237 51.2135 66.237 49.9872C66.237 48.9002 65.6796 48.4682 64.6484 48.4682H63.2409V52.1611H61.1367ZM63.2409 46.8238H64.5369C65.6239 46.8238 66.4879 46.6427 66.4879 45.4303C66.4879 44.19 65.6239 44.0507 64.5508 44.0507H63.2409V46.8238Z" fill="#010668"/>
</g>
<defs>
<clipPath id="clip0_11543_6240">
<rect width="96" height="96" fill="white" transform="translate(0.961792)"/>
</clipPath>
</defs>
</svg>
