<svg width="96" height="96" viewBox="0 0 96 96" fill="none" xmlns="http://www.w3.org/2000/svg">
<path d="M87 17.25H9C6.933 17.25 5.25 18.933 5.25 21V75C5.25 77.067 6.933 78.75 9 78.75H87C89.067 78.75 90.75 77.067 90.75 75V21C90.75 18.933 89.067 17.25 87 17.25ZM89.25 75C89.25 76.242 88.239 77.25 87 77.25H9C7.758 77.25 6.75 76.242 6.75 75V21C6.75 19.758 7.758 18.75 9 18.75H87C88.239 18.75 89.25 19.758 89.25 21V75ZM51 38.25H78V39.75H51V38.25ZM51 47.25H78V48.75H51V47.25ZM51 56.25H78V57.75H51V56.25ZM30 48C34.143 48 37.5 44.643 37.5 40.5C37.5 36.357 34.143 33 30 33C25.857 33 22.5 36.357 22.5 40.5C22.5 44.643 25.857 48 30 48ZM30 34.5C33.309 34.5 36 37.191 36 40.5C36 43.809 33.309 46.5 30 46.5C26.691 46.5 24 43.809 24 40.5C24 37.191 26.691 34.5 30 34.5ZM42.705 60H41.292C41.292 56.004 37.758 51.708 29.997 51.708C22.236 51.708 18.705 56.007 18.705 60H17.289C17.289 55.323 21.267 50.292 29.997 50.292C38.727 50.292 42.705 55.323 42.705 60Z" fill="#0263F5"/>
</svg>
