<svg width="96" height="96" viewBox="0 0 96 96" fill="none" xmlns="http://www.w3.org/2000/svg">
<path d="M48 77.25C44.277 77.25 41.25 80.277 41.25 84C41.25 87.723 44.277 90.75 48 90.75C51.723 90.75 54.75 87.723 54.75 84C54.75 80.277 51.723 77.25 48 77.25ZM48 89.25C45.105 89.25 42.75 86.895 42.75 84C42.75 81.105 45.105 78.75 48 78.75C50.895 78.75 53.25 81.105 53.25 84C53.25 86.895 50.895 89.25 48 89.25ZM18.75 48C18.75 44.277 15.723 41.25 12 41.25C8.277 41.25 5.25 44.277 5.25 48C5.25 51.723 8.277 54.75 12 54.75C15.723 54.75 18.75 51.723 18.75 48ZM12 53.25C9.105 53.25 6.75 50.895 6.75 48C6.75 45.105 9.105 42.75 12 42.75C14.895 42.75 17.25 45.105 17.25 48C17.25 50.895 14.895 53.25 12 53.25ZM84 41.25C80.277 41.25 77.25 44.277 77.25 48C77.25 51.723 80.277 54.75 84 54.75C87.723 54.75 90.75 51.723 90.75 48C90.75 44.277 87.723 41.25 84 41.25ZM84 53.25C81.105 53.25 78.75 50.895 78.75 48C78.75 45.105 81.105 42.75 84 42.75C86.895 42.75 89.25 45.105 89.25 48C89.25 50.895 86.895 53.25 84 53.25ZM48 5.25C44.277 5.25 41.25 8.277 41.25 12C41.25 15.723 44.277 18.75 48 18.75C51.723 18.75 54.75 15.723 54.75 12C54.75 8.277 51.723 5.25 48 5.25ZM48 17.25C45.105 17.25 42.75 14.895 42.75 12C42.75 9.105 45.105 6.75 48 6.75C50.895 6.75 53.25 9.105 53.25 12C53.25 14.895 50.895 17.25 48 17.25ZM17.772 68.685C15.141 71.316 15.141 75.6 17.772 78.231C19.086 79.545 20.817 80.205 22.545 80.205C24.273 80.205 26.001 79.548 27.318 78.231C28.587 76.962 29.289 75.267 29.289 73.458C29.289 71.649 28.59 69.957 27.318 68.685C24.777 66.144 20.313 66.144 17.772 68.685ZM26.256 77.169C24.207 79.218 20.88 79.218 18.831 77.169C16.782 75.12 16.785 71.793 18.831 69.744C19.854 68.721 21.198 68.208 22.542 68.208C23.886 68.208 25.23 68.718 26.253 69.744C28.299 71.79 28.302 75.12 26.256 77.169ZM68.685 68.685C67.416 69.954 66.714 71.649 66.714 73.458C66.714 75.267 67.413 76.959 68.685 78.231C69.999 79.545 71.73 80.205 73.458 80.205C75.186 80.205 76.914 79.548 78.231 78.231C80.862 75.6 80.862 71.316 78.231 68.685C75.69 66.144 71.226 66.144 68.685 68.685ZM77.169 77.169C75.12 79.218 71.793 79.218 69.744 77.169C67.695 75.12 67.698 71.793 69.744 69.744C70.767 68.721 72.111 68.208 73.455 68.208C74.799 68.208 76.143 68.718 77.166 69.744C79.212 71.79 79.215 75.12 77.169 77.169ZM73.455 29.286C75.264 29.286 76.956 28.587 78.228 27.315C80.859 24.684 80.859 20.4 78.228 17.769C75.687 15.228 71.223 15.228 68.682 17.769C67.413 19.038 66.711 20.733 66.711 22.542C66.711 24.351 67.41 26.043 68.682 27.315C69.954 28.587 71.646 29.286 73.455 29.286ZM69.744 18.831C70.731 17.844 72.048 17.301 73.455 17.301C74.862 17.301 76.179 17.844 77.166 18.831C79.212 20.877 79.212 24.207 77.166 26.256C75.189 28.23 71.712 28.23 69.741 26.256C67.695 24.21 67.698 20.88 69.744 18.831ZM22.545 29.286C24.354 29.286 26.046 28.587 27.318 27.315C28.59 26.043 29.289 24.351 29.289 22.542C29.289 20.733 28.59 19.041 27.318 17.769C24.687 15.138 20.403 15.138 17.772 17.769C15.141 20.4 15.141 24.684 17.772 27.315C19.041 28.584 20.736 29.286 22.545 29.286ZM18.831 18.831C19.854 17.808 21.198 17.295 22.542 17.295C23.886 17.295 25.23 17.805 26.253 18.831C28.299 20.877 28.299 24.207 26.253 26.256C24.207 28.305 20.877 28.305 18.828 26.256C16.779 24.207 16.785 20.88 18.831 18.831ZM48 41.25C44.277 41.25 41.25 44.277 41.25 48C41.25 51.723 44.277 54.75 48 54.75C51.723 54.75 54.75 51.723 54.75 48C54.75 44.277 51.723 41.25 48 41.25ZM48 53.25C45.105 53.25 42.75 50.895 42.75 48C42.75 45.105 45.105 42.75 48 42.75C50.895 42.75 53.25 45.105 53.25 48C53.25 50.895 50.895 53.25 48 53.25ZM48.75 36H47.25V24H48.75V36ZM48.75 72H47.25V60H48.75V72ZM60 47.25H72V48.75H60V47.25ZM24 47.25H36V48.75H24V47.25ZM31.56 30.501L40.044 38.985L38.982 40.047L30.498 31.563L31.56 30.501ZM57.015 55.956L65.499 64.44L64.437 65.502L55.953 57.018L57.015 55.956ZM57.015 40.044L55.953 38.982L64.437 30.498L65.499 31.56L57.015 40.044ZM38.985 55.956L40.047 57.018L31.563 65.502L30.501 64.44L38.985 55.956Z" fill="#0263F5"/>
</svg>
