<svg width="97" height="96" viewBox="0 0 97 96" fill="none" xmlns="http://www.w3.org/2000/svg">
<g clip-path="url(#clip0_11543_6316)">
<path d="M11.862 0C7.04211 0 3.13477 3.90733 3.13477 8.72727L3.13477 51.0968C3.13477 75.8961 23.2386 96 48.038 96C72.8373 96 92.9412 75.8961 92.9412 51.0968V8.72727C92.9412 3.90733 89.0339 0 84.2139 0L11.862 0Z" fill="#F2F2F2"/>
<g clip-path="url(#clip1_11543_6316)">
<path fill-rule="evenodd" clip-rule="evenodd" d="M48.823 20.3078C50.1967 19.9485 51.2117 18.681 51.2117 17.1727C51.2117 15.3849 49.7858 13.9355 48.0267 13.9355C46.2677 13.9355 44.8418 15.3849 44.8418 17.1727C44.8418 18.681 45.8568 19.9485 47.2305 20.3078V37.1921C47.1386 37.1753 47.047 37.1587 46.9557 37.1422L46.9546 37.142L46.953 37.1417C46.8263 37.1188 46.7002 37.0959 46.5751 37.0731C44.9598 36.778 43.4841 36.4774 42.4095 35.9341C41.8843 35.6686 41.5022 35.3671 41.2518 35.023C41.0102 34.6912 40.8605 34.2787 40.8605 33.7218C40.8605 33.3283 40.9663 33.1107 41.0764 32.9786C41.1952 32.836 41.3817 32.7188 41.6499 32.6416C42.0648 32.5221 42.5605 32.5321 42.9506 32.594C43.1713 33.0722 43.6394 33.473 44.2451 33.6379C45.2329 33.9069 46.2124 33.4468 46.433 32.6101C46.6536 31.7735 46.0316 30.8772 45.0438 30.6082C44.3485 30.4188 43.6573 30.5907 43.2319 31.0009C42.6485 30.9039 41.9046 30.886 41.2158 31.0843C40.7375 31.2221 40.2398 31.478 39.8609 31.9328C39.4733 32.3982 39.2681 33.0026 39.2681 33.7218C39.2681 34.6065 39.5165 35.3605 39.9716 35.9857C40.4179 36.5988 41.0311 37.045 41.7003 37.3833C42.5499 37.8128 43.5646 38.1033 44.6 38.3325C44.0694 38.5899 43.579 38.9194 43.1987 39.359C42.7226 39.9094 42.453 40.5941 42.453 41.4104C42.453 42.7979 43.0457 43.7873 43.8792 44.5199C44.5939 45.1482 45.5032 45.6013 46.3346 45.9924C46.248 46.0573 46.1635 46.1241 46.0817 46.1931C45.2498 46.8939 44.6427 47.8472 44.6427 49.1997C44.6427 50.1759 44.8867 50.9791 45.3476 51.6116C45.3767 51.6516 45.4064 51.6905 45.4368 51.7286C45.3708 51.7287 45.3051 51.7288 45.2399 51.7288C44.8001 51.7288 44.4436 52.0911 44.4436 52.538C44.4436 52.985 44.8001 53.3473 45.2399 53.3473L45.2992 53.3473C45.8437 53.3474 46.5253 53.3476 47.2305 53.272V53.7927C47.2305 54.2396 47.587 54.602 48.0267 54.602C48.4665 54.602 48.823 54.2396 48.823 53.7927V53.272C49.5281 53.3476 50.2098 53.3474 50.7543 53.3473L50.8136 53.3473C51.2534 53.3473 51.6098 52.985 51.6098 52.538C51.6098 52.0911 51.2534 51.7288 50.8136 51.7288C50.7484 51.7288 50.6827 51.7287 50.6167 51.7286C50.647 51.6905 50.6768 51.6516 50.7059 51.6116C51.1668 50.9791 51.4108 50.1759 51.4108 49.1997C51.4108 47.8472 50.8037 46.8939 49.9718 46.1931C49.89 46.1241 49.8055 46.0573 49.7188 45.9924C50.5503 45.6013 51.4596 45.1482 52.1743 44.5199C53.0078 43.7873 53.6005 42.7979 53.6005 41.4104C53.6005 40.5941 53.3309 39.9094 52.8548 39.359C52.4745 38.9194 51.9841 38.5899 51.4535 38.3325C52.4889 38.1033 53.5036 37.8128 54.3532 37.3833C55.0224 37.045 55.6356 36.5988 56.0819 35.9857C56.537 35.3605 56.7854 34.6065 56.7854 33.7218C56.7854 33.0026 56.5802 32.3982 56.1926 31.9328C55.8137 31.478 55.316 31.2221 54.8377 31.0843C54.1489 30.886 53.405 30.9039 52.8215 31.0009C52.3962 30.5907 51.705 30.4188 51.0097 30.6082C50.0219 30.8772 49.3999 31.7735 49.6205 32.6101C49.841 33.4468 50.8206 33.9069 51.8084 33.6379C52.4141 33.473 52.8822 33.0722 53.1029 32.594C53.493 32.5321 53.9887 32.5221 54.4036 32.6416C54.6718 32.7188 54.8583 32.836 54.9771 32.9786C55.0872 33.1107 55.1929 33.3283 55.1929 33.7218C55.1929 34.2787 55.0433 34.6912 54.8017 35.023C54.5513 35.3671 54.1691 35.6686 53.6439 35.9341C52.5694 36.4774 51.0936 36.778 49.4784 37.0731C49.3524 37.0961 49.2255 37.1191 49.0978 37.1422C49.0065 37.1587 48.9149 37.1753 48.823 37.1921V20.3078ZM48.823 44.6298V39.1602C49.449 39.3056 50.0183 39.47 50.509 39.6765C51.0459 39.9025 51.4214 40.1533 51.6588 40.4278C51.8794 40.6828 52.008 40.9875 52.008 41.4104C52.008 42.2485 51.68 42.8144 51.1325 43.2957C50.55 43.8077 49.7511 44.196 48.823 44.6298ZM47.0979 47.4392C47.1409 47.403 47.1852 47.3673 47.2305 47.3323V51.1754C46.9811 51.0321 46.7801 50.858 46.6274 50.6484C46.4041 50.342 46.2352 49.8931 46.2352 49.1997C46.2352 48.428 46.5488 47.9018 47.0979 47.4392ZM47.2305 39.1602C46.6045 39.3056 46.0352 39.47 45.5445 39.6765C45.0076 39.9025 44.6321 40.1533 44.3947 40.4278C44.1741 40.6828 44.0455 40.9875 44.0455 41.4104C44.0455 42.2485 44.3735 42.8144 44.921 43.2957C45.5034 43.8077 46.3023 44.196 47.2305 44.6298V39.1602ZM48.823 47.3323V51.1754C49.0724 51.0321 49.2734 50.858 49.4261 50.6484C49.6494 50.342 49.8183 49.8931 49.8183 49.1997C49.8183 48.428 49.5047 47.9018 48.9556 47.4392C48.9125 47.403 48.8683 47.3673 48.823 47.3323Z" fill="#010668"/>
<path d="M50.4155 23.1747V28.9435C50.4155 29.167 50.59 29.3474 50.8098 29.3416C52.2023 29.3052 56.8406 29.0648 57.5027 27.4809C57.5887 27.2752 57.7614 27.0867 57.9812 27.084C63.2217 27.021 66.2119 25.6721 69.2501 20.4467C69.4302 20.1371 69.1439 19.7655 68.801 19.8545C62.3242 21.5373 56.8555 20.875 53.1259 19.6494C53.0306 19.6181 52.928 19.6237 52.8373 19.6668C51.1737 20.4579 50.4155 21.2782 50.4155 23.1747Z" fill="#010668"/>
<path d="M45.638 28.9435V23.1747C45.638 21.2782 44.8798 20.4579 43.2162 19.6668C43.1255 19.6237 43.0229 19.6181 42.9276 19.6494C39.198 20.875 33.7293 21.5373 27.2525 19.8545C26.9096 19.7655 26.6233 20.1371 26.8033 20.4467C29.8416 25.6721 32.8318 27.021 38.0722 27.084C38.2921 27.0867 38.4648 27.2752 38.5508 27.4809C39.2129 29.0648 43.8512 29.3052 45.2437 29.3416C45.4635 29.3474 45.638 29.167 45.638 28.9435Z" fill="#010668"/>
</g>
<path d="M21.735 73.2905V62.6996H23.9368V66.8802H27.5322V62.6996H29.734V73.2905H27.5322V68.859H23.9368V73.2905H21.735ZM33.0812 73.2905V71.451H35.7847V64.539H33.0812V62.6996H40.69V64.539H37.9865V71.451H40.69V73.2905H33.0812ZM44.4274 73.2905V62.6996H48.2318C50.9353 62.6996 52.4682 63.9956 52.4682 66.1556C52.4682 68.3156 50.9492 69.6116 48.2318 69.6116H46.6292V73.2905H44.4274ZM46.6292 67.786H48.2597C49.5 67.786 50.2107 67.2286 50.2107 66.1556C50.2107 65.0825 49.5 64.5112 48.2597 64.5112H46.6292V67.786ZM54.4916 73.2905L57.2369 62.6996H61.1527L63.898 73.2905H61.6544L61.0134 70.6428H57.3762L56.7352 73.2905H54.4916ZM57.8222 68.7894H60.5674L59.1878 63.0758L57.8222 68.7894ZM65.6427 73.2905L68.388 62.6996H72.3038L75.0491 73.2905H72.8055L72.1645 70.6428H68.5273L67.8863 73.2905H65.6427ZM68.9733 68.7894H71.7186L70.3389 63.0758L68.9733 68.7894Z" fill="#010668"/>
</g>
<defs>
<clipPath id="clip0_11543_6316">
<rect width="96" height="96" fill="white" transform="translate(0.0380859)"/>
</clipPath>
<clipPath id="clip1_11543_6316">
<rect width="42.5806" height="42.5806" fill="white" transform="translate(26.7478 13.1611)"/>
</clipPath>
</defs>
</svg>
