<svg fill="none" height="72" viewBox="0 0 166 72" width="166" xmlns="http://www.w3.org/2000/svg"><path d="m0 16c0-8.83656 7.16344-16 16-16h134c8.837 0 16 7.16344 16 16v40c0 8.8366-7.163 16-16 16h-134c-8.83656 0-16-7.1634-16-16z" fill="#f2f2f2"/><path d="m69.7587 48.5216c-4.7342-.0164-9.4696.0222-14.2025.0045v-15.0404c0-.0519.5398-.6753.634-.8183 1.3695-2.0744 1.5435-4.7462.4108-6.9712-.2114-.4151-.5291-.7765-.7284-1.1967h14.6366c2.063.1335 3.8906.5569 5.1804 2.2757 2.2205 2.9597 1.5624 7.3743-1.5486 9.4171-.0924.0607-.429.279-.5638.4145 1.0751.3841 1.9459 1.2061 2.561 2.1446.293-3.1065 1.8814-6.2694 5.0133-7.2965.7942-.2607 1.6194-.3632 2.4484-.4594h10.4638v-6.496h4.869v6.4954l15.9053-.0026c3.527-.0177 5.862 2.4472 6.162 5.8676v11.6668l-12.027.0696c-3.982 0-6.017-2.8724-5.333-6.5681.586-3.1635 2.902-4.033 5.818-4.1615 2.198-.0968 4.468.0779 6.673.0026v-.9778c0-1.3036-1.323-2.0851-2.498-2.1117-4.895-.1424-9.802-.0266-14.7003-.0639v7.9141c0 .2019.1379.7714.2215.9771.3594.8822 1.3388 1.1581 2.2188 1.1922.173.007.488-.1594.626.0057l1.674 3.628-.092.0931-4.3958.0626c-3.7363 0-5.0386-3.2451-5.1247-6.0834-.0784-2.5914.0646-5.1986.0032-7.7907l-8.9501-.0025c-1.584.0974-2.9433.2018-3.4255 1.944-.0607.2183-.2164.8733-.2044 1.0606.0038.0583.0525.1513.0918.1513h10.0853v3.7204h-10.1802c.0499.9309.3043 1.7909 1.0447 2.3952.7398.6037 1.7194.7727 2.6516.824 2.1219.1164 4.3513-.0924 6.4839-.0026v3.7204l-7.3344.0633c-3.1477 0-6.2144-1.9181-7.4294-4.8563-.5645 2.4699-2.108 4.1102-4.6342 4.5855-.6366.1196-2.387.2037-2.5028.2031zm-9.0811-14.1848h8.1882c2.9401 0 3.4837-5.5493 0-5.5493h-8.1882zm0 4.2887v5.6125h7.9357c2.2117 0 3.5058-2.7211 2.2971-4.4981-.6233-.9163-1.7023-1.06-2.7407-1.1138-2.4592-.1266-5.0228.0937-7.4921-.0006zm55.4524 2.9635h-6.101c-.22 0-.786.2145-.976.3512-.76.5436-.825 2.0048.014 2.4997.46.2709 1.312.3411 1.844.3677 1.714.0854 3.499-.069 5.219-.0026z" fill="#000"/><path d="m51.0668 23.4275c2.4035.2671 4.3918 2.2896 4.7336 4.6437.7144 4.9184-5.155 8.1483-8.94 4.8804-3.5622-3.0755-1.6953-9.0747 2.9414-9.5241.3145-.0303.9543-.0341 1.2644 0z" fill="#e32127"/><path d="m53.2165 35.1569v13.3691h-5.5644v-13.3065c1.7998.6854 3.79.7221 5.5644-.0633z" fill="#000"/></svg>