<svg width="24" height="24" viewBox="0 0 24 24" fill="none" xmlns="http://www.w3.org/2000/svg">
<path d="M12 20.1495C12.4785 20.1495 12.936 19.9462 13.2578 19.59C15.0788 17.574 19.3125 12.4215 19.3125 8.13598C19.3125 4.11298 16.032 0.839233 12 0.839233C7.968 0.839233 4.6875 4.11298 4.6875 8.13598C4.6875 12.4215 8.922 17.574 10.7422 19.59C11.064 19.9462 11.5215 20.1495 12 20.1495ZM12 1.96498C15.4117 1.96498 18.1875 4.73323 18.1875 8.13673C18.1875 12.0315 14.1562 16.9177 12.4222 18.837C12.2025 19.08 11.7967 19.08 11.577 18.837C9.843 16.917 5.81175 12.0315 5.81175 8.13673C5.81175 4.73398 8.5875 1.96498 11.9992 1.96498H12ZM15.3967 6.94648L11.418 10.9057C11.3085 11.0152 11.1645 11.0692 11.0212 11.0692C10.878 11.0692 10.734 11.0145 10.6245 10.9057L8.6355 8.92573L9.42975 8.12848L11.022 9.71323L14.6033 6.14923L15.3975 6.94648H15.3967ZM22.3125 20.8852C22.3125 21.369 21.5692 22.9477 12 22.9477C2.43075 22.9477 1.6875 21.369 1.6875 20.8852C1.6875 20.4675 1.6875 19.3575 8.214 18.939L8.286 20.0617C5.3775 20.2485 3.702 20.6152 3.0495 20.8867C3.9885 21.282 6.969 21.8227 12.0007 21.8227C17.0325 21.8227 20.013 21.282 20.952 20.8867C20.2995 20.6152 18.624 20.2477 15.7155 20.0617L15.7875 18.939C22.314 19.3575 22.314 20.4675 22.314 20.8852H22.3125Z" fill="black"/>
</svg>
