<svg width="97" height="96" viewBox="0 0 97 96" fill="none" xmlns="http://www.w3.org/2000/svg">
<g clip-path="url(#clip0_11543_6262)">
<rect x="0.961792" width="95.3164" height="95.3164" rx="19.9857" fill="#F2F2F2"/>
<path d="M25.3295 83.4126C25.4402 81.0881 26.5748 79.9535 28.1521 78.9712C29.1898 78.307 30.2137 77.7812 30.2137 76.5775C30.2137 75.7058 29.7986 75.1385 28.8854 75.1385C27.5433 75.1385 27.3635 76.2454 27.3773 77.0479L25.6616 76.7989C25.6478 75.3461 26.4918 73.7687 28.9408 73.7687C30.7395 73.7687 31.9156 74.8203 31.9156 76.619C31.9156 78.2655 30.8779 79.068 29.4666 79.9535C28.415 80.59 27.571 81.1019 27.3358 82.0013H31.9294V83.4126H25.3295ZM36.6492 83.4126C36.8291 80.4655 37.9636 77.5184 40.0668 75.3461H35.5285V73.9348H41.7825V75.3461C39.7485 77.2555 38.5309 80.2856 38.3787 83.4126H36.6492ZM48.6192 83.5786C46.2809 83.5786 45.0494 81.9044 45.0494 78.6668C45.0494 75.7888 46.1978 73.7687 48.6192 73.7687C51.0544 73.7687 52.2028 75.8027 52.2028 78.6668C52.2028 81.5724 51.0544 83.5786 48.6192 83.5786ZM46.8066 78.6668C46.8066 79.4554 46.8481 80.1057 46.945 80.6315L49.5047 75.3599C49.2695 75.2215 48.9789 75.1524 48.6192 75.1524C47.955 75.1524 47.54 75.3876 47.2632 75.858C46.9035 76.4253 46.8066 77.3662 46.8066 78.6668ZM47.6645 81.9598C47.9135 82.1397 48.2179 82.2227 48.6192 82.2227C49.1865 82.2227 49.5877 82.0428 49.8644 81.6831C50.3072 81.1158 50.4456 80.0919 50.4456 78.6668C50.4456 77.8089 50.4041 77.1033 50.2657 76.5637L47.6645 81.9598ZM58.5829 83.5786C56.2446 83.5786 55.0132 81.9044 55.0132 78.6668C55.0132 75.7888 56.1616 73.7687 58.5829 73.7687C61.0181 73.7687 62.1665 75.8027 62.1665 78.6668C62.1665 81.5724 61.0181 83.5786 58.5829 83.5786ZM56.7704 78.6668C56.7704 79.4554 56.8119 80.1057 56.9087 80.6315L59.4684 75.3599C59.2332 75.2215 58.9427 75.1524 58.5829 75.1524C57.9188 75.1524 57.5037 75.3876 57.227 75.858C56.8672 76.4253 56.7704 77.3662 56.7704 78.6668ZM57.6282 81.9598C57.8773 82.1397 58.1817 82.2227 58.5829 82.2227C59.1502 82.2227 59.5514 82.0428 59.8282 81.6831C60.2709 81.1158 60.4093 80.0919 60.4093 78.6668C60.4093 77.8089 60.3678 77.1033 60.2294 76.5637L57.6282 81.9598ZM65.641 83.4264V82.029H68.0624V76.536C67.6334 76.9511 66.914 77.1309 66.1391 77.1309C66.0008 77.1309 65.8624 77.1171 65.7379 77.1033V75.6781C67.2599 75.6781 68.09 75.1385 68.3114 73.9348H69.695V82.029H71.8673V83.4264H65.641Z" fill="#010668"/>
<path d="M55.746 54.8117C55.4615 55.9192 55.1512 56.9608 54.8145 57.9203C52.6168 57.7232 50.3477 57.6189 48.0554 57.6189C45.8589 57.6189 43.7074 57.7105 41.628 57.8857C41.2955 56.9355 40.989 55.9062 40.7086 54.8117H39.0081C39.2851 55.94 39.5947 57.0241 39.937 58.0471C37.0068 58.3513 34.105 58.8853 31.2586 59.6439C29.6064 58.2201 28.1375 56.5969 26.8856 54.8117H24.8807C33.0874 67.6967 50.1928 71.4939 63.0866 63.293C66.5022 61.1204 69.3992 58.2253 71.5733 54.8117H69.5694C68.2963 56.6275 66.7984 58.2751 65.1111 59.7148C62.2886 58.9503 59.4105 58.4079 56.5033 58.0918C56.8514 57.0554 57.1658 55.9568 57.4473 54.8115L55.746 54.8117ZM32.8863 60.935C35.3997 60.3409 37.9499 59.9149 40.5199 59.6589C41.5421 62.2639 42.8837 64.4071 44.2108 65.7543C40.1114 65.0529 36.2331 63.4025 32.8863 60.935ZM48.2277 66.0789C46.1254 66.0789 43.953 63.6087 42.2438 59.5026C44.1433 59.3542 46.0925 59.2753 48.0556 59.2753C50.1378 59.2753 52.1982 59.3635 54.1996 59.5296C52.4927 63.6187 50.3252 66.0789 48.2277 66.0789ZM63.4832 60.9979C60.1553 63.4301 56.3084 65.0584 52.2444 65.7543C53.5659 64.4129 54.9023 62.2818 55.9222 59.6938C58.4691 59.958 60.9952 60.3938 63.4832 60.9979Z" fill="#010668"/>
<path d="M69.569 25.1079H71.5734C63.3662 12.2227 46.2606 8.426 33.367 16.6277C29.9518 18.8001 27.055 21.6947 24.8811 25.1079H26.8854C28.159 23.2928 29.6567 21.6454 31.3431 20.2048C34.1657 20.9697 37.0439 21.5123 39.9514 21.8282C39.603 22.8654 39.289 23.9627 39.0077 25.1078H40.7085C40.9931 24.0007 41.3032 22.9589 41.6403 21.9991C43.8379 22.1967 46.1074 22.3008 48.3993 22.3008C50.5963 22.3008 52.7467 22.2091 54.827 22.0344C55.1588 22.9842 55.4655 24.0143 55.7453 25.108H57.4466C57.169 23.9796 56.8593 22.8957 56.5178 21.8729C59.4475 21.5684 62.3486 21.0344 65.195 20.2765C66.8481 21.6993 68.3174 23.3222 69.569 25.1079ZM40.5328 20.227C37.9862 19.9618 35.4602 19.526 32.972 18.9227C36.2994 16.4897 40.1463 14.8614 44.2101 14.1656C42.8889 15.5065 41.5517 17.6389 40.5328 20.227ZM48.3995 20.6444C46.3178 20.6444 44.2565 20.5566 42.2551 20.3907C43.9621 16.3018 46.129 13.841 48.2275 13.841C50.3298 13.841 52.5022 16.312 54.2108 20.4174C52.3119 20.5661 50.3624 20.6439 48.3995 20.6444ZM55.9353 20.2603C54.9124 17.6553 53.5713 15.512 52.2439 14.1655C56.3434 14.8669 60.2218 16.5172 63.5682 18.9852C61.0551 19.5793 58.5051 20.0054 55.9353 20.2603Z" fill="#010668"/>
<path d="M69.3446 27.4839C61.6781 27.4839 56.1989 31.9377 56.1989 39.9109C56.1989 47.8838 61.6784 52.3377 69.3446 52.3377C77.0094 52.3377 82.4897 47.8838 82.4897 39.9109C82.4894 31.9377 77.0094 27.4839 69.3446 27.4839ZM69.3446 46.6916C66.306 46.6916 64.3756 44.7627 64.3756 39.9109C64.3756 35.0598 66.3059 33.131 69.3446 33.131C72.3818 33.131 74.3126 35.0596 74.3126 39.9109C74.3126 44.7628 72.3816 46.6916 69.3446 46.6916Z" fill="#010668"/>
<path d="M54.2345 35.1161V27.909H48.4427C46.6643 27.6605 44.8725 27.5183 43.0772 27.4839C36.4046 27.4839 31.8334 29.9245 31.8334 35.3152C31.8334 45.9268 47.137 41.3005 47.137 45.2727C47.137 46.4936 45.9153 47.1746 42.9064 47.1746C40.6349 47.1746 38.6479 46.6916 37.7965 46.2384V44.7058H32.0042V51.9122H37.7965C39.6796 52.1627 41.5749 52.3047 43.4742 52.3378C52.2476 52.3378 55.1715 48.7635 55.1715 44.3942C55.1715 33.84 39.7271 38.6906 39.7271 34.464C39.7271 33.442 40.7775 32.648 43.4741 32.648C45.5757 32.648 47.591 33.1312 48.4429 33.5841V35.1164L54.2345 35.1161Z" fill="#010668"/>
<path d="M14.7981 46.0033V51.9613H30.2709V46.0033H26.3813V33.916H30.2709V27.958H14.7981V33.916H18.6868V46.0033H14.7981Z" fill="#010668"/>
</g>
<defs>
<clipPath id="clip0_11543_6262">
<rect width="95.3164" height="95.3164" fill="white" transform="translate(0.961792)"/>
</clipPath>
</defs>
</svg>
