<svg width="96" height="96" viewBox="0 0 96 96" fill="none" xmlns="http://www.w3.org/2000/svg">
<g clip-path="url(#clip0_11543_6272)">
<rect x="0.278198" width="95.2651" height="95.5473" rx="18.4657" fill="#F2F2F2"/>
<path d="M11.999 24.4541H12.9166C12.9214 24.5338 12.931 24.6063 12.931 24.6763C12.931 26.1835 12.931 27.6907 12.931 29.1979C12.931 29.7848 12.931 30.3718 12.931 30.9587C12.931 31.0142 12.931 31.0722 12.931 31.1568C12.9864 31.1133 13.0153 31.094 13.0418 31.0722C13.8967 30.2776 14.754 29.4829 15.609 28.6882C16.2664 28.0772 16.9263 27.4661 17.5813 26.8526C17.6656 26.7729 17.7523 26.7439 17.8655 26.7463C18.1665 26.7535 18.4675 26.7463 18.7686 26.7487C18.8119 26.7487 18.8577 26.7535 18.942 26.7608C17.8366 27.7994 16.7601 28.809 15.6692 29.8331C16.7914 31.4804 17.9088 33.1204 19.0407 34.7822C18.9636 34.7895 18.9131 34.7943 18.8625 34.7967C18.6096 34.7967 18.3544 34.7919 18.1015 34.7991C17.9811 34.804 17.9088 34.7581 17.8438 34.659C17.0587 33.4997 16.2688 32.3427 15.4813 31.1857C15.3465 30.9901 15.214 30.792 15.0792 30.5964C15.0527 30.5577 15.0238 30.5215 14.9901 30.478C14.9491 30.5094 14.913 30.5336 14.8841 30.5626C14.2772 31.1181 13.6703 31.6785 13.0586 32.2316C12.9671 32.3137 12.9334 32.3983 12.9334 32.519C12.9382 33.2074 12.9334 33.8934 12.9334 34.5817C12.9334 34.6445 12.9334 34.7073 12.9334 34.7895L12.0014 34.7991V24.4541H11.999Z" fill="#010668"/>
<path d="M86.1113 40.036C85.4202 40.036 84.729 40.036 84.0379 40.036C83.9536 40.036 83.8693 40.0336 83.785 40.0263C83.6887 40.0167 83.6718 39.9949 83.667 39.8935C83.667 39.8669 83.667 39.8403 83.667 39.8138C83.667 38.7462 83.667 37.6762 83.667 36.6086C83.667 36.5723 83.667 36.5337 83.667 36.4975C83.667 36.4371 83.7007 36.4105 83.7537 36.4033C83.7898 36.3984 83.8283 36.3984 83.8645 36.3984C84.5291 36.3984 85.1962 36.3984 85.8609 36.3984C85.9067 36.3984 85.9548 36.4057 86.0126 36.4081V36.8718C85.7212 36.8839 85.4322 36.8767 85.1457 36.8791C84.8567 36.8791 84.5653 36.8791 84.2642 36.8791V37.9346C84.3895 37.9346 84.5099 37.9346 84.6303 37.9346C85.0469 37.9346 85.4635 37.9346 85.8802 37.9346C85.9596 37.9346 86.003 37.9708 86.0054 38.0433C86.0102 38.1375 86.0102 38.2341 86.0054 38.3283C86.0006 38.4008 85.9596 38.437 85.8802 38.437C85.4539 38.437 85.0252 38.437 84.599 38.437C84.493 38.437 84.3895 38.437 84.2883 38.437C84.2498 38.5529 84.2402 39.3259 84.2763 39.5288C84.3341 39.5312 84.3967 39.536 84.4569 39.536C84.9482 39.536 85.4395 39.536 85.9307 39.536C85.9933 39.536 86.056 39.5481 86.1186 39.5529V40.0287L86.1113 40.036Z" fill="#010668"/>
<path d="M50.1964 34.7604C50.0712 34.8039 49.4619 34.8063 49.2934 34.7604V33.5455L49.2572 33.5261C48.6142 34.3063 47.834 34.8739 46.8442 35.113C46.2566 35.2555 45.6641 35.2821 45.0693 35.2024C44.5419 35.1324 44.0434 34.9681 43.5762 34.7097C43.0657 34.4271 42.6346 34.0503 42.2589 33.6083C40.8356 31.9368 40.826 29.0819 42.7743 27.379C43.7448 26.5312 44.8791 26.1858 46.1554 26.2921C47.4366 26.4008 48.4529 27.0046 49.2741 28.0263C49.2837 27.9563 49.2934 27.9177 49.2934 27.8814C49.2934 27.5698 49.2934 27.2583 49.2934 26.9443V26.7534C49.6016 26.7414 49.893 26.7438 50.1964 26.751V34.7604ZM49.2934 30.775C49.3223 28.8524 47.7256 27.2003 45.7605 27.1834C43.7737 27.1665 42.1915 28.8041 42.1602 30.6953C42.1289 32.6494 43.7135 34.3329 45.7292 34.3329C47.7521 34.3329 49.3078 32.6494 49.2934 30.775Z" fill="#010668"/>
<path d="M63.0753 27.9754V26.7532C63.3811 26.7435 63.6725 26.7459 63.976 26.7532V34.7601C63.8459 34.8084 63.215 34.8084 63.0753 34.7553V33.5235C63.0199 33.5718 62.9886 33.5959 62.9621 33.6249C62.7117 33.9196 62.4347 34.1877 62.1216 34.4172C61.5653 34.8229 60.9488 35.079 60.2697 35.1852C59.6195 35.2867 58.9765 35.265 58.3407 35.0983C57.4328 34.8616 56.6911 34.3616 56.0866 33.6515C55.5231 32.9897 55.1763 32.2288 55.08 31.3641C54.8993 29.7507 55.3954 28.3932 56.6309 27.3256C57.3052 26.7411 58.0903 26.403 58.9741 26.3039C59.6917 26.2218 60.3949 26.2967 61.0765 26.5431C61.7604 26.7918 62.3312 27.2073 62.82 27.7435C62.8947 27.8256 62.9669 27.9077 63.0392 27.9899L63.0777 27.9778L63.0753 27.9754ZM63.0753 30.7555C63.1211 28.9294 61.5653 27.1928 59.5256 27.1855C57.5364 27.1783 55.9204 28.8594 55.9469 30.8134C55.971 32.6636 57.5147 34.3423 59.5207 34.335C61.5846 34.3302 63.1259 32.5742 63.0753 30.7555Z" fill="#010668"/>
<path d="M27.0104 26.771C27.1838 26.7372 27.7714 26.742 27.8967 26.7783V34.7804C27.8437 34.7852 27.7979 34.7949 27.7522 34.7949C27.5523 34.7949 27.35 34.7949 27.1501 34.7949C27.008 34.7949 26.996 34.7828 26.996 34.6403C26.996 34.3287 26.996 34.0171 26.996 33.7031C26.996 33.6524 26.9912 33.6017 26.9743 33.5437C26.2519 34.4084 25.368 34.9905 24.2506 35.1765C23.4463 35.3118 22.6515 35.2562 21.8809 34.9784C21.1584 34.72 20.5636 34.2732 20.0555 33.7055C18.5551 32.0317 18.5648 29.2468 20.277 27.5753C20.8959 26.9715 21.6136 26.5488 22.4661 26.3749C23.3066 26.2034 24.135 26.2421 24.9466 26.5222C25.7678 26.8048 26.418 27.3314 26.9815 28.0173C26.9912 27.9545 26.9984 27.9207 26.9984 27.8869C26.9984 27.5753 26.9984 27.2638 26.9984 26.9498C26.9984 26.8894 27.008 26.8266 27.0129 26.7686L27.0104 26.771ZM26.9936 30.7757C27.0514 28.9134 25.4571 27.184 23.4342 27.1865C21.4474 27.1865 19.8724 28.8579 19.8676 30.7491C19.8628 32.6597 21.4282 34.3408 23.439 34.3384C25.5101 34.336 27.0393 32.5824 26.996 30.7781L26.9936 30.7757Z" fill="#010668"/>
<path d="M29.0835 34.7815V26.7818C29.1966 26.7407 29.7409 26.731 29.9673 26.7649C30.013 26.9677 29.9625 27.1851 30.001 27.4243C30.107 27.3252 30.1937 27.2455 30.2804 27.1658C30.7981 26.7045 31.3954 26.4122 32.0841 26.3156C32.8042 26.2117 33.5002 26.2866 34.1504 26.6127C35.2124 27.1465 35.8915 27.9943 36.13 29.173C36.1685 29.3638 36.1781 29.5619 36.1781 29.7551C36.1805 31.3637 36.1781 32.9724 36.1781 34.5786C36.1781 34.6414 36.1781 34.7042 36.1781 34.7791C35.8699 34.8032 35.5785 34.7911 35.2702 34.7887C35.2702 34.6993 35.2702 34.6365 35.2702 34.5737C35.2702 32.9772 35.275 31.3782 35.2702 29.7817C35.2678 28.958 34.921 28.2914 34.2901 27.7721C33.871 27.4267 33.387 27.2479 32.8427 27.1996C31.3809 27.0668 30.1672 28.1609 30.001 29.4773C29.9841 29.6029 29.9841 29.7309 29.9841 29.8565C29.9841 31.412 29.9841 32.9675 29.9841 34.523C29.9841 34.8443 29.9793 34.7887 29.7072 34.7935C29.5531 34.7935 29.4013 34.7935 29.2472 34.7935C29.1966 34.7935 29.1461 34.7863 29.0811 34.7815H29.0835Z" fill="#010668"/>
<path d="M40.098 27.662C39.8812 27.662 39.6813 27.662 39.4815 27.662C39.1467 27.662 39.1828 27.6258 39.1828 27.9543C39.1828 30.1644 39.1828 32.3768 39.1828 34.5869V34.7536C39.0456 34.8043 38.4146 34.8067 38.2677 34.7536V27.6645H37.355C37.3454 27.3529 37.3478 27.0654 37.355 26.7563C37.6536 26.7297 37.9474 26.7587 38.2605 26.737C38.2797 26.5437 38.2677 26.3529 38.2701 26.1669C38.2701 25.9761 38.2701 25.7853 38.2701 25.5945V24.4568C38.5784 24.4375 38.8698 24.4424 39.1804 24.4544V26.7321C39.4935 26.7659 39.7921 26.7273 40.098 26.7563V27.6596V27.662Z" fill="#010668"/>
<path d="M51.3773 26.7546C51.676 26.745 51.9625 26.7426 52.2612 26.757L52.2877 27.1194C52.6561 26.8899 53.0342 26.7715 53.4412 26.7498C53.5809 26.7426 53.723 26.7498 53.8747 26.7498V27.658C53.7687 27.658 53.67 27.658 53.5712 27.6604C53.1811 27.6628 52.8536 27.8053 52.5911 28.0976C52.3671 28.3464 52.278 28.6435 52.2756 28.9719C52.2732 29.3898 52.2756 29.8077 52.2756 30.2255C52.2756 31.6699 52.2756 33.1143 52.2756 34.5587V34.7616C52.2419 34.7761 52.2226 34.7906 52.2034 34.7906C51.9601 34.7906 51.7169 34.7906 51.4737 34.7954C51.399 34.7954 51.3701 34.7592 51.3701 34.6891C51.3701 34.6456 51.3701 34.6046 51.3701 34.5611C51.3701 32.0322 51.3701 29.5033 51.3701 26.9768C51.3701 26.9092 51.3749 26.8416 51.3797 26.7546H51.3773Z" fill="#010668"/>
<path d="M55.3806 39.1105V38.9439C55.3806 38.1613 55.3806 37.3787 55.3806 36.5961C55.3806 36.415 55.3902 36.4053 55.5636 36.4029C55.6937 36.4029 55.8261 36.4029 55.9513 36.4029C55.9875 36.5309 55.9995 39.7917 55.9658 40.0308C55.8285 40.0308 55.6888 40.0429 55.5468 40.0308C55.4962 40.0284 55.4384 39.9897 55.4023 39.9511C54.622 39.0985 53.8417 38.2434 53.0639 37.3884C53.035 37.357 53.0012 37.328 52.9531 37.3038C52.9266 37.5357 52.9314 37.7579 52.9314 37.9826C52.9314 38.2096 52.9314 38.4367 52.9314 38.6637C52.9314 38.8907 52.9314 39.1081 52.9314 39.3303C52.9314 39.555 52.9314 39.782 52.9314 40.0091C52.7532 40.0525 52.5967 40.0429 52.4401 40.0284C52.3727 40.0211 52.3366 39.9801 52.339 39.91C52.339 39.8786 52.339 39.8472 52.339 39.8158C52.339 38.7482 52.339 37.6806 52.339 36.6106C52.339 36.5841 52.339 36.5575 52.339 36.5309C52.3438 36.4343 52.3631 36.4102 52.4594 36.4053C52.5654 36.4005 52.6713 36.4053 52.7749 36.4029C52.8543 36.4005 52.8977 36.4536 52.9459 36.5044C53.3793 36.9802 53.8152 37.456 54.2487 37.9318C54.5859 38.3014 54.9254 38.6734 55.2626 39.0429C55.2867 39.0695 55.3083 39.1009 55.33 39.1299L55.3806 39.1105Z" fill="#010668"/>
<path d="M70.9636 40.0307C70.7758 40.0307 70.6144 40.0307 70.4555 40.0307C70.3736 40.0307 70.3543 39.9704 70.3254 39.9124C70.1954 39.6346 70.0605 39.3593 69.9329 39.0815C69.9016 39.0115 69.863 38.9752 69.7787 38.9752C69.2778 38.9776 68.7769 38.9752 68.276 38.9776C68.2616 38.9776 68.2447 38.9849 68.2134 38.9897C68.1123 39.2047 68.0063 39.4293 67.9003 39.6515C67.8546 39.7481 67.8088 39.8423 67.7679 39.939C67.7438 39.9921 67.7149 40.0307 67.6523 40.0307C67.4909 40.0307 67.3296 40.0307 67.1514 40.0307C67.173 39.9752 67.1851 39.9365 67.2019 39.9003C67.7245 38.7796 68.2471 37.6613 68.7673 36.5405C68.8179 36.4318 68.8781 36.3932 68.9961 36.3956C69.2465 36.4004 69.2489 36.3956 69.3573 36.6251C69.8703 37.7072 70.3832 38.7917 70.8962 39.8737C70.913 39.9124 70.9299 39.951 70.9612 40.0259L70.9636 40.0307ZM69.0539 37.2531L69.0129 37.2603C68.8371 37.6444 68.6637 38.0284 68.4879 38.41C68.4831 38.4197 68.4831 38.4318 68.4831 38.4414C68.4831 38.4463 68.4879 38.4511 68.4903 38.4559C68.4928 38.4608 68.4976 38.4632 68.4952 38.4608H69.6222L69.0515 37.2507L69.0539 37.2531Z" fill="#010668"/>
<path d="M80.4317 38.9422C80.4606 38.8915 80.4799 38.8625 80.4967 38.8311C80.8676 38.0606 81.2385 37.2901 81.6045 36.5172C81.643 36.435 81.6936 36.394 81.7851 36.3988C81.932 36.4037 82.0765 36.3988 82.2499 36.3988C81.6551 37.6379 81.0723 38.8504 80.4871 40.0678H80.3522C79.7815 38.8528 79.2107 37.6403 78.6279 36.4036C78.823 36.4036 78.9964 36.4012 79.1674 36.4036C79.2372 36.4036 79.2541 36.4737 79.2782 36.5244C79.4275 36.8408 79.5744 37.1548 79.7237 37.4712C79.9332 37.9157 80.1403 38.3601 80.3522 38.8045C80.3715 38.8456 80.398 38.8818 80.4317 38.9398V38.9422Z" fill="#010668"/>
<path d="M75.026 36.4225V36.867C74.9586 36.8742 74.8984 36.8839 74.8382 36.8839C74.489 36.8839 74.1422 36.8839 73.793 36.8839C73.7352 36.8839 73.6798 36.8839 73.6051 36.8839V39.9949C73.4269 40.0504 73.203 40.0504 73.0151 39.9973V36.8814H71.5967V36.4298C71.7243 36.3911 74.8117 36.3815 75.026 36.4201V36.4225Z" fill="#010668"/>
<path d="M61.5532 36.8907C61.0643 36.8762 60.6019 36.8956 60.1299 36.8787V36.4197C60.1805 36.4149 60.231 36.4028 60.2792 36.4028C61.3147 36.4028 62.3479 36.4028 63.3834 36.4028C63.4292 36.4028 63.4749 36.4101 63.5448 36.4173C63.5448 36.5526 63.5448 36.6758 63.5448 36.8014C63.5448 36.8521 63.5159 36.8787 63.4677 36.8835C63.4268 36.8859 63.3834 36.8859 63.3401 36.8859C62.9981 36.8859 62.6537 36.8859 62.3117 36.8859C62.2539 36.8859 62.1986 36.8859 62.1215 36.8859V37.0888C62.1215 37.9921 62.1215 38.8979 62.1215 39.8013C62.1215 39.8447 62.1215 39.8858 62.1215 39.9293C62.1215 39.9945 62.0926 40.0307 62.0276 40.0307C61.8759 40.0307 61.7241 40.0307 61.5556 40.0307V36.8932L61.5532 36.8907Z" fill="#010668"/>
<path d="M65.1353 36.423C65.3351 36.3795 65.523 36.4085 65.7205 36.4013V40.0123C65.5543 40.0485 65.3929 40.0412 65.2316 40.0267C65.1642 40.0195 65.1256 39.9833 65.128 39.9132C65.128 39.8867 65.128 39.8601 65.128 39.8335C65.128 38.7514 65.128 37.6693 65.128 36.5848C65.128 36.539 65.1329 36.4906 65.1353 36.423Z" fill="#010668"/>
<path d="M57.9463 40.0272V36.4138C58.1221 36.3921 58.2955 36.3945 58.4665 36.4138C58.493 36.4163 58.5243 36.467 58.5387 36.5008C58.5508 36.5322 58.5411 36.5733 58.5411 36.6119C58.5411 37.6795 58.5411 38.7495 58.5411 39.8171C58.5411 39.8485 58.5411 39.8799 58.5411 39.9113C58.5459 39.9838 58.5098 40.0248 58.4424 40.0272C58.281 40.0321 58.1197 40.0272 57.9487 40.0272H57.9463Z" fill="#010668"/>
<path d="M49.8381 36.3984C49.985 36.3984 50.1271 36.3984 50.2692 36.3984C50.3005 36.3984 50.3294 36.4105 50.3679 36.4178V40.0046C50.1825 40.0529 50.0067 40.036 49.8309 40.0167C49.7924 39.8717 49.7948 36.5506 49.8381 36.3984Z" fill="#010668"/>
<path d="M77.1555 40.0132C77.0038 40.0543 76.8449 40.0422 76.6883 40.0301C76.6305 40.0253 76.6064 39.9915 76.6064 39.9359C76.6064 39.8997 76.6064 39.861 76.6064 39.8248C76.6064 38.7524 76.6064 37.6775 76.6064 36.6051V36.4191C76.7991 36.395 76.9749 36.4022 77.1483 36.4119C77.1892 36.5399 77.1941 39.8514 77.1555 40.0132Z" fill="#010668"/>
<path d="M65.7228 20.1329C64.8775 19.0436 63.8732 18.1934 62.6547 17.6065C62.5752 17.5678 62.4548 17.5751 62.3633 17.6016C61.453 17.8673 60.704 18.377 60.1116 19.104C60.0586 19.1668 60.0056 19.2296 59.955 19.2948C58.775 20.8165 58.4041 22.6039 58.2861 24.4927H63.931C63.9238 23.686 64.0852 22.9251 64.3645 22.1908C64.6463 21.4469 65.0677 20.7875 65.6433 20.2296L65.6361 20.2199C65.665 20.1909 65.6939 20.1619 65.7228 20.1354V20.1329Z" fill="#010668" stroke="white" stroke-width="0.577053"/>
<path d="M52.708 24.4945C52.9296 23.4848 53.221 22.5404 53.6304 21.6347C54.2107 20.3424 54.9886 19.1976 56.1253 18.328C57.4378 17.3232 58.9405 16.8885 60.5709 16.9658C61.0598 16.9875 61.539 17.2266 62.0207 17.3764C62.1916 17.4295 62.353 17.5189 62.5721 17.6131C62.471 17.6566 62.4325 17.6759 62.3891 17.6904C61.002 18.1131 60.0507 19.0406 59.3981 20.3062C58.7575 21.5477 58.4805 22.8858 58.3939 24.2674C58.389 24.3447 58.3842 24.4244 58.3794 24.4969H52.7104L52.708 24.4945Z" fill="#010668" stroke="white" stroke-width="0.577053"/>
<path d="M85.8061 34.9301C85.2643 31.8892 84.4238 28.9448 82.9837 26.1937C81.8494 24.0247 80.4069 22.0973 78.5285 20.5152C76.65 18.9331 74.526 17.8341 72.1298 17.2858C71.5759 17.1602 71.0172 17.0298 70.4537 16.9863C70.2706 16.9912 70.1045 16.9863 69.9311 16.9863H66.415C66.468 17.0153 66.521 17.0467 66.5764 17.0709C67.3446 17.4163 68.149 17.7013 68.8787 18.1143C71.6626 19.6891 73.6855 21.9934 75.1136 24.8339C76.5778 27.7516 77.2256 30.8771 77.4375 34.1113C77.4592 34.4398 77.4761 34.7683 77.4953 35.0895H85.8206C85.8158 35.0219 85.8158 34.976 85.8061 34.9301Z" fill="#010668" stroke="white" stroke-width="0.577053"/>
<path d="M60.4546 16.9538C60.575 16.9538 60.6593 16.9538 60.7435 16.9538C62.6533 16.9538 64.563 16.949 66.4703 16.9587C66.7184 16.9587 66.9761 16.9997 67.2097 17.0819C69.577 17.9031 71.5469 19.3185 73.2013 21.1856C75.1785 23.4174 76.4091 26.038 77.1581 28.9051C77.6758 30.8881 77.9239 32.9098 78.0106 34.9532C78.0106 34.9918 78.0106 35.0305 78.0106 35.0908H68.5414C68.5679 34.7575 68.5992 34.4218 68.6209 34.0861C68.8304 30.6442 68.6426 27.2433 67.5516 23.9439C66.9977 22.2677 66.1934 20.6977 64.9604 19.4127C64.2668 18.6905 63.501 18.0432 62.5834 17.6495C61.7959 17.2968 60.8712 17.0287 60.4521 16.9538H60.4546Z" fill="#010668" stroke="white" stroke-width="0.577053"/>
<path d="M83.1946 18.6402V17.1644H82.6455V16.9688H83.9676V17.1644H83.4161V18.6402H83.1946Z" fill="#010668"/>
<path d="M84.1885 18.6382V16.9668H84.5208L84.9158 18.1503C84.9519 18.2614 84.9784 18.3435 84.9952 18.3967C85.0145 18.3363 85.0434 18.2469 85.0843 18.1286L85.4841 16.9644H85.7803V18.6382H85.5684V17.2373L85.0843 18.6382H84.8845L84.4028 17.2131V18.6382H84.1909H84.1885Z" fill="#010668"/>
<rect x="10.2764" y="52.3213" width="76.29" height="30.6913" rx="12.9885" fill="#A7ABFE"/>
<path d="M24.9179 67.0151V61.0907H26.1113L27.8717 64.1883C28.1086 64.62 28.4302 65.2124 28.6503 65.7202H28.6588C28.6334 65.187 28.6164 64.3999 28.6164 64.0952V61.0907H29.6236V67.0151H28.4133L26.6275 63.8583C26.4498 63.5536 26.0943 62.9019 25.8912 62.411H25.8827C25.9081 63.0204 25.9251 63.8244 25.9251 63.9937V67.0151H24.9179ZM30.8936 67.0151V61.0907H31.9515V67.0151H30.8936ZM35.3487 67.1167C34.0199 67.1167 32.8604 66.4735 32.8435 65.0685L33.9353 64.9501C33.9353 65.8218 34.5362 66.2619 35.3571 66.2619C36.1104 66.2619 36.7197 66.0249 36.7197 65.3309C36.7197 64.6284 35.9242 64.6538 35.0355 64.4592C33.9606 64.2222 33.0043 63.8329 33.0043 62.6988C33.0043 61.4377 34.1553 60.9892 35.2217 60.9892C36.4828 60.9892 37.473 61.48 37.6084 62.8765L36.5335 63.0627C36.4997 62.2418 36.0173 61.8355 35.2132 61.8355C34.6123 61.8355 34.0791 62.0894 34.0791 62.648C34.0791 63.1897 34.7393 63.3589 35.5602 63.4943C36.8044 63.6975 37.8031 64.0191 37.8031 65.2886C37.8031 66.7189 36.5759 67.1167 35.3487 67.1167ZM39.9425 67.0151V61.9878H38.0213V61.0907H42.9301V61.9878H41.0004V67.0151H39.9425ZM46.9449 67.1167C45.6669 67.1167 44.8544 66.4396 44.8544 65.3394C44.8544 64.5523 45.176 64.0699 45.8616 63.8667C45.3876 63.6467 45.0914 63.2574 45.0914 62.648C45.0914 61.8355 45.65 61.1161 46.9534 61.1161C48.2483 61.1161 48.7984 61.8355 48.7984 62.648C48.7984 63.2574 48.4937 63.6467 48.0367 63.8583C48.7391 64.0614 49.0354 64.5607 49.0354 65.3394C49.0354 66.4989 48.1467 67.1167 46.9449 67.1167ZM45.8785 65.2971C45.8785 65.9234 46.2763 66.3211 46.9449 66.3211C47.622 66.3211 48.0113 65.9234 48.0113 65.2971C48.0113 64.7046 47.622 64.3238 46.9449 64.3238C46.3017 64.3238 45.8785 64.6792 45.8785 65.2971ZM46.0901 62.7242C46.0901 63.2066 46.3778 63.5451 46.9449 63.5451C47.5035 63.5451 47.7997 63.2066 47.7997 62.7242C47.7997 62.2164 47.5119 61.9117 46.9449 61.9117C46.3609 61.9117 46.0901 62.2248 46.0901 62.7242ZM51.9067 67.1167C50.4764 67.1167 49.7232 66.0926 49.7232 64.1122C49.7232 62.3518 50.4256 61.1161 51.9067 61.1161C53.3963 61.1161 54.1072 62.3602 54.1072 64.1122C54.1072 65.8895 53.3963 67.1167 51.9067 67.1167ZM50.798 64.1122C50.798 65.5764 51.0181 66.2873 51.9067 66.2873C52.2537 66.2873 52.4992 66.1773 52.6684 65.9572C52.9477 65.6102 53.0324 64.9839 53.0324 64.1122C53.0324 62.6988 52.8208 61.9625 51.9067 61.9625C51.5089 61.9625 51.2466 62.1063 51.0773 62.3941C50.8657 62.7411 50.798 63.3166 50.798 64.1122ZM56.998 67.1167C55.5677 67.1167 54.8144 66.0926 54.8144 64.1122C54.8144 62.3518 55.5169 61.1161 56.998 61.1161C58.4876 61.1161 59.1985 62.3602 59.1985 64.1122C59.1985 65.8895 58.4876 67.1167 56.998 67.1167ZM55.8893 64.1122C55.8893 65.5764 56.1094 66.2873 56.998 66.2873C57.345 66.2873 57.5905 66.1773 57.7597 65.9572C58.039 65.6102 58.1237 64.9839 58.1237 64.1122C58.1237 62.6988 57.9121 61.9625 56.998 61.9625C56.6002 61.9625 56.3379 62.1063 56.1686 62.3941C55.957 62.7411 55.8893 63.3166 55.8893 64.1122ZM60.0073 64.5269V63.6382H62.5717V64.5269H60.0073ZM65.4927 67.1167C63.7577 67.1167 63.3938 65.6102 63.3938 64.2814C63.3938 62.4026 63.9609 61.1161 65.6197 61.1161C66.7369 61.1161 67.2701 61.7847 67.3801 62.648L66.3983 62.7919C66.3645 62.3433 66.1529 61.9455 65.5858 61.9455C64.5956 61.9455 64.3671 62.9611 64.3586 64.0106C64.6125 63.4943 65.1288 63.2235 65.7297 63.2235C66.83 63.2235 67.5324 64.0529 67.5324 65.1532C67.5324 66.0757 66.9823 67.1167 65.4927 67.1167ZM64.4856 65.187C64.4856 65.7456 64.7564 66.2873 65.4758 66.2873C66.2037 66.2873 66.5253 65.9064 66.5253 65.1447C66.5253 64.4676 66.2206 64.0699 65.5181 64.0699C64.858 64.0699 64.4856 64.5269 64.4856 65.187ZM70.1755 67.1167C68.8636 67.1167 68.1612 66.3211 68.1527 65.2209L69.1683 65.0685C69.1599 65.8218 69.5153 66.2873 70.1755 66.2873C70.8102 66.2873 71.1995 65.9572 71.1995 65.3309C71.1995 64.6454 70.7002 64.4253 70.2178 64.4253H69.6846V63.5451H70.1162C70.5309 63.5451 70.9795 63.342 70.9795 62.7496C70.9795 62.2587 70.7002 61.9371 70.1755 61.9371C69.4138 61.9371 69.253 62.5634 69.2699 63.0204L68.2289 62.868C68.2797 61.7932 69.0583 61.1161 70.1755 61.1161C71.1995 61.1161 72.012 61.6662 72.012 62.7326C72.012 63.2404 71.7412 63.6636 71.2842 63.9006C71.9105 64.1122 72.2321 64.6877 72.2321 65.3224C72.2321 66.5073 71.3604 67.1167 70.1755 67.1167ZM39.8623 75.0151V70.7834H40.861V71.5451C40.9964 71.105 41.4196 70.7411 42.1052 70.6903C42.1729 70.6819 42.3337 70.6819 42.4014 70.6819L42.376 71.5959C42.3167 71.5874 42.2406 71.5874 42.1644 71.5874C41.3688 71.5874 40.8695 71.9091 40.8695 73.077V75.0151H39.8623ZM44.7165 75.1167C44.0563 75.1167 43.5485 74.9051 43.1846 74.5327C42.7953 74.1349 42.6175 73.5764 42.6175 72.8908C42.6175 72.2391 42.8037 71.6805 43.1846 71.2743C43.557 70.885 44.0648 70.6819 44.708 70.6819C45.3766 70.6819 45.9437 70.9358 46.2991 71.3843C46.6377 71.8075 46.8069 72.4507 46.7815 73.1786H43.6331C43.6501 73.9657 44.0055 74.3635 44.708 74.3635C45.3258 74.3635 45.6474 74.1011 45.7405 73.5848L46.7138 73.661C46.4938 74.6343 45.7998 75.1167 44.7165 75.1167ZM43.6416 72.4253H45.7575C45.7405 72.1883 45.6644 71.9429 45.5205 71.7652C45.3343 71.5367 45.0804 71.4351 44.708 71.4351C44.3102 71.4351 44.0225 71.5705 43.8532 71.8075C43.7178 71.9937 43.6585 72.2222 43.6416 72.4253ZM48.5157 75.0151L47.0092 70.7834H48.0841L48.7019 72.7893C48.7696 73.0093 48.905 73.4748 49.0827 74.0842C49.2097 73.6271 49.3366 73.1786 49.4551 72.7893L50.0899 70.7834H51.1478L49.6413 75.0151H48.5157ZM51.2581 75.0151V73.8726H52.3584V75.0151H51.2581ZM55.1041 75.1167C53.7923 75.1167 53.0898 74.3211 53.0813 73.2209L54.0969 73.0685C54.0885 73.8218 54.4439 74.2873 55.1041 74.2873C55.7388 74.2873 56.1282 73.9572 56.1282 73.3309C56.1282 72.6454 55.6288 72.4253 55.1464 72.4253H54.6132V71.5451H55.0448C55.4596 71.5451 55.9081 71.342 55.9081 70.7496C55.9081 70.2587 55.6288 69.9371 55.1041 69.9371C54.3424 69.9371 54.1816 70.5634 54.1985 71.0204L53.1575 70.868C53.2083 69.7932 53.9869 69.1161 55.1041 69.1161C56.1282 69.1161 56.9407 69.6662 56.9407 70.7326C56.9407 71.2404 56.6698 71.6636 56.2128 71.9006C56.8391 72.1122 57.1607 72.6877 57.1607 73.3224C57.1607 74.5073 56.289 75.1167 55.1041 75.1167Z" fill="#010668"/>
</g>
<defs>
<clipPath id="clip0_11543_6272">
<rect width="95.2651" height="95.5473" fill="white" transform="translate(0.278198)"/>
</clipPath>
</defs>
</svg>
