<svg width="166" height="72" viewBox="0 0 166 72" fill="none" xmlns="http://www.w3.org/2000/svg">
<path d="M0 16C0 7.16344 7.16344 0 16 0H150C158.837 0 166 7.16344 166 16V56C166 64.8366 158.837 72 150 72H16C7.16344 72 0 64.8366 0 56V16Z" fill="#F2F2F2"/>
<path d="M143.204 47.2826V46.6374H142.398C142.053 46.6374 141.548 46.6374 141.34 46.6605L143.18 43.9002V43.4175H140.535V44.0386H141.34C141.754 44.0386 142.146 44.0386 142.375 44.0155L140.513 46.798V47.3047H143.204V47.2826ZM139.8 46.6836C139.661 46.7057 139.454 46.7528 139.271 46.7528C138.857 46.7528 138.742 46.5682 138.742 45.9933V43.9463H139.824V43.3934H138.742V41.9455L138.029 42.1522V43.4175H137.247V43.9704H138.029V46.201C138.029 47.0518 138.282 47.3749 139.087 47.3749C139.34 47.3749 139.64 47.3519 139.847 47.2826L139.8 46.6836ZM136.535 47.2826V43.3944H135.821V45.2578C135.821 46.1317 135.362 46.7759 134.716 46.7759C134.211 46.7759 134.05 46.4538 134.05 45.9019V43.3944H133.36V46.1086C133.36 46.799 133.636 47.3509 134.533 47.3509C135.2 47.3509 135.683 46.9826 135.912 46.4528H135.934C135.889 46.6826 135.866 47.0508 135.866 47.2816H136.535V47.2826ZM132.025 47.2826V44.5684C132.025 43.8781 131.749 43.3262 130.852 43.3262C130.208 43.3262 129.725 43.6714 129.495 44.2002H129.473C129.519 43.9935 129.541 43.6714 129.541 43.4185V41.5783H128.828V47.3057H129.541V45.4424C129.541 44.5684 130 43.9232 130.646 43.9232C131.174 43.9232 131.312 44.2453 131.312 44.7972V47.3047H132.025V47.2826ZM127.84 46.5461C127.564 46.6615 127.266 46.7308 126.921 46.7308C126.047 46.7308 125.815 46.1327 125.815 45.3732C125.815 44.5213 126.207 43.9242 126.897 43.9242C127.218 43.9242 127.541 43.9935 127.794 44.1089L127.932 43.5108C127.656 43.4185 127.334 43.3503 126.966 43.3503C125.701 43.3503 125.058 44.2473 125.058 45.4885C125.058 46.9154 125.839 47.3759 126.759 47.3759C127.151 47.3759 127.587 47.3067 127.909 47.1682L127.84 46.5461ZM124.114 43.3724C123.885 43.3262 123.608 43.3031 123.355 43.3031C122.342 43.3031 121.814 43.8098 121.814 44.431C121.814 45.7886 123.631 45.3511 123.631 46.202C123.631 46.5702 123.333 46.7769 122.804 46.7769C122.504 46.7769 122.137 46.7077 121.883 46.6154L121.838 47.2365C122.091 47.3057 122.436 47.3288 122.757 47.3288C123.815 47.3288 124.367 46.8 124.367 46.1337C124.367 44.7761 122.527 45.1915 122.527 44.3617C122.527 44.0406 122.78 43.8329 123.286 43.8329C123.539 43.8329 123.838 43.8801 124.045 43.9483L124.114 43.3724ZM120.778 47.2826V44.5684C120.778 43.8781 120.502 43.3262 119.605 43.3262C118.938 43.3262 118.455 43.6945 118.224 44.2243H118.202C118.248 43.9945 118.272 43.6252 118.272 43.3954H117.581V47.2836H118.294V45.4203C118.294 44.5463 118.753 43.9022 119.398 43.9022C119.927 43.9022 120.065 44.2243 120.065 44.7761V47.2836L120.778 47.2826ZM113.994 44.8895C114.062 44.2233 114.454 43.855 114.96 43.855C115.512 43.855 115.857 44.2233 115.834 44.8895H113.994ZM116.34 46.5692C115.949 46.7067 115.58 46.7759 115.19 46.7759C114.362 46.7759 113.971 46.3384 113.995 45.3732H116.548C116.548 45.3732 116.57 45.1434 116.57 44.9136C116.57 44.0396 116.11 43.3031 115.03 43.3031C113.925 43.3031 113.282 44.1771 113.282 45.3511C113.282 46.7308 113.926 47.3519 115.122 47.3519C115.581 47.3519 116.041 47.2595 116.455 47.1221L116.34 46.5692ZM112.268 43.3724H111.578V47.2595H112.29V43.3724H112.268ZM112.383 42.1532C112.383 41.9004 112.176 41.6937 111.923 41.6937C111.67 41.6937 111.463 41.9004 111.463 42.1532C111.463 42.4061 111.67 42.6128 111.923 42.6128C112.176 42.6128 112.383 42.4061 112.383 42.1532ZM109.531 45.2588C109.531 45.9491 109.163 46.7538 108.449 46.7538C107.851 46.7538 107.598 46.2702 107.598 45.4424C107.598 44.3156 108.081 43.8781 108.841 43.8781C109.07 43.8781 109.3 43.9002 109.531 43.9704V45.2588ZM110.244 47.2826V41.5542H109.554V43.3724C109.3 43.3503 109.117 43.3262 108.886 43.3262C107.645 43.3262 106.862 44.154 106.862 45.5116C106.862 46.6384 107.321 47.3519 108.288 47.3519C108.909 47.3519 109.369 47.0067 109.599 46.4779H109.622C109.576 46.7077 109.554 47.0518 109.554 47.2595H110.244V47.2826ZM103.597 44.8895C103.665 44.2233 104.057 43.855 104.563 43.855C105.115 43.855 105.46 44.2233 105.437 44.8895H103.597ZM105.943 46.5692C105.551 46.7067 105.184 46.7759 104.793 46.7759C103.966 46.7759 103.574 46.3384 103.598 45.3732H106.151C106.151 45.3732 106.174 45.1434 106.174 44.9136C106.174 44.0396 105.714 43.3031 104.632 43.3031C103.529 43.3031 102.884 44.1771 102.884 45.3511C102.884 46.7308 103.53 47.3519 104.725 47.3519C105.185 47.3519 105.645 47.2595 106.059 47.1221L105.943 46.5692ZM101.873 47.2826V44.5905C101.873 43.6934 101.459 43.3021 100.723 43.3021C99.9635 43.3021 99.5491 43.8309 99.3885 44.2002C99.3664 43.8791 99.1357 43.3021 98.3079 43.3021C97.6877 43.3021 97.181 43.6473 96.9503 44.2002C96.9964 43.9704 96.9964 43.6021 96.9964 43.3724H96.3061V47.2595H97.0185V45.4193C97.0185 44.5213 97.5021 43.8791 98.1002 43.8791C98.629 43.8791 98.7443 44.2694 98.7443 44.7761V47.2836H99.4347V45.4424C99.4347 44.4992 99.9625 43.9012 100.514 43.9012C101.021 43.9012 101.16 44.2463 101.16 44.7982V47.3057H101.873V47.2826ZM94.2822 45.2588C94.2822 45.9491 93.914 46.7538 93.2005 46.7538C92.6025 46.7538 92.3496 46.2702 92.3496 45.4424C92.3496 44.3156 92.8313 43.8781 93.5909 43.8781C93.8206 43.8781 94.0504 43.9002 94.2812 43.9704V45.2588H94.2822ZM94.9725 47.2826V41.5542H94.2822V43.3724C94.0283 43.3503 93.8447 43.3262 93.6139 43.3262C92.3727 43.3262 91.5901 44.154 91.5901 45.5116C91.5901 46.6384 92.0496 47.3519 93.0159 47.3519C93.637 47.3519 94.0976 47.0067 94.3274 46.4779H94.3504C94.3043 46.7077 94.2822 47.0518 94.2822 47.2595H94.9725V47.2826ZM90.6017 47.2826V44.5684C90.6017 43.8781 90.3258 43.3262 89.4277 43.3262C88.7615 43.3262 88.2778 43.6945 88.0481 44.2243H88.026C88.0721 43.9945 88.0942 43.6252 88.0942 43.3954H87.4049V47.2836H88.1173V45.4203C88.1173 44.5463 88.5779 43.9022 89.223 43.9022C89.7288 43.9022 89.8893 44.2243 89.8893 44.7761V47.2836L90.6017 47.2826ZM83.8398 44.8895C83.908 44.2233 84.2993 43.855 84.8051 43.855C85.3579 43.855 85.7031 44.2233 85.679 44.8895H83.8398ZM86.1857 46.5692C85.7944 46.7067 85.4262 46.7759 85.0358 46.7759C84.207 46.7759 83.8167 46.3384 83.8398 45.3732H86.3924C86.3924 45.3732 86.4155 45.1434 86.4155 44.9136C86.4155 44.0396 85.955 43.3031 84.8743 43.3031C83.7695 43.3031 83.1264 44.1771 83.1264 45.3511C83.1264 46.7308 83.7705 47.3519 84.9666 47.3519C85.4262 47.3519 85.8867 47.2595 86.3001 47.1221L86.1857 46.5692ZM81.4938 44.7059C81.4938 45.2126 81.1717 45.5798 80.6199 45.5798C80.068 45.5798 79.7459 45.2126 79.7459 44.7059C79.7459 44.2002 80.068 43.8319 80.6199 43.8319C81.1717 43.8319 81.4938 44.2002 81.4938 44.7059ZM80.3439 47.2355L80.9881 47.2585C81.6323 47.2816 81.8852 47.5345 81.8852 47.9027C81.8852 48.3854 81.4938 48.7305 80.6891 48.7305C80.0449 48.7305 79.6305 48.4777 79.6305 47.995C79.6305 47.7201 79.8151 47.4201 80.1362 47.2134C80.2055 47.2355 80.2747 47.2355 80.3439 47.2355ZM82.5514 43.9473V43.3944H81.2169C81.0323 43.3493 80.8486 43.3262 80.665 43.3262C79.6074 43.3262 79.0776 43.9714 79.0776 44.7751C79.0776 45.2126 79.2613 45.6029 79.6526 45.8558C79.3766 46.0404 79.2151 46.2471 79.2151 46.523C79.2151 46.7759 79.3305 46.9605 79.5603 47.098C79.192 47.3278 78.893 47.7191 78.893 48.1566C78.893 48.8911 79.5372 49.3065 80.5486 49.3065C81.7908 49.3065 82.5735 48.6854 82.5735 47.8345C82.5735 47.1442 82.1139 46.7298 81.1707 46.6846L80.5496 46.6625C80.0901 46.6394 79.9516 46.5471 79.9516 46.3625C79.9516 46.2702 80.0208 46.1327 80.1583 46.0414C80.2737 46.0645 80.4342 46.0645 80.5727 46.0645C81.6313 46.0645 82.1601 45.4434 82.1601 44.6146C82.1601 44.3617 82.0919 44.1329 81.9534 43.9242H82.5514V43.9473ZM77.9508 47.2826V43.3944H77.2384V45.2578C77.2384 46.1317 76.7788 46.7759 76.1346 46.7759C75.6289 46.7759 75.4674 46.4538 75.4674 45.9019V43.3944H74.777V46.1086C74.777 46.799 75.053 47.3509 75.95 47.3509C76.6173 47.3509 77.0999 46.9826 77.3297 46.4528H77.3528C77.3066 46.6826 77.2835 47.0508 77.2835 47.2816H77.9508V47.2826ZM73.4435 41.9917H72.7311V45.8568C72.7311 46.5471 72.4552 46.7308 72.0187 46.7308C71.8341 46.7308 71.5591 46.6846 71.4207 46.6384V47.2595C71.5822 47.3057 71.8351 47.3278 72.0648 47.3278C73.0311 47.3278 73.4676 46.7759 73.4676 45.8799V41.9917H73.4435Z" fill="#020204"/>
<path d="M124.918 33.8953C124.137 33.8271 123.745 34.3548 123.585 34.8846H123.562C123.63 34.5626 123.654 34.1943 123.654 33.9645H122.964V37.8527H123.677V36.2884C123.677 35.0462 124.068 34.4482 124.896 34.5866L124.918 33.8953ZM119.698 32.7454C119.698 32.5156 119.513 32.331 119.283 32.331C119.054 32.331 118.87 32.5156 118.87 32.7454C118.87 32.9752 119.055 33.1598 119.283 33.1598C119.514 33.1598 119.698 32.9762 119.698 32.7454ZM121.216 32.7454C121.216 32.5156 121.031 32.331 120.802 32.331C120.573 32.331 120.388 32.5156 120.388 32.7454C120.388 32.9752 120.573 33.1598 120.802 33.1598C121.031 33.1598 121.216 32.9762 121.216 32.7454ZM121.629 37.8748V33.9645H120.917V35.8278C120.917 36.7018 120.457 37.346 119.812 37.346C119.306 37.346 119.146 37.0239 119.146 36.472V33.9645H118.455V36.6787C118.455 37.3691 118.73 37.9209 119.627 37.9209C120.295 37.9209 120.777 37.5527 121.008 37.0229H121.03C120.985 37.2527 120.962 37.6219 120.962 37.8517H121.628L121.629 37.8748ZM117.674 33.9645H116.593V33.6655C116.593 32.9752 116.846 32.6531 117.375 32.6531C117.674 32.6531 117.95 32.7454 117.95 32.7454L118.019 32.1474C118.019 32.1474 117.696 32.0781 117.398 32.0781C116.455 32.0781 115.879 32.5838 115.879 33.7107V33.9635H115.074V34.5154H115.879V37.8738H116.592V34.5154H117.673L117.674 33.9645ZM112.683 37.8748V35.1375C112.683 34.4472 112.407 33.8953 111.509 33.8953C110.843 33.8953 110.359 34.2635 110.129 34.7923H110.106C110.153 34.5626 110.175 34.1943 110.175 33.9645H109.485V37.8527H110.197V35.9894C110.197 35.1154 110.658 34.4712 111.302 34.4712C111.831 34.4712 111.969 34.7933 111.969 35.3452V37.8527H112.683V37.8748ZM107.783 35.9202C107.783 36.9085 107.301 37.346 106.679 37.346C105.988 37.346 105.598 36.8403 105.598 35.9202C105.598 34.977 106.035 34.4943 106.702 34.4943C107.37 34.4943 107.783 35 107.783 35.9202ZM108.52 35.8509C108.52 34.5164 107.829 33.8953 106.772 33.8953C105.531 33.8953 104.863 34.8154 104.863 35.9653C104.863 37.2988 105.554 37.9199 106.611 37.9199C107.853 37.945 108.52 37.0239 108.52 35.8509ZM103.874 33.9645H103.161V37.8527H103.874V33.9645ZM103.988 32.7454C103.988 32.4925 103.782 32.2858 103.529 32.2858C103.275 32.2858 103.068 32.4935 103.068 32.7454C103.068 32.9982 103.275 33.2049 103.529 33.2049C103.782 33.1829 103.988 32.9762 103.988 32.7454ZM101.849 33.9645C101.619 33.9184 101.343 33.8953 101.091 33.8953C100.077 33.8953 99.5483 34.401 99.5483 35.0231C99.5483 36.3807 101.367 35.9432 101.367 36.7941C101.367 37.1624 101.067 37.3681 100.539 37.3681C100.24 37.3681 99.8724 37.2998 99.6186 37.2075L99.5724 37.8286C99.8253 37.8969 100.17 37.9209 100.493 37.9209C101.551 37.9209 102.102 37.3922 102.102 36.7259C102.102 35.3683 100.262 35.7827 100.262 34.9539C100.262 34.6318 100.515 34.4251 101.021 34.4251C101.274 34.4251 101.573 34.4712 101.781 34.5405L101.849 33.9645ZM98.5138 33.9645C98.284 33.9184 98.0081 33.8953 97.7553 33.8953C96.7428 33.8953 96.214 34.401 96.214 35.0231C96.214 36.3807 98.0322 35.9432 98.0322 36.7941C98.0322 37.1624 97.7322 37.3681 97.2034 37.3681C96.9054 37.3681 96.5371 37.2998 96.2843 37.2075L96.2371 37.8286C96.491 37.8969 96.8361 37.9209 97.1582 37.9209C98.2158 37.9209 98.7677 37.3922 98.7677 36.7259C98.7677 35.3683 96.9284 35.7827 96.9284 34.9539C96.9284 34.6318 97.1813 34.4251 97.688 34.4251C97.9409 34.4251 98.2389 34.4712 98.4466 34.5405L98.5138 33.9645ZM95.1795 33.9645H94.4661V37.8527H95.1795V33.9645ZM95.2939 32.7454C95.2939 32.4925 95.0872 32.2858 94.8343 32.2858C94.5805 32.2858 94.3748 32.4935 94.3748 32.7454C94.3748 32.9982 94.5805 33.2049 94.8343 33.2049C95.0872 33.206 95.2939 32.9762 95.2939 32.7454ZM93.1326 37.8748V35.1837C93.1326 34.2866 92.7182 33.8953 91.9827 33.8953C91.2241 33.8953 90.8097 34.401 90.6481 34.7923C90.6261 34.4702 90.3953 33.8953 89.5685 33.8953C88.9474 33.8953 88.4417 34.2405 88.2099 34.7923C88.257 34.5626 88.257 34.1943 88.257 33.9645H87.5667V37.8527H88.2791V36.0125C88.2791 35.1154 88.7617 34.4712 89.3598 34.4712C89.8886 34.4712 90.005 34.8626 90.005 35.3683V37.8758H90.6953V36.0355C90.6953 35.0934 91.2241 34.4943 91.776 34.4943C92.2827 34.4943 92.4202 34.8395 92.4202 35.3914V37.8979H93.1336L93.1326 37.8748ZM86.2322 37.8748V35.1837C86.2322 34.2866 85.8188 33.8953 85.0823 33.8953C84.3237 33.8953 83.9093 34.401 83.7487 34.7923C83.7267 34.4702 83.4959 33.8953 82.6671 33.8953C82.046 33.8953 81.5403 34.2405 81.3105 34.7923C81.3556 34.5626 81.3556 34.1943 81.3556 33.9645H80.6653V37.8527H81.3777V36.0125C81.3777 35.1154 81.8603 34.4712 82.4594 34.4712C82.9882 34.4712 83.1036 34.8626 83.1036 35.3683V37.8758H83.7939V36.0355C83.7939 35.0934 84.3227 34.4943 84.8746 34.4943C85.3813 34.4943 85.5187 34.8395 85.5187 35.3914V37.8979H86.2322V37.8748ZM78.9635 35.9202C78.9635 36.9085 78.4809 37.346 77.8598 37.346C77.1694 37.346 76.7781 36.8403 76.7781 35.9202C76.7781 34.977 77.2156 34.4943 77.8828 34.4943C78.5722 34.4943 78.9635 35 78.9635 35.9202ZM79.699 35.8509C79.699 34.5164 79.0087 33.8953 77.9511 33.8953C76.7089 33.8953 76.0426 34.8154 76.0426 35.9653C76.0426 37.2988 76.7329 37.9199 77.7905 37.9199C79.0327 37.945 79.699 37.0239 79.699 35.8509ZM75.858 37.8748L73.5351 35.1375L75.7667 32.5848H74.8927L72.7996 35.0693V32.5618H72.0862V37.8517H72.7996V35.2519L74.8927 37.8738L75.858 37.8748Z" fill="#020204"/>
<path d="M63.0244 47.2825V37.415C63.0244 34.172 61.46 32.7221 58.7689 32.7221C56.0086 32.7221 54.4904 34.6315 53.8693 35.9651C53.7549 34.7921 52.9492 32.7221 49.937 32.7221C47.6372 32.7221 45.7969 34.0104 44.9691 36.0343L44.946 36.0112C45.0835 35.1373 45.1527 33.8499 45.1527 32.999H42.6452V47.2825H45.244V40.4964C45.244 37.2073 47.0612 34.8613 49.2456 34.8613C51.2013 34.8613 51.5685 36.3102 51.5685 38.1043V47.2815H54.1212V40.4954C54.1212 37.0217 56.0758 34.8603 58.1227 34.8603C59.986 34.8603 60.4456 36.1487 60.4456 38.1033V47.2805H63.0244V47.2825ZM38.8273 32.9759H36.2746V49.0755C36.2746 51.6292 35.7227 52.3878 34.1815 52.3878C33.0547 52.3878 32.1577 52.0667 32.1577 52.0667L31.9269 54.3434C31.9269 54.3434 32.9393 54.5732 34.0892 54.5732C37.5168 54.5732 38.8273 52.6647 38.8273 48.8468V32.9759ZM39.2648 28.4676C39.2648 27.5254 38.4831 26.7659 37.563 26.7659C36.6198 26.7659 35.8381 27.5254 35.8381 28.4676C35.8381 29.4108 36.6198 30.1463 37.563 30.1463C38.4821 30.1463 39.2648 29.3878 39.2648 28.4676ZM33.9748 47.2825L28.0407 39.3927L33.446 32.9759H30.4087L25.3947 39.2552V26.2822H22.7959V47.2825H25.3947V39.9215L30.6847 47.2825H33.9748Z" fill="#0B65AF"/>
<path d="M63.2543 21.6596C58.0787 18.3704 53.1339 17.4272 48.9246 17.4272C44.6923 17.4272 40.1388 18.233 34.7797 21.5904L35.6998 23.545C39.7947 21.1298 44.1866 19.9568 49.1093 19.9568C53.7781 19.9568 58.3326 21.176 62.3341 23.5219L63.2543 21.6596Z" fill="#0B65AF"/>
</svg>
