<svg width="64" height="64" viewBox="0 0 64 64" fill="none" xmlns="http://www.w3.org/2000/svg">
<path d="M47 16.7672H35V15.7672H47V16.7672ZM35 22.7672H47V21.7672H35V22.7672ZM33 15.7672H32V16.7672H33V15.7672ZM32 22.7672H33V21.7672H32V22.7672ZM8.5 44.2672V10.2672C8.5 9.43921 9.172 8.76721 10 8.76721H50C50.828 8.76721 51.5 9.43921 51.5 10.2672V32.2672H52.5V10.2672C52.5 8.88921 51.378 7.76721 50 7.76721H10C8.622 7.76721 7.5 8.88921 7.5 10.2672V44.2672C7.5 45.6452 8.622 46.7672 10 46.7672H30V45.7672H10C9.172 45.7672 8.5 45.0952 8.5 44.2672ZM41.778 48.0052L37.688 43.9152L36.98 44.6232L41.778 49.4212L51.022 40.1792L50.314 39.4712L41.778 48.0072V48.0052ZM61.646 62.6212L52.114 53.0892C49.976 55.0572 47.132 56.2672 44 56.2672C37.372 56.2672 32 50.8952 32 44.2672C32 37.6392 37.372 32.2672 44 32.2672C50.628 32.2672 56 37.6392 56 44.2672C56 47.4012 54.788 50.2452 52.822 52.3812L62.354 61.9132L61.646 62.6212ZM44 55.2672C50.066 55.2672 55 50.3332 55 44.2672C55 38.2012 50.066 33.2672 44 33.2672C37.934 33.2672 33 38.2012 33 44.2672C33 50.3332 37.934 55.2672 44 55.2672ZM20 22.2672C17.79 22.2672 16 20.4772 16 18.2672C16 16.0572 17.79 14.2672 20 14.2672C22.21 14.2672 24 16.0572 24 18.2672C24 20.4772 22.21 22.2672 20 22.2672ZM20 21.2672C21.654 21.2672 23 19.9212 23 18.2672C23 16.6132 21.654 15.2672 20 15.2672C18.346 15.2672 17 16.6132 17 18.2672C17 19.9212 18.346 21.2672 20 21.2672ZM13.5 28.2672H14.5C14.5 26.5812 16.22 24.7672 20 24.7672C23.78 24.7672 25.5 26.5812 25.5 28.2672H26.5C26.5 26.1012 24.466 23.7672 20 23.7672C15.534 23.7672 13.5 26.1012 13.5 28.2672Z" fill="#7379FD"/>
</svg>
