<svg width="108" height="17" viewBox="0 0 108 17" fill="none" xmlns="http://www.w3.org/2000/svg">
<g clip-path="url(#clip0_20326_7291)">
<path d="M105.746 7.98394C105.415 7.98394 105.092 7.88593 104.817 7.70231C104.543 7.5187 104.328 7.25771 104.202 6.95237C104.076 6.64702 104.042 6.31103 104.107 5.98687C104.171 5.66272 104.331 5.36497 104.564 5.13127C104.798 4.89756 105.096 4.73841 105.42 4.67393C105.744 4.60946 106.08 4.64255 106.385 4.76903C106.691 4.8955 106.952 5.10969 107.135 5.38449C107.319 5.6593 107.417 5.98238 107.417 6.31288C107.417 6.75607 107.241 7.18111 106.927 7.4945C106.614 7.80788 106.189 7.98394 105.746 7.98394ZM105.746 4.81476C105.449 4.81115 105.158 4.89582 104.91 5.05803C104.661 5.22024 104.467 5.45265 104.351 5.72572C104.235 5.9988 104.202 6.30021 104.258 6.59166C104.314 6.8831 104.455 7.15142 104.663 7.3625C104.872 7.57359 105.138 7.71792 105.429 7.77714C105.72 7.83637 106.022 7.80782 106.296 7.69512C106.57 7.58243 106.805 7.39067 106.97 7.14422C107.136 6.89778 107.224 6.60777 107.224 6.31106C107.223 5.91764 107.068 5.54032 106.791 5.26043C106.515 4.98054 106.139 4.82048 105.746 4.81476ZM106.19 7.19028L105.733 6.43848H105.435V7.19028H105.227V5.38452H105.819C105.891 5.38085 105.964 5.39178 106.033 5.41667C106.101 5.44156 106.164 5.4799 106.217 5.52943C106.271 5.57896 106.314 5.63869 106.344 5.70508C106.374 5.77148 106.39 5.84321 106.392 5.91605C106.392 6.03589 106.349 6.1518 106.273 6.24383C106.196 6.33587 106.089 6.39826 105.972 6.42028L106.438 7.19028H106.19ZM105.788 5.58293H105.424V6.24371H105.788C105.835 6.25077 105.883 6.24753 105.929 6.23422C105.975 6.2209 106.018 6.19782 106.054 6.16655C106.091 6.13528 106.12 6.09655 106.14 6.05301C106.16 6.00946 106.17 5.96213 106.17 5.91423C106.17 5.86633 106.16 5.819 106.14 5.77546C106.12 5.73191 106.091 5.69318 106.054 5.66191C106.018 5.63064 105.975 5.60756 105.929 5.59424C105.883 5.58093 105.835 5.57769 105.788 5.58475V5.58293ZM81.805 4.68369C81.7486 4.68369 81.7304 4.7019 81.2261 4.72192C80.7219 4.74194 79.7262 4.76197 77.7402 4.76197H75.3283C73.3423 4.76197 72.3612 4.74376 71.8424 4.72192C71.3236 4.70007 71.3199 4.68369 71.2635 4.68369C71.0323 4.68369 71.0323 4.83842 71.0323 5.28076V7.05375C71.0323 7.15023 71.0323 7.38141 71.2253 7.38141C71.4182 7.38141 71.4747 7.30314 71.8223 6.59139C72.0481 6.09808 72.5031 5.38452 75.1226 5.36085C75.3938 5.36995 75.5085 5.43184 75.5085 5.85962V14.8156C75.5085 15.5674 75.5085 16.0898 74.5437 16.1444C74.1396 16.1827 73.872 16.2027 73.872 16.4721C73.872 16.7415 74.1214 16.7597 74.2761 16.7597C74.6402 16.7597 76.202 16.6833 76.5297 16.6833C77.1668 16.6833 78.168 16.7597 78.8033 16.7597C78.958 16.7597 79.2074 16.7597 79.2074 16.4721C79.2074 16.1845 78.938 16.1627 78.5321 16.1444C77.5691 16.0862 77.5691 15.5656 77.5691 14.7774V5.99432C77.5691 5.49374 77.631 5.38816 78.1935 5.36449C80.5927 5.43002 81.0277 6.11265 81.2461 6.59139C81.5938 7.30314 81.6321 7.38141 81.8432 7.38141C82.0544 7.38141 82.0362 7.15023 82.0362 7.05375V5.27894C82.0362 4.83842 82.0362 4.68369 81.805 4.68369ZM60.9823 13.6979C60.8003 13.6979 60.7712 13.7744 60.4235 14.4479C59.577 16.0862 58.3829 16.0862 57.5346 16.0862C55.9164 16.0862 55.5122 15.875 55.5122 14.5062V11.195C55.5122 10.6179 55.6651 10.6179 56.5899 10.6179C58.1699 10.6179 58.7105 10.6361 59.1147 12.1215C59.2111 12.4856 59.3258 12.5839 59.4787 12.5839C59.7099 12.5839 59.7099 12.3145 59.7099 12.198C59.7099 12.0433 59.6517 11.3697 59.6517 11.235C59.6517 10.8109 59.7864 8.82675 59.7864 8.55916C59.7864 8.348 59.6899 8.28793 59.5752 8.28793C59.4605 8.28793 59.3823 8.32798 59.2858 8.57736C58.9381 9.59857 58.767 10.0209 56.6281 10.0209C55.5122 10.0209 55.5122 9.86615 55.5122 9.25088V6.45487C55.5122 5.49192 55.5887 5.36267 56.5516 5.36267C59.2821 5.36267 59.7481 6.0908 59.9811 6.59503C60.3288 7.30678 60.367 7.38505 60.5782 7.38505C60.7894 7.38505 60.7712 7.15387 60.7712 7.05739V5.27894C60.7712 4.8366 60.7712 4.68187 60.54 4.68187C60.4817 4.68187 60.4635 4.70007 59.9629 4.7201C59.4623 4.74012 58.4593 4.76015 56.477 4.76015H55.5577C53.9195 4.76015 53.0912 4.74194 52.6689 4.7201C52.5075 4.7163 52.3465 4.70354 52.1865 4.68187C52.0518 4.68187 51.8006 4.68187 51.8006 4.9531C51.8006 5.22433 52.0718 5.26073 52.4941 5.27894C53.4571 5.33719 53.4571 5.85598 53.4571 6.646V14.7774C53.4571 15.5674 53.4571 16.088 52.4941 16.1444C52.09 16.1827 51.8006 16.2027 51.8006 16.4721C51.8006 16.7415 52.0518 16.7597 52.2047 16.7597C52.3576 16.7597 52.4941 16.7397 52.8036 16.7215C53.1131 16.7033 53.5936 16.6833 54.3836 16.6833H54.613C54.7295 16.6833 55.6342 16.7015 56.7337 16.7215C57.8332 16.7415 59.1984 16.7597 60.1796 16.7597C60.7402 16.7597 60.9313 16.5486 60.9495 16.1809C61.0078 15.4691 61.2208 14.2349 61.2208 13.9855C61.2135 13.8727 61.1571 13.6979 60.9823 13.6979ZM92.4211 13.6979C92.2391 13.6979 92.21 13.7744 91.8623 14.4479C91.0158 16.0862 89.8217 16.0862 88.9734 16.0862C87.3552 16.0862 86.951 15.875 86.951 14.5062V11.195C86.951 10.6179 87.104 10.6179 88.0287 10.6179C89.6087 10.6179 90.1494 10.6361 90.5535 12.1215C90.6499 12.4856 90.7646 12.5839 90.9175 12.5839C91.1487 12.5839 91.1487 12.3145 91.1487 12.198C91.1487 12.0433 91.0905 11.3697 91.0905 11.235C91.0905 10.8109 91.2252 8.82675 91.2252 8.55916C91.2252 8.348 91.1287 8.28793 91.014 8.28793C90.8993 8.28793 90.8211 8.32798 90.7246 8.57736C90.3769 9.59857 90.2058 10.0209 88.0669 10.0209C86.951 10.0209 86.951 9.86615 86.951 9.25088V6.45487C86.951 5.49192 87.0275 5.36267 87.9904 5.36267C90.7209 5.36267 91.1869 6.0908 91.4199 6.59503C91.7676 7.30678 91.8058 7.38505 92.017 7.38505C92.2282 7.38505 92.21 7.15387 92.21 7.05739V5.27894C92.21 4.8366 92.21 4.68187 91.9788 4.68187C91.9205 4.68187 91.9023 4.70007 91.4017 4.7201C90.9011 4.74012 89.8981 4.76015 87.9158 4.76015H86.9929C85.3546 4.76015 84.5264 4.74194 84.1041 4.7201C83.9427 4.7163 83.7816 4.70354 83.6217 4.68187C83.487 4.68187 83.2358 4.68187 83.2358 4.9531C83.2358 5.22433 83.507 5.26073 83.9293 5.27894C84.8923 5.33719 84.8923 5.85598 84.8923 6.646V14.7774C84.8923 15.5674 84.8923 16.088 83.9293 16.1444C83.5252 16.1827 83.2358 16.2027 83.2358 16.4721C83.2358 16.7415 83.487 16.7597 83.6399 16.7597C83.7928 16.7597 83.9293 16.7397 84.2388 16.7215C84.5482 16.7033 85.0288 16.6833 85.8188 16.6833H86.0482C86.1647 16.6833 87.0694 16.7015 88.1688 16.7215C89.2683 16.7415 90.6336 16.7597 91.6147 16.7597C92.1754 16.7597 92.3665 16.5486 92.3847 16.1809C92.443 15.4691 92.6559 14.2349 92.6559 13.9855C92.6523 13.8727 92.594 13.6979 92.4211 13.6979ZM67.0549 9.33826C65.4822 8.69022 64.3426 8.19874 64.3426 6.80255C64.3426 6.03801 64.9615 4.92579 66.4851 4.94036C68.1234 4.95492 68.4693 6.03255 68.7059 6.80255C68.9025 7.41236 68.9826 7.53068 69.1774 7.53068C69.4541 7.53068 69.4541 7.37231 69.4541 6.94089C69.4541 5.21159 69.4541 5.03501 69.2175 4.89667C68.9426 4.75833 67.7849 4.44523 66.6435 4.44523C64.1479 4.44523 62.7717 6.01617 62.7717 7.82375C62.7717 9.90802 64.3244 10.6726 65.9154 11.3807C67.3298 12.0287 68.6641 12.775 68.6641 14.3077C68.6641 15.8987 67.115 16.4375 66.2977 16.4375C64.9033 16.4375 63.5562 15.2579 63.1794 13.5468C63.1412 13.3648 63.1139 13.1682 62.9392 13.1682C62.7025 13.1682 62.6898 13.4431 62.6898 13.5214C62.6883 14.1248 62.7229 14.7278 62.7935 15.3271C62.8463 15.8168 62.9246 16.2118 63.1412 16.3702C63.4944 16.625 64.4646 17 65.9973 17C68.6113 17 70.2223 15.1797 70.2223 12.9953C70.2186 10.7709 68.1562 9.8079 67.0549 9.33826ZM20.7495 4.44523C16.9669 4.44523 14.1272 7.15569 14.1272 10.6926C14.1272 14.4443 17.2854 17 20.6913 17C24.0024 17 27.2335 14.3278 27.2335 10.516C27.2335 7.13567 24.392 4.44523 20.7495 4.44523ZM20.846 16.4594C18.252 16.4594 16.4026 13.4485 16.4026 10.283C16.4026 7.50701 18.1374 4.98405 20.5202 4.98405C23.5747 4.98405 24.949 8.26063 24.949 10.5943C24.949 13.4303 23.5346 16.4594 20.846 16.4594ZM12.8948 0C12.6278 0.0388402 12.3583 0.0577026 12.0884 0.05643C11.3603 0.0837349 9.90404 0.11104 7.01519 0.11104H6.40902C3.65123 0.11104 2.64277 0.0819146 1.92192 0.05643C1.66077 0.0520328 1.40007 0.033194 1.141 0C0.948049 0 0.583984 0 0.583984 0.389549C0.583984 0.779098 1.00266 0.808223 1.58516 0.862833C2.97771 0.946568 2.97771 1.69836 2.97771 2.8397V14.366C2.97771 15.2907 2.97771 15.9315 1.79086 16.0043C1.29209 16.0516 0.962612 16.0753 0.962612 16.4084C0.962612 16.7415 1.26843 16.7634 1.45956 16.7634C1.911 16.7634 3.87513 16.6687 4.27742 16.6687C5.06198 16.6687 6.33439 16.7634 7.1153 16.7634C7.29734 16.7634 7.61225 16.7634 7.61225 16.4084C7.61225 16.0534 7.28095 16.0188 6.78219 16.0025C5.59715 15.9315 5.59716 15.2907 5.59716 14.3187V10.0445C5.59716 9.25452 5.59716 8.94143 6.05042 8.81765C6.34713 8.73755 7.63046 8.73755 8.44778 8.73755C9.14314 8.73755 10.9252 8.73755 11.3148 10.2393C11.3712 10.3795 11.5551 11.1003 11.6206 11.2969C11.6679 11.4371 11.7753 11.7556 12.0648 11.7411C12.3979 11.7247 12.3997 11.408 12.3997 11.2132L12.2887 9.90438C12.2341 9.26363 12.2341 8.79216 12.2341 8.54096C12.2341 8.1241 12.316 6.23097 12.316 5.84324C12.316 5.56473 12.2322 5.38452 11.9828 5.36813C11.7335 5.35175 11.5933 5.59203 11.5387 5.81411C11.1837 7.25945 10.7778 7.87472 8.53152 7.87472C8.11466 7.87472 6.46181 7.87472 6.04313 7.81829C5.67907 7.76186 5.59898 7.73455 5.59898 6.23279V2.3373C5.59898 1.0303 6.07408 0.973873 7.01883 0.973873C11.3494 0.973873 11.7116 1.5673 12.5417 3.42221C12.6454 3.65339 12.7547 3.97923 13.0605 3.97923C13.3663 3.97923 13.3663 3.53507 13.3663 3.44951V0.500589C13.3663 0.138345 13.339 0 12.8948 0ZM38.4777 16.1827C37.9316 16.1026 37.6694 15.6238 37.2853 14.9503L35.4177 11.6373C34.9735 10.8291 34.7424 10.7144 34.4911 10.5597C35.1465 10.425 37.1306 9.96263 37.1306 7.70907C37.1306 7.03373 36.8412 4.68369 33.4335 4.68369C32.8547 4.68369 30.2935 4.76197 29.7729 4.76197C29.5417 4.76197 28.5988 4.68369 28.4058 4.68369C27.7705 4.68369 27.6922 4.68369 27.6922 4.95492C27.6922 5.22615 27.9635 5.24253 28.3858 5.26255C29.3287 5.32081 29.3287 5.84142 29.3287 6.62962V14.7956C29.3287 15.6038 29.3287 16.1062 28.3858 16.1827C27.9817 16.2009 27.6922 16.2209 27.6922 16.4921C27.6922 16.7634 27.9434 16.7615 28.0964 16.7615C28.444 16.7615 30.004 16.6851 30.3317 16.6851C30.4082 16.6851 32.2776 16.7615 32.6435 16.7615C32.7964 16.7615 33.0476 16.7797 33.0476 16.5122C33.0476 16.2446 32.7764 16.2027 32.3541 16.1845C31.3911 16.1262 31.3911 15.6056 31.3911 14.7974V11.3388C31.3911 11.0111 31.4312 10.8965 31.7552 10.8965C32.6235 10.8965 32.7182 10.9729 33.1423 11.8066L35.4759 16.1827C35.6871 16.5868 35.7636 16.7615 36.1112 16.7615H38.6488C38.7835 16.7615 38.9746 16.7288 38.9746 16.5304C38.9746 16.3319 38.8818 16.2427 38.4777 16.1827ZM32.3541 10.3849C31.3911 10.3849 31.3911 10.3467 31.3911 9.67138V6.43666C31.3911 5.68487 31.4093 5.22251 32.3013 5.22251C34.6896 5.22251 34.959 7.28311 34.959 7.97666C34.9553 10.3849 33.0476 10.3849 32.3541 10.3849ZM50.561 16.1827C50.0149 16.1026 49.7527 15.6238 49.3686 14.9503L47.501 11.6373C47.0568 10.8291 46.8257 10.7144 46.5745 10.5597C47.2298 10.425 49.2139 9.96263 49.2139 7.70907C49.2139 7.03373 48.9245 4.68369 45.5168 4.68369C44.938 4.68369 42.3768 4.76197 41.8562 4.76197C41.625 4.76197 40.6821 4.68369 40.4891 4.68369C39.8538 4.68369 39.7755 4.68369 39.7755 4.95492C39.7755 5.22615 40.0468 5.24253 40.4691 5.26255C41.412 5.32081 41.412 5.84142 41.412 6.62962V14.7956C41.412 15.6038 41.412 16.1062 40.4691 16.1827C40.065 16.2009 39.7755 16.2209 39.7755 16.4921C39.7755 16.7634 40.0268 16.7615 40.1797 16.7615C40.5273 16.7615 42.0874 16.6851 42.415 16.6851C42.4915 16.6851 44.3609 16.7615 44.7268 16.7615C44.8797 16.7615 45.1309 16.7797 45.1309 16.5122C45.1309 16.2446 44.8597 16.2027 44.4374 16.1845C43.4744 16.1262 43.4744 15.6056 43.4744 14.7974V11.3388C43.4744 11.0111 43.5145 10.8965 43.8385 10.8965C44.7068 10.8965 44.8015 10.9729 45.2256 11.8066L47.5574 16.1827C47.7686 16.5868 47.845 16.7615 48.1927 16.7615H50.7303C50.865 16.7615 51.0561 16.7288 51.0561 16.5304C51.0561 16.3319 50.9651 16.2427 50.561 16.1827ZM44.4374 10.3849C43.4744 10.3849 43.4744 10.3467 43.4744 9.67138V6.43666C43.4744 5.68487 43.4926 5.22251 44.3846 5.22251C46.7729 5.22251 47.0423 7.28311 47.0423 7.97666C47.0368 10.3849 45.1309 10.3849 44.4374 10.3849ZM104.524 16.1827C103.978 16.1026 103.716 15.6238 103.332 14.9503L101.464 11.6373C101.02 10.8291 100.789 10.7144 100.538 10.5597C101.193 10.425 103.177 9.96263 103.177 7.70907C103.177 7.03373 102.888 4.68369 99.4803 4.68369C98.9015 4.68369 96.3403 4.76197 95.8197 4.76197C95.5885 4.76197 94.6455 4.68369 94.4526 4.68369C93.8173 4.68369 93.739 4.68369 93.739 4.95492C93.739 5.22615 94.0103 5.24253 94.4326 5.26255C95.3755 5.32081 95.3755 5.84142 95.3755 6.62962V14.7956C95.3755 15.6038 95.3755 16.1062 94.4326 16.1827C94.0285 16.2009 93.739 16.2209 93.739 16.4921C93.739 16.7634 93.9902 16.7615 94.1431 16.7615C94.4908 16.7615 96.0508 16.6851 96.3785 16.6851C96.455 16.6851 98.3244 16.7615 98.6903 16.7615C98.8432 16.7615 99.0944 16.7797 99.0944 16.5122C99.0944 16.2446 98.8232 16.2027 98.4009 16.1845C97.4252 16.1244 97.4252 15.6038 97.4252 14.7956V11.337C97.4252 11.0093 97.4652 10.8946 97.7893 10.8946C98.6575 10.8946 98.7522 10.9711 99.1763 11.8048L101.517 16.1827C101.728 16.5868 101.805 16.7615 102.153 16.7615H104.69C104.825 16.7615 105.016 16.7288 105.016 16.5304C105.016 16.3319 104.925 16.2427 104.524 16.1827ZM98.3972 10.3849C97.4343 10.3849 97.4343 10.3467 97.4343 9.67138V6.43666C97.4343 5.68487 97.4525 5.22251 98.3444 5.22251C100.733 5.22251 101.002 7.28311 101.002 7.97666C100.997 10.3849 99.0908 10.3849 98.3972 10.3849Z" fill="black"/>
</g>
<defs>
<clipPath id="clip0_20326_7291">
<rect width="106.833" height="17" fill="white" transform="translate(0.583984)"/>
</clipPath>
</defs>
</svg>
