<svg width="74" height="18" viewBox="0 0 74 18" fill="none" xmlns="http://www.w3.org/2000/svg">
  <path fill-rule="evenodd" clip-rule="evenodd" d="M71.4671 7.685H70.4543C68.8405 7.685 67.9996 8.94954 67.9996 10.1579V15.6175H65.1348V5.26904H67.8483L67.9067 6.56124C68.4776 5.67631 69.4741 5.26904 70.7011 5.26904H71.6752L71.4671 7.685Z" fill="black"/>
  <path fill-rule="evenodd" clip-rule="evenodd" d="M51.812 15.6173H48.942V10.1468C48.942 9.00129 48.8414 7.55993 47.1889 7.55993C45.5948 7.55993 44.962 8.67782 44.962 9.98426V15.6173H42.0938V5.26884H44.7522L44.8124 6.5912C45.3833 5.70628 46.4443 5.0166 48.01 5.0166C50.898 5.0166 51.812 7.0278 51.812 9.12029V15.6173Z" fill="black"/>
  <path fill-rule="evenodd" clip-rule="evenodd" d="M40.8458 13.2L40.6455 15.5531C39.9577 15.7366 39.3463 15.7986 38.6104 15.7986C35.9089 15.7986 35.123 14.5894 35.123 12.1642V2.35205H37.9922V5.26913H40.8458L40.6455 7.68508H37.9922V11.9547C37.9922 12.9268 38.2647 13.453 39.2922 13.453C39.7341 13.453 40.2328 13.4011 40.8458 13.2Z" fill="black"/>
  <path fill-rule="evenodd" clip-rule="evenodd" d="M33.9589 7.685H33.1799C31.5661 7.685 30.7613 8.94702 30.7613 10.1579V15.6175H27.8965V5.26904H30.6117L30.6693 6.56124C31.2402 5.67631 32.2359 5.26904 33.4671 5.26904H34.1807L33.9589 7.685Z" fill="black"/>
  <path fill-rule="evenodd" clip-rule="evenodd" d="M14.9578 14.472C13.0147 15.486 11.0716 16.0692 8.50594 15.9972C3.74784 15.8547 0.316406 12.977 0.316406 8.1141C0.316406 3.2713 3.78223 0.177405 8.5068 0.107013C10.9039 0.0709791 13.0465 0.663445 14.7214 2.1048L12.7034 4.09421C11.6665 3.23359 10.1421 2.72911 8.31936 2.8104C5.34534 2.9428 3.55181 5.05205 3.51312 7.94817C3.47443 11.0848 5.44851 13.2485 8.53431 13.3281C9.98736 13.3633 11.026 13.1731 11.9279 12.7792V9.57138H8.72089L8.93584 6.93838H14.9578V14.472Z" fill="black"/>
  <path fill-rule="evenodd" clip-rule="evenodd" d="M63.8527 11.4248H55.9916C56.2151 12.7463 57.2813 13.5416 58.6096 13.5801C59.901 13.6153 60.6216 13.2323 61.5665 12.3013L63.4374 13.6916C62.109 15.288 60.5141 15.872 58.6956 15.872C55.498 15.872 53.1035 13.6916 53.1035 10.4418C53.1035 7.19875 55.486 5.0166 58.5761 5.0166C61.9817 5.0166 63.8527 7.0278 63.8527 10.5977V11.4248ZM60.9792 9.26191C60.8915 7.9563 59.8856 7.12836 58.5039 7.18199C57.1102 7.23395 56.1833 8.11636 55.9916 9.26191H60.9792Z" fill="black"/>
  <path fill-rule="evenodd" clip-rule="evenodd" d="M26.0935 8.84123V15.6173H23.564L23.5021 14.5949C22.7265 15.5318 21.4652 15.872 20.1712 15.872C18.2195 15.872 16.3744 14.931 16.3365 12.7463C16.2789 9.31051 20.3028 9.06581 22.8289 9.06581H23.3361V8.9309C23.3361 7.79541 22.5632 7.18199 21.1127 7.18199C20.0689 7.18199 19.0406 7.5901 18.2797 8.2848L16.6246 6.64483C18.1275 5.45907 19.6897 5.0166 21.356 5.0166C24.6439 5.0166 26.0935 6.49818 26.0935 8.84123ZM23.3361 11.1013H22.9346C21.5779 11.108 19.1945 11.1725 19.2022 12.5561C19.2169 14.5028 23.3361 13.8868 23.3361 11.5337V11.1013Z" fill="black"/>
  <path fill-rule="evenodd" clip-rule="evenodd" d="M69.515 14.8184C69.515 13.9673 70.1659 13.3241 71.0023 13.3241C71.8255 13.3241 72.4752 13.9673 72.4752 14.8184C72.4752 15.6846 71.8255 16.3234 71.0023 16.3234C70.1659 16.3234 69.515 15.6846 69.515 14.8184ZM71.0023 16.6212C71.9934 16.6212 72.8418 15.8611 72.8418 14.8184C72.8418 13.7876 71.9934 13.0264 71.0023 13.0264C69.9969 13.0264 69.1484 13.7876 69.1484 14.8184C69.1484 15.8611 69.9969 16.6212 71.0023 16.6212ZM70.6148 14.9635H70.9814L71.5368 15.8611H71.8924L71.2964 14.9483C71.6049 14.9104 71.843 14.748 71.843 14.3766C71.843 13.9673 71.5939 13.7876 71.0967 13.7876H70.2976V15.8611H70.6148V14.9635ZM70.6148 14.6928V14.0539H71.0495C71.2701 14.0539 71.5083 14.1005 71.5083 14.356C71.5083 14.6754 71.2635 14.6928 70.9979 14.6928H70.6148Z" fill="black"/>
</svg>
