<svg width="96" height="96" viewBox="0 0 96 96" fill="none" xmlns="http://www.w3.org/2000/svg">
<path d="M36 74.25V75.75H30V74.25H36ZM50.25 75C50.25 77.895 47.895 80.25 45 80.25H21C18.105 80.25 15.75 77.895 15.75 75V21C15.75 18.105 18.105 15.75 21 15.75H45C47.601 15.75 50.25 18.399 50.25 21H51.75C51.75 17.592 48.408 14.25 45 14.25H21C17.28 14.25 14.25 17.277 14.25 21V75C14.25 78.723 17.28 81.75 21 81.75H45C48.72 81.75 51.75 78.723 51.75 75V63H50.25V75ZM81.75 30V54C81.75 57.723 78.72 60.75 75 60.75H27C23.28 60.75 20.25 57.723 20.25 54V30C20.25 26.277 23.28 23.25 27 23.25H75C78.72 23.25 81.75 26.277 81.75 30ZM80.25 30C80.25 27.105 77.895 24.75 75 24.75H27C24.105 24.75 21.75 27.105 21.75 30V54C21.75 56.895 24.105 59.25 27 59.25H75C77.895 59.25 80.25 56.895 80.25 54V30ZM54 36.75H72V35.25H54V36.75ZM54 42.75H72V41.25H54V42.75ZM54 48.75H72V47.25H54V48.75ZM33 37.5C33 35.016 35.016 33 37.5 33C39.984 33 42 35.016 42 37.5C42 39.984 39.984 42 37.5 42C35.016 42 33 39.984 33 37.5ZM34.5 37.5C34.5 39.153 35.847 40.5 37.5 40.5C39.153 40.5 40.5 39.153 40.5 37.5C40.5 35.847 39.153 34.5 37.5 34.5C35.847 34.5 34.5 35.847 34.5 37.5ZM37.5 44.25C32.082 44.25 29.25 47.646 29.25 51H30.75C30.75 48.471 32.862 45.75 37.5 45.75C42.138 45.75 44.25 48.471 44.25 51H45.75C45.75 47.646 42.918 44.25 37.5 44.25Z" fill="#0263F5"/>
</svg>
