<svg width="115" height="29" viewBox="0 0 115 29" fill="none" xmlns="http://www.w3.org/2000/svg">
<path d="M17.0185 20.6995V21.9299C17.0185 22.5269 16.686 22.8618 16.086 22.8618H0.932486C0.335072 22.8618 0 22.5295 0 21.9299V20.6995C0 20.1025 0.332474 19.7676 0.932486 19.7676H16.0886C16.686 19.7676 17.0211 20.0999 17.0211 20.6995H17.0185ZM15.9847 11.391L12.034 9.11194C11.9041 9.03666 11.9041 8.85236 12.034 8.77709L15.9847 6.498C16.4315 6.24101 16.5821 5.66994 16.325 5.22607L15.7094 4.1618C15.4523 3.71532 14.8834 3.56477 14.4367 3.82175L10.4859 6.10084C10.3561 6.17612 10.195 6.08267 10.195 5.93471V1.37134C10.195 0.857373 9.77682 0.439453 9.26252 0.439453H8.03133C7.51703 0.439453 7.09884 0.857373 7.09884 1.37134V5.93212C7.09884 6.08008 6.9378 6.17352 6.80793 6.09825L2.8572 3.81915C2.41044 3.56217 1.8416 3.71532 1.58445 4.1592L0.968851 5.22347C0.711703 5.66994 0.864952 6.23842 1.30912 6.4954L5.25985 8.77449C5.38972 8.84977 5.38972 9.03407 5.25985 9.10935L1.30912 11.3884C0.862355 11.6454 0.711703 12.2139 0.968851 12.6604L1.58445 13.7246C1.8416 14.1711 2.41044 14.3217 2.8572 14.0647L6.80793 11.7856C6.9378 11.7103 7.09884 11.8038 7.09884 11.9517V16.5125C7.09884 17.0265 7.51703 17.4444 8.03133 17.4444H9.26252C9.77682 17.4444 10.195 17.0265 10.195 16.5125V11.9517C10.195 11.8038 10.3561 11.7103 10.4859 11.7856L14.4367 14.0647C14.8834 14.3217 15.4523 14.1685 15.7094 13.7246L16.325 12.6604C16.5821 12.2139 16.4289 11.6454 15.9847 11.3884V11.391Z" fill="#7379FD"/>
<path d="M26.305 11.9721C27.118 10.6872 28.796 9.79688 30.5285 9.79688C34.0688 9.79688 36.8766 12.7327 36.8766 16.481C36.8766 20.2293 34.0714 23.1651 30.5285 23.1651C28.796 23.1651 27.118 22.2748 26.305 20.9899V28.1516C26.305 28.258 26.2193 28.3437 26.1128 28.3437H23.4036C23.2971 28.3437 23.2114 28.258 23.2114 28.1516V10.3031C23.2114 10.1966 23.2971 10.111 23.4036 10.111H26.1128C26.2193 10.111 26.305 10.1966 26.305 10.3031V11.9721ZM29.9778 12.5224C27.8271 12.5224 26.1751 14.2279 26.1751 16.481C26.1751 18.7367 27.8271 20.4396 29.9778 20.4396C32.1545 20.4396 33.8064 18.7367 33.8064 16.481C33.8064 14.2253 32.1545 12.5224 29.9778 12.5224Z" fill="white"/>
<path d="M48.7363 18.3973C49.1623 18.6725 50.2818 19.3915 50.6948 19.6563C50.7831 19.7134 50.8091 19.8276 50.7571 19.9184C49.5103 22.0184 47.4038 23.1632 45.0011 23.1632C41.4063 23.1632 38.3906 20.2533 38.3906 16.479C38.3906 12.7048 41.4063 9.79492 44.9492 9.79492C48.6713 9.79492 51.3 12.6736 51.248 17.0475C51.248 17.1539 51.1597 17.2396 51.0532 17.2396H41.3024C41.6167 19.2591 43.1647 20.5155 45.0011 20.5155C46.7103 20.5155 47.6739 19.7679 48.4661 18.4596C48.5233 18.3662 48.6454 18.335 48.7363 18.3947V18.3973ZM41.4322 15.1163H48.1726C47.9622 13.6756 46.8349 12.4167 44.9466 12.4167C43.2946 12.4167 41.9284 13.4653 41.4322 15.1163Z" fill="white"/>
<path d="M61.0905 10.2962C61.119 10.2001 61.0697 10.1015 60.9788 10.0625C60.7034 9.94832 60.3814 9.87305 59.8775 9.87305C58.2774 9.87305 56.9917 10.8413 56.3631 12.1002V10.3014C56.3631 10.1949 56.2774 10.1093 56.1709 10.1093H53.4617C53.3552 10.1093 53.2695 10.1949 53.2695 10.3014V22.6546C53.2695 22.7611 53.3552 22.8467 53.4617 22.8467H56.1709C56.2774 22.8467 56.3631 22.7611 56.3631 22.6546V16.3469C56.3631 14.2755 57.6488 12.9127 59.5112 12.9127C59.7294 12.9127 59.9372 12.9283 60.1372 12.9594C60.2359 12.975 60.3294 12.9179 60.3554 12.8244C60.5034 12.3183 60.945 10.7945 61.0905 10.2962Z" fill="white"/>
<path d="M61.5661 19.6147L63.8856 18.7737C63.9869 18.7374 64.096 18.7919 64.1324 18.8905C64.5506 19.9963 65.3922 20.7517 66.587 20.7517C67.5299 20.7517 68.3974 20.1754 68.3974 19.1267C68.3974 16.7412 62.1531 18.3402 62.1531 13.7794C62.1531 11.5782 64.0155 9.79492 66.6389 9.79492C68.7896 9.79492 70.4026 10.9656 71.0104 12.6477C71.0468 12.7489 70.9871 12.8631 70.8832 12.8943L68.5481 13.6185C68.4494 13.6496 68.3481 13.5951 68.3117 13.4965C68.0026 12.6425 67.3948 12.2038 66.535 12.2038C65.722 12.2038 65.0389 12.7281 65.0389 13.5666C65.0389 15.8457 71.3351 14.2752 71.3351 18.9398C71.3351 21.4032 69.0779 23.1606 66.5091 23.1606C64.1895 23.1606 62.1168 21.8731 61.4492 19.851C61.418 19.7523 61.4726 19.6459 61.5687 19.6121L61.5661 19.6147Z" fill="white"/>
<path d="M79.3909 9.79492C83.0637 9.79492 86.1599 12.7048 86.1599 16.479C86.1599 20.2533 83.0637 23.1632 79.3909 23.1632C75.7181 23.1632 72.6479 20.2533 72.6479 16.479C72.6479 12.7048 75.7181 9.79492 79.3909 9.79492ZM79.3909 20.4402C81.5676 20.4402 83.2196 18.7374 83.2196 16.4816C83.2196 14.2259 81.5676 12.5231 79.3909 12.5231C77.2402 12.5231 75.5883 14.2285 75.5883 16.4816C75.5883 18.7374 77.2402 20.4402 79.3909 20.4402Z" fill="white"/>
<path d="M93.7697 12.5569C92.0631 12.5569 90.9359 13.8677 90.9359 15.8846V22.6648C90.9359 22.7712 90.8501 22.8569 90.7436 22.8569H88.0345C87.928 22.8569 87.8423 22.7712 87.8423 22.6648V10.3115C87.8423 10.2051 87.928 10.1194 88.0345 10.1194H90.7436C90.8501 10.1194 90.9359 10.2051 90.9359 10.3115V11.8222C91.7748 10.6438 93.0865 9.80273 94.871 9.80273C97.7568 9.80273 99.4347 11.7963 99.4347 14.4154V22.6622C99.4347 22.7686 99.349 22.8543 99.2425 22.8543H96.5334C96.4269 22.8543 96.3412 22.7686 96.3412 22.6622V15.2539C96.3412 13.603 95.3983 12.5543 93.7697 12.5543V12.5569Z" fill="white"/>
<path d="M114.756 10.3037V22.657C114.756 22.7634 114.67 22.8491 114.564 22.8491H111.855C111.748 22.8491 111.662 22.7634 111.662 22.657V20.9879C110.875 22.2728 109.197 23.1632 107.465 23.1632C103.925 23.1632 101.117 20.2273 101.117 16.479C101.117 12.7307 103.925 9.79492 107.465 9.79492C109.197 9.79492 110.875 10.6879 111.662 11.9702V10.3011C111.662 10.1947 111.748 10.109 111.855 10.109H114.564C114.67 10.109 114.756 10.1947 114.756 10.3011V10.3037ZM107.987 20.4402C110.164 20.4402 111.816 18.7374 111.816 16.4816C111.816 14.2259 110.164 12.5231 107.987 12.5231C105.836 12.5231 104.184 14.2285 104.184 16.4816C104.184 18.7374 105.836 20.4402 107.987 20.4402Z" fill="white"/>
</svg>
