<svg width="315" height="53" viewBox="0 0 315 53" fill="none" xmlns="http://www.w3.org/2000/svg">
<g clip-path="url(#clip0_20483_4913)">
<path d="M19.9705 33.7203V35.1641C19.9705 35.8647 19.5804 36.2576 18.8763 36.2576H1.09423C0.393193 36.2576 0 35.8677 0 35.1641V33.7203C0 33.0197 0.390145 32.6267 1.09423 32.6267H18.8793C19.5804 32.6267 19.9736 33.0166 19.9736 33.7203H19.9705ZM18.7574 22.7972L14.1214 20.1227C13.969 20.0344 13.969 19.8181 14.1214 19.7298L18.7574 17.0554C19.2817 16.7538 19.4585 16.0837 19.1567 15.5628L18.4343 14.314C18.1326 13.79 17.4651 13.6134 16.9408 13.9149L12.3048 16.5893C12.1524 16.6777 11.9634 16.568 11.9634 16.3944V11.0395C11.9634 10.4363 11.4727 9.94586 10.8692 9.94586H9.42443C8.82093 9.94586 8.3302 10.4363 8.3302 11.0395V16.3913C8.3302 16.565 8.14122 16.6746 7.98882 16.5863L3.35281 13.9119C2.82855 13.6103 2.16104 13.79 1.85928 14.3109L1.13691 15.5598C0.835153 16.0837 1.01499 16.7508 1.53619 17.0523L6.17221 19.7268C6.32461 19.8151 6.32461 20.0314 6.17221 20.1197L1.53619 22.7941C1.01194 23.0957 0.835153 23.7628 1.13691 24.2867L1.85928 25.5355C2.16104 26.0595 2.82855 26.2361 3.35281 25.9346L7.98882 23.2602C8.14122 23.1718 8.3302 23.2815 8.3302 23.4551V28.807C8.3302 29.4101 8.82093 29.9005 9.42443 29.9005H10.8692C11.4727 29.9005 11.9634 29.4101 11.9634 28.807V23.4551C11.9634 23.2815 12.1524 23.1718 12.3048 23.2602L16.9408 25.9346C17.4651 26.2361 18.1326 26.0564 18.4343 25.5355L19.1567 24.2867C19.4585 23.7628 19.2786 23.0957 18.7574 22.7941V22.7972Z" fill="black"/>
<path d="M30.8673 23.4802C31.8213 21.9724 33.7903 20.9276 35.8233 20.9276C39.9778 20.9276 43.2726 24.3727 43.2726 28.7712C43.2726 33.1696 39.9808 36.6147 35.8233 36.6147C33.7903 36.6147 31.8213 35.5698 30.8673 34.062V42.4662C30.8673 42.591 30.7667 42.6916 30.6417 42.6916H27.4626C27.3377 42.6916 27.2371 42.591 27.2371 42.4662V21.5216C27.2371 21.3967 27.3377 21.2962 27.4626 21.2962H30.6417C30.7667 21.2962 30.8673 21.3967 30.8673 21.5216V23.4802ZM35.1771 24.126C32.6534 24.126 30.7149 26.1272 30.7149 28.7712C30.7149 31.4182 32.6534 33.4164 35.1771 33.4164C37.7314 33.4164 39.6699 31.4182 39.6699 28.7712C39.6699 26.1242 37.7314 24.126 35.1771 24.126Z" fill="black"/>
<path d="M57.19 31.0188C57.6899 31.3416 59.0036 32.1854 59.4882 32.4961C59.5918 32.5631 59.6223 32.6971 59.5614 32.8037C58.0983 35.268 55.6264 36.6113 52.807 36.6113C48.5885 36.6113 45.0498 33.1967 45.0498 28.7677C45.0498 24.3388 48.5885 20.9242 52.746 20.9242C57.1138 20.9242 60.1984 24.3022 60.1374 29.4348C60.1374 29.5597 60.0338 29.6602 59.9088 29.6602H48.4666C48.8354 32.03 50.652 33.5043 52.807 33.5043C54.8126 33.5043 55.9434 32.6271 56.873 31.0919C56.9401 30.9822 57.0833 30.9456 57.19 31.0157V31.0188ZM48.619 27.1686H56.5286C56.2817 25.478 54.9589 24.0007 52.743 24.0007C50.8044 24.0007 49.2012 25.2313 48.619 27.1686Z" fill="black"/>
<path d="M71.6824 21.5124C71.716 21.3997 71.6581 21.2839 71.5514 21.2382C71.2283 21.1042 70.8503 21.0159 70.259 21.0159C68.3815 21.0159 66.8727 22.152 66.1351 23.6294V21.5185C66.1351 21.3936 66.0345 21.2931 65.9095 21.2931H62.7305C62.6055 21.2931 62.5049 21.3936 62.5049 21.5185V36.0145C62.5049 36.1394 62.6055 36.24 62.7305 36.24H65.9095C66.0345 36.24 66.1351 36.1394 66.1351 36.0145V28.6127C66.1351 26.1819 67.6438 24.5828 69.8293 24.5828C70.0853 24.5828 70.3291 24.601 70.5638 24.6376C70.6797 24.6559 70.7894 24.5889 70.8199 24.4792C70.9936 23.8852 71.5118 22.0972 71.6824 21.5124Z" fill="black"/>
<path d="M72.2419 32.4473L74.9638 31.4604C75.0827 31.4178 75.2107 31.4818 75.2534 31.5975C75.7441 32.8951 76.7316 33.7815 78.1337 33.7815C79.2402 33.7815 80.2582 33.1053 80.2582 31.8747C80.2582 29.0754 72.9308 30.9517 72.9308 25.5999C72.9308 23.0168 75.1162 20.9242 78.1947 20.9242C80.7184 20.9242 82.6112 22.298 83.3245 24.2718C83.3672 24.3906 83.2971 24.5246 83.1751 24.5612L80.435 25.411C80.3191 25.4476 80.2003 25.3836 80.1576 25.2678C79.7949 24.2657 79.0817 23.7509 78.0728 23.7509C77.1187 23.7509 76.3171 24.3662 76.3171 25.3501C76.3171 28.0245 83.7055 26.1816 83.7055 31.6554C83.7055 34.5461 81.0568 36.6082 78.0423 36.6082C75.3204 36.6082 72.8881 35.0974 72.1048 32.7245C72.0682 32.6088 72.1322 32.4839 72.245 32.4443L72.2419 32.4473Z" fill="black"/>
<path d="M93.1627 20.9242C97.4725 20.9242 101.106 24.3388 101.106 28.7677C101.106 33.1967 97.4725 36.6113 93.1627 36.6113C88.8528 36.6113 85.25 33.1967 85.25 28.7677C85.25 24.3388 88.8528 20.9242 93.1627 20.9242ZM93.1627 33.416C95.7169 33.416 97.6554 31.4178 97.6554 28.7708C97.6554 26.1238 95.7169 24.1256 93.1627 24.1256C90.6389 24.1256 88.7004 26.1268 88.7004 28.7708C88.7004 31.4178 90.6389 33.416 93.1627 33.416Z" fill="black"/>
<path d="M110.037 24.1651C108.034 24.1651 106.711 25.7034 106.711 28.0701V36.0264C106.711 36.1513 106.611 36.2518 106.486 36.2518H103.307C103.182 36.2518 103.081 36.1513 103.081 36.0264V21.5303C103.081 21.4054 103.182 21.3049 103.307 21.3049H106.486C106.611 21.3049 106.711 21.4054 106.711 21.5303V23.3031C107.696 21.9202 109.235 20.9333 111.329 20.9333C114.715 20.9333 116.684 23.2726 116.684 26.3461V36.0233C116.684 36.1482 116.584 36.2488 116.459 36.2488H113.28C113.155 36.2488 113.054 36.1482 113.054 36.0233V27.3299C113.054 25.3927 111.948 24.1621 110.037 24.1621V24.1651Z" fill="black"/>
<path d="M134.662 21.5212V36.0173C134.662 36.1422 134.561 36.2427 134.436 36.2427H131.257C131.132 36.2427 131.032 36.1422 131.032 36.0173V34.0587C130.108 35.5665 128.139 36.6113 126.106 36.6113C121.952 36.6113 118.657 33.1662 118.657 28.7677C118.657 24.3693 121.952 20.9242 126.106 20.9242C128.139 20.9242 130.108 21.972 131.032 23.4768V21.5182C131.032 21.3933 131.132 21.2928 131.257 21.2928H134.436C134.561 21.2928 134.662 21.3933 134.662 21.5182V21.5212ZM126.719 33.416C129.273 33.416 131.212 31.4178 131.212 28.7708C131.212 26.1238 129.273 24.1256 126.719 24.1256C124.195 24.1256 122.257 26.1268 122.257 28.7708C122.257 31.4178 124.195 33.416 126.719 33.416Z" fill="black"/>
<path opacity="0.7" d="M166.662 0V52.6374" stroke="#BDBDBD" stroke-width="0.962879"/>
<mask id="mask0_20483_4913" style="mask-type:luminance" maskUnits="userSpaceOnUse" x="247" y="14" width="68" height="26">
<path d="M314.062 14.2611H247.584V39.4767H314.062V14.2611Z" fill="white"/>
</mask>
<g mask="url(#mask0_20483_4913)">
<path d="M308.636 23.1557V20.5504C308.79 20.5013 311.707 20.485 312.085 20.5313C312.085 20.6176 312.085 20.7093 312.085 20.8001C312.085 25.1852 312.084 29.5703 312.087 33.9555C312.087 34.2152 312.107 34.4794 312.15 34.7346C312.261 35.3803 312.589 35.6745 313.219 35.709C313.455 35.7217 313.692 35.7135 313.929 35.7153C313.969 35.7153 314.01 35.7217 314.061 35.7253V39.0952C314.008 39.1007 313.955 39.1116 313.902 39.1116C313.394 39.1125 312.886 39.117 312.378 39.1116C311.881 39.1052 311.394 39.0298 310.923 38.8628C309.853 38.4832 309.218 37.7059 308.984 36.5617C308.964 36.4654 308.945 36.3683 308.92 36.2429C308.873 36.3002 308.841 36.3347 308.815 36.3728C307.669 38.0564 306.097 39.0062 304.158 39.3377C300.366 39.9852 296.908 37.9483 295.2 34.7137C294.543 33.4687 294.173 32.1339 294.063 30.7182C293.923 28.9029 294.164 27.1503 294.917 25.5003C296.067 22.9804 297.912 21.2705 300.495 20.4959C302.335 19.9438 304.156 20.0573 305.921 20.8591C306.983 21.3422 307.86 22.0741 308.522 23.0748C308.544 23.1084 308.57 23.1402 308.595 23.1729C308.608 23.1665 308.622 23.1602 308.635 23.1547L308.636 23.1557ZM308.661 29.8083C308.661 29.0945 308.582 28.4734 308.396 27.8323C307.981 26.3984 307.198 25.2551 305.942 24.5005C304.906 23.8785 303.782 23.6714 302.603 23.8131C300.68 24.0438 299.242 25.0554 298.392 26.8624C297.477 28.8085 297.497 30.8044 298.387 32.7641C298.911 33.9164 299.75 34.77 300.862 35.3149C301.824 35.7862 302.84 35.9406 303.893 35.8089C305.674 35.5846 307.011 34.6474 307.896 33.0247C308.439 32.0313 308.663 30.947 308.662 29.8092L308.661 29.8083Z" fill="black"/>
<path d="M256.801 20.1643C258.754 20.1888 260.533 20.7037 262.122 21.8434C264.082 23.2491 265.303 25.186 265.798 27.6052C266.218 29.6565 266.099 31.6852 265.323 33.6312C264.168 36.528 262.093 38.3641 259.194 39.1423C256.909 39.7562 254.672 39.531 252.556 38.4204C250.064 37.1119 248.497 35.006 247.862 32.1783C247.367 29.9671 247.516 27.7831 248.42 25.7045C249.649 22.8795 251.766 21.1541 254.641 20.4231C255.36 20.2406 256.094 20.1743 256.8 20.1652L256.801 20.1643ZM262.307 29.8127C262.312 29.2724 262.255 28.7393 262.132 28.2154C261.77 26.6671 260.986 25.4221 259.669 24.5821C258.598 23.9002 257.423 23.6641 256.183 23.813C254.252 24.0446 252.816 25.0652 251.961 26.8805C251.108 28.6903 251.09 30.5637 251.818 32.4289C252.306 33.6775 253.137 34.6219 254.293 35.2376C255.301 35.7743 256.375 35.9432 257.494 35.8061C259.016 35.619 260.252 34.8952 261.167 33.6085C261.967 32.4834 262.299 31.1993 262.307 29.8127Z" fill="black"/>
<path d="M276.207 28.9982C278.813 32.3608 281.414 35.7171 284.048 39.1133H283.843C282.451 39.1133 281.06 39.1115 279.668 39.1161C279.538 39.1161 279.454 39.0797 279.37 38.9698C277.416 36.4272 275.456 33.8882 273.502 31.3447C273.388 31.1957 273.276 31.1213 273.087 31.1322C272.783 31.1503 272.477 31.1367 272.146 31.1367V39.1015C270.933 39.1015 269.745 39.1015 268.557 39.1015C268.515 38.9453 268.495 14.7485 268.537 14.3045C268.68 14.2591 271.813 14.2418 272.141 14.2891V27.6688C272.41 27.6688 272.652 27.6724 272.894 27.6688C273.33 27.6615 273.193 27.7378 273.445 27.3709C274.974 25.147 276.499 22.9204 278.025 20.6947C278.065 20.6357 278.107 20.5784 278.151 20.5167H282.219C281.541 21.482 280.874 22.4146 280.211 23.3517C279.546 24.2925 278.879 25.2306 278.212 26.1704C277.547 27.1094 276.88 28.0483 276.207 28.9982Z" fill="black"/>
<path d="M293.139 23.9061H288.578C288.573 23.9887 288.565 24.0514 288.565 24.1149C288.565 27.3895 288.563 30.664 288.568 33.9386C288.568 34.2273 288.598 34.5188 288.645 34.8031C288.73 35.308 289.045 35.5858 289.519 35.6657C289.717 35.6993 289.92 35.713 290.121 35.7139C291.046 35.7184 291.972 35.7157 292.897 35.7157H293.139V39.1037C293.064 39.1074 292.998 39.1128 292.93 39.1128C291.58 39.1128 290.229 39.1128 288.88 39.1128C288.347 39.1128 287.826 39.0302 287.324 38.8404C286.129 38.3882 285.411 37.4901 285.103 36.2179C284.983 35.722 284.946 35.2153 284.946 34.7068C284.945 27.9761 284.946 21.2463 284.946 14.5156V14.3076C285.114 14.2595 288.289 14.2477 288.562 14.2931V20.5044H293.14V23.9061H293.139Z" fill="black"/>
</g>
<mask id="mask1_20483_4913" style="mask-type:luminance" maskUnits="userSpaceOnUse" x="198" y="7" width="39" height="39">
<path d="M236.485 7.40695H198.662V45.2305H236.485V7.40695Z" fill="white"/>
</mask>
<g mask="url(#mask1_20483_4913)">
<path d="M210.894 32.5375C211.474 33.1447 212.107 33.6699 212.826 34.112C212.787 34.1802 212.758 34.2388 212.722 34.291C211.906 35.4767 211.089 36.6602 210.272 37.8459C210.262 37.8597 210.254 37.8747 210.243 37.8885C210.076 38.1175 209.965 38.1314 209.74 37.946C209.616 37.8438 209.493 37.7372 209.368 37.6339C209.324 37.5966 209.275 37.5636 209.213 37.5167C209.147 37.6073 209.087 37.6872 209.03 37.7692C208.226 38.9016 207.423 40.033 206.62 41.1654C206.586 41.2144 206.553 41.2644 206.516 41.3103C206.384 41.4743 206.267 41.4913 206.1 41.371C206.052 41.3358 206.007 41.2953 205.962 41.257C205.394 40.7808 204.825 40.3057 204.259 39.8274C204.195 39.773 204.124 39.7144 204.089 39.642C204.024 39.5067 204.099 39.4023 204.195 39.3043C204.64 38.8579 205.081 38.4073 205.524 37.9588C207.253 36.2064 208.982 34.455 210.712 32.7037C210.765 32.6504 210.822 32.6014 210.893 32.5364L210.894 32.5375Z" fill="black"/>
<path d="M222.542 33.9681C223.25 33.5015 223.866 32.9678 224.428 32.3393C224.505 32.4064 224.575 32.4628 224.64 32.5268C225.648 33.5186 226.655 34.5103 227.661 35.5021C227.691 35.532 227.723 35.5607 227.751 35.5927C227.876 35.7418 227.873 35.859 227.73 35.9922C227.592 36.1189 227.443 36.234 227.301 36.3554C227.257 36.3938 227.216 36.4353 227.159 36.4897C227.335 36.6718 227.506 36.8487 227.678 37.0234C228.557 37.914 229.437 38.8046 230.317 39.6952C230.353 39.7314 230.391 39.7665 230.425 39.8049C230.561 39.9604 230.558 40.0861 230.413 40.2257C230.351 40.2843 230.284 40.3365 230.218 40.3908C229.683 40.8404 229.149 41.2889 228.614 41.7373C228.562 41.781 228.512 41.8279 228.454 41.8641C228.325 41.9461 228.218 41.9312 228.112 41.8194C228.072 41.7768 228.04 41.7246 228.004 41.6766C226.231 39.1774 224.457 36.6782 222.683 34.178C222.64 34.1162 222.598 34.0512 222.542 33.9681Z" fill="black"/>
<path d="M224.25 20.0893C223.671 19.4746 223.033 18.9548 222.314 18.5084C222.358 18.4381 222.39 18.3806 222.427 18.3273C223.238 17.1501 224.049 15.973 224.861 14.7958C224.886 14.7607 224.908 14.7244 224.935 14.6914C225.06 14.5338 225.193 14.5125 225.351 14.6371C225.539 14.783 225.717 14.9407 225.922 15.1122C225.985 15.0302 226.042 14.9609 226.094 14.8874C226.912 13.7359 227.729 12.5832 228.547 11.4305C228.586 11.3751 228.623 11.3166 228.67 11.2676C228.76 11.1717 228.88 11.1536 228.994 11.2175C229.038 11.242 229.077 11.2782 229.115 11.3112C229.709 11.8087 230.303 12.3062 230.896 12.8048C231.139 13.0093 231.144 13.1212 230.92 13.3481C229.431 14.8565 227.942 16.365 226.452 17.8735C225.788 18.5457 225.123 19.2179 224.459 19.8901C224.394 19.9561 224.325 20.0179 224.249 20.0914L224.25 20.0893Z" fill="black"/>
<path d="M218.959 35.3376C218.991 35.654 219.022 35.9481 219.051 36.2432C219.149 37.268 219.247 38.2939 219.344 39.3187C219.363 39.5221 219.388 39.7246 219.402 39.9291C219.417 40.1517 219.334 40.2434 219.11 40.2497C218.873 40.2561 218.637 40.2508 218.374 40.2508C218.383 40.4255 218.387 40.5683 218.398 40.711C218.509 42.0597 218.622 43.4084 218.734 44.757C218.739 44.8167 218.746 44.8763 218.744 44.9349C218.741 45.1128 218.663 45.2013 218.489 45.2247C218.43 45.2322 218.369 45.229 218.31 45.229C217.577 45.229 216.845 45.229 216.112 45.229C216.061 45.229 216.01 45.2322 215.959 45.2268C215.755 45.2076 215.67 45.1203 215.681 44.9104C215.696 44.6047 215.724 44.299 215.749 43.9932C215.829 43.0089 215.909 42.0245 215.99 41.0413C216.084 39.879 216.181 38.7168 216.276 37.5545C216.332 36.8845 216.385 36.2144 216.44 35.5443C216.445 35.4953 216.453 35.4463 216.463 35.376C217.29 35.4623 218.104 35.4602 218.96 35.3376H218.959Z" fill="black"/>
<path d="M209.165 29.8808C209.503 30.6616 209.931 31.3637 210.449 32.021C210.374 32.0785 210.316 32.1275 210.254 32.1712C209.095 32.9957 207.936 33.8192 206.777 34.6437C206.756 34.6586 206.735 34.6736 206.714 34.6885C206.501 34.8291 206.381 34.8056 206.25 34.5926C206.16 34.4477 206.079 34.2975 205.994 34.1505C205.964 34.0994 205.931 34.0514 205.885 33.98C205.801 34.0365 205.725 34.0866 205.651 34.1377C204.502 34.9314 203.353 35.725 202.204 36.5186C202.176 36.5378 202.148 36.5581 202.12 36.5772C201.85 36.7583 201.753 36.7381 201.591 36.459C201.202 35.7889 200.816 35.1178 200.43 34.4466C200.276 34.1771 200.304 34.0695 200.573 33.9428C203.386 32.6079 206.201 31.2742 209.015 29.9404C209.052 29.9223 209.093 29.9095 209.165 29.8797V29.8808Z" fill="black"/>
<path d="M205.092 20.0279C204.975 19.9714 204.884 19.9256 204.793 19.883C203.54 19.2886 202.286 18.6952 201.032 18.1008C200.978 18.0752 200.923 18.0528 200.871 18.023C200.691 17.9218 200.649 17.8025 200.751 17.6224C201.159 16.9044 201.571 16.1896 201.989 15.4769C202.11 15.2692 202.236 15.2521 202.459 15.4045C202.943 15.7358 203.426 16.0724 203.908 16.4059C205.961 17.8238 208.015 19.2406 210.068 20.6585C210.131 20.7022 210.19 20.748 210.264 20.8024C210.041 21.1571 209.808 21.4991 209.608 21.8591C209.405 22.2224 209.235 22.6027 209.045 22.9873C208.971 22.9575 208.892 22.9287 208.816 22.8946C207.539 22.3119 206.263 21.727 204.985 21.1433C204.939 21.1219 204.892 21.1017 204.847 21.0772C204.665 20.9771 204.624 20.8641 204.722 20.6777C204.833 20.4679 204.957 20.2644 205.092 20.0279Z" fill="black"/>
<path d="M203.675 24.6755C203.429 24.6489 203.187 24.6201 202.946 24.5978C201.675 24.4774 200.403 24.3591 199.132 24.2398C198.816 24.21 198.753 24.1322 198.808 23.8073C198.94 23.0275 199.079 22.2488 199.218 21.47C199.262 21.225 199.377 21.1632 199.651 21.2335C200.359 21.4157 201.066 21.6011 201.774 21.7864C204.045 22.3798 206.315 22.9742 208.586 23.5676C208.66 23.5868 208.732 23.6092 208.832 23.6379C208.602 24.4465 208.463 25.2625 208.446 26.0998C208.38 26.103 208.338 26.1105 208.296 26.1073C206.837 25.9912 205.378 25.874 203.918 25.7568C203.591 25.7302 203.525 25.6375 203.585 25.3062C203.617 25.1304 203.645 24.9536 203.674 24.7778C203.678 24.7544 203.674 24.7288 203.674 24.6766L203.675 24.6755Z" fill="black"/>
<path d="M212.6 18.6604C211.888 19.1238 211.271 19.6692 210.706 20.2967C210.42 20.0165 210.146 19.7513 209.876 19.4839C209.093 18.7126 208.311 17.9413 207.528 17.17C207.485 17.1285 207.442 17.088 207.402 17.0433C207.264 16.8867 207.266 16.7684 207.422 16.6267C207.561 16.501 207.709 16.386 207.853 16.2645C207.891 16.2326 207.927 16.1964 207.98 16.1484C207.933 16.093 207.894 16.0419 207.85 15.9961C206.875 15.0075 205.899 14.0199 204.923 13.0324C204.846 12.9536 204.765 12.8779 204.694 12.7927C204.592 12.6691 204.6 12.5434 204.706 12.4273C204.735 12.3964 204.769 12.3698 204.802 12.3432C205.395 11.8446 205.989 11.346 206.583 10.8485C206.817 10.6525 206.935 10.6642 207.105 10.9039C208.92 13.4585 210.734 16.0131 212.547 18.5688C212.562 18.589 212.573 18.6135 212.6 18.6615V18.6604Z" fill="black"/>
<path d="M225.982 22.7499C225.645 21.9701 225.219 21.267 224.698 20.6055C224.774 20.5447 224.831 20.4968 224.891 20.4531C226.05 19.6286 227.21 18.804 228.369 17.9795C228.396 17.9592 228.423 17.939 228.452 17.9209C228.65 17.7941 228.765 17.8197 228.892 18.0264C228.985 18.1787 229.071 18.3353 229.161 18.4898C229.187 18.5334 229.214 18.575 229.254 18.6368C229.33 18.5888 229.402 18.5484 229.469 18.5015C230.618 17.7078 231.767 16.9142 232.916 16.1195C232.965 16.0854 233.013 16.0502 233.063 16.0183C233.275 15.8819 233.398 15.9075 233.527 16.1195C233.619 16.2718 233.706 16.4284 233.795 16.5839C234.098 17.107 234.393 17.6354 234.706 18.1521C234.845 18.3832 234.865 18.5484 234.527 18.7071C232.724 19.5529 230.926 20.4094 229.127 21.2627C228.174 21.7144 227.22 22.1661 226.266 22.6178C226.182 22.6572 226.096 22.6956 225.981 22.7488L225.982 22.7499Z" fill="black"/>
<path d="M221.97 34.3387C222.004 34.4036 222.042 34.4676 222.074 34.5347C222.685 35.8173 223.295 37.0999 223.904 38.3825C223.923 38.4209 223.942 38.4592 223.958 38.4986C224.033 38.6915 223.99 38.8087 223.799 38.8864C223.618 38.9599 223.431 39.0196 223.248 39.0878C223.202 39.1048 223.16 39.1282 223.103 39.1559C223.149 39.2603 223.188 39.353 223.229 39.4446C223.808 40.7049 224.385 41.9651 224.963 43.2243C224.985 43.2712 225.007 43.3159 225.027 43.3639C225.121 43.5887 225.083 43.7005 224.858 43.7836C224.093 44.068 223.326 44.3482 222.558 44.6231C222.316 44.7093 222.212 44.6401 222.136 44.3684C221.891 43.4832 221.65 42.5969 221.407 41.7116C220.838 39.6375 220.268 37.5633 219.698 35.4892C219.675 35.4082 219.655 35.3262 219.63 35.2292C220.031 35.1003 220.43 34.9885 220.815 34.8425C221.203 34.6955 221.577 34.5134 221.972 34.3397L221.97 34.3387Z" fill="black"/>
<path d="M215.527 17.414C214.699 17.6153 213.93 17.9019 213.189 18.3056C213.147 18.23 213.109 18.165 213.077 18.0979C212.465 16.8153 211.856 15.5316 211.246 14.2479C211.231 14.217 211.216 14.1861 211.203 14.1552C211.105 13.924 211.15 13.8154 211.39 13.7216C211.549 13.6599 211.711 13.6066 211.871 13.548C211.926 13.5278 211.98 13.5022 212.046 13.4734C212.006 13.3797 211.973 13.2945 211.935 13.2114C211.353 11.9426 210.77 10.6749 210.189 9.40613C210.171 9.36778 210.153 9.32943 210.136 9.29001C210.02 9.02475 210.059 8.92568 210.334 8.82554C211.069 8.55602 211.804 8.28863 212.54 8.02337C212.838 7.91577 212.933 7.96691 213.018 8.27691C213.6 10.3926 214.18 12.5093 214.762 14.625C215.014 15.5433 215.266 16.4616 215.527 17.414Z" fill="black"/>
<path d="M221.719 18.1752C220.961 17.7991 220.186 17.5275 219.356 17.3538C219.398 17.1812 219.434 17.0257 219.475 16.8712C219.812 15.578 220.149 14.2857 220.486 12.9935C220.497 12.952 220.505 12.9104 220.519 12.87C220.588 12.6718 220.689 12.6143 220.891 12.6803C221.117 12.7538 221.338 12.8401 221.584 12.9296C221.613 12.8433 221.643 12.7666 221.664 12.6889C222.039 11.3274 222.413 9.96491 222.788 8.60346C222.802 8.55445 222.815 8.50545 222.831 8.45645C222.903 8.2306 223.007 8.17201 223.235 8.24978C223.502 8.33926 223.763 8.44153 224.027 8.53741C224.515 8.71425 225.004 8.89002 225.491 9.06899C225.76 9.16807 225.809 9.27992 225.692 9.53453C224.39 12.3746 223.087 15.2136 221.783 18.0526C221.77 18.0835 221.753 18.1123 221.717 18.1762L221.719 18.1752Z" fill="black"/>
<path d="M208.45 26.7845C208.502 27.6336 208.655 28.4336 208.92 29.2315C208.854 29.256 208.794 29.2837 208.731 29.3008C207.347 29.6853 205.962 30.0689 204.576 30.4524C204.56 30.4566 204.543 30.4609 204.527 30.4651C204.238 30.5365 204.144 30.4769 204.087 30.1775C204.06 30.0358 204.041 29.892 204.014 29.7493C204.003 29.6843 203.982 29.6204 203.962 29.5383C203.888 29.5511 203.822 29.5564 203.759 29.5724C202.385 29.9304 201.01 30.2904 199.636 30.6494C199.62 30.6537 199.603 30.659 199.587 30.6644C199.18 30.789 199.124 30.642 199.07 30.332C198.939 29.5777 198.806 28.8235 198.674 28.0703C198.626 27.7955 198.7 27.6954 198.986 27.6687C199.775 27.5942 200.563 27.5238 201.351 27.4503C202.343 27.3577 203.335 27.2618 204.325 27.168C205.131 27.0924 205.936 27.0178 206.741 26.9422C207.208 26.8985 207.674 26.8527 208.14 26.809C208.233 26.8005 208.326 26.7952 208.45 26.7856V26.7845Z" fill="black"/>
<path d="M224.865 31.8049C225.366 31.1316 225.766 30.4136 226.082 29.6242C226.177 29.6636 226.254 29.6945 226.329 29.7286C227.614 30.3156 228.899 30.9036 230.183 31.4917C230.222 31.5098 230.262 31.5247 230.299 31.545C230.477 31.6419 230.522 31.7644 230.425 31.9455C230.313 32.1554 230.189 32.3588 230.057 32.5879C230.145 32.6337 230.222 32.6784 230.303 32.7168C231.571 33.3176 232.839 33.9216 234.111 34.5171C234.452 34.6769 234.545 34.7718 234.313 35.1542C233.939 35.7731 233.587 36.4059 233.225 37.0323C233.191 37.0909 233.16 37.1527 233.118 37.206C233.022 37.3274 232.918 37.3487 232.782 37.2773C232.729 37.2496 232.681 37.2124 232.632 37.1783C230.11 35.4365 227.586 33.6947 225.064 31.953C225.002 31.9104 224.944 31.8635 224.867 31.8049H224.865Z" fill="black"/>
<path d="M226.694 25.8202C226.64 24.9871 226.489 24.1871 226.225 23.3924C226.302 23.3647 226.37 23.3338 226.44 23.3146C227.817 22.9343 229.195 22.5561 230.572 22.1769C230.605 22.1683 230.636 22.1534 230.669 22.146C230.888 22.0991 230.99 22.1587 231.04 22.3771C231.075 22.5348 231.096 22.6957 231.126 22.8544C231.14 22.929 231.159 23.0014 231.18 23.1015C231.469 23.028 231.746 22.9599 232.022 22.8885C233.199 22.5817 234.375 22.2738 235.552 21.9659C235.601 21.9531 235.65 21.9361 235.7 21.9286C235.91 21.8967 236.002 21.9531 236.041 22.1673C236.162 22.8107 236.272 23.4563 236.389 24.1008C236.418 24.268 236.452 24.4353 236.478 24.6036C236.511 24.8188 236.43 24.9253 236.211 24.9477C235.508 25.018 234.805 25.083 234.1 25.1501C233.083 25.246 232.067 25.3419 231.049 25.4377C230.253 25.5123 229.456 25.5879 228.659 25.6615C228.083 25.7147 227.506 25.768 226.93 25.8191C226.863 25.8255 226.796 25.8191 226.694 25.8191V25.8202Z" fill="black"/>
<path d="M213.43 34.4454C214.187 34.8268 214.957 35.0921 215.775 35.2646C215.765 35.3328 215.762 35.3893 215.748 35.4436C215.383 36.8519 215.018 38.2613 214.652 39.6686C214.573 39.9733 214.472 40.0233 214.169 39.9147C213.97 39.8433 213.772 39.7698 213.553 39.6899C213.477 39.9583 213.405 40.2023 213.338 40.4463C213.009 41.6447 212.681 42.8421 212.353 44.0406C212.341 44.0821 212.329 44.1226 212.317 44.1631C212.242 44.3964 212.144 44.4518 211.917 44.374C211.684 44.2952 211.453 44.2057 211.221 44.1215C210.702 43.933 210.181 43.7455 209.662 43.5548C209.376 43.4504 209.335 43.3492 209.462 43.0712C210.753 40.2545 212.044 37.4378 213.336 34.6223C213.36 34.569 213.39 34.5199 213.43 34.4454Z" fill="black"/>
<path d="M226.306 28.9784C226.546 28.1709 226.671 27.3602 226.699 26.5165C226.902 26.5282 227.079 26.5346 227.256 26.5485C228.266 26.6284 229.276 26.7093 230.284 26.7914C230.616 26.818 230.946 26.8446 231.276 26.8776C231.543 26.9043 231.611 27.0012 231.565 27.2697C231.528 27.487 231.489 27.7033 231.447 27.9408C231.648 27.9643 231.831 27.9888 232.016 28.0058C233.355 28.1304 234.694 28.2529 236.033 28.3765C236.301 28.401 236.382 28.4937 236.338 28.76C236.234 29.3981 236.118 30.0341 236.007 30.6701C235.98 30.8214 235.955 30.9716 235.927 31.1218C235.878 31.3892 235.783 31.4563 235.521 31.3892C234.846 31.2177 234.171 31.0419 233.496 30.8661C231.209 30.2696 228.922 29.673 226.636 29.0754C226.532 29.0477 226.428 29.0136 226.306 28.9763V28.9784Z" fill="black"/>
<path d="M218.683 17.252C217.839 17.1529 217.025 17.1614 216.187 17.2914C216.154 16.975 216.122 16.682 216.094 16.3891C215.979 15.1864 215.866 13.9836 215.75 12.7809C215.719 12.4666 215.794 12.374 216.104 12.3708C216.314 12.3686 216.526 12.3708 216.761 12.3708C216.761 12.2834 216.765 12.2184 216.761 12.1545C216.684 11.1787 216.606 10.2039 216.526 9.22814C216.487 8.74449 216.442 8.26191 216.405 7.77826C216.383 7.4917 216.46 7.40967 216.749 7.40861C217.532 7.40648 218.316 7.40648 219.099 7.40861C219.424 7.40861 219.485 7.47252 219.46 7.80916C219.408 8.51332 219.348 9.21748 219.291 9.92165C219.229 10.6769 219.167 11.4312 219.105 12.1854C219.01 13.3562 218.914 14.5259 218.818 15.6966C218.781 16.1547 218.742 16.6128 218.704 17.0709C218.7 17.1199 218.692 17.1689 218.681 17.2541L218.683 17.252Z" fill="black"/>
</g>
</g>
<defs>
<clipPath id="clip0_20483_4913">
<rect width="314.062" height="52.6374" fill="white"/>
</clipPath>
</defs>
</svg>
