<svg width="96" height="96" viewBox="0 0 96 96" fill="none" xmlns="http://www.w3.org/2000/svg">
<path d="M57 75.75H42V74.25H57C59.895 74.25 62.25 71.895 62.25 69V30H63.75V69C63.75 72.723 60.723 75.75 57 75.75ZM33.75 27C33.75 24.105 36.105 21.75 39 21.75H54V20.25H39C35.277 20.25 32.25 23.277 32.25 27V66H33.75V27ZM39 86.25C29.49 86.25 21.75 78.51 21.75 69H20.25C20.25 79.338 28.662 87.75 39 87.75V86.25ZM39 80.25C32.796 80.25 27.75 75.204 27.75 69H26.25C26.25 76.029 31.971 81.75 39 81.75V80.25ZM39 74.25C36.105 74.25 33.75 71.895 33.75 69H32.25C32.25 72.723 35.277 75.75 39 75.75V74.25ZM57 8.25V9.75C66.51 9.75 74.25 17.49 74.25 27H75.75C75.75 16.662 67.338 8.25 57 8.25ZM57 14.25V15.75C63.204 15.75 68.25 20.796 68.25 27H69.75C69.75 19.971 64.029 14.25 57 14.25ZM57 20.25V21.75C59.895 21.75 62.25 24.105 62.25 27H63.75C63.75 23.277 60.723 20.25 57 20.25ZM48 37.5C45.519 37.5 43.5 39.519 43.5 42C43.5 44.481 45.519 46.5 48 46.5C50.481 46.5 52.5 44.481 52.5 42C52.5 39.519 50.481 37.5 48 37.5ZM48 36C51.315 36 54 38.685 54 42C54 45.315 51.315 48 48 48C44.685 48 42 45.315 42 42C42 38.685 44.685 36 48 36ZM48 50.292C41.331 50.292 38.292 53.769 38.292 57H39.708C39.708 54.45 42.303 51.708 48 51.708C53.697 51.708 56.292 54.453 56.292 57H57.708C57.708 53.769 54.669 50.292 48 50.292Z" fill="#0263F5"/>
</svg>
