<svg width="97" height="96" viewBox="0 0 97 96" fill="none" xmlns="http://www.w3.org/2000/svg">
<mask id="mask0_11543_6306" style="mask-type:luminance" maskUnits="userSpaceOnUse" x="0" y="0" width="97" height="96">
<path d="M96.0383 0H0.543457V96H96.0383V0Z" fill="white"/>
</mask>
<g mask="url(#mask0_11543_6306)">
<path d="M96.0383 48C96.0383 21.4903 74.6611 0 48.2909 0C21.9207 0 0.543457 21.4903 0.543457 48C0.543457 74.5097 21.9207 96 48.2909 96C74.6611 96 96.0383 74.5097 96.0383 48Z" fill="#F2F2F2"/>
<path d="M80.171 55.7893L84.3997 54.4513L83.0258 51.3869C82.017 52.6601 81.0081 54.3003 80.171 55.7893ZM78.7324 41.7837L70.4463 23.2246L9.78125 26.6774L26.5897 72.773L58.9402 62.5224C56.8793 59.5443 56.128 56.0051 58.5108 54.2787C61.1727 52.3365 65.187 54.5808 67.7415 57.7531C70.2102 53.6097 77.1439 43.9633 78.7324 41.7837Z" fill="#9A9FFE"/>
<path d="M68.5627 36.6383C71.0957 36.6383 73.1566 34.6961 73.1566 32.2792C73.1566 29.8621 71.0957 27.9199 68.5627 27.9199C66.0296 27.9199 63.9688 29.8621 63.9688 32.2792C63.9688 34.6745 66.0296 36.6383 68.5627 36.6383ZM64.806 38.5158H72.3193V58.2618H64.806V38.5158Z" fill="#F4F5FF"/>
<path d="M61.0965 44.2778C61.1609 44.2994 61.2039 44.2778 61.2039 44.213V39.2064C61.2039 39.1416 61.1609 39.0769 61.0965 39.0338C61.0965 39.0338 60.1091 38.3863 57.1037 38.2137C56.9534 38.1273 54.3131 38.1058 53.6047 38.2137C42.6566 39.0985 42.2488 47.0616 42.2488 47.4069V49.3491C42.2488 49.5865 42.2488 57.7223 53.6047 58.4344C54.7209 58.5208 56.8891 58.4344 57.1037 58.4344C59.7226 58.4344 61.5259 57.6359 61.5259 57.6359C61.5903 57.6144 61.6332 57.5496 61.6332 57.4849V52.8019C61.6332 52.7372 61.5903 52.7156 61.5474 52.7588C61.5474 52.7588 60.7317 53.4062 57.1682 53.7731C56.1592 53.881 55.6655 53.8378 55.3005 53.7731C50.2344 52.9099 49.9983 49.1981 49.9983 49.1981C49.9983 49.1334 49.9768 49.0254 49.9768 48.9822V47.5579C49.9768 47.4932 49.9768 47.3853 49.9983 47.3422C49.9983 47.3422 50.3417 43.3498 55.3005 42.9182H57.1682C59.3363 43.1988 61.0965 44.2778 61.0965 44.2778Z" fill="#F4F5FF"/>
<path d="M21.376 58.1952C21.376 58.2599 21.4189 58.303 21.4833 58.303H28.8035C28.8679 58.303 28.9108 58.2599 28.9108 58.1952V52.4547C28.9108 52.39 28.9537 52.3469 29.0182 52.3469C29.0182 52.3469 40.7175 53.1885 40.7175 45.3116C40.7175 39.075 33.3759 38.406 30.9716 38.5139C30.9287 38.5139 21.4833 38.5139 21.4833 38.5139C21.4189 38.5139 21.376 38.557 21.376 38.6218V58.1952ZM28.782 47.966V42.8084H30.5852C30.5852 42.8084 33.1827 42.9163 33.3974 44.7075C33.4403 44.8369 33.4403 45.7217 33.3974 45.7649C33.0539 47.8581 30.7999 47.966 30.7999 47.966H28.782Z" fill="#F4F5FF"/>
<path d="M68.7757 67.7905C69.3768 67.7905 69.849 67.7905 70.6218 67.4452C73.2837 66.0424 82.278 43.9658 91.7666 37.168C91.8313 37.1248 91.8952 37.0601 91.9384 36.9954C92.003 36.9091 92.003 36.8228 92.003 36.8228C92.003 36.8228 92.003 36.3695 90.6076 36.3695C82.1709 36.1322 73.391 53.9359 68.7757 60.9711C68.7113 61.0574 68.4107 60.9711 68.4107 60.9711C68.4107 60.9711 65.3195 57.3024 62.6362 55.8997C62.5718 55.8781 62.2713 55.7702 61.9493 55.7918C61.7346 55.7918 60.4895 56.0508 59.9099 56.655C59.223 57.3887 59.2445 57.7988 59.2445 58.6836C59.2445 58.7483 59.2874 59.0505 59.3732 59.2015C60.0388 60.3668 63.0226 64.5102 65.4913 66.7978C65.8562 67.0783 66.4358 67.7905 68.7757 67.7905Z" fill="#BDC0FE"/>
</g>
</svg>
