<svg width="96" height="96" viewBox="0 0 96 96" fill="none" xmlns="http://www.w3.org/2000/svg">
<path d="M59.658 74.823L60.345 76.155C56.952 77.901 52.932 78.75 48.054 78.75C39.585 78.75 32.808 75.801 28.455 70.221C25.821 66.807 23.007 59.181 23.007 48C23.007 38.388 25.05 30.387 28.758 25.476C30.666 22.998 36.399 17.25 48.474 17.25C56.886 17.25 63.171 20.166 67.155 25.92C71.142 31.614 72.999 38.631 72.999 48C72.999 52.605 72.537 56.628 71.586 60.303L70.134 59.928C71.055 56.376 71.499 52.476 71.499 48C71.499 38.955 69.726 32.211 65.925 26.778C62.184 21.375 56.478 18.75 48.477 18.75C37.068 18.75 31.722 24.09 29.952 26.385C26.442 31.032 24.51 38.712 24.51 48C24.51 58.803 27.162 66.087 29.646 69.303C33.702 74.502 40.068 77.25 48.06 77.25C52.695 77.25 56.49 76.455 59.664 74.823H59.658ZM12.75 21C12.75 16.449 16.449 12.75 21 12.75H30V11.25H21C15.624 11.25 11.25 15.624 11.25 21V30H12.75V21ZM83.25 21V30H84.75V21C84.75 15.624 80.376 11.25 75 11.25H66V12.75H75C79.551 12.75 83.25 16.449 83.25 21ZM12.75 75V66H11.25V75C11.25 80.376 15.624 84.75 21 84.75H30V83.25H21C16.449 83.25 12.75 79.551 12.75 75ZM87.75 72V78C87.75 83.376 83.376 87.75 78 87.75H72C66.624 87.75 62.25 83.376 62.25 78V72C62.25 66.624 66.624 62.25 72 62.25H78C83.376 62.25 87.75 66.624 87.75 72ZM86.25 72C86.25 67.449 82.551 63.75 78 63.75H72C67.449 63.75 63.75 67.449 63.75 72V78C63.75 82.551 67.449 86.25 72 86.25H78C82.551 86.25 86.25 82.551 86.25 78V72ZM72.75 78.438L68.781 74.469L67.719 75.531L72.75 80.562L82.281 71.031L81.219 69.969L72.75 78.438ZM32.25 39H33.75C33.75 36.105 36.105 33.75 39 33.75C41.895 33.75 44.25 36.105 44.25 39H45.75C45.75 35.277 42.72 32.25 39 32.25C35.28 32.25 32.25 35.277 32.25 39ZM63.75 39C63.75 35.277 60.72 32.25 57 32.25C53.28 32.25 50.25 35.277 50.25 39V48C50.25 50.895 47.895 53.25 45 53.25V54.75C48.72 54.75 51.75 51.723 51.75 48V39C51.75 36.105 54.105 33.75 57 33.75C59.895 33.75 62.25 36.105 62.25 39H63.75ZM48 62.25C39.609 62.25 36.786 56.889 36.672 56.661L35.331 57.336C35.463 57.597 38.646 63.75 48.003 63.75C57.36 63.75 60.543 57.597 60.675 57.336L59.334 56.661C59.22 56.889 56.397 62.25 48.006 62.25H48Z" fill="#0263F5"/>
</svg>
