<svg width="153" height="65" viewBox="0 0 153 65" fill="none" xmlns="http://www.w3.org/2000/svg">
<path d="M152.847 33.605C152.847 40.1675 148.648 44.5963 142.73 44.5963C136.812 44.5963 132.613 40.1675 132.613 33.605C132.613 27.0425 136.812 22.6137 142.73 22.6137C148.648 22.6137 152.847 27.0425 152.847 33.605ZM137.452 33.605C137.452 37.9129 139.491 40.5299 142.73 40.5299C145.969 40.5299 148.008 37.9129 148.008 33.605C148.008 29.2971 145.969 26.6801 142.73 26.6801C139.491 26.6801 137.452 29.2971 137.452 33.605Z" fill="black"/>
<path d="M125.812 44.1534V41.1741C124.652 43.1066 121.853 44.5963 118.094 44.5963C110.656 44.5963 105.138 38.5571 105.138 29.8205C105.138 21.0436 110.696 14.8031 118.414 14.8031C124.292 14.8031 128.251 17.9838 130.01 23.0969L125.132 24.7476C124.292 21.3254 121.893 19.3527 118.454 19.3527C113.615 19.3527 110.256 23.4995 110.256 29.74C110.256 35.9804 113.615 40.1675 118.534 40.1675C122.692 40.1675 125.412 37.1882 125.572 33.0816H118.014V28.5724H130.49V44.1534H125.812Z" fill="black"/>
<path d="M94.5449 38.8388V27.1228H91.6257V23.0162H94.5449V16.816H99.2632V23.0162H103.662V27.1228H99.2632V38.0738C99.2632 39.966 100.343 40.1674 102.063 40.1674C102.863 40.1674 103.303 40.1271 104.022 40.0466V44.1129C103.143 44.274 101.943 44.3948 100.703 44.3948C96.7041 44.3948 94.5449 43.1467 94.5449 38.8388Z" fill="black"/>
<path d="M85.1023 20.1989V15.2468H90.0606V20.1989H85.1023ZM89.9806 23.0172V44.1542H85.1823V23.0172H89.9806Z" fill="black"/>
<path d="M61.3813 44.1542V15.2468H72.7781C78.9365 15.2468 82.2153 17.9443 82.2153 22.8561C82.2153 26.4393 80.136 28.2914 78.1367 29.0966C81.1359 30.0629 83.1352 32.559 83.1352 36.102C83.1352 41.1749 79.4163 44.1542 73.4978 44.1542H61.3813ZM66.2998 27.2043H72.2983C75.5776 27.2043 77.3767 25.916 77.3767 23.3795C77.3767 20.8431 75.5776 19.595 72.2983 19.595H66.2998V27.2043ZM66.2998 31.5525V39.806H73.2182C76.4573 39.806 78.2167 38.1151 78.2167 35.6591C78.2167 33.2435 76.4573 31.5525 73.2182 31.5525H66.2998Z" fill="black"/>
<path d="M22.76 58.2627C22.76 58.2627 44.6204 47.8943 44.6204 35.9844C44.6204 26.7477 44.6204 20.7476 44.6204 11.5109C30.7426 5.15173 14.7791 5.14514 0.89798 11.497C0.910567 20.7383 0.899321 26.7431 0.899321 35.9844C0.899321 47.8943 22.76 58.2627 22.76 58.2627Z" fill="#1647DB"/>
<path fill-rule="evenodd" clip-rule="evenodd" d="M18.2328 15.2447H21.0535V18.0422H23.8742V15.2447H26.6949V18.2759C29.8958 18.9762 31.8193 21.2074 31.8193 24.3893C31.8193 26.6256 30.4751 28.6316 28.1311 29.3222C30.7853 30.0128 32.3364 32.1834 32.3364 34.5841C32.3364 38.02 30.2789 40.3341 26.6949 41.0898V44.157H23.8742V41.3587H21.0535V44.157H18.2328V41.3587H15.4121V18.0422H18.2328V15.2447ZM27.3039 24.6195C27.3039 22.7779 25.9252 21.6926 23.5468 21.6926H19.8241V27.5464H23.788C25.9941 27.5464 27.3039 26.4611 27.3039 24.6195ZM27.8209 34.3539C27.8209 32.1834 26.4766 31.0981 23.8225 31.0981H19.8241V37.5439H23.5812C26.2009 37.5439 27.8209 36.3271 27.8209 34.3539Z" fill="white"/>
</svg>
