<svg fill="none" height="46" viewBox="0 0 140 46" width="140" xmlns="http://www.w3.org/2000/svg"><path clip-rule="evenodd" d="m34.2013 27.1206c.2635-.0529.5401-.1588.8431-.2911.527-.2382 1.0012-.5426 1.4491-.9131.448-.3705.83-.7675 1.133-1.2042s.5665-.9528.606-1.363c.1317-1.416-1.3437-2.4217-2.5426-1.5615-.3425.2514-1.4886 1.3762-2.1341 3.1495-.7509 2.0776.4479 2.2231.6587 2.1834m.8958 4.6581c.1844.1324.382.2118.5796.2647.1977.0529.4216.0794.6587.0794.7378 0 1.6072.0397 2.3186-.4632.8958-.6219 1.2647-1.3498 2.6084-1.3498 1.0012 0 1.818.847 1.818 1.8924 0 .3837-.1186 1.0586-.3557 1.3233-.5006.5558-1.7653 1.416-2.4371 1.7071-.6719.2911-1.3569.5161-2.0815.6881-.7114.172-1.4491.2514-2.1737.2514-1.1461 0-2.1605-.2117-3.0168-.6484-.8694-.4367-1.976-1.3101-2.503-2.0776-1.7126-2.4614-1.5413-4.0758-1.5413-4.0758-3.2276 1.5218-5.454-.7278-6.1127-2.6202-.4215 1.019-2.4371 4.4331-2.885 5.2801-.4611.8469-.9222 1.5747-1.3964 2.1834-.4743.6088-.9617 1.0852-1.4491 1.4292-.4875.3441-.9749.5161-1.4755.5161-.1713 0-.3162-.1323-.4479-.4102-.1318-.2779-.2371-.6484-.3162-1.1116-.0922-.4632-.1581-1.0057-.2108-1.6277s-.0922-1.2704-.1317-1.9585c-.0264-.6881-.0527-1.3895-.0659-2.1173s-.0132-1.4292-.0132-2.1173l-.5401-.0927c-.3557 1.3895-.7772 2.6599-1.2515 3.8112-.4874 1.1513-1.0012 2.1438-1.5545 2.9775s-1.1198 1.4821-1.71259 1.9453c-.59282.4631-1.15929.7013-1.72576.7013-.96169 0-1.6599-.7278-2.10781-2.1967-.42156-1.363-.63234-5.4785-.65869-8.0458-1.08025.4102-1.34372.4102-2.68745.4367-2.661106.0662-3.174884-3.4671-.32935-3.8509 2.60841-.344 3.3198-1.5879 4.54496-3.4406.21078-.3176.31617-.569.71138-.9263.52696-.4764 3.38571-.2514 3.28031.9131l-1.29106 10.3351h.23713c.54012-1.3233 1.00123-2.5011 1.40963-3.5862.3952-1.0719.764-2.0379 1.1066-2.8981.3425-.8601.6586-1.6012.9748-2.2364 0 0 .4348-1.0322.8431-1.7997.8563-1.6144 4.9139-1.0586 4.7294.1853l-1.5018 10.3351h.2503l4.3869-10.3484c.8958-1.6409 5.0456-1.2042 5.0324.3706 0 .3573-.0527.741-.1713 1.1513-.1185.4102-.2371.794-.382 1.138-.1318.3441-.9222 1.6806-.9222 1.6806 0 2.7525 2.503 2.7658 3.9258 2.2761 0 0 .3952-2.3025 1.7521-4.2875.4611-.6617 1.0671-1.2836 1.6204-1.813.5533-.5293 1.1856-.9395 1.8707-1.2571 1.6203-.7675 3.6886-.3308 4.2156-.1191.5928.225 1.0934.5558 1.5281.966.4348.4102.7773.9131 1.0144 1.4954.2372.5822.3689 1.2439.3689 1.9717 0 .794-.1844 1.5748-.5665 2.3688-.3688.7939-.8958 1.535-1.5545 2.2364-.6587.7013-1.4491 1.3233-2.3581 1.8791s-1.897.9792-2.9641 1.2836c.1844.3441.3689.6352.5401.8602.1713.2249.3557.4102.5402.5293m80.439-4.5787c.264-.0529.54-.1456.843-.2911.527-.2382 1.001-.5426 1.449-.9131.448-.3706.817-.7675 1.133-1.2042.303-.4367.567-.9528.606-1.3631.132-1.4291-1.343-2.4216-2.542-1.5615-.343.2514-1.502 1.3763-2.134 3.1495-.751 2.0776.447 2.2232.658 2.1703m-28.6659-5.0154c-.1317-1.1645-.8826-.9925-1.897-.4632-1.3042.6749-4.3078 4.5258-4.4923 7.0666-.1185 1.7335-.2766 2.9642 1.3701 3.2421 1.594.2646 3.0827-.8072 3.4252-2.4217 0 0 1.7389-6.0343 1.5808-7.4238m42.8541 13.6566c-.658 0-1.278-.3043-1.844-.913-.567-.6088-1.067-1.0719-1.489-2.1041-.079-.1853-.145-.3706-.21-.5691-.238.225-.448.4235-.62.5955-.527.3838-1.422 1.0984-2.028 1.4689-.606.3706-1.239.7014-1.911.9793-.671.2911-1.357.5161-2.081.6881-.711.172-1.449.2647-2.174.2647-1.146 0-2.16-.2118-3.03-.6484-.856-.4367-1.581-1.019-2.16-1.7468-.435-.5558-.791-1.1778-1.067-1.8659-.817 1.1645-2.148 1.9188-3.636 1.9188-1.831 0-3.399-1.1381-4.11-2.7657-.014-.0397-.04-.0662-.053-.1059-.185-.397-.277-.8072-.303-1.2307 0-.0529-.013-.0926-.013-.1456-.356.7543-.751 1.5351-1.212 2.3423-.448.8072-.923 1.5351-1.41 2.1835-.4874.6484-.9616 1.1778-1.4491 1.6012-.4874.4102-.9353.622-1.37.622-.7114 0-1.2647-.1853-1.6599-.5691-.3952-.3705-.6851-.8469-.8695-1.4291-.079-.2382-.1449-.4764-.1976-.7279-.2766.2779-.5796.5558-.8958.8205-.5928.5029-1.2252.9131-1.897 1.2572-.6719.344-1.3438.516-2.0288.516-.8036 0-1.4755-.2646-2.0156-.8072-.5401-.5425-1.0012-1.3233-1.3964-2.3555-.2898.3573-.6587.7146-1.0803 1.0851-.4347.3706-.8958.7014-1.4096 1.0058-.5137.3043-1.0407.5425-1.594.741-.5533.1853-1.1066.2911-1.6599.2911-.5928 0-1.1593-.1191-1.7126-.3705s-1.0539-.6087-1.4754-1.0719c-.4348-.4631-.7773-1.0322-1.0276-1.6938-.2503-.6749-.382-1.4292-.382-2.2629 0-.1985 0-.4102.0131-.622-.1844.1059-.3557.1985-.5269.2515-.5006.1588-1.0012.2382-1.515.2382-3.7677 0-5.8096-2.3291-6.4815-4.6581-.2371-.8469-.9617-.7675-.988-.2647-.0659 1.191-.303 4.8566-.6456 6.4446-.1712.7807-.4874 2.3158-.6455 2.6466-.158.3309-.303.5955-.4611.794-.158.2117-.3293.3441-.5137.4367-.1845.0794-.3821.1191-.606.1191-.5006 0-.909-.1059-1.212-.3308-.303-.225-.5401-.5161-.7114-.8999-.1581-.3705-.2766-.8072-.3293-1.2836-.0527-.4632-.0791-.9396-.0791-1.4292-.9485.569-1.8048 1.0851-2.5689 1.5351-.9221.5293-1.7389.9792-2.4503 1.3365s-1.3569.622-1.9102.8072c-.5533.1721-1.0671.2647-1.515.2647-.9353 0-1.7521-.2911-2.4635-.8866-.7114-.5823-1.3042-1.4292-1.7784-2.5276-.4743-1.0983-.8432-2.4349-1.0803-4.0096-.2371-1.5615-.3557-3.3348-.3557-5.2933 0-.7675.0264-1.5747.0922-2.4481.0659-.8734.1449-1.7336.2635-2.5805-.3689-.0529-.6455-.0926-.8563-.1456-.1976-.0397-.4215-.0926-.6455-.1323s-.5138-.0926-.8695-.1456c-.3557-.0529-.8563-.1191-1.515-.1852-.2898-.0397-.5269-.1059-.685-.225-.1581-.1059-.2766-.2382-.3557-.3838-.079-.1455-.1186-.3043-.1317-.4631 0-.1588-.0132-.2912-.0132-.4103 0-.2514.1186-.4499.3557-.5822.2371-.1324.5401-.2382.9222-.2911.3688-.0662.7904-.0927 1.2251-.1059h1.2911c.4083 0 .7772.0265 1.1066.0265.3293 0 .5532 0 .6718-.0265.3294-1.7203 2.5557-10.44101 5.0324-12.32013.8431-.63519 3.5042-.66166 3.3988 1.28362-.1054 2.07762-3.6359 11.10271-3.4251 11.39381.2766.3705 2.9377.3043 3.188.3043s.5533.0133.8958.0265.6982.0265 1.0935.0529c.3952.0133.7772.0397 1.1461.053.3688 0 .7114.0264 1.0275.0397.3162 0 .5797.0264.7905.0397.2503.0132.4215.1455.5269.3837s.1581.5426.1581.9131c0 .45-.1186.8073-.3689 1.0852-.2503.2778-.5138.4234-.8036.4234h-7.0611c-2.2264 0-2.0815 2.8319-2.0815 2.8319-.0527.794-.0922 1.5615-.1317 2.3291 0 .3308-.0264.6749-.0395 1.0189 0 .3441-.0264.7014-.0396 1.0454 0 .3441-.0263.6749-.0263.9925v.8867c0 .6881.0659 1.2703.1844 1.7335.1186.4632.303.8602.5401 1.1513.2372.3044.5138.5161.8563.6484.3426.1324.7114.1985 1.133.1985.2635 0 .5796-.0661.9617-.1985.382-.1323.8036-.3043 1.2647-.5293.461-.225.9485-.4896 1.4491-.794.5138-.3044 1.0144-.6352 1.5018-1.0057.5006-.3573.9748-.7411 1.4228-1.1513.3952-.3573.764-.7146 1.0934-1.0851.079-.5955.1712-1.2043.2766-1.813.1449-.8601.2898-1.6806.4479-2.4614.1581-.7807.3162-1.4953.4743-2.1437.1581-.6485.3162-1.191.4742-1.6013.0923-.2778.1977-.5028.2899-.6748.0922-.1588.2107-.2912.3425-.397.1317-.0927.2898-.1588.4742-.1853.1845-.0265.4216-.0529.7114-.0529.3162 0 .5665.0132.7378.0529.1844.0265.303.1059.3952.225s.1449.2911.1581.5293c.0131.225.0263.5425.0263.9395v1.7071c0 .6749.7641.8999 1.0671.2647s.6587-1.2175 1.0671-1.76c.4083-.5426.8694-1.0057 1.3832-1.3895.5138-.3705 1.1066-.569 1.7785-.569.2371 0 .4611.0397.685.1191.224.0794.4084.1985.5797.3573.1712.1455.303.344.3952.569.1054.2249.1449.4764.1449.7543 0 .2117-.0264.5161-.0922.9131-.0659.3837-.1318.794-.1976 1.2174-.0791.4235-.145.8469-.1976 1.2439-.0659.397-.0923.7411-.0923 1.0058 0 .4631.0396.8337.1318 1.1513s.1976.5557.3425.741.303.3176.4743.397c.1712.0794.3688.1191.5664.1191.5533 0 .8431-.0132 1.436-.2779.5928-.2514 1.3042-.8734 1.673-1.6541 0 0 0 0 0-.0133.3162-.6219.6587-1.2174 1.0408-1.7865.0658-.0926.1185-.1852.1844-.2779 0 0 .0922-.1323.1449-.1985.6192-.8469 1.291-1.6012 2.0288-2.2364.7377-.6352 1.515-1.138 2.3186-1.5218.8167-.3705 1.6467-.5558 2.4898-.569 3.3857-.0397 4.2815 1.6144 4.4132 1.7468.1186.1191.224.3043.2898.5293.0659.225.1054.5426.1054.9396 0 .6087-.0658 1.2836-.1844 2.0379-.1186.741-.2635 1.5086-.4084 2.2893-.1449.7808-.2766 1.5615-.4084 2.3555-.1185.7808-.1844 1.5218-.1844 2.2232 0 .5955.0527 1.0719.1581 1.4027.1054.3441.3293.5029.6718.5029.2635 0 .527-.0662.8036-.1985.2767-.1323.5665-.3044.8563-.5293.2899-.2118.5797-.4632.8563-.7411.2899-.2779.5665-.5558.8168-.8469.1581-.1853.3294-.3838.4874-.5823-.0263-.5558-.0526-1.0586-.0658-1.5086-.0395-.7013-.0659-1.3498-.1054-1.9188-.0264-.569-.0527-1.0983-.0659-1.588-.0132-.4896-.0132-.9792-.0132-1.4953 0-1.3101.0527-2.3291.1713-3.0701.1186-.7278.3689-1.1248.7641-1.191l2.2132-.3573s.1185-.0265.1712-.0265h.1713c.4215 0 .7377.1324.9617.3838.2239.2514.3425.5426.3557.8734l-.7114 12.0951h.2503l4.8346-12.0025c.04-.1853.119-.3573.237-.5161.119-.1588.277-.3043.475-.4234.197-.1191.421-.225.658-.2912.237-.0794.488-.1191.764-.1191.712 0 1.278.1456 1.713.45.435.3043.645.6881.645 1.1512 0 .3573-.039.7014-.131 1.0058-.093.3176-.224.6616-.382 1.0454-.172.3705-.356.794-.593 1.2571-.224.4632-.474.9925-.751 1.6277-.092.225-.158.4632-.224.7014-.066.225-.119.4632-.158.741 0 .053 0 .1059-.013.1588-.066.225-.092.4632-.092.7146 0 .3838.079.7543.223 1.0852.079.2117.185.4102.33.5822.066.0927.145.1588.237.2382.461.4632 1.08.7543 1.778.7543 1.054 0 1.963-.6616 2.345-1.6144.013-.0133.027-.0397.053-.053.026-.5293.092-1.0719.184-1.6541.132-.794.343-1.5748.62-2.3423.276-.7675.619-1.4953 1.04-2.1835.422-.6881.896-1.3101 1.463-1.8394.553-.5293 1.185-.9395 1.87-1.2571 1.608-.7676 3.689-.3309 4.216-.1191.593.2249 1.093.5558 1.528.966s.777.9131 1.014 1.4953c.251.5823.369 1.244.369 1.9718 0 .794-.184 1.5747-.566 2.3687-.369.794-.896 1.5351-1.555 2.2364-.658.7014-1.449 1.3234-2.358 1.8791-.909.5426-1.897.9793-2.964 1.2837.185.344.369.6352.54.8601.172.225.356.4103.54.5294.185.1323.382.2117.58.2646.198.053.422.0794.646.0794.737 0 1.515-.1588 2.331-.4631.817-.3044 1.608-.6882 2.385-1.1513.487-.2912 1.778-1.4822 2.832-2.6599-.105-.9396-.171-1.8924-.171-2.8848 0-1.1381.803-5.9021 1.067-7.2254 1.159-5.7299 3.504-11.49963 4.123-12.63768.62-1.13806 1.792-3.29507 2.675-3.9038 2.595-1.799712 4.874-.17203 4.874 1.90558 0 1.69385-2.569 7.9135-3.992 12.201-1.818 5.4918-3.807 12.9421-3.846 13.2068v.3308c0 .3308.052.3043.118.6219s.053.1721.185.4103c.131.2249.289.397.421.5161.145.1323.369.2779.461.3176.198.0926.488.2249.804.2249.369 0 .685-.0397 1.027-.2117.343-.172.422-.2382.778-.4632.355-.2249.698-.4499 1.027-.6749.567-.397 1.146-.8336 1.752-1.31.145-.1588.685-.5029.685-.5029.251-.1059.514-.172.804-.172 1.133 0 2.055.9528 2.055 2.1305 0 2.3026-7.127 6.0079-10.355 6.0079" fill="#19bed3" fill-rule="evenodd"/></svg>