<svg width="96" height="96" viewBox="0 0 96 96" fill="none" xmlns="http://www.w3.org/2000/svg">
<path d="M30 38.25H9C6.933 38.25 5.25 39.933 5.25 42V54C5.25 56.067 6.933 57.75 9 57.75H30C32.067 57.75 33.75 56.067 33.75 54V42C33.75 39.933 32.067 38.25 30 38.25ZM32.25 54C32.25 55.242 31.242 56.25 30 56.25H9C7.758 56.25 6.75 55.242 6.75 54V42C6.75 40.758 7.758 39.75 9 39.75H30C31.242 39.75 32.25 40.758 32.25 42V54ZM81 38.25H72C66.624 38.25 62.25 42.624 62.25 48C62.25 53.376 66.624 57.75 72 57.75H81C86.376 57.75 90.75 53.376 90.75 48C90.75 42.624 86.376 38.25 81 38.25ZM81 56.25H72C67.449 56.25 63.75 52.551 63.75 48C63.75 43.449 67.449 39.75 72 39.75H81C85.551 39.75 89.25 43.449 89.25 48C89.25 52.551 85.551 56.25 81 56.25ZM72 27.75H81C86.376 27.75 90.75 23.376 90.75 18C90.75 12.624 86.376 8.25 81 8.25H72C66.624 8.25 62.25 12.624 62.25 18C62.25 23.376 66.624 27.75 72 27.75ZM72 9.75H81C85.551 9.75 89.25 13.449 89.25 18C89.25 22.551 85.551 26.25 81 26.25H72C67.449 26.25 63.75 22.551 63.75 18C63.75 13.449 67.449 9.75 72 9.75ZM81 68.25H72C66.624 68.25 62.25 72.624 62.25 78C62.25 83.376 66.624 87.75 72 87.75H81C86.376 87.75 90.75 83.376 90.75 78C90.75 72.624 86.376 68.25 81 68.25ZM81 86.25H72C67.449 86.25 63.75 82.551 63.75 78C63.75 73.449 67.449 69.75 72 69.75H81C85.551 69.75 89.25 73.449 89.25 78C89.25 82.551 85.551 86.25 81 86.25ZM54 17.25H60V18.75H54C51.105 18.75 48.75 21.105 48.75 24V42C48.75 44.628 47.226 46.887 45.027 48C47.226 49.113 48.75 51.372 48.75 54V72C48.75 74.895 51.105 77.25 54 77.25H60V78.75H54C50.277 78.75 47.25 75.723 47.25 72V54C47.25 51.105 44.895 48.75 42 48.75H36V47.25H42C44.895 47.25 47.25 44.895 47.25 42V24C47.25 20.277 50.277 17.25 54 17.25ZM51 47.25H60V48.75H51V47.25Z" fill="#0263F5"/>
</svg>
