<svg width="64" height="64" viewBox="0 0 64 64" fill="none" xmlns="http://www.w3.org/2000/svg">
<path d="M20 25.5H6C4.622 25.5 3.5 26.622 3.5 28V36C3.5 37.378 4.622 38.5 6 38.5H20C21.378 38.5 22.5 37.378 22.5 36V28C22.5 26.622 21.378 25.5 20 25.5ZM21.5 36C21.5 36.828 20.828 37.5 20 37.5H6C5.172 37.5 4.5 36.828 4.5 36V28C4.5 27.172 5.172 26.5 6 26.5H20C20.828 26.5 21.5 27.172 21.5 28V36ZM54 25.5H48C44.416 25.5 41.5 28.416 41.5 32C41.5 35.584 44.416 38.5 48 38.5H54C57.584 38.5 60.5 35.584 60.5 32C60.5 28.416 57.584 25.5 54 25.5ZM54 37.5H48C44.966 37.5 42.5 35.034 42.5 32C42.5 28.966 44.966 26.5 48 26.5H54C57.034 26.5 59.5 28.966 59.5 32C59.5 35.034 57.034 37.5 54 37.5ZM48 18.5H54C57.584 18.5 60.5 15.584 60.5 12C60.5 8.416 57.584 5.5 54 5.5H48C44.416 5.5 41.5 8.416 41.5 12C41.5 15.584 44.416 18.5 48 18.5ZM48 6.5H54C57.034 6.5 59.5 8.966 59.5 12C59.5 15.034 57.034 17.5 54 17.5H48C44.966 17.5 42.5 15.034 42.5 12C42.5 8.966 44.966 6.5 48 6.5ZM54 45.5H48C44.416 45.5 41.5 48.416 41.5 52C41.5 55.584 44.416 58.5 48 58.5H54C57.584 58.5 60.5 55.584 60.5 52C60.5 48.416 57.584 45.5 54 45.5ZM54 57.5H48C44.966 57.5 42.5 55.034 42.5 52C42.5 48.966 44.966 46.5 48 46.5H54C57.034 46.5 59.5 48.966 59.5 52C59.5 55.034 57.034 57.5 54 57.5ZM36 11.5H40V12.5H36C34.07 12.5 32.5 14.07 32.5 16V28C32.5 29.752 31.484 31.258 30.018 32C31.484 32.742 32.5 34.248 32.5 36V48C32.5 49.93 34.07 51.5 36 51.5H40V52.5H36C33.518 52.5 31.5 50.482 31.5 48V36C31.5 34.07 29.93 32.5 28 32.5H24V31.5H28C29.93 31.5 31.5 29.93 31.5 28V16C31.5 13.518 33.518 11.5 36 11.5ZM34 31.5H40V32.5H34V31.5Z" fill="#7379FD"/>
</svg>
